%TF.GenerationSoftware,KiCad,Pcbnew,8.0.7*%
%TF.CreationDate,2025-02-16T23:10:18-06:00*%
%TF.ProjectId,MCU,4d43552e-6b69-4636-9164-5f7063625858,rev?*%
%TF.SameCoordinates,Original*%
%TF.FileFunction,Legend,Top*%
%TF.FilePolarity,Positive*%
%FSLAX46Y46*%
G04 Gerber Fmt 4.6, Leading zero omitted, Abs format (unit mm)*
G04 Created by KiCad (PCBNEW 8.0.7) date 2025-02-16 23:10:18*
%MOMM*%
%LPD*%
G01*
G04 APERTURE LIST*
%ADD10C,0.150000*%
%ADD11C,0.120000*%
G04 APERTURE END LIST*
D10*
X140972743Y-96112295D02*
X140972743Y-95312295D01*
X140972743Y-95312295D02*
X141258457Y-95312295D01*
X141258457Y-95312295D02*
X141329886Y-95350390D01*
X141329886Y-95350390D02*
X141365600Y-95388485D01*
X141365600Y-95388485D02*
X141401314Y-95464676D01*
X141401314Y-95464676D02*
X141401314Y-95578961D01*
X141401314Y-95578961D02*
X141365600Y-95655152D01*
X141365600Y-95655152D02*
X141329886Y-95693247D01*
X141329886Y-95693247D02*
X141258457Y-95731342D01*
X141258457Y-95731342D02*
X140972743Y-95731342D01*
X141687029Y-95883723D02*
X142044172Y-95883723D01*
X141615600Y-96112295D02*
X141865600Y-95312295D01*
X141865600Y-95312295D02*
X142115600Y-96112295D01*
X142472743Y-95655152D02*
X142401314Y-95617057D01*
X142401314Y-95617057D02*
X142365600Y-95578961D01*
X142365600Y-95578961D02*
X142329886Y-95502771D01*
X142329886Y-95502771D02*
X142329886Y-95464676D01*
X142329886Y-95464676D02*
X142365600Y-95388485D01*
X142365600Y-95388485D02*
X142401314Y-95350390D01*
X142401314Y-95350390D02*
X142472743Y-95312295D01*
X142472743Y-95312295D02*
X142615600Y-95312295D01*
X142615600Y-95312295D02*
X142687029Y-95350390D01*
X142687029Y-95350390D02*
X142722743Y-95388485D01*
X142722743Y-95388485D02*
X142758457Y-95464676D01*
X142758457Y-95464676D02*
X142758457Y-95502771D01*
X142758457Y-95502771D02*
X142722743Y-95578961D01*
X142722743Y-95578961D02*
X142687029Y-95617057D01*
X142687029Y-95617057D02*
X142615600Y-95655152D01*
X142615600Y-95655152D02*
X142472743Y-95655152D01*
X142472743Y-95655152D02*
X142401314Y-95693247D01*
X142401314Y-95693247D02*
X142365600Y-95731342D01*
X142365600Y-95731342D02*
X142329886Y-95807533D01*
X142329886Y-95807533D02*
X142329886Y-95959914D01*
X142329886Y-95959914D02*
X142365600Y-96036104D01*
X142365600Y-96036104D02*
X142401314Y-96074200D01*
X142401314Y-96074200D02*
X142472743Y-96112295D01*
X142472743Y-96112295D02*
X142615600Y-96112295D01*
X142615600Y-96112295D02*
X142687029Y-96074200D01*
X142687029Y-96074200D02*
X142722743Y-96036104D01*
X142722743Y-96036104D02*
X142758457Y-95959914D01*
X142758457Y-95959914D02*
X142758457Y-95807533D01*
X142758457Y-95807533D02*
X142722743Y-95731342D01*
X142722743Y-95731342D02*
X142687029Y-95693247D01*
X142687029Y-95693247D02*
X142615600Y-95655152D01*
X143865601Y-96417057D02*
X143829886Y-96378961D01*
X143829886Y-96378961D02*
X143758458Y-96264676D01*
X143758458Y-96264676D02*
X143722744Y-96188485D01*
X143722744Y-96188485D02*
X143687029Y-96074200D01*
X143687029Y-96074200D02*
X143651315Y-95883723D01*
X143651315Y-95883723D02*
X143651315Y-95731342D01*
X143651315Y-95731342D02*
X143687029Y-95540866D01*
X143687029Y-95540866D02*
X143722744Y-95426580D01*
X143722744Y-95426580D02*
X143758458Y-95350390D01*
X143758458Y-95350390D02*
X143829886Y-95236104D01*
X143829886Y-95236104D02*
X143865601Y-95198009D01*
X144079886Y-95312295D02*
X144544172Y-95312295D01*
X144544172Y-95312295D02*
X144294172Y-95617057D01*
X144294172Y-95617057D02*
X144401315Y-95617057D01*
X144401315Y-95617057D02*
X144472744Y-95655152D01*
X144472744Y-95655152D02*
X144508458Y-95693247D01*
X144508458Y-95693247D02*
X144544172Y-95769438D01*
X144544172Y-95769438D02*
X144544172Y-95959914D01*
X144544172Y-95959914D02*
X144508458Y-96036104D01*
X144508458Y-96036104D02*
X144472744Y-96074200D01*
X144472744Y-96074200D02*
X144401315Y-96112295D01*
X144401315Y-96112295D02*
X144187029Y-96112295D01*
X144187029Y-96112295D02*
X144115601Y-96074200D01*
X144115601Y-96074200D02*
X144079886Y-96036104D01*
X145008458Y-95312295D02*
X145079887Y-95312295D01*
X145079887Y-95312295D02*
X145151315Y-95350390D01*
X145151315Y-95350390D02*
X145187030Y-95388485D01*
X145187030Y-95388485D02*
X145222744Y-95464676D01*
X145222744Y-95464676D02*
X145258458Y-95617057D01*
X145258458Y-95617057D02*
X145258458Y-95807533D01*
X145258458Y-95807533D02*
X145222744Y-95959914D01*
X145222744Y-95959914D02*
X145187030Y-96036104D01*
X145187030Y-96036104D02*
X145151315Y-96074200D01*
X145151315Y-96074200D02*
X145079887Y-96112295D01*
X145079887Y-96112295D02*
X145008458Y-96112295D01*
X145008458Y-96112295D02*
X144937030Y-96074200D01*
X144937030Y-96074200D02*
X144901315Y-96036104D01*
X144901315Y-96036104D02*
X144865601Y-95959914D01*
X144865601Y-95959914D02*
X144829887Y-95807533D01*
X144829887Y-95807533D02*
X144829887Y-95617057D01*
X144829887Y-95617057D02*
X144865601Y-95464676D01*
X144865601Y-95464676D02*
X144901315Y-95388485D01*
X144901315Y-95388485D02*
X144937030Y-95350390D01*
X144937030Y-95350390D02*
X145008458Y-95312295D01*
X145508458Y-96417057D02*
X145544173Y-96378961D01*
X145544173Y-96378961D02*
X145615601Y-96264676D01*
X145615601Y-96264676D02*
X145651316Y-96188485D01*
X145651316Y-96188485D02*
X145687030Y-96074200D01*
X145687030Y-96074200D02*
X145722744Y-95883723D01*
X145722744Y-95883723D02*
X145722744Y-95731342D01*
X145722744Y-95731342D02*
X145687030Y-95540866D01*
X145687030Y-95540866D02*
X145651316Y-95426580D01*
X145651316Y-95426580D02*
X145615601Y-95350390D01*
X145615601Y-95350390D02*
X145544173Y-95236104D01*
X145544173Y-95236104D02*
X145508458Y-95198009D01*
X140151314Y-103862295D02*
X140151314Y-103062295D01*
X140151314Y-103062295D02*
X140437028Y-103062295D01*
X140437028Y-103062295D02*
X140508457Y-103100390D01*
X140508457Y-103100390D02*
X140544171Y-103138485D01*
X140544171Y-103138485D02*
X140579885Y-103214676D01*
X140579885Y-103214676D02*
X140579885Y-103328961D01*
X140579885Y-103328961D02*
X140544171Y-103405152D01*
X140544171Y-103405152D02*
X140508457Y-103443247D01*
X140508457Y-103443247D02*
X140437028Y-103481342D01*
X140437028Y-103481342D02*
X140151314Y-103481342D01*
X141151314Y-103443247D02*
X141258457Y-103481342D01*
X141258457Y-103481342D02*
X141294171Y-103519438D01*
X141294171Y-103519438D02*
X141329885Y-103595628D01*
X141329885Y-103595628D02*
X141329885Y-103709914D01*
X141329885Y-103709914D02*
X141294171Y-103786104D01*
X141294171Y-103786104D02*
X141258457Y-103824200D01*
X141258457Y-103824200D02*
X141187028Y-103862295D01*
X141187028Y-103862295D02*
X140901314Y-103862295D01*
X140901314Y-103862295D02*
X140901314Y-103062295D01*
X140901314Y-103062295D02*
X141151314Y-103062295D01*
X141151314Y-103062295D02*
X141222743Y-103100390D01*
X141222743Y-103100390D02*
X141258457Y-103138485D01*
X141258457Y-103138485D02*
X141294171Y-103214676D01*
X141294171Y-103214676D02*
X141294171Y-103290866D01*
X141294171Y-103290866D02*
X141258457Y-103367057D01*
X141258457Y-103367057D02*
X141222743Y-103405152D01*
X141222743Y-103405152D02*
X141151314Y-103443247D01*
X141151314Y-103443247D02*
X140901314Y-103443247D01*
X142044171Y-103862295D02*
X141615600Y-103862295D01*
X141829885Y-103862295D02*
X141829885Y-103062295D01*
X141829885Y-103062295D02*
X141758457Y-103176580D01*
X141758457Y-103176580D02*
X141687028Y-103252771D01*
X141687028Y-103252771D02*
X141615600Y-103290866D01*
X142294171Y-103062295D02*
X142758457Y-103062295D01*
X142758457Y-103062295D02*
X142508457Y-103367057D01*
X142508457Y-103367057D02*
X142615600Y-103367057D01*
X142615600Y-103367057D02*
X142687029Y-103405152D01*
X142687029Y-103405152D02*
X142722743Y-103443247D01*
X142722743Y-103443247D02*
X142758457Y-103519438D01*
X142758457Y-103519438D02*
X142758457Y-103709914D01*
X142758457Y-103709914D02*
X142722743Y-103786104D01*
X142722743Y-103786104D02*
X142687029Y-103824200D01*
X142687029Y-103824200D02*
X142615600Y-103862295D01*
X142615600Y-103862295D02*
X142401314Y-103862295D01*
X142401314Y-103862295D02*
X142329886Y-103824200D01*
X142329886Y-103824200D02*
X142294171Y-103786104D01*
X143865601Y-104167057D02*
X143829886Y-104128961D01*
X143829886Y-104128961D02*
X143758458Y-104014676D01*
X143758458Y-104014676D02*
X143722744Y-103938485D01*
X143722744Y-103938485D02*
X143687029Y-103824200D01*
X143687029Y-103824200D02*
X143651315Y-103633723D01*
X143651315Y-103633723D02*
X143651315Y-103481342D01*
X143651315Y-103481342D02*
X143687029Y-103290866D01*
X143687029Y-103290866D02*
X143722744Y-103176580D01*
X143722744Y-103176580D02*
X143758458Y-103100390D01*
X143758458Y-103100390D02*
X143829886Y-102986104D01*
X143829886Y-102986104D02*
X143865601Y-102948009D01*
X144115601Y-103138485D02*
X144151315Y-103100390D01*
X144151315Y-103100390D02*
X144222744Y-103062295D01*
X144222744Y-103062295D02*
X144401315Y-103062295D01*
X144401315Y-103062295D02*
X144472744Y-103100390D01*
X144472744Y-103100390D02*
X144508458Y-103138485D01*
X144508458Y-103138485D02*
X144544172Y-103214676D01*
X144544172Y-103214676D02*
X144544172Y-103290866D01*
X144544172Y-103290866D02*
X144508458Y-103405152D01*
X144508458Y-103405152D02*
X144079886Y-103862295D01*
X144079886Y-103862295D02*
X144544172Y-103862295D01*
X144794172Y-103062295D02*
X145294172Y-103062295D01*
X145294172Y-103062295D02*
X144972744Y-103862295D01*
X145508458Y-104167057D02*
X145544173Y-104128961D01*
X145544173Y-104128961D02*
X145615601Y-104014676D01*
X145615601Y-104014676D02*
X145651316Y-103938485D01*
X145651316Y-103938485D02*
X145687030Y-103824200D01*
X145687030Y-103824200D02*
X145722744Y-103633723D01*
X145722744Y-103633723D02*
X145722744Y-103481342D01*
X145722744Y-103481342D02*
X145687030Y-103290866D01*
X145687030Y-103290866D02*
X145651316Y-103176580D01*
X145651316Y-103176580D02*
X145615601Y-103100390D01*
X145615601Y-103100390D02*
X145544173Y-102986104D01*
X145544173Y-102986104D02*
X145508458Y-102948009D01*
X140151314Y-98612295D02*
X140151314Y-97812295D01*
X140151314Y-97812295D02*
X140437028Y-97812295D01*
X140437028Y-97812295D02*
X140508457Y-97850390D01*
X140508457Y-97850390D02*
X140544171Y-97888485D01*
X140544171Y-97888485D02*
X140579885Y-97964676D01*
X140579885Y-97964676D02*
X140579885Y-98078961D01*
X140579885Y-98078961D02*
X140544171Y-98155152D01*
X140544171Y-98155152D02*
X140508457Y-98193247D01*
X140508457Y-98193247D02*
X140437028Y-98231342D01*
X140437028Y-98231342D02*
X140151314Y-98231342D01*
X141151314Y-98193247D02*
X141258457Y-98231342D01*
X141258457Y-98231342D02*
X141294171Y-98269438D01*
X141294171Y-98269438D02*
X141329885Y-98345628D01*
X141329885Y-98345628D02*
X141329885Y-98459914D01*
X141329885Y-98459914D02*
X141294171Y-98536104D01*
X141294171Y-98536104D02*
X141258457Y-98574200D01*
X141258457Y-98574200D02*
X141187028Y-98612295D01*
X141187028Y-98612295D02*
X140901314Y-98612295D01*
X140901314Y-98612295D02*
X140901314Y-97812295D01*
X140901314Y-97812295D02*
X141151314Y-97812295D01*
X141151314Y-97812295D02*
X141222743Y-97850390D01*
X141222743Y-97850390D02*
X141258457Y-97888485D01*
X141258457Y-97888485D02*
X141294171Y-97964676D01*
X141294171Y-97964676D02*
X141294171Y-98040866D01*
X141294171Y-98040866D02*
X141258457Y-98117057D01*
X141258457Y-98117057D02*
X141222743Y-98155152D01*
X141222743Y-98155152D02*
X141151314Y-98193247D01*
X141151314Y-98193247D02*
X140901314Y-98193247D01*
X142044171Y-98612295D02*
X141615600Y-98612295D01*
X141829885Y-98612295D02*
X141829885Y-97812295D01*
X141829885Y-97812295D02*
X141758457Y-97926580D01*
X141758457Y-97926580D02*
X141687028Y-98002771D01*
X141687028Y-98002771D02*
X141615600Y-98040866D01*
X142722743Y-97812295D02*
X142365600Y-97812295D01*
X142365600Y-97812295D02*
X142329886Y-98193247D01*
X142329886Y-98193247D02*
X142365600Y-98155152D01*
X142365600Y-98155152D02*
X142437029Y-98117057D01*
X142437029Y-98117057D02*
X142615600Y-98117057D01*
X142615600Y-98117057D02*
X142687029Y-98155152D01*
X142687029Y-98155152D02*
X142722743Y-98193247D01*
X142722743Y-98193247D02*
X142758457Y-98269438D01*
X142758457Y-98269438D02*
X142758457Y-98459914D01*
X142758457Y-98459914D02*
X142722743Y-98536104D01*
X142722743Y-98536104D02*
X142687029Y-98574200D01*
X142687029Y-98574200D02*
X142615600Y-98612295D01*
X142615600Y-98612295D02*
X142437029Y-98612295D01*
X142437029Y-98612295D02*
X142365600Y-98574200D01*
X142365600Y-98574200D02*
X142329886Y-98536104D01*
X143865601Y-98917057D02*
X143829886Y-98878961D01*
X143829886Y-98878961D02*
X143758458Y-98764676D01*
X143758458Y-98764676D02*
X143722744Y-98688485D01*
X143722744Y-98688485D02*
X143687029Y-98574200D01*
X143687029Y-98574200D02*
X143651315Y-98383723D01*
X143651315Y-98383723D02*
X143651315Y-98231342D01*
X143651315Y-98231342D02*
X143687029Y-98040866D01*
X143687029Y-98040866D02*
X143722744Y-97926580D01*
X143722744Y-97926580D02*
X143758458Y-97850390D01*
X143758458Y-97850390D02*
X143829886Y-97736104D01*
X143829886Y-97736104D02*
X143865601Y-97698009D01*
X144115601Y-97888485D02*
X144151315Y-97850390D01*
X144151315Y-97850390D02*
X144222744Y-97812295D01*
X144222744Y-97812295D02*
X144401315Y-97812295D01*
X144401315Y-97812295D02*
X144472744Y-97850390D01*
X144472744Y-97850390D02*
X144508458Y-97888485D01*
X144508458Y-97888485D02*
X144544172Y-97964676D01*
X144544172Y-97964676D02*
X144544172Y-98040866D01*
X144544172Y-98040866D02*
X144508458Y-98155152D01*
X144508458Y-98155152D02*
X144079886Y-98612295D01*
X144079886Y-98612295D02*
X144544172Y-98612295D01*
X144901315Y-98612295D02*
X145044172Y-98612295D01*
X145044172Y-98612295D02*
X145115601Y-98574200D01*
X145115601Y-98574200D02*
X145151315Y-98536104D01*
X145151315Y-98536104D02*
X145222744Y-98421819D01*
X145222744Y-98421819D02*
X145258458Y-98269438D01*
X145258458Y-98269438D02*
X145258458Y-97964676D01*
X145258458Y-97964676D02*
X145222744Y-97888485D01*
X145222744Y-97888485D02*
X145187030Y-97850390D01*
X145187030Y-97850390D02*
X145115601Y-97812295D01*
X145115601Y-97812295D02*
X144972744Y-97812295D01*
X144972744Y-97812295D02*
X144901315Y-97850390D01*
X144901315Y-97850390D02*
X144865601Y-97888485D01*
X144865601Y-97888485D02*
X144829887Y-97964676D01*
X144829887Y-97964676D02*
X144829887Y-98155152D01*
X144829887Y-98155152D02*
X144865601Y-98231342D01*
X144865601Y-98231342D02*
X144901315Y-98269438D01*
X144901315Y-98269438D02*
X144972744Y-98307533D01*
X144972744Y-98307533D02*
X145115601Y-98307533D01*
X145115601Y-98307533D02*
X145187030Y-98269438D01*
X145187030Y-98269438D02*
X145222744Y-98231342D01*
X145222744Y-98231342D02*
X145258458Y-98155152D01*
X145508458Y-98917057D02*
X145544173Y-98878961D01*
X145544173Y-98878961D02*
X145615601Y-98764676D01*
X145615601Y-98764676D02*
X145651316Y-98688485D01*
X145651316Y-98688485D02*
X145687030Y-98574200D01*
X145687030Y-98574200D02*
X145722744Y-98383723D01*
X145722744Y-98383723D02*
X145722744Y-98231342D01*
X145722744Y-98231342D02*
X145687030Y-98040866D01*
X145687030Y-98040866D02*
X145651316Y-97926580D01*
X145651316Y-97926580D02*
X145615601Y-97850390D01*
X145615601Y-97850390D02*
X145544173Y-97736104D01*
X145544173Y-97736104D02*
X145508458Y-97698009D01*
X140151314Y-108862295D02*
X140151314Y-108062295D01*
X140151314Y-108062295D02*
X140437028Y-108062295D01*
X140437028Y-108062295D02*
X140508457Y-108100390D01*
X140508457Y-108100390D02*
X140544171Y-108138485D01*
X140544171Y-108138485D02*
X140579885Y-108214676D01*
X140579885Y-108214676D02*
X140579885Y-108328961D01*
X140579885Y-108328961D02*
X140544171Y-108405152D01*
X140544171Y-108405152D02*
X140508457Y-108443247D01*
X140508457Y-108443247D02*
X140437028Y-108481342D01*
X140437028Y-108481342D02*
X140151314Y-108481342D01*
X141151314Y-108443247D02*
X141258457Y-108481342D01*
X141258457Y-108481342D02*
X141294171Y-108519438D01*
X141294171Y-108519438D02*
X141329885Y-108595628D01*
X141329885Y-108595628D02*
X141329885Y-108709914D01*
X141329885Y-108709914D02*
X141294171Y-108786104D01*
X141294171Y-108786104D02*
X141258457Y-108824200D01*
X141258457Y-108824200D02*
X141187028Y-108862295D01*
X141187028Y-108862295D02*
X140901314Y-108862295D01*
X140901314Y-108862295D02*
X140901314Y-108062295D01*
X140901314Y-108062295D02*
X141151314Y-108062295D01*
X141151314Y-108062295D02*
X141222743Y-108100390D01*
X141222743Y-108100390D02*
X141258457Y-108138485D01*
X141258457Y-108138485D02*
X141294171Y-108214676D01*
X141294171Y-108214676D02*
X141294171Y-108290866D01*
X141294171Y-108290866D02*
X141258457Y-108367057D01*
X141258457Y-108367057D02*
X141222743Y-108405152D01*
X141222743Y-108405152D02*
X141151314Y-108443247D01*
X141151314Y-108443247D02*
X140901314Y-108443247D01*
X142044171Y-108862295D02*
X141615600Y-108862295D01*
X141829885Y-108862295D02*
X141829885Y-108062295D01*
X141829885Y-108062295D02*
X141758457Y-108176580D01*
X141758457Y-108176580D02*
X141687028Y-108252771D01*
X141687028Y-108252771D02*
X141615600Y-108290866D01*
X142758457Y-108862295D02*
X142329886Y-108862295D01*
X142544171Y-108862295D02*
X142544171Y-108062295D01*
X142544171Y-108062295D02*
X142472743Y-108176580D01*
X142472743Y-108176580D02*
X142401314Y-108252771D01*
X142401314Y-108252771D02*
X142329886Y-108290866D01*
X143865601Y-109167057D02*
X143829886Y-109128961D01*
X143829886Y-109128961D02*
X143758458Y-109014676D01*
X143758458Y-109014676D02*
X143722744Y-108938485D01*
X143722744Y-108938485D02*
X143687029Y-108824200D01*
X143687029Y-108824200D02*
X143651315Y-108633723D01*
X143651315Y-108633723D02*
X143651315Y-108481342D01*
X143651315Y-108481342D02*
X143687029Y-108290866D01*
X143687029Y-108290866D02*
X143722744Y-108176580D01*
X143722744Y-108176580D02*
X143758458Y-108100390D01*
X143758458Y-108100390D02*
X143829886Y-107986104D01*
X143829886Y-107986104D02*
X143865601Y-107948009D01*
X144115601Y-108138485D02*
X144151315Y-108100390D01*
X144151315Y-108100390D02*
X144222744Y-108062295D01*
X144222744Y-108062295D02*
X144401315Y-108062295D01*
X144401315Y-108062295D02*
X144472744Y-108100390D01*
X144472744Y-108100390D02*
X144508458Y-108138485D01*
X144508458Y-108138485D02*
X144544172Y-108214676D01*
X144544172Y-108214676D02*
X144544172Y-108290866D01*
X144544172Y-108290866D02*
X144508458Y-108405152D01*
X144508458Y-108405152D02*
X144079886Y-108862295D01*
X144079886Y-108862295D02*
X144544172Y-108862295D01*
X145222744Y-108062295D02*
X144865601Y-108062295D01*
X144865601Y-108062295D02*
X144829887Y-108443247D01*
X144829887Y-108443247D02*
X144865601Y-108405152D01*
X144865601Y-108405152D02*
X144937030Y-108367057D01*
X144937030Y-108367057D02*
X145115601Y-108367057D01*
X145115601Y-108367057D02*
X145187030Y-108405152D01*
X145187030Y-108405152D02*
X145222744Y-108443247D01*
X145222744Y-108443247D02*
X145258458Y-108519438D01*
X145258458Y-108519438D02*
X145258458Y-108709914D01*
X145258458Y-108709914D02*
X145222744Y-108786104D01*
X145222744Y-108786104D02*
X145187030Y-108824200D01*
X145187030Y-108824200D02*
X145115601Y-108862295D01*
X145115601Y-108862295D02*
X144937030Y-108862295D01*
X144937030Y-108862295D02*
X144865601Y-108824200D01*
X144865601Y-108824200D02*
X144829887Y-108786104D01*
X145508458Y-109167057D02*
X145544173Y-109128961D01*
X145544173Y-109128961D02*
X145615601Y-109014676D01*
X145615601Y-109014676D02*
X145651316Y-108938485D01*
X145651316Y-108938485D02*
X145687030Y-108824200D01*
X145687030Y-108824200D02*
X145722744Y-108633723D01*
X145722744Y-108633723D02*
X145722744Y-108481342D01*
X145722744Y-108481342D02*
X145687030Y-108290866D01*
X145687030Y-108290866D02*
X145651316Y-108176580D01*
X145651316Y-108176580D02*
X145615601Y-108100390D01*
X145615601Y-108100390D02*
X145544173Y-107986104D01*
X145544173Y-107986104D02*
X145508458Y-107948009D01*
X140151314Y-101362295D02*
X140151314Y-100562295D01*
X140151314Y-100562295D02*
X140437028Y-100562295D01*
X140437028Y-100562295D02*
X140508457Y-100600390D01*
X140508457Y-100600390D02*
X140544171Y-100638485D01*
X140544171Y-100638485D02*
X140579885Y-100714676D01*
X140579885Y-100714676D02*
X140579885Y-100828961D01*
X140579885Y-100828961D02*
X140544171Y-100905152D01*
X140544171Y-100905152D02*
X140508457Y-100943247D01*
X140508457Y-100943247D02*
X140437028Y-100981342D01*
X140437028Y-100981342D02*
X140151314Y-100981342D01*
X141151314Y-100943247D02*
X141258457Y-100981342D01*
X141258457Y-100981342D02*
X141294171Y-101019438D01*
X141294171Y-101019438D02*
X141329885Y-101095628D01*
X141329885Y-101095628D02*
X141329885Y-101209914D01*
X141329885Y-101209914D02*
X141294171Y-101286104D01*
X141294171Y-101286104D02*
X141258457Y-101324200D01*
X141258457Y-101324200D02*
X141187028Y-101362295D01*
X141187028Y-101362295D02*
X140901314Y-101362295D01*
X140901314Y-101362295D02*
X140901314Y-100562295D01*
X140901314Y-100562295D02*
X141151314Y-100562295D01*
X141151314Y-100562295D02*
X141222743Y-100600390D01*
X141222743Y-100600390D02*
X141258457Y-100638485D01*
X141258457Y-100638485D02*
X141294171Y-100714676D01*
X141294171Y-100714676D02*
X141294171Y-100790866D01*
X141294171Y-100790866D02*
X141258457Y-100867057D01*
X141258457Y-100867057D02*
X141222743Y-100905152D01*
X141222743Y-100905152D02*
X141151314Y-100943247D01*
X141151314Y-100943247D02*
X140901314Y-100943247D01*
X142044171Y-101362295D02*
X141615600Y-101362295D01*
X141829885Y-101362295D02*
X141829885Y-100562295D01*
X141829885Y-100562295D02*
X141758457Y-100676580D01*
X141758457Y-100676580D02*
X141687028Y-100752771D01*
X141687028Y-100752771D02*
X141615600Y-100790866D01*
X142687029Y-100828961D02*
X142687029Y-101362295D01*
X142508457Y-100524200D02*
X142329886Y-101095628D01*
X142329886Y-101095628D02*
X142794171Y-101095628D01*
X143865601Y-101667057D02*
X143829886Y-101628961D01*
X143829886Y-101628961D02*
X143758458Y-101514676D01*
X143758458Y-101514676D02*
X143722744Y-101438485D01*
X143722744Y-101438485D02*
X143687029Y-101324200D01*
X143687029Y-101324200D02*
X143651315Y-101133723D01*
X143651315Y-101133723D02*
X143651315Y-100981342D01*
X143651315Y-100981342D02*
X143687029Y-100790866D01*
X143687029Y-100790866D02*
X143722744Y-100676580D01*
X143722744Y-100676580D02*
X143758458Y-100600390D01*
X143758458Y-100600390D02*
X143829886Y-100486104D01*
X143829886Y-100486104D02*
X143865601Y-100448009D01*
X144115601Y-100638485D02*
X144151315Y-100600390D01*
X144151315Y-100600390D02*
X144222744Y-100562295D01*
X144222744Y-100562295D02*
X144401315Y-100562295D01*
X144401315Y-100562295D02*
X144472744Y-100600390D01*
X144472744Y-100600390D02*
X144508458Y-100638485D01*
X144508458Y-100638485D02*
X144544172Y-100714676D01*
X144544172Y-100714676D02*
X144544172Y-100790866D01*
X144544172Y-100790866D02*
X144508458Y-100905152D01*
X144508458Y-100905152D02*
X144079886Y-101362295D01*
X144079886Y-101362295D02*
X144544172Y-101362295D01*
X144972744Y-100905152D02*
X144901315Y-100867057D01*
X144901315Y-100867057D02*
X144865601Y-100828961D01*
X144865601Y-100828961D02*
X144829887Y-100752771D01*
X144829887Y-100752771D02*
X144829887Y-100714676D01*
X144829887Y-100714676D02*
X144865601Y-100638485D01*
X144865601Y-100638485D02*
X144901315Y-100600390D01*
X144901315Y-100600390D02*
X144972744Y-100562295D01*
X144972744Y-100562295D02*
X145115601Y-100562295D01*
X145115601Y-100562295D02*
X145187030Y-100600390D01*
X145187030Y-100600390D02*
X145222744Y-100638485D01*
X145222744Y-100638485D02*
X145258458Y-100714676D01*
X145258458Y-100714676D02*
X145258458Y-100752771D01*
X145258458Y-100752771D02*
X145222744Y-100828961D01*
X145222744Y-100828961D02*
X145187030Y-100867057D01*
X145187030Y-100867057D02*
X145115601Y-100905152D01*
X145115601Y-100905152D02*
X144972744Y-100905152D01*
X144972744Y-100905152D02*
X144901315Y-100943247D01*
X144901315Y-100943247D02*
X144865601Y-100981342D01*
X144865601Y-100981342D02*
X144829887Y-101057533D01*
X144829887Y-101057533D02*
X144829887Y-101209914D01*
X144829887Y-101209914D02*
X144865601Y-101286104D01*
X144865601Y-101286104D02*
X144901315Y-101324200D01*
X144901315Y-101324200D02*
X144972744Y-101362295D01*
X144972744Y-101362295D02*
X145115601Y-101362295D01*
X145115601Y-101362295D02*
X145187030Y-101324200D01*
X145187030Y-101324200D02*
X145222744Y-101286104D01*
X145222744Y-101286104D02*
X145258458Y-101209914D01*
X145258458Y-101209914D02*
X145258458Y-101057533D01*
X145258458Y-101057533D02*
X145222744Y-100981342D01*
X145222744Y-100981342D02*
X145187030Y-100943247D01*
X145187030Y-100943247D02*
X145115601Y-100905152D01*
X145508458Y-101667057D02*
X145544173Y-101628961D01*
X145544173Y-101628961D02*
X145615601Y-101514676D01*
X145615601Y-101514676D02*
X145651316Y-101438485D01*
X145651316Y-101438485D02*
X145687030Y-101324200D01*
X145687030Y-101324200D02*
X145722744Y-101133723D01*
X145722744Y-101133723D02*
X145722744Y-100981342D01*
X145722744Y-100981342D02*
X145687030Y-100790866D01*
X145687030Y-100790866D02*
X145651316Y-100676580D01*
X145651316Y-100676580D02*
X145615601Y-100600390D01*
X145615601Y-100600390D02*
X145544173Y-100486104D01*
X145544173Y-100486104D02*
X145508458Y-100448009D01*
X140151314Y-106362295D02*
X140151314Y-105562295D01*
X140151314Y-105562295D02*
X140437028Y-105562295D01*
X140437028Y-105562295D02*
X140508457Y-105600390D01*
X140508457Y-105600390D02*
X140544171Y-105638485D01*
X140544171Y-105638485D02*
X140579885Y-105714676D01*
X140579885Y-105714676D02*
X140579885Y-105828961D01*
X140579885Y-105828961D02*
X140544171Y-105905152D01*
X140544171Y-105905152D02*
X140508457Y-105943247D01*
X140508457Y-105943247D02*
X140437028Y-105981342D01*
X140437028Y-105981342D02*
X140151314Y-105981342D01*
X141151314Y-105943247D02*
X141258457Y-105981342D01*
X141258457Y-105981342D02*
X141294171Y-106019438D01*
X141294171Y-106019438D02*
X141329885Y-106095628D01*
X141329885Y-106095628D02*
X141329885Y-106209914D01*
X141329885Y-106209914D02*
X141294171Y-106286104D01*
X141294171Y-106286104D02*
X141258457Y-106324200D01*
X141258457Y-106324200D02*
X141187028Y-106362295D01*
X141187028Y-106362295D02*
X140901314Y-106362295D01*
X140901314Y-106362295D02*
X140901314Y-105562295D01*
X140901314Y-105562295D02*
X141151314Y-105562295D01*
X141151314Y-105562295D02*
X141222743Y-105600390D01*
X141222743Y-105600390D02*
X141258457Y-105638485D01*
X141258457Y-105638485D02*
X141294171Y-105714676D01*
X141294171Y-105714676D02*
X141294171Y-105790866D01*
X141294171Y-105790866D02*
X141258457Y-105867057D01*
X141258457Y-105867057D02*
X141222743Y-105905152D01*
X141222743Y-105905152D02*
X141151314Y-105943247D01*
X141151314Y-105943247D02*
X140901314Y-105943247D01*
X142044171Y-106362295D02*
X141615600Y-106362295D01*
X141829885Y-106362295D02*
X141829885Y-105562295D01*
X141829885Y-105562295D02*
X141758457Y-105676580D01*
X141758457Y-105676580D02*
X141687028Y-105752771D01*
X141687028Y-105752771D02*
X141615600Y-105790866D01*
X142329886Y-105638485D02*
X142365600Y-105600390D01*
X142365600Y-105600390D02*
X142437029Y-105562295D01*
X142437029Y-105562295D02*
X142615600Y-105562295D01*
X142615600Y-105562295D02*
X142687029Y-105600390D01*
X142687029Y-105600390D02*
X142722743Y-105638485D01*
X142722743Y-105638485D02*
X142758457Y-105714676D01*
X142758457Y-105714676D02*
X142758457Y-105790866D01*
X142758457Y-105790866D02*
X142722743Y-105905152D01*
X142722743Y-105905152D02*
X142294171Y-106362295D01*
X142294171Y-106362295D02*
X142758457Y-106362295D01*
X143865601Y-106667057D02*
X143829886Y-106628961D01*
X143829886Y-106628961D02*
X143758458Y-106514676D01*
X143758458Y-106514676D02*
X143722744Y-106438485D01*
X143722744Y-106438485D02*
X143687029Y-106324200D01*
X143687029Y-106324200D02*
X143651315Y-106133723D01*
X143651315Y-106133723D02*
X143651315Y-105981342D01*
X143651315Y-105981342D02*
X143687029Y-105790866D01*
X143687029Y-105790866D02*
X143722744Y-105676580D01*
X143722744Y-105676580D02*
X143758458Y-105600390D01*
X143758458Y-105600390D02*
X143829886Y-105486104D01*
X143829886Y-105486104D02*
X143865601Y-105448009D01*
X144115601Y-105638485D02*
X144151315Y-105600390D01*
X144151315Y-105600390D02*
X144222744Y-105562295D01*
X144222744Y-105562295D02*
X144401315Y-105562295D01*
X144401315Y-105562295D02*
X144472744Y-105600390D01*
X144472744Y-105600390D02*
X144508458Y-105638485D01*
X144508458Y-105638485D02*
X144544172Y-105714676D01*
X144544172Y-105714676D02*
X144544172Y-105790866D01*
X144544172Y-105790866D02*
X144508458Y-105905152D01*
X144508458Y-105905152D02*
X144079886Y-106362295D01*
X144079886Y-106362295D02*
X144544172Y-106362295D01*
X145187030Y-105562295D02*
X145044172Y-105562295D01*
X145044172Y-105562295D02*
X144972744Y-105600390D01*
X144972744Y-105600390D02*
X144937030Y-105638485D01*
X144937030Y-105638485D02*
X144865601Y-105752771D01*
X144865601Y-105752771D02*
X144829887Y-105905152D01*
X144829887Y-105905152D02*
X144829887Y-106209914D01*
X144829887Y-106209914D02*
X144865601Y-106286104D01*
X144865601Y-106286104D02*
X144901315Y-106324200D01*
X144901315Y-106324200D02*
X144972744Y-106362295D01*
X144972744Y-106362295D02*
X145115601Y-106362295D01*
X145115601Y-106362295D02*
X145187030Y-106324200D01*
X145187030Y-106324200D02*
X145222744Y-106286104D01*
X145222744Y-106286104D02*
X145258458Y-106209914D01*
X145258458Y-106209914D02*
X145258458Y-106019438D01*
X145258458Y-106019438D02*
X145222744Y-105943247D01*
X145222744Y-105943247D02*
X145187030Y-105905152D01*
X145187030Y-105905152D02*
X145115601Y-105867057D01*
X145115601Y-105867057D02*
X144972744Y-105867057D01*
X144972744Y-105867057D02*
X144901315Y-105905152D01*
X144901315Y-105905152D02*
X144865601Y-105943247D01*
X144865601Y-105943247D02*
X144829887Y-106019438D01*
X145508458Y-106667057D02*
X145544173Y-106628961D01*
X145544173Y-106628961D02*
X145615601Y-106514676D01*
X145615601Y-106514676D02*
X145651316Y-106438485D01*
X145651316Y-106438485D02*
X145687030Y-106324200D01*
X145687030Y-106324200D02*
X145722744Y-106133723D01*
X145722744Y-106133723D02*
X145722744Y-105981342D01*
X145722744Y-105981342D02*
X145687030Y-105790866D01*
X145687030Y-105790866D02*
X145651316Y-105676580D01*
X145651316Y-105676580D02*
X145615601Y-105600390D01*
X145615601Y-105600390D02*
X145544173Y-105486104D01*
X145544173Y-105486104D02*
X145508458Y-105448009D01*
X140258457Y-91112295D02*
X140258457Y-90312295D01*
X140258457Y-90312295D02*
X140544171Y-90312295D01*
X140544171Y-90312295D02*
X140615600Y-90350390D01*
X140615600Y-90350390D02*
X140651314Y-90388485D01*
X140651314Y-90388485D02*
X140687028Y-90464676D01*
X140687028Y-90464676D02*
X140687028Y-90578961D01*
X140687028Y-90578961D02*
X140651314Y-90655152D01*
X140651314Y-90655152D02*
X140615600Y-90693247D01*
X140615600Y-90693247D02*
X140544171Y-90731342D01*
X140544171Y-90731342D02*
X140258457Y-90731342D01*
X140972743Y-90883723D02*
X141329886Y-90883723D01*
X140901314Y-91112295D02*
X141151314Y-90312295D01*
X141151314Y-90312295D02*
X141401314Y-91112295D01*
X142044171Y-91112295D02*
X141615600Y-91112295D01*
X141829885Y-91112295D02*
X141829885Y-90312295D01*
X141829885Y-90312295D02*
X141758457Y-90426580D01*
X141758457Y-90426580D02*
X141687028Y-90502771D01*
X141687028Y-90502771D02*
X141615600Y-90540866D01*
X142508457Y-90312295D02*
X142579886Y-90312295D01*
X142579886Y-90312295D02*
X142651314Y-90350390D01*
X142651314Y-90350390D02*
X142687029Y-90388485D01*
X142687029Y-90388485D02*
X142722743Y-90464676D01*
X142722743Y-90464676D02*
X142758457Y-90617057D01*
X142758457Y-90617057D02*
X142758457Y-90807533D01*
X142758457Y-90807533D02*
X142722743Y-90959914D01*
X142722743Y-90959914D02*
X142687029Y-91036104D01*
X142687029Y-91036104D02*
X142651314Y-91074200D01*
X142651314Y-91074200D02*
X142579886Y-91112295D01*
X142579886Y-91112295D02*
X142508457Y-91112295D01*
X142508457Y-91112295D02*
X142437029Y-91074200D01*
X142437029Y-91074200D02*
X142401314Y-91036104D01*
X142401314Y-91036104D02*
X142365600Y-90959914D01*
X142365600Y-90959914D02*
X142329886Y-90807533D01*
X142329886Y-90807533D02*
X142329886Y-90617057D01*
X142329886Y-90617057D02*
X142365600Y-90464676D01*
X142365600Y-90464676D02*
X142401314Y-90388485D01*
X142401314Y-90388485D02*
X142437029Y-90350390D01*
X142437029Y-90350390D02*
X142508457Y-90312295D01*
X143865601Y-91417057D02*
X143829886Y-91378961D01*
X143829886Y-91378961D02*
X143758458Y-91264676D01*
X143758458Y-91264676D02*
X143722744Y-91188485D01*
X143722744Y-91188485D02*
X143687029Y-91074200D01*
X143687029Y-91074200D02*
X143651315Y-90883723D01*
X143651315Y-90883723D02*
X143651315Y-90731342D01*
X143651315Y-90731342D02*
X143687029Y-90540866D01*
X143687029Y-90540866D02*
X143722744Y-90426580D01*
X143722744Y-90426580D02*
X143758458Y-90350390D01*
X143758458Y-90350390D02*
X143829886Y-90236104D01*
X143829886Y-90236104D02*
X143865601Y-90198009D01*
X144079886Y-90312295D02*
X144544172Y-90312295D01*
X144544172Y-90312295D02*
X144294172Y-90617057D01*
X144294172Y-90617057D02*
X144401315Y-90617057D01*
X144401315Y-90617057D02*
X144472744Y-90655152D01*
X144472744Y-90655152D02*
X144508458Y-90693247D01*
X144508458Y-90693247D02*
X144544172Y-90769438D01*
X144544172Y-90769438D02*
X144544172Y-90959914D01*
X144544172Y-90959914D02*
X144508458Y-91036104D01*
X144508458Y-91036104D02*
X144472744Y-91074200D01*
X144472744Y-91074200D02*
X144401315Y-91112295D01*
X144401315Y-91112295D02*
X144187029Y-91112295D01*
X144187029Y-91112295D02*
X144115601Y-91074200D01*
X144115601Y-91074200D02*
X144079886Y-91036104D01*
X144829887Y-90388485D02*
X144865601Y-90350390D01*
X144865601Y-90350390D02*
X144937030Y-90312295D01*
X144937030Y-90312295D02*
X145115601Y-90312295D01*
X145115601Y-90312295D02*
X145187030Y-90350390D01*
X145187030Y-90350390D02*
X145222744Y-90388485D01*
X145222744Y-90388485D02*
X145258458Y-90464676D01*
X145258458Y-90464676D02*
X145258458Y-90540866D01*
X145258458Y-90540866D02*
X145222744Y-90655152D01*
X145222744Y-90655152D02*
X144794172Y-91112295D01*
X144794172Y-91112295D02*
X145258458Y-91112295D01*
X145508458Y-91417057D02*
X145544173Y-91378961D01*
X145544173Y-91378961D02*
X145615601Y-91264676D01*
X145615601Y-91264676D02*
X145651316Y-91188485D01*
X145651316Y-91188485D02*
X145687030Y-91074200D01*
X145687030Y-91074200D02*
X145722744Y-90883723D01*
X145722744Y-90883723D02*
X145722744Y-90731342D01*
X145722744Y-90731342D02*
X145687030Y-90540866D01*
X145687030Y-90540866D02*
X145651316Y-90426580D01*
X145651316Y-90426580D02*
X145615601Y-90350390D01*
X145615601Y-90350390D02*
X145544173Y-90236104D01*
X145544173Y-90236104D02*
X145508458Y-90198009D01*
X144329887Y-80062295D02*
X144579887Y-80862295D01*
X144579887Y-80862295D02*
X144829887Y-80062295D01*
X145079887Y-80862295D02*
X145079887Y-80062295D01*
X145079887Y-80062295D02*
X145258458Y-80062295D01*
X145258458Y-80062295D02*
X145365601Y-80100390D01*
X145365601Y-80100390D02*
X145437030Y-80176580D01*
X145437030Y-80176580D02*
X145472744Y-80252771D01*
X145472744Y-80252771D02*
X145508458Y-80405152D01*
X145508458Y-80405152D02*
X145508458Y-80519438D01*
X145508458Y-80519438D02*
X145472744Y-80671819D01*
X145472744Y-80671819D02*
X145437030Y-80748009D01*
X145437030Y-80748009D02*
X145365601Y-80824200D01*
X145365601Y-80824200D02*
X145258458Y-80862295D01*
X145258458Y-80862295D02*
X145079887Y-80862295D01*
X145829887Y-80862295D02*
X145829887Y-80062295D01*
X145829887Y-80062295D02*
X146008458Y-80062295D01*
X146008458Y-80062295D02*
X146115601Y-80100390D01*
X146115601Y-80100390D02*
X146187030Y-80176580D01*
X146187030Y-80176580D02*
X146222744Y-80252771D01*
X146222744Y-80252771D02*
X146258458Y-80405152D01*
X146258458Y-80405152D02*
X146258458Y-80519438D01*
X146258458Y-80519438D02*
X146222744Y-80671819D01*
X146222744Y-80671819D02*
X146187030Y-80748009D01*
X146187030Y-80748009D02*
X146115601Y-80824200D01*
X146115601Y-80824200D02*
X146008458Y-80862295D01*
X146008458Y-80862295D02*
X145829887Y-80862295D01*
X140258457Y-88612295D02*
X140258457Y-87812295D01*
X140258457Y-87812295D02*
X140544171Y-87812295D01*
X140544171Y-87812295D02*
X140615600Y-87850390D01*
X140615600Y-87850390D02*
X140651314Y-87888485D01*
X140651314Y-87888485D02*
X140687028Y-87964676D01*
X140687028Y-87964676D02*
X140687028Y-88078961D01*
X140687028Y-88078961D02*
X140651314Y-88155152D01*
X140651314Y-88155152D02*
X140615600Y-88193247D01*
X140615600Y-88193247D02*
X140544171Y-88231342D01*
X140544171Y-88231342D02*
X140258457Y-88231342D01*
X140972743Y-88383723D02*
X141329886Y-88383723D01*
X140901314Y-88612295D02*
X141151314Y-87812295D01*
X141151314Y-87812295D02*
X141401314Y-88612295D01*
X142044171Y-88612295D02*
X141615600Y-88612295D01*
X141829885Y-88612295D02*
X141829885Y-87812295D01*
X141829885Y-87812295D02*
X141758457Y-87926580D01*
X141758457Y-87926580D02*
X141687028Y-88002771D01*
X141687028Y-88002771D02*
X141615600Y-88040866D01*
X142758457Y-88612295D02*
X142329886Y-88612295D01*
X142544171Y-88612295D02*
X142544171Y-87812295D01*
X142544171Y-87812295D02*
X142472743Y-87926580D01*
X142472743Y-87926580D02*
X142401314Y-88002771D01*
X142401314Y-88002771D02*
X142329886Y-88040866D01*
X143865601Y-88917057D02*
X143829886Y-88878961D01*
X143829886Y-88878961D02*
X143758458Y-88764676D01*
X143758458Y-88764676D02*
X143722744Y-88688485D01*
X143722744Y-88688485D02*
X143687029Y-88574200D01*
X143687029Y-88574200D02*
X143651315Y-88383723D01*
X143651315Y-88383723D02*
X143651315Y-88231342D01*
X143651315Y-88231342D02*
X143687029Y-88040866D01*
X143687029Y-88040866D02*
X143722744Y-87926580D01*
X143722744Y-87926580D02*
X143758458Y-87850390D01*
X143758458Y-87850390D02*
X143829886Y-87736104D01*
X143829886Y-87736104D02*
X143865601Y-87698009D01*
X144079886Y-87812295D02*
X144544172Y-87812295D01*
X144544172Y-87812295D02*
X144294172Y-88117057D01*
X144294172Y-88117057D02*
X144401315Y-88117057D01*
X144401315Y-88117057D02*
X144472744Y-88155152D01*
X144472744Y-88155152D02*
X144508458Y-88193247D01*
X144508458Y-88193247D02*
X144544172Y-88269438D01*
X144544172Y-88269438D02*
X144544172Y-88459914D01*
X144544172Y-88459914D02*
X144508458Y-88536104D01*
X144508458Y-88536104D02*
X144472744Y-88574200D01*
X144472744Y-88574200D02*
X144401315Y-88612295D01*
X144401315Y-88612295D02*
X144187029Y-88612295D01*
X144187029Y-88612295D02*
X144115601Y-88574200D01*
X144115601Y-88574200D02*
X144079886Y-88536104D01*
X144794172Y-87812295D02*
X145258458Y-87812295D01*
X145258458Y-87812295D02*
X145008458Y-88117057D01*
X145008458Y-88117057D02*
X145115601Y-88117057D01*
X145115601Y-88117057D02*
X145187030Y-88155152D01*
X145187030Y-88155152D02*
X145222744Y-88193247D01*
X145222744Y-88193247D02*
X145258458Y-88269438D01*
X145258458Y-88269438D02*
X145258458Y-88459914D01*
X145258458Y-88459914D02*
X145222744Y-88536104D01*
X145222744Y-88536104D02*
X145187030Y-88574200D01*
X145187030Y-88574200D02*
X145115601Y-88612295D01*
X145115601Y-88612295D02*
X144901315Y-88612295D01*
X144901315Y-88612295D02*
X144829887Y-88574200D01*
X144829887Y-88574200D02*
X144794172Y-88536104D01*
X145508458Y-88917057D02*
X145544173Y-88878961D01*
X145544173Y-88878961D02*
X145615601Y-88764676D01*
X145615601Y-88764676D02*
X145651316Y-88688485D01*
X145651316Y-88688485D02*
X145687030Y-88574200D01*
X145687030Y-88574200D02*
X145722744Y-88383723D01*
X145722744Y-88383723D02*
X145722744Y-88231342D01*
X145722744Y-88231342D02*
X145687030Y-88040866D01*
X145687030Y-88040866D02*
X145651316Y-87926580D01*
X145651316Y-87926580D02*
X145615601Y-87850390D01*
X145615601Y-87850390D02*
X145544173Y-87736104D01*
X145544173Y-87736104D02*
X145508458Y-87698009D01*
X143901315Y-82562295D02*
X144151315Y-83362295D01*
X144151315Y-83362295D02*
X144401315Y-82562295D01*
X144615601Y-83324200D02*
X144722744Y-83362295D01*
X144722744Y-83362295D02*
X144901315Y-83362295D01*
X144901315Y-83362295D02*
X144972744Y-83324200D01*
X144972744Y-83324200D02*
X145008458Y-83286104D01*
X145008458Y-83286104D02*
X145044172Y-83209914D01*
X145044172Y-83209914D02*
X145044172Y-83133723D01*
X145044172Y-83133723D02*
X145008458Y-83057533D01*
X145008458Y-83057533D02*
X144972744Y-83019438D01*
X144972744Y-83019438D02*
X144901315Y-82981342D01*
X144901315Y-82981342D02*
X144758458Y-82943247D01*
X144758458Y-82943247D02*
X144687029Y-82905152D01*
X144687029Y-82905152D02*
X144651315Y-82867057D01*
X144651315Y-82867057D02*
X144615601Y-82790866D01*
X144615601Y-82790866D02*
X144615601Y-82714676D01*
X144615601Y-82714676D02*
X144651315Y-82638485D01*
X144651315Y-82638485D02*
X144687029Y-82600390D01*
X144687029Y-82600390D02*
X144758458Y-82562295D01*
X144758458Y-82562295D02*
X144937029Y-82562295D01*
X144937029Y-82562295D02*
X145044172Y-82600390D01*
X145329887Y-83324200D02*
X145437030Y-83362295D01*
X145437030Y-83362295D02*
X145615601Y-83362295D01*
X145615601Y-83362295D02*
X145687030Y-83324200D01*
X145687030Y-83324200D02*
X145722744Y-83286104D01*
X145722744Y-83286104D02*
X145758458Y-83209914D01*
X145758458Y-83209914D02*
X145758458Y-83133723D01*
X145758458Y-83133723D02*
X145722744Y-83057533D01*
X145722744Y-83057533D02*
X145687030Y-83019438D01*
X145687030Y-83019438D02*
X145615601Y-82981342D01*
X145615601Y-82981342D02*
X145472744Y-82943247D01*
X145472744Y-82943247D02*
X145401315Y-82905152D01*
X145401315Y-82905152D02*
X145365601Y-82867057D01*
X145365601Y-82867057D02*
X145329887Y-82790866D01*
X145329887Y-82790866D02*
X145329887Y-82714676D01*
X145329887Y-82714676D02*
X145365601Y-82638485D01*
X145365601Y-82638485D02*
X145401315Y-82600390D01*
X145401315Y-82600390D02*
X145472744Y-82562295D01*
X145472744Y-82562295D02*
X145651315Y-82562295D01*
X145651315Y-82562295D02*
X145758458Y-82600390D01*
X140972743Y-93612295D02*
X140972743Y-92812295D01*
X140972743Y-92812295D02*
X141258457Y-92812295D01*
X141258457Y-92812295D02*
X141329886Y-92850390D01*
X141329886Y-92850390D02*
X141365600Y-92888485D01*
X141365600Y-92888485D02*
X141401314Y-92964676D01*
X141401314Y-92964676D02*
X141401314Y-93078961D01*
X141401314Y-93078961D02*
X141365600Y-93155152D01*
X141365600Y-93155152D02*
X141329886Y-93193247D01*
X141329886Y-93193247D02*
X141258457Y-93231342D01*
X141258457Y-93231342D02*
X140972743Y-93231342D01*
X141687029Y-93383723D02*
X142044172Y-93383723D01*
X141615600Y-93612295D02*
X141865600Y-92812295D01*
X141865600Y-92812295D02*
X142115600Y-93612295D01*
X142401314Y-93612295D02*
X142544171Y-93612295D01*
X142544171Y-93612295D02*
X142615600Y-93574200D01*
X142615600Y-93574200D02*
X142651314Y-93536104D01*
X142651314Y-93536104D02*
X142722743Y-93421819D01*
X142722743Y-93421819D02*
X142758457Y-93269438D01*
X142758457Y-93269438D02*
X142758457Y-92964676D01*
X142758457Y-92964676D02*
X142722743Y-92888485D01*
X142722743Y-92888485D02*
X142687029Y-92850390D01*
X142687029Y-92850390D02*
X142615600Y-92812295D01*
X142615600Y-92812295D02*
X142472743Y-92812295D01*
X142472743Y-92812295D02*
X142401314Y-92850390D01*
X142401314Y-92850390D02*
X142365600Y-92888485D01*
X142365600Y-92888485D02*
X142329886Y-92964676D01*
X142329886Y-92964676D02*
X142329886Y-93155152D01*
X142329886Y-93155152D02*
X142365600Y-93231342D01*
X142365600Y-93231342D02*
X142401314Y-93269438D01*
X142401314Y-93269438D02*
X142472743Y-93307533D01*
X142472743Y-93307533D02*
X142615600Y-93307533D01*
X142615600Y-93307533D02*
X142687029Y-93269438D01*
X142687029Y-93269438D02*
X142722743Y-93231342D01*
X142722743Y-93231342D02*
X142758457Y-93155152D01*
X143865601Y-93917057D02*
X143829886Y-93878961D01*
X143829886Y-93878961D02*
X143758458Y-93764676D01*
X143758458Y-93764676D02*
X143722744Y-93688485D01*
X143722744Y-93688485D02*
X143687029Y-93574200D01*
X143687029Y-93574200D02*
X143651315Y-93383723D01*
X143651315Y-93383723D02*
X143651315Y-93231342D01*
X143651315Y-93231342D02*
X143687029Y-93040866D01*
X143687029Y-93040866D02*
X143722744Y-92926580D01*
X143722744Y-92926580D02*
X143758458Y-92850390D01*
X143758458Y-92850390D02*
X143829886Y-92736104D01*
X143829886Y-92736104D02*
X143865601Y-92698009D01*
X144079886Y-92812295D02*
X144544172Y-92812295D01*
X144544172Y-92812295D02*
X144294172Y-93117057D01*
X144294172Y-93117057D02*
X144401315Y-93117057D01*
X144401315Y-93117057D02*
X144472744Y-93155152D01*
X144472744Y-93155152D02*
X144508458Y-93193247D01*
X144508458Y-93193247D02*
X144544172Y-93269438D01*
X144544172Y-93269438D02*
X144544172Y-93459914D01*
X144544172Y-93459914D02*
X144508458Y-93536104D01*
X144508458Y-93536104D02*
X144472744Y-93574200D01*
X144472744Y-93574200D02*
X144401315Y-93612295D01*
X144401315Y-93612295D02*
X144187029Y-93612295D01*
X144187029Y-93612295D02*
X144115601Y-93574200D01*
X144115601Y-93574200D02*
X144079886Y-93536104D01*
X145258458Y-93612295D02*
X144829887Y-93612295D01*
X145044172Y-93612295D02*
X145044172Y-92812295D01*
X145044172Y-92812295D02*
X144972744Y-92926580D01*
X144972744Y-92926580D02*
X144901315Y-93002771D01*
X144901315Y-93002771D02*
X144829887Y-93040866D01*
X145508458Y-93917057D02*
X145544173Y-93878961D01*
X145544173Y-93878961D02*
X145615601Y-93764676D01*
X145615601Y-93764676D02*
X145651316Y-93688485D01*
X145651316Y-93688485D02*
X145687030Y-93574200D01*
X145687030Y-93574200D02*
X145722744Y-93383723D01*
X145722744Y-93383723D02*
X145722744Y-93231342D01*
X145722744Y-93231342D02*
X145687030Y-93040866D01*
X145687030Y-93040866D02*
X145651316Y-92926580D01*
X145651316Y-92926580D02*
X145615601Y-92850390D01*
X145615601Y-92850390D02*
X145544173Y-92736104D01*
X145544173Y-92736104D02*
X145508458Y-92698009D01*
X140258457Y-86112295D02*
X140258457Y-85312295D01*
X140258457Y-85312295D02*
X140544171Y-85312295D01*
X140544171Y-85312295D02*
X140615600Y-85350390D01*
X140615600Y-85350390D02*
X140651314Y-85388485D01*
X140651314Y-85388485D02*
X140687028Y-85464676D01*
X140687028Y-85464676D02*
X140687028Y-85578961D01*
X140687028Y-85578961D02*
X140651314Y-85655152D01*
X140651314Y-85655152D02*
X140615600Y-85693247D01*
X140615600Y-85693247D02*
X140544171Y-85731342D01*
X140544171Y-85731342D02*
X140258457Y-85731342D01*
X140972743Y-85883723D02*
X141329886Y-85883723D01*
X140901314Y-86112295D02*
X141151314Y-85312295D01*
X141151314Y-85312295D02*
X141401314Y-86112295D01*
X142044171Y-86112295D02*
X141615600Y-86112295D01*
X141829885Y-86112295D02*
X141829885Y-85312295D01*
X141829885Y-85312295D02*
X141758457Y-85426580D01*
X141758457Y-85426580D02*
X141687028Y-85502771D01*
X141687028Y-85502771D02*
X141615600Y-85540866D01*
X142329886Y-85388485D02*
X142365600Y-85350390D01*
X142365600Y-85350390D02*
X142437029Y-85312295D01*
X142437029Y-85312295D02*
X142615600Y-85312295D01*
X142615600Y-85312295D02*
X142687029Y-85350390D01*
X142687029Y-85350390D02*
X142722743Y-85388485D01*
X142722743Y-85388485D02*
X142758457Y-85464676D01*
X142758457Y-85464676D02*
X142758457Y-85540866D01*
X142758457Y-85540866D02*
X142722743Y-85655152D01*
X142722743Y-85655152D02*
X142294171Y-86112295D01*
X142294171Y-86112295D02*
X142758457Y-86112295D01*
X143865601Y-86417057D02*
X143829886Y-86378961D01*
X143829886Y-86378961D02*
X143758458Y-86264676D01*
X143758458Y-86264676D02*
X143722744Y-86188485D01*
X143722744Y-86188485D02*
X143687029Y-86074200D01*
X143687029Y-86074200D02*
X143651315Y-85883723D01*
X143651315Y-85883723D02*
X143651315Y-85731342D01*
X143651315Y-85731342D02*
X143687029Y-85540866D01*
X143687029Y-85540866D02*
X143722744Y-85426580D01*
X143722744Y-85426580D02*
X143758458Y-85350390D01*
X143758458Y-85350390D02*
X143829886Y-85236104D01*
X143829886Y-85236104D02*
X143865601Y-85198009D01*
X144079886Y-85312295D02*
X144544172Y-85312295D01*
X144544172Y-85312295D02*
X144294172Y-85617057D01*
X144294172Y-85617057D02*
X144401315Y-85617057D01*
X144401315Y-85617057D02*
X144472744Y-85655152D01*
X144472744Y-85655152D02*
X144508458Y-85693247D01*
X144508458Y-85693247D02*
X144544172Y-85769438D01*
X144544172Y-85769438D02*
X144544172Y-85959914D01*
X144544172Y-85959914D02*
X144508458Y-86036104D01*
X144508458Y-86036104D02*
X144472744Y-86074200D01*
X144472744Y-86074200D02*
X144401315Y-86112295D01*
X144401315Y-86112295D02*
X144187029Y-86112295D01*
X144187029Y-86112295D02*
X144115601Y-86074200D01*
X144115601Y-86074200D02*
X144079886Y-86036104D01*
X145187030Y-85578961D02*
X145187030Y-86112295D01*
X145008458Y-85274200D02*
X144829887Y-85845628D01*
X144829887Y-85845628D02*
X145294172Y-85845628D01*
X145508458Y-86417057D02*
X145544173Y-86378961D01*
X145544173Y-86378961D02*
X145615601Y-86264676D01*
X145615601Y-86264676D02*
X145651316Y-86188485D01*
X145651316Y-86188485D02*
X145687030Y-86074200D01*
X145687030Y-86074200D02*
X145722744Y-85883723D01*
X145722744Y-85883723D02*
X145722744Y-85731342D01*
X145722744Y-85731342D02*
X145687030Y-85540866D01*
X145687030Y-85540866D02*
X145651316Y-85426580D01*
X145651316Y-85426580D02*
X145615601Y-85350390D01*
X145615601Y-85350390D02*
X145544173Y-85236104D01*
X145544173Y-85236104D02*
X145508458Y-85198009D01*
X140865600Y-65612295D02*
X140865600Y-64812295D01*
X140865600Y-64812295D02*
X141151314Y-64812295D01*
X141151314Y-64812295D02*
X141222743Y-64850390D01*
X141222743Y-64850390D02*
X141258457Y-64888485D01*
X141258457Y-64888485D02*
X141294171Y-64964676D01*
X141294171Y-64964676D02*
X141294171Y-65078961D01*
X141294171Y-65078961D02*
X141258457Y-65155152D01*
X141258457Y-65155152D02*
X141222743Y-65193247D01*
X141222743Y-65193247D02*
X141151314Y-65231342D01*
X141151314Y-65231342D02*
X140865600Y-65231342D01*
X141865600Y-65193247D02*
X141972743Y-65231342D01*
X141972743Y-65231342D02*
X142008457Y-65269438D01*
X142008457Y-65269438D02*
X142044171Y-65345628D01*
X142044171Y-65345628D02*
X142044171Y-65459914D01*
X142044171Y-65459914D02*
X142008457Y-65536104D01*
X142008457Y-65536104D02*
X141972743Y-65574200D01*
X141972743Y-65574200D02*
X141901314Y-65612295D01*
X141901314Y-65612295D02*
X141615600Y-65612295D01*
X141615600Y-65612295D02*
X141615600Y-64812295D01*
X141615600Y-64812295D02*
X141865600Y-64812295D01*
X141865600Y-64812295D02*
X141937029Y-64850390D01*
X141937029Y-64850390D02*
X141972743Y-64888485D01*
X141972743Y-64888485D02*
X142008457Y-64964676D01*
X142008457Y-64964676D02*
X142008457Y-65040866D01*
X142008457Y-65040866D02*
X141972743Y-65117057D01*
X141972743Y-65117057D02*
X141937029Y-65155152D01*
X141937029Y-65155152D02*
X141865600Y-65193247D01*
X141865600Y-65193247D02*
X141615600Y-65193247D01*
X142722743Y-64812295D02*
X142365600Y-64812295D01*
X142365600Y-64812295D02*
X142329886Y-65193247D01*
X142329886Y-65193247D02*
X142365600Y-65155152D01*
X142365600Y-65155152D02*
X142437029Y-65117057D01*
X142437029Y-65117057D02*
X142615600Y-65117057D01*
X142615600Y-65117057D02*
X142687029Y-65155152D01*
X142687029Y-65155152D02*
X142722743Y-65193247D01*
X142722743Y-65193247D02*
X142758457Y-65269438D01*
X142758457Y-65269438D02*
X142758457Y-65459914D01*
X142758457Y-65459914D02*
X142722743Y-65536104D01*
X142722743Y-65536104D02*
X142687029Y-65574200D01*
X142687029Y-65574200D02*
X142615600Y-65612295D01*
X142615600Y-65612295D02*
X142437029Y-65612295D01*
X142437029Y-65612295D02*
X142365600Y-65574200D01*
X142365600Y-65574200D02*
X142329886Y-65536104D01*
X143865601Y-65917057D02*
X143829886Y-65878961D01*
X143829886Y-65878961D02*
X143758458Y-65764676D01*
X143758458Y-65764676D02*
X143722744Y-65688485D01*
X143722744Y-65688485D02*
X143687029Y-65574200D01*
X143687029Y-65574200D02*
X143651315Y-65383723D01*
X143651315Y-65383723D02*
X143651315Y-65231342D01*
X143651315Y-65231342D02*
X143687029Y-65040866D01*
X143687029Y-65040866D02*
X143722744Y-64926580D01*
X143722744Y-64926580D02*
X143758458Y-64850390D01*
X143758458Y-64850390D02*
X143829886Y-64736104D01*
X143829886Y-64736104D02*
X143865601Y-64698009D01*
X144472744Y-65078961D02*
X144472744Y-65612295D01*
X144294172Y-64774200D02*
X144115601Y-65345628D01*
X144115601Y-65345628D02*
X144579886Y-65345628D01*
X144829887Y-64888485D02*
X144865601Y-64850390D01*
X144865601Y-64850390D02*
X144937030Y-64812295D01*
X144937030Y-64812295D02*
X145115601Y-64812295D01*
X145115601Y-64812295D02*
X145187030Y-64850390D01*
X145187030Y-64850390D02*
X145222744Y-64888485D01*
X145222744Y-64888485D02*
X145258458Y-64964676D01*
X145258458Y-64964676D02*
X145258458Y-65040866D01*
X145258458Y-65040866D02*
X145222744Y-65155152D01*
X145222744Y-65155152D02*
X144794172Y-65612295D01*
X144794172Y-65612295D02*
X145258458Y-65612295D01*
X145508458Y-65917057D02*
X145544173Y-65878961D01*
X145544173Y-65878961D02*
X145615601Y-65764676D01*
X145615601Y-65764676D02*
X145651316Y-65688485D01*
X145651316Y-65688485D02*
X145687030Y-65574200D01*
X145687030Y-65574200D02*
X145722744Y-65383723D01*
X145722744Y-65383723D02*
X145722744Y-65231342D01*
X145722744Y-65231342D02*
X145687030Y-65040866D01*
X145687030Y-65040866D02*
X145651316Y-64926580D01*
X145651316Y-64926580D02*
X145615601Y-64850390D01*
X145615601Y-64850390D02*
X145544173Y-64736104D01*
X145544173Y-64736104D02*
X145508458Y-64698009D01*
X143258458Y-73362295D02*
X143258458Y-72562295D01*
X143258458Y-72562295D02*
X143544172Y-72562295D01*
X143544172Y-72562295D02*
X143615601Y-72600390D01*
X143615601Y-72600390D02*
X143651315Y-72638485D01*
X143651315Y-72638485D02*
X143687029Y-72714676D01*
X143687029Y-72714676D02*
X143687029Y-72828961D01*
X143687029Y-72828961D02*
X143651315Y-72905152D01*
X143651315Y-72905152D02*
X143615601Y-72943247D01*
X143615601Y-72943247D02*
X143544172Y-72981342D01*
X143544172Y-72981342D02*
X143258458Y-72981342D01*
X143972744Y-73133723D02*
X144329887Y-73133723D01*
X143901315Y-73362295D02*
X144151315Y-72562295D01*
X144151315Y-72562295D02*
X144401315Y-73362295D01*
X145044172Y-73362295D02*
X144615601Y-73362295D01*
X144829886Y-73362295D02*
X144829886Y-72562295D01*
X144829886Y-72562295D02*
X144758458Y-72676580D01*
X144758458Y-72676580D02*
X144687029Y-72752771D01*
X144687029Y-72752771D02*
X144615601Y-72790866D01*
X145722744Y-72562295D02*
X145365601Y-72562295D01*
X145365601Y-72562295D02*
X145329887Y-72943247D01*
X145329887Y-72943247D02*
X145365601Y-72905152D01*
X145365601Y-72905152D02*
X145437030Y-72867057D01*
X145437030Y-72867057D02*
X145615601Y-72867057D01*
X145615601Y-72867057D02*
X145687030Y-72905152D01*
X145687030Y-72905152D02*
X145722744Y-72943247D01*
X145722744Y-72943247D02*
X145758458Y-73019438D01*
X145758458Y-73019438D02*
X145758458Y-73209914D01*
X145758458Y-73209914D02*
X145722744Y-73286104D01*
X145722744Y-73286104D02*
X145687030Y-73324200D01*
X145687030Y-73324200D02*
X145615601Y-73362295D01*
X145615601Y-73362295D02*
X145437030Y-73362295D01*
X145437030Y-73362295D02*
X145365601Y-73324200D01*
X145365601Y-73324200D02*
X145329887Y-73286104D01*
X140865600Y-68112295D02*
X140865600Y-67312295D01*
X140865600Y-67312295D02*
X141151314Y-67312295D01*
X141151314Y-67312295D02*
X141222743Y-67350390D01*
X141222743Y-67350390D02*
X141258457Y-67388485D01*
X141258457Y-67388485D02*
X141294171Y-67464676D01*
X141294171Y-67464676D02*
X141294171Y-67578961D01*
X141294171Y-67578961D02*
X141258457Y-67655152D01*
X141258457Y-67655152D02*
X141222743Y-67693247D01*
X141222743Y-67693247D02*
X141151314Y-67731342D01*
X141151314Y-67731342D02*
X140865600Y-67731342D01*
X141865600Y-67693247D02*
X141972743Y-67731342D01*
X141972743Y-67731342D02*
X142008457Y-67769438D01*
X142008457Y-67769438D02*
X142044171Y-67845628D01*
X142044171Y-67845628D02*
X142044171Y-67959914D01*
X142044171Y-67959914D02*
X142008457Y-68036104D01*
X142008457Y-68036104D02*
X141972743Y-68074200D01*
X141972743Y-68074200D02*
X141901314Y-68112295D01*
X141901314Y-68112295D02*
X141615600Y-68112295D01*
X141615600Y-68112295D02*
X141615600Y-67312295D01*
X141615600Y-67312295D02*
X141865600Y-67312295D01*
X141865600Y-67312295D02*
X141937029Y-67350390D01*
X141937029Y-67350390D02*
X141972743Y-67388485D01*
X141972743Y-67388485D02*
X142008457Y-67464676D01*
X142008457Y-67464676D02*
X142008457Y-67540866D01*
X142008457Y-67540866D02*
X141972743Y-67617057D01*
X141972743Y-67617057D02*
X141937029Y-67655152D01*
X141937029Y-67655152D02*
X141865600Y-67693247D01*
X141865600Y-67693247D02*
X141615600Y-67693247D01*
X142687029Y-67578961D02*
X142687029Y-68112295D01*
X142508457Y-67274200D02*
X142329886Y-67845628D01*
X142329886Y-67845628D02*
X142794171Y-67845628D01*
X143865601Y-68417057D02*
X143829886Y-68378961D01*
X143829886Y-68378961D02*
X143758458Y-68264676D01*
X143758458Y-68264676D02*
X143722744Y-68188485D01*
X143722744Y-68188485D02*
X143687029Y-68074200D01*
X143687029Y-68074200D02*
X143651315Y-67883723D01*
X143651315Y-67883723D02*
X143651315Y-67731342D01*
X143651315Y-67731342D02*
X143687029Y-67540866D01*
X143687029Y-67540866D02*
X143722744Y-67426580D01*
X143722744Y-67426580D02*
X143758458Y-67350390D01*
X143758458Y-67350390D02*
X143829886Y-67236104D01*
X143829886Y-67236104D02*
X143865601Y-67198009D01*
X144472744Y-67578961D02*
X144472744Y-68112295D01*
X144294172Y-67274200D02*
X144115601Y-67845628D01*
X144115601Y-67845628D02*
X144579886Y-67845628D01*
X145258458Y-68112295D02*
X144829887Y-68112295D01*
X145044172Y-68112295D02*
X145044172Y-67312295D01*
X145044172Y-67312295D02*
X144972744Y-67426580D01*
X144972744Y-67426580D02*
X144901315Y-67502771D01*
X144901315Y-67502771D02*
X144829887Y-67540866D01*
X145508458Y-68417057D02*
X145544173Y-68378961D01*
X145544173Y-68378961D02*
X145615601Y-68264676D01*
X145615601Y-68264676D02*
X145651316Y-68188485D01*
X145651316Y-68188485D02*
X145687030Y-68074200D01*
X145687030Y-68074200D02*
X145722744Y-67883723D01*
X145722744Y-67883723D02*
X145722744Y-67731342D01*
X145722744Y-67731342D02*
X145687030Y-67540866D01*
X145687030Y-67540866D02*
X145651316Y-67426580D01*
X145651316Y-67426580D02*
X145615601Y-67350390D01*
X145615601Y-67350390D02*
X145544173Y-67236104D01*
X145544173Y-67236104D02*
X145508458Y-67198009D01*
X145612295Y-79741541D02*
X144812295Y-79741541D01*
X144812295Y-79741541D02*
X144812295Y-79455827D01*
X144812295Y-79455827D02*
X144850390Y-79384398D01*
X144850390Y-79384398D02*
X144888485Y-79348684D01*
X144888485Y-79348684D02*
X144964676Y-79312970D01*
X144964676Y-79312970D02*
X145078961Y-79312970D01*
X145078961Y-79312970D02*
X145155152Y-79348684D01*
X145155152Y-79348684D02*
X145193247Y-79384398D01*
X145193247Y-79384398D02*
X145231342Y-79455827D01*
X145231342Y-79455827D02*
X145231342Y-79741541D01*
X145383723Y-79027255D02*
X145383723Y-78670113D01*
X145612295Y-79098684D02*
X144812295Y-78848684D01*
X144812295Y-78848684D02*
X145612295Y-78598684D01*
X145612295Y-77955827D02*
X145612295Y-78384398D01*
X145612295Y-78170113D02*
X144812295Y-78170113D01*
X144812295Y-78170113D02*
X144926580Y-78241541D01*
X144926580Y-78241541D02*
X145002771Y-78312970D01*
X145002771Y-78312970D02*
X145040866Y-78384398D01*
X144812295Y-77705827D02*
X144812295Y-77241541D01*
X144812295Y-77241541D02*
X145117057Y-77491541D01*
X145117057Y-77491541D02*
X145117057Y-77384398D01*
X145117057Y-77384398D02*
X145155152Y-77312970D01*
X145155152Y-77312970D02*
X145193247Y-77277255D01*
X145193247Y-77277255D02*
X145269438Y-77241541D01*
X145269438Y-77241541D02*
X145459914Y-77241541D01*
X145459914Y-77241541D02*
X145536104Y-77277255D01*
X145536104Y-77277255D02*
X145574200Y-77312970D01*
X145574200Y-77312970D02*
X145612295Y-77384398D01*
X145612295Y-77384398D02*
X145612295Y-77598684D01*
X145612295Y-77598684D02*
X145574200Y-77670112D01*
X145574200Y-77670112D02*
X145536104Y-77705827D01*
X140865600Y-70862295D02*
X140865600Y-70062295D01*
X140865600Y-70062295D02*
X141151314Y-70062295D01*
X141151314Y-70062295D02*
X141222743Y-70100390D01*
X141222743Y-70100390D02*
X141258457Y-70138485D01*
X141258457Y-70138485D02*
X141294171Y-70214676D01*
X141294171Y-70214676D02*
X141294171Y-70328961D01*
X141294171Y-70328961D02*
X141258457Y-70405152D01*
X141258457Y-70405152D02*
X141222743Y-70443247D01*
X141222743Y-70443247D02*
X141151314Y-70481342D01*
X141151314Y-70481342D02*
X140865600Y-70481342D01*
X141865600Y-70443247D02*
X141972743Y-70481342D01*
X141972743Y-70481342D02*
X142008457Y-70519438D01*
X142008457Y-70519438D02*
X142044171Y-70595628D01*
X142044171Y-70595628D02*
X142044171Y-70709914D01*
X142044171Y-70709914D02*
X142008457Y-70786104D01*
X142008457Y-70786104D02*
X141972743Y-70824200D01*
X141972743Y-70824200D02*
X141901314Y-70862295D01*
X141901314Y-70862295D02*
X141615600Y-70862295D01*
X141615600Y-70862295D02*
X141615600Y-70062295D01*
X141615600Y-70062295D02*
X141865600Y-70062295D01*
X141865600Y-70062295D02*
X141937029Y-70100390D01*
X141937029Y-70100390D02*
X141972743Y-70138485D01*
X141972743Y-70138485D02*
X142008457Y-70214676D01*
X142008457Y-70214676D02*
X142008457Y-70290866D01*
X142008457Y-70290866D02*
X141972743Y-70367057D01*
X141972743Y-70367057D02*
X141937029Y-70405152D01*
X141937029Y-70405152D02*
X141865600Y-70443247D01*
X141865600Y-70443247D02*
X141615600Y-70443247D01*
X142294171Y-70062295D02*
X142758457Y-70062295D01*
X142758457Y-70062295D02*
X142508457Y-70367057D01*
X142508457Y-70367057D02*
X142615600Y-70367057D01*
X142615600Y-70367057D02*
X142687029Y-70405152D01*
X142687029Y-70405152D02*
X142722743Y-70443247D01*
X142722743Y-70443247D02*
X142758457Y-70519438D01*
X142758457Y-70519438D02*
X142758457Y-70709914D01*
X142758457Y-70709914D02*
X142722743Y-70786104D01*
X142722743Y-70786104D02*
X142687029Y-70824200D01*
X142687029Y-70824200D02*
X142615600Y-70862295D01*
X142615600Y-70862295D02*
X142401314Y-70862295D01*
X142401314Y-70862295D02*
X142329886Y-70824200D01*
X142329886Y-70824200D02*
X142294171Y-70786104D01*
X143865601Y-71167057D02*
X143829886Y-71128961D01*
X143829886Y-71128961D02*
X143758458Y-71014676D01*
X143758458Y-71014676D02*
X143722744Y-70938485D01*
X143722744Y-70938485D02*
X143687029Y-70824200D01*
X143687029Y-70824200D02*
X143651315Y-70633723D01*
X143651315Y-70633723D02*
X143651315Y-70481342D01*
X143651315Y-70481342D02*
X143687029Y-70290866D01*
X143687029Y-70290866D02*
X143722744Y-70176580D01*
X143722744Y-70176580D02*
X143758458Y-70100390D01*
X143758458Y-70100390D02*
X143829886Y-69986104D01*
X143829886Y-69986104D02*
X143865601Y-69948009D01*
X144472744Y-70328961D02*
X144472744Y-70862295D01*
X144294172Y-70024200D02*
X144115601Y-70595628D01*
X144115601Y-70595628D02*
X144579886Y-70595628D01*
X145008458Y-70062295D02*
X145079887Y-70062295D01*
X145079887Y-70062295D02*
X145151315Y-70100390D01*
X145151315Y-70100390D02*
X145187030Y-70138485D01*
X145187030Y-70138485D02*
X145222744Y-70214676D01*
X145222744Y-70214676D02*
X145258458Y-70367057D01*
X145258458Y-70367057D02*
X145258458Y-70557533D01*
X145258458Y-70557533D02*
X145222744Y-70709914D01*
X145222744Y-70709914D02*
X145187030Y-70786104D01*
X145187030Y-70786104D02*
X145151315Y-70824200D01*
X145151315Y-70824200D02*
X145079887Y-70862295D01*
X145079887Y-70862295D02*
X145008458Y-70862295D01*
X145008458Y-70862295D02*
X144937030Y-70824200D01*
X144937030Y-70824200D02*
X144901315Y-70786104D01*
X144901315Y-70786104D02*
X144865601Y-70709914D01*
X144865601Y-70709914D02*
X144829887Y-70557533D01*
X144829887Y-70557533D02*
X144829887Y-70367057D01*
X144829887Y-70367057D02*
X144865601Y-70214676D01*
X144865601Y-70214676D02*
X144901315Y-70138485D01*
X144901315Y-70138485D02*
X144937030Y-70100390D01*
X144937030Y-70100390D02*
X145008458Y-70062295D01*
X145508458Y-71167057D02*
X145544173Y-71128961D01*
X145544173Y-71128961D02*
X145615601Y-71014676D01*
X145615601Y-71014676D02*
X145651316Y-70938485D01*
X145651316Y-70938485D02*
X145687030Y-70824200D01*
X145687030Y-70824200D02*
X145722744Y-70633723D01*
X145722744Y-70633723D02*
X145722744Y-70481342D01*
X145722744Y-70481342D02*
X145687030Y-70290866D01*
X145687030Y-70290866D02*
X145651316Y-70176580D01*
X145651316Y-70176580D02*
X145615601Y-70100390D01*
X145615601Y-70100390D02*
X145544173Y-69986104D01*
X145544173Y-69986104D02*
X145508458Y-69948009D01*
X145612295Y-76741541D02*
X144812295Y-76741541D01*
X144812295Y-76741541D02*
X144812295Y-76455827D01*
X144812295Y-76455827D02*
X144850390Y-76384398D01*
X144850390Y-76384398D02*
X144888485Y-76348684D01*
X144888485Y-76348684D02*
X144964676Y-76312970D01*
X144964676Y-76312970D02*
X145078961Y-76312970D01*
X145078961Y-76312970D02*
X145155152Y-76348684D01*
X145155152Y-76348684D02*
X145193247Y-76384398D01*
X145193247Y-76384398D02*
X145231342Y-76455827D01*
X145231342Y-76455827D02*
X145231342Y-76741541D01*
X145383723Y-76027255D02*
X145383723Y-75670113D01*
X145612295Y-76098684D02*
X144812295Y-75848684D01*
X144812295Y-75848684D02*
X145612295Y-75598684D01*
X145612295Y-74955827D02*
X145612295Y-75384398D01*
X145612295Y-75170113D02*
X144812295Y-75170113D01*
X144812295Y-75170113D02*
X144926580Y-75241541D01*
X144926580Y-75241541D02*
X145002771Y-75312970D01*
X145002771Y-75312970D02*
X145040866Y-75384398D01*
X145078961Y-74312970D02*
X145612295Y-74312970D01*
X144774200Y-74491541D02*
X145345628Y-74670112D01*
X145345628Y-74670112D02*
X145345628Y-74205827D01*
X140865600Y-63112295D02*
X140865600Y-62312295D01*
X140865600Y-62312295D02*
X141151314Y-62312295D01*
X141151314Y-62312295D02*
X141222743Y-62350390D01*
X141222743Y-62350390D02*
X141258457Y-62388485D01*
X141258457Y-62388485D02*
X141294171Y-62464676D01*
X141294171Y-62464676D02*
X141294171Y-62578961D01*
X141294171Y-62578961D02*
X141258457Y-62655152D01*
X141258457Y-62655152D02*
X141222743Y-62693247D01*
X141222743Y-62693247D02*
X141151314Y-62731342D01*
X141151314Y-62731342D02*
X140865600Y-62731342D01*
X141865600Y-62693247D02*
X141972743Y-62731342D01*
X141972743Y-62731342D02*
X142008457Y-62769438D01*
X142008457Y-62769438D02*
X142044171Y-62845628D01*
X142044171Y-62845628D02*
X142044171Y-62959914D01*
X142044171Y-62959914D02*
X142008457Y-63036104D01*
X142008457Y-63036104D02*
X141972743Y-63074200D01*
X141972743Y-63074200D02*
X141901314Y-63112295D01*
X141901314Y-63112295D02*
X141615600Y-63112295D01*
X141615600Y-63112295D02*
X141615600Y-62312295D01*
X141615600Y-62312295D02*
X141865600Y-62312295D01*
X141865600Y-62312295D02*
X141937029Y-62350390D01*
X141937029Y-62350390D02*
X141972743Y-62388485D01*
X141972743Y-62388485D02*
X142008457Y-62464676D01*
X142008457Y-62464676D02*
X142008457Y-62540866D01*
X142008457Y-62540866D02*
X141972743Y-62617057D01*
X141972743Y-62617057D02*
X141937029Y-62655152D01*
X141937029Y-62655152D02*
X141865600Y-62693247D01*
X141865600Y-62693247D02*
X141615600Y-62693247D01*
X142687029Y-62312295D02*
X142544171Y-62312295D01*
X142544171Y-62312295D02*
X142472743Y-62350390D01*
X142472743Y-62350390D02*
X142437029Y-62388485D01*
X142437029Y-62388485D02*
X142365600Y-62502771D01*
X142365600Y-62502771D02*
X142329886Y-62655152D01*
X142329886Y-62655152D02*
X142329886Y-62959914D01*
X142329886Y-62959914D02*
X142365600Y-63036104D01*
X142365600Y-63036104D02*
X142401314Y-63074200D01*
X142401314Y-63074200D02*
X142472743Y-63112295D01*
X142472743Y-63112295D02*
X142615600Y-63112295D01*
X142615600Y-63112295D02*
X142687029Y-63074200D01*
X142687029Y-63074200D02*
X142722743Y-63036104D01*
X142722743Y-63036104D02*
X142758457Y-62959914D01*
X142758457Y-62959914D02*
X142758457Y-62769438D01*
X142758457Y-62769438D02*
X142722743Y-62693247D01*
X142722743Y-62693247D02*
X142687029Y-62655152D01*
X142687029Y-62655152D02*
X142615600Y-62617057D01*
X142615600Y-62617057D02*
X142472743Y-62617057D01*
X142472743Y-62617057D02*
X142401314Y-62655152D01*
X142401314Y-62655152D02*
X142365600Y-62693247D01*
X142365600Y-62693247D02*
X142329886Y-62769438D01*
X143865601Y-63417057D02*
X143829886Y-63378961D01*
X143829886Y-63378961D02*
X143758458Y-63264676D01*
X143758458Y-63264676D02*
X143722744Y-63188485D01*
X143722744Y-63188485D02*
X143687029Y-63074200D01*
X143687029Y-63074200D02*
X143651315Y-62883723D01*
X143651315Y-62883723D02*
X143651315Y-62731342D01*
X143651315Y-62731342D02*
X143687029Y-62540866D01*
X143687029Y-62540866D02*
X143722744Y-62426580D01*
X143722744Y-62426580D02*
X143758458Y-62350390D01*
X143758458Y-62350390D02*
X143829886Y-62236104D01*
X143829886Y-62236104D02*
X143865601Y-62198009D01*
X144472744Y-62578961D02*
X144472744Y-63112295D01*
X144294172Y-62274200D02*
X144115601Y-62845628D01*
X144115601Y-62845628D02*
X144579886Y-62845628D01*
X144794172Y-62312295D02*
X145258458Y-62312295D01*
X145258458Y-62312295D02*
X145008458Y-62617057D01*
X145008458Y-62617057D02*
X145115601Y-62617057D01*
X145115601Y-62617057D02*
X145187030Y-62655152D01*
X145187030Y-62655152D02*
X145222744Y-62693247D01*
X145222744Y-62693247D02*
X145258458Y-62769438D01*
X145258458Y-62769438D02*
X145258458Y-62959914D01*
X145258458Y-62959914D02*
X145222744Y-63036104D01*
X145222744Y-63036104D02*
X145187030Y-63074200D01*
X145187030Y-63074200D02*
X145115601Y-63112295D01*
X145115601Y-63112295D02*
X144901315Y-63112295D01*
X144901315Y-63112295D02*
X144829887Y-63074200D01*
X144829887Y-63074200D02*
X144794172Y-63036104D01*
X145508458Y-63417057D02*
X145544173Y-63378961D01*
X145544173Y-63378961D02*
X145615601Y-63264676D01*
X145615601Y-63264676D02*
X145651316Y-63188485D01*
X145651316Y-63188485D02*
X145687030Y-63074200D01*
X145687030Y-63074200D02*
X145722744Y-62883723D01*
X145722744Y-62883723D02*
X145722744Y-62731342D01*
X145722744Y-62731342D02*
X145687030Y-62540866D01*
X145687030Y-62540866D02*
X145651316Y-62426580D01*
X145651316Y-62426580D02*
X145615601Y-62350390D01*
X145615601Y-62350390D02*
X145544173Y-62236104D01*
X145544173Y-62236104D02*
X145508458Y-62198009D01*
X140865600Y-60612295D02*
X140865600Y-59812295D01*
X140865600Y-59812295D02*
X141151314Y-59812295D01*
X141151314Y-59812295D02*
X141222743Y-59850390D01*
X141222743Y-59850390D02*
X141258457Y-59888485D01*
X141258457Y-59888485D02*
X141294171Y-59964676D01*
X141294171Y-59964676D02*
X141294171Y-60078961D01*
X141294171Y-60078961D02*
X141258457Y-60155152D01*
X141258457Y-60155152D02*
X141222743Y-60193247D01*
X141222743Y-60193247D02*
X141151314Y-60231342D01*
X141151314Y-60231342D02*
X140865600Y-60231342D01*
X141865600Y-60193247D02*
X141972743Y-60231342D01*
X141972743Y-60231342D02*
X142008457Y-60269438D01*
X142008457Y-60269438D02*
X142044171Y-60345628D01*
X142044171Y-60345628D02*
X142044171Y-60459914D01*
X142044171Y-60459914D02*
X142008457Y-60536104D01*
X142008457Y-60536104D02*
X141972743Y-60574200D01*
X141972743Y-60574200D02*
X141901314Y-60612295D01*
X141901314Y-60612295D02*
X141615600Y-60612295D01*
X141615600Y-60612295D02*
X141615600Y-59812295D01*
X141615600Y-59812295D02*
X141865600Y-59812295D01*
X141865600Y-59812295D02*
X141937029Y-59850390D01*
X141937029Y-59850390D02*
X141972743Y-59888485D01*
X141972743Y-59888485D02*
X142008457Y-59964676D01*
X142008457Y-59964676D02*
X142008457Y-60040866D01*
X142008457Y-60040866D02*
X141972743Y-60117057D01*
X141972743Y-60117057D02*
X141937029Y-60155152D01*
X141937029Y-60155152D02*
X141865600Y-60193247D01*
X141865600Y-60193247D02*
X141615600Y-60193247D01*
X142294171Y-59812295D02*
X142794171Y-59812295D01*
X142794171Y-59812295D02*
X142472743Y-60612295D01*
X143865601Y-60917057D02*
X143829886Y-60878961D01*
X143829886Y-60878961D02*
X143758458Y-60764676D01*
X143758458Y-60764676D02*
X143722744Y-60688485D01*
X143722744Y-60688485D02*
X143687029Y-60574200D01*
X143687029Y-60574200D02*
X143651315Y-60383723D01*
X143651315Y-60383723D02*
X143651315Y-60231342D01*
X143651315Y-60231342D02*
X143687029Y-60040866D01*
X143687029Y-60040866D02*
X143722744Y-59926580D01*
X143722744Y-59926580D02*
X143758458Y-59850390D01*
X143758458Y-59850390D02*
X143829886Y-59736104D01*
X143829886Y-59736104D02*
X143865601Y-59698009D01*
X144472744Y-60078961D02*
X144472744Y-60612295D01*
X144294172Y-59774200D02*
X144115601Y-60345628D01*
X144115601Y-60345628D02*
X144579886Y-60345628D01*
X145187030Y-60078961D02*
X145187030Y-60612295D01*
X145008458Y-59774200D02*
X144829887Y-60345628D01*
X144829887Y-60345628D02*
X145294172Y-60345628D01*
X145508458Y-60917057D02*
X145544173Y-60878961D01*
X145544173Y-60878961D02*
X145615601Y-60764676D01*
X145615601Y-60764676D02*
X145651316Y-60688485D01*
X145651316Y-60688485D02*
X145687030Y-60574200D01*
X145687030Y-60574200D02*
X145722744Y-60383723D01*
X145722744Y-60383723D02*
X145722744Y-60231342D01*
X145722744Y-60231342D02*
X145687030Y-60040866D01*
X145687030Y-60040866D02*
X145651316Y-59926580D01*
X145651316Y-59926580D02*
X145615601Y-59850390D01*
X145615601Y-59850390D02*
X145544173Y-59736104D01*
X145544173Y-59736104D02*
X145508458Y-59698009D01*
X139329887Y-58112295D02*
X139329887Y-57312295D01*
X139329887Y-57312295D02*
X139615601Y-57312295D01*
X139615601Y-57312295D02*
X139687030Y-57350390D01*
X139687030Y-57350390D02*
X139722744Y-57388485D01*
X139722744Y-57388485D02*
X139758458Y-57464676D01*
X139758458Y-57464676D02*
X139758458Y-57578961D01*
X139758458Y-57578961D02*
X139722744Y-57655152D01*
X139722744Y-57655152D02*
X139687030Y-57693247D01*
X139687030Y-57693247D02*
X139615601Y-57731342D01*
X139615601Y-57731342D02*
X139329887Y-57731342D01*
X140329887Y-57693247D02*
X140437030Y-57731342D01*
X140437030Y-57731342D02*
X140472744Y-57769438D01*
X140472744Y-57769438D02*
X140508458Y-57845628D01*
X140508458Y-57845628D02*
X140508458Y-57959914D01*
X140508458Y-57959914D02*
X140472744Y-58036104D01*
X140472744Y-58036104D02*
X140437030Y-58074200D01*
X140437030Y-58074200D02*
X140365601Y-58112295D01*
X140365601Y-58112295D02*
X140079887Y-58112295D01*
X140079887Y-58112295D02*
X140079887Y-57312295D01*
X140079887Y-57312295D02*
X140329887Y-57312295D01*
X140329887Y-57312295D02*
X140401316Y-57350390D01*
X140401316Y-57350390D02*
X140437030Y-57388485D01*
X140437030Y-57388485D02*
X140472744Y-57464676D01*
X140472744Y-57464676D02*
X140472744Y-57540866D01*
X140472744Y-57540866D02*
X140437030Y-57617057D01*
X140437030Y-57617057D02*
X140401316Y-57655152D01*
X140401316Y-57655152D02*
X140329887Y-57693247D01*
X140329887Y-57693247D02*
X140079887Y-57693247D01*
X140937030Y-57655152D02*
X140865601Y-57617057D01*
X140865601Y-57617057D02*
X140829887Y-57578961D01*
X140829887Y-57578961D02*
X140794173Y-57502771D01*
X140794173Y-57502771D02*
X140794173Y-57464676D01*
X140794173Y-57464676D02*
X140829887Y-57388485D01*
X140829887Y-57388485D02*
X140865601Y-57350390D01*
X140865601Y-57350390D02*
X140937030Y-57312295D01*
X140937030Y-57312295D02*
X141079887Y-57312295D01*
X141079887Y-57312295D02*
X141151316Y-57350390D01*
X141151316Y-57350390D02*
X141187030Y-57388485D01*
X141187030Y-57388485D02*
X141222744Y-57464676D01*
X141222744Y-57464676D02*
X141222744Y-57502771D01*
X141222744Y-57502771D02*
X141187030Y-57578961D01*
X141187030Y-57578961D02*
X141151316Y-57617057D01*
X141151316Y-57617057D02*
X141079887Y-57655152D01*
X141079887Y-57655152D02*
X140937030Y-57655152D01*
X140937030Y-57655152D02*
X140865601Y-57693247D01*
X140865601Y-57693247D02*
X140829887Y-57731342D01*
X140829887Y-57731342D02*
X140794173Y-57807533D01*
X140794173Y-57807533D02*
X140794173Y-57959914D01*
X140794173Y-57959914D02*
X140829887Y-58036104D01*
X140829887Y-58036104D02*
X140865601Y-58074200D01*
X140865601Y-58074200D02*
X140937030Y-58112295D01*
X140937030Y-58112295D02*
X141079887Y-58112295D01*
X141079887Y-58112295D02*
X141151316Y-58074200D01*
X141151316Y-58074200D02*
X141187030Y-58036104D01*
X141187030Y-58036104D02*
X141222744Y-57959914D01*
X141222744Y-57959914D02*
X141222744Y-57807533D01*
X141222744Y-57807533D02*
X141187030Y-57731342D01*
X141187030Y-57731342D02*
X141151316Y-57693247D01*
X141151316Y-57693247D02*
X141079887Y-57655152D01*
X141544173Y-57807533D02*
X142115602Y-57807533D01*
X142722744Y-57693247D02*
X142829887Y-57731342D01*
X142829887Y-57731342D02*
X142865601Y-57769438D01*
X142865601Y-57769438D02*
X142901315Y-57845628D01*
X142901315Y-57845628D02*
X142901315Y-57959914D01*
X142901315Y-57959914D02*
X142865601Y-58036104D01*
X142865601Y-58036104D02*
X142829887Y-58074200D01*
X142829887Y-58074200D02*
X142758458Y-58112295D01*
X142758458Y-58112295D02*
X142472744Y-58112295D01*
X142472744Y-58112295D02*
X142472744Y-57312295D01*
X142472744Y-57312295D02*
X142722744Y-57312295D01*
X142722744Y-57312295D02*
X142794173Y-57350390D01*
X142794173Y-57350390D02*
X142829887Y-57388485D01*
X142829887Y-57388485D02*
X142865601Y-57464676D01*
X142865601Y-57464676D02*
X142865601Y-57540866D01*
X142865601Y-57540866D02*
X142829887Y-57617057D01*
X142829887Y-57617057D02*
X142794173Y-57655152D01*
X142794173Y-57655152D02*
X142722744Y-57693247D01*
X142722744Y-57693247D02*
X142472744Y-57693247D01*
X143365601Y-57312295D02*
X143508458Y-57312295D01*
X143508458Y-57312295D02*
X143579887Y-57350390D01*
X143579887Y-57350390D02*
X143651315Y-57426580D01*
X143651315Y-57426580D02*
X143687030Y-57578961D01*
X143687030Y-57578961D02*
X143687030Y-57845628D01*
X143687030Y-57845628D02*
X143651315Y-57998009D01*
X143651315Y-57998009D02*
X143579887Y-58074200D01*
X143579887Y-58074200D02*
X143508458Y-58112295D01*
X143508458Y-58112295D02*
X143365601Y-58112295D01*
X143365601Y-58112295D02*
X143294173Y-58074200D01*
X143294173Y-58074200D02*
X143222744Y-57998009D01*
X143222744Y-57998009D02*
X143187030Y-57845628D01*
X143187030Y-57845628D02*
X143187030Y-57578961D01*
X143187030Y-57578961D02*
X143222744Y-57426580D01*
X143222744Y-57426580D02*
X143294173Y-57350390D01*
X143294173Y-57350390D02*
X143365601Y-57312295D01*
X144151315Y-57312295D02*
X144294172Y-57312295D01*
X144294172Y-57312295D02*
X144365601Y-57350390D01*
X144365601Y-57350390D02*
X144437029Y-57426580D01*
X144437029Y-57426580D02*
X144472744Y-57578961D01*
X144472744Y-57578961D02*
X144472744Y-57845628D01*
X144472744Y-57845628D02*
X144437029Y-57998009D01*
X144437029Y-57998009D02*
X144365601Y-58074200D01*
X144365601Y-58074200D02*
X144294172Y-58112295D01*
X144294172Y-58112295D02*
X144151315Y-58112295D01*
X144151315Y-58112295D02*
X144079887Y-58074200D01*
X144079887Y-58074200D02*
X144008458Y-57998009D01*
X144008458Y-57998009D02*
X143972744Y-57845628D01*
X143972744Y-57845628D02*
X143972744Y-57578961D01*
X143972744Y-57578961D02*
X144008458Y-57426580D01*
X144008458Y-57426580D02*
X144079887Y-57350390D01*
X144079887Y-57350390D02*
X144151315Y-57312295D01*
X144687029Y-57312295D02*
X145115601Y-57312295D01*
X144901315Y-58112295D02*
X144901315Y-57312295D01*
X145508458Y-57312295D02*
X145579887Y-57312295D01*
X145579887Y-57312295D02*
X145651315Y-57350390D01*
X145651315Y-57350390D02*
X145687030Y-57388485D01*
X145687030Y-57388485D02*
X145722744Y-57464676D01*
X145722744Y-57464676D02*
X145758458Y-57617057D01*
X145758458Y-57617057D02*
X145758458Y-57807533D01*
X145758458Y-57807533D02*
X145722744Y-57959914D01*
X145722744Y-57959914D02*
X145687030Y-58036104D01*
X145687030Y-58036104D02*
X145651315Y-58074200D01*
X145651315Y-58074200D02*
X145579887Y-58112295D01*
X145579887Y-58112295D02*
X145508458Y-58112295D01*
X145508458Y-58112295D02*
X145437030Y-58074200D01*
X145437030Y-58074200D02*
X145401315Y-58036104D01*
X145401315Y-58036104D02*
X145365601Y-57959914D01*
X145365601Y-57959914D02*
X145329887Y-57807533D01*
X145329887Y-57807533D02*
X145329887Y-57617057D01*
X145329887Y-57617057D02*
X145365601Y-57464676D01*
X145365601Y-57464676D02*
X145401315Y-57388485D01*
X145401315Y-57388485D02*
X145437030Y-57350390D01*
X145437030Y-57350390D02*
X145508458Y-57312295D01*
X140865600Y-55612295D02*
X140865600Y-54812295D01*
X140865600Y-54812295D02*
X141151314Y-54812295D01*
X141151314Y-54812295D02*
X141222743Y-54850390D01*
X141222743Y-54850390D02*
X141258457Y-54888485D01*
X141258457Y-54888485D02*
X141294171Y-54964676D01*
X141294171Y-54964676D02*
X141294171Y-55078961D01*
X141294171Y-55078961D02*
X141258457Y-55155152D01*
X141258457Y-55155152D02*
X141222743Y-55193247D01*
X141222743Y-55193247D02*
X141151314Y-55231342D01*
X141151314Y-55231342D02*
X140865600Y-55231342D01*
X141865600Y-55193247D02*
X141972743Y-55231342D01*
X141972743Y-55231342D02*
X142008457Y-55269438D01*
X142008457Y-55269438D02*
X142044171Y-55345628D01*
X142044171Y-55345628D02*
X142044171Y-55459914D01*
X142044171Y-55459914D02*
X142008457Y-55536104D01*
X142008457Y-55536104D02*
X141972743Y-55574200D01*
X141972743Y-55574200D02*
X141901314Y-55612295D01*
X141901314Y-55612295D02*
X141615600Y-55612295D01*
X141615600Y-55612295D02*
X141615600Y-54812295D01*
X141615600Y-54812295D02*
X141865600Y-54812295D01*
X141865600Y-54812295D02*
X141937029Y-54850390D01*
X141937029Y-54850390D02*
X141972743Y-54888485D01*
X141972743Y-54888485D02*
X142008457Y-54964676D01*
X142008457Y-54964676D02*
X142008457Y-55040866D01*
X142008457Y-55040866D02*
X141972743Y-55117057D01*
X141972743Y-55117057D02*
X141937029Y-55155152D01*
X141937029Y-55155152D02*
X141865600Y-55193247D01*
X141865600Y-55193247D02*
X141615600Y-55193247D01*
X142401314Y-55612295D02*
X142544171Y-55612295D01*
X142544171Y-55612295D02*
X142615600Y-55574200D01*
X142615600Y-55574200D02*
X142651314Y-55536104D01*
X142651314Y-55536104D02*
X142722743Y-55421819D01*
X142722743Y-55421819D02*
X142758457Y-55269438D01*
X142758457Y-55269438D02*
X142758457Y-54964676D01*
X142758457Y-54964676D02*
X142722743Y-54888485D01*
X142722743Y-54888485D02*
X142687029Y-54850390D01*
X142687029Y-54850390D02*
X142615600Y-54812295D01*
X142615600Y-54812295D02*
X142472743Y-54812295D01*
X142472743Y-54812295D02*
X142401314Y-54850390D01*
X142401314Y-54850390D02*
X142365600Y-54888485D01*
X142365600Y-54888485D02*
X142329886Y-54964676D01*
X142329886Y-54964676D02*
X142329886Y-55155152D01*
X142329886Y-55155152D02*
X142365600Y-55231342D01*
X142365600Y-55231342D02*
X142401314Y-55269438D01*
X142401314Y-55269438D02*
X142472743Y-55307533D01*
X142472743Y-55307533D02*
X142615600Y-55307533D01*
X142615600Y-55307533D02*
X142687029Y-55269438D01*
X142687029Y-55269438D02*
X142722743Y-55231342D01*
X142722743Y-55231342D02*
X142758457Y-55155152D01*
X143865601Y-55917057D02*
X143829886Y-55878961D01*
X143829886Y-55878961D02*
X143758458Y-55764676D01*
X143758458Y-55764676D02*
X143722744Y-55688485D01*
X143722744Y-55688485D02*
X143687029Y-55574200D01*
X143687029Y-55574200D02*
X143651315Y-55383723D01*
X143651315Y-55383723D02*
X143651315Y-55231342D01*
X143651315Y-55231342D02*
X143687029Y-55040866D01*
X143687029Y-55040866D02*
X143722744Y-54926580D01*
X143722744Y-54926580D02*
X143758458Y-54850390D01*
X143758458Y-54850390D02*
X143829886Y-54736104D01*
X143829886Y-54736104D02*
X143865601Y-54698009D01*
X144472744Y-55078961D02*
X144472744Y-55612295D01*
X144294172Y-54774200D02*
X144115601Y-55345628D01*
X144115601Y-55345628D02*
X144579886Y-55345628D01*
X145187030Y-54812295D02*
X145044172Y-54812295D01*
X145044172Y-54812295D02*
X144972744Y-54850390D01*
X144972744Y-54850390D02*
X144937030Y-54888485D01*
X144937030Y-54888485D02*
X144865601Y-55002771D01*
X144865601Y-55002771D02*
X144829887Y-55155152D01*
X144829887Y-55155152D02*
X144829887Y-55459914D01*
X144829887Y-55459914D02*
X144865601Y-55536104D01*
X144865601Y-55536104D02*
X144901315Y-55574200D01*
X144901315Y-55574200D02*
X144972744Y-55612295D01*
X144972744Y-55612295D02*
X145115601Y-55612295D01*
X145115601Y-55612295D02*
X145187030Y-55574200D01*
X145187030Y-55574200D02*
X145222744Y-55536104D01*
X145222744Y-55536104D02*
X145258458Y-55459914D01*
X145258458Y-55459914D02*
X145258458Y-55269438D01*
X145258458Y-55269438D02*
X145222744Y-55193247D01*
X145222744Y-55193247D02*
X145187030Y-55155152D01*
X145187030Y-55155152D02*
X145115601Y-55117057D01*
X145115601Y-55117057D02*
X144972744Y-55117057D01*
X144972744Y-55117057D02*
X144901315Y-55155152D01*
X144901315Y-55155152D02*
X144865601Y-55193247D01*
X144865601Y-55193247D02*
X144829887Y-55269438D01*
X145508458Y-55917057D02*
X145544173Y-55878961D01*
X145544173Y-55878961D02*
X145615601Y-55764676D01*
X145615601Y-55764676D02*
X145651316Y-55688485D01*
X145651316Y-55688485D02*
X145687030Y-55574200D01*
X145687030Y-55574200D02*
X145722744Y-55383723D01*
X145722744Y-55383723D02*
X145722744Y-55231342D01*
X145722744Y-55231342D02*
X145687030Y-55040866D01*
X145687030Y-55040866D02*
X145651316Y-54926580D01*
X145651316Y-54926580D02*
X145615601Y-54850390D01*
X145615601Y-54850390D02*
X145544173Y-54736104D01*
X145544173Y-54736104D02*
X145508458Y-54698009D01*
X140901314Y-52062295D02*
X141151314Y-52862295D01*
X141151314Y-52862295D02*
X141401314Y-52062295D01*
X141615600Y-52824200D02*
X141722743Y-52862295D01*
X141722743Y-52862295D02*
X141901314Y-52862295D01*
X141901314Y-52862295D02*
X141972743Y-52824200D01*
X141972743Y-52824200D02*
X142008457Y-52786104D01*
X142008457Y-52786104D02*
X142044171Y-52709914D01*
X142044171Y-52709914D02*
X142044171Y-52633723D01*
X142044171Y-52633723D02*
X142008457Y-52557533D01*
X142008457Y-52557533D02*
X141972743Y-52519438D01*
X141972743Y-52519438D02*
X141901314Y-52481342D01*
X141901314Y-52481342D02*
X141758457Y-52443247D01*
X141758457Y-52443247D02*
X141687028Y-52405152D01*
X141687028Y-52405152D02*
X141651314Y-52367057D01*
X141651314Y-52367057D02*
X141615600Y-52290866D01*
X141615600Y-52290866D02*
X141615600Y-52214676D01*
X141615600Y-52214676D02*
X141651314Y-52138485D01*
X141651314Y-52138485D02*
X141687028Y-52100390D01*
X141687028Y-52100390D02*
X141758457Y-52062295D01*
X141758457Y-52062295D02*
X141937028Y-52062295D01*
X141937028Y-52062295D02*
X142044171Y-52100390D01*
X142329886Y-52824200D02*
X142437029Y-52862295D01*
X142437029Y-52862295D02*
X142615600Y-52862295D01*
X142615600Y-52862295D02*
X142687029Y-52824200D01*
X142687029Y-52824200D02*
X142722743Y-52786104D01*
X142722743Y-52786104D02*
X142758457Y-52709914D01*
X142758457Y-52709914D02*
X142758457Y-52633723D01*
X142758457Y-52633723D02*
X142722743Y-52557533D01*
X142722743Y-52557533D02*
X142687029Y-52519438D01*
X142687029Y-52519438D02*
X142615600Y-52481342D01*
X142615600Y-52481342D02*
X142472743Y-52443247D01*
X142472743Y-52443247D02*
X142401314Y-52405152D01*
X142401314Y-52405152D02*
X142365600Y-52367057D01*
X142365600Y-52367057D02*
X142329886Y-52290866D01*
X142329886Y-52290866D02*
X142329886Y-52214676D01*
X142329886Y-52214676D02*
X142365600Y-52138485D01*
X142365600Y-52138485D02*
X142401314Y-52100390D01*
X142401314Y-52100390D02*
X142472743Y-52062295D01*
X142472743Y-52062295D02*
X142651314Y-52062295D01*
X142651314Y-52062295D02*
X142758457Y-52100390D01*
X143865601Y-53167057D02*
X143829886Y-53128961D01*
X143829886Y-53128961D02*
X143758458Y-53014676D01*
X143758458Y-53014676D02*
X143722744Y-52938485D01*
X143722744Y-52938485D02*
X143687029Y-52824200D01*
X143687029Y-52824200D02*
X143651315Y-52633723D01*
X143651315Y-52633723D02*
X143651315Y-52481342D01*
X143651315Y-52481342D02*
X143687029Y-52290866D01*
X143687029Y-52290866D02*
X143722744Y-52176580D01*
X143722744Y-52176580D02*
X143758458Y-52100390D01*
X143758458Y-52100390D02*
X143829886Y-51986104D01*
X143829886Y-51986104D02*
X143865601Y-51948009D01*
X144472744Y-52328961D02*
X144472744Y-52862295D01*
X144294172Y-52024200D02*
X144115601Y-52595628D01*
X144115601Y-52595628D02*
X144579886Y-52595628D01*
X144794172Y-52062295D02*
X145294172Y-52062295D01*
X145294172Y-52062295D02*
X144972744Y-52862295D01*
X145508458Y-53167057D02*
X145544173Y-53128961D01*
X145544173Y-53128961D02*
X145615601Y-53014676D01*
X145615601Y-53014676D02*
X145651316Y-52938485D01*
X145651316Y-52938485D02*
X145687030Y-52824200D01*
X145687030Y-52824200D02*
X145722744Y-52633723D01*
X145722744Y-52633723D02*
X145722744Y-52481342D01*
X145722744Y-52481342D02*
X145687030Y-52290866D01*
X145687030Y-52290866D02*
X145651316Y-52176580D01*
X145651316Y-52176580D02*
X145615601Y-52100390D01*
X145615601Y-52100390D02*
X145544173Y-51986104D01*
X145544173Y-51986104D02*
X145508458Y-51948009D01*
X140829886Y-49562295D02*
X141079886Y-50362295D01*
X141079886Y-50362295D02*
X141329886Y-49562295D01*
X141579886Y-50362295D02*
X141579886Y-49562295D01*
X141579886Y-49562295D02*
X141758457Y-49562295D01*
X141758457Y-49562295D02*
X141865600Y-49600390D01*
X141865600Y-49600390D02*
X141937029Y-49676580D01*
X141937029Y-49676580D02*
X141972743Y-49752771D01*
X141972743Y-49752771D02*
X142008457Y-49905152D01*
X142008457Y-49905152D02*
X142008457Y-50019438D01*
X142008457Y-50019438D02*
X141972743Y-50171819D01*
X141972743Y-50171819D02*
X141937029Y-50248009D01*
X141937029Y-50248009D02*
X141865600Y-50324200D01*
X141865600Y-50324200D02*
X141758457Y-50362295D01*
X141758457Y-50362295D02*
X141579886Y-50362295D01*
X142329886Y-50362295D02*
X142329886Y-49562295D01*
X142329886Y-49562295D02*
X142508457Y-49562295D01*
X142508457Y-49562295D02*
X142615600Y-49600390D01*
X142615600Y-49600390D02*
X142687029Y-49676580D01*
X142687029Y-49676580D02*
X142722743Y-49752771D01*
X142722743Y-49752771D02*
X142758457Y-49905152D01*
X142758457Y-49905152D02*
X142758457Y-50019438D01*
X142758457Y-50019438D02*
X142722743Y-50171819D01*
X142722743Y-50171819D02*
X142687029Y-50248009D01*
X142687029Y-50248009D02*
X142615600Y-50324200D01*
X142615600Y-50324200D02*
X142508457Y-50362295D01*
X142508457Y-50362295D02*
X142329886Y-50362295D01*
X143865601Y-50667057D02*
X143829886Y-50628961D01*
X143829886Y-50628961D02*
X143758458Y-50514676D01*
X143758458Y-50514676D02*
X143722744Y-50438485D01*
X143722744Y-50438485D02*
X143687029Y-50324200D01*
X143687029Y-50324200D02*
X143651315Y-50133723D01*
X143651315Y-50133723D02*
X143651315Y-49981342D01*
X143651315Y-49981342D02*
X143687029Y-49790866D01*
X143687029Y-49790866D02*
X143722744Y-49676580D01*
X143722744Y-49676580D02*
X143758458Y-49600390D01*
X143758458Y-49600390D02*
X143829886Y-49486104D01*
X143829886Y-49486104D02*
X143865601Y-49448009D01*
X144472744Y-49828961D02*
X144472744Y-50362295D01*
X144294172Y-49524200D02*
X144115601Y-50095628D01*
X144115601Y-50095628D02*
X144579886Y-50095628D01*
X144972744Y-49905152D02*
X144901315Y-49867057D01*
X144901315Y-49867057D02*
X144865601Y-49828961D01*
X144865601Y-49828961D02*
X144829887Y-49752771D01*
X144829887Y-49752771D02*
X144829887Y-49714676D01*
X144829887Y-49714676D02*
X144865601Y-49638485D01*
X144865601Y-49638485D02*
X144901315Y-49600390D01*
X144901315Y-49600390D02*
X144972744Y-49562295D01*
X144972744Y-49562295D02*
X145115601Y-49562295D01*
X145115601Y-49562295D02*
X145187030Y-49600390D01*
X145187030Y-49600390D02*
X145222744Y-49638485D01*
X145222744Y-49638485D02*
X145258458Y-49714676D01*
X145258458Y-49714676D02*
X145258458Y-49752771D01*
X145258458Y-49752771D02*
X145222744Y-49828961D01*
X145222744Y-49828961D02*
X145187030Y-49867057D01*
X145187030Y-49867057D02*
X145115601Y-49905152D01*
X145115601Y-49905152D02*
X144972744Y-49905152D01*
X144972744Y-49905152D02*
X144901315Y-49943247D01*
X144901315Y-49943247D02*
X144865601Y-49981342D01*
X144865601Y-49981342D02*
X144829887Y-50057533D01*
X144829887Y-50057533D02*
X144829887Y-50209914D01*
X144829887Y-50209914D02*
X144865601Y-50286104D01*
X144865601Y-50286104D02*
X144901315Y-50324200D01*
X144901315Y-50324200D02*
X144972744Y-50362295D01*
X144972744Y-50362295D02*
X145115601Y-50362295D01*
X145115601Y-50362295D02*
X145187030Y-50324200D01*
X145187030Y-50324200D02*
X145222744Y-50286104D01*
X145222744Y-50286104D02*
X145258458Y-50209914D01*
X145258458Y-50209914D02*
X145258458Y-50057533D01*
X145258458Y-50057533D02*
X145222744Y-49981342D01*
X145222744Y-49981342D02*
X145187030Y-49943247D01*
X145187030Y-49943247D02*
X145115601Y-49905152D01*
X145508458Y-50667057D02*
X145544173Y-50628961D01*
X145544173Y-50628961D02*
X145615601Y-50514676D01*
X145615601Y-50514676D02*
X145651316Y-50438485D01*
X145651316Y-50438485D02*
X145687030Y-50324200D01*
X145687030Y-50324200D02*
X145722744Y-50133723D01*
X145722744Y-50133723D02*
X145722744Y-49981342D01*
X145722744Y-49981342D02*
X145687030Y-49790866D01*
X145687030Y-49790866D02*
X145651316Y-49676580D01*
X145651316Y-49676580D02*
X145615601Y-49600390D01*
X145615601Y-49600390D02*
X145544173Y-49486104D01*
X145544173Y-49486104D02*
X145508458Y-49448009D01*
X131670112Y-105562295D02*
X131920112Y-106362295D01*
X131920112Y-106362295D02*
X132170112Y-105562295D01*
X132384398Y-106324200D02*
X132491541Y-106362295D01*
X132491541Y-106362295D02*
X132670112Y-106362295D01*
X132670112Y-106362295D02*
X132741541Y-106324200D01*
X132741541Y-106324200D02*
X132777255Y-106286104D01*
X132777255Y-106286104D02*
X132812969Y-106209914D01*
X132812969Y-106209914D02*
X132812969Y-106133723D01*
X132812969Y-106133723D02*
X132777255Y-106057533D01*
X132777255Y-106057533D02*
X132741541Y-106019438D01*
X132741541Y-106019438D02*
X132670112Y-105981342D01*
X132670112Y-105981342D02*
X132527255Y-105943247D01*
X132527255Y-105943247D02*
X132455826Y-105905152D01*
X132455826Y-105905152D02*
X132420112Y-105867057D01*
X132420112Y-105867057D02*
X132384398Y-105790866D01*
X132384398Y-105790866D02*
X132384398Y-105714676D01*
X132384398Y-105714676D02*
X132420112Y-105638485D01*
X132420112Y-105638485D02*
X132455826Y-105600390D01*
X132455826Y-105600390D02*
X132527255Y-105562295D01*
X132527255Y-105562295D02*
X132705826Y-105562295D01*
X132705826Y-105562295D02*
X132812969Y-105600390D01*
X133098684Y-106324200D02*
X133205827Y-106362295D01*
X133205827Y-106362295D02*
X133384398Y-106362295D01*
X133384398Y-106362295D02*
X133455827Y-106324200D01*
X133455827Y-106324200D02*
X133491541Y-106286104D01*
X133491541Y-106286104D02*
X133527255Y-106209914D01*
X133527255Y-106209914D02*
X133527255Y-106133723D01*
X133527255Y-106133723D02*
X133491541Y-106057533D01*
X133491541Y-106057533D02*
X133455827Y-106019438D01*
X133455827Y-106019438D02*
X133384398Y-105981342D01*
X133384398Y-105981342D02*
X133241541Y-105943247D01*
X133241541Y-105943247D02*
X133170112Y-105905152D01*
X133170112Y-105905152D02*
X133134398Y-105867057D01*
X133134398Y-105867057D02*
X133098684Y-105790866D01*
X133098684Y-105790866D02*
X133098684Y-105714676D01*
X133098684Y-105714676D02*
X133134398Y-105638485D01*
X133134398Y-105638485D02*
X133170112Y-105600390D01*
X133170112Y-105600390D02*
X133241541Y-105562295D01*
X133241541Y-105562295D02*
X133420112Y-105562295D01*
X133420112Y-105562295D02*
X133527255Y-105600390D01*
X134634399Y-106667057D02*
X134598684Y-106628961D01*
X134598684Y-106628961D02*
X134527256Y-106514676D01*
X134527256Y-106514676D02*
X134491542Y-106438485D01*
X134491542Y-106438485D02*
X134455827Y-106324200D01*
X134455827Y-106324200D02*
X134420113Y-106133723D01*
X134420113Y-106133723D02*
X134420113Y-105981342D01*
X134420113Y-105981342D02*
X134455827Y-105790866D01*
X134455827Y-105790866D02*
X134491542Y-105676580D01*
X134491542Y-105676580D02*
X134527256Y-105600390D01*
X134527256Y-105600390D02*
X134598684Y-105486104D01*
X134598684Y-105486104D02*
X134634399Y-105448009D01*
X134884399Y-105638485D02*
X134920113Y-105600390D01*
X134920113Y-105600390D02*
X134991542Y-105562295D01*
X134991542Y-105562295D02*
X135170113Y-105562295D01*
X135170113Y-105562295D02*
X135241542Y-105600390D01*
X135241542Y-105600390D02*
X135277256Y-105638485D01*
X135277256Y-105638485D02*
X135312970Y-105714676D01*
X135312970Y-105714676D02*
X135312970Y-105790866D01*
X135312970Y-105790866D02*
X135277256Y-105905152D01*
X135277256Y-105905152D02*
X134848684Y-106362295D01*
X134848684Y-106362295D02*
X135312970Y-106362295D01*
X135562970Y-105562295D02*
X136027256Y-105562295D01*
X136027256Y-105562295D02*
X135777256Y-105867057D01*
X135777256Y-105867057D02*
X135884399Y-105867057D01*
X135884399Y-105867057D02*
X135955828Y-105905152D01*
X135955828Y-105905152D02*
X135991542Y-105943247D01*
X135991542Y-105943247D02*
X136027256Y-106019438D01*
X136027256Y-106019438D02*
X136027256Y-106209914D01*
X136027256Y-106209914D02*
X135991542Y-106286104D01*
X135991542Y-106286104D02*
X135955828Y-106324200D01*
X135955828Y-106324200D02*
X135884399Y-106362295D01*
X135884399Y-106362295D02*
X135670113Y-106362295D01*
X135670113Y-106362295D02*
X135598685Y-106324200D01*
X135598685Y-106324200D02*
X135562970Y-106286104D01*
X136277256Y-106667057D02*
X136312971Y-106628961D01*
X136312971Y-106628961D02*
X136384399Y-106514676D01*
X136384399Y-106514676D02*
X136420114Y-106438485D01*
X136420114Y-106438485D02*
X136455828Y-106324200D01*
X136455828Y-106324200D02*
X136491542Y-106133723D01*
X136491542Y-106133723D02*
X136491542Y-105981342D01*
X136491542Y-105981342D02*
X136455828Y-105790866D01*
X136455828Y-105790866D02*
X136420114Y-105676580D01*
X136420114Y-105676580D02*
X136384399Y-105600390D01*
X136384399Y-105600390D02*
X136312971Y-105486104D01*
X136312971Y-105486104D02*
X136277256Y-105448009D01*
X131670112Y-100562295D02*
X131920112Y-101362295D01*
X131920112Y-101362295D02*
X132170112Y-100562295D01*
X132420112Y-101362295D02*
X132420112Y-100562295D01*
X132420112Y-100562295D02*
X132598683Y-100562295D01*
X132598683Y-100562295D02*
X132705826Y-100600390D01*
X132705826Y-100600390D02*
X132777255Y-100676580D01*
X132777255Y-100676580D02*
X132812969Y-100752771D01*
X132812969Y-100752771D02*
X132848683Y-100905152D01*
X132848683Y-100905152D02*
X132848683Y-101019438D01*
X132848683Y-101019438D02*
X132812969Y-101171819D01*
X132812969Y-101171819D02*
X132777255Y-101248009D01*
X132777255Y-101248009D02*
X132705826Y-101324200D01*
X132705826Y-101324200D02*
X132598683Y-101362295D01*
X132598683Y-101362295D02*
X132420112Y-101362295D01*
X133170112Y-101362295D02*
X133170112Y-100562295D01*
X133170112Y-100562295D02*
X133348683Y-100562295D01*
X133348683Y-100562295D02*
X133455826Y-100600390D01*
X133455826Y-100600390D02*
X133527255Y-100676580D01*
X133527255Y-100676580D02*
X133562969Y-100752771D01*
X133562969Y-100752771D02*
X133598683Y-100905152D01*
X133598683Y-100905152D02*
X133598683Y-101019438D01*
X133598683Y-101019438D02*
X133562969Y-101171819D01*
X133562969Y-101171819D02*
X133527255Y-101248009D01*
X133527255Y-101248009D02*
X133455826Y-101324200D01*
X133455826Y-101324200D02*
X133348683Y-101362295D01*
X133348683Y-101362295D02*
X133170112Y-101362295D01*
X134705827Y-101667057D02*
X134670112Y-101628961D01*
X134670112Y-101628961D02*
X134598684Y-101514676D01*
X134598684Y-101514676D02*
X134562970Y-101438485D01*
X134562970Y-101438485D02*
X134527255Y-101324200D01*
X134527255Y-101324200D02*
X134491541Y-101133723D01*
X134491541Y-101133723D02*
X134491541Y-100981342D01*
X134491541Y-100981342D02*
X134527255Y-100790866D01*
X134527255Y-100790866D02*
X134562970Y-100676580D01*
X134562970Y-100676580D02*
X134598684Y-100600390D01*
X134598684Y-100600390D02*
X134670112Y-100486104D01*
X134670112Y-100486104D02*
X134705827Y-100448009D01*
X134955827Y-100638485D02*
X134991541Y-100600390D01*
X134991541Y-100600390D02*
X135062970Y-100562295D01*
X135062970Y-100562295D02*
X135241541Y-100562295D01*
X135241541Y-100562295D02*
X135312970Y-100600390D01*
X135312970Y-100600390D02*
X135348684Y-100638485D01*
X135348684Y-100638485D02*
X135384398Y-100714676D01*
X135384398Y-100714676D02*
X135384398Y-100790866D01*
X135384398Y-100790866D02*
X135348684Y-100905152D01*
X135348684Y-100905152D02*
X134920112Y-101362295D01*
X134920112Y-101362295D02*
X135384398Y-101362295D01*
X136098684Y-101362295D02*
X135670113Y-101362295D01*
X135884398Y-101362295D02*
X135884398Y-100562295D01*
X135884398Y-100562295D02*
X135812970Y-100676580D01*
X135812970Y-100676580D02*
X135741541Y-100752771D01*
X135741541Y-100752771D02*
X135670113Y-100790866D01*
X136348684Y-101667057D02*
X136384399Y-101628961D01*
X136384399Y-101628961D02*
X136455827Y-101514676D01*
X136455827Y-101514676D02*
X136491542Y-101438485D01*
X136491542Y-101438485D02*
X136527256Y-101324200D01*
X136527256Y-101324200D02*
X136562970Y-101133723D01*
X136562970Y-101133723D02*
X136562970Y-100981342D01*
X136562970Y-100981342D02*
X136527256Y-100790866D01*
X136527256Y-100790866D02*
X136491542Y-100676580D01*
X136491542Y-100676580D02*
X136455827Y-100600390D01*
X136455827Y-100600390D02*
X136384399Y-100486104D01*
X136384399Y-100486104D02*
X136348684Y-100448009D01*
X131777255Y-103862295D02*
X131777255Y-103062295D01*
X131777255Y-103062295D02*
X132062969Y-103062295D01*
X132062969Y-103062295D02*
X132134398Y-103100390D01*
X132134398Y-103100390D02*
X132170112Y-103138485D01*
X132170112Y-103138485D02*
X132205826Y-103214676D01*
X132205826Y-103214676D02*
X132205826Y-103328961D01*
X132205826Y-103328961D02*
X132170112Y-103405152D01*
X132170112Y-103405152D02*
X132134398Y-103443247D01*
X132134398Y-103443247D02*
X132062969Y-103481342D01*
X132062969Y-103481342D02*
X131777255Y-103481342D01*
X132777255Y-103443247D02*
X132884398Y-103481342D01*
X132884398Y-103481342D02*
X132920112Y-103519438D01*
X132920112Y-103519438D02*
X132955826Y-103595628D01*
X132955826Y-103595628D02*
X132955826Y-103709914D01*
X132955826Y-103709914D02*
X132920112Y-103786104D01*
X132920112Y-103786104D02*
X132884398Y-103824200D01*
X132884398Y-103824200D02*
X132812969Y-103862295D01*
X132812969Y-103862295D02*
X132527255Y-103862295D01*
X132527255Y-103862295D02*
X132527255Y-103062295D01*
X132527255Y-103062295D02*
X132777255Y-103062295D01*
X132777255Y-103062295D02*
X132848684Y-103100390D01*
X132848684Y-103100390D02*
X132884398Y-103138485D01*
X132884398Y-103138485D02*
X132920112Y-103214676D01*
X132920112Y-103214676D02*
X132920112Y-103290866D01*
X132920112Y-103290866D02*
X132884398Y-103367057D01*
X132884398Y-103367057D02*
X132848684Y-103405152D01*
X132848684Y-103405152D02*
X132777255Y-103443247D01*
X132777255Y-103443247D02*
X132527255Y-103443247D01*
X133670112Y-103862295D02*
X133241541Y-103862295D01*
X133455826Y-103862295D02*
X133455826Y-103062295D01*
X133455826Y-103062295D02*
X133384398Y-103176580D01*
X133384398Y-103176580D02*
X133312969Y-103252771D01*
X133312969Y-103252771D02*
X133241541Y-103290866D01*
X134134398Y-103062295D02*
X134205827Y-103062295D01*
X134205827Y-103062295D02*
X134277255Y-103100390D01*
X134277255Y-103100390D02*
X134312970Y-103138485D01*
X134312970Y-103138485D02*
X134348684Y-103214676D01*
X134348684Y-103214676D02*
X134384398Y-103367057D01*
X134384398Y-103367057D02*
X134384398Y-103557533D01*
X134384398Y-103557533D02*
X134348684Y-103709914D01*
X134348684Y-103709914D02*
X134312970Y-103786104D01*
X134312970Y-103786104D02*
X134277255Y-103824200D01*
X134277255Y-103824200D02*
X134205827Y-103862295D01*
X134205827Y-103862295D02*
X134134398Y-103862295D01*
X134134398Y-103862295D02*
X134062970Y-103824200D01*
X134062970Y-103824200D02*
X134027255Y-103786104D01*
X134027255Y-103786104D02*
X133991541Y-103709914D01*
X133991541Y-103709914D02*
X133955827Y-103557533D01*
X133955827Y-103557533D02*
X133955827Y-103367057D01*
X133955827Y-103367057D02*
X133991541Y-103214676D01*
X133991541Y-103214676D02*
X134027255Y-103138485D01*
X134027255Y-103138485D02*
X134062970Y-103100390D01*
X134062970Y-103100390D02*
X134134398Y-103062295D01*
X135491542Y-104167057D02*
X135455827Y-104128961D01*
X135455827Y-104128961D02*
X135384399Y-104014676D01*
X135384399Y-104014676D02*
X135348685Y-103938485D01*
X135348685Y-103938485D02*
X135312970Y-103824200D01*
X135312970Y-103824200D02*
X135277256Y-103633723D01*
X135277256Y-103633723D02*
X135277256Y-103481342D01*
X135277256Y-103481342D02*
X135312970Y-103290866D01*
X135312970Y-103290866D02*
X135348685Y-103176580D01*
X135348685Y-103176580D02*
X135384399Y-103100390D01*
X135384399Y-103100390D02*
X135455827Y-102986104D01*
X135455827Y-102986104D02*
X135491542Y-102948009D01*
X135741542Y-103138485D02*
X135777256Y-103100390D01*
X135777256Y-103100390D02*
X135848685Y-103062295D01*
X135848685Y-103062295D02*
X136027256Y-103062295D01*
X136027256Y-103062295D02*
X136098685Y-103100390D01*
X136098685Y-103100390D02*
X136134399Y-103138485D01*
X136134399Y-103138485D02*
X136170113Y-103214676D01*
X136170113Y-103214676D02*
X136170113Y-103290866D01*
X136170113Y-103290866D02*
X136134399Y-103405152D01*
X136134399Y-103405152D02*
X135705827Y-103862295D01*
X135705827Y-103862295D02*
X136170113Y-103862295D01*
X136455828Y-103138485D02*
X136491542Y-103100390D01*
X136491542Y-103100390D02*
X136562971Y-103062295D01*
X136562971Y-103062295D02*
X136741542Y-103062295D01*
X136741542Y-103062295D02*
X136812971Y-103100390D01*
X136812971Y-103100390D02*
X136848685Y-103138485D01*
X136848685Y-103138485D02*
X136884399Y-103214676D01*
X136884399Y-103214676D02*
X136884399Y-103290866D01*
X136884399Y-103290866D02*
X136848685Y-103405152D01*
X136848685Y-103405152D02*
X136420113Y-103862295D01*
X136420113Y-103862295D02*
X136884399Y-103862295D01*
X137134399Y-104167057D02*
X137170114Y-104128961D01*
X137170114Y-104128961D02*
X137241542Y-104014676D01*
X137241542Y-104014676D02*
X137277257Y-103938485D01*
X137277257Y-103938485D02*
X137312971Y-103824200D01*
X137312971Y-103824200D02*
X137348685Y-103633723D01*
X137348685Y-103633723D02*
X137348685Y-103481342D01*
X137348685Y-103481342D02*
X137312971Y-103290866D01*
X137312971Y-103290866D02*
X137277257Y-103176580D01*
X137277257Y-103176580D02*
X137241542Y-103100390D01*
X137241542Y-103100390D02*
X137170114Y-102986104D01*
X137170114Y-102986104D02*
X137134399Y-102948009D01*
X131670112Y-108062295D02*
X131920112Y-108862295D01*
X131920112Y-108862295D02*
X132170112Y-108062295D01*
X132420112Y-108862295D02*
X132420112Y-108062295D01*
X132420112Y-108062295D02*
X132598683Y-108062295D01*
X132598683Y-108062295D02*
X132705826Y-108100390D01*
X132705826Y-108100390D02*
X132777255Y-108176580D01*
X132777255Y-108176580D02*
X132812969Y-108252771D01*
X132812969Y-108252771D02*
X132848683Y-108405152D01*
X132848683Y-108405152D02*
X132848683Y-108519438D01*
X132848683Y-108519438D02*
X132812969Y-108671819D01*
X132812969Y-108671819D02*
X132777255Y-108748009D01*
X132777255Y-108748009D02*
X132705826Y-108824200D01*
X132705826Y-108824200D02*
X132598683Y-108862295D01*
X132598683Y-108862295D02*
X132420112Y-108862295D01*
X133170112Y-108862295D02*
X133170112Y-108062295D01*
X133170112Y-108062295D02*
X133348683Y-108062295D01*
X133348683Y-108062295D02*
X133455826Y-108100390D01*
X133455826Y-108100390D02*
X133527255Y-108176580D01*
X133527255Y-108176580D02*
X133562969Y-108252771D01*
X133562969Y-108252771D02*
X133598683Y-108405152D01*
X133598683Y-108405152D02*
X133598683Y-108519438D01*
X133598683Y-108519438D02*
X133562969Y-108671819D01*
X133562969Y-108671819D02*
X133527255Y-108748009D01*
X133527255Y-108748009D02*
X133455826Y-108824200D01*
X133455826Y-108824200D02*
X133348683Y-108862295D01*
X133348683Y-108862295D02*
X133170112Y-108862295D01*
X134705827Y-109167057D02*
X134670112Y-109128961D01*
X134670112Y-109128961D02*
X134598684Y-109014676D01*
X134598684Y-109014676D02*
X134562970Y-108938485D01*
X134562970Y-108938485D02*
X134527255Y-108824200D01*
X134527255Y-108824200D02*
X134491541Y-108633723D01*
X134491541Y-108633723D02*
X134491541Y-108481342D01*
X134491541Y-108481342D02*
X134527255Y-108290866D01*
X134527255Y-108290866D02*
X134562970Y-108176580D01*
X134562970Y-108176580D02*
X134598684Y-108100390D01*
X134598684Y-108100390D02*
X134670112Y-107986104D01*
X134670112Y-107986104D02*
X134705827Y-107948009D01*
X134955827Y-108138485D02*
X134991541Y-108100390D01*
X134991541Y-108100390D02*
X135062970Y-108062295D01*
X135062970Y-108062295D02*
X135241541Y-108062295D01*
X135241541Y-108062295D02*
X135312970Y-108100390D01*
X135312970Y-108100390D02*
X135348684Y-108138485D01*
X135348684Y-108138485D02*
X135384398Y-108214676D01*
X135384398Y-108214676D02*
X135384398Y-108290866D01*
X135384398Y-108290866D02*
X135348684Y-108405152D01*
X135348684Y-108405152D02*
X134920112Y-108862295D01*
X134920112Y-108862295D02*
X135384398Y-108862295D01*
X136027256Y-108328961D02*
X136027256Y-108862295D01*
X135848684Y-108024200D02*
X135670113Y-108595628D01*
X135670113Y-108595628D02*
X136134398Y-108595628D01*
X136348684Y-109167057D02*
X136384399Y-109128961D01*
X136384399Y-109128961D02*
X136455827Y-109014676D01*
X136455827Y-109014676D02*
X136491542Y-108938485D01*
X136491542Y-108938485D02*
X136527256Y-108824200D01*
X136527256Y-108824200D02*
X136562970Y-108633723D01*
X136562970Y-108633723D02*
X136562970Y-108481342D01*
X136562970Y-108481342D02*
X136527256Y-108290866D01*
X136527256Y-108290866D02*
X136491542Y-108176580D01*
X136491542Y-108176580D02*
X136455827Y-108100390D01*
X136455827Y-108100390D02*
X136384399Y-107986104D01*
X136384399Y-107986104D02*
X136348684Y-107948009D01*
X131777255Y-88362295D02*
X131777255Y-87562295D01*
X131777255Y-87562295D02*
X132062969Y-87562295D01*
X132062969Y-87562295D02*
X132134398Y-87600390D01*
X132134398Y-87600390D02*
X132170112Y-87638485D01*
X132170112Y-87638485D02*
X132205826Y-87714676D01*
X132205826Y-87714676D02*
X132205826Y-87828961D01*
X132205826Y-87828961D02*
X132170112Y-87905152D01*
X132170112Y-87905152D02*
X132134398Y-87943247D01*
X132134398Y-87943247D02*
X132062969Y-87981342D01*
X132062969Y-87981342D02*
X131777255Y-87981342D01*
X132777255Y-87943247D02*
X132884398Y-87981342D01*
X132884398Y-87981342D02*
X132920112Y-88019438D01*
X132920112Y-88019438D02*
X132955826Y-88095628D01*
X132955826Y-88095628D02*
X132955826Y-88209914D01*
X132955826Y-88209914D02*
X132920112Y-88286104D01*
X132920112Y-88286104D02*
X132884398Y-88324200D01*
X132884398Y-88324200D02*
X132812969Y-88362295D01*
X132812969Y-88362295D02*
X132527255Y-88362295D01*
X132527255Y-88362295D02*
X132527255Y-87562295D01*
X132527255Y-87562295D02*
X132777255Y-87562295D01*
X132777255Y-87562295D02*
X132848684Y-87600390D01*
X132848684Y-87600390D02*
X132884398Y-87638485D01*
X132884398Y-87638485D02*
X132920112Y-87714676D01*
X132920112Y-87714676D02*
X132920112Y-87790866D01*
X132920112Y-87790866D02*
X132884398Y-87867057D01*
X132884398Y-87867057D02*
X132848684Y-87905152D01*
X132848684Y-87905152D02*
X132777255Y-87943247D01*
X132777255Y-87943247D02*
X132527255Y-87943247D01*
X133420112Y-87562295D02*
X133491541Y-87562295D01*
X133491541Y-87562295D02*
X133562969Y-87600390D01*
X133562969Y-87600390D02*
X133598684Y-87638485D01*
X133598684Y-87638485D02*
X133634398Y-87714676D01*
X133634398Y-87714676D02*
X133670112Y-87867057D01*
X133670112Y-87867057D02*
X133670112Y-88057533D01*
X133670112Y-88057533D02*
X133634398Y-88209914D01*
X133634398Y-88209914D02*
X133598684Y-88286104D01*
X133598684Y-88286104D02*
X133562969Y-88324200D01*
X133562969Y-88324200D02*
X133491541Y-88362295D01*
X133491541Y-88362295D02*
X133420112Y-88362295D01*
X133420112Y-88362295D02*
X133348684Y-88324200D01*
X133348684Y-88324200D02*
X133312969Y-88286104D01*
X133312969Y-88286104D02*
X133277255Y-88209914D01*
X133277255Y-88209914D02*
X133241541Y-88057533D01*
X133241541Y-88057533D02*
X133241541Y-87867057D01*
X133241541Y-87867057D02*
X133277255Y-87714676D01*
X133277255Y-87714676D02*
X133312969Y-87638485D01*
X133312969Y-87638485D02*
X133348684Y-87600390D01*
X133348684Y-87600390D02*
X133420112Y-87562295D01*
X134777256Y-88667057D02*
X134741541Y-88628961D01*
X134741541Y-88628961D02*
X134670113Y-88514676D01*
X134670113Y-88514676D02*
X134634399Y-88438485D01*
X134634399Y-88438485D02*
X134598684Y-88324200D01*
X134598684Y-88324200D02*
X134562970Y-88133723D01*
X134562970Y-88133723D02*
X134562970Y-87981342D01*
X134562970Y-87981342D02*
X134598684Y-87790866D01*
X134598684Y-87790866D02*
X134634399Y-87676580D01*
X134634399Y-87676580D02*
X134670113Y-87600390D01*
X134670113Y-87600390D02*
X134741541Y-87486104D01*
X134741541Y-87486104D02*
X134777256Y-87448009D01*
X135455827Y-88362295D02*
X135027256Y-88362295D01*
X135241541Y-88362295D02*
X135241541Y-87562295D01*
X135241541Y-87562295D02*
X135170113Y-87676580D01*
X135170113Y-87676580D02*
X135098684Y-87752771D01*
X135098684Y-87752771D02*
X135027256Y-87790866D01*
X136098685Y-87562295D02*
X135955827Y-87562295D01*
X135955827Y-87562295D02*
X135884399Y-87600390D01*
X135884399Y-87600390D02*
X135848685Y-87638485D01*
X135848685Y-87638485D02*
X135777256Y-87752771D01*
X135777256Y-87752771D02*
X135741542Y-87905152D01*
X135741542Y-87905152D02*
X135741542Y-88209914D01*
X135741542Y-88209914D02*
X135777256Y-88286104D01*
X135777256Y-88286104D02*
X135812970Y-88324200D01*
X135812970Y-88324200D02*
X135884399Y-88362295D01*
X135884399Y-88362295D02*
X136027256Y-88362295D01*
X136027256Y-88362295D02*
X136098685Y-88324200D01*
X136098685Y-88324200D02*
X136134399Y-88286104D01*
X136134399Y-88286104D02*
X136170113Y-88209914D01*
X136170113Y-88209914D02*
X136170113Y-88019438D01*
X136170113Y-88019438D02*
X136134399Y-87943247D01*
X136134399Y-87943247D02*
X136098685Y-87905152D01*
X136098685Y-87905152D02*
X136027256Y-87867057D01*
X136027256Y-87867057D02*
X135884399Y-87867057D01*
X135884399Y-87867057D02*
X135812970Y-87905152D01*
X135812970Y-87905152D02*
X135777256Y-87943247D01*
X135777256Y-87943247D02*
X135741542Y-88019438D01*
X136420113Y-88667057D02*
X136455828Y-88628961D01*
X136455828Y-88628961D02*
X136527256Y-88514676D01*
X136527256Y-88514676D02*
X136562971Y-88438485D01*
X136562971Y-88438485D02*
X136598685Y-88324200D01*
X136598685Y-88324200D02*
X136634399Y-88133723D01*
X136634399Y-88133723D02*
X136634399Y-87981342D01*
X136634399Y-87981342D02*
X136598685Y-87790866D01*
X136598685Y-87790866D02*
X136562971Y-87676580D01*
X136562971Y-87676580D02*
X136527256Y-87600390D01*
X136527256Y-87600390D02*
X136455828Y-87486104D01*
X136455828Y-87486104D02*
X136420113Y-87448009D01*
X131777255Y-93362295D02*
X131777255Y-92562295D01*
X131777255Y-92562295D02*
X132062969Y-92562295D01*
X132062969Y-92562295D02*
X132134398Y-92600390D01*
X132134398Y-92600390D02*
X132170112Y-92638485D01*
X132170112Y-92638485D02*
X132205826Y-92714676D01*
X132205826Y-92714676D02*
X132205826Y-92828961D01*
X132205826Y-92828961D02*
X132170112Y-92905152D01*
X132170112Y-92905152D02*
X132134398Y-92943247D01*
X132134398Y-92943247D02*
X132062969Y-92981342D01*
X132062969Y-92981342D02*
X131777255Y-92981342D01*
X132777255Y-92943247D02*
X132884398Y-92981342D01*
X132884398Y-92981342D02*
X132920112Y-93019438D01*
X132920112Y-93019438D02*
X132955826Y-93095628D01*
X132955826Y-93095628D02*
X132955826Y-93209914D01*
X132955826Y-93209914D02*
X132920112Y-93286104D01*
X132920112Y-93286104D02*
X132884398Y-93324200D01*
X132884398Y-93324200D02*
X132812969Y-93362295D01*
X132812969Y-93362295D02*
X132527255Y-93362295D01*
X132527255Y-93362295D02*
X132527255Y-92562295D01*
X132527255Y-92562295D02*
X132777255Y-92562295D01*
X132777255Y-92562295D02*
X132848684Y-92600390D01*
X132848684Y-92600390D02*
X132884398Y-92638485D01*
X132884398Y-92638485D02*
X132920112Y-92714676D01*
X132920112Y-92714676D02*
X132920112Y-92790866D01*
X132920112Y-92790866D02*
X132884398Y-92867057D01*
X132884398Y-92867057D02*
X132848684Y-92905152D01*
X132848684Y-92905152D02*
X132777255Y-92943247D01*
X132777255Y-92943247D02*
X132527255Y-92943247D01*
X133241541Y-92638485D02*
X133277255Y-92600390D01*
X133277255Y-92600390D02*
X133348684Y-92562295D01*
X133348684Y-92562295D02*
X133527255Y-92562295D01*
X133527255Y-92562295D02*
X133598684Y-92600390D01*
X133598684Y-92600390D02*
X133634398Y-92638485D01*
X133634398Y-92638485D02*
X133670112Y-92714676D01*
X133670112Y-92714676D02*
X133670112Y-92790866D01*
X133670112Y-92790866D02*
X133634398Y-92905152D01*
X133634398Y-92905152D02*
X133205826Y-93362295D01*
X133205826Y-93362295D02*
X133670112Y-93362295D01*
X134777256Y-93667057D02*
X134741541Y-93628961D01*
X134741541Y-93628961D02*
X134670113Y-93514676D01*
X134670113Y-93514676D02*
X134634399Y-93438485D01*
X134634399Y-93438485D02*
X134598684Y-93324200D01*
X134598684Y-93324200D02*
X134562970Y-93133723D01*
X134562970Y-93133723D02*
X134562970Y-92981342D01*
X134562970Y-92981342D02*
X134598684Y-92790866D01*
X134598684Y-92790866D02*
X134634399Y-92676580D01*
X134634399Y-92676580D02*
X134670113Y-92600390D01*
X134670113Y-92600390D02*
X134741541Y-92486104D01*
X134741541Y-92486104D02*
X134777256Y-92448009D01*
X135455827Y-93362295D02*
X135027256Y-93362295D01*
X135241541Y-93362295D02*
X135241541Y-92562295D01*
X135241541Y-92562295D02*
X135170113Y-92676580D01*
X135170113Y-92676580D02*
X135098684Y-92752771D01*
X135098684Y-92752771D02*
X135027256Y-92790866D01*
X135884399Y-92905152D02*
X135812970Y-92867057D01*
X135812970Y-92867057D02*
X135777256Y-92828961D01*
X135777256Y-92828961D02*
X135741542Y-92752771D01*
X135741542Y-92752771D02*
X135741542Y-92714676D01*
X135741542Y-92714676D02*
X135777256Y-92638485D01*
X135777256Y-92638485D02*
X135812970Y-92600390D01*
X135812970Y-92600390D02*
X135884399Y-92562295D01*
X135884399Y-92562295D02*
X136027256Y-92562295D01*
X136027256Y-92562295D02*
X136098685Y-92600390D01*
X136098685Y-92600390D02*
X136134399Y-92638485D01*
X136134399Y-92638485D02*
X136170113Y-92714676D01*
X136170113Y-92714676D02*
X136170113Y-92752771D01*
X136170113Y-92752771D02*
X136134399Y-92828961D01*
X136134399Y-92828961D02*
X136098685Y-92867057D01*
X136098685Y-92867057D02*
X136027256Y-92905152D01*
X136027256Y-92905152D02*
X135884399Y-92905152D01*
X135884399Y-92905152D02*
X135812970Y-92943247D01*
X135812970Y-92943247D02*
X135777256Y-92981342D01*
X135777256Y-92981342D02*
X135741542Y-93057533D01*
X135741542Y-93057533D02*
X135741542Y-93209914D01*
X135741542Y-93209914D02*
X135777256Y-93286104D01*
X135777256Y-93286104D02*
X135812970Y-93324200D01*
X135812970Y-93324200D02*
X135884399Y-93362295D01*
X135884399Y-93362295D02*
X136027256Y-93362295D01*
X136027256Y-93362295D02*
X136098685Y-93324200D01*
X136098685Y-93324200D02*
X136134399Y-93286104D01*
X136134399Y-93286104D02*
X136170113Y-93209914D01*
X136170113Y-93209914D02*
X136170113Y-93057533D01*
X136170113Y-93057533D02*
X136134399Y-92981342D01*
X136134399Y-92981342D02*
X136098685Y-92943247D01*
X136098685Y-92943247D02*
X136027256Y-92905152D01*
X136420113Y-93667057D02*
X136455828Y-93628961D01*
X136455828Y-93628961D02*
X136527256Y-93514676D01*
X136527256Y-93514676D02*
X136562971Y-93438485D01*
X136562971Y-93438485D02*
X136598685Y-93324200D01*
X136598685Y-93324200D02*
X136634399Y-93133723D01*
X136634399Y-93133723D02*
X136634399Y-92981342D01*
X136634399Y-92981342D02*
X136598685Y-92790866D01*
X136598685Y-92790866D02*
X136562971Y-92676580D01*
X136562971Y-92676580D02*
X136527256Y-92600390D01*
X136527256Y-92600390D02*
X136455828Y-92486104D01*
X136455828Y-92486104D02*
X136420113Y-92448009D01*
X131670112Y-95062295D02*
X131920112Y-95862295D01*
X131920112Y-95862295D02*
X132170112Y-95062295D01*
X132384398Y-95824200D02*
X132491541Y-95862295D01*
X132491541Y-95862295D02*
X132670112Y-95862295D01*
X132670112Y-95862295D02*
X132741541Y-95824200D01*
X132741541Y-95824200D02*
X132777255Y-95786104D01*
X132777255Y-95786104D02*
X132812969Y-95709914D01*
X132812969Y-95709914D02*
X132812969Y-95633723D01*
X132812969Y-95633723D02*
X132777255Y-95557533D01*
X132777255Y-95557533D02*
X132741541Y-95519438D01*
X132741541Y-95519438D02*
X132670112Y-95481342D01*
X132670112Y-95481342D02*
X132527255Y-95443247D01*
X132527255Y-95443247D02*
X132455826Y-95405152D01*
X132455826Y-95405152D02*
X132420112Y-95367057D01*
X132420112Y-95367057D02*
X132384398Y-95290866D01*
X132384398Y-95290866D02*
X132384398Y-95214676D01*
X132384398Y-95214676D02*
X132420112Y-95138485D01*
X132420112Y-95138485D02*
X132455826Y-95100390D01*
X132455826Y-95100390D02*
X132527255Y-95062295D01*
X132527255Y-95062295D02*
X132705826Y-95062295D01*
X132705826Y-95062295D02*
X132812969Y-95100390D01*
X133098684Y-95824200D02*
X133205827Y-95862295D01*
X133205827Y-95862295D02*
X133384398Y-95862295D01*
X133384398Y-95862295D02*
X133455827Y-95824200D01*
X133455827Y-95824200D02*
X133491541Y-95786104D01*
X133491541Y-95786104D02*
X133527255Y-95709914D01*
X133527255Y-95709914D02*
X133527255Y-95633723D01*
X133527255Y-95633723D02*
X133491541Y-95557533D01*
X133491541Y-95557533D02*
X133455827Y-95519438D01*
X133455827Y-95519438D02*
X133384398Y-95481342D01*
X133384398Y-95481342D02*
X133241541Y-95443247D01*
X133241541Y-95443247D02*
X133170112Y-95405152D01*
X133170112Y-95405152D02*
X133134398Y-95367057D01*
X133134398Y-95367057D02*
X133098684Y-95290866D01*
X133098684Y-95290866D02*
X133098684Y-95214676D01*
X133098684Y-95214676D02*
X133134398Y-95138485D01*
X133134398Y-95138485D02*
X133170112Y-95100390D01*
X133170112Y-95100390D02*
X133241541Y-95062295D01*
X133241541Y-95062295D02*
X133420112Y-95062295D01*
X133420112Y-95062295D02*
X133527255Y-95100390D01*
X134634399Y-96167057D02*
X134598684Y-96128961D01*
X134598684Y-96128961D02*
X134527256Y-96014676D01*
X134527256Y-96014676D02*
X134491542Y-95938485D01*
X134491542Y-95938485D02*
X134455827Y-95824200D01*
X134455827Y-95824200D02*
X134420113Y-95633723D01*
X134420113Y-95633723D02*
X134420113Y-95481342D01*
X134420113Y-95481342D02*
X134455827Y-95290866D01*
X134455827Y-95290866D02*
X134491542Y-95176580D01*
X134491542Y-95176580D02*
X134527256Y-95100390D01*
X134527256Y-95100390D02*
X134598684Y-94986104D01*
X134598684Y-94986104D02*
X134634399Y-94948009D01*
X135312970Y-95862295D02*
X134884399Y-95862295D01*
X135098684Y-95862295D02*
X135098684Y-95062295D01*
X135098684Y-95062295D02*
X135027256Y-95176580D01*
X135027256Y-95176580D02*
X134955827Y-95252771D01*
X134955827Y-95252771D02*
X134884399Y-95290866D01*
X135670113Y-95862295D02*
X135812970Y-95862295D01*
X135812970Y-95862295D02*
X135884399Y-95824200D01*
X135884399Y-95824200D02*
X135920113Y-95786104D01*
X135920113Y-95786104D02*
X135991542Y-95671819D01*
X135991542Y-95671819D02*
X136027256Y-95519438D01*
X136027256Y-95519438D02*
X136027256Y-95214676D01*
X136027256Y-95214676D02*
X135991542Y-95138485D01*
X135991542Y-95138485D02*
X135955828Y-95100390D01*
X135955828Y-95100390D02*
X135884399Y-95062295D01*
X135884399Y-95062295D02*
X135741542Y-95062295D01*
X135741542Y-95062295D02*
X135670113Y-95100390D01*
X135670113Y-95100390D02*
X135634399Y-95138485D01*
X135634399Y-95138485D02*
X135598685Y-95214676D01*
X135598685Y-95214676D02*
X135598685Y-95405152D01*
X135598685Y-95405152D02*
X135634399Y-95481342D01*
X135634399Y-95481342D02*
X135670113Y-95519438D01*
X135670113Y-95519438D02*
X135741542Y-95557533D01*
X135741542Y-95557533D02*
X135884399Y-95557533D01*
X135884399Y-95557533D02*
X135955828Y-95519438D01*
X135955828Y-95519438D02*
X135991542Y-95481342D01*
X135991542Y-95481342D02*
X136027256Y-95405152D01*
X136277256Y-96167057D02*
X136312971Y-96128961D01*
X136312971Y-96128961D02*
X136384399Y-96014676D01*
X136384399Y-96014676D02*
X136420114Y-95938485D01*
X136420114Y-95938485D02*
X136455828Y-95824200D01*
X136455828Y-95824200D02*
X136491542Y-95633723D01*
X136491542Y-95633723D02*
X136491542Y-95481342D01*
X136491542Y-95481342D02*
X136455828Y-95290866D01*
X136455828Y-95290866D02*
X136420114Y-95176580D01*
X136420114Y-95176580D02*
X136384399Y-95100390D01*
X136384399Y-95100390D02*
X136312971Y-94986104D01*
X136312971Y-94986104D02*
X136277256Y-94948009D01*
X131777255Y-90862295D02*
X131777255Y-90062295D01*
X131777255Y-90062295D02*
X132062969Y-90062295D01*
X132062969Y-90062295D02*
X132134398Y-90100390D01*
X132134398Y-90100390D02*
X132170112Y-90138485D01*
X132170112Y-90138485D02*
X132205826Y-90214676D01*
X132205826Y-90214676D02*
X132205826Y-90328961D01*
X132205826Y-90328961D02*
X132170112Y-90405152D01*
X132170112Y-90405152D02*
X132134398Y-90443247D01*
X132134398Y-90443247D02*
X132062969Y-90481342D01*
X132062969Y-90481342D02*
X131777255Y-90481342D01*
X132777255Y-90443247D02*
X132884398Y-90481342D01*
X132884398Y-90481342D02*
X132920112Y-90519438D01*
X132920112Y-90519438D02*
X132955826Y-90595628D01*
X132955826Y-90595628D02*
X132955826Y-90709914D01*
X132955826Y-90709914D02*
X132920112Y-90786104D01*
X132920112Y-90786104D02*
X132884398Y-90824200D01*
X132884398Y-90824200D02*
X132812969Y-90862295D01*
X132812969Y-90862295D02*
X132527255Y-90862295D01*
X132527255Y-90862295D02*
X132527255Y-90062295D01*
X132527255Y-90062295D02*
X132777255Y-90062295D01*
X132777255Y-90062295D02*
X132848684Y-90100390D01*
X132848684Y-90100390D02*
X132884398Y-90138485D01*
X132884398Y-90138485D02*
X132920112Y-90214676D01*
X132920112Y-90214676D02*
X132920112Y-90290866D01*
X132920112Y-90290866D02*
X132884398Y-90367057D01*
X132884398Y-90367057D02*
X132848684Y-90405152D01*
X132848684Y-90405152D02*
X132777255Y-90443247D01*
X132777255Y-90443247D02*
X132527255Y-90443247D01*
X133670112Y-90862295D02*
X133241541Y-90862295D01*
X133455826Y-90862295D02*
X133455826Y-90062295D01*
X133455826Y-90062295D02*
X133384398Y-90176580D01*
X133384398Y-90176580D02*
X133312969Y-90252771D01*
X133312969Y-90252771D02*
X133241541Y-90290866D01*
X134777256Y-91167057D02*
X134741541Y-91128961D01*
X134741541Y-91128961D02*
X134670113Y-91014676D01*
X134670113Y-91014676D02*
X134634399Y-90938485D01*
X134634399Y-90938485D02*
X134598684Y-90824200D01*
X134598684Y-90824200D02*
X134562970Y-90633723D01*
X134562970Y-90633723D02*
X134562970Y-90481342D01*
X134562970Y-90481342D02*
X134598684Y-90290866D01*
X134598684Y-90290866D02*
X134634399Y-90176580D01*
X134634399Y-90176580D02*
X134670113Y-90100390D01*
X134670113Y-90100390D02*
X134741541Y-89986104D01*
X134741541Y-89986104D02*
X134777256Y-89948009D01*
X135455827Y-90862295D02*
X135027256Y-90862295D01*
X135241541Y-90862295D02*
X135241541Y-90062295D01*
X135241541Y-90062295D02*
X135170113Y-90176580D01*
X135170113Y-90176580D02*
X135098684Y-90252771D01*
X135098684Y-90252771D02*
X135027256Y-90290866D01*
X135705827Y-90062295D02*
X136205827Y-90062295D01*
X136205827Y-90062295D02*
X135884399Y-90862295D01*
X136420113Y-91167057D02*
X136455828Y-91128961D01*
X136455828Y-91128961D02*
X136527256Y-91014676D01*
X136527256Y-91014676D02*
X136562971Y-90938485D01*
X136562971Y-90938485D02*
X136598685Y-90824200D01*
X136598685Y-90824200D02*
X136634399Y-90633723D01*
X136634399Y-90633723D02*
X136634399Y-90481342D01*
X136634399Y-90481342D02*
X136598685Y-90290866D01*
X136598685Y-90290866D02*
X136562971Y-90176580D01*
X136562971Y-90176580D02*
X136527256Y-90100390D01*
X136527256Y-90100390D02*
X136455828Y-89986104D01*
X136455828Y-89986104D02*
X136420113Y-89948009D01*
X131670112Y-97812295D02*
X131920112Y-98612295D01*
X131920112Y-98612295D02*
X132170112Y-97812295D01*
X132848683Y-98612295D02*
X132598683Y-98231342D01*
X132420112Y-98612295D02*
X132420112Y-97812295D01*
X132420112Y-97812295D02*
X132705826Y-97812295D01*
X132705826Y-97812295D02*
X132777255Y-97850390D01*
X132777255Y-97850390D02*
X132812969Y-97888485D01*
X132812969Y-97888485D02*
X132848683Y-97964676D01*
X132848683Y-97964676D02*
X132848683Y-98078961D01*
X132848683Y-98078961D02*
X132812969Y-98155152D01*
X132812969Y-98155152D02*
X132777255Y-98193247D01*
X132777255Y-98193247D02*
X132705826Y-98231342D01*
X132705826Y-98231342D02*
X132420112Y-98231342D01*
X133170112Y-98193247D02*
X133420112Y-98193247D01*
X133527255Y-98612295D02*
X133170112Y-98612295D01*
X133170112Y-98612295D02*
X133170112Y-97812295D01*
X133170112Y-97812295D02*
X133527255Y-97812295D01*
X134098683Y-98193247D02*
X133848683Y-98193247D01*
X133848683Y-98612295D02*
X133848683Y-97812295D01*
X133848683Y-97812295D02*
X134205826Y-97812295D01*
X134491540Y-98307533D02*
X135062969Y-98307533D01*
X134777254Y-98612295D02*
X134777254Y-98002771D01*
X136205826Y-98917057D02*
X136170111Y-98878961D01*
X136170111Y-98878961D02*
X136098683Y-98764676D01*
X136098683Y-98764676D02*
X136062969Y-98688485D01*
X136062969Y-98688485D02*
X136027254Y-98574200D01*
X136027254Y-98574200D02*
X135991540Y-98383723D01*
X135991540Y-98383723D02*
X135991540Y-98231342D01*
X135991540Y-98231342D02*
X136027254Y-98040866D01*
X136027254Y-98040866D02*
X136062969Y-97926580D01*
X136062969Y-97926580D02*
X136098683Y-97850390D01*
X136098683Y-97850390D02*
X136170111Y-97736104D01*
X136170111Y-97736104D02*
X136205826Y-97698009D01*
X136455826Y-97888485D02*
X136491540Y-97850390D01*
X136491540Y-97850390D02*
X136562969Y-97812295D01*
X136562969Y-97812295D02*
X136741540Y-97812295D01*
X136741540Y-97812295D02*
X136812969Y-97850390D01*
X136812969Y-97850390D02*
X136848683Y-97888485D01*
X136848683Y-97888485D02*
X136884397Y-97964676D01*
X136884397Y-97964676D02*
X136884397Y-98040866D01*
X136884397Y-98040866D02*
X136848683Y-98155152D01*
X136848683Y-98155152D02*
X136420111Y-98612295D01*
X136420111Y-98612295D02*
X136884397Y-98612295D01*
X137348683Y-97812295D02*
X137420112Y-97812295D01*
X137420112Y-97812295D02*
X137491540Y-97850390D01*
X137491540Y-97850390D02*
X137527255Y-97888485D01*
X137527255Y-97888485D02*
X137562969Y-97964676D01*
X137562969Y-97964676D02*
X137598683Y-98117057D01*
X137598683Y-98117057D02*
X137598683Y-98307533D01*
X137598683Y-98307533D02*
X137562969Y-98459914D01*
X137562969Y-98459914D02*
X137527255Y-98536104D01*
X137527255Y-98536104D02*
X137491540Y-98574200D01*
X137491540Y-98574200D02*
X137420112Y-98612295D01*
X137420112Y-98612295D02*
X137348683Y-98612295D01*
X137348683Y-98612295D02*
X137277255Y-98574200D01*
X137277255Y-98574200D02*
X137241540Y-98536104D01*
X137241540Y-98536104D02*
X137205826Y-98459914D01*
X137205826Y-98459914D02*
X137170112Y-98307533D01*
X137170112Y-98307533D02*
X137170112Y-98117057D01*
X137170112Y-98117057D02*
X137205826Y-97964676D01*
X137205826Y-97964676D02*
X137241540Y-97888485D01*
X137241540Y-97888485D02*
X137277255Y-97850390D01*
X137277255Y-97850390D02*
X137348683Y-97812295D01*
X137848683Y-98917057D02*
X137884398Y-98878961D01*
X137884398Y-98878961D02*
X137955826Y-98764676D01*
X137955826Y-98764676D02*
X137991541Y-98688485D01*
X137991541Y-98688485D02*
X138027255Y-98574200D01*
X138027255Y-98574200D02*
X138062969Y-98383723D01*
X138062969Y-98383723D02*
X138062969Y-98231342D01*
X138062969Y-98231342D02*
X138027255Y-98040866D01*
X138027255Y-98040866D02*
X137991541Y-97926580D01*
X137991541Y-97926580D02*
X137955826Y-97850390D01*
X137955826Y-97850390D02*
X137884398Y-97736104D01*
X137884398Y-97736104D02*
X137848683Y-97698009D01*
X131777255Y-75612295D02*
X131777255Y-74812295D01*
X131777255Y-74812295D02*
X132062969Y-74812295D01*
X132062969Y-74812295D02*
X132134398Y-74850390D01*
X132134398Y-74850390D02*
X132170112Y-74888485D01*
X132170112Y-74888485D02*
X132205826Y-74964676D01*
X132205826Y-74964676D02*
X132205826Y-75078961D01*
X132205826Y-75078961D02*
X132170112Y-75155152D01*
X132170112Y-75155152D02*
X132134398Y-75193247D01*
X132134398Y-75193247D02*
X132062969Y-75231342D01*
X132062969Y-75231342D02*
X131777255Y-75231342D01*
X132491541Y-75383723D02*
X132848684Y-75383723D01*
X132420112Y-75612295D02*
X132670112Y-74812295D01*
X132670112Y-74812295D02*
X132920112Y-75612295D01*
X133098683Y-74812295D02*
X133562969Y-74812295D01*
X133562969Y-74812295D02*
X133312969Y-75117057D01*
X133312969Y-75117057D02*
X133420112Y-75117057D01*
X133420112Y-75117057D02*
X133491541Y-75155152D01*
X133491541Y-75155152D02*
X133527255Y-75193247D01*
X133527255Y-75193247D02*
X133562969Y-75269438D01*
X133562969Y-75269438D02*
X133562969Y-75459914D01*
X133562969Y-75459914D02*
X133527255Y-75536104D01*
X133527255Y-75536104D02*
X133491541Y-75574200D01*
X133491541Y-75574200D02*
X133420112Y-75612295D01*
X133420112Y-75612295D02*
X133205826Y-75612295D01*
X133205826Y-75612295D02*
X133134398Y-75574200D01*
X133134398Y-75574200D02*
X133098683Y-75536104D01*
X131777255Y-85862295D02*
X131777255Y-85062295D01*
X131777255Y-85062295D02*
X132062969Y-85062295D01*
X132062969Y-85062295D02*
X132134398Y-85100390D01*
X132134398Y-85100390D02*
X132170112Y-85138485D01*
X132170112Y-85138485D02*
X132205826Y-85214676D01*
X132205826Y-85214676D02*
X132205826Y-85328961D01*
X132205826Y-85328961D02*
X132170112Y-85405152D01*
X132170112Y-85405152D02*
X132134398Y-85443247D01*
X132134398Y-85443247D02*
X132062969Y-85481342D01*
X132062969Y-85481342D02*
X131777255Y-85481342D01*
X132491541Y-85633723D02*
X132848684Y-85633723D01*
X132420112Y-85862295D02*
X132670112Y-85062295D01*
X132670112Y-85062295D02*
X132920112Y-85862295D01*
X133098683Y-85062295D02*
X133598683Y-85062295D01*
X133598683Y-85062295D02*
X133277255Y-85862295D01*
X134670113Y-86167057D02*
X134634398Y-86128961D01*
X134634398Y-86128961D02*
X134562970Y-86014676D01*
X134562970Y-86014676D02*
X134527256Y-85938485D01*
X134527256Y-85938485D02*
X134491541Y-85824200D01*
X134491541Y-85824200D02*
X134455827Y-85633723D01*
X134455827Y-85633723D02*
X134455827Y-85481342D01*
X134455827Y-85481342D02*
X134491541Y-85290866D01*
X134491541Y-85290866D02*
X134527256Y-85176580D01*
X134527256Y-85176580D02*
X134562970Y-85100390D01*
X134562970Y-85100390D02*
X134634398Y-84986104D01*
X134634398Y-84986104D02*
X134670113Y-84948009D01*
X135348684Y-85862295D02*
X134920113Y-85862295D01*
X135134398Y-85862295D02*
X135134398Y-85062295D01*
X135134398Y-85062295D02*
X135062970Y-85176580D01*
X135062970Y-85176580D02*
X134991541Y-85252771D01*
X134991541Y-85252771D02*
X134920113Y-85290866D01*
X136027256Y-85062295D02*
X135670113Y-85062295D01*
X135670113Y-85062295D02*
X135634399Y-85443247D01*
X135634399Y-85443247D02*
X135670113Y-85405152D01*
X135670113Y-85405152D02*
X135741542Y-85367057D01*
X135741542Y-85367057D02*
X135920113Y-85367057D01*
X135920113Y-85367057D02*
X135991542Y-85405152D01*
X135991542Y-85405152D02*
X136027256Y-85443247D01*
X136027256Y-85443247D02*
X136062970Y-85519438D01*
X136062970Y-85519438D02*
X136062970Y-85709914D01*
X136062970Y-85709914D02*
X136027256Y-85786104D01*
X136027256Y-85786104D02*
X135991542Y-85824200D01*
X135991542Y-85824200D02*
X135920113Y-85862295D01*
X135920113Y-85862295D02*
X135741542Y-85862295D01*
X135741542Y-85862295D02*
X135670113Y-85824200D01*
X135670113Y-85824200D02*
X135634399Y-85786104D01*
X136312970Y-86167057D02*
X136348685Y-86128961D01*
X136348685Y-86128961D02*
X136420113Y-86014676D01*
X136420113Y-86014676D02*
X136455828Y-85938485D01*
X136455828Y-85938485D02*
X136491542Y-85824200D01*
X136491542Y-85824200D02*
X136527256Y-85633723D01*
X136527256Y-85633723D02*
X136527256Y-85481342D01*
X136527256Y-85481342D02*
X136491542Y-85290866D01*
X136491542Y-85290866D02*
X136455828Y-85176580D01*
X136455828Y-85176580D02*
X136420113Y-85100390D01*
X136420113Y-85100390D02*
X136348685Y-84986104D01*
X136348685Y-84986104D02*
X136312970Y-84948009D01*
X131777255Y-83112295D02*
X131777255Y-82312295D01*
X131777255Y-82312295D02*
X132062969Y-82312295D01*
X132062969Y-82312295D02*
X132134398Y-82350390D01*
X132134398Y-82350390D02*
X132170112Y-82388485D01*
X132170112Y-82388485D02*
X132205826Y-82464676D01*
X132205826Y-82464676D02*
X132205826Y-82578961D01*
X132205826Y-82578961D02*
X132170112Y-82655152D01*
X132170112Y-82655152D02*
X132134398Y-82693247D01*
X132134398Y-82693247D02*
X132062969Y-82731342D01*
X132062969Y-82731342D02*
X131777255Y-82731342D01*
X132491541Y-82883723D02*
X132848684Y-82883723D01*
X132420112Y-83112295D02*
X132670112Y-82312295D01*
X132670112Y-82312295D02*
X132920112Y-83112295D01*
X133491541Y-82312295D02*
X133348683Y-82312295D01*
X133348683Y-82312295D02*
X133277255Y-82350390D01*
X133277255Y-82350390D02*
X133241541Y-82388485D01*
X133241541Y-82388485D02*
X133170112Y-82502771D01*
X133170112Y-82502771D02*
X133134398Y-82655152D01*
X133134398Y-82655152D02*
X133134398Y-82959914D01*
X133134398Y-82959914D02*
X133170112Y-83036104D01*
X133170112Y-83036104D02*
X133205826Y-83074200D01*
X133205826Y-83074200D02*
X133277255Y-83112295D01*
X133277255Y-83112295D02*
X133420112Y-83112295D01*
X133420112Y-83112295D02*
X133491541Y-83074200D01*
X133491541Y-83074200D02*
X133527255Y-83036104D01*
X133527255Y-83036104D02*
X133562969Y-82959914D01*
X133562969Y-82959914D02*
X133562969Y-82769438D01*
X133562969Y-82769438D02*
X133527255Y-82693247D01*
X133527255Y-82693247D02*
X133491541Y-82655152D01*
X133491541Y-82655152D02*
X133420112Y-82617057D01*
X133420112Y-82617057D02*
X133277255Y-82617057D01*
X133277255Y-82617057D02*
X133205826Y-82655152D01*
X133205826Y-82655152D02*
X133170112Y-82693247D01*
X133170112Y-82693247D02*
X133134398Y-82769438D01*
X131777255Y-78112295D02*
X131777255Y-77312295D01*
X131777255Y-77312295D02*
X132062969Y-77312295D01*
X132062969Y-77312295D02*
X132134398Y-77350390D01*
X132134398Y-77350390D02*
X132170112Y-77388485D01*
X132170112Y-77388485D02*
X132205826Y-77464676D01*
X132205826Y-77464676D02*
X132205826Y-77578961D01*
X132205826Y-77578961D02*
X132170112Y-77655152D01*
X132170112Y-77655152D02*
X132134398Y-77693247D01*
X132134398Y-77693247D02*
X132062969Y-77731342D01*
X132062969Y-77731342D02*
X131777255Y-77731342D01*
X132491541Y-77883723D02*
X132848684Y-77883723D01*
X132420112Y-78112295D02*
X132670112Y-77312295D01*
X132670112Y-77312295D02*
X132920112Y-78112295D01*
X133491541Y-77578961D02*
X133491541Y-78112295D01*
X133312969Y-77274200D02*
X133134398Y-77845628D01*
X133134398Y-77845628D02*
X133598683Y-77845628D01*
X131777255Y-80612295D02*
X131777255Y-79812295D01*
X131777255Y-79812295D02*
X132062969Y-79812295D01*
X132062969Y-79812295D02*
X132134398Y-79850390D01*
X132134398Y-79850390D02*
X132170112Y-79888485D01*
X132170112Y-79888485D02*
X132205826Y-79964676D01*
X132205826Y-79964676D02*
X132205826Y-80078961D01*
X132205826Y-80078961D02*
X132170112Y-80155152D01*
X132170112Y-80155152D02*
X132134398Y-80193247D01*
X132134398Y-80193247D02*
X132062969Y-80231342D01*
X132062969Y-80231342D02*
X131777255Y-80231342D01*
X132491541Y-80383723D02*
X132848684Y-80383723D01*
X132420112Y-80612295D02*
X132670112Y-79812295D01*
X132670112Y-79812295D02*
X132920112Y-80612295D01*
X133527255Y-79812295D02*
X133170112Y-79812295D01*
X133170112Y-79812295D02*
X133134398Y-80193247D01*
X133134398Y-80193247D02*
X133170112Y-80155152D01*
X133170112Y-80155152D02*
X133241541Y-80117057D01*
X133241541Y-80117057D02*
X133420112Y-80117057D01*
X133420112Y-80117057D02*
X133491541Y-80155152D01*
X133491541Y-80155152D02*
X133527255Y-80193247D01*
X133527255Y-80193247D02*
X133562969Y-80269438D01*
X133562969Y-80269438D02*
X133562969Y-80459914D01*
X133562969Y-80459914D02*
X133527255Y-80536104D01*
X133527255Y-80536104D02*
X133491541Y-80574200D01*
X133491541Y-80574200D02*
X133420112Y-80612295D01*
X133420112Y-80612295D02*
X133241541Y-80612295D01*
X133241541Y-80612295D02*
X133170112Y-80574200D01*
X133170112Y-80574200D02*
X133134398Y-80536104D01*
X131777255Y-63112295D02*
X131777255Y-62312295D01*
X131777255Y-62312295D02*
X132062969Y-62312295D01*
X132062969Y-62312295D02*
X132134398Y-62350390D01*
X132134398Y-62350390D02*
X132170112Y-62388485D01*
X132170112Y-62388485D02*
X132205826Y-62464676D01*
X132205826Y-62464676D02*
X132205826Y-62578961D01*
X132205826Y-62578961D02*
X132170112Y-62655152D01*
X132170112Y-62655152D02*
X132134398Y-62693247D01*
X132134398Y-62693247D02*
X132062969Y-62731342D01*
X132062969Y-62731342D02*
X131777255Y-62731342D01*
X132777255Y-62693247D02*
X132527255Y-62693247D01*
X132527255Y-63112295D02*
X132527255Y-62312295D01*
X132527255Y-62312295D02*
X132884398Y-62312295D01*
X133562969Y-63112295D02*
X133134398Y-63112295D01*
X133348683Y-63112295D02*
X133348683Y-62312295D01*
X133348683Y-62312295D02*
X133277255Y-62426580D01*
X133277255Y-62426580D02*
X133205826Y-62502771D01*
X133205826Y-62502771D02*
X133134398Y-62540866D01*
X134670113Y-63417057D02*
X134634398Y-63378961D01*
X134634398Y-63378961D02*
X134562970Y-63264676D01*
X134562970Y-63264676D02*
X134527256Y-63188485D01*
X134527256Y-63188485D02*
X134491541Y-63074200D01*
X134491541Y-63074200D02*
X134455827Y-62883723D01*
X134455827Y-62883723D02*
X134455827Y-62731342D01*
X134455827Y-62731342D02*
X134491541Y-62540866D01*
X134491541Y-62540866D02*
X134527256Y-62426580D01*
X134527256Y-62426580D02*
X134562970Y-62350390D01*
X134562970Y-62350390D02*
X134634398Y-62236104D01*
X134634398Y-62236104D02*
X134670113Y-62198009D01*
X135277256Y-62312295D02*
X135134398Y-62312295D01*
X135134398Y-62312295D02*
X135062970Y-62350390D01*
X135062970Y-62350390D02*
X135027256Y-62388485D01*
X135027256Y-62388485D02*
X134955827Y-62502771D01*
X134955827Y-62502771D02*
X134920113Y-62655152D01*
X134920113Y-62655152D02*
X134920113Y-62959914D01*
X134920113Y-62959914D02*
X134955827Y-63036104D01*
X134955827Y-63036104D02*
X134991541Y-63074200D01*
X134991541Y-63074200D02*
X135062970Y-63112295D01*
X135062970Y-63112295D02*
X135205827Y-63112295D01*
X135205827Y-63112295D02*
X135277256Y-63074200D01*
X135277256Y-63074200D02*
X135312970Y-63036104D01*
X135312970Y-63036104D02*
X135348684Y-62959914D01*
X135348684Y-62959914D02*
X135348684Y-62769438D01*
X135348684Y-62769438D02*
X135312970Y-62693247D01*
X135312970Y-62693247D02*
X135277256Y-62655152D01*
X135277256Y-62655152D02*
X135205827Y-62617057D01*
X135205827Y-62617057D02*
X135062970Y-62617057D01*
X135062970Y-62617057D02*
X134991541Y-62655152D01*
X134991541Y-62655152D02*
X134955827Y-62693247D01*
X134955827Y-62693247D02*
X134920113Y-62769438D01*
X135598684Y-63417057D02*
X135634399Y-63378961D01*
X135634399Y-63378961D02*
X135705827Y-63264676D01*
X135705827Y-63264676D02*
X135741542Y-63188485D01*
X135741542Y-63188485D02*
X135777256Y-63074200D01*
X135777256Y-63074200D02*
X135812970Y-62883723D01*
X135812970Y-62883723D02*
X135812970Y-62731342D01*
X135812970Y-62731342D02*
X135777256Y-62540866D01*
X135777256Y-62540866D02*
X135741542Y-62426580D01*
X135741542Y-62426580D02*
X135705827Y-62350390D01*
X135705827Y-62350390D02*
X135634399Y-62236104D01*
X135634399Y-62236104D02*
X135598684Y-62198009D01*
X131777255Y-70612295D02*
X131777255Y-69812295D01*
X131777255Y-69812295D02*
X132062969Y-69812295D01*
X132062969Y-69812295D02*
X132134398Y-69850390D01*
X132134398Y-69850390D02*
X132170112Y-69888485D01*
X132170112Y-69888485D02*
X132205826Y-69964676D01*
X132205826Y-69964676D02*
X132205826Y-70078961D01*
X132205826Y-70078961D02*
X132170112Y-70155152D01*
X132170112Y-70155152D02*
X132134398Y-70193247D01*
X132134398Y-70193247D02*
X132062969Y-70231342D01*
X132062969Y-70231342D02*
X131777255Y-70231342D01*
X132491541Y-70383723D02*
X132848684Y-70383723D01*
X132420112Y-70612295D02*
X132670112Y-69812295D01*
X132670112Y-69812295D02*
X132920112Y-70612295D01*
X133562969Y-70612295D02*
X133134398Y-70612295D01*
X133348683Y-70612295D02*
X133348683Y-69812295D01*
X133348683Y-69812295D02*
X133277255Y-69926580D01*
X133277255Y-69926580D02*
X133205826Y-70002771D01*
X133205826Y-70002771D02*
X133134398Y-70040866D01*
X134670113Y-70917057D02*
X134634398Y-70878961D01*
X134634398Y-70878961D02*
X134562970Y-70764676D01*
X134562970Y-70764676D02*
X134527256Y-70688485D01*
X134527256Y-70688485D02*
X134491541Y-70574200D01*
X134491541Y-70574200D02*
X134455827Y-70383723D01*
X134455827Y-70383723D02*
X134455827Y-70231342D01*
X134455827Y-70231342D02*
X134491541Y-70040866D01*
X134491541Y-70040866D02*
X134527256Y-69926580D01*
X134527256Y-69926580D02*
X134562970Y-69850390D01*
X134562970Y-69850390D02*
X134634398Y-69736104D01*
X134634398Y-69736104D02*
X134670113Y-69698009D01*
X134991541Y-70612295D02*
X135134398Y-70612295D01*
X135134398Y-70612295D02*
X135205827Y-70574200D01*
X135205827Y-70574200D02*
X135241541Y-70536104D01*
X135241541Y-70536104D02*
X135312970Y-70421819D01*
X135312970Y-70421819D02*
X135348684Y-70269438D01*
X135348684Y-70269438D02*
X135348684Y-69964676D01*
X135348684Y-69964676D02*
X135312970Y-69888485D01*
X135312970Y-69888485D02*
X135277256Y-69850390D01*
X135277256Y-69850390D02*
X135205827Y-69812295D01*
X135205827Y-69812295D02*
X135062970Y-69812295D01*
X135062970Y-69812295D02*
X134991541Y-69850390D01*
X134991541Y-69850390D02*
X134955827Y-69888485D01*
X134955827Y-69888485D02*
X134920113Y-69964676D01*
X134920113Y-69964676D02*
X134920113Y-70155152D01*
X134920113Y-70155152D02*
X134955827Y-70231342D01*
X134955827Y-70231342D02*
X134991541Y-70269438D01*
X134991541Y-70269438D02*
X135062970Y-70307533D01*
X135062970Y-70307533D02*
X135205827Y-70307533D01*
X135205827Y-70307533D02*
X135277256Y-70269438D01*
X135277256Y-70269438D02*
X135312970Y-70231342D01*
X135312970Y-70231342D02*
X135348684Y-70155152D01*
X135598684Y-70917057D02*
X135634399Y-70878961D01*
X135634399Y-70878961D02*
X135705827Y-70764676D01*
X135705827Y-70764676D02*
X135741542Y-70688485D01*
X135741542Y-70688485D02*
X135777256Y-70574200D01*
X135777256Y-70574200D02*
X135812970Y-70383723D01*
X135812970Y-70383723D02*
X135812970Y-70231342D01*
X135812970Y-70231342D02*
X135777256Y-70040866D01*
X135777256Y-70040866D02*
X135741542Y-69926580D01*
X135741542Y-69926580D02*
X135705827Y-69850390D01*
X135705827Y-69850390D02*
X135634399Y-69736104D01*
X135634399Y-69736104D02*
X135598684Y-69698009D01*
X131777255Y-73362295D02*
X131777255Y-72562295D01*
X131777255Y-72562295D02*
X132062969Y-72562295D01*
X132062969Y-72562295D02*
X132134398Y-72600390D01*
X132134398Y-72600390D02*
X132170112Y-72638485D01*
X132170112Y-72638485D02*
X132205826Y-72714676D01*
X132205826Y-72714676D02*
X132205826Y-72828961D01*
X132205826Y-72828961D02*
X132170112Y-72905152D01*
X132170112Y-72905152D02*
X132134398Y-72943247D01*
X132134398Y-72943247D02*
X132062969Y-72981342D01*
X132062969Y-72981342D02*
X131777255Y-72981342D01*
X132491541Y-73133723D02*
X132848684Y-73133723D01*
X132420112Y-73362295D02*
X132670112Y-72562295D01*
X132670112Y-72562295D02*
X132920112Y-73362295D01*
X133134398Y-72638485D02*
X133170112Y-72600390D01*
X133170112Y-72600390D02*
X133241541Y-72562295D01*
X133241541Y-72562295D02*
X133420112Y-72562295D01*
X133420112Y-72562295D02*
X133491541Y-72600390D01*
X133491541Y-72600390D02*
X133527255Y-72638485D01*
X133527255Y-72638485D02*
X133562969Y-72714676D01*
X133562969Y-72714676D02*
X133562969Y-72790866D01*
X133562969Y-72790866D02*
X133527255Y-72905152D01*
X133527255Y-72905152D02*
X133098683Y-73362295D01*
X133098683Y-73362295D02*
X133562969Y-73362295D01*
X131777255Y-65612295D02*
X131777255Y-64812295D01*
X131777255Y-64812295D02*
X132062969Y-64812295D01*
X132062969Y-64812295D02*
X132134398Y-64850390D01*
X132134398Y-64850390D02*
X132170112Y-64888485D01*
X132170112Y-64888485D02*
X132205826Y-64964676D01*
X132205826Y-64964676D02*
X132205826Y-65078961D01*
X132205826Y-65078961D02*
X132170112Y-65155152D01*
X132170112Y-65155152D02*
X132134398Y-65193247D01*
X132134398Y-65193247D02*
X132062969Y-65231342D01*
X132062969Y-65231342D02*
X131777255Y-65231342D01*
X132920112Y-64850390D02*
X132848684Y-64812295D01*
X132848684Y-64812295D02*
X132741541Y-64812295D01*
X132741541Y-64812295D02*
X132634398Y-64850390D01*
X132634398Y-64850390D02*
X132562969Y-64926580D01*
X132562969Y-64926580D02*
X132527255Y-65002771D01*
X132527255Y-65002771D02*
X132491541Y-65155152D01*
X132491541Y-65155152D02*
X132491541Y-65269438D01*
X132491541Y-65269438D02*
X132527255Y-65421819D01*
X132527255Y-65421819D02*
X132562969Y-65498009D01*
X132562969Y-65498009D02*
X132634398Y-65574200D01*
X132634398Y-65574200D02*
X132741541Y-65612295D01*
X132741541Y-65612295D02*
X132812969Y-65612295D01*
X132812969Y-65612295D02*
X132920112Y-65574200D01*
X132920112Y-65574200D02*
X132955826Y-65536104D01*
X132955826Y-65536104D02*
X132955826Y-65269438D01*
X132955826Y-65269438D02*
X132812969Y-65269438D01*
X133670112Y-65612295D02*
X133241541Y-65612295D01*
X133455826Y-65612295D02*
X133455826Y-64812295D01*
X133455826Y-64812295D02*
X133384398Y-64926580D01*
X133384398Y-64926580D02*
X133312969Y-65002771D01*
X133312969Y-65002771D02*
X133241541Y-65040866D01*
X134134398Y-64812295D02*
X134205827Y-64812295D01*
X134205827Y-64812295D02*
X134277255Y-64850390D01*
X134277255Y-64850390D02*
X134312970Y-64888485D01*
X134312970Y-64888485D02*
X134348684Y-64964676D01*
X134348684Y-64964676D02*
X134384398Y-65117057D01*
X134384398Y-65117057D02*
X134384398Y-65307533D01*
X134384398Y-65307533D02*
X134348684Y-65459914D01*
X134348684Y-65459914D02*
X134312970Y-65536104D01*
X134312970Y-65536104D02*
X134277255Y-65574200D01*
X134277255Y-65574200D02*
X134205827Y-65612295D01*
X134205827Y-65612295D02*
X134134398Y-65612295D01*
X134134398Y-65612295D02*
X134062970Y-65574200D01*
X134062970Y-65574200D02*
X134027255Y-65536104D01*
X134027255Y-65536104D02*
X133991541Y-65459914D01*
X133991541Y-65459914D02*
X133955827Y-65307533D01*
X133955827Y-65307533D02*
X133955827Y-65117057D01*
X133955827Y-65117057D02*
X133991541Y-64964676D01*
X133991541Y-64964676D02*
X134027255Y-64888485D01*
X134027255Y-64888485D02*
X134062970Y-64850390D01*
X134062970Y-64850390D02*
X134134398Y-64812295D01*
X134741541Y-65574200D02*
X134741541Y-65612295D01*
X134741541Y-65612295D02*
X134705827Y-65688485D01*
X134705827Y-65688485D02*
X134670113Y-65726580D01*
X135634399Y-65612295D02*
X135634399Y-64812295D01*
X135634399Y-64812295D02*
X136062970Y-65612295D01*
X136062970Y-65612295D02*
X136062970Y-64812295D01*
X136848684Y-65612295D02*
X136598684Y-65231342D01*
X136420113Y-65612295D02*
X136420113Y-64812295D01*
X136420113Y-64812295D02*
X136705827Y-64812295D01*
X136705827Y-64812295D02*
X136777256Y-64850390D01*
X136777256Y-64850390D02*
X136812970Y-64888485D01*
X136812970Y-64888485D02*
X136848684Y-64964676D01*
X136848684Y-64964676D02*
X136848684Y-65078961D01*
X136848684Y-65078961D02*
X136812970Y-65155152D01*
X136812970Y-65155152D02*
X136777256Y-65193247D01*
X136777256Y-65193247D02*
X136705827Y-65231342D01*
X136705827Y-65231342D02*
X136420113Y-65231342D01*
X137134399Y-65574200D02*
X137241542Y-65612295D01*
X137241542Y-65612295D02*
X137420113Y-65612295D01*
X137420113Y-65612295D02*
X137491542Y-65574200D01*
X137491542Y-65574200D02*
X137527256Y-65536104D01*
X137527256Y-65536104D02*
X137562970Y-65459914D01*
X137562970Y-65459914D02*
X137562970Y-65383723D01*
X137562970Y-65383723D02*
X137527256Y-65307533D01*
X137527256Y-65307533D02*
X137491542Y-65269438D01*
X137491542Y-65269438D02*
X137420113Y-65231342D01*
X137420113Y-65231342D02*
X137277256Y-65193247D01*
X137277256Y-65193247D02*
X137205827Y-65155152D01*
X137205827Y-65155152D02*
X137170113Y-65117057D01*
X137170113Y-65117057D02*
X137134399Y-65040866D01*
X137134399Y-65040866D02*
X137134399Y-64964676D01*
X137134399Y-64964676D02*
X137170113Y-64888485D01*
X137170113Y-64888485D02*
X137205827Y-64850390D01*
X137205827Y-64850390D02*
X137277256Y-64812295D01*
X137277256Y-64812295D02*
X137455827Y-64812295D01*
X137455827Y-64812295D02*
X137562970Y-64850390D01*
X137777256Y-64812295D02*
X138205828Y-64812295D01*
X137991542Y-65612295D02*
X137991542Y-64812295D01*
X139241543Y-65917057D02*
X139205828Y-65878961D01*
X139205828Y-65878961D02*
X139134400Y-65764676D01*
X139134400Y-65764676D02*
X139098686Y-65688485D01*
X139098686Y-65688485D02*
X139062971Y-65574200D01*
X139062971Y-65574200D02*
X139027257Y-65383723D01*
X139027257Y-65383723D02*
X139027257Y-65231342D01*
X139027257Y-65231342D02*
X139062971Y-65040866D01*
X139062971Y-65040866D02*
X139098686Y-64926580D01*
X139098686Y-64926580D02*
X139134400Y-64850390D01*
X139134400Y-64850390D02*
X139205828Y-64736104D01*
X139205828Y-64736104D02*
X139241543Y-64698009D01*
X139455828Y-64812295D02*
X139955828Y-64812295D01*
X139955828Y-64812295D02*
X139634400Y-65612295D01*
X140170114Y-65917057D02*
X140205829Y-65878961D01*
X140205829Y-65878961D02*
X140277257Y-65764676D01*
X140277257Y-65764676D02*
X140312972Y-65688485D01*
X140312972Y-65688485D02*
X140348686Y-65574200D01*
X140348686Y-65574200D02*
X140384400Y-65383723D01*
X140384400Y-65383723D02*
X140384400Y-65231342D01*
X140384400Y-65231342D02*
X140348686Y-65040866D01*
X140348686Y-65040866D02*
X140312972Y-64926580D01*
X140312972Y-64926580D02*
X140277257Y-64850390D01*
X140277257Y-64850390D02*
X140205829Y-64736104D01*
X140205829Y-64736104D02*
X140170114Y-64698009D01*
X131777255Y-68112295D02*
X131777255Y-67312295D01*
X131777255Y-67312295D02*
X132062969Y-67312295D01*
X132062969Y-67312295D02*
X132134398Y-67350390D01*
X132134398Y-67350390D02*
X132170112Y-67388485D01*
X132170112Y-67388485D02*
X132205826Y-67464676D01*
X132205826Y-67464676D02*
X132205826Y-67578961D01*
X132205826Y-67578961D02*
X132170112Y-67655152D01*
X132170112Y-67655152D02*
X132134398Y-67693247D01*
X132134398Y-67693247D02*
X132062969Y-67731342D01*
X132062969Y-67731342D02*
X131777255Y-67731342D01*
X132491541Y-67883723D02*
X132848684Y-67883723D01*
X132420112Y-68112295D02*
X132670112Y-67312295D01*
X132670112Y-67312295D02*
X132920112Y-68112295D01*
X133312969Y-67312295D02*
X133384398Y-67312295D01*
X133384398Y-67312295D02*
X133455826Y-67350390D01*
X133455826Y-67350390D02*
X133491541Y-67388485D01*
X133491541Y-67388485D02*
X133527255Y-67464676D01*
X133527255Y-67464676D02*
X133562969Y-67617057D01*
X133562969Y-67617057D02*
X133562969Y-67807533D01*
X133562969Y-67807533D02*
X133527255Y-67959914D01*
X133527255Y-67959914D02*
X133491541Y-68036104D01*
X133491541Y-68036104D02*
X133455826Y-68074200D01*
X133455826Y-68074200D02*
X133384398Y-68112295D01*
X133384398Y-68112295D02*
X133312969Y-68112295D01*
X133312969Y-68112295D02*
X133241541Y-68074200D01*
X133241541Y-68074200D02*
X133205826Y-68036104D01*
X133205826Y-68036104D02*
X133170112Y-67959914D01*
X133170112Y-67959914D02*
X133134398Y-67807533D01*
X133134398Y-67807533D02*
X133134398Y-67617057D01*
X133134398Y-67617057D02*
X133170112Y-67464676D01*
X133170112Y-67464676D02*
X133205826Y-67388485D01*
X133205826Y-67388485D02*
X133241541Y-67350390D01*
X133241541Y-67350390D02*
X133312969Y-67312295D01*
X134670113Y-68417057D02*
X134634398Y-68378961D01*
X134634398Y-68378961D02*
X134562970Y-68264676D01*
X134562970Y-68264676D02*
X134527256Y-68188485D01*
X134527256Y-68188485D02*
X134491541Y-68074200D01*
X134491541Y-68074200D02*
X134455827Y-67883723D01*
X134455827Y-67883723D02*
X134455827Y-67731342D01*
X134455827Y-67731342D02*
X134491541Y-67540866D01*
X134491541Y-67540866D02*
X134527256Y-67426580D01*
X134527256Y-67426580D02*
X134562970Y-67350390D01*
X134562970Y-67350390D02*
X134634398Y-67236104D01*
X134634398Y-67236104D02*
X134670113Y-67198009D01*
X135062970Y-67655152D02*
X134991541Y-67617057D01*
X134991541Y-67617057D02*
X134955827Y-67578961D01*
X134955827Y-67578961D02*
X134920113Y-67502771D01*
X134920113Y-67502771D02*
X134920113Y-67464676D01*
X134920113Y-67464676D02*
X134955827Y-67388485D01*
X134955827Y-67388485D02*
X134991541Y-67350390D01*
X134991541Y-67350390D02*
X135062970Y-67312295D01*
X135062970Y-67312295D02*
X135205827Y-67312295D01*
X135205827Y-67312295D02*
X135277256Y-67350390D01*
X135277256Y-67350390D02*
X135312970Y-67388485D01*
X135312970Y-67388485D02*
X135348684Y-67464676D01*
X135348684Y-67464676D02*
X135348684Y-67502771D01*
X135348684Y-67502771D02*
X135312970Y-67578961D01*
X135312970Y-67578961D02*
X135277256Y-67617057D01*
X135277256Y-67617057D02*
X135205827Y-67655152D01*
X135205827Y-67655152D02*
X135062970Y-67655152D01*
X135062970Y-67655152D02*
X134991541Y-67693247D01*
X134991541Y-67693247D02*
X134955827Y-67731342D01*
X134955827Y-67731342D02*
X134920113Y-67807533D01*
X134920113Y-67807533D02*
X134920113Y-67959914D01*
X134920113Y-67959914D02*
X134955827Y-68036104D01*
X134955827Y-68036104D02*
X134991541Y-68074200D01*
X134991541Y-68074200D02*
X135062970Y-68112295D01*
X135062970Y-68112295D02*
X135205827Y-68112295D01*
X135205827Y-68112295D02*
X135277256Y-68074200D01*
X135277256Y-68074200D02*
X135312970Y-68036104D01*
X135312970Y-68036104D02*
X135348684Y-67959914D01*
X135348684Y-67959914D02*
X135348684Y-67807533D01*
X135348684Y-67807533D02*
X135312970Y-67731342D01*
X135312970Y-67731342D02*
X135277256Y-67693247D01*
X135277256Y-67693247D02*
X135205827Y-67655152D01*
X135598684Y-68417057D02*
X135634399Y-68378961D01*
X135634399Y-68378961D02*
X135705827Y-68264676D01*
X135705827Y-68264676D02*
X135741542Y-68188485D01*
X135741542Y-68188485D02*
X135777256Y-68074200D01*
X135777256Y-68074200D02*
X135812970Y-67883723D01*
X135812970Y-67883723D02*
X135812970Y-67731342D01*
X135812970Y-67731342D02*
X135777256Y-67540866D01*
X135777256Y-67540866D02*
X135741542Y-67426580D01*
X135741542Y-67426580D02*
X135705827Y-67350390D01*
X135705827Y-67350390D02*
X135634399Y-67236104D01*
X135634399Y-67236104D02*
X135598684Y-67198009D01*
X131777255Y-60612295D02*
X131777255Y-59812295D01*
X131777255Y-59812295D02*
X132062969Y-59812295D01*
X132062969Y-59812295D02*
X132134398Y-59850390D01*
X132134398Y-59850390D02*
X132170112Y-59888485D01*
X132170112Y-59888485D02*
X132205826Y-59964676D01*
X132205826Y-59964676D02*
X132205826Y-60078961D01*
X132205826Y-60078961D02*
X132170112Y-60155152D01*
X132170112Y-60155152D02*
X132134398Y-60193247D01*
X132134398Y-60193247D02*
X132062969Y-60231342D01*
X132062969Y-60231342D02*
X131777255Y-60231342D01*
X132777255Y-60193247D02*
X132527255Y-60193247D01*
X132527255Y-60612295D02*
X132527255Y-59812295D01*
X132527255Y-59812295D02*
X132884398Y-59812295D01*
X133312969Y-59812295D02*
X133384398Y-59812295D01*
X133384398Y-59812295D02*
X133455826Y-59850390D01*
X133455826Y-59850390D02*
X133491541Y-59888485D01*
X133491541Y-59888485D02*
X133527255Y-59964676D01*
X133527255Y-59964676D02*
X133562969Y-60117057D01*
X133562969Y-60117057D02*
X133562969Y-60307533D01*
X133562969Y-60307533D02*
X133527255Y-60459914D01*
X133527255Y-60459914D02*
X133491541Y-60536104D01*
X133491541Y-60536104D02*
X133455826Y-60574200D01*
X133455826Y-60574200D02*
X133384398Y-60612295D01*
X133384398Y-60612295D02*
X133312969Y-60612295D01*
X133312969Y-60612295D02*
X133241541Y-60574200D01*
X133241541Y-60574200D02*
X133205826Y-60536104D01*
X133205826Y-60536104D02*
X133170112Y-60459914D01*
X133170112Y-60459914D02*
X133134398Y-60307533D01*
X133134398Y-60307533D02*
X133134398Y-60117057D01*
X133134398Y-60117057D02*
X133170112Y-59964676D01*
X133170112Y-59964676D02*
X133205826Y-59888485D01*
X133205826Y-59888485D02*
X133241541Y-59850390D01*
X133241541Y-59850390D02*
X133312969Y-59812295D01*
X134670113Y-60917057D02*
X134634398Y-60878961D01*
X134634398Y-60878961D02*
X134562970Y-60764676D01*
X134562970Y-60764676D02*
X134527256Y-60688485D01*
X134527256Y-60688485D02*
X134491541Y-60574200D01*
X134491541Y-60574200D02*
X134455827Y-60383723D01*
X134455827Y-60383723D02*
X134455827Y-60231342D01*
X134455827Y-60231342D02*
X134491541Y-60040866D01*
X134491541Y-60040866D02*
X134527256Y-59926580D01*
X134527256Y-59926580D02*
X134562970Y-59850390D01*
X134562970Y-59850390D02*
X134634398Y-59736104D01*
X134634398Y-59736104D02*
X134670113Y-59698009D01*
X135312970Y-59812295D02*
X134955827Y-59812295D01*
X134955827Y-59812295D02*
X134920113Y-60193247D01*
X134920113Y-60193247D02*
X134955827Y-60155152D01*
X134955827Y-60155152D02*
X135027256Y-60117057D01*
X135027256Y-60117057D02*
X135205827Y-60117057D01*
X135205827Y-60117057D02*
X135277256Y-60155152D01*
X135277256Y-60155152D02*
X135312970Y-60193247D01*
X135312970Y-60193247D02*
X135348684Y-60269438D01*
X135348684Y-60269438D02*
X135348684Y-60459914D01*
X135348684Y-60459914D02*
X135312970Y-60536104D01*
X135312970Y-60536104D02*
X135277256Y-60574200D01*
X135277256Y-60574200D02*
X135205827Y-60612295D01*
X135205827Y-60612295D02*
X135027256Y-60612295D01*
X135027256Y-60612295D02*
X134955827Y-60574200D01*
X134955827Y-60574200D02*
X134920113Y-60536104D01*
X135598684Y-60917057D02*
X135634399Y-60878961D01*
X135634399Y-60878961D02*
X135705827Y-60764676D01*
X135705827Y-60764676D02*
X135741542Y-60688485D01*
X135741542Y-60688485D02*
X135777256Y-60574200D01*
X135777256Y-60574200D02*
X135812970Y-60383723D01*
X135812970Y-60383723D02*
X135812970Y-60231342D01*
X135812970Y-60231342D02*
X135777256Y-60040866D01*
X135777256Y-60040866D02*
X135741542Y-59926580D01*
X135741542Y-59926580D02*
X135705827Y-59850390D01*
X135705827Y-59850390D02*
X135634399Y-59736104D01*
X135634399Y-59736104D02*
X135598684Y-59698009D01*
X131777255Y-57862295D02*
X131777255Y-57062295D01*
X131777255Y-57062295D02*
X132062969Y-57062295D01*
X132062969Y-57062295D02*
X132134398Y-57100390D01*
X132134398Y-57100390D02*
X132170112Y-57138485D01*
X132170112Y-57138485D02*
X132205826Y-57214676D01*
X132205826Y-57214676D02*
X132205826Y-57328961D01*
X132205826Y-57328961D02*
X132170112Y-57405152D01*
X132170112Y-57405152D02*
X132134398Y-57443247D01*
X132134398Y-57443247D02*
X132062969Y-57481342D01*
X132062969Y-57481342D02*
X131777255Y-57481342D01*
X132955826Y-57786104D02*
X132920112Y-57824200D01*
X132920112Y-57824200D02*
X132812969Y-57862295D01*
X132812969Y-57862295D02*
X132741541Y-57862295D01*
X132741541Y-57862295D02*
X132634398Y-57824200D01*
X132634398Y-57824200D02*
X132562969Y-57748009D01*
X132562969Y-57748009D02*
X132527255Y-57671819D01*
X132527255Y-57671819D02*
X132491541Y-57519438D01*
X132491541Y-57519438D02*
X132491541Y-57405152D01*
X132491541Y-57405152D02*
X132527255Y-57252771D01*
X132527255Y-57252771D02*
X132562969Y-57176580D01*
X132562969Y-57176580D02*
X132634398Y-57100390D01*
X132634398Y-57100390D02*
X132741541Y-57062295D01*
X132741541Y-57062295D02*
X132812969Y-57062295D01*
X132812969Y-57062295D02*
X132920112Y-57100390D01*
X132920112Y-57100390D02*
X132955826Y-57138485D01*
X133670112Y-57862295D02*
X133241541Y-57862295D01*
X133455826Y-57862295D02*
X133455826Y-57062295D01*
X133455826Y-57062295D02*
X133384398Y-57176580D01*
X133384398Y-57176580D02*
X133312969Y-57252771D01*
X133312969Y-57252771D02*
X133241541Y-57290866D01*
X134348684Y-57062295D02*
X133991541Y-57062295D01*
X133991541Y-57062295D02*
X133955827Y-57443247D01*
X133955827Y-57443247D02*
X133991541Y-57405152D01*
X133991541Y-57405152D02*
X134062970Y-57367057D01*
X134062970Y-57367057D02*
X134241541Y-57367057D01*
X134241541Y-57367057D02*
X134312970Y-57405152D01*
X134312970Y-57405152D02*
X134348684Y-57443247D01*
X134348684Y-57443247D02*
X134384398Y-57519438D01*
X134384398Y-57519438D02*
X134384398Y-57709914D01*
X134384398Y-57709914D02*
X134348684Y-57786104D01*
X134348684Y-57786104D02*
X134312970Y-57824200D01*
X134312970Y-57824200D02*
X134241541Y-57862295D01*
X134241541Y-57862295D02*
X134062970Y-57862295D01*
X134062970Y-57862295D02*
X133991541Y-57824200D01*
X133991541Y-57824200D02*
X133955827Y-57786104D01*
X135491542Y-58167057D02*
X135455827Y-58128961D01*
X135455827Y-58128961D02*
X135384399Y-58014676D01*
X135384399Y-58014676D02*
X135348685Y-57938485D01*
X135348685Y-57938485D02*
X135312970Y-57824200D01*
X135312970Y-57824200D02*
X135277256Y-57633723D01*
X135277256Y-57633723D02*
X135277256Y-57481342D01*
X135277256Y-57481342D02*
X135312970Y-57290866D01*
X135312970Y-57290866D02*
X135348685Y-57176580D01*
X135348685Y-57176580D02*
X135384399Y-57100390D01*
X135384399Y-57100390D02*
X135455827Y-56986104D01*
X135455827Y-56986104D02*
X135491542Y-56948009D01*
X136098685Y-57328961D02*
X136098685Y-57862295D01*
X135920113Y-57024200D02*
X135741542Y-57595628D01*
X135741542Y-57595628D02*
X136205827Y-57595628D01*
X136420113Y-58167057D02*
X136455828Y-58128961D01*
X136455828Y-58128961D02*
X136527256Y-58014676D01*
X136527256Y-58014676D02*
X136562971Y-57938485D01*
X136562971Y-57938485D02*
X136598685Y-57824200D01*
X136598685Y-57824200D02*
X136634399Y-57633723D01*
X136634399Y-57633723D02*
X136634399Y-57481342D01*
X136634399Y-57481342D02*
X136598685Y-57290866D01*
X136598685Y-57290866D02*
X136562971Y-57176580D01*
X136562971Y-57176580D02*
X136527256Y-57100390D01*
X136527256Y-57100390D02*
X136455828Y-56986104D01*
X136455828Y-56986104D02*
X136420113Y-56948009D01*
X131777255Y-55362295D02*
X131777255Y-54562295D01*
X131777255Y-54562295D02*
X132062969Y-54562295D01*
X132062969Y-54562295D02*
X132134398Y-54600390D01*
X132134398Y-54600390D02*
X132170112Y-54638485D01*
X132170112Y-54638485D02*
X132205826Y-54714676D01*
X132205826Y-54714676D02*
X132205826Y-54828961D01*
X132205826Y-54828961D02*
X132170112Y-54905152D01*
X132170112Y-54905152D02*
X132134398Y-54943247D01*
X132134398Y-54943247D02*
X132062969Y-54981342D01*
X132062969Y-54981342D02*
X131777255Y-54981342D01*
X132955826Y-55286104D02*
X132920112Y-55324200D01*
X132920112Y-55324200D02*
X132812969Y-55362295D01*
X132812969Y-55362295D02*
X132741541Y-55362295D01*
X132741541Y-55362295D02*
X132634398Y-55324200D01*
X132634398Y-55324200D02*
X132562969Y-55248009D01*
X132562969Y-55248009D02*
X132527255Y-55171819D01*
X132527255Y-55171819D02*
X132491541Y-55019438D01*
X132491541Y-55019438D02*
X132491541Y-54905152D01*
X132491541Y-54905152D02*
X132527255Y-54752771D01*
X132527255Y-54752771D02*
X132562969Y-54676580D01*
X132562969Y-54676580D02*
X132634398Y-54600390D01*
X132634398Y-54600390D02*
X132741541Y-54562295D01*
X132741541Y-54562295D02*
X132812969Y-54562295D01*
X132812969Y-54562295D02*
X132920112Y-54600390D01*
X132920112Y-54600390D02*
X132955826Y-54638485D01*
X133670112Y-55362295D02*
X133241541Y-55362295D01*
X133455826Y-55362295D02*
X133455826Y-54562295D01*
X133455826Y-54562295D02*
X133384398Y-54676580D01*
X133384398Y-54676580D02*
X133312969Y-54752771D01*
X133312969Y-54752771D02*
X133241541Y-54790866D01*
X134312970Y-54828961D02*
X134312970Y-55362295D01*
X134134398Y-54524200D02*
X133955827Y-55095628D01*
X133955827Y-55095628D02*
X134420112Y-55095628D01*
X135491542Y-55667057D02*
X135455827Y-55628961D01*
X135455827Y-55628961D02*
X135384399Y-55514676D01*
X135384399Y-55514676D02*
X135348685Y-55438485D01*
X135348685Y-55438485D02*
X135312970Y-55324200D01*
X135312970Y-55324200D02*
X135277256Y-55133723D01*
X135277256Y-55133723D02*
X135277256Y-54981342D01*
X135277256Y-54981342D02*
X135312970Y-54790866D01*
X135312970Y-54790866D02*
X135348685Y-54676580D01*
X135348685Y-54676580D02*
X135384399Y-54600390D01*
X135384399Y-54600390D02*
X135455827Y-54486104D01*
X135455827Y-54486104D02*
X135491542Y-54448009D01*
X135705827Y-54562295D02*
X136170113Y-54562295D01*
X136170113Y-54562295D02*
X135920113Y-54867057D01*
X135920113Y-54867057D02*
X136027256Y-54867057D01*
X136027256Y-54867057D02*
X136098685Y-54905152D01*
X136098685Y-54905152D02*
X136134399Y-54943247D01*
X136134399Y-54943247D02*
X136170113Y-55019438D01*
X136170113Y-55019438D02*
X136170113Y-55209914D01*
X136170113Y-55209914D02*
X136134399Y-55286104D01*
X136134399Y-55286104D02*
X136098685Y-55324200D01*
X136098685Y-55324200D02*
X136027256Y-55362295D01*
X136027256Y-55362295D02*
X135812970Y-55362295D01*
X135812970Y-55362295D02*
X135741542Y-55324200D01*
X135741542Y-55324200D02*
X135705827Y-55286104D01*
X136420113Y-55667057D02*
X136455828Y-55628961D01*
X136455828Y-55628961D02*
X136527256Y-55514676D01*
X136527256Y-55514676D02*
X136562971Y-55438485D01*
X136562971Y-55438485D02*
X136598685Y-55324200D01*
X136598685Y-55324200D02*
X136634399Y-55133723D01*
X136634399Y-55133723D02*
X136634399Y-54981342D01*
X136634399Y-54981342D02*
X136598685Y-54790866D01*
X136598685Y-54790866D02*
X136562971Y-54676580D01*
X136562971Y-54676580D02*
X136527256Y-54600390D01*
X136527256Y-54600390D02*
X136455828Y-54486104D01*
X136455828Y-54486104D02*
X136420113Y-54448009D01*
X131777255Y-52862295D02*
X131777255Y-52062295D01*
X131777255Y-52062295D02*
X132062969Y-52062295D01*
X132062969Y-52062295D02*
X132134398Y-52100390D01*
X132134398Y-52100390D02*
X132170112Y-52138485D01*
X132170112Y-52138485D02*
X132205826Y-52214676D01*
X132205826Y-52214676D02*
X132205826Y-52328961D01*
X132205826Y-52328961D02*
X132170112Y-52405152D01*
X132170112Y-52405152D02*
X132134398Y-52443247D01*
X132134398Y-52443247D02*
X132062969Y-52481342D01*
X132062969Y-52481342D02*
X131777255Y-52481342D01*
X132955826Y-52786104D02*
X132920112Y-52824200D01*
X132920112Y-52824200D02*
X132812969Y-52862295D01*
X132812969Y-52862295D02*
X132741541Y-52862295D01*
X132741541Y-52862295D02*
X132634398Y-52824200D01*
X132634398Y-52824200D02*
X132562969Y-52748009D01*
X132562969Y-52748009D02*
X132527255Y-52671819D01*
X132527255Y-52671819D02*
X132491541Y-52519438D01*
X132491541Y-52519438D02*
X132491541Y-52405152D01*
X132491541Y-52405152D02*
X132527255Y-52252771D01*
X132527255Y-52252771D02*
X132562969Y-52176580D01*
X132562969Y-52176580D02*
X132634398Y-52100390D01*
X132634398Y-52100390D02*
X132741541Y-52062295D01*
X132741541Y-52062295D02*
X132812969Y-52062295D01*
X132812969Y-52062295D02*
X132920112Y-52100390D01*
X132920112Y-52100390D02*
X132955826Y-52138485D01*
X133670112Y-52862295D02*
X133241541Y-52862295D01*
X133455826Y-52862295D02*
X133455826Y-52062295D01*
X133455826Y-52062295D02*
X133384398Y-52176580D01*
X133384398Y-52176580D02*
X133312969Y-52252771D01*
X133312969Y-52252771D02*
X133241541Y-52290866D01*
X133920112Y-52062295D02*
X134384398Y-52062295D01*
X134384398Y-52062295D02*
X134134398Y-52367057D01*
X134134398Y-52367057D02*
X134241541Y-52367057D01*
X134241541Y-52367057D02*
X134312970Y-52405152D01*
X134312970Y-52405152D02*
X134348684Y-52443247D01*
X134348684Y-52443247D02*
X134384398Y-52519438D01*
X134384398Y-52519438D02*
X134384398Y-52709914D01*
X134384398Y-52709914D02*
X134348684Y-52786104D01*
X134348684Y-52786104D02*
X134312970Y-52824200D01*
X134312970Y-52824200D02*
X134241541Y-52862295D01*
X134241541Y-52862295D02*
X134027255Y-52862295D01*
X134027255Y-52862295D02*
X133955827Y-52824200D01*
X133955827Y-52824200D02*
X133920112Y-52786104D01*
X135491542Y-53167057D02*
X135455827Y-53128961D01*
X135455827Y-53128961D02*
X135384399Y-53014676D01*
X135384399Y-53014676D02*
X135348685Y-52938485D01*
X135348685Y-52938485D02*
X135312970Y-52824200D01*
X135312970Y-52824200D02*
X135277256Y-52633723D01*
X135277256Y-52633723D02*
X135277256Y-52481342D01*
X135277256Y-52481342D02*
X135312970Y-52290866D01*
X135312970Y-52290866D02*
X135348685Y-52176580D01*
X135348685Y-52176580D02*
X135384399Y-52100390D01*
X135384399Y-52100390D02*
X135455827Y-51986104D01*
X135455827Y-51986104D02*
X135491542Y-51948009D01*
X135741542Y-52138485D02*
X135777256Y-52100390D01*
X135777256Y-52100390D02*
X135848685Y-52062295D01*
X135848685Y-52062295D02*
X136027256Y-52062295D01*
X136027256Y-52062295D02*
X136098685Y-52100390D01*
X136098685Y-52100390D02*
X136134399Y-52138485D01*
X136134399Y-52138485D02*
X136170113Y-52214676D01*
X136170113Y-52214676D02*
X136170113Y-52290866D01*
X136170113Y-52290866D02*
X136134399Y-52405152D01*
X136134399Y-52405152D02*
X135705827Y-52862295D01*
X135705827Y-52862295D02*
X136170113Y-52862295D01*
X136420113Y-53167057D02*
X136455828Y-53128961D01*
X136455828Y-53128961D02*
X136527256Y-53014676D01*
X136527256Y-53014676D02*
X136562971Y-52938485D01*
X136562971Y-52938485D02*
X136598685Y-52824200D01*
X136598685Y-52824200D02*
X136634399Y-52633723D01*
X136634399Y-52633723D02*
X136634399Y-52481342D01*
X136634399Y-52481342D02*
X136598685Y-52290866D01*
X136598685Y-52290866D02*
X136562971Y-52176580D01*
X136562971Y-52176580D02*
X136527256Y-52100390D01*
X136527256Y-52100390D02*
X136455828Y-51986104D01*
X136455828Y-51986104D02*
X136420113Y-51948009D01*
X131670112Y-49562295D02*
X131920112Y-50362295D01*
X131920112Y-50362295D02*
X132170112Y-49562295D01*
X132420112Y-50362295D02*
X132420112Y-49562295D01*
X132420112Y-49562295D02*
X132598683Y-49562295D01*
X132598683Y-49562295D02*
X132705826Y-49600390D01*
X132705826Y-49600390D02*
X132777255Y-49676580D01*
X132777255Y-49676580D02*
X132812969Y-49752771D01*
X132812969Y-49752771D02*
X132848683Y-49905152D01*
X132848683Y-49905152D02*
X132848683Y-50019438D01*
X132848683Y-50019438D02*
X132812969Y-50171819D01*
X132812969Y-50171819D02*
X132777255Y-50248009D01*
X132777255Y-50248009D02*
X132705826Y-50324200D01*
X132705826Y-50324200D02*
X132598683Y-50362295D01*
X132598683Y-50362295D02*
X132420112Y-50362295D01*
X133170112Y-50362295D02*
X133170112Y-49562295D01*
X133170112Y-49562295D02*
X133348683Y-49562295D01*
X133348683Y-49562295D02*
X133455826Y-49600390D01*
X133455826Y-49600390D02*
X133527255Y-49676580D01*
X133527255Y-49676580D02*
X133562969Y-49752771D01*
X133562969Y-49752771D02*
X133598683Y-49905152D01*
X133598683Y-49905152D02*
X133598683Y-50019438D01*
X133598683Y-50019438D02*
X133562969Y-50171819D01*
X133562969Y-50171819D02*
X133527255Y-50248009D01*
X133527255Y-50248009D02*
X133455826Y-50324200D01*
X133455826Y-50324200D02*
X133348683Y-50362295D01*
X133348683Y-50362295D02*
X133170112Y-50362295D01*
X134705827Y-50667057D02*
X134670112Y-50628961D01*
X134670112Y-50628961D02*
X134598684Y-50514676D01*
X134598684Y-50514676D02*
X134562970Y-50438485D01*
X134562970Y-50438485D02*
X134527255Y-50324200D01*
X134527255Y-50324200D02*
X134491541Y-50133723D01*
X134491541Y-50133723D02*
X134491541Y-49981342D01*
X134491541Y-49981342D02*
X134527255Y-49790866D01*
X134527255Y-49790866D02*
X134562970Y-49676580D01*
X134562970Y-49676580D02*
X134598684Y-49600390D01*
X134598684Y-49600390D02*
X134670112Y-49486104D01*
X134670112Y-49486104D02*
X134705827Y-49448009D01*
X135384398Y-50362295D02*
X134955827Y-50362295D01*
X135170112Y-50362295D02*
X135170112Y-49562295D01*
X135170112Y-49562295D02*
X135098684Y-49676580D01*
X135098684Y-49676580D02*
X135027255Y-49752771D01*
X135027255Y-49752771D02*
X134955827Y-49790866D01*
X135634398Y-50667057D02*
X135670113Y-50628961D01*
X135670113Y-50628961D02*
X135741541Y-50514676D01*
X135741541Y-50514676D02*
X135777256Y-50438485D01*
X135777256Y-50438485D02*
X135812970Y-50324200D01*
X135812970Y-50324200D02*
X135848684Y-50133723D01*
X135848684Y-50133723D02*
X135848684Y-49981342D01*
X135848684Y-49981342D02*
X135812970Y-49790866D01*
X135812970Y-49790866D02*
X135777256Y-49676580D01*
X135777256Y-49676580D02*
X135741541Y-49600390D01*
X135741541Y-49600390D02*
X135670113Y-49486104D01*
X135670113Y-49486104D02*
X135634398Y-49448009D01*
X138400595Y-72104819D02*
X138400595Y-72914342D01*
X138400595Y-72914342D02*
X138448214Y-73009580D01*
X138448214Y-73009580D02*
X138495833Y-73057200D01*
X138495833Y-73057200D02*
X138591071Y-73104819D01*
X138591071Y-73104819D02*
X138781547Y-73104819D01*
X138781547Y-73104819D02*
X138876785Y-73057200D01*
X138876785Y-73057200D02*
X138924404Y-73009580D01*
X138924404Y-73009580D02*
X138972023Y-72914342D01*
X138972023Y-72914342D02*
X138972023Y-72104819D01*
X139972023Y-73104819D02*
X139400595Y-73104819D01*
X139686309Y-73104819D02*
X139686309Y-72104819D01*
X139686309Y-72104819D02*
X139591071Y-72247676D01*
X139591071Y-72247676D02*
X139495833Y-72342914D01*
X139495833Y-72342914D02*
X139400595Y-72390533D01*
D11*
%TO.C,J2*%
X149110000Y-109750000D02*
X147780000Y-109750000D01*
X149110000Y-108420000D02*
X149110000Y-109750000D01*
X149110000Y-107150000D02*
X149110000Y-48670000D01*
X149110000Y-107150000D02*
X146450000Y-107150000D01*
X149110000Y-48670000D02*
X146450000Y-48670000D01*
X146450000Y-107150000D02*
X146450000Y-48670000D01*
%TO.C,U1*%
X135552500Y-74890000D02*
X135552500Y-75340000D01*
X135552500Y-82110000D02*
X135552500Y-81660000D01*
X136002500Y-74890000D02*
X135552500Y-74890000D01*
X136002500Y-82110000D02*
X135552500Y-82110000D01*
X142322500Y-74890000D02*
X142772500Y-74890000D01*
X142322500Y-82110000D02*
X142772500Y-82110000D01*
X142772500Y-74890000D02*
X142772500Y-75340000D01*
X142772500Y-82110000D02*
X142772500Y-81660000D01*
X134962500Y-75340000D02*
X134622500Y-74870000D01*
X135302500Y-74870000D01*
X134962500Y-75340000D01*
G36*
X134962500Y-75340000D02*
G01*
X134622500Y-74870000D01*
X135302500Y-74870000D01*
X134962500Y-75340000D01*
G37*
%TO.C,J1*%
X128670000Y-48670000D02*
X130000000Y-48670000D01*
X128670000Y-50000000D02*
X128670000Y-48670000D01*
X128670000Y-51270000D02*
X128670000Y-109750000D01*
X128670000Y-51270000D02*
X131330000Y-51270000D01*
X128670000Y-109750000D02*
X131330000Y-109750000D01*
X131330000Y-51270000D02*
X131330000Y-109750000D01*
%TD*%
M02*
