%TF.GenerationSoftware,KiCad,Pcbnew,8.0.7*%
%TF.CreationDate,2025-02-16T23:10:18-06:00*%
%TF.ProjectId,MCU,4d43552e-6b69-4636-9164-5f7063625858,rev?*%
%TF.SameCoordinates,Original*%
%TF.FileFunction,Copper,L2,Bot*%
%TF.FilePolarity,Positive*%
%FSLAX46Y46*%
G04 Gerber Fmt 4.6, Leading zero omitted, Abs format (unit mm)*
G04 Created by KiCad (PCBNEW 8.0.7) date 2025-02-16 23:10:18*
%MOMM*%
%LPD*%
G01*
G04 APERTURE LIST*
G04 Aperture macros list*
%AMRoundRect*
0 Rectangle with rounded corners*
0 $1 Rounding radius*
0 $2 $3 $4 $5 $6 $7 $8 $9 X,Y pos of 4 corners*
0 Add a 4 corners polygon primitive as box body*
4,1,4,$2,$3,$4,$5,$6,$7,$8,$9,$2,$3,0*
0 Add four circle primitives for the rounded corners*
1,1,$1+$1,$2,$3*
1,1,$1+$1,$4,$5*
1,1,$1+$1,$6,$7*
1,1,$1+$1,$8,$9*
0 Add four rect primitives between the rounded corners*
20,1,$1+$1,$2,$3,$4,$5,0*
20,1,$1+$1,$4,$5,$6,$7,0*
20,1,$1+$1,$6,$7,$8,$9,0*
20,1,$1+$1,$8,$9,$2,$3,0*%
G04 Aperture macros list end*
%TA.AperFunction,SMDPad,CuDef*%
%ADD10RoundRect,0.237500X0.300000X0.237500X-0.300000X0.237500X-0.300000X-0.237500X0.300000X-0.237500X0*%
%TD*%
%TA.AperFunction,SMDPad,CuDef*%
%ADD11RoundRect,0.237500X-0.300000X-0.237500X0.300000X-0.237500X0.300000X0.237500X-0.300000X0.237500X0*%
%TD*%
%TA.AperFunction,ComponentPad*%
%ADD12R,1.700000X1.700000*%
%TD*%
%TA.AperFunction,ComponentPad*%
%ADD13O,1.700000X1.700000*%
%TD*%
%TA.AperFunction,ViaPad*%
%ADD14C,0.600000*%
%TD*%
%TA.AperFunction,Conductor*%
%ADD15C,0.200000*%
%TD*%
G04 APERTURE END LIST*
D10*
%TO.P,C2,1*%
%TO.N,VDD*%
X143362500Y-75500000D03*
%TO.P,C2,2*%
%TO.N,GND*%
X141637500Y-75500000D03*
%TD*%
D11*
%TO.P,C1,1*%
%TO.N,VDD*%
X138182445Y-77122811D03*
%TO.P,C1,2*%
%TO.N,GND*%
X139907445Y-77122811D03*
%TD*%
D12*
%TO.P,J2,1,Pin_1*%
%TO.N,/25*%
X147780000Y-108420000D03*
D13*
%TO.P,J2,2,Pin_2*%
%TO.N,/26*%
X147780000Y-105880000D03*
%TO.P,J2,3,Pin_3*%
%TO.N,/27*%
X147780000Y-103340000D03*
%TO.P,J2,4,Pin_4*%
%TO.N,/28*%
X147780000Y-100800000D03*
%TO.P,J2,5,Pin_5*%
%TO.N,/29*%
X147780000Y-98260000D03*
%TO.P,J2,6,Pin_6*%
%TO.N,/30*%
X147780000Y-95720000D03*
%TO.P,J2,7,Pin_7*%
%TO.N,/31*%
X147780000Y-93180000D03*
%TO.P,J2,8,Pin_8*%
%TO.N,/32*%
X147780000Y-90640000D03*
%TO.P,J2,9,Pin_9*%
%TO.N,/33*%
X147780000Y-88100000D03*
%TO.P,J2,10,Pin_10*%
%TO.N,/34*%
X147780000Y-85560000D03*
%TO.P,J2,11,Pin_11*%
%TO.N,GND*%
X147780000Y-83020000D03*
%TO.P,J2,12,Pin_12*%
%TO.N,VDD*%
X147780000Y-80480000D03*
%TO.P,J2,13,Pin_13*%
%TO.N,/37*%
X147780000Y-77940000D03*
%TO.P,J2,14,Pin_14*%
%TO.N,/38*%
X147780000Y-75400000D03*
%TO.P,J2,15,Pin_15*%
%TO.N,/39*%
X147780000Y-72860000D03*
%TO.P,J2,16,Pin_16*%
%TO.N,/40*%
X147780000Y-70320000D03*
%TO.P,J2,17,Pin_17*%
%TO.N,/41*%
X147780000Y-67780000D03*
%TO.P,J2,18,Pin_18*%
%TO.N,/42*%
X147780000Y-65240000D03*
%TO.P,J2,19,Pin_19*%
%TO.N,/43*%
X147780000Y-62700000D03*
%TO.P,J2,20,Pin_20*%
%TO.N,/44*%
X147780000Y-60160000D03*
%TO.P,J2,21,Pin_21*%
%TO.N,/45*%
X147780000Y-57620000D03*
%TO.P,J2,22,Pin_22*%
%TO.N,/46*%
X147780000Y-55080000D03*
%TO.P,J2,23,Pin_23*%
%TO.N,GND*%
X147780000Y-52540000D03*
%TO.P,J2,24,Pin_24*%
%TO.N,VDD*%
X147780000Y-50000000D03*
%TD*%
D12*
%TO.P,J1,1,Pin_1*%
%TO.N,VDD*%
X130000000Y-50000000D03*
D13*
%TO.P,J1,2,Pin_2*%
%TO.N,/2*%
X130000000Y-52540000D03*
%TO.P,J1,3,Pin_3*%
%TO.N,/3*%
X130000000Y-55080000D03*
%TO.P,J1,4,Pin_4*%
%TO.N,/4*%
X130000000Y-57620000D03*
%TO.P,J1,5,Pin_5*%
%TO.N,/5*%
X130000000Y-60160000D03*
%TO.P,J1,6,Pin_6*%
%TO.N,/6*%
X130000000Y-62700000D03*
%TO.P,J1,7,Pin_7*%
%TO.N,/7*%
X130000000Y-65240000D03*
%TO.P,J1,8,Pin_8*%
%TO.N,Net-(J1-Pin_8)*%
X130000000Y-67780000D03*
%TO.P,J1,9,Pin_9*%
%TO.N,Net-(J1-Pin_9)*%
X130000000Y-70320000D03*
%TO.P,J1,10,Pin_10*%
%TO.N,Net-(J1-Pin_10)*%
X130000000Y-72860000D03*
%TO.P,J1,11,Pin_11*%
%TO.N,Net-(J1-Pin_11)*%
X130000000Y-75400000D03*
%TO.P,J1,12,Pin_12*%
%TO.N,Net-(J1-Pin_12)*%
X130000000Y-77940000D03*
%TO.P,J1,13,Pin_13*%
%TO.N,Net-(J1-Pin_13)*%
X130000000Y-80480000D03*
%TO.P,J1,14,Pin_14*%
%TO.N,Net-(J1-Pin_14)*%
X130000000Y-83020000D03*
%TO.P,J1,15,Pin_15*%
%TO.N,Net-(J1-Pin_15)*%
X130000000Y-85560000D03*
%TO.P,J1,16,Pin_16*%
%TO.N,/16*%
X130000000Y-88100000D03*
%TO.P,J1,17,Pin_17*%
%TO.N,/17*%
X130000000Y-90640000D03*
%TO.P,J1,18,Pin_18*%
%TO.N,/18*%
X130000000Y-93180000D03*
%TO.P,J1,19,Pin_19*%
%TO.N,GND*%
X130000000Y-95720000D03*
%TO.P,J1,20,Pin_20*%
%TO.N,/20*%
X130000000Y-98260000D03*
%TO.P,J1,21,Pin_21*%
%TO.N,VDD*%
X130000000Y-100800000D03*
%TO.P,J1,22,Pin_22*%
%TO.N,/22*%
X130000000Y-103340000D03*
%TO.P,J1,23,Pin_23*%
%TO.N,GND*%
X130000000Y-105880000D03*
%TO.P,J1,24,Pin_24*%
%TO.N,VDD*%
X130000000Y-108420000D03*
%TD*%
D14*
%TO.N,GND*%
X139750000Y-77250000D03*
%TO.N,VDD*%
X143362500Y-75500000D03*
X137500000Y-77750000D03*
X138000000Y-81250000D03*
X138000000Y-79250000D03*
X143000000Y-82750000D03*
%TO.N,GND*%
X139000000Y-55500000D03*
X141750000Y-49750000D03*
X137000000Y-49750000D03*
X139500000Y-75750000D03*
X141626632Y-75558428D03*
X137250000Y-80750000D03*
X135500000Y-108750000D03*
X141750000Y-108750000D03*
X143750000Y-89250000D03*
X143750000Y-84250000D03*
%TO.N,/2*%
X137100000Y-76943617D03*
%TO.N,/4*%
X136500000Y-77500000D03*
%TO.N,/5*%
X136250000Y-78500000D03*
%TO.N,/25*%
X138992435Y-78600000D03*
%TO.N,/26*%
X139946700Y-78211774D03*
%TO.N,/27*%
X140853519Y-78609714D03*
%TO.N,/28*%
X141637500Y-78798406D03*
%TO.N,/29*%
X142087501Y-77784816D03*
%TD*%
D15*
%TO.N,/26*%
X139946700Y-98046700D02*
X139946700Y-78211774D01*
X147780000Y-105880000D02*
X139946700Y-98046700D01*
%TO.N,GND*%
X139862500Y-77250000D02*
X139750000Y-77250000D01*
%TO.N,VDD*%
X137500000Y-77750000D02*
X137637500Y-77750000D01*
X137637500Y-77750000D02*
X138137500Y-77250000D01*
%TO.N,/2*%
X137100000Y-59640000D02*
X137100000Y-76943617D01*
%TO.N,VDD*%
X138000000Y-78250000D02*
X137500000Y-77750000D01*
%TO.N,/2*%
X130000000Y-52540000D02*
X137100000Y-59640000D01*
%TO.N,VDD*%
X138000000Y-79250000D02*
X138000000Y-78250000D01*
%TO.N,/27*%
X147780000Y-103340000D02*
X140853519Y-96413519D01*
%TO.N,/25*%
X146730000Y-108420000D02*
X138992435Y-100682435D01*
X147780000Y-108420000D02*
X146730000Y-108420000D01*
%TO.N,/27*%
X140853519Y-96413519D02*
X140853519Y-78609714D01*
%TO.N,/28*%
X147780000Y-100800000D02*
X141637500Y-94657500D01*
%TO.N,/29*%
X142452824Y-79245647D02*
X142400000Y-79298471D01*
X142087501Y-77784816D02*
X142452824Y-78150139D01*
%TO.N,/28*%
X141637500Y-94657500D02*
X141637500Y-78798406D01*
%TO.N,/29*%
X142452824Y-78150139D02*
X142452824Y-79245647D01*
X142400000Y-79298471D02*
X142400000Y-92880000D01*
X142400000Y-92880000D02*
X147780000Y-98260000D01*
%TO.N,/25*%
X138992435Y-100682435D02*
X138992435Y-78600000D01*
%TO.N,VDD*%
X138000000Y-79250000D02*
X138000000Y-81250000D01*
X147780000Y-80480000D02*
X145510000Y-82750000D01*
X145510000Y-82750000D02*
X143000000Y-82750000D01*
%TO.N,/5*%
X135850000Y-66010000D02*
X130000000Y-60160000D01*
X135850000Y-78100000D02*
X135850000Y-66010000D01*
X136250000Y-78500000D02*
X135850000Y-78100000D01*
%TO.N,/4*%
X136500000Y-77500000D02*
X136500000Y-64120000D01*
X136500000Y-64120000D02*
X130000000Y-57620000D01*
%TD*%
%TA.AperFunction,Conductor*%
%TO.N,GND*%
G36*
X149442539Y-48270185D02*
G01*
X149488294Y-48322989D01*
X149499500Y-48374500D01*
X149499500Y-110125500D01*
X149479815Y-110192539D01*
X149427011Y-110238294D01*
X149375500Y-110249500D01*
X128374500Y-110249500D01*
X128307461Y-110229815D01*
X128261706Y-110177011D01*
X128250500Y-110125500D01*
X128250500Y-108419999D01*
X128844571Y-108419999D01*
X128844571Y-108420000D01*
X128864244Y-108632310D01*
X128922596Y-108837392D01*
X128922596Y-108837394D01*
X129017632Y-109028253D01*
X129017634Y-109028255D01*
X129146128Y-109198407D01*
X129303698Y-109342052D01*
X129484981Y-109454298D01*
X129683802Y-109531321D01*
X129893390Y-109570500D01*
X129893392Y-109570500D01*
X130106608Y-109570500D01*
X130106610Y-109570500D01*
X130316198Y-109531321D01*
X130515019Y-109454298D01*
X130696302Y-109342052D01*
X130853872Y-109198407D01*
X130982366Y-109028255D01*
X131077405Y-108837389D01*
X131135756Y-108632310D01*
X131155429Y-108420000D01*
X131135756Y-108207690D01*
X131077405Y-108002611D01*
X131077403Y-108002606D01*
X131077403Y-108002605D01*
X130982367Y-107811746D01*
X130853872Y-107641593D01*
X130782110Y-107576173D01*
X130696302Y-107497948D01*
X130515019Y-107385702D01*
X130515017Y-107385701D01*
X130415608Y-107347190D01*
X130316198Y-107308679D01*
X130106610Y-107269500D01*
X129893390Y-107269500D01*
X129683802Y-107308679D01*
X129683799Y-107308679D01*
X129683799Y-107308680D01*
X129484982Y-107385701D01*
X129484980Y-107385702D01*
X129303699Y-107497947D01*
X129146127Y-107641593D01*
X129017632Y-107811746D01*
X128922596Y-108002605D01*
X128922596Y-108002607D01*
X128864244Y-108207689D01*
X128844571Y-108419999D01*
X128250500Y-108419999D01*
X128250500Y-98259999D01*
X128844571Y-98259999D01*
X128844571Y-98260000D01*
X128864244Y-98472310D01*
X128922596Y-98677392D01*
X128922596Y-98677394D01*
X129017632Y-98868253D01*
X129017634Y-98868255D01*
X129146128Y-99038407D01*
X129303698Y-99182052D01*
X129484981Y-99294298D01*
X129683802Y-99371321D01*
X129880613Y-99408111D01*
X129942893Y-99439779D01*
X129978166Y-99500092D01*
X129975232Y-99569900D01*
X129935023Y-99627040D01*
X129880613Y-99651888D01*
X129683802Y-99688679D01*
X129683799Y-99688679D01*
X129683799Y-99688680D01*
X129484982Y-99765701D01*
X129484980Y-99765702D01*
X129303699Y-99877947D01*
X129146127Y-100021593D01*
X129017632Y-100191746D01*
X128922596Y-100382605D01*
X128922596Y-100382607D01*
X128864244Y-100587689D01*
X128844571Y-100799999D01*
X128844571Y-100800000D01*
X128864244Y-101012310D01*
X128922596Y-101217392D01*
X128922596Y-101217394D01*
X129017632Y-101408253D01*
X129017634Y-101408255D01*
X129146128Y-101578407D01*
X129303698Y-101722052D01*
X129484981Y-101834298D01*
X129683802Y-101911321D01*
X129880613Y-101948111D01*
X129942893Y-101979779D01*
X129978166Y-102040092D01*
X129975232Y-102109900D01*
X129935023Y-102167040D01*
X129880613Y-102191888D01*
X129683802Y-102228679D01*
X129683799Y-102228679D01*
X129683799Y-102228680D01*
X129484982Y-102305701D01*
X129484980Y-102305702D01*
X129303699Y-102417947D01*
X129146127Y-102561593D01*
X129017632Y-102731746D01*
X128922596Y-102922605D01*
X128922596Y-102922607D01*
X128864244Y-103127689D01*
X128844571Y-103339999D01*
X128844571Y-103340000D01*
X128864244Y-103552310D01*
X128922596Y-103757392D01*
X128922596Y-103757394D01*
X129017632Y-103948253D01*
X129017634Y-103948255D01*
X129146128Y-104118407D01*
X129303698Y-104262052D01*
X129484981Y-104374298D01*
X129683802Y-104451321D01*
X129893390Y-104490500D01*
X129893392Y-104490500D01*
X130106608Y-104490500D01*
X130106610Y-104490500D01*
X130316198Y-104451321D01*
X130515019Y-104374298D01*
X130696302Y-104262052D01*
X130853872Y-104118407D01*
X130982366Y-103948255D01*
X131077405Y-103757389D01*
X131135756Y-103552310D01*
X131155429Y-103340000D01*
X131135756Y-103127690D01*
X131077405Y-102922611D01*
X131077403Y-102922606D01*
X131077403Y-102922605D01*
X130982367Y-102731746D01*
X130853872Y-102561593D01*
X130696302Y-102417948D01*
X130515019Y-102305702D01*
X130515017Y-102305701D01*
X130336412Y-102236510D01*
X130316198Y-102228679D01*
X130119385Y-102191888D01*
X130057106Y-102160221D01*
X130021833Y-102099908D01*
X130024767Y-102030100D01*
X130064976Y-101972960D01*
X130119384Y-101948111D01*
X130316198Y-101911321D01*
X130515019Y-101834298D01*
X130696302Y-101722052D01*
X130853872Y-101578407D01*
X130982366Y-101408255D01*
X131077405Y-101217389D01*
X131135756Y-101012310D01*
X131155429Y-100800000D01*
X131135756Y-100587690D01*
X131077405Y-100382611D01*
X131077403Y-100382606D01*
X131077403Y-100382605D01*
X130982367Y-100191746D01*
X130853872Y-100021593D01*
X130696302Y-99877948D01*
X130515019Y-99765702D01*
X130515017Y-99765701D01*
X130336412Y-99696510D01*
X130316198Y-99688679D01*
X130119385Y-99651888D01*
X130057106Y-99620221D01*
X130021833Y-99559908D01*
X130024767Y-99490100D01*
X130064976Y-99432960D01*
X130119384Y-99408111D01*
X130316198Y-99371321D01*
X130515019Y-99294298D01*
X130696302Y-99182052D01*
X130853872Y-99038407D01*
X130982366Y-98868255D01*
X131077405Y-98677389D01*
X131135756Y-98472310D01*
X131155429Y-98260000D01*
X131135756Y-98047690D01*
X131077405Y-97842611D01*
X131077403Y-97842606D01*
X131077403Y-97842605D01*
X130982367Y-97651746D01*
X130853872Y-97481593D01*
X130696302Y-97337948D01*
X130515019Y-97225702D01*
X130515017Y-97225701D01*
X130336412Y-97156510D01*
X130316198Y-97148679D01*
X130106610Y-97109500D01*
X129893390Y-97109500D01*
X129683802Y-97148679D01*
X129683799Y-97148679D01*
X129683799Y-97148680D01*
X129484982Y-97225701D01*
X129484980Y-97225702D01*
X129303699Y-97337947D01*
X129146127Y-97481593D01*
X129017632Y-97651746D01*
X128922596Y-97842605D01*
X128922596Y-97842607D01*
X128864244Y-98047689D01*
X128844571Y-98259999D01*
X128250500Y-98259999D01*
X128250500Y-52539999D01*
X128844571Y-52539999D01*
X128844571Y-52540000D01*
X128864244Y-52752310D01*
X128922596Y-52957392D01*
X128922596Y-52957394D01*
X129017632Y-53148253D01*
X129017634Y-53148255D01*
X129146128Y-53318407D01*
X129303698Y-53462052D01*
X129484981Y-53574298D01*
X129683802Y-53651321D01*
X129880613Y-53688111D01*
X129942893Y-53719779D01*
X129978166Y-53780092D01*
X129975232Y-53849900D01*
X129935023Y-53907040D01*
X129880613Y-53931888D01*
X129683802Y-53968679D01*
X129683799Y-53968679D01*
X129683799Y-53968680D01*
X129484982Y-54045701D01*
X129484980Y-54045702D01*
X129303699Y-54157947D01*
X129146127Y-54301593D01*
X129017632Y-54471746D01*
X128922596Y-54662605D01*
X128922596Y-54662607D01*
X128864244Y-54867689D01*
X128844571Y-55079999D01*
X128844571Y-55080000D01*
X128864244Y-55292310D01*
X128922596Y-55497392D01*
X128922596Y-55497394D01*
X129017632Y-55688253D01*
X129017634Y-55688255D01*
X129146128Y-55858407D01*
X129303698Y-56002052D01*
X129484981Y-56114298D01*
X129683802Y-56191321D01*
X129880613Y-56228111D01*
X129942893Y-56259779D01*
X129978166Y-56320092D01*
X129975232Y-56389900D01*
X129935023Y-56447040D01*
X129880613Y-56471888D01*
X129683802Y-56508679D01*
X129683799Y-56508679D01*
X129683799Y-56508680D01*
X129484982Y-56585701D01*
X129484980Y-56585702D01*
X129303699Y-56697947D01*
X129146127Y-56841593D01*
X129017632Y-57011746D01*
X128922596Y-57202605D01*
X128922596Y-57202607D01*
X128864244Y-57407689D01*
X128844571Y-57619999D01*
X128844571Y-57620000D01*
X128864244Y-57832310D01*
X128922596Y-58037392D01*
X128922596Y-58037394D01*
X129017632Y-58228253D01*
X129017634Y-58228255D01*
X129146128Y-58398407D01*
X129303698Y-58542052D01*
X129484981Y-58654298D01*
X129683802Y-58731321D01*
X129880613Y-58768111D01*
X129942893Y-58799779D01*
X129978166Y-58860092D01*
X129975232Y-58929900D01*
X129935023Y-58987040D01*
X129880613Y-59011888D01*
X129683802Y-59048679D01*
X129683799Y-59048679D01*
X129683799Y-59048680D01*
X129484982Y-59125701D01*
X129484980Y-59125702D01*
X129303699Y-59237947D01*
X129146127Y-59381593D01*
X129017632Y-59551746D01*
X128922596Y-59742605D01*
X128922596Y-59742607D01*
X128864244Y-59947689D01*
X128844571Y-60159999D01*
X128844571Y-60160000D01*
X128864244Y-60372310D01*
X128922596Y-60577392D01*
X128922596Y-60577394D01*
X129017632Y-60768253D01*
X129017634Y-60768255D01*
X129146128Y-60938407D01*
X129303698Y-61082052D01*
X129484981Y-61194298D01*
X129683802Y-61271321D01*
X129880613Y-61308111D01*
X129942893Y-61339779D01*
X129978166Y-61400092D01*
X129975232Y-61469900D01*
X129935023Y-61527040D01*
X129880613Y-61551888D01*
X129683802Y-61588679D01*
X129683799Y-61588679D01*
X129683799Y-61588680D01*
X129484982Y-61665701D01*
X129484980Y-61665702D01*
X129303699Y-61777947D01*
X129146127Y-61921593D01*
X129017632Y-62091746D01*
X128922596Y-62282605D01*
X128922596Y-62282607D01*
X128864244Y-62487689D01*
X128844571Y-62699999D01*
X128844571Y-62700000D01*
X128864244Y-62912310D01*
X128922596Y-63117392D01*
X128922596Y-63117394D01*
X129017632Y-63308253D01*
X129017634Y-63308255D01*
X129146128Y-63478407D01*
X129303698Y-63622052D01*
X129484981Y-63734298D01*
X129683802Y-63811321D01*
X129880613Y-63848111D01*
X129942893Y-63879779D01*
X129978166Y-63940092D01*
X129975232Y-64009900D01*
X129935023Y-64067040D01*
X129880613Y-64091888D01*
X129683802Y-64128679D01*
X129683799Y-64128679D01*
X129683799Y-64128680D01*
X129484982Y-64205701D01*
X129484980Y-64205702D01*
X129303699Y-64317947D01*
X129146127Y-64461593D01*
X129017632Y-64631746D01*
X128922596Y-64822605D01*
X128922596Y-64822607D01*
X128864244Y-65027689D01*
X128844571Y-65239999D01*
X128844571Y-65240000D01*
X128864244Y-65452310D01*
X128922596Y-65657392D01*
X128922596Y-65657394D01*
X129017632Y-65848253D01*
X129017634Y-65848255D01*
X129146128Y-66018407D01*
X129303698Y-66162052D01*
X129484981Y-66274298D01*
X129683802Y-66351321D01*
X129880613Y-66388111D01*
X129942893Y-66419779D01*
X129978166Y-66480092D01*
X129975232Y-66549900D01*
X129935023Y-66607040D01*
X129880613Y-66631888D01*
X129683802Y-66668679D01*
X129683799Y-66668679D01*
X129683799Y-66668680D01*
X129484982Y-66745701D01*
X129484980Y-66745702D01*
X129303699Y-66857947D01*
X129146127Y-67001593D01*
X129017632Y-67171746D01*
X128922596Y-67362605D01*
X128922596Y-67362607D01*
X128864244Y-67567689D01*
X128844571Y-67779999D01*
X128844571Y-67780000D01*
X128864244Y-67992310D01*
X128922596Y-68197392D01*
X128922596Y-68197394D01*
X129017632Y-68388253D01*
X129017634Y-68388255D01*
X129146128Y-68558407D01*
X129303698Y-68702052D01*
X129484981Y-68814298D01*
X129683802Y-68891321D01*
X129880613Y-68928111D01*
X129942893Y-68959779D01*
X129978166Y-69020092D01*
X129975232Y-69089900D01*
X129935023Y-69147040D01*
X129880613Y-69171888D01*
X129683802Y-69208679D01*
X129683799Y-69208679D01*
X129683799Y-69208680D01*
X129484982Y-69285701D01*
X129484980Y-69285702D01*
X129303699Y-69397947D01*
X129146127Y-69541593D01*
X129017632Y-69711746D01*
X128922596Y-69902605D01*
X128922596Y-69902607D01*
X128864244Y-70107689D01*
X128844571Y-70319999D01*
X128844571Y-70320000D01*
X128864244Y-70532310D01*
X128922596Y-70737392D01*
X128922596Y-70737394D01*
X129017632Y-70928253D01*
X129017634Y-70928255D01*
X129146128Y-71098407D01*
X129303698Y-71242052D01*
X129484981Y-71354298D01*
X129683802Y-71431321D01*
X129880613Y-71468111D01*
X129942893Y-71499779D01*
X129978166Y-71560092D01*
X129975232Y-71629900D01*
X129935023Y-71687040D01*
X129880613Y-71711888D01*
X129683802Y-71748679D01*
X129683799Y-71748679D01*
X129683799Y-71748680D01*
X129484982Y-71825701D01*
X129484980Y-71825702D01*
X129303699Y-71937947D01*
X129146127Y-72081593D01*
X129017632Y-72251746D01*
X128922596Y-72442605D01*
X128922596Y-72442607D01*
X128864244Y-72647689D01*
X128844571Y-72859999D01*
X128844571Y-72860000D01*
X128864244Y-73072310D01*
X128922596Y-73277392D01*
X128922596Y-73277394D01*
X129017632Y-73468253D01*
X129017634Y-73468255D01*
X129146128Y-73638407D01*
X129303698Y-73782052D01*
X129484981Y-73894298D01*
X129683802Y-73971321D01*
X129880613Y-74008111D01*
X129942893Y-74039779D01*
X129978166Y-74100092D01*
X129975232Y-74169900D01*
X129935023Y-74227040D01*
X129880613Y-74251888D01*
X129683802Y-74288679D01*
X129683799Y-74288679D01*
X129683799Y-74288680D01*
X129484982Y-74365701D01*
X129484980Y-74365702D01*
X129303699Y-74477947D01*
X129146127Y-74621593D01*
X129017632Y-74791746D01*
X128922596Y-74982605D01*
X128922596Y-74982607D01*
X128864244Y-75187689D01*
X128844571Y-75399999D01*
X128844571Y-75400000D01*
X128864244Y-75612310D01*
X128922596Y-75817392D01*
X128922596Y-75817394D01*
X129017632Y-76008253D01*
X129017634Y-76008255D01*
X129146128Y-76178407D01*
X129303698Y-76322052D01*
X129484981Y-76434298D01*
X129683802Y-76511321D01*
X129880613Y-76548111D01*
X129942893Y-76579779D01*
X129978166Y-76640092D01*
X129975232Y-76709900D01*
X129935023Y-76767040D01*
X129880613Y-76791888D01*
X129683802Y-76828679D01*
X129683799Y-76828679D01*
X129683799Y-76828680D01*
X129484982Y-76905701D01*
X129484980Y-76905702D01*
X129303699Y-77017947D01*
X129146127Y-77161593D01*
X129017632Y-77331746D01*
X128922596Y-77522605D01*
X128922596Y-77522607D01*
X128864244Y-77727689D01*
X128854796Y-77829657D01*
X128844571Y-77940000D01*
X128864244Y-78152310D01*
X128919329Y-78345912D01*
X128922596Y-78357392D01*
X128922596Y-78357394D01*
X129017632Y-78548253D01*
X129146127Y-78718406D01*
X129146128Y-78718407D01*
X129303698Y-78862052D01*
X129484981Y-78974298D01*
X129683802Y-79051321D01*
X129880613Y-79088111D01*
X129942893Y-79119779D01*
X129978166Y-79180092D01*
X129975232Y-79249900D01*
X129935023Y-79307040D01*
X129880613Y-79331888D01*
X129683802Y-79368679D01*
X129683799Y-79368679D01*
X129683799Y-79368680D01*
X129484982Y-79445701D01*
X129484980Y-79445702D01*
X129303699Y-79557947D01*
X129146127Y-79701593D01*
X129017632Y-79871746D01*
X128922596Y-80062605D01*
X128922596Y-80062607D01*
X128864244Y-80267689D01*
X128844571Y-80479999D01*
X128844571Y-80480000D01*
X128864244Y-80692310D01*
X128922596Y-80897392D01*
X128922596Y-80897394D01*
X129017632Y-81088253D01*
X129060924Y-81145580D01*
X129146128Y-81258407D01*
X129303698Y-81402052D01*
X129484981Y-81514298D01*
X129683802Y-81591321D01*
X129880613Y-81628111D01*
X129942893Y-81659779D01*
X129978166Y-81720092D01*
X129975232Y-81789900D01*
X129935023Y-81847040D01*
X129880613Y-81871888D01*
X129683802Y-81908679D01*
X129683799Y-81908679D01*
X129683799Y-81908680D01*
X129484982Y-81985701D01*
X129484980Y-81985702D01*
X129303699Y-82097947D01*
X129146127Y-82241593D01*
X129017632Y-82411746D01*
X128922596Y-82602605D01*
X128922596Y-82602607D01*
X128864244Y-82807689D01*
X128844571Y-83019999D01*
X128844571Y-83020000D01*
X128864244Y-83232310D01*
X128922596Y-83437392D01*
X128922596Y-83437394D01*
X129017632Y-83628253D01*
X129017634Y-83628255D01*
X129146128Y-83798407D01*
X129303698Y-83942052D01*
X129484981Y-84054298D01*
X129683802Y-84131321D01*
X129880613Y-84168111D01*
X129942893Y-84199779D01*
X129978166Y-84260092D01*
X129975232Y-84329900D01*
X129935023Y-84387040D01*
X129880613Y-84411888D01*
X129683802Y-84448679D01*
X129683799Y-84448679D01*
X129683799Y-84448680D01*
X129484982Y-84525701D01*
X129484980Y-84525702D01*
X129303699Y-84637947D01*
X129146127Y-84781593D01*
X129017632Y-84951746D01*
X128922596Y-85142605D01*
X128922596Y-85142607D01*
X128864244Y-85347689D01*
X128844571Y-85559999D01*
X128844571Y-85560000D01*
X128864244Y-85772310D01*
X128922596Y-85977392D01*
X128922596Y-85977394D01*
X129017632Y-86168253D01*
X129017634Y-86168255D01*
X129146128Y-86338407D01*
X129303698Y-86482052D01*
X129484981Y-86594298D01*
X129683802Y-86671321D01*
X129880613Y-86708111D01*
X129942893Y-86739779D01*
X129978166Y-86800092D01*
X129975232Y-86869900D01*
X129935023Y-86927040D01*
X129880613Y-86951888D01*
X129683802Y-86988679D01*
X129683799Y-86988679D01*
X129683799Y-86988680D01*
X129484982Y-87065701D01*
X129484980Y-87065702D01*
X129303699Y-87177947D01*
X129146127Y-87321593D01*
X129017632Y-87491746D01*
X128922596Y-87682605D01*
X128922596Y-87682607D01*
X128864244Y-87887689D01*
X128844571Y-88099999D01*
X128844571Y-88100000D01*
X128864244Y-88312310D01*
X128922596Y-88517392D01*
X128922596Y-88517394D01*
X129017632Y-88708253D01*
X129017634Y-88708255D01*
X129146128Y-88878407D01*
X129303698Y-89022052D01*
X129484981Y-89134298D01*
X129683802Y-89211321D01*
X129880613Y-89248111D01*
X129942893Y-89279779D01*
X129978166Y-89340092D01*
X129975232Y-89409900D01*
X129935023Y-89467040D01*
X129880613Y-89491888D01*
X129683802Y-89528679D01*
X129683799Y-89528679D01*
X129683799Y-89528680D01*
X129484982Y-89605701D01*
X129484980Y-89605702D01*
X129303699Y-89717947D01*
X129146127Y-89861593D01*
X129017632Y-90031746D01*
X128922596Y-90222605D01*
X128922596Y-90222607D01*
X128864244Y-90427689D01*
X128844571Y-90639999D01*
X128844571Y-90640000D01*
X128864244Y-90852310D01*
X128922596Y-91057392D01*
X128922596Y-91057394D01*
X129017632Y-91248253D01*
X129017634Y-91248255D01*
X129146128Y-91418407D01*
X129303698Y-91562052D01*
X129484981Y-91674298D01*
X129683802Y-91751321D01*
X129880613Y-91788111D01*
X129942893Y-91819779D01*
X129978166Y-91880092D01*
X129975232Y-91949900D01*
X129935023Y-92007040D01*
X129880613Y-92031888D01*
X129683802Y-92068679D01*
X129683799Y-92068679D01*
X129683799Y-92068680D01*
X129484982Y-92145701D01*
X129484980Y-92145702D01*
X129303699Y-92257947D01*
X129146127Y-92401593D01*
X129017632Y-92571746D01*
X128922596Y-92762605D01*
X128922596Y-92762607D01*
X128864244Y-92967689D01*
X128844571Y-93179999D01*
X128844571Y-93180000D01*
X128864244Y-93392310D01*
X128922596Y-93597392D01*
X128922596Y-93597394D01*
X129017632Y-93788253D01*
X129017634Y-93788255D01*
X129146128Y-93958407D01*
X129303698Y-94102052D01*
X129484981Y-94214298D01*
X129683802Y-94291321D01*
X129893390Y-94330500D01*
X129893392Y-94330500D01*
X130106608Y-94330500D01*
X130106610Y-94330500D01*
X130316198Y-94291321D01*
X130515019Y-94214298D01*
X130696302Y-94102052D01*
X130853872Y-93958407D01*
X130982366Y-93788255D01*
X131077405Y-93597389D01*
X131135756Y-93392310D01*
X131155429Y-93180000D01*
X131135756Y-92967690D01*
X131077405Y-92762611D01*
X131077403Y-92762606D01*
X131077403Y-92762605D01*
X130982367Y-92571746D01*
X130853872Y-92401593D01*
X130696302Y-92257948D01*
X130515019Y-92145702D01*
X130515017Y-92145701D01*
X130415608Y-92107190D01*
X130316198Y-92068679D01*
X130119385Y-92031888D01*
X130057106Y-92000221D01*
X130021833Y-91939908D01*
X130024767Y-91870100D01*
X130064976Y-91812960D01*
X130119384Y-91788111D01*
X130316198Y-91751321D01*
X130515019Y-91674298D01*
X130696302Y-91562052D01*
X130853872Y-91418407D01*
X130982366Y-91248255D01*
X131077405Y-91057389D01*
X131135756Y-90852310D01*
X131155429Y-90640000D01*
X131135756Y-90427690D01*
X131077405Y-90222611D01*
X131077403Y-90222606D01*
X131077403Y-90222605D01*
X130982367Y-90031746D01*
X130853872Y-89861593D01*
X130696302Y-89717948D01*
X130515019Y-89605702D01*
X130515017Y-89605701D01*
X130415608Y-89567190D01*
X130316198Y-89528679D01*
X130119385Y-89491888D01*
X130057106Y-89460221D01*
X130021833Y-89399908D01*
X130024767Y-89330100D01*
X130064976Y-89272960D01*
X130119384Y-89248111D01*
X130316198Y-89211321D01*
X130515019Y-89134298D01*
X130696302Y-89022052D01*
X130853872Y-88878407D01*
X130982366Y-88708255D01*
X131077405Y-88517389D01*
X131135756Y-88312310D01*
X131155429Y-88100000D01*
X131135756Y-87887690D01*
X131077405Y-87682611D01*
X131077403Y-87682606D01*
X131077403Y-87682605D01*
X130982367Y-87491746D01*
X130853872Y-87321593D01*
X130696302Y-87177948D01*
X130515019Y-87065702D01*
X130515017Y-87065701D01*
X130415608Y-87027190D01*
X130316198Y-86988679D01*
X130119385Y-86951888D01*
X130057106Y-86920221D01*
X130021833Y-86859908D01*
X130024767Y-86790100D01*
X130064976Y-86732960D01*
X130119384Y-86708111D01*
X130316198Y-86671321D01*
X130515019Y-86594298D01*
X130696302Y-86482052D01*
X130853872Y-86338407D01*
X130982366Y-86168255D01*
X131077405Y-85977389D01*
X131135756Y-85772310D01*
X131155429Y-85560000D01*
X131135756Y-85347690D01*
X131077405Y-85142611D01*
X131077403Y-85142606D01*
X131077403Y-85142605D01*
X130982367Y-84951746D01*
X130853872Y-84781593D01*
X130696302Y-84637948D01*
X130515019Y-84525702D01*
X130515017Y-84525701D01*
X130415608Y-84487190D01*
X130316198Y-84448679D01*
X130119385Y-84411888D01*
X130057106Y-84380221D01*
X130021833Y-84319908D01*
X130024767Y-84250100D01*
X130064976Y-84192960D01*
X130119384Y-84168111D01*
X130316198Y-84131321D01*
X130515019Y-84054298D01*
X130696302Y-83942052D01*
X130853872Y-83798407D01*
X130982366Y-83628255D01*
X130982367Y-83628253D01*
X131077403Y-83437394D01*
X131077403Y-83437393D01*
X131077405Y-83437389D01*
X131135756Y-83232310D01*
X131155429Y-83020000D01*
X131135756Y-82807690D01*
X131077405Y-82602611D01*
X131077403Y-82602606D01*
X131077403Y-82602605D01*
X130982367Y-82411746D01*
X130853872Y-82241593D01*
X130836178Y-82225463D01*
X130696302Y-82097948D01*
X130515019Y-81985702D01*
X130515017Y-81985701D01*
X130415608Y-81947190D01*
X130316198Y-81908679D01*
X130119385Y-81871888D01*
X130057106Y-81840221D01*
X130021833Y-81779908D01*
X130024767Y-81710100D01*
X130064976Y-81652960D01*
X130119384Y-81628111D01*
X130316198Y-81591321D01*
X130515019Y-81514298D01*
X130696302Y-81402052D01*
X130853872Y-81258407D01*
X130982366Y-81088255D01*
X131015456Y-81021800D01*
X131077403Y-80897394D01*
X131077403Y-80897393D01*
X131077405Y-80897389D01*
X131135756Y-80692310D01*
X131155429Y-80480000D01*
X131135756Y-80267690D01*
X131077405Y-80062611D01*
X131077403Y-80062606D01*
X131077403Y-80062605D01*
X130982367Y-79871746D01*
X130853872Y-79701593D01*
X130828301Y-79678282D01*
X130696302Y-79557948D01*
X130515019Y-79445702D01*
X130515017Y-79445701D01*
X130414497Y-79406760D01*
X130316198Y-79368679D01*
X130119385Y-79331888D01*
X130057106Y-79300221D01*
X130021833Y-79239908D01*
X130024767Y-79170100D01*
X130064976Y-79112960D01*
X130119384Y-79088111D01*
X130316198Y-79051321D01*
X130515019Y-78974298D01*
X130696302Y-78862052D01*
X130853872Y-78718407D01*
X130982366Y-78548255D01*
X130982367Y-78548253D01*
X131077403Y-78357394D01*
X131077403Y-78357393D01*
X131077405Y-78357389D01*
X131135756Y-78152310D01*
X131155429Y-77940000D01*
X131135756Y-77727690D01*
X131077405Y-77522611D01*
X131077403Y-77522606D01*
X131077403Y-77522605D01*
X130982367Y-77331746D01*
X130853872Y-77161593D01*
X130696302Y-77017948D01*
X130515019Y-76905702D01*
X130515017Y-76905701D01*
X130353663Y-76843193D01*
X130316198Y-76828679D01*
X130119385Y-76791888D01*
X130057106Y-76760221D01*
X130021833Y-76699908D01*
X130024767Y-76630100D01*
X130064976Y-76572960D01*
X130119384Y-76548111D01*
X130316198Y-76511321D01*
X130515019Y-76434298D01*
X130696302Y-76322052D01*
X130853872Y-76178407D01*
X130982366Y-76008255D01*
X131077405Y-75817389D01*
X131135756Y-75612310D01*
X131155429Y-75400000D01*
X131135756Y-75187690D01*
X131077405Y-74982611D01*
X131077403Y-74982606D01*
X131077403Y-74982605D01*
X130982367Y-74791746D01*
X130853872Y-74621593D01*
X130696302Y-74477948D01*
X130515019Y-74365702D01*
X130515017Y-74365701D01*
X130415608Y-74327190D01*
X130316198Y-74288679D01*
X130119385Y-74251888D01*
X130057106Y-74220221D01*
X130021833Y-74159908D01*
X130024767Y-74090100D01*
X130064976Y-74032960D01*
X130119384Y-74008111D01*
X130316198Y-73971321D01*
X130515019Y-73894298D01*
X130696302Y-73782052D01*
X130853872Y-73638407D01*
X130982366Y-73468255D01*
X131077405Y-73277389D01*
X131135756Y-73072310D01*
X131155429Y-72860000D01*
X131135756Y-72647690D01*
X131077405Y-72442611D01*
X131077403Y-72442606D01*
X131077403Y-72442605D01*
X130982367Y-72251746D01*
X130853872Y-72081593D01*
X130696302Y-71937948D01*
X130515019Y-71825702D01*
X130515017Y-71825701D01*
X130415608Y-71787190D01*
X130316198Y-71748679D01*
X130119385Y-71711888D01*
X130057106Y-71680221D01*
X130021833Y-71619908D01*
X130024767Y-71550100D01*
X130064976Y-71492960D01*
X130119384Y-71468111D01*
X130316198Y-71431321D01*
X130515019Y-71354298D01*
X130696302Y-71242052D01*
X130853872Y-71098407D01*
X130982366Y-70928255D01*
X131077405Y-70737389D01*
X131135756Y-70532310D01*
X131155429Y-70320000D01*
X131135756Y-70107690D01*
X131077405Y-69902611D01*
X131077403Y-69902606D01*
X131077403Y-69902605D01*
X130982367Y-69711746D01*
X130853872Y-69541593D01*
X130696302Y-69397948D01*
X130515019Y-69285702D01*
X130515017Y-69285701D01*
X130415608Y-69247190D01*
X130316198Y-69208679D01*
X130119385Y-69171888D01*
X130057106Y-69140221D01*
X130021833Y-69079908D01*
X130024767Y-69010100D01*
X130064976Y-68952960D01*
X130119384Y-68928111D01*
X130316198Y-68891321D01*
X130515019Y-68814298D01*
X130696302Y-68702052D01*
X130853872Y-68558407D01*
X130982366Y-68388255D01*
X131077405Y-68197389D01*
X131135756Y-67992310D01*
X131155429Y-67780000D01*
X131135756Y-67567690D01*
X131077405Y-67362611D01*
X131077403Y-67362606D01*
X131077403Y-67362605D01*
X130982367Y-67171746D01*
X130853872Y-67001593D01*
X130696302Y-66857948D01*
X130515019Y-66745702D01*
X130515017Y-66745701D01*
X130415608Y-66707190D01*
X130316198Y-66668679D01*
X130119385Y-66631888D01*
X130057106Y-66600221D01*
X130021833Y-66539908D01*
X130024767Y-66470100D01*
X130064976Y-66412960D01*
X130119384Y-66388111D01*
X130316198Y-66351321D01*
X130515019Y-66274298D01*
X130696302Y-66162052D01*
X130853872Y-66018407D01*
X130982366Y-65848255D01*
X131077405Y-65657389D01*
X131135756Y-65452310D01*
X131155429Y-65240000D01*
X131135756Y-65027690D01*
X131077405Y-64822611D01*
X131077403Y-64822606D01*
X131077403Y-64822605D01*
X130982367Y-64631746D01*
X130853872Y-64461593D01*
X130696302Y-64317948D01*
X130515019Y-64205702D01*
X130515017Y-64205701D01*
X130415608Y-64167190D01*
X130316198Y-64128679D01*
X130119385Y-64091888D01*
X130057106Y-64060221D01*
X130021833Y-63999908D01*
X130024767Y-63930100D01*
X130064976Y-63872960D01*
X130119384Y-63848111D01*
X130316198Y-63811321D01*
X130515019Y-63734298D01*
X130696302Y-63622052D01*
X130853872Y-63478407D01*
X130982366Y-63308255D01*
X131077405Y-63117389D01*
X131135756Y-62912310D01*
X131155429Y-62700000D01*
X131135756Y-62487690D01*
X131077405Y-62282611D01*
X131077403Y-62282606D01*
X131077403Y-62282605D01*
X130982367Y-62091746D01*
X130877668Y-61953104D01*
X130852976Y-61887743D01*
X130860659Y-61851695D01*
X130842045Y-61858638D01*
X130773772Y-61843786D01*
X130749661Y-61826591D01*
X130696303Y-61777949D01*
X130696302Y-61777948D01*
X130515019Y-61665702D01*
X130515017Y-61665701D01*
X130415608Y-61627190D01*
X130316198Y-61588679D01*
X130119385Y-61551888D01*
X130057106Y-61520221D01*
X130021833Y-61459908D01*
X130024767Y-61390100D01*
X130064976Y-61332960D01*
X130119384Y-61308111D01*
X130316198Y-61271321D01*
X130405720Y-61236639D01*
X130475342Y-61230778D01*
X130537082Y-61263488D01*
X130538193Y-61264586D01*
X130920880Y-61647273D01*
X130954365Y-61708596D01*
X130950524Y-61762297D01*
X130984948Y-61754657D01*
X131050514Y-61778798D01*
X131064303Y-61790696D01*
X135413181Y-66139574D01*
X135446666Y-66200897D01*
X135449500Y-66227255D01*
X135449500Y-78152726D01*
X135476793Y-78254589D01*
X135488310Y-78274536D01*
X135529520Y-78345913D01*
X135529522Y-78345915D01*
X135608597Y-78424990D01*
X135642082Y-78486313D01*
X135643855Y-78496485D01*
X135664956Y-78656761D01*
X135664956Y-78656762D01*
X135700850Y-78743419D01*
X135725464Y-78802841D01*
X135821718Y-78928282D01*
X135947159Y-79024536D01*
X136093238Y-79085044D01*
X136155478Y-79093238D01*
X136249999Y-79105682D01*
X136250000Y-79105682D01*
X136250001Y-79105682D01*
X136344514Y-79093239D01*
X136406762Y-79085044D01*
X136552841Y-79024536D01*
X136678282Y-78928282D01*
X136774536Y-78802841D01*
X136835044Y-78656762D01*
X136855682Y-78500000D01*
X136835044Y-78343238D01*
X136774536Y-78197159D01*
X136773301Y-78195019D01*
X136772807Y-78192983D01*
X136771426Y-78189649D01*
X136771945Y-78189433D01*
X136756826Y-78127119D01*
X136779677Y-78061092D01*
X136834597Y-78017900D01*
X136904150Y-78011256D01*
X136966253Y-78043271D01*
X136979061Y-78057529D01*
X137071718Y-78178282D01*
X137197159Y-78274536D01*
X137343238Y-78335044D01*
X137491686Y-78354587D01*
X137555582Y-78382853D01*
X137594053Y-78441178D01*
X137599500Y-78477526D01*
X137599500Y-78743419D01*
X137579815Y-78810458D01*
X137573876Y-78818905D01*
X137475464Y-78947157D01*
X137414956Y-79093237D01*
X137414955Y-79093239D01*
X137394318Y-79249998D01*
X137394318Y-79250001D01*
X137414955Y-79406760D01*
X137414956Y-79406762D01*
X137431085Y-79445702D01*
X137475464Y-79552841D01*
X137571718Y-79678282D01*
X137571720Y-79678283D01*
X137573876Y-79681093D01*
X137599070Y-79746263D01*
X137599500Y-79756580D01*
X137599500Y-80743419D01*
X137579815Y-80810458D01*
X137573876Y-80818905D01*
X137475464Y-80947157D01*
X137414956Y-81093237D01*
X137414955Y-81093239D01*
X137394318Y-81249998D01*
X137394318Y-81250001D01*
X137414955Y-81406760D01*
X137414956Y-81406762D01*
X137459498Y-81514297D01*
X137475464Y-81552841D01*
X137571718Y-81678282D01*
X137697159Y-81774536D01*
X137843238Y-81835044D01*
X137921619Y-81845363D01*
X137999999Y-81855682D01*
X138000000Y-81855682D01*
X138000001Y-81855682D01*
X138065643Y-81847040D01*
X138156762Y-81835044D01*
X138302841Y-81774536D01*
X138392448Y-81705777D01*
X138457617Y-81680583D01*
X138526062Y-81694621D01*
X138576052Y-81743435D01*
X138591935Y-81804153D01*
X138591935Y-100735161D01*
X138619228Y-100837024D01*
X138645591Y-100882685D01*
X138671955Y-100928348D01*
X146409519Y-108665912D01*
X146409520Y-108665913D01*
X146484087Y-108740480D01*
X146567500Y-108788638D01*
X146615716Y-108839205D01*
X146629500Y-108896025D01*
X146629500Y-109314856D01*
X146629502Y-109314882D01*
X146632413Y-109339987D01*
X146632415Y-109339991D01*
X146677793Y-109442764D01*
X146677794Y-109442765D01*
X146757235Y-109522206D01*
X146860009Y-109567585D01*
X146885135Y-109570500D01*
X148674864Y-109570499D01*
X148674879Y-109570497D01*
X148674882Y-109570497D01*
X148699987Y-109567586D01*
X148699988Y-109567585D01*
X148699991Y-109567585D01*
X148802765Y-109522206D01*
X148882206Y-109442765D01*
X148927585Y-109339991D01*
X148930500Y-109314865D01*
X148930499Y-107525136D01*
X148928575Y-107508542D01*
X148927586Y-107500012D01*
X148927585Y-107500010D01*
X148927585Y-107500009D01*
X148882206Y-107397235D01*
X148802765Y-107317794D01*
X148782124Y-107308680D01*
X148699992Y-107272415D01*
X148674868Y-107269500D01*
X147946243Y-107269500D01*
X147879204Y-107249815D01*
X147833449Y-107197011D01*
X147823505Y-107127853D01*
X147852530Y-107064297D01*
X147911308Y-107026523D01*
X147923441Y-107023614D01*
X148096198Y-106991321D01*
X148295019Y-106914298D01*
X148476302Y-106802052D01*
X148633872Y-106658407D01*
X148762366Y-106488255D01*
X148857405Y-106297389D01*
X148915756Y-106092310D01*
X148935429Y-105880000D01*
X148915756Y-105667690D01*
X148857405Y-105462611D01*
X148857403Y-105462606D01*
X148857403Y-105462605D01*
X148762367Y-105271746D01*
X148633872Y-105101593D01*
X148476302Y-104957948D01*
X148295019Y-104845702D01*
X148295017Y-104845701D01*
X148116412Y-104776510D01*
X148096198Y-104768679D01*
X147899385Y-104731888D01*
X147837106Y-104700221D01*
X147801833Y-104639908D01*
X147804767Y-104570100D01*
X147844976Y-104512960D01*
X147899384Y-104488111D01*
X148096198Y-104451321D01*
X148295019Y-104374298D01*
X148476302Y-104262052D01*
X148633872Y-104118407D01*
X148762366Y-103948255D01*
X148857405Y-103757389D01*
X148915756Y-103552310D01*
X148935429Y-103340000D01*
X148915756Y-103127690D01*
X148857405Y-102922611D01*
X148857403Y-102922606D01*
X148857403Y-102922605D01*
X148762367Y-102731746D01*
X148633872Y-102561593D01*
X148476302Y-102417948D01*
X148295019Y-102305702D01*
X148295017Y-102305701D01*
X148116412Y-102236510D01*
X148096198Y-102228679D01*
X147899385Y-102191888D01*
X147837106Y-102160221D01*
X147801833Y-102099908D01*
X147804767Y-102030100D01*
X147844976Y-101972960D01*
X147899384Y-101948111D01*
X148096198Y-101911321D01*
X148295019Y-101834298D01*
X148476302Y-101722052D01*
X148633872Y-101578407D01*
X148762366Y-101408255D01*
X148857405Y-101217389D01*
X148915756Y-101012310D01*
X148935429Y-100800000D01*
X148915756Y-100587690D01*
X148857405Y-100382611D01*
X148857403Y-100382606D01*
X148857403Y-100382605D01*
X148762367Y-100191746D01*
X148633872Y-100021593D01*
X148476302Y-99877948D01*
X148295019Y-99765702D01*
X148295017Y-99765701D01*
X148116412Y-99696510D01*
X148096198Y-99688679D01*
X147899385Y-99651888D01*
X147837106Y-99620221D01*
X147801833Y-99559908D01*
X147804767Y-99490100D01*
X147844976Y-99432960D01*
X147899384Y-99408111D01*
X148096198Y-99371321D01*
X148295019Y-99294298D01*
X148476302Y-99182052D01*
X148633872Y-99038407D01*
X148762366Y-98868255D01*
X148857405Y-98677389D01*
X148915756Y-98472310D01*
X148935429Y-98260000D01*
X148915756Y-98047690D01*
X148857405Y-97842611D01*
X148857403Y-97842606D01*
X148857403Y-97842605D01*
X148762367Y-97651746D01*
X148633872Y-97481593D01*
X148476302Y-97337948D01*
X148295019Y-97225702D01*
X148295017Y-97225701D01*
X148116412Y-97156510D01*
X148096198Y-97148679D01*
X147899385Y-97111888D01*
X147837106Y-97080221D01*
X147801833Y-97019908D01*
X147804767Y-96950100D01*
X147844976Y-96892960D01*
X147899384Y-96868111D01*
X148096198Y-96831321D01*
X148295019Y-96754298D01*
X148476302Y-96642052D01*
X148633872Y-96498407D01*
X148762366Y-96328255D01*
X148802514Y-96247626D01*
X148857403Y-96137394D01*
X148857403Y-96137393D01*
X148857405Y-96137389D01*
X148915756Y-95932310D01*
X148935429Y-95720000D01*
X148915756Y-95507690D01*
X148857405Y-95302611D01*
X148857403Y-95302606D01*
X148857403Y-95302605D01*
X148762367Y-95111746D01*
X148633872Y-94941593D01*
X148591991Y-94903413D01*
X148476302Y-94797948D01*
X148295019Y-94685702D01*
X148295017Y-94685701D01*
X148195608Y-94647190D01*
X148096198Y-94608679D01*
X147899385Y-94571888D01*
X147837106Y-94540221D01*
X147801833Y-94479908D01*
X147804767Y-94410100D01*
X147844976Y-94352960D01*
X147899384Y-94328111D01*
X148096198Y-94291321D01*
X148295019Y-94214298D01*
X148476302Y-94102052D01*
X148633872Y-93958407D01*
X148762366Y-93788255D01*
X148857405Y-93597389D01*
X148915756Y-93392310D01*
X148935429Y-93180000D01*
X148915756Y-92967690D01*
X148857405Y-92762611D01*
X148857403Y-92762606D01*
X148857403Y-92762605D01*
X148762367Y-92571746D01*
X148633872Y-92401593D01*
X148476302Y-92257948D01*
X148295019Y-92145702D01*
X148295017Y-92145701D01*
X148195608Y-92107190D01*
X148096198Y-92068679D01*
X147899385Y-92031888D01*
X147837106Y-92000221D01*
X147801833Y-91939908D01*
X147804767Y-91870100D01*
X147844976Y-91812960D01*
X147899384Y-91788111D01*
X148096198Y-91751321D01*
X148295019Y-91674298D01*
X148476302Y-91562052D01*
X148633872Y-91418407D01*
X148762366Y-91248255D01*
X148857405Y-91057389D01*
X148915756Y-90852310D01*
X148935429Y-90640000D01*
X148915756Y-90427690D01*
X148857405Y-90222611D01*
X148857403Y-90222606D01*
X148857403Y-90222605D01*
X148762367Y-90031746D01*
X148633872Y-89861593D01*
X148476302Y-89717948D01*
X148295019Y-89605702D01*
X148295017Y-89605701D01*
X148195608Y-89567190D01*
X148096198Y-89528679D01*
X147899385Y-89491888D01*
X147837106Y-89460221D01*
X147801833Y-89399908D01*
X147804767Y-89330100D01*
X147844976Y-89272960D01*
X147899384Y-89248111D01*
X148096198Y-89211321D01*
X148295019Y-89134298D01*
X148476302Y-89022052D01*
X148633872Y-88878407D01*
X148762366Y-88708255D01*
X148857405Y-88517389D01*
X148915756Y-88312310D01*
X148935429Y-88100000D01*
X148915756Y-87887690D01*
X148857405Y-87682611D01*
X148857403Y-87682606D01*
X148857403Y-87682605D01*
X148762367Y-87491746D01*
X148633872Y-87321593D01*
X148476302Y-87177948D01*
X148295019Y-87065702D01*
X148295017Y-87065701D01*
X148195608Y-87027190D01*
X148096198Y-86988679D01*
X147899385Y-86951888D01*
X147837106Y-86920221D01*
X147801833Y-86859908D01*
X147804767Y-86790100D01*
X147844976Y-86732960D01*
X147899384Y-86708111D01*
X148096198Y-86671321D01*
X148295019Y-86594298D01*
X148476302Y-86482052D01*
X148633872Y-86338407D01*
X148762366Y-86168255D01*
X148857405Y-85977389D01*
X148915756Y-85772310D01*
X148935429Y-85560000D01*
X148915756Y-85347690D01*
X148857405Y-85142611D01*
X148857403Y-85142606D01*
X148857403Y-85142605D01*
X148762367Y-84951746D01*
X148633872Y-84781593D01*
X148476302Y-84637948D01*
X148295019Y-84525702D01*
X148295017Y-84525701D01*
X148195608Y-84487190D01*
X148096198Y-84448679D01*
X147886610Y-84409500D01*
X147673390Y-84409500D01*
X147463802Y-84448679D01*
X147463799Y-84448679D01*
X147463799Y-84448680D01*
X147264982Y-84525701D01*
X147264980Y-84525702D01*
X147083699Y-84637947D01*
X146926127Y-84781593D01*
X146797632Y-84951746D01*
X146702596Y-85142605D01*
X146702596Y-85142607D01*
X146644244Y-85347689D01*
X146624571Y-85559999D01*
X146624571Y-85560000D01*
X146644244Y-85772310D01*
X146702596Y-85977392D01*
X146702596Y-85977394D01*
X146797632Y-86168253D01*
X146797634Y-86168255D01*
X146926128Y-86338407D01*
X147083698Y-86482052D01*
X147264981Y-86594298D01*
X147463802Y-86671321D01*
X147660613Y-86708111D01*
X147722893Y-86739779D01*
X147758166Y-86800092D01*
X147755232Y-86869900D01*
X147715023Y-86927040D01*
X147660613Y-86951888D01*
X147463802Y-86988679D01*
X147463799Y-86988679D01*
X147463799Y-86988680D01*
X147264982Y-87065701D01*
X147264980Y-87065702D01*
X147083699Y-87177947D01*
X146926127Y-87321593D01*
X146797632Y-87491746D01*
X146702596Y-87682605D01*
X146702596Y-87682607D01*
X146644244Y-87887689D01*
X146624571Y-88099999D01*
X146624571Y-88100000D01*
X146644244Y-88312310D01*
X146702596Y-88517392D01*
X146702596Y-88517394D01*
X146797632Y-88708253D01*
X146797634Y-88708255D01*
X146926128Y-88878407D01*
X147083698Y-89022052D01*
X147264981Y-89134298D01*
X147463802Y-89211321D01*
X147660613Y-89248111D01*
X147722893Y-89279779D01*
X147758166Y-89340092D01*
X147755232Y-89409900D01*
X147715023Y-89467040D01*
X147660613Y-89491888D01*
X147463802Y-89528679D01*
X147463799Y-89528679D01*
X147463799Y-89528680D01*
X147264982Y-89605701D01*
X147264980Y-89605702D01*
X147083699Y-89717947D01*
X146926127Y-89861593D01*
X146797632Y-90031746D01*
X146702596Y-90222605D01*
X146702596Y-90222607D01*
X146644244Y-90427689D01*
X146624571Y-90639999D01*
X146624571Y-90640000D01*
X146644244Y-90852310D01*
X146702596Y-91057392D01*
X146702596Y-91057394D01*
X146797632Y-91248253D01*
X146797634Y-91248255D01*
X146926128Y-91418407D01*
X147083698Y-91562052D01*
X147264981Y-91674298D01*
X147463802Y-91751321D01*
X147660613Y-91788111D01*
X147722893Y-91819779D01*
X147758166Y-91880092D01*
X147755232Y-91949900D01*
X147715023Y-92007040D01*
X147660613Y-92031888D01*
X147463802Y-92068679D01*
X147463799Y-92068679D01*
X147463799Y-92068680D01*
X147264982Y-92145701D01*
X147264980Y-92145702D01*
X147083699Y-92257947D01*
X146926127Y-92401593D01*
X146797632Y-92571746D01*
X146702596Y-92762605D01*
X146702596Y-92762607D01*
X146644244Y-92967689D01*
X146624571Y-93179999D01*
X146624571Y-93180000D01*
X146644244Y-93392310D01*
X146702596Y-93597392D01*
X146702596Y-93597394D01*
X146797632Y-93788253D01*
X146797634Y-93788255D01*
X146926128Y-93958407D01*
X147083698Y-94102052D01*
X147264981Y-94214298D01*
X147463802Y-94291321D01*
X147660613Y-94328111D01*
X147722893Y-94359779D01*
X147758166Y-94420092D01*
X147755232Y-94489900D01*
X147715023Y-94547040D01*
X147660613Y-94571888D01*
X147463802Y-94608679D01*
X147463799Y-94608679D01*
X147463799Y-94608680D01*
X147264982Y-94685701D01*
X147264980Y-94685702D01*
X147083699Y-94797947D01*
X146926127Y-94941593D01*
X146797632Y-95111746D01*
X146702596Y-95302605D01*
X146702596Y-95302607D01*
X146644244Y-95507689D01*
X146624571Y-95719999D01*
X146624571Y-95720000D01*
X146644244Y-95932310D01*
X146702596Y-96137392D01*
X146702596Y-96137394D01*
X146797632Y-96328253D01*
X146902331Y-96466895D01*
X146927023Y-96532256D01*
X146919339Y-96568303D01*
X146937954Y-96561361D01*
X147006227Y-96576213D01*
X147030336Y-96593406D01*
X147083698Y-96642052D01*
X147264981Y-96754298D01*
X147463802Y-96831321D01*
X147660613Y-96868111D01*
X147722893Y-96899779D01*
X147758166Y-96960092D01*
X147755232Y-97029900D01*
X147715023Y-97087040D01*
X147660613Y-97111888D01*
X147463802Y-97148679D01*
X147463797Y-97148680D01*
X147374280Y-97183359D01*
X147304657Y-97189221D01*
X147242917Y-97156510D01*
X147241806Y-97155413D01*
X146859119Y-96772726D01*
X146825634Y-96711403D01*
X146829474Y-96657701D01*
X146795051Y-96665342D01*
X146729485Y-96641201D01*
X146715696Y-96629303D01*
X142836819Y-92750426D01*
X142803334Y-92689103D01*
X142800500Y-92662745D01*
X142800500Y-83470812D01*
X142820185Y-83403773D01*
X142872989Y-83358018D01*
X142940685Y-83347873D01*
X143000000Y-83355682D01*
X143000001Y-83355682D01*
X143052254Y-83348802D01*
X143156762Y-83335044D01*
X143302841Y-83274536D01*
X143428282Y-83178282D01*
X143428283Y-83178279D01*
X143431093Y-83176124D01*
X143496263Y-83150930D01*
X143506580Y-83150500D01*
X145562725Y-83150500D01*
X145562727Y-83150500D01*
X145664588Y-83123207D01*
X145755913Y-83070480D01*
X147241807Y-81584584D01*
X147303128Y-81551101D01*
X147372819Y-81556085D01*
X147374261Y-81556633D01*
X147463802Y-81591321D01*
X147673390Y-81630500D01*
X147673392Y-81630500D01*
X147886608Y-81630500D01*
X147886610Y-81630500D01*
X148096198Y-81591321D01*
X148295019Y-81514298D01*
X148476302Y-81402052D01*
X148633872Y-81258407D01*
X148762366Y-81088255D01*
X148795456Y-81021800D01*
X148857403Y-80897394D01*
X148857403Y-80897393D01*
X148857405Y-80897389D01*
X148915756Y-80692310D01*
X148935429Y-80480000D01*
X148915756Y-80267690D01*
X148857405Y-80062611D01*
X148857403Y-80062606D01*
X148857403Y-80062605D01*
X148762367Y-79871746D01*
X148633872Y-79701593D01*
X148608301Y-79678282D01*
X148476302Y-79557948D01*
X148295019Y-79445702D01*
X148295017Y-79445701D01*
X148194497Y-79406760D01*
X148096198Y-79368679D01*
X147899385Y-79331888D01*
X147837106Y-79300221D01*
X147801833Y-79239908D01*
X147804767Y-79170100D01*
X147844976Y-79112960D01*
X147899384Y-79088111D01*
X148096198Y-79051321D01*
X148295019Y-78974298D01*
X148476302Y-78862052D01*
X148633872Y-78718407D01*
X148762366Y-78548255D01*
X148762367Y-78548253D01*
X148857403Y-78357394D01*
X148857403Y-78357393D01*
X148857405Y-78357389D01*
X148915756Y-78152310D01*
X148935429Y-77940000D01*
X148915756Y-77727690D01*
X148857405Y-77522611D01*
X148857403Y-77522606D01*
X148857403Y-77522605D01*
X148762367Y-77331746D01*
X148633872Y-77161593D01*
X148476302Y-77017948D01*
X148295019Y-76905702D01*
X148295017Y-76905701D01*
X148133663Y-76843193D01*
X148096198Y-76828679D01*
X147899385Y-76791888D01*
X147837106Y-76760221D01*
X147801833Y-76699908D01*
X147804767Y-76630100D01*
X147844976Y-76572960D01*
X147899384Y-76548111D01*
X148096198Y-76511321D01*
X148295019Y-76434298D01*
X148476302Y-76322052D01*
X148633872Y-76178407D01*
X148762366Y-76008255D01*
X148857405Y-75817389D01*
X148915756Y-75612310D01*
X148935429Y-75400000D01*
X148915756Y-75187690D01*
X148857405Y-74982611D01*
X148857403Y-74982606D01*
X148857403Y-74982605D01*
X148762367Y-74791746D01*
X148633872Y-74621593D01*
X148476302Y-74477948D01*
X148295019Y-74365702D01*
X148295017Y-74365701D01*
X148195608Y-74327190D01*
X148096198Y-74288679D01*
X147899385Y-74251888D01*
X147837106Y-74220221D01*
X147801833Y-74159908D01*
X147804767Y-74090100D01*
X147844976Y-74032960D01*
X147899384Y-74008111D01*
X148096198Y-73971321D01*
X148295019Y-73894298D01*
X148476302Y-73782052D01*
X148633872Y-73638407D01*
X148762366Y-73468255D01*
X148857405Y-73277389D01*
X148915756Y-73072310D01*
X148935429Y-72860000D01*
X148915756Y-72647690D01*
X148857405Y-72442611D01*
X148857403Y-72442606D01*
X148857403Y-72442605D01*
X148762367Y-72251746D01*
X148633872Y-72081593D01*
X148476302Y-71937948D01*
X148295019Y-71825702D01*
X148295017Y-71825701D01*
X148195608Y-71787190D01*
X148096198Y-71748679D01*
X147899385Y-71711888D01*
X147837106Y-71680221D01*
X147801833Y-71619908D01*
X147804767Y-71550100D01*
X147844976Y-71492960D01*
X147899384Y-71468111D01*
X148096198Y-71431321D01*
X148295019Y-71354298D01*
X148476302Y-71242052D01*
X148633872Y-71098407D01*
X148762366Y-70928255D01*
X148857405Y-70737389D01*
X148915756Y-70532310D01*
X148935429Y-70320000D01*
X148915756Y-70107690D01*
X148857405Y-69902611D01*
X148857403Y-69902606D01*
X148857403Y-69902605D01*
X148762367Y-69711746D01*
X148633872Y-69541593D01*
X148476302Y-69397948D01*
X148295019Y-69285702D01*
X148295017Y-69285701D01*
X148195608Y-69247190D01*
X148096198Y-69208679D01*
X147899385Y-69171888D01*
X147837106Y-69140221D01*
X147801833Y-69079908D01*
X147804767Y-69010100D01*
X147844976Y-68952960D01*
X147899384Y-68928111D01*
X148096198Y-68891321D01*
X148295019Y-68814298D01*
X148476302Y-68702052D01*
X148633872Y-68558407D01*
X148762366Y-68388255D01*
X148857405Y-68197389D01*
X148915756Y-67992310D01*
X148935429Y-67780000D01*
X148915756Y-67567690D01*
X148857405Y-67362611D01*
X148857403Y-67362606D01*
X148857403Y-67362605D01*
X148762367Y-67171746D01*
X148633872Y-67001593D01*
X148476302Y-66857948D01*
X148295019Y-66745702D01*
X148295017Y-66745701D01*
X148195608Y-66707190D01*
X148096198Y-66668679D01*
X147899385Y-66631888D01*
X147837106Y-66600221D01*
X147801833Y-66539908D01*
X147804767Y-66470100D01*
X147844976Y-66412960D01*
X147899384Y-66388111D01*
X148096198Y-66351321D01*
X148295019Y-66274298D01*
X148476302Y-66162052D01*
X148633872Y-66018407D01*
X148762366Y-65848255D01*
X148857405Y-65657389D01*
X148915756Y-65452310D01*
X148935429Y-65240000D01*
X148915756Y-65027690D01*
X148857405Y-64822611D01*
X148857403Y-64822606D01*
X148857403Y-64822605D01*
X148762367Y-64631746D01*
X148633872Y-64461593D01*
X148476302Y-64317948D01*
X148295019Y-64205702D01*
X148295017Y-64205701D01*
X148195608Y-64167190D01*
X148096198Y-64128679D01*
X147899385Y-64091888D01*
X147837106Y-64060221D01*
X147801833Y-63999908D01*
X147804767Y-63930100D01*
X147844976Y-63872960D01*
X147899384Y-63848111D01*
X148096198Y-63811321D01*
X148295019Y-63734298D01*
X148476302Y-63622052D01*
X148633872Y-63478407D01*
X148762366Y-63308255D01*
X148857405Y-63117389D01*
X148915756Y-62912310D01*
X148935429Y-62700000D01*
X148915756Y-62487690D01*
X148857405Y-62282611D01*
X148857403Y-62282606D01*
X148857403Y-62282605D01*
X148762367Y-62091746D01*
X148633872Y-61921593D01*
X148476302Y-61777948D01*
X148295019Y-61665702D01*
X148295017Y-61665701D01*
X148195608Y-61627190D01*
X148096198Y-61588679D01*
X147899385Y-61551888D01*
X147837106Y-61520221D01*
X147801833Y-61459908D01*
X147804767Y-61390100D01*
X147844976Y-61332960D01*
X147899384Y-61308111D01*
X148096198Y-61271321D01*
X148295019Y-61194298D01*
X148476302Y-61082052D01*
X148633872Y-60938407D01*
X148762366Y-60768255D01*
X148857405Y-60577389D01*
X148915756Y-60372310D01*
X148935429Y-60160000D01*
X148915756Y-59947690D01*
X148857405Y-59742611D01*
X148857403Y-59742606D01*
X148857403Y-59742605D01*
X148762367Y-59551746D01*
X148633872Y-59381593D01*
X148476302Y-59237948D01*
X148295019Y-59125702D01*
X148295017Y-59125701D01*
X148195608Y-59087190D01*
X148096198Y-59048679D01*
X147899385Y-59011888D01*
X147837106Y-58980221D01*
X147801833Y-58919908D01*
X147804767Y-58850100D01*
X147844976Y-58792960D01*
X147899384Y-58768111D01*
X148096198Y-58731321D01*
X148295019Y-58654298D01*
X148476302Y-58542052D01*
X148633872Y-58398407D01*
X148762366Y-58228255D01*
X148857405Y-58037389D01*
X148915756Y-57832310D01*
X148935429Y-57620000D01*
X148915756Y-57407690D01*
X148857405Y-57202611D01*
X148857403Y-57202606D01*
X148857403Y-57202605D01*
X148762367Y-57011746D01*
X148633872Y-56841593D01*
X148476302Y-56697948D01*
X148295019Y-56585702D01*
X148295017Y-56585701D01*
X148195608Y-56547190D01*
X148096198Y-56508679D01*
X147899385Y-56471888D01*
X147837106Y-56440221D01*
X147801833Y-56379908D01*
X147804767Y-56310100D01*
X147844976Y-56252960D01*
X147899384Y-56228111D01*
X148096198Y-56191321D01*
X148295019Y-56114298D01*
X148476302Y-56002052D01*
X148633872Y-55858407D01*
X148762366Y-55688255D01*
X148857405Y-55497389D01*
X148915756Y-55292310D01*
X148935429Y-55080000D01*
X148915756Y-54867690D01*
X148857405Y-54662611D01*
X148857403Y-54662606D01*
X148857403Y-54662605D01*
X148762367Y-54471746D01*
X148633872Y-54301593D01*
X148476302Y-54157948D01*
X148295019Y-54045702D01*
X148295017Y-54045701D01*
X148195608Y-54007190D01*
X148096198Y-53968679D01*
X147886610Y-53929500D01*
X147673390Y-53929500D01*
X147463802Y-53968679D01*
X147463799Y-53968679D01*
X147463799Y-53968680D01*
X147264982Y-54045701D01*
X147264980Y-54045702D01*
X147083699Y-54157947D01*
X146926127Y-54301593D01*
X146797632Y-54471746D01*
X146702596Y-54662605D01*
X146702596Y-54662607D01*
X146644244Y-54867689D01*
X146624571Y-55079999D01*
X146624571Y-55080000D01*
X146644244Y-55292310D01*
X146702596Y-55497392D01*
X146702596Y-55497394D01*
X146797632Y-55688253D01*
X146797634Y-55688255D01*
X146926128Y-55858407D01*
X147083698Y-56002052D01*
X147264981Y-56114298D01*
X147463802Y-56191321D01*
X147660613Y-56228111D01*
X147722893Y-56259779D01*
X147758166Y-56320092D01*
X147755232Y-56389900D01*
X147715023Y-56447040D01*
X147660613Y-56471888D01*
X147463802Y-56508679D01*
X147463799Y-56508679D01*
X147463799Y-56508680D01*
X147264982Y-56585701D01*
X147264980Y-56585702D01*
X147083699Y-56697947D01*
X146926127Y-56841593D01*
X146797632Y-57011746D01*
X146702596Y-57202605D01*
X146702596Y-57202607D01*
X146644244Y-57407689D01*
X146624571Y-57619999D01*
X146624571Y-57620000D01*
X146644244Y-57832310D01*
X146702596Y-58037392D01*
X146702596Y-58037394D01*
X146797632Y-58228253D01*
X146797634Y-58228255D01*
X146926128Y-58398407D01*
X147083698Y-58542052D01*
X147264981Y-58654298D01*
X147463802Y-58731321D01*
X147660613Y-58768111D01*
X147722893Y-58799779D01*
X147758166Y-58860092D01*
X147755232Y-58929900D01*
X147715023Y-58987040D01*
X147660613Y-59011888D01*
X147463802Y-59048679D01*
X147463799Y-59048679D01*
X147463799Y-59048680D01*
X147264982Y-59125701D01*
X147264980Y-59125702D01*
X147083699Y-59237947D01*
X146926127Y-59381593D01*
X146797632Y-59551746D01*
X146702596Y-59742605D01*
X146702596Y-59742607D01*
X146644244Y-59947689D01*
X146624571Y-60159999D01*
X146624571Y-60160000D01*
X146644244Y-60372310D01*
X146702596Y-60577392D01*
X146702596Y-60577394D01*
X146797632Y-60768253D01*
X146797634Y-60768255D01*
X146926128Y-60938407D01*
X147083698Y-61082052D01*
X147264981Y-61194298D01*
X147463802Y-61271321D01*
X147660613Y-61308111D01*
X147722893Y-61339779D01*
X147758166Y-61400092D01*
X147755232Y-61469900D01*
X147715023Y-61527040D01*
X147660613Y-61551888D01*
X147463802Y-61588679D01*
X147463799Y-61588679D01*
X147463799Y-61588680D01*
X147264982Y-61665701D01*
X147264980Y-61665702D01*
X147083699Y-61777947D01*
X146926127Y-61921593D01*
X146797632Y-62091746D01*
X146702596Y-62282605D01*
X146702596Y-62282607D01*
X146644244Y-62487689D01*
X146624571Y-62699999D01*
X146624571Y-62700000D01*
X146644244Y-62912310D01*
X146702596Y-63117392D01*
X146702596Y-63117394D01*
X146797632Y-63308253D01*
X146797634Y-63308255D01*
X146926128Y-63478407D01*
X147083698Y-63622052D01*
X147264981Y-63734298D01*
X147463802Y-63811321D01*
X147660613Y-63848111D01*
X147722893Y-63879779D01*
X147758166Y-63940092D01*
X147755232Y-64009900D01*
X147715023Y-64067040D01*
X147660613Y-64091888D01*
X147463802Y-64128679D01*
X147463799Y-64128679D01*
X147463799Y-64128680D01*
X147264982Y-64205701D01*
X147264980Y-64205702D01*
X147083699Y-64317947D01*
X146926127Y-64461593D01*
X146797632Y-64631746D01*
X146702596Y-64822605D01*
X146702596Y-64822607D01*
X146644244Y-65027689D01*
X146624571Y-65239999D01*
X146624571Y-65240000D01*
X146644244Y-65452310D01*
X146702596Y-65657392D01*
X146702596Y-65657394D01*
X146797632Y-65848253D01*
X146797634Y-65848255D01*
X146926128Y-66018407D01*
X147083698Y-66162052D01*
X147264981Y-66274298D01*
X147463802Y-66351321D01*
X147660613Y-66388111D01*
X147722893Y-66419779D01*
X147758166Y-66480092D01*
X147755232Y-66549900D01*
X147715023Y-66607040D01*
X147660613Y-66631888D01*
X147463802Y-66668679D01*
X147463799Y-66668679D01*
X147463799Y-66668680D01*
X147264982Y-66745701D01*
X147264980Y-66745702D01*
X147083699Y-66857947D01*
X146926127Y-67001593D01*
X146797632Y-67171746D01*
X146702596Y-67362605D01*
X146702596Y-67362607D01*
X146644244Y-67567689D01*
X146624571Y-67779999D01*
X146624571Y-67780000D01*
X146644244Y-67992310D01*
X146702596Y-68197392D01*
X146702596Y-68197394D01*
X146797632Y-68388253D01*
X146797634Y-68388255D01*
X146926128Y-68558407D01*
X147083698Y-68702052D01*
X147264981Y-68814298D01*
X147463802Y-68891321D01*
X147660613Y-68928111D01*
X147722893Y-68959779D01*
X147758166Y-69020092D01*
X147755232Y-69089900D01*
X147715023Y-69147040D01*
X147660613Y-69171888D01*
X147463802Y-69208679D01*
X147463799Y-69208679D01*
X147463799Y-69208680D01*
X147264982Y-69285701D01*
X147264980Y-69285702D01*
X147083699Y-69397947D01*
X146926127Y-69541593D01*
X146797632Y-69711746D01*
X146702596Y-69902605D01*
X146702596Y-69902607D01*
X146644244Y-70107689D01*
X146624571Y-70319999D01*
X146624571Y-70320000D01*
X146644244Y-70532310D01*
X146702596Y-70737392D01*
X146702596Y-70737394D01*
X146797632Y-70928253D01*
X146797634Y-70928255D01*
X146926128Y-71098407D01*
X147083698Y-71242052D01*
X147264981Y-71354298D01*
X147463802Y-71431321D01*
X147660613Y-71468111D01*
X147722893Y-71499779D01*
X147758166Y-71560092D01*
X147755232Y-71629900D01*
X147715023Y-71687040D01*
X147660613Y-71711888D01*
X147463802Y-71748679D01*
X147463799Y-71748679D01*
X147463799Y-71748680D01*
X147264982Y-71825701D01*
X147264980Y-71825702D01*
X147083699Y-71937947D01*
X146926127Y-72081593D01*
X146797632Y-72251746D01*
X146702596Y-72442605D01*
X146702596Y-72442607D01*
X146644244Y-72647689D01*
X146624571Y-72859999D01*
X146624571Y-72860000D01*
X146644244Y-73072310D01*
X146702596Y-73277392D01*
X146702596Y-73277394D01*
X146797632Y-73468253D01*
X146797634Y-73468255D01*
X146926128Y-73638407D01*
X147083698Y-73782052D01*
X147264981Y-73894298D01*
X147463802Y-73971321D01*
X147660613Y-74008111D01*
X147722893Y-74039779D01*
X147758166Y-74100092D01*
X147755232Y-74169900D01*
X147715023Y-74227040D01*
X147660613Y-74251888D01*
X147463802Y-74288679D01*
X147463799Y-74288679D01*
X147463799Y-74288680D01*
X147264982Y-74365701D01*
X147264980Y-74365702D01*
X147083699Y-74477947D01*
X146926127Y-74621593D01*
X146797632Y-74791746D01*
X146702596Y-74982605D01*
X146702596Y-74982607D01*
X146644244Y-75187689D01*
X146624571Y-75399999D01*
X146624571Y-75400000D01*
X146644244Y-75612310D01*
X146702596Y-75817392D01*
X146702596Y-75817394D01*
X146797632Y-76008253D01*
X146797634Y-76008255D01*
X146926128Y-76178407D01*
X147083698Y-76322052D01*
X147264981Y-76434298D01*
X147463802Y-76511321D01*
X147660613Y-76548111D01*
X147722893Y-76579779D01*
X147758166Y-76640092D01*
X147755232Y-76709900D01*
X147715023Y-76767040D01*
X147660613Y-76791888D01*
X147463802Y-76828679D01*
X147463799Y-76828679D01*
X147463799Y-76828680D01*
X147264982Y-76905701D01*
X147264980Y-76905702D01*
X147083699Y-77017947D01*
X146926127Y-77161593D01*
X146797632Y-77331746D01*
X146702596Y-77522605D01*
X146702596Y-77522607D01*
X146644244Y-77727689D01*
X146634796Y-77829657D01*
X146624571Y-77940000D01*
X146644244Y-78152310D01*
X146699329Y-78345912D01*
X146702596Y-78357392D01*
X146702596Y-78357394D01*
X146797632Y-78548253D01*
X146926127Y-78718406D01*
X146926128Y-78718407D01*
X147083698Y-78862052D01*
X147264981Y-78974298D01*
X147463802Y-79051321D01*
X147660613Y-79088111D01*
X147722893Y-79119779D01*
X147758166Y-79180092D01*
X147755232Y-79249900D01*
X147715023Y-79307040D01*
X147660613Y-79331888D01*
X147463802Y-79368679D01*
X147463799Y-79368679D01*
X147463799Y-79368680D01*
X147264982Y-79445701D01*
X147264980Y-79445702D01*
X147083699Y-79557947D01*
X146926127Y-79701593D01*
X146797632Y-79871746D01*
X146702596Y-80062605D01*
X146702596Y-80062607D01*
X146644244Y-80267689D01*
X146624571Y-80479999D01*
X146624571Y-80480000D01*
X146644244Y-80692310D01*
X146703390Y-80900184D01*
X146702804Y-80970052D01*
X146671805Y-81021800D01*
X145380426Y-82313181D01*
X145319103Y-82346666D01*
X145292745Y-82349500D01*
X143506580Y-82349500D01*
X143439541Y-82329815D01*
X143431093Y-82323876D01*
X143428283Y-82321720D01*
X143428282Y-82321718D01*
X143302841Y-82225464D01*
X143156762Y-82164956D01*
X143156760Y-82164955D01*
X143000001Y-82144318D01*
X142999997Y-82144318D01*
X142940684Y-82152126D01*
X142871649Y-82141360D01*
X142819393Y-82094979D01*
X142800500Y-82029187D01*
X142800500Y-79477680D01*
X142817112Y-79415681D01*
X142826031Y-79400234D01*
X142853324Y-79298374D01*
X142853324Y-78212868D01*
X142853325Y-78212855D01*
X142853325Y-78097414D01*
X142853325Y-78097412D01*
X142826031Y-77995551D01*
X142787907Y-77929520D01*
X142773304Y-77904226D01*
X142728903Y-77859825D01*
X142695418Y-77798502D01*
X142693645Y-77788329D01*
X142693182Y-77784814D01*
X142672545Y-77628054D01*
X142612037Y-77481975D01*
X142515783Y-77356534D01*
X142390342Y-77260280D01*
X142244263Y-77199772D01*
X142244261Y-77199771D01*
X142087502Y-77179134D01*
X142087500Y-77179134D01*
X141930740Y-77199771D01*
X141930738Y-77199772D01*
X141784661Y-77260279D01*
X141659219Y-77356534D01*
X141562964Y-77481976D01*
X141502457Y-77628053D01*
X141502456Y-77628055D01*
X141481819Y-77784814D01*
X141481819Y-77784817D01*
X141502456Y-77941576D01*
X141502458Y-77941581D01*
X141547913Y-78051321D01*
X141555382Y-78120790D01*
X141524106Y-78183269D01*
X141480803Y-78213335D01*
X141436276Y-78231778D01*
X141366807Y-78239245D01*
X141304328Y-78207970D01*
X141290451Y-78192704D01*
X141284439Y-78184870D01*
X141281801Y-78181432D01*
X141156360Y-78085178D01*
X141132908Y-78075464D01*
X141010281Y-78024670D01*
X141010279Y-78024669D01*
X140853520Y-78004032D01*
X140853518Y-78004032D01*
X140696758Y-78024669D01*
X140696753Y-78024671D01*
X140659740Y-78040002D01*
X140590271Y-78047469D01*
X140527792Y-78016193D01*
X140497729Y-77972893D01*
X140479763Y-77929520D01*
X140471236Y-77908933D01*
X140374982Y-77783492D01*
X140249541Y-77687238D01*
X140103462Y-77626730D01*
X140103460Y-77626729D01*
X139946701Y-77606092D01*
X139946699Y-77606092D01*
X139789939Y-77626729D01*
X139789937Y-77626730D01*
X139643860Y-77687237D01*
X139518418Y-77783492D01*
X139422164Y-77908933D01*
X139392156Y-77981378D01*
X139348314Y-78035781D01*
X139282020Y-78057845D01*
X139230143Y-78048485D01*
X139149197Y-78014956D01*
X139149195Y-78014955D01*
X138992436Y-77994318D01*
X138992434Y-77994318D01*
X138905125Y-78005812D01*
X138836089Y-77995046D01*
X138783834Y-77948666D01*
X138764949Y-77881397D01*
X138785430Y-77814596D01*
X138814012Y-77784071D01*
X138866445Y-77744311D01*
X138955807Y-77626469D01*
X139010062Y-77488888D01*
X139020445Y-77402429D01*
X139020445Y-76843193D01*
X139010062Y-76756734D01*
X138955807Y-76619153D01*
X138920778Y-76572960D01*
X138866445Y-76501310D01*
X138748605Y-76411950D01*
X138748603Y-76411949D01*
X138611022Y-76357694D01*
X138611021Y-76357693D01*
X138611019Y-76357693D01*
X138524564Y-76347311D01*
X138524563Y-76347311D01*
X137840327Y-76347311D01*
X137840326Y-76347311D01*
X137753870Y-76357693D01*
X137753866Y-76357694D01*
X137669989Y-76390771D01*
X137600402Y-76397052D01*
X137538466Y-76364714D01*
X137503846Y-76304025D01*
X137500500Y-76275416D01*
X137500500Y-75220381D01*
X142524500Y-75220381D01*
X142524500Y-75779618D01*
X142534882Y-75866074D01*
X142534882Y-75866075D01*
X142589139Y-76003660D01*
X142678499Y-76121500D01*
X142753542Y-76178406D01*
X142796342Y-76210862D01*
X142933923Y-76265117D01*
X142991562Y-76272039D01*
X143020381Y-76275500D01*
X143020382Y-76275500D01*
X143704619Y-76275500D01*
X143726232Y-76272904D01*
X143791077Y-76265117D01*
X143928658Y-76210862D01*
X144046500Y-76121500D01*
X144135862Y-76003658D01*
X144190117Y-75866077D01*
X144200500Y-75779618D01*
X144200500Y-75220382D01*
X144190117Y-75133923D01*
X144135862Y-74996342D01*
X144125450Y-74982611D01*
X144046500Y-74878499D01*
X143928660Y-74789139D01*
X143928658Y-74789138D01*
X143791077Y-74734883D01*
X143791076Y-74734882D01*
X143791074Y-74734882D01*
X143704619Y-74724500D01*
X143704618Y-74724500D01*
X143020382Y-74724500D01*
X143020381Y-74724500D01*
X142933925Y-74734882D01*
X142933924Y-74734882D01*
X142796339Y-74789139D01*
X142678499Y-74878499D01*
X142589139Y-74996339D01*
X142534882Y-75133924D01*
X142534882Y-75133925D01*
X142524500Y-75220381D01*
X137500500Y-75220381D01*
X137500500Y-59587275D01*
X137500500Y-59587273D01*
X137473207Y-59485412D01*
X137420480Y-59394087D01*
X131108194Y-53081801D01*
X131074709Y-53020478D01*
X131076609Y-52960185D01*
X131077405Y-52957389D01*
X131135756Y-52752310D01*
X131155429Y-52540000D01*
X131135756Y-52327690D01*
X131077405Y-52122611D01*
X131077403Y-52122606D01*
X131077403Y-52122605D01*
X130982367Y-51931746D01*
X130853872Y-51761593D01*
X130696302Y-51617948D01*
X130515019Y-51505702D01*
X130515017Y-51505701D01*
X130415608Y-51467190D01*
X130316198Y-51428679D01*
X130143456Y-51396387D01*
X130081176Y-51364719D01*
X130045903Y-51304407D01*
X130048837Y-51234599D01*
X130089046Y-51177459D01*
X130153764Y-51151128D01*
X130166233Y-51150499D01*
X130894864Y-51150499D01*
X130894879Y-51150497D01*
X130894882Y-51150497D01*
X130919987Y-51147586D01*
X130919988Y-51147585D01*
X130919991Y-51147585D01*
X131022765Y-51102206D01*
X131102206Y-51022765D01*
X131147585Y-50919991D01*
X131150500Y-50894865D01*
X131150499Y-49999999D01*
X146624571Y-49999999D01*
X146624571Y-50000000D01*
X146644244Y-50212310D01*
X146702596Y-50417392D01*
X146702596Y-50417394D01*
X146797632Y-50608253D01*
X146797634Y-50608255D01*
X146926128Y-50778407D01*
X147083698Y-50922052D01*
X147264981Y-51034298D01*
X147463802Y-51111321D01*
X147673390Y-51150500D01*
X147673392Y-51150500D01*
X147886608Y-51150500D01*
X147886610Y-51150500D01*
X148096198Y-51111321D01*
X148295019Y-51034298D01*
X148476302Y-50922052D01*
X148633872Y-50778407D01*
X148762366Y-50608255D01*
X148857405Y-50417389D01*
X148915756Y-50212310D01*
X148935429Y-50000000D01*
X148915756Y-49787690D01*
X148857405Y-49582611D01*
X148857403Y-49582606D01*
X148857403Y-49582605D01*
X148762367Y-49391746D01*
X148633872Y-49221593D01*
X148506133Y-49105143D01*
X148476302Y-49077948D01*
X148295019Y-48965702D01*
X148295017Y-48965701D01*
X148195608Y-48927190D01*
X148096198Y-48888679D01*
X147886610Y-48849500D01*
X147673390Y-48849500D01*
X147463802Y-48888679D01*
X147463799Y-48888679D01*
X147463799Y-48888680D01*
X147264982Y-48965701D01*
X147264980Y-48965702D01*
X147083699Y-49077947D01*
X146926127Y-49221593D01*
X146797632Y-49391746D01*
X146702596Y-49582605D01*
X146702596Y-49582607D01*
X146644244Y-49787689D01*
X146624571Y-49999999D01*
X131150499Y-49999999D01*
X131150499Y-49105136D01*
X131150497Y-49105117D01*
X131147586Y-49080012D01*
X131147585Y-49080010D01*
X131147585Y-49080009D01*
X131102206Y-48977235D01*
X131022765Y-48897794D01*
X131002124Y-48888680D01*
X130919992Y-48852415D01*
X130894865Y-48849500D01*
X129105143Y-48849500D01*
X129105117Y-48849502D01*
X129080012Y-48852413D01*
X129080008Y-48852415D01*
X128977235Y-48897793D01*
X128897794Y-48977234D01*
X128852415Y-49080006D01*
X128852415Y-49080008D01*
X128849500Y-49105131D01*
X128849500Y-50894856D01*
X128849502Y-50894882D01*
X128852413Y-50919987D01*
X128852415Y-50919991D01*
X128897793Y-51022764D01*
X128897794Y-51022765D01*
X128977235Y-51102206D01*
X129080009Y-51147585D01*
X129105135Y-51150500D01*
X129833758Y-51150499D01*
X129900795Y-51170183D01*
X129946550Y-51222987D01*
X129956494Y-51292146D01*
X129927469Y-51355702D01*
X129868691Y-51393476D01*
X129856542Y-51396388D01*
X129800116Y-51406935D01*
X129683802Y-51428679D01*
X129683800Y-51428679D01*
X129683798Y-51428680D01*
X129484982Y-51505701D01*
X129484980Y-51505702D01*
X129303699Y-51617947D01*
X129146127Y-51761593D01*
X129017632Y-51931746D01*
X128922596Y-52122605D01*
X128922596Y-52122607D01*
X128864244Y-52327689D01*
X128844571Y-52539999D01*
X128250500Y-52539999D01*
X128250500Y-48374500D01*
X128270185Y-48307461D01*
X128322989Y-48261706D01*
X128374500Y-48250500D01*
X149375500Y-48250500D01*
X149442539Y-48270185D01*
G37*
%TD.AperFunction*%
%TD*%
M02*
