%TF.GenerationSoftware,KiCad,Pcbnew,8.0.7*%
%TF.CreationDate,2025-02-16T23:10:18-06:00*%
%TF.ProjectId,MCU,4d43552e-6b69-4636-9164-5f7063625858,rev?*%
%TF.SameCoordinates,Original*%
%TF.FileFunction,Copper,L1,Top*%
%TF.FilePolarity,Positive*%
%FSLAX46Y46*%
G04 Gerber Fmt 4.6, Leading zero omitted, Abs format (unit mm)*
G04 Created by KiCad (PCBNEW 8.0.7) date 2025-02-16 23:10:18*
%MOMM*%
%LPD*%
G01*
G04 APERTURE LIST*
G04 Aperture macros list*
%AMRoundRect*
0 Rectangle with rounded corners*
0 $1 Rounding radius*
0 $2 $3 $4 $5 $6 $7 $8 $9 X,Y pos of 4 corners*
0 Add a 4 corners polygon primitive as box body*
4,1,4,$2,$3,$4,$5,$6,$7,$8,$9,$2,$3,0*
0 Add four circle primitives for the rounded corners*
1,1,$1+$1,$2,$3*
1,1,$1+$1,$4,$5*
1,1,$1+$1,$6,$7*
1,1,$1+$1,$8,$9*
0 Add four rect primitives between the rounded corners*
20,1,$1+$1,$2,$3,$4,$5,0*
20,1,$1+$1,$4,$5,$6,$7,0*
20,1,$1+$1,$6,$7,$8,$9,0*
20,1,$1+$1,$8,$9,$2,$3,0*%
G04 Aperture macros list end*
%TA.AperFunction,ComponentPad*%
%ADD10R,1.700000X1.700000*%
%TD*%
%TA.AperFunction,ComponentPad*%
%ADD11O,1.700000X1.700000*%
%TD*%
%TA.AperFunction,SMDPad,CuDef*%
%ADD12RoundRect,0.075000X-0.662500X-0.075000X0.662500X-0.075000X0.662500X0.075000X-0.662500X0.075000X0*%
%TD*%
%TA.AperFunction,SMDPad,CuDef*%
%ADD13RoundRect,0.075000X-0.075000X-0.662500X0.075000X-0.662500X0.075000X0.662500X-0.075000X0.662500X0*%
%TD*%
%TA.AperFunction,ViaPad*%
%ADD14C,0.600000*%
%TD*%
%TA.AperFunction,Conductor*%
%ADD15C,0.200000*%
%TD*%
G04 APERTURE END LIST*
D10*
%TO.P,J2,1,Pin_1*%
%TO.N,/25*%
X147780000Y-108420000D03*
D11*
%TO.P,J2,2,Pin_2*%
%TO.N,/26*%
X147780000Y-105880000D03*
%TO.P,J2,3,Pin_3*%
%TO.N,/27*%
X147780000Y-103340000D03*
%TO.P,J2,4,Pin_4*%
%TO.N,/28*%
X147780000Y-100800000D03*
%TO.P,J2,5,Pin_5*%
%TO.N,/29*%
X147780000Y-98260000D03*
%TO.P,J2,6,Pin_6*%
%TO.N,/30*%
X147780000Y-95720000D03*
%TO.P,J2,7,Pin_7*%
%TO.N,/31*%
X147780000Y-93180000D03*
%TO.P,J2,8,Pin_8*%
%TO.N,/32*%
X147780000Y-90640000D03*
%TO.P,J2,9,Pin_9*%
%TO.N,/33*%
X147780000Y-88100000D03*
%TO.P,J2,10,Pin_10*%
%TO.N,/34*%
X147780000Y-85560000D03*
%TO.P,J2,11,Pin_11*%
%TO.N,GND*%
X147780000Y-83020000D03*
%TO.P,J2,12,Pin_12*%
%TO.N,VDD*%
X147780000Y-80480000D03*
%TO.P,J2,13,Pin_13*%
%TO.N,/37*%
X147780000Y-77940000D03*
%TO.P,J2,14,Pin_14*%
%TO.N,/38*%
X147780000Y-75400000D03*
%TO.P,J2,15,Pin_15*%
%TO.N,/39*%
X147780000Y-72860000D03*
%TO.P,J2,16,Pin_16*%
%TO.N,/40*%
X147780000Y-70320000D03*
%TO.P,J2,17,Pin_17*%
%TO.N,/41*%
X147780000Y-67780000D03*
%TO.P,J2,18,Pin_18*%
%TO.N,/42*%
X147780000Y-65240000D03*
%TO.P,J2,19,Pin_19*%
%TO.N,/43*%
X147780000Y-62700000D03*
%TO.P,J2,20,Pin_20*%
%TO.N,/44*%
X147780000Y-60160000D03*
%TO.P,J2,21,Pin_21*%
%TO.N,/45*%
X147780000Y-57620000D03*
%TO.P,J2,22,Pin_22*%
%TO.N,/46*%
X147780000Y-55080000D03*
%TO.P,J2,23,Pin_23*%
%TO.N,GND*%
X147780000Y-52540000D03*
%TO.P,J2,24,Pin_24*%
%TO.N,VDD*%
X147780000Y-50000000D03*
%TD*%
D12*
%TO.P,U1,1,VBAT*%
%TO.N,VDD*%
X135000000Y-75750000D03*
%TO.P,U1,2,PC13*%
%TO.N,/2*%
X135000000Y-76250000D03*
%TO.P,U1,3,PC14*%
%TO.N,/3*%
X135000000Y-76750000D03*
%TO.P,U1,4,PC15*%
%TO.N,/4*%
X135000000Y-77250000D03*
%TO.P,U1,5,PF0*%
%TO.N,/5*%
X135000000Y-77750000D03*
%TO.P,U1,6,PF1*%
%TO.N,/6*%
X135000000Y-78250000D03*
%TO.P,U1,7,PG10*%
%TO.N,/7*%
X135000000Y-78750000D03*
%TO.P,U1,8,PA0*%
%TO.N,Net-(J1-Pin_8)*%
X135000000Y-79250000D03*
%TO.P,U1,9,PA1*%
%TO.N,Net-(J1-Pin_9)*%
X135000000Y-79750000D03*
%TO.P,U1,10,PA2*%
%TO.N,Net-(J1-Pin_10)*%
X135000000Y-80250000D03*
%TO.P,U1,11,PA3*%
%TO.N,Net-(J1-Pin_11)*%
X135000000Y-80750000D03*
%TO.P,U1,12,PA4*%
%TO.N,Net-(J1-Pin_12)*%
X135000000Y-81250000D03*
D13*
%TO.P,U1,13,PA5*%
%TO.N,Net-(J1-Pin_13)*%
X136412500Y-82662500D03*
%TO.P,U1,14,PA6*%
%TO.N,Net-(J1-Pin_14)*%
X136912500Y-82662500D03*
%TO.P,U1,15,PA7*%
%TO.N,Net-(J1-Pin_15)*%
X137412500Y-82662500D03*
%TO.P,U1,16,PB0*%
%TO.N,/16*%
X137912500Y-82662500D03*
%TO.P,U1,17,PB1*%
%TO.N,/17*%
X138412500Y-82662500D03*
%TO.P,U1,18,PB2*%
%TO.N,/18*%
X138912500Y-82662500D03*
%TO.P,U1,19,VSSA*%
%TO.N,GND*%
X139412500Y-82662500D03*
%TO.P,U1,20,VREF+*%
%TO.N,/20*%
X139912500Y-82662500D03*
%TO.P,U1,21,VDDA*%
%TO.N,VDD*%
X140412500Y-82662500D03*
%TO.P,U1,22,PB10*%
%TO.N,/22*%
X140912500Y-82662500D03*
%TO.P,U1,23,VSS*%
%TO.N,GND*%
X141412500Y-82662500D03*
%TO.P,U1,24,VDD*%
%TO.N,VDD*%
X141912500Y-82662500D03*
D12*
%TO.P,U1,25,PB11*%
%TO.N,/25*%
X143325000Y-81250000D03*
%TO.P,U1,26,PB12*%
%TO.N,/26*%
X143325000Y-80750000D03*
%TO.P,U1,27,PB13*%
%TO.N,/27*%
X143325000Y-80250000D03*
%TO.P,U1,28,PB14*%
%TO.N,/28*%
X143325000Y-79750000D03*
%TO.P,U1,29,PB15*%
%TO.N,/29*%
X143325000Y-79250000D03*
%TO.P,U1,30,PA8*%
%TO.N,/30*%
X143325000Y-78750000D03*
%TO.P,U1,31,PA9*%
%TO.N,/31*%
X143325000Y-78250000D03*
%TO.P,U1,32,PA10*%
%TO.N,/32*%
X143325000Y-77750000D03*
%TO.P,U1,33,PA11*%
%TO.N,/33*%
X143325000Y-77250000D03*
%TO.P,U1,34,PA12*%
%TO.N,/34*%
X143325000Y-76750000D03*
%TO.P,U1,35,VSS*%
%TO.N,GND*%
X143325000Y-76250000D03*
%TO.P,U1,36,VDD*%
%TO.N,VDD*%
X143325000Y-75750000D03*
D13*
%TO.P,U1,37,PA13*%
%TO.N,/37*%
X141912500Y-74337500D03*
%TO.P,U1,38,PA14*%
%TO.N,/38*%
X141412500Y-74337500D03*
%TO.P,U1,39,PA15*%
%TO.N,/39*%
X140912500Y-74337500D03*
%TO.P,U1,40,PB3*%
%TO.N,/40*%
X140412500Y-74337500D03*
%TO.P,U1,41,PB4*%
%TO.N,/41*%
X139912500Y-74337500D03*
%TO.P,U1,42,PB5*%
%TO.N,/42*%
X139412500Y-74337500D03*
%TO.P,U1,43,PB6*%
%TO.N,/43*%
X138912500Y-74337500D03*
%TO.P,U1,44,PB7*%
%TO.N,/44*%
X138412500Y-74337500D03*
%TO.P,U1,45,PB8*%
%TO.N,/45*%
X137912500Y-74337500D03*
%TO.P,U1,46,PB9*%
%TO.N,/46*%
X137412500Y-74337500D03*
%TO.P,U1,47,VSS*%
%TO.N,GND*%
X136912500Y-74337500D03*
%TO.P,U1,48,VDD*%
%TO.N,VDD*%
X136412500Y-74337500D03*
%TD*%
D10*
%TO.P,J1,1,Pin_1*%
%TO.N,VDD*%
X130000000Y-50000000D03*
D11*
%TO.P,J1,2,Pin_2*%
%TO.N,/2*%
X130000000Y-52540000D03*
%TO.P,J1,3,Pin_3*%
%TO.N,/3*%
X130000000Y-55080000D03*
%TO.P,J1,4,Pin_4*%
%TO.N,/4*%
X130000000Y-57620000D03*
%TO.P,J1,5,Pin_5*%
%TO.N,/5*%
X130000000Y-60160000D03*
%TO.P,J1,6,Pin_6*%
%TO.N,/6*%
X130000000Y-62700000D03*
%TO.P,J1,7,Pin_7*%
%TO.N,/7*%
X130000000Y-65240000D03*
%TO.P,J1,8,Pin_8*%
%TO.N,Net-(J1-Pin_8)*%
X130000000Y-67780000D03*
%TO.P,J1,9,Pin_9*%
%TO.N,Net-(J1-Pin_9)*%
X130000000Y-70320000D03*
%TO.P,J1,10,Pin_10*%
%TO.N,Net-(J1-Pin_10)*%
X130000000Y-72860000D03*
%TO.P,J1,11,Pin_11*%
%TO.N,Net-(J1-Pin_11)*%
X130000000Y-75400000D03*
%TO.P,J1,12,Pin_12*%
%TO.N,Net-(J1-Pin_12)*%
X130000000Y-77940000D03*
%TO.P,J1,13,Pin_13*%
%TO.N,Net-(J1-Pin_13)*%
X130000000Y-80480000D03*
%TO.P,J1,14,Pin_14*%
%TO.N,Net-(J1-Pin_14)*%
X130000000Y-83020000D03*
%TO.P,J1,15,Pin_15*%
%TO.N,Net-(J1-Pin_15)*%
X130000000Y-85560000D03*
%TO.P,J1,16,Pin_16*%
%TO.N,/16*%
X130000000Y-88100000D03*
%TO.P,J1,17,Pin_17*%
%TO.N,/17*%
X130000000Y-90640000D03*
%TO.P,J1,18,Pin_18*%
%TO.N,/18*%
X130000000Y-93180000D03*
%TO.P,J1,19,Pin_19*%
%TO.N,GND*%
X130000000Y-95720000D03*
%TO.P,J1,20,Pin_20*%
%TO.N,/20*%
X130000000Y-98260000D03*
%TO.P,J1,21,Pin_21*%
%TO.N,VDD*%
X130000000Y-100800000D03*
%TO.P,J1,22,Pin_22*%
%TO.N,/22*%
X130000000Y-103340000D03*
%TO.P,J1,23,Pin_23*%
%TO.N,GND*%
X130000000Y-105880000D03*
%TO.P,J1,24,Pin_24*%
%TO.N,VDD*%
X130000000Y-108420000D03*
%TD*%
D14*
%TO.N,GND*%
X139750000Y-77250000D03*
%TO.N,VDD*%
X143362500Y-75500000D03*
X137500000Y-77750000D03*
X138000000Y-81250000D03*
X138000000Y-79250000D03*
X143000000Y-82750000D03*
%TO.N,GND*%
X139000000Y-55500000D03*
X141750000Y-49750000D03*
X137000000Y-49750000D03*
X139500000Y-75750000D03*
X141626632Y-75558428D03*
X137250000Y-80750000D03*
X135500000Y-108750000D03*
X141750000Y-108750000D03*
X143750000Y-89250000D03*
X143750000Y-84250000D03*
%TO.N,/2*%
X137100000Y-76943617D03*
%TO.N,/4*%
X136500000Y-77500000D03*
%TO.N,/5*%
X136250000Y-78500000D03*
%TO.N,/25*%
X138992435Y-78600000D03*
%TO.N,/26*%
X139946700Y-78211774D03*
%TO.N,/27*%
X140853519Y-78609714D03*
%TO.N,/28*%
X141637500Y-78798406D03*
%TO.N,/29*%
X142087501Y-77784816D03*
%TD*%
D15*
%TO.N,/26*%
X140081372Y-78346446D02*
X139946700Y-78211774D01*
X140081372Y-78700000D02*
X140081372Y-78346446D01*
X143325000Y-80750000D02*
X142131372Y-80750000D01*
X142131372Y-80750000D02*
X140081372Y-78700000D01*
%TO.N,/25*%
X138992435Y-78600000D02*
X139415686Y-78600000D01*
X139415686Y-78600000D02*
X142065686Y-81250000D01*
X142065686Y-81250000D02*
X143325000Y-81250000D01*
%TO.N,GND*%
X137915685Y-76100000D02*
X138282843Y-76467157D01*
X138282843Y-76467157D02*
X138400000Y-76584315D01*
X139750000Y-77250000D02*
X139065686Y-77250000D01*
X139065686Y-77250000D02*
X138282843Y-76467157D01*
%TO.N,VDD*%
X144631371Y-75750000D02*
X143325000Y-75750000D01*
X135000000Y-75750000D02*
X136412500Y-74337500D01*
%TO.N,GND*%
X137350000Y-78980761D02*
X137350000Y-79519239D01*
X138065685Y-76250000D02*
X137915685Y-76100000D01*
%TO.N,/2*%
X135000000Y-76250000D02*
X136406383Y-76250000D01*
%TO.N,GND*%
X141412500Y-81892590D02*
X141412500Y-82662500D01*
%TO.N,/2*%
X136406383Y-76250000D02*
X137100000Y-76943617D01*
%TO.N,GND*%
X138680761Y-80850000D02*
X140369910Y-80850000D01*
X140369910Y-80850000D02*
X141412500Y-81892590D01*
X143325000Y-76250000D02*
X138065685Y-76250000D01*
X136912500Y-75107410D02*
X136912500Y-74337500D01*
%TO.N,VDD*%
X137700000Y-76695088D02*
X136754912Y-75750000D01*
%TO.N,GND*%
X138400000Y-76584315D02*
X138400000Y-77930761D01*
%TO.N,VDD*%
X137700000Y-77550000D02*
X137700000Y-76695088D01*
%TO.N,GND*%
X137350000Y-79519239D02*
X138680761Y-80850000D01*
X138400000Y-77930761D02*
X137350000Y-78980761D01*
X137915685Y-76100000D02*
X137905090Y-76100000D01*
X137905090Y-76100000D02*
X136912500Y-75107410D01*
%TO.N,VDD*%
X137500000Y-77750000D02*
X137700000Y-77550000D01*
X136754912Y-75750000D02*
X135000000Y-75750000D01*
X138000000Y-81250000D02*
X139769910Y-81250000D01*
X139769910Y-81250000D02*
X140412500Y-81892590D01*
X140412500Y-81892590D02*
X140412500Y-82662500D01*
X143000000Y-82750000D02*
X139500000Y-79250000D01*
%TO.N,/29*%
X142087501Y-78317591D02*
X142087501Y-77784816D01*
X142287500Y-78982410D02*
X142287500Y-78517590D01*
X143325000Y-79250000D02*
X142555090Y-79250000D01*
%TO.N,/28*%
X143325000Y-79750000D02*
X142489404Y-79750000D01*
%TO.N,/29*%
X142287500Y-78517590D02*
X142087501Y-78317591D01*
%TO.N,/27*%
X143325000Y-80250000D02*
X142197058Y-80250000D01*
%TO.N,/28*%
X141637500Y-78898096D02*
X141637500Y-78798406D01*
%TO.N,/27*%
X142197058Y-80250000D02*
X140853519Y-78906461D01*
%TO.N,/29*%
X142555090Y-79250000D02*
X142287500Y-78982410D01*
%TO.N,/28*%
X142489404Y-79750000D02*
X141637500Y-78898096D01*
%TO.N,VDD*%
X139500000Y-79250000D02*
X138000000Y-79250000D01*
%TO.N,/27*%
X140853519Y-78906461D02*
X140853519Y-78609714D01*
%TO.N,VDD*%
X143000000Y-82750000D02*
X142000000Y-82750000D01*
X142000000Y-82750000D02*
X141912500Y-82662500D01*
X135000000Y-75750000D02*
X135000000Y-55000000D01*
X135000000Y-55000000D02*
X130000000Y-50000000D01*
%TO.N,/3*%
X135000000Y-76750000D02*
X134230090Y-76750000D01*
X134230090Y-76750000D02*
X133800000Y-76319910D01*
X133800000Y-76319910D02*
X133800000Y-58880000D01*
X133800000Y-58880000D02*
X130000000Y-55080000D01*
%TO.N,/4*%
X135000000Y-77250000D02*
X136250000Y-77250000D01*
X136250000Y-77250000D02*
X136500000Y-77500000D01*
%TO.N,/5*%
X135000000Y-77750000D02*
X135769910Y-77750000D01*
X135769910Y-77750000D02*
X136250000Y-78230090D01*
X136250000Y-78230090D02*
X136250000Y-78500000D01*
%TO.N,/6*%
X135000000Y-78250000D02*
X134230090Y-78250000D01*
X134230090Y-78250000D02*
X133400000Y-77419910D01*
X133400000Y-66100000D02*
X130000000Y-62700000D01*
X133400000Y-77419910D02*
X133400000Y-66100000D01*
%TO.N,Net-(J1-Pin_9)*%
X133868628Y-79750000D02*
X132200000Y-78081372D01*
%TO.N,Net-(J1-Pin_11)*%
X131400000Y-78412744D02*
X131400000Y-76800000D01*
%TO.N,/7*%
X133000000Y-77750000D02*
X133000000Y-68240000D01*
%TO.N,Net-(J1-Pin_11)*%
X135000000Y-80750000D02*
X133737256Y-80750000D01*
%TO.N,/7*%
X135000000Y-78750000D02*
X134000000Y-78750000D01*
%TO.N,Net-(J1-Pin_10)*%
X135000000Y-80250000D02*
X133802942Y-80250000D01*
%TO.N,Net-(J1-Pin_8)*%
X132600000Y-70380000D02*
X130000000Y-67780000D01*
%TO.N,Net-(J1-Pin_11)*%
X131400000Y-76800000D02*
X130000000Y-75400000D01*
%TO.N,Net-(J1-Pin_9)*%
X132200000Y-78081372D02*
X132200000Y-72520000D01*
%TO.N,Net-(J1-Pin_10)*%
X131800000Y-78247058D02*
X131800000Y-74660000D01*
%TO.N,/7*%
X134000000Y-78750000D02*
X133000000Y-77750000D01*
%TO.N,Net-(J1-Pin_10)*%
X133802942Y-80250000D02*
X131800000Y-78247058D01*
%TO.N,Net-(J1-Pin_8)*%
X132600000Y-77915686D02*
X132600000Y-70380000D01*
%TO.N,Net-(J1-Pin_11)*%
X133737256Y-80750000D02*
X131400000Y-78412744D01*
%TO.N,Net-(J1-Pin_9)*%
X132200000Y-72520000D02*
X130000000Y-70320000D01*
%TO.N,Net-(J1-Pin_10)*%
X131800000Y-74660000D02*
X130000000Y-72860000D01*
%TO.N,Net-(J1-Pin_9)*%
X135000000Y-79750000D02*
X133868628Y-79750000D01*
%TO.N,Net-(J1-Pin_8)*%
X133934314Y-79250000D02*
X132600000Y-77915686D01*
X135000000Y-79250000D02*
X133934314Y-79250000D01*
%TO.N,/7*%
X133000000Y-68240000D02*
X130000000Y-65240000D01*
%TO.N,Net-(J1-Pin_12)*%
X131900000Y-81250000D02*
X131150000Y-80500000D01*
X131150000Y-79915686D02*
X130000000Y-78765686D01*
X130000000Y-78765686D02*
X130000000Y-77940000D01*
X131150000Y-80500000D02*
X131150000Y-79915686D01*
X135000000Y-81250000D02*
X131900000Y-81250000D01*
%TO.N,Net-(J1-Pin_13)*%
X136412500Y-82662500D02*
X132182500Y-82662500D01*
X132182500Y-82662500D02*
X130000000Y-80480000D01*
%TO.N,Net-(J1-Pin_14)*%
X136912500Y-82662500D02*
X136912500Y-83432410D01*
X136912500Y-83432410D02*
X136644910Y-83700000D01*
X136644910Y-83700000D02*
X130680000Y-83700000D01*
X130680000Y-83700000D02*
X130000000Y-83020000D01*
%TO.N,/17*%
X131491371Y-90640000D02*
X130000000Y-90640000D01*
%TO.N,/16*%
X133465686Y-88100000D02*
X130000000Y-88100000D01*
X137912500Y-82662500D02*
X137912500Y-83653186D01*
X137912500Y-83653186D02*
X133465686Y-88100000D01*
%TO.N,/17*%
X138412500Y-83718871D02*
X131491371Y-90640000D01*
X138412500Y-82662500D02*
X138412500Y-83718871D01*
%TO.N,Net-(J1-Pin_15)*%
X137412500Y-82662500D02*
X137412500Y-83587500D01*
X137412500Y-83587500D02*
X135440000Y-85560000D01*
X135440000Y-85560000D02*
X130000000Y-85560000D01*
%TO.N,/18*%
X138912500Y-82662500D02*
X138912500Y-84267500D01*
X138912500Y-84267500D02*
X130000000Y-93180000D01*
%TO.N,GND*%
X139412500Y-82662500D02*
X139412500Y-86307500D01*
X139412500Y-86307500D02*
X130000000Y-95720000D01*
%TO.N,/20*%
X139912500Y-82662500D02*
X139912500Y-88347500D01*
X139912500Y-88347500D02*
X130000000Y-98260000D01*
%TO.N,VDD*%
X140412500Y-82662500D02*
X140412500Y-90387500D01*
X140412500Y-90387500D02*
X130000000Y-100800000D01*
%TO.N,/22*%
X140912500Y-82662500D02*
X140912500Y-92427500D01*
X140912500Y-92427500D02*
X130000000Y-103340000D01*
%TO.N,GND*%
X141412500Y-82662500D02*
X141412500Y-94467500D01*
X141412500Y-94467500D02*
X130000000Y-105880000D01*
%TO.N,VDD*%
X141912500Y-82662500D02*
X141912500Y-96507500D01*
X141912500Y-96507500D02*
X130000000Y-108420000D01*
%TO.N,/31*%
X145400000Y-90800000D02*
X147780000Y-93180000D01*
%TO.N,/34*%
X145065686Y-76750000D02*
X146050000Y-77734314D01*
X146599993Y-84379993D02*
X147780000Y-85560000D01*
%TO.N,/31*%
X144160596Y-78250000D02*
X144850000Y-78939404D01*
%TO.N,/30*%
X144950000Y-92890000D02*
X147780000Y-95720000D01*
%TO.N,/33*%
X145000000Y-77250000D02*
X145650000Y-77900000D01*
X145650000Y-78739404D02*
X146199998Y-79289402D01*
%TO.N,/32*%
X143325000Y-77750000D02*
X144750000Y-77750000D01*
%TO.N,/31*%
X145400000Y-80334314D02*
X145400000Y-90800000D01*
%TO.N,/33*%
X145650000Y-77900000D02*
X145650000Y-78739404D01*
%TO.N,/30*%
X144362500Y-79017590D02*
X144362500Y-79162500D01*
%TO.N,/33*%
X146199998Y-86519998D02*
X147780000Y-88100000D01*
X146199998Y-79289402D02*
X146199998Y-86519998D01*
%TO.N,/32*%
X145250000Y-78905090D02*
X145750000Y-79405090D01*
%TO.N,/34*%
X146050000Y-77734314D02*
X146050000Y-78573718D01*
%TO.N,/32*%
X145800000Y-88660000D02*
X147780000Y-90640000D01*
X144750000Y-77750000D02*
X145250000Y-78250000D01*
%TO.N,/31*%
X144850000Y-78939404D02*
X144850000Y-79070776D01*
%TO.N,/32*%
X145750000Y-80118628D02*
X145800000Y-80168628D01*
X145750000Y-79405090D02*
X145750000Y-80118628D01*
%TO.N,/31*%
X145350000Y-79570776D02*
X145350000Y-80284314D01*
X145350000Y-80284314D02*
X145400000Y-80334314D01*
%TO.N,/32*%
X145250000Y-78250000D02*
X145250000Y-78905090D01*
%TO.N,/30*%
X143325000Y-78750000D02*
X144094910Y-78750000D01*
%TO.N,/33*%
X143325000Y-77250000D02*
X145000000Y-77250000D01*
%TO.N,/31*%
X143325000Y-78250000D02*
X144160596Y-78250000D01*
%TO.N,/34*%
X143325000Y-76750000D02*
X145065686Y-76750000D01*
%TO.N,/32*%
X145800000Y-80168628D02*
X145800000Y-88660000D01*
%TO.N,/31*%
X144850000Y-79070776D02*
X145350000Y-79570776D01*
%TO.N,/30*%
X144362500Y-79162500D02*
X144950000Y-79750000D01*
%TO.N,/34*%
X146050000Y-78573718D02*
X146599993Y-79123711D01*
X146599993Y-79123711D02*
X146599993Y-84379993D01*
%TO.N,/30*%
X144094910Y-78750000D02*
X144362500Y-79017590D01*
X144950000Y-79750000D02*
X144950000Y-92890000D01*
%TO.N,VDD*%
X147780000Y-79738032D02*
X147780000Y-80480000D01*
X144631371Y-75750000D02*
X146450000Y-77568629D01*
X146450000Y-78408032D02*
X147780000Y-79738032D01*
X146450000Y-77568629D02*
X146450000Y-78408032D01*
X143325000Y-75750000D02*
X143362500Y-75500000D01*
%TO.N,/37*%
X141912500Y-74337500D02*
X144177500Y-74337500D01*
X144177500Y-74337500D02*
X147780000Y-77940000D01*
%TO.N,/39*%
X146930000Y-72010000D02*
X147780000Y-72860000D01*
X142404404Y-72010000D02*
X146930000Y-72010000D01*
X140912500Y-73501904D02*
X142404404Y-72010000D01*
X140912500Y-74337500D02*
X140912500Y-73501904D01*
%TO.N,/38*%
X141412500Y-74337500D02*
X141412500Y-73567590D01*
X141412500Y-73567590D02*
X142115045Y-72865045D01*
X142115045Y-72865045D02*
X145245045Y-72865045D01*
X145245045Y-72865045D02*
X147780000Y-75400000D01*
%TO.N,/40*%
X140412500Y-74337500D02*
X140412500Y-73271815D01*
%TO.N,/41*%
X139912500Y-74337500D02*
X139912500Y-73206129D01*
X145338629Y-67780000D02*
X147780000Y-67780000D01*
%TO.N,/40*%
X143364315Y-70320000D02*
X147780000Y-70320000D01*
%TO.N,/41*%
X139912500Y-73206129D02*
X145338629Y-67780000D01*
%TO.N,/40*%
X140412500Y-73271815D02*
X143364315Y-70320000D01*
%TO.N,/42*%
X146577919Y-65240000D02*
X147780000Y-65240000D01*
X139412500Y-72405419D02*
X146577919Y-65240000D01*
X139412500Y-74337500D02*
X139412500Y-72405419D01*
%TO.N,/43*%
X138912500Y-74337500D02*
X138912500Y-71567500D01*
X138912500Y-71567500D02*
X147780000Y-62700000D01*
%TO.N,/44*%
X138412500Y-74337500D02*
X138412500Y-69527500D01*
X138412500Y-69527500D02*
X147780000Y-60160000D01*
%TO.N,/45*%
X137912500Y-74337500D02*
X137912500Y-67487500D01*
X137912500Y-67487500D02*
X147780000Y-57620000D01*
%TO.N,/46*%
X137412500Y-74337500D02*
X137412500Y-65447500D01*
X137412500Y-65447500D02*
X147780000Y-55080000D01*
%TO.N,VDD*%
X136412500Y-74337500D02*
X136412500Y-61367500D01*
X136412500Y-61367500D02*
X147780000Y-50000000D01*
%TD*%
%TA.AperFunction,Conductor*%
%TO.N,GND*%
G36*
X142299038Y-75346353D02*
G01*
X142338346Y-75404117D01*
X142340184Y-75473962D01*
X142331730Y-75496630D01*
X142297634Y-75566373D01*
X142297634Y-75566375D01*
X142287000Y-75639364D01*
X142287000Y-75860636D01*
X142297634Y-75933625D01*
X142297634Y-75933626D01*
X142297635Y-75933628D01*
X142352672Y-76046210D01*
X142441287Y-76134825D01*
X142449008Y-76138600D01*
X142500590Y-76185728D01*
X142518504Y-76253262D01*
X142497063Y-76319761D01*
X142449008Y-76361400D01*
X142441288Y-76365174D01*
X142441287Y-76365174D01*
X142352672Y-76453789D01*
X142297635Y-76566371D01*
X142297634Y-76566373D01*
X142297634Y-76566375D01*
X142287000Y-76639364D01*
X142287000Y-76860636D01*
X142293566Y-76905701D01*
X142297634Y-76933625D01*
X142303460Y-76945542D01*
X142315217Y-77014416D01*
X142303460Y-77054458D01*
X142297634Y-77066375D01*
X142297633Y-77066379D01*
X142295192Y-77083132D01*
X142266047Y-77146632D01*
X142207197Y-77184295D01*
X142156304Y-77188191D01*
X142087504Y-77179134D01*
X142087500Y-77179134D01*
X141930740Y-77199771D01*
X141930738Y-77199772D01*
X141784661Y-77260279D01*
X141659219Y-77356534D01*
X141562964Y-77481976D01*
X141502457Y-77628053D01*
X141502456Y-77628055D01*
X141481819Y-77784814D01*
X141481819Y-77784817D01*
X141502456Y-77941576D01*
X141502458Y-77941581D01*
X141547913Y-78051321D01*
X141555382Y-78120790D01*
X141524106Y-78183269D01*
X141480803Y-78213335D01*
X141436276Y-78231778D01*
X141366807Y-78239245D01*
X141304328Y-78207970D01*
X141290451Y-78192704D01*
X141284439Y-78184870D01*
X141281801Y-78181432D01*
X141156360Y-78085178D01*
X141132908Y-78075464D01*
X141010281Y-78024670D01*
X141010279Y-78024669D01*
X140853520Y-78004032D01*
X140853518Y-78004032D01*
X140696758Y-78024669D01*
X140696753Y-78024671D01*
X140659740Y-78040002D01*
X140590271Y-78047469D01*
X140527792Y-78016193D01*
X140497729Y-77972893D01*
X140471236Y-77908934D01*
X140471236Y-77908933D01*
X140374982Y-77783492D01*
X140249541Y-77687238D01*
X140190390Y-77662737D01*
X140103462Y-77626730D01*
X140103460Y-77626729D01*
X139946701Y-77606092D01*
X139946699Y-77606092D01*
X139789939Y-77626729D01*
X139789937Y-77626730D01*
X139643860Y-77687237D01*
X139518418Y-77783492D01*
X139422164Y-77908933D01*
X139392156Y-77981378D01*
X139348314Y-78035781D01*
X139282020Y-78057845D01*
X139230143Y-78048485D01*
X139149197Y-78014956D01*
X139149195Y-78014955D01*
X138992436Y-77994318D01*
X138992434Y-77994318D01*
X138835674Y-78014955D01*
X138835672Y-78014956D01*
X138689595Y-78075463D01*
X138564153Y-78171718D01*
X138467898Y-78297160D01*
X138407391Y-78443237D01*
X138407391Y-78443238D01*
X138387843Y-78591719D01*
X138359576Y-78655615D01*
X138301252Y-78694086D01*
X138231387Y-78694917D01*
X138217452Y-78690094D01*
X138156765Y-78664957D01*
X138156760Y-78664955D01*
X138000001Y-78644318D01*
X137999999Y-78644318D01*
X137843239Y-78664955D01*
X137843237Y-78664956D01*
X137697160Y-78725463D01*
X137571718Y-78821718D01*
X137475463Y-78947160D01*
X137414956Y-79093237D01*
X137414955Y-79093239D01*
X137394318Y-79249998D01*
X137394318Y-79250001D01*
X137414955Y-79406760D01*
X137414956Y-79406762D01*
X137453576Y-79500000D01*
X137475464Y-79552841D01*
X137571718Y-79678282D01*
X137697159Y-79774536D01*
X137843238Y-79835044D01*
X137921619Y-79845363D01*
X137999999Y-79855682D01*
X138000000Y-79855682D01*
X138000001Y-79855682D01*
X138052254Y-79848802D01*
X138156762Y-79835044D01*
X138302841Y-79774536D01*
X138428282Y-79678282D01*
X138428283Y-79678279D01*
X138431093Y-79676124D01*
X138496263Y-79650930D01*
X138506580Y-79650500D01*
X139282745Y-79650500D01*
X139349784Y-79670185D01*
X139370426Y-79686819D01*
X141096426Y-81412819D01*
X141129911Y-81474142D01*
X141124927Y-81543834D01*
X141083055Y-81599767D01*
X141017591Y-81624184D01*
X141008745Y-81624500D01*
X140801864Y-81624500D01*
X140783945Y-81627110D01*
X140714771Y-81617297D01*
X140678390Y-81592087D01*
X140015825Y-80929522D01*
X140015823Y-80929520D01*
X139960171Y-80897389D01*
X139924499Y-80876793D01*
X139864198Y-80860636D01*
X139822637Y-80849500D01*
X139822636Y-80849500D01*
X138506580Y-80849500D01*
X138439541Y-80829815D01*
X138431093Y-80823876D01*
X138428283Y-80821720D01*
X138428282Y-80821718D01*
X138302841Y-80725464D01*
X138156762Y-80664956D01*
X138156760Y-80664955D01*
X138000001Y-80644318D01*
X137999999Y-80644318D01*
X137843239Y-80664955D01*
X137843237Y-80664956D01*
X137697160Y-80725463D01*
X137571718Y-80821718D01*
X137475463Y-80947160D01*
X137414956Y-81093237D01*
X137414955Y-81093239D01*
X137394318Y-81249998D01*
X137394318Y-81250001D01*
X137414955Y-81406760D01*
X137414957Y-81406765D01*
X137434128Y-81453048D01*
X137441597Y-81522517D01*
X137410322Y-81584996D01*
X137350233Y-81620648D01*
X137319567Y-81624500D01*
X137301864Y-81624500D01*
X137239302Y-81633614D01*
X137228874Y-81635134D01*
X137221199Y-81638886D01*
X137216957Y-81640960D01*
X137148084Y-81652717D01*
X137108043Y-81640960D01*
X137096125Y-81635134D01*
X137023136Y-81624500D01*
X136801864Y-81624500D01*
X136739302Y-81633614D01*
X136728874Y-81635134D01*
X136721199Y-81638886D01*
X136716957Y-81640960D01*
X136648084Y-81652717D01*
X136608043Y-81640960D01*
X136596125Y-81635134D01*
X136523136Y-81624500D01*
X136301864Y-81624500D01*
X136247122Y-81632475D01*
X136228873Y-81635134D01*
X136159130Y-81669230D01*
X136090257Y-81680988D01*
X136025960Y-81653645D01*
X135986653Y-81595881D01*
X135984815Y-81526035D01*
X135993266Y-81503377D01*
X136027366Y-81433625D01*
X136038000Y-81360636D01*
X136038000Y-81139364D01*
X136027366Y-81066375D01*
X136021541Y-81054460D01*
X136009781Y-80985592D01*
X136021540Y-80945541D01*
X136027366Y-80933625D01*
X136038000Y-80860636D01*
X136038000Y-80639364D01*
X136027366Y-80566375D01*
X136021541Y-80554460D01*
X136009781Y-80485592D01*
X136021540Y-80445541D01*
X136027366Y-80433625D01*
X136038000Y-80360636D01*
X136038000Y-80139364D01*
X136027366Y-80066375D01*
X136021541Y-80054460D01*
X136009781Y-79985592D01*
X136021540Y-79945541D01*
X136027366Y-79933625D01*
X136038000Y-79860636D01*
X136038000Y-79639364D01*
X136027366Y-79566375D01*
X136021541Y-79554460D01*
X136009781Y-79485592D01*
X136021540Y-79445541D01*
X136027366Y-79433625D01*
X136038000Y-79360636D01*
X136038000Y-79219166D01*
X136057685Y-79152127D01*
X136110489Y-79106372D01*
X136178184Y-79096227D01*
X136250000Y-79105682D01*
X136250001Y-79105682D01*
X136344514Y-79093239D01*
X136406762Y-79085044D01*
X136552841Y-79024536D01*
X136678282Y-78928282D01*
X136774536Y-78802841D01*
X136835044Y-78656762D01*
X136855682Y-78500000D01*
X136835044Y-78343238D01*
X136774536Y-78197159D01*
X136773301Y-78195019D01*
X136772807Y-78192983D01*
X136771426Y-78189649D01*
X136771945Y-78189433D01*
X136756826Y-78127119D01*
X136779677Y-78061092D01*
X136834597Y-78017900D01*
X136904150Y-78011256D01*
X136966253Y-78043271D01*
X136979061Y-78057529D01*
X137071718Y-78178282D01*
X137197159Y-78274536D01*
X137343238Y-78335044D01*
X137405448Y-78343234D01*
X137499999Y-78355682D01*
X137500000Y-78355682D01*
X137500001Y-78355682D01*
X137594514Y-78343239D01*
X137656762Y-78335044D01*
X137802841Y-78274536D01*
X137928282Y-78178282D01*
X138024536Y-78052841D01*
X138085044Y-77906762D01*
X138105682Y-77750000D01*
X138094193Y-77662733D01*
X138097357Y-77614457D01*
X138100501Y-77602727D01*
X138100501Y-77497273D01*
X138100501Y-77489678D01*
X138100500Y-77489660D01*
X138100500Y-76642364D01*
X138100499Y-76642357D01*
X138089056Y-76599650D01*
X138073207Y-76540500D01*
X138020480Y-76449175D01*
X137150519Y-75579214D01*
X137117034Y-75517891D01*
X137122018Y-75448199D01*
X137163890Y-75392266D01*
X137229354Y-75367849D01*
X137256075Y-75368828D01*
X137301864Y-75375500D01*
X137523130Y-75375500D01*
X137523136Y-75375500D01*
X137596125Y-75364866D01*
X137608039Y-75359041D01*
X137676908Y-75347281D01*
X137716958Y-75359040D01*
X137728875Y-75364866D01*
X137801864Y-75375500D01*
X137801870Y-75375500D01*
X138023130Y-75375500D01*
X138023136Y-75375500D01*
X138096125Y-75364866D01*
X138108039Y-75359041D01*
X138176908Y-75347281D01*
X138216958Y-75359040D01*
X138228875Y-75364866D01*
X138301864Y-75375500D01*
X138301870Y-75375500D01*
X138523130Y-75375500D01*
X138523136Y-75375500D01*
X138596125Y-75364866D01*
X138608039Y-75359041D01*
X138676908Y-75347281D01*
X138716958Y-75359040D01*
X138728875Y-75364866D01*
X138801864Y-75375500D01*
X138801870Y-75375500D01*
X139023130Y-75375500D01*
X139023136Y-75375500D01*
X139096125Y-75364866D01*
X139108039Y-75359041D01*
X139176908Y-75347281D01*
X139216958Y-75359040D01*
X139228875Y-75364866D01*
X139301864Y-75375500D01*
X139301870Y-75375500D01*
X139523130Y-75375500D01*
X139523136Y-75375500D01*
X139596125Y-75364866D01*
X139608039Y-75359041D01*
X139676908Y-75347281D01*
X139716958Y-75359040D01*
X139728875Y-75364866D01*
X139801864Y-75375500D01*
X139801870Y-75375500D01*
X140023130Y-75375500D01*
X140023136Y-75375500D01*
X140096125Y-75364866D01*
X140108039Y-75359041D01*
X140176908Y-75347281D01*
X140216958Y-75359040D01*
X140228875Y-75364866D01*
X140301864Y-75375500D01*
X140301870Y-75375500D01*
X140523130Y-75375500D01*
X140523136Y-75375500D01*
X140596125Y-75364866D01*
X140608039Y-75359041D01*
X140676908Y-75347281D01*
X140716958Y-75359040D01*
X140728875Y-75364866D01*
X140801864Y-75375500D01*
X140801870Y-75375500D01*
X141023130Y-75375500D01*
X141023136Y-75375500D01*
X141096125Y-75364866D01*
X141108039Y-75359041D01*
X141176908Y-75347281D01*
X141216958Y-75359040D01*
X141228875Y-75364866D01*
X141301864Y-75375500D01*
X141301870Y-75375500D01*
X141523130Y-75375500D01*
X141523136Y-75375500D01*
X141596125Y-75364866D01*
X141608039Y-75359041D01*
X141676908Y-75347281D01*
X141716958Y-75359040D01*
X141728875Y-75364866D01*
X141801864Y-75375500D01*
X141801870Y-75375500D01*
X142023130Y-75375500D01*
X142023136Y-75375500D01*
X142096125Y-75364866D01*
X142165870Y-75330769D01*
X142234740Y-75319010D01*
X142299038Y-75346353D01*
G37*
%TD.AperFunction*%
%TA.AperFunction,Conductor*%
G36*
X149442539Y-48270185D02*
G01*
X149488294Y-48322989D01*
X149499500Y-48374500D01*
X149499500Y-110125500D01*
X149479815Y-110192539D01*
X149427011Y-110238294D01*
X149375500Y-110249500D01*
X128374500Y-110249500D01*
X128307461Y-110229815D01*
X128261706Y-110177011D01*
X128250500Y-110125500D01*
X128250500Y-52539999D01*
X128844571Y-52539999D01*
X128844571Y-52540000D01*
X128864244Y-52752310D01*
X128922596Y-52957392D01*
X128922596Y-52957394D01*
X129017632Y-53148253D01*
X129017634Y-53148255D01*
X129146128Y-53318407D01*
X129303698Y-53462052D01*
X129484981Y-53574298D01*
X129683802Y-53651321D01*
X129880613Y-53688111D01*
X129942893Y-53719779D01*
X129978166Y-53780092D01*
X129975232Y-53849900D01*
X129935023Y-53907040D01*
X129880613Y-53931888D01*
X129683802Y-53968679D01*
X129683799Y-53968679D01*
X129683799Y-53968680D01*
X129484982Y-54045701D01*
X129484980Y-54045702D01*
X129303699Y-54157947D01*
X129146127Y-54301593D01*
X129017632Y-54471746D01*
X128922596Y-54662605D01*
X128922596Y-54662607D01*
X128864244Y-54867689D01*
X128844571Y-55079999D01*
X128844571Y-55080000D01*
X128864244Y-55292310D01*
X128922596Y-55497392D01*
X128922596Y-55497394D01*
X129017632Y-55688253D01*
X129017634Y-55688255D01*
X129146128Y-55858407D01*
X129303698Y-56002052D01*
X129484981Y-56114298D01*
X129683802Y-56191321D01*
X129880613Y-56228111D01*
X129942893Y-56259779D01*
X129978166Y-56320092D01*
X129975232Y-56389900D01*
X129935023Y-56447040D01*
X129880613Y-56471888D01*
X129683802Y-56508679D01*
X129683799Y-56508679D01*
X129683799Y-56508680D01*
X129484982Y-56585701D01*
X129484980Y-56585702D01*
X129303699Y-56697947D01*
X129146127Y-56841593D01*
X129017632Y-57011746D01*
X128922596Y-57202605D01*
X128922596Y-57202607D01*
X128864244Y-57407689D01*
X128844571Y-57619999D01*
X128844571Y-57620000D01*
X128864244Y-57832310D01*
X128922596Y-58037392D01*
X128922596Y-58037394D01*
X129017632Y-58228253D01*
X129017634Y-58228255D01*
X129146128Y-58398407D01*
X129303698Y-58542052D01*
X129484981Y-58654298D01*
X129683802Y-58731321D01*
X129880613Y-58768111D01*
X129942893Y-58799779D01*
X129978166Y-58860092D01*
X129975232Y-58929900D01*
X129935023Y-58987040D01*
X129880613Y-59011888D01*
X129683802Y-59048679D01*
X129683799Y-59048679D01*
X129683799Y-59048680D01*
X129484982Y-59125701D01*
X129484980Y-59125702D01*
X129303699Y-59237947D01*
X129146127Y-59381593D01*
X129017632Y-59551746D01*
X128922596Y-59742605D01*
X128922596Y-59742607D01*
X128864244Y-59947689D01*
X128844571Y-60159999D01*
X128844571Y-60160000D01*
X128864244Y-60372310D01*
X128922596Y-60577392D01*
X128922596Y-60577394D01*
X129017632Y-60768253D01*
X129017634Y-60768255D01*
X129146128Y-60938407D01*
X129303698Y-61082052D01*
X129484981Y-61194298D01*
X129683802Y-61271321D01*
X129880613Y-61308111D01*
X129942893Y-61339779D01*
X129978166Y-61400092D01*
X129975232Y-61469900D01*
X129935023Y-61527040D01*
X129880613Y-61551888D01*
X129683802Y-61588679D01*
X129683799Y-61588679D01*
X129683799Y-61588680D01*
X129484982Y-61665701D01*
X129484980Y-61665702D01*
X129303699Y-61777947D01*
X129146127Y-61921593D01*
X129017632Y-62091746D01*
X128922596Y-62282605D01*
X128922596Y-62282607D01*
X128864244Y-62487689D01*
X128844571Y-62699999D01*
X128844571Y-62700000D01*
X128864244Y-62912310D01*
X128922596Y-63117392D01*
X128922596Y-63117394D01*
X129017632Y-63308253D01*
X129017634Y-63308255D01*
X129146128Y-63478407D01*
X129303698Y-63622052D01*
X129484981Y-63734298D01*
X129683802Y-63811321D01*
X129880613Y-63848111D01*
X129942893Y-63879779D01*
X129978166Y-63940092D01*
X129975232Y-64009900D01*
X129935023Y-64067040D01*
X129880613Y-64091888D01*
X129683802Y-64128679D01*
X129683799Y-64128679D01*
X129683799Y-64128680D01*
X129484982Y-64205701D01*
X129484980Y-64205702D01*
X129303699Y-64317947D01*
X129146127Y-64461593D01*
X129017632Y-64631746D01*
X128922596Y-64822605D01*
X128922596Y-64822607D01*
X128864244Y-65027689D01*
X128844571Y-65239999D01*
X128844571Y-65240000D01*
X128864244Y-65452310D01*
X128922596Y-65657392D01*
X128922596Y-65657394D01*
X129017632Y-65848253D01*
X129146127Y-66018406D01*
X129146128Y-66018407D01*
X129303698Y-66162052D01*
X129484981Y-66274298D01*
X129683802Y-66351321D01*
X129880613Y-66388111D01*
X129942893Y-66419779D01*
X129978166Y-66480092D01*
X129975232Y-66549900D01*
X129935023Y-66607040D01*
X129880613Y-66631888D01*
X129683802Y-66668679D01*
X129683799Y-66668679D01*
X129683799Y-66668680D01*
X129484982Y-66745701D01*
X129484980Y-66745702D01*
X129303699Y-66857947D01*
X129146127Y-67001593D01*
X129017632Y-67171746D01*
X128922596Y-67362605D01*
X128922596Y-67362607D01*
X128864244Y-67567689D01*
X128844571Y-67779999D01*
X128844571Y-67780000D01*
X128864244Y-67992310D01*
X128922596Y-68197392D01*
X128922596Y-68197394D01*
X129017632Y-68388253D01*
X129017634Y-68388255D01*
X129146128Y-68558407D01*
X129303698Y-68702052D01*
X129484981Y-68814298D01*
X129683802Y-68891321D01*
X129880613Y-68928111D01*
X129942893Y-68959779D01*
X129978166Y-69020092D01*
X129975232Y-69089900D01*
X129935023Y-69147040D01*
X129880613Y-69171888D01*
X129683802Y-69208679D01*
X129683799Y-69208679D01*
X129683799Y-69208680D01*
X129484982Y-69285701D01*
X129484980Y-69285702D01*
X129303699Y-69397947D01*
X129146127Y-69541593D01*
X129017632Y-69711746D01*
X128922596Y-69902605D01*
X128922596Y-69902607D01*
X128864244Y-70107689D01*
X128844571Y-70319999D01*
X128844571Y-70320000D01*
X128864244Y-70532310D01*
X128922596Y-70737392D01*
X128922596Y-70737394D01*
X129017632Y-70928253D01*
X129017634Y-70928255D01*
X129146128Y-71098407D01*
X129303698Y-71242052D01*
X129484981Y-71354298D01*
X129683802Y-71431321D01*
X129880613Y-71468111D01*
X129942893Y-71499779D01*
X129978166Y-71560092D01*
X129975232Y-71629900D01*
X129935023Y-71687040D01*
X129880613Y-71711888D01*
X129683802Y-71748679D01*
X129683799Y-71748679D01*
X129683799Y-71748680D01*
X129484982Y-71825701D01*
X129484980Y-71825702D01*
X129303699Y-71937947D01*
X129146127Y-72081593D01*
X129017632Y-72251746D01*
X128922596Y-72442605D01*
X128922596Y-72442607D01*
X128864244Y-72647689D01*
X128844571Y-72859999D01*
X128844571Y-72860000D01*
X128864244Y-73072310D01*
X128922596Y-73277392D01*
X128922596Y-73277394D01*
X129017632Y-73468253D01*
X129091731Y-73566375D01*
X129146128Y-73638407D01*
X129303698Y-73782052D01*
X129484981Y-73894298D01*
X129683802Y-73971321D01*
X129880613Y-74008111D01*
X129942893Y-74039779D01*
X129978166Y-74100092D01*
X129975232Y-74169900D01*
X129935023Y-74227040D01*
X129880613Y-74251888D01*
X129683802Y-74288679D01*
X129683799Y-74288679D01*
X129683799Y-74288680D01*
X129484982Y-74365701D01*
X129484980Y-74365702D01*
X129303699Y-74477947D01*
X129146127Y-74621593D01*
X129017632Y-74791746D01*
X128922596Y-74982605D01*
X128922596Y-74982607D01*
X128864244Y-75187689D01*
X128844571Y-75399999D01*
X128844571Y-75400000D01*
X128864244Y-75612310D01*
X128922596Y-75817392D01*
X128922596Y-75817394D01*
X129017632Y-76008253D01*
X129046297Y-76046211D01*
X129146128Y-76178407D01*
X129303698Y-76322052D01*
X129484981Y-76434298D01*
X129683802Y-76511321D01*
X129880613Y-76548111D01*
X129942893Y-76579779D01*
X129978166Y-76640092D01*
X129975232Y-76709900D01*
X129935023Y-76767040D01*
X129880613Y-76791888D01*
X129683802Y-76828679D01*
X129683799Y-76828679D01*
X129683799Y-76828680D01*
X129484982Y-76905701D01*
X129484980Y-76905702D01*
X129303699Y-77017947D01*
X129146127Y-77161593D01*
X129017632Y-77331746D01*
X128922596Y-77522605D01*
X128922596Y-77522607D01*
X128864244Y-77727689D01*
X128858951Y-77784817D01*
X128844571Y-77940000D01*
X128864244Y-78152310D01*
X128918567Y-78343234D01*
X128922596Y-78357392D01*
X128922596Y-78357394D01*
X129017632Y-78548253D01*
X129105763Y-78664956D01*
X129146128Y-78718407D01*
X129303698Y-78862052D01*
X129484981Y-78974298D01*
X129683802Y-79051321D01*
X129689642Y-79052412D01*
X129751921Y-79084076D01*
X129754541Y-79086620D01*
X129814693Y-79146772D01*
X129848178Y-79208095D01*
X129843194Y-79277787D01*
X129801322Y-79333720D01*
X129749799Y-79356341D01*
X129683802Y-79368678D01*
X129484982Y-79445701D01*
X129484980Y-79445702D01*
X129303699Y-79557947D01*
X129146127Y-79701593D01*
X129017632Y-79871746D01*
X128922596Y-80062605D01*
X128922596Y-80062607D01*
X128864244Y-80267689D01*
X128844571Y-80479999D01*
X128844571Y-80480000D01*
X128864244Y-80692310D01*
X128922596Y-80897392D01*
X128922596Y-80897394D01*
X129017632Y-81088253D01*
X129139778Y-81249998D01*
X129146128Y-81258407D01*
X129303698Y-81402052D01*
X129484981Y-81514298D01*
X129683802Y-81591321D01*
X129880613Y-81628111D01*
X129942893Y-81659779D01*
X129978166Y-81720092D01*
X129975232Y-81789900D01*
X129935023Y-81847040D01*
X129880613Y-81871888D01*
X129683802Y-81908679D01*
X129683799Y-81908679D01*
X129683799Y-81908680D01*
X129484982Y-81985701D01*
X129484980Y-81985702D01*
X129303699Y-82097947D01*
X129146127Y-82241593D01*
X129017632Y-82411746D01*
X128922596Y-82602605D01*
X128922596Y-82602607D01*
X128864244Y-82807689D01*
X128844571Y-83019999D01*
X128844571Y-83020000D01*
X128864244Y-83232310D01*
X128922596Y-83437392D01*
X128922596Y-83437394D01*
X129017632Y-83628253D01*
X129017634Y-83628255D01*
X129146128Y-83798407D01*
X129303698Y-83942052D01*
X129484981Y-84054298D01*
X129683802Y-84131321D01*
X129880613Y-84168111D01*
X129942893Y-84199779D01*
X129978166Y-84260092D01*
X129975232Y-84329900D01*
X129935023Y-84387040D01*
X129880613Y-84411888D01*
X129683802Y-84448679D01*
X129683799Y-84448679D01*
X129683799Y-84448680D01*
X129484982Y-84525701D01*
X129484980Y-84525702D01*
X129303699Y-84637947D01*
X129146127Y-84781593D01*
X129017632Y-84951746D01*
X128922596Y-85142605D01*
X128922596Y-85142607D01*
X128864244Y-85347689D01*
X128844571Y-85559999D01*
X128844571Y-85560000D01*
X128864244Y-85772310D01*
X128922596Y-85977392D01*
X128922596Y-85977394D01*
X129017632Y-86168253D01*
X129146127Y-86338406D01*
X129146128Y-86338407D01*
X129303698Y-86482052D01*
X129484981Y-86594298D01*
X129683802Y-86671321D01*
X129880613Y-86708111D01*
X129942893Y-86739779D01*
X129978166Y-86800092D01*
X129975232Y-86869900D01*
X129935023Y-86927040D01*
X129880613Y-86951888D01*
X129683802Y-86988679D01*
X129683799Y-86988679D01*
X129683799Y-86988680D01*
X129484982Y-87065701D01*
X129484980Y-87065702D01*
X129303699Y-87177947D01*
X129146127Y-87321593D01*
X129017632Y-87491746D01*
X128922596Y-87682605D01*
X128922596Y-87682607D01*
X128864244Y-87887689D01*
X128844571Y-88099999D01*
X128844571Y-88100000D01*
X128864244Y-88312310D01*
X128922596Y-88517392D01*
X128922596Y-88517394D01*
X129017632Y-88708253D01*
X129097786Y-88814393D01*
X129146128Y-88878407D01*
X129303698Y-89022052D01*
X129484981Y-89134298D01*
X129683802Y-89211321D01*
X129880613Y-89248111D01*
X129942893Y-89279779D01*
X129978166Y-89340092D01*
X129975232Y-89409900D01*
X129935023Y-89467040D01*
X129880613Y-89491888D01*
X129683802Y-89528679D01*
X129683799Y-89528679D01*
X129683799Y-89528680D01*
X129484982Y-89605701D01*
X129484980Y-89605702D01*
X129303699Y-89717947D01*
X129146127Y-89861593D01*
X129017632Y-90031746D01*
X128922596Y-90222605D01*
X128922596Y-90222607D01*
X128917790Y-90239500D01*
X128864244Y-90427690D01*
X128844571Y-90640000D01*
X128864244Y-90852310D01*
X128916956Y-91037572D01*
X128922596Y-91057392D01*
X128922596Y-91057394D01*
X129017632Y-91248253D01*
X129069467Y-91316893D01*
X129146128Y-91418407D01*
X129303698Y-91562052D01*
X129484981Y-91674298D01*
X129683802Y-91751321D01*
X129880613Y-91788111D01*
X129942893Y-91819779D01*
X129978166Y-91880092D01*
X129975232Y-91949900D01*
X129935023Y-92007040D01*
X129880613Y-92031888D01*
X129683802Y-92068679D01*
X129683799Y-92068679D01*
X129683799Y-92068680D01*
X129484982Y-92145701D01*
X129484980Y-92145702D01*
X129303699Y-92257947D01*
X129146127Y-92401593D01*
X129017632Y-92571746D01*
X128922596Y-92762605D01*
X128922596Y-92762607D01*
X128864244Y-92967689D01*
X128844571Y-93179999D01*
X128844571Y-93180000D01*
X128864244Y-93392310D01*
X128922596Y-93597392D01*
X128922596Y-93597394D01*
X129017632Y-93788253D01*
X129017634Y-93788255D01*
X129146128Y-93958407D01*
X129303698Y-94102052D01*
X129484981Y-94214298D01*
X129683802Y-94291321D01*
X129893390Y-94330500D01*
X129893392Y-94330500D01*
X130106608Y-94330500D01*
X130106610Y-94330500D01*
X130316198Y-94291321D01*
X130515019Y-94214298D01*
X130696302Y-94102052D01*
X130853872Y-93958407D01*
X130982366Y-93788255D01*
X131077405Y-93597389D01*
X131135756Y-93392310D01*
X131155429Y-93180000D01*
X131135756Y-92967690D01*
X131077405Y-92762611D01*
X131076609Y-92759813D01*
X131077195Y-92689946D01*
X131108192Y-92638199D01*
X139232980Y-84513413D01*
X139277546Y-84436222D01*
X139280613Y-84430912D01*
X139298658Y-84413705D01*
X139316146Y-84395053D01*
X139316149Y-84395051D01*
X139316954Y-84396259D01*
X139331179Y-84382696D01*
X139399786Y-84369472D01*
X139464651Y-84395440D01*
X139505180Y-84452354D01*
X139512000Y-84492911D01*
X139512000Y-88130244D01*
X139492315Y-88197283D01*
X139475681Y-88217925D01*
X130538193Y-97155412D01*
X130476870Y-97188897D01*
X130407178Y-97183913D01*
X130405719Y-97183358D01*
X130316203Y-97148680D01*
X130316198Y-97148679D01*
X130106610Y-97109500D01*
X129893390Y-97109500D01*
X129683802Y-97148679D01*
X129683799Y-97148679D01*
X129683799Y-97148680D01*
X129484982Y-97225701D01*
X129484980Y-97225702D01*
X129303699Y-97337947D01*
X129146127Y-97481593D01*
X129017632Y-97651746D01*
X128922596Y-97842605D01*
X128922596Y-97842607D01*
X128864244Y-98047689D01*
X128844571Y-98259999D01*
X128844571Y-98260000D01*
X128864244Y-98472310D01*
X128922596Y-98677392D01*
X128922596Y-98677394D01*
X129017632Y-98868253D01*
X129017634Y-98868255D01*
X129146128Y-99038407D01*
X129303698Y-99182052D01*
X129484981Y-99294298D01*
X129683802Y-99371321D01*
X129880613Y-99408111D01*
X129942893Y-99439779D01*
X129978166Y-99500092D01*
X129975232Y-99569900D01*
X129935023Y-99627040D01*
X129880613Y-99651888D01*
X129683802Y-99688679D01*
X129683799Y-99688679D01*
X129683799Y-99688680D01*
X129484982Y-99765701D01*
X129484980Y-99765702D01*
X129303699Y-99877947D01*
X129146127Y-100021593D01*
X129017632Y-100191746D01*
X128922596Y-100382605D01*
X128922596Y-100382607D01*
X128864244Y-100587689D01*
X128844571Y-100799999D01*
X128844571Y-100800000D01*
X128864244Y-101012310D01*
X128922596Y-101217392D01*
X128922596Y-101217394D01*
X129017632Y-101408253D01*
X129017634Y-101408255D01*
X129146128Y-101578407D01*
X129303698Y-101722052D01*
X129484981Y-101834298D01*
X129683802Y-101911321D01*
X129880613Y-101948111D01*
X129942893Y-101979779D01*
X129978166Y-102040092D01*
X129975232Y-102109900D01*
X129935023Y-102167040D01*
X129880613Y-102191888D01*
X129683802Y-102228679D01*
X129683799Y-102228679D01*
X129683799Y-102228680D01*
X129484982Y-102305701D01*
X129484980Y-102305702D01*
X129303699Y-102417947D01*
X129146127Y-102561593D01*
X129017632Y-102731746D01*
X128922596Y-102922605D01*
X128922596Y-102922607D01*
X128864244Y-103127689D01*
X128844571Y-103339999D01*
X128844571Y-103340000D01*
X128864244Y-103552310D01*
X128922596Y-103757392D01*
X128922596Y-103757394D01*
X129017632Y-103948253D01*
X129017634Y-103948255D01*
X129146128Y-104118407D01*
X129303698Y-104262052D01*
X129484981Y-104374298D01*
X129683802Y-104451321D01*
X129893390Y-104490500D01*
X129893392Y-104490500D01*
X130106608Y-104490500D01*
X130106610Y-104490500D01*
X130316198Y-104451321D01*
X130515019Y-104374298D01*
X130696302Y-104262052D01*
X130853872Y-104118407D01*
X130982366Y-103948255D01*
X131077405Y-103757389D01*
X131135756Y-103552310D01*
X131155429Y-103340000D01*
X131135756Y-103127690D01*
X131077405Y-102922611D01*
X131076609Y-102919813D01*
X131077195Y-102849946D01*
X131108192Y-102798199D01*
X141232980Y-92673413D01*
X141277546Y-92596222D01*
X141280613Y-92590912D01*
X141298658Y-92573705D01*
X141316146Y-92555053D01*
X141316149Y-92555051D01*
X141316954Y-92556259D01*
X141331179Y-92542696D01*
X141399786Y-92529472D01*
X141464651Y-92555440D01*
X141505180Y-92612354D01*
X141512000Y-92652911D01*
X141512000Y-96290244D01*
X141492315Y-96357283D01*
X141475681Y-96377925D01*
X130538193Y-107315412D01*
X130476870Y-107348897D01*
X130407178Y-107343913D01*
X130405719Y-107343358D01*
X130316203Y-107308680D01*
X130316198Y-107308679D01*
X130106610Y-107269500D01*
X129893390Y-107269500D01*
X129683802Y-107308679D01*
X129683799Y-107308679D01*
X129683799Y-107308680D01*
X129484982Y-107385701D01*
X129484980Y-107385702D01*
X129303699Y-107497947D01*
X129146127Y-107641593D01*
X129017632Y-107811746D01*
X128922596Y-108002605D01*
X128922596Y-108002607D01*
X128864244Y-108207689D01*
X128844571Y-108419999D01*
X128844571Y-108420000D01*
X128864244Y-108632310D01*
X128922596Y-108837392D01*
X128922596Y-108837394D01*
X129017632Y-109028253D01*
X129017634Y-109028255D01*
X129146128Y-109198407D01*
X129303698Y-109342052D01*
X129484981Y-109454298D01*
X129683802Y-109531321D01*
X129893390Y-109570500D01*
X129893392Y-109570500D01*
X130106608Y-109570500D01*
X130106610Y-109570500D01*
X130316198Y-109531321D01*
X130515019Y-109454298D01*
X130696302Y-109342052D01*
X130853872Y-109198407D01*
X130982366Y-109028255D01*
X131077405Y-108837389D01*
X131135756Y-108632310D01*
X131155429Y-108420000D01*
X131135756Y-108207690D01*
X131077405Y-108002611D01*
X131076609Y-107999813D01*
X131077195Y-107929946D01*
X131108192Y-107878199D01*
X142232980Y-96753413D01*
X142285707Y-96662088D01*
X142313000Y-96560227D01*
X142313000Y-96454773D01*
X142313000Y-83542836D01*
X142325600Y-83488375D01*
X142352365Y-83433627D01*
X142352364Y-83433627D01*
X142352366Y-83433625D01*
X142363000Y-83360636D01*
X142363000Y-83274500D01*
X142382685Y-83207461D01*
X142435489Y-83161706D01*
X142487000Y-83150500D01*
X142493420Y-83150500D01*
X142560459Y-83170185D01*
X142568907Y-83176124D01*
X142571716Y-83178279D01*
X142571718Y-83178282D01*
X142697159Y-83274536D01*
X142843238Y-83335044D01*
X142921619Y-83345363D01*
X142999999Y-83355682D01*
X143000000Y-83355682D01*
X143000001Y-83355682D01*
X143052254Y-83348802D01*
X143156762Y-83335044D01*
X143302841Y-83274536D01*
X143428282Y-83178282D01*
X143524536Y-83052841D01*
X143585044Y-82906762D01*
X143605682Y-82750000D01*
X143585044Y-82593238D01*
X143524536Y-82447159D01*
X143428282Y-82321718D01*
X143302841Y-82225464D01*
X143156762Y-82164956D01*
X143100577Y-82157559D01*
X142996485Y-82143855D01*
X142932589Y-82115588D01*
X142924990Y-82108597D01*
X142728574Y-81912181D01*
X142695089Y-81850858D01*
X142700073Y-81781166D01*
X142741945Y-81725233D01*
X142807409Y-81700816D01*
X142816255Y-81700500D01*
X144023130Y-81700500D01*
X144023136Y-81700500D01*
X144096125Y-81689866D01*
X144157669Y-81659779D01*
X144208710Y-81634827D01*
X144297324Y-81546213D01*
X144297326Y-81546211D01*
X144314100Y-81511898D01*
X144361227Y-81460318D01*
X144428761Y-81442403D01*
X144495259Y-81463843D01*
X144539610Y-81517832D01*
X144549500Y-81566360D01*
X144549500Y-92837273D01*
X144549500Y-92942727D01*
X144556189Y-92967690D01*
X144576793Y-93044589D01*
X144603156Y-93090250D01*
X144629520Y-93135913D01*
X144629522Y-93135915D01*
X146671805Y-95178198D01*
X146705290Y-95239521D01*
X146703390Y-95299813D01*
X146644244Y-95507687D01*
X146624571Y-95719999D01*
X146624571Y-95720000D01*
X146644244Y-95932310D01*
X146702596Y-96137392D01*
X146702596Y-96137394D01*
X146797632Y-96328253D01*
X146797634Y-96328255D01*
X146926128Y-96498407D01*
X147083698Y-96642052D01*
X147264981Y-96754298D01*
X147463802Y-96831321D01*
X147660613Y-96868111D01*
X147722893Y-96899779D01*
X147758166Y-96960092D01*
X147755232Y-97029900D01*
X147715023Y-97087040D01*
X147660613Y-97111888D01*
X147463802Y-97148679D01*
X147463799Y-97148679D01*
X147463799Y-97148680D01*
X147264982Y-97225701D01*
X147264980Y-97225702D01*
X147083699Y-97337947D01*
X146926127Y-97481593D01*
X146797632Y-97651746D01*
X146702596Y-97842605D01*
X146702596Y-97842607D01*
X146644244Y-98047689D01*
X146624571Y-98259999D01*
X146624571Y-98260000D01*
X146644244Y-98472310D01*
X146702596Y-98677392D01*
X146702596Y-98677394D01*
X146797632Y-98868253D01*
X146797634Y-98868255D01*
X146926128Y-99038407D01*
X147083698Y-99182052D01*
X147264981Y-99294298D01*
X147463802Y-99371321D01*
X147660613Y-99408111D01*
X147722893Y-99439779D01*
X147758166Y-99500092D01*
X147755232Y-99569900D01*
X147715023Y-99627040D01*
X147660613Y-99651888D01*
X147463802Y-99688679D01*
X147463799Y-99688679D01*
X147463799Y-99688680D01*
X147264982Y-99765701D01*
X147264980Y-99765702D01*
X147083699Y-99877947D01*
X146926127Y-100021593D01*
X146797632Y-100191746D01*
X146702596Y-100382605D01*
X146702596Y-100382607D01*
X146644244Y-100587689D01*
X146624571Y-100799999D01*
X146624571Y-100800000D01*
X146644244Y-101012310D01*
X146702596Y-101217392D01*
X146702596Y-101217394D01*
X146797632Y-101408253D01*
X146797634Y-101408255D01*
X146926128Y-101578407D01*
X147083698Y-101722052D01*
X147264981Y-101834298D01*
X147463802Y-101911321D01*
X147660613Y-101948111D01*
X147722893Y-101979779D01*
X147758166Y-102040092D01*
X147755232Y-102109900D01*
X147715023Y-102167040D01*
X147660613Y-102191888D01*
X147463802Y-102228679D01*
X147463799Y-102228679D01*
X147463799Y-102228680D01*
X147264982Y-102305701D01*
X147264980Y-102305702D01*
X147083699Y-102417947D01*
X146926127Y-102561593D01*
X146797632Y-102731746D01*
X146702596Y-102922605D01*
X146702596Y-102922607D01*
X146644244Y-103127689D01*
X146624571Y-103339999D01*
X146624571Y-103340000D01*
X146644244Y-103552310D01*
X146702596Y-103757392D01*
X146702596Y-103757394D01*
X146797632Y-103948253D01*
X146797634Y-103948255D01*
X146926128Y-104118407D01*
X147083698Y-104262052D01*
X147264981Y-104374298D01*
X147463802Y-104451321D01*
X147660613Y-104488111D01*
X147722893Y-104519779D01*
X147758166Y-104580092D01*
X147755232Y-104649900D01*
X147715023Y-104707040D01*
X147660613Y-104731888D01*
X147463802Y-104768679D01*
X147463799Y-104768679D01*
X147463799Y-104768680D01*
X147264982Y-104845701D01*
X147264980Y-104845702D01*
X147083699Y-104957947D01*
X146926127Y-105101593D01*
X146797632Y-105271746D01*
X146702596Y-105462605D01*
X146702596Y-105462607D01*
X146644244Y-105667689D01*
X146624571Y-105879999D01*
X146624571Y-105880000D01*
X146644244Y-106092310D01*
X146702596Y-106297392D01*
X146702596Y-106297394D01*
X146797632Y-106488253D01*
X146797634Y-106488255D01*
X146926128Y-106658407D01*
X147083698Y-106802052D01*
X147264981Y-106914298D01*
X147463802Y-106991321D01*
X147636544Y-107023612D01*
X147698823Y-107055279D01*
X147734096Y-107115591D01*
X147731162Y-107185400D01*
X147690953Y-107242540D01*
X147626235Y-107268871D01*
X147613757Y-107269500D01*
X146885143Y-107269500D01*
X146885117Y-107269502D01*
X146860012Y-107272413D01*
X146860008Y-107272415D01*
X146757235Y-107317793D01*
X146677794Y-107397234D01*
X146632415Y-107500006D01*
X146632415Y-107500008D01*
X146629500Y-107525131D01*
X146629500Y-109314856D01*
X146629502Y-109314882D01*
X146632413Y-109339987D01*
X146632415Y-109339991D01*
X146677793Y-109442764D01*
X146677794Y-109442765D01*
X146757235Y-109522206D01*
X146860009Y-109567585D01*
X146885135Y-109570500D01*
X148674864Y-109570499D01*
X148674879Y-109570497D01*
X148674882Y-109570497D01*
X148699987Y-109567586D01*
X148699988Y-109567585D01*
X148699991Y-109567585D01*
X148802765Y-109522206D01*
X148882206Y-109442765D01*
X148927585Y-109339991D01*
X148930500Y-109314865D01*
X148930499Y-107525136D01*
X148930497Y-107525117D01*
X148927586Y-107500012D01*
X148927585Y-107500010D01*
X148927585Y-107500009D01*
X148882206Y-107397235D01*
X148802765Y-107317794D01*
X148782124Y-107308680D01*
X148699992Y-107272415D01*
X148674868Y-107269500D01*
X147946243Y-107269500D01*
X147879204Y-107249815D01*
X147833449Y-107197011D01*
X147823505Y-107127853D01*
X147852530Y-107064297D01*
X147911308Y-107026523D01*
X147923441Y-107023614D01*
X148096198Y-106991321D01*
X148295019Y-106914298D01*
X148476302Y-106802052D01*
X148633872Y-106658407D01*
X148762366Y-106488255D01*
X148857405Y-106297389D01*
X148915756Y-106092310D01*
X148935429Y-105880000D01*
X148915756Y-105667690D01*
X148857405Y-105462611D01*
X148857403Y-105462606D01*
X148857403Y-105462605D01*
X148762367Y-105271746D01*
X148633872Y-105101593D01*
X148476302Y-104957948D01*
X148295019Y-104845702D01*
X148295017Y-104845701D01*
X148195608Y-104807190D01*
X148096198Y-104768679D01*
X147899385Y-104731888D01*
X147837106Y-104700221D01*
X147801833Y-104639908D01*
X147804767Y-104570100D01*
X147844976Y-104512960D01*
X147899384Y-104488111D01*
X148096198Y-104451321D01*
X148295019Y-104374298D01*
X148476302Y-104262052D01*
X148633872Y-104118407D01*
X148762366Y-103948255D01*
X148857405Y-103757389D01*
X148915756Y-103552310D01*
X148935429Y-103340000D01*
X148915756Y-103127690D01*
X148857405Y-102922611D01*
X148857403Y-102922606D01*
X148857403Y-102922605D01*
X148762367Y-102731746D01*
X148633872Y-102561593D01*
X148476302Y-102417948D01*
X148295019Y-102305702D01*
X148295017Y-102305701D01*
X148113578Y-102235412D01*
X148096198Y-102228679D01*
X147899385Y-102191888D01*
X147837106Y-102160221D01*
X147801833Y-102099908D01*
X147804767Y-102030100D01*
X147844976Y-101972960D01*
X147899384Y-101948111D01*
X148096198Y-101911321D01*
X148295019Y-101834298D01*
X148476302Y-101722052D01*
X148633872Y-101578407D01*
X148762366Y-101408255D01*
X148857405Y-101217389D01*
X148915756Y-101012310D01*
X148935429Y-100800000D01*
X148915756Y-100587690D01*
X148857405Y-100382611D01*
X148857403Y-100382606D01*
X148857403Y-100382605D01*
X148762367Y-100191746D01*
X148633872Y-100021593D01*
X148476302Y-99877948D01*
X148295019Y-99765702D01*
X148295017Y-99765701D01*
X148113578Y-99695412D01*
X148096198Y-99688679D01*
X147899385Y-99651888D01*
X147837106Y-99620221D01*
X147801833Y-99559908D01*
X147804767Y-99490100D01*
X147844976Y-99432960D01*
X147899384Y-99408111D01*
X148096198Y-99371321D01*
X148295019Y-99294298D01*
X148476302Y-99182052D01*
X148633872Y-99038407D01*
X148762366Y-98868255D01*
X148857405Y-98677389D01*
X148915756Y-98472310D01*
X148935429Y-98260000D01*
X148915756Y-98047690D01*
X148857405Y-97842611D01*
X148857403Y-97842606D01*
X148857403Y-97842605D01*
X148762367Y-97651746D01*
X148633872Y-97481593D01*
X148476302Y-97337948D01*
X148295019Y-97225702D01*
X148295017Y-97225701D01*
X148113578Y-97155412D01*
X148096198Y-97148679D01*
X147899385Y-97111888D01*
X147837106Y-97080221D01*
X147801833Y-97019908D01*
X147804767Y-96950100D01*
X147844976Y-96892960D01*
X147899384Y-96868111D01*
X148096198Y-96831321D01*
X148295019Y-96754298D01*
X148476302Y-96642052D01*
X148633872Y-96498407D01*
X148762366Y-96328255D01*
X148857405Y-96137389D01*
X148915756Y-95932310D01*
X148935429Y-95720000D01*
X148915756Y-95507690D01*
X148857405Y-95302611D01*
X148857403Y-95302606D01*
X148857403Y-95302605D01*
X148762367Y-95111746D01*
X148633872Y-94941593D01*
X148476302Y-94797948D01*
X148295019Y-94685702D01*
X148295017Y-94685701D01*
X148116412Y-94616510D01*
X148096198Y-94608679D01*
X147899385Y-94571888D01*
X147837106Y-94540221D01*
X147801833Y-94479908D01*
X147804767Y-94410100D01*
X147844976Y-94352960D01*
X147899384Y-94328111D01*
X148096198Y-94291321D01*
X148295019Y-94214298D01*
X148476302Y-94102052D01*
X148633872Y-93958407D01*
X148762366Y-93788255D01*
X148857405Y-93597389D01*
X148915756Y-93392310D01*
X148935429Y-93180000D01*
X148915756Y-92967690D01*
X148857405Y-92762611D01*
X148857403Y-92762606D01*
X148857403Y-92762605D01*
X148762367Y-92571746D01*
X148633872Y-92401593D01*
X148497511Y-92277283D01*
X148476302Y-92257948D01*
X148295019Y-92145702D01*
X148295017Y-92145701D01*
X148116412Y-92076510D01*
X148096198Y-92068679D01*
X147899385Y-92031888D01*
X147837106Y-92000221D01*
X147801833Y-91939908D01*
X147804767Y-91870100D01*
X147844976Y-91812960D01*
X147899384Y-91788111D01*
X148096198Y-91751321D01*
X148295019Y-91674298D01*
X148476302Y-91562052D01*
X148633872Y-91418407D01*
X148762366Y-91248255D01*
X148795284Y-91182147D01*
X148857403Y-91057394D01*
X148857403Y-91057393D01*
X148857405Y-91057389D01*
X148915756Y-90852310D01*
X148935429Y-90640000D01*
X148915756Y-90427690D01*
X148857405Y-90222611D01*
X148857403Y-90222606D01*
X148857403Y-90222605D01*
X148762367Y-90031746D01*
X148633872Y-89861593D01*
X148476302Y-89717948D01*
X148295019Y-89605702D01*
X148295017Y-89605701D01*
X148116412Y-89536510D01*
X148096198Y-89528679D01*
X147899385Y-89491888D01*
X147837106Y-89460221D01*
X147801833Y-89399908D01*
X147804767Y-89330100D01*
X147844976Y-89272960D01*
X147899384Y-89248111D01*
X148096198Y-89211321D01*
X148295019Y-89134298D01*
X148476302Y-89022052D01*
X148633872Y-88878407D01*
X148762366Y-88708255D01*
X148831592Y-88569229D01*
X148857403Y-88517394D01*
X148857403Y-88517393D01*
X148857405Y-88517389D01*
X148915756Y-88312310D01*
X148935429Y-88100000D01*
X148915756Y-87887690D01*
X148857405Y-87682611D01*
X148857403Y-87682606D01*
X148857403Y-87682605D01*
X148762367Y-87491746D01*
X148633872Y-87321593D01*
X148631265Y-87319216D01*
X148476302Y-87177948D01*
X148295019Y-87065702D01*
X148295017Y-87065701D01*
X148116412Y-86996510D01*
X148096198Y-86988679D01*
X147899385Y-86951888D01*
X147837106Y-86920221D01*
X147801833Y-86859908D01*
X147804767Y-86790100D01*
X147844976Y-86732960D01*
X147899384Y-86708111D01*
X148096198Y-86671321D01*
X148295019Y-86594298D01*
X148476302Y-86482052D01*
X148633872Y-86338407D01*
X148762366Y-86168255D01*
X148856013Y-85980185D01*
X148857403Y-85977394D01*
X148857403Y-85977393D01*
X148857405Y-85977389D01*
X148915756Y-85772310D01*
X148935429Y-85560000D01*
X148915756Y-85347690D01*
X148857405Y-85142611D01*
X148857403Y-85142606D01*
X148857403Y-85142605D01*
X148762367Y-84951746D01*
X148633872Y-84781593D01*
X148476302Y-84637948D01*
X148295019Y-84525702D01*
X148295017Y-84525701D01*
X148116412Y-84456510D01*
X148096198Y-84448679D01*
X147886610Y-84409500D01*
X147673390Y-84409500D01*
X147463802Y-84448679D01*
X147463797Y-84448680D01*
X147374280Y-84483359D01*
X147304657Y-84489221D01*
X147242917Y-84456510D01*
X147241806Y-84455413D01*
X147036812Y-84250419D01*
X147003327Y-84189096D01*
X147000493Y-84162738D01*
X147000493Y-81573156D01*
X147020178Y-81506117D01*
X147072982Y-81460362D01*
X147142140Y-81450418D01*
X147189767Y-81467727D01*
X147264981Y-81514298D01*
X147463802Y-81591321D01*
X147673390Y-81630500D01*
X147673392Y-81630500D01*
X147886608Y-81630500D01*
X147886610Y-81630500D01*
X148096198Y-81591321D01*
X148295019Y-81514298D01*
X148476302Y-81402052D01*
X148633872Y-81258407D01*
X148762366Y-81088255D01*
X148779192Y-81054464D01*
X148857403Y-80897394D01*
X148857403Y-80897393D01*
X148857405Y-80897389D01*
X148915756Y-80692310D01*
X148935429Y-80480000D01*
X148915756Y-80267690D01*
X148857405Y-80062611D01*
X148857403Y-80062606D01*
X148857403Y-80062605D01*
X148762367Y-79871746D01*
X148633872Y-79701593D01*
X148599419Y-79670185D01*
X148476302Y-79557948D01*
X148295019Y-79445702D01*
X148295017Y-79445701D01*
X148096196Y-79368678D01*
X147987386Y-79348337D01*
X147925105Y-79316669D01*
X147922491Y-79314130D01*
X147894773Y-79286412D01*
X147861288Y-79225089D01*
X147866272Y-79155397D01*
X147908144Y-79099464D01*
X147959665Y-79076843D01*
X148096198Y-79051321D01*
X148295019Y-78974298D01*
X148476302Y-78862052D01*
X148633872Y-78718407D01*
X148762366Y-78548255D01*
X148762367Y-78548253D01*
X148857403Y-78357394D01*
X148857403Y-78357393D01*
X148857405Y-78357389D01*
X148915756Y-78152310D01*
X148935429Y-77940000D01*
X148915756Y-77727690D01*
X148857405Y-77522611D01*
X148857403Y-77522606D01*
X148857403Y-77522605D01*
X148762367Y-77331746D01*
X148633872Y-77161593D01*
X148548522Y-77083786D01*
X148476302Y-77017948D01*
X148295019Y-76905702D01*
X148295017Y-76905701D01*
X148178674Y-76860630D01*
X148096198Y-76828679D01*
X147899385Y-76791888D01*
X147837106Y-76760221D01*
X147801833Y-76699908D01*
X147804767Y-76630100D01*
X147844976Y-76572960D01*
X147899384Y-76548111D01*
X148096198Y-76511321D01*
X148295019Y-76434298D01*
X148476302Y-76322052D01*
X148633872Y-76178407D01*
X148762366Y-76008255D01*
X148799467Y-75933745D01*
X148857403Y-75817394D01*
X148857403Y-75817393D01*
X148857405Y-75817389D01*
X148915756Y-75612310D01*
X148935429Y-75400000D01*
X148915756Y-75187690D01*
X148857405Y-74982611D01*
X148857403Y-74982606D01*
X148857403Y-74982605D01*
X148762367Y-74791746D01*
X148633872Y-74621593D01*
X148610106Y-74599927D01*
X148476302Y-74477948D01*
X148295019Y-74365702D01*
X148295017Y-74365701D01*
X148116412Y-74296510D01*
X148096198Y-74288679D01*
X147899385Y-74251888D01*
X147837106Y-74220221D01*
X147801833Y-74159908D01*
X147804767Y-74090100D01*
X147844976Y-74032960D01*
X147899384Y-74008111D01*
X148096198Y-73971321D01*
X148295019Y-73894298D01*
X148476302Y-73782052D01*
X148633872Y-73638407D01*
X148762366Y-73468255D01*
X148774166Y-73444558D01*
X148857403Y-73277394D01*
X148857403Y-73277393D01*
X148857405Y-73277389D01*
X148915756Y-73072310D01*
X148935429Y-72860000D01*
X148915756Y-72647690D01*
X148857405Y-72442611D01*
X148857403Y-72442606D01*
X148857403Y-72442605D01*
X148762367Y-72251746D01*
X148633872Y-72081593D01*
X148476302Y-71937948D01*
X148295019Y-71825702D01*
X148295017Y-71825701D01*
X148116412Y-71756510D01*
X148096198Y-71748679D01*
X147899385Y-71711888D01*
X147837106Y-71680221D01*
X147801833Y-71619908D01*
X147804767Y-71550100D01*
X147844976Y-71492960D01*
X147899384Y-71468111D01*
X148096198Y-71431321D01*
X148295019Y-71354298D01*
X148476302Y-71242052D01*
X148633872Y-71098407D01*
X148762366Y-70928255D01*
X148821205Y-70810090D01*
X148857403Y-70737394D01*
X148857403Y-70737393D01*
X148857405Y-70737389D01*
X148915756Y-70532310D01*
X148935429Y-70320000D01*
X148915756Y-70107690D01*
X148857405Y-69902611D01*
X148857403Y-69902606D01*
X148857403Y-69902605D01*
X148762367Y-69711746D01*
X148633872Y-69541593D01*
X148603324Y-69513745D01*
X148476302Y-69397948D01*
X148295019Y-69285702D01*
X148295017Y-69285701D01*
X148195608Y-69247190D01*
X148096198Y-69208679D01*
X147899385Y-69171888D01*
X147837106Y-69140221D01*
X147801833Y-69079908D01*
X147804767Y-69010100D01*
X147844976Y-68952960D01*
X147899384Y-68928111D01*
X148096198Y-68891321D01*
X148295019Y-68814298D01*
X148476302Y-68702052D01*
X148633872Y-68558407D01*
X148762366Y-68388255D01*
X148831592Y-68249229D01*
X148857403Y-68197394D01*
X148857403Y-68197393D01*
X148857405Y-68197389D01*
X148915756Y-67992310D01*
X148935429Y-67780000D01*
X148915756Y-67567690D01*
X148857405Y-67362611D01*
X148857403Y-67362606D01*
X148857403Y-67362605D01*
X148762367Y-67171746D01*
X148633872Y-67001593D01*
X148557202Y-66931699D01*
X148476302Y-66857948D01*
X148295019Y-66745702D01*
X148295017Y-66745701D01*
X148195608Y-66707190D01*
X148096198Y-66668679D01*
X147899385Y-66631888D01*
X147837106Y-66600221D01*
X147801833Y-66539908D01*
X147804767Y-66470100D01*
X147844976Y-66412960D01*
X147899384Y-66388111D01*
X148096198Y-66351321D01*
X148295019Y-66274298D01*
X148476302Y-66162052D01*
X148633872Y-66018407D01*
X148762366Y-65848255D01*
X148762367Y-65848253D01*
X148857403Y-65657394D01*
X148857403Y-65657393D01*
X148857405Y-65657389D01*
X148915756Y-65452310D01*
X148935429Y-65240000D01*
X148915756Y-65027690D01*
X148857405Y-64822611D01*
X148857403Y-64822606D01*
X148857403Y-64822605D01*
X148762367Y-64631746D01*
X148633872Y-64461593D01*
X148476302Y-64317948D01*
X148295019Y-64205702D01*
X148295017Y-64205701D01*
X148195608Y-64167190D01*
X148096198Y-64128679D01*
X147899385Y-64091888D01*
X147837106Y-64060221D01*
X147801833Y-63999908D01*
X147804767Y-63930100D01*
X147844976Y-63872960D01*
X147899384Y-63848111D01*
X148096198Y-63811321D01*
X148295019Y-63734298D01*
X148476302Y-63622052D01*
X148633872Y-63478407D01*
X148762366Y-63308255D01*
X148795456Y-63241800D01*
X148857403Y-63117394D01*
X148857403Y-63117393D01*
X148857405Y-63117389D01*
X148915756Y-62912310D01*
X148935429Y-62700000D01*
X148915756Y-62487690D01*
X148857405Y-62282611D01*
X148857403Y-62282606D01*
X148857403Y-62282605D01*
X148762367Y-62091746D01*
X148633872Y-61921593D01*
X148563267Y-61857228D01*
X148476302Y-61777948D01*
X148295019Y-61665702D01*
X148295017Y-61665701D01*
X148195608Y-61627190D01*
X148096198Y-61588679D01*
X147899385Y-61551888D01*
X147837106Y-61520221D01*
X147801833Y-61459908D01*
X147804767Y-61390100D01*
X147844976Y-61332960D01*
X147899384Y-61308111D01*
X148096198Y-61271321D01*
X148295019Y-61194298D01*
X148476302Y-61082052D01*
X148633872Y-60938407D01*
X148762366Y-60768255D01*
X148795456Y-60701800D01*
X148857403Y-60577394D01*
X148857403Y-60577393D01*
X148857405Y-60577389D01*
X148915756Y-60372310D01*
X148935429Y-60160000D01*
X148915756Y-59947690D01*
X148857405Y-59742611D01*
X148857403Y-59742606D01*
X148857403Y-59742605D01*
X148762367Y-59551746D01*
X148633872Y-59381593D01*
X148476302Y-59237948D01*
X148295019Y-59125702D01*
X148295017Y-59125701D01*
X148153547Y-59070896D01*
X148096198Y-59048679D01*
X147899385Y-59011888D01*
X147837106Y-58980221D01*
X147801833Y-58919908D01*
X147804767Y-58850100D01*
X147844976Y-58792960D01*
X147899384Y-58768111D01*
X148096198Y-58731321D01*
X148295019Y-58654298D01*
X148476302Y-58542052D01*
X148633872Y-58398407D01*
X148762366Y-58228255D01*
X148795456Y-58161800D01*
X148857403Y-58037394D01*
X148857403Y-58037393D01*
X148857405Y-58037389D01*
X148915756Y-57832310D01*
X148935429Y-57620000D01*
X148915756Y-57407690D01*
X148857405Y-57202611D01*
X148857403Y-57202606D01*
X148857403Y-57202605D01*
X148762367Y-57011746D01*
X148633872Y-56841593D01*
X148596739Y-56807742D01*
X148476302Y-56697948D01*
X148295019Y-56585702D01*
X148295017Y-56585701D01*
X148195608Y-56547190D01*
X148096198Y-56508679D01*
X147899385Y-56471888D01*
X147837106Y-56440221D01*
X147801833Y-56379908D01*
X147804767Y-56310100D01*
X147844976Y-56252960D01*
X147899384Y-56228111D01*
X148096198Y-56191321D01*
X148295019Y-56114298D01*
X148476302Y-56002052D01*
X148633872Y-55858407D01*
X148762366Y-55688255D01*
X148795456Y-55621800D01*
X148857403Y-55497394D01*
X148857403Y-55497393D01*
X148857405Y-55497389D01*
X148915756Y-55292310D01*
X148935429Y-55080000D01*
X148915756Y-54867690D01*
X148857405Y-54662611D01*
X148857403Y-54662606D01*
X148857403Y-54662605D01*
X148762367Y-54471746D01*
X148633872Y-54301593D01*
X148476302Y-54157948D01*
X148295019Y-54045702D01*
X148295017Y-54045701D01*
X148195608Y-54007190D01*
X148096198Y-53968679D01*
X147886610Y-53929500D01*
X147673390Y-53929500D01*
X147463802Y-53968679D01*
X147463799Y-53968679D01*
X147463799Y-53968680D01*
X147264982Y-54045701D01*
X147264980Y-54045702D01*
X147083699Y-54157947D01*
X146926127Y-54301593D01*
X146797632Y-54471746D01*
X146702596Y-54662605D01*
X146702596Y-54662607D01*
X146644244Y-54867689D01*
X146624571Y-55079999D01*
X146624571Y-55080000D01*
X146644244Y-55292310D01*
X146703390Y-55500184D01*
X146702804Y-55570052D01*
X146671805Y-55621800D01*
X137092022Y-65201584D01*
X137092017Y-65201590D01*
X137044387Y-65284089D01*
X136993820Y-65332305D01*
X136925213Y-65345527D01*
X136860348Y-65319559D01*
X136819820Y-65262645D01*
X136813000Y-65222089D01*
X136813000Y-61584753D01*
X136832685Y-61517714D01*
X136849314Y-61497077D01*
X147241806Y-51104584D01*
X147303127Y-51071101D01*
X147372819Y-51076085D01*
X147374278Y-51076640D01*
X147440273Y-51102206D01*
X147463802Y-51111321D01*
X147673390Y-51150500D01*
X147673392Y-51150500D01*
X147886608Y-51150500D01*
X147886610Y-51150500D01*
X148096198Y-51111321D01*
X148295019Y-51034298D01*
X148476302Y-50922052D01*
X148633872Y-50778407D01*
X148762366Y-50608255D01*
X148799966Y-50532744D01*
X148857403Y-50417394D01*
X148857403Y-50417393D01*
X148857405Y-50417389D01*
X148915756Y-50212310D01*
X148935429Y-50000000D01*
X148915756Y-49787690D01*
X148857405Y-49582611D01*
X148857403Y-49582606D01*
X148857403Y-49582605D01*
X148762367Y-49391746D01*
X148633872Y-49221593D01*
X148506133Y-49105143D01*
X148476302Y-49077948D01*
X148295019Y-48965702D01*
X148295017Y-48965701D01*
X148195608Y-48927190D01*
X148096198Y-48888679D01*
X147886610Y-48849500D01*
X147673390Y-48849500D01*
X147463802Y-48888679D01*
X147463799Y-48888679D01*
X147463799Y-48888680D01*
X147264982Y-48965701D01*
X147264980Y-48965702D01*
X147083699Y-49077947D01*
X146926127Y-49221593D01*
X146797632Y-49391746D01*
X146702596Y-49582605D01*
X146702596Y-49582607D01*
X146644244Y-49787689D01*
X146624571Y-49999999D01*
X146624571Y-50000000D01*
X146644244Y-50212310D01*
X146703390Y-50420184D01*
X146702804Y-50490052D01*
X146671805Y-50541800D01*
X136092022Y-61121584D01*
X136092018Y-61121590D01*
X136039292Y-61212912D01*
X136039293Y-61212913D01*
X136012000Y-61314773D01*
X136012000Y-73457162D01*
X135999401Y-73511621D01*
X135972634Y-73566375D01*
X135962000Y-73639364D01*
X135962000Y-73639369D01*
X135962000Y-74170245D01*
X135942315Y-74237284D01*
X135925681Y-74257926D01*
X135612181Y-74571426D01*
X135550858Y-74604911D01*
X135481166Y-74599927D01*
X135425233Y-74558055D01*
X135400816Y-74492591D01*
X135400500Y-74483745D01*
X135400500Y-54947275D01*
X135400500Y-54947273D01*
X135373207Y-54845413D01*
X135373207Y-54845412D01*
X135320480Y-54754087D01*
X131186818Y-50620425D01*
X131153333Y-50559102D01*
X131150499Y-50532744D01*
X131150499Y-49105143D01*
X131150499Y-49105136D01*
X131150497Y-49105117D01*
X131147586Y-49080012D01*
X131147585Y-49080010D01*
X131147585Y-49080009D01*
X131102206Y-48977235D01*
X131022765Y-48897794D01*
X131002124Y-48888680D01*
X130919992Y-48852415D01*
X130894865Y-48849500D01*
X129105143Y-48849500D01*
X129105117Y-48849502D01*
X129080012Y-48852413D01*
X129080008Y-48852415D01*
X128977235Y-48897793D01*
X128897794Y-48977234D01*
X128852415Y-49080006D01*
X128852415Y-49080008D01*
X128849500Y-49105131D01*
X128849500Y-50894856D01*
X128849502Y-50894882D01*
X128852413Y-50919987D01*
X128852415Y-50919991D01*
X128897793Y-51022764D01*
X128897794Y-51022765D01*
X128977235Y-51102206D01*
X129080009Y-51147585D01*
X129105135Y-51150500D01*
X129833758Y-51150499D01*
X129900796Y-51170183D01*
X129946551Y-51222987D01*
X129956495Y-51292146D01*
X129927470Y-51355702D01*
X129868692Y-51393476D01*
X129856544Y-51396387D01*
X129683802Y-51428679D01*
X129683800Y-51428679D01*
X129683798Y-51428680D01*
X129484982Y-51505701D01*
X129484980Y-51505702D01*
X129303699Y-51617947D01*
X129146127Y-51761593D01*
X129017632Y-51931746D01*
X128922596Y-52122605D01*
X128922596Y-52122607D01*
X128864244Y-52327689D01*
X128844571Y-52539999D01*
X128250500Y-52539999D01*
X128250500Y-48374500D01*
X128270185Y-48307461D01*
X128322989Y-48261706D01*
X128374500Y-48250500D01*
X149375500Y-48250500D01*
X149442539Y-48270185D01*
G37*
%TD.AperFunction*%
%TD*%
M02*
