%TF.GenerationSoftware,KiCad,Pcbnew,8.0.7*%
%TF.CreationDate,2025-02-16T23:10:18-06:00*%
%TF.ProjectId,MCU,4d43552e-6b69-4636-9164-5f7063625858,rev?*%
%TF.SameCoordinates,Original*%
%TF.FileFunction,Legend,Bot*%
%TF.FilePolarity,Positive*%
%FSLAX46Y46*%
G04 Gerber Fmt 4.6, Leading zero omitted, Abs format (unit mm)*
G04 Created by KiCad (PCBNEW 8.0.7) date 2025-02-16 23:10:18*
%MOMM*%
%LPD*%
G01*
G04 APERTURE LIST*
%ADD10C,0.150000*%
%ADD11C,0.120000*%
G04 APERTURE END LIST*
D10*
X142666666Y-74429580D02*
X142714285Y-74477200D01*
X142714285Y-74477200D02*
X142857142Y-74524819D01*
X142857142Y-74524819D02*
X142952380Y-74524819D01*
X142952380Y-74524819D02*
X143095237Y-74477200D01*
X143095237Y-74477200D02*
X143190475Y-74381961D01*
X143190475Y-74381961D02*
X143238094Y-74286723D01*
X143238094Y-74286723D02*
X143285713Y-74096247D01*
X143285713Y-74096247D02*
X143285713Y-73953390D01*
X143285713Y-73953390D02*
X143238094Y-73762914D01*
X143238094Y-73762914D02*
X143190475Y-73667676D01*
X143190475Y-73667676D02*
X143095237Y-73572438D01*
X143095237Y-73572438D02*
X142952380Y-73524819D01*
X142952380Y-73524819D02*
X142857142Y-73524819D01*
X142857142Y-73524819D02*
X142714285Y-73572438D01*
X142714285Y-73572438D02*
X142666666Y-73620057D01*
X142285713Y-73620057D02*
X142238094Y-73572438D01*
X142238094Y-73572438D02*
X142142856Y-73524819D01*
X142142856Y-73524819D02*
X141904761Y-73524819D01*
X141904761Y-73524819D02*
X141809523Y-73572438D01*
X141809523Y-73572438D02*
X141761904Y-73620057D01*
X141761904Y-73620057D02*
X141714285Y-73715295D01*
X141714285Y-73715295D02*
X141714285Y-73810533D01*
X141714285Y-73810533D02*
X141761904Y-73953390D01*
X141761904Y-73953390D02*
X142333332Y-74524819D01*
X142333332Y-74524819D02*
X141714285Y-74524819D01*
X139211611Y-78912391D02*
X139259230Y-78960011D01*
X139259230Y-78960011D02*
X139402087Y-79007630D01*
X139402087Y-79007630D02*
X139497325Y-79007630D01*
X139497325Y-79007630D02*
X139640182Y-78960011D01*
X139640182Y-78960011D02*
X139735420Y-78864772D01*
X139735420Y-78864772D02*
X139783039Y-78769534D01*
X139783039Y-78769534D02*
X139830658Y-78579058D01*
X139830658Y-78579058D02*
X139830658Y-78436201D01*
X139830658Y-78436201D02*
X139783039Y-78245725D01*
X139783039Y-78245725D02*
X139735420Y-78150487D01*
X139735420Y-78150487D02*
X139640182Y-78055249D01*
X139640182Y-78055249D02*
X139497325Y-78007630D01*
X139497325Y-78007630D02*
X139402087Y-78007630D01*
X139402087Y-78007630D02*
X139259230Y-78055249D01*
X139259230Y-78055249D02*
X139211611Y-78102868D01*
X138259230Y-79007630D02*
X138830658Y-79007630D01*
X138544944Y-79007630D02*
X138544944Y-78007630D01*
X138544944Y-78007630D02*
X138640182Y-78150487D01*
X138640182Y-78150487D02*
X138735420Y-78245725D01*
X138735420Y-78245725D02*
X138830658Y-78293344D01*
D11*
%TO.C,C2*%
X142353733Y-74990000D02*
X142646267Y-74990000D01*
X142353733Y-76010000D02*
X142646267Y-76010000D01*
%TO.C,C1*%
X139191212Y-77632811D02*
X138898678Y-77632811D01*
X139191212Y-76612811D02*
X138898678Y-76612811D01*
%TD*%
M02*
