%TF.GenerationSoftware,KiCad,Pcbnew,8.0.7*%
%TF.CreationDate,2025-02-16T23:10:18-06:00*%
%TF.ProjectId,MCU,4d43552e-6b69-4636-9164-5f7063625858,rev?*%
%TF.SameCoordinates,Original*%
%TF.FileFunction,Soldermask,Top*%
%TF.FilePolarity,Negative*%
%FSLAX46Y46*%
G04 Gerber Fmt 4.6, Leading zero omitted, Abs format (unit mm)*
G04 Created by KiCad (PCBNEW 8.0.7) date 2025-02-16 23:10:18*
%MOMM*%
%LPD*%
G01*
G04 APERTURE LIST*
G04 Aperture macros list*
%AMRoundRect*
0 Rectangle with rounded corners*
0 $1 Rounding radius*
0 $2 $3 $4 $5 $6 $7 $8 $9 X,Y pos of 4 corners*
0 Add a 4 corners polygon primitive as box body*
4,1,4,$2,$3,$4,$5,$6,$7,$8,$9,$2,$3,0*
0 Add four circle primitives for the rounded corners*
1,1,$1+$1,$2,$3*
1,1,$1+$1,$4,$5*
1,1,$1+$1,$6,$7*
1,1,$1+$1,$8,$9*
0 Add four rect primitives between the rounded corners*
20,1,$1+$1,$2,$3,$4,$5,0*
20,1,$1+$1,$4,$5,$6,$7,0*
20,1,$1+$1,$6,$7,$8,$9,0*
20,1,$1+$1,$8,$9,$2,$3,0*%
G04 Aperture macros list end*
%ADD10R,1.700000X1.700000*%
%ADD11O,1.700000X1.700000*%
%ADD12RoundRect,0.075000X-0.662500X-0.075000X0.662500X-0.075000X0.662500X0.075000X-0.662500X0.075000X0*%
%ADD13RoundRect,0.075000X-0.075000X-0.662500X0.075000X-0.662500X0.075000X0.662500X-0.075000X0.662500X0*%
G04 APERTURE END LIST*
D10*
%TO.C,J2*%
X147780000Y-108420000D03*
D11*
X147780000Y-105880000D03*
X147780000Y-103340000D03*
X147780000Y-100800000D03*
X147780000Y-98260000D03*
X147780000Y-95720000D03*
X147780000Y-93180000D03*
X147780000Y-90640000D03*
X147780000Y-88100000D03*
X147780000Y-85560000D03*
X147780000Y-83020000D03*
X147780000Y-80480000D03*
X147780000Y-77940000D03*
X147780000Y-75400000D03*
X147780000Y-72860000D03*
X147780000Y-70320000D03*
X147780000Y-67780000D03*
X147780000Y-65240000D03*
X147780000Y-62700000D03*
X147780000Y-60160000D03*
X147780000Y-57620000D03*
X147780000Y-55080000D03*
X147780000Y-52540000D03*
X147780000Y-50000000D03*
%TD*%
D12*
%TO.C,U1*%
X135000000Y-75750000D03*
X135000000Y-76250000D03*
X135000000Y-76750000D03*
X135000000Y-77250000D03*
X135000000Y-77750000D03*
X135000000Y-78250000D03*
X135000000Y-78750000D03*
X135000000Y-79250000D03*
X135000000Y-79750000D03*
X135000000Y-80250000D03*
X135000000Y-80750000D03*
X135000000Y-81250000D03*
D13*
X136412500Y-82662500D03*
X136912500Y-82662500D03*
X137412500Y-82662500D03*
X137912500Y-82662500D03*
X138412500Y-82662500D03*
X138912500Y-82662500D03*
X139412500Y-82662500D03*
X139912500Y-82662500D03*
X140412500Y-82662500D03*
X140912500Y-82662500D03*
X141412500Y-82662500D03*
X141912500Y-82662500D03*
D12*
X143325000Y-81250000D03*
X143325000Y-80750000D03*
X143325000Y-80250000D03*
X143325000Y-79750000D03*
X143325000Y-79250000D03*
X143325000Y-78750000D03*
X143325000Y-78250000D03*
X143325000Y-77750000D03*
X143325000Y-77250000D03*
X143325000Y-76750000D03*
X143325000Y-76250000D03*
X143325000Y-75750000D03*
D13*
X141912500Y-74337500D03*
X141412500Y-74337500D03*
X140912500Y-74337500D03*
X140412500Y-74337500D03*
X139912500Y-74337500D03*
X139412500Y-74337500D03*
X138912500Y-74337500D03*
X138412500Y-74337500D03*
X137912500Y-74337500D03*
X137412500Y-74337500D03*
X136912500Y-74337500D03*
X136412500Y-74337500D03*
%TD*%
D10*
%TO.C,J1*%
X130000000Y-50000000D03*
D11*
X130000000Y-52540000D03*
X130000000Y-55080000D03*
X130000000Y-57620000D03*
X130000000Y-60160000D03*
X130000000Y-62700000D03*
X130000000Y-65240000D03*
X130000000Y-67780000D03*
X130000000Y-70320000D03*
X130000000Y-72860000D03*
X130000000Y-75400000D03*
X130000000Y-77940000D03*
X130000000Y-80480000D03*
X130000000Y-83020000D03*
X130000000Y-85560000D03*
X130000000Y-88100000D03*
X130000000Y-90640000D03*
X130000000Y-93180000D03*
X130000000Y-95720000D03*
X130000000Y-98260000D03*
X130000000Y-100800000D03*
X130000000Y-103340000D03*
X130000000Y-105880000D03*
X130000000Y-108420000D03*
%TD*%
M02*
