M48
; DRILL file {KiCad 8.0.7} date 2025-02-16T23:10:20-0600
; FORMAT={-:-/ absolute / inch / decimal}
; #@! TF.CreationDate,2025-02-16T23:10:20-06:00
; #@! TF.GenerationSoftware,Kicad,Pcbnew,8.0.7
; #@! TF.FileFunction,Plated,1,2,PTH
FMAT,2
INCH
; #@! TA.AperFunction,Plated,PTH,ViaDrill
T1C0.0118
; #@! TA.AperFunction,Plated,PTH,ComponentDrill
T2C0.0394
%
G90
G05
T1
X5.3346Y-4.2815
X5.3642Y-3.0906
X5.374Y-3.0512
X5.3937Y-1.9587
X5.3976Y-3.0293
X5.4035Y-3.1791
X5.4134Y-3.061
X5.4331Y-3.1201
X5.4331Y-3.1988
X5.4721Y-3.0945
X5.4724Y-2.185
X5.4921Y-2.9823
X5.502Y-3.0413
X5.5097Y-3.0792
X5.5454Y-3.0949
X5.5759Y-2.9747
X5.5763Y-3.1023
X5.5807Y-1.9587
X5.5807Y-4.2815
X5.594Y-3.0624
X5.6299Y-3.2579
X5.6442Y-2.9724
X5.6594Y-3.3169
X5.6594Y-3.5138
T2
X5.1181Y-1.9685
X5.1181Y-2.0685
X5.1181Y-2.1685
X5.1181Y-2.2685
X5.1181Y-2.3685
X5.1181Y-2.4685
X5.1181Y-2.5685
X5.1181Y-2.6685
X5.1181Y-2.7685
X5.1181Y-2.8685
X5.1181Y-2.9685
X5.1181Y-3.0685
X5.1181Y-3.1685
X5.1181Y-3.2685
X5.1181Y-3.3685
X5.1181Y-3.4685
X5.1181Y-3.5685
X5.1181Y-3.6685
X5.1181Y-3.7685
X5.1181Y-3.8685
X5.1181Y-3.9685
X5.1181Y-4.0685
X5.1181Y-4.1685
X5.1181Y-4.2685
X5.8181Y-1.9685
X5.8181Y-2.0685
X5.8181Y-2.1685
X5.8181Y-2.2685
X5.8181Y-2.3685
X5.8181Y-2.4685
X5.8181Y-2.5685
X5.8181Y-2.6685
X5.8181Y-2.7685
X5.8181Y-2.8685
X5.8181Y-2.9685
X5.8181Y-3.0685
X5.8181Y-3.1685
X5.8181Y-3.2685
X5.8181Y-3.3685
X5.8181Y-3.4685
X5.8181Y-3.5685
X5.8181Y-3.6685
X5.8181Y-3.7685
X5.8181Y-3.8685
X5.8181Y-3.9685
X5.8181Y-4.0685
X5.8181Y-4.1685
X5.8181Y-4.2685
M30
