%TF.GenerationSoftware,KiCad,Pcbnew,8.0.7*%
%TF.CreationDate,2025-02-16T22:30:25-06:00*%
%TF.ProjectId,MotorDriver,4d6f746f-7244-4726-9976-65722e6b6963,rev?*%
%TF.SameCoordinates,Original*%
%TF.FileFunction,Legend,Top*%
%TF.FilePolarity,Positive*%
%FSLAX46Y46*%
G04 Gerber Fmt 4.6, Leading zero omitted, Abs format (unit mm)*
G04 Created by KiCad (PCBNEW 8.0.7) date 2025-02-16 22:30:25*
%MOMM*%
%LPD*%
G01*
G04 APERTURE LIST*
%ADD10C,0.150000*%
%ADD11C,0.250000*%
%ADD12C,0.120000*%
G04 APERTURE END LIST*
D10*
X133833333Y-96109580D02*
X133785714Y-96157200D01*
X133785714Y-96157200D02*
X133642857Y-96204819D01*
X133642857Y-96204819D02*
X133547619Y-96204819D01*
X133547619Y-96204819D02*
X133404762Y-96157200D01*
X133404762Y-96157200D02*
X133309524Y-96061961D01*
X133309524Y-96061961D02*
X133261905Y-95966723D01*
X133261905Y-95966723D02*
X133214286Y-95776247D01*
X133214286Y-95776247D02*
X133214286Y-95633390D01*
X133214286Y-95633390D02*
X133261905Y-95442914D01*
X133261905Y-95442914D02*
X133309524Y-95347676D01*
X133309524Y-95347676D02*
X133404762Y-95252438D01*
X133404762Y-95252438D02*
X133547619Y-95204819D01*
X133547619Y-95204819D02*
X133642857Y-95204819D01*
X133642857Y-95204819D02*
X133785714Y-95252438D01*
X133785714Y-95252438D02*
X133833333Y-95300057D01*
X134166667Y-95204819D02*
X134785714Y-95204819D01*
X134785714Y-95204819D02*
X134452381Y-95585771D01*
X134452381Y-95585771D02*
X134595238Y-95585771D01*
X134595238Y-95585771D02*
X134690476Y-95633390D01*
X134690476Y-95633390D02*
X134738095Y-95681009D01*
X134738095Y-95681009D02*
X134785714Y-95776247D01*
X134785714Y-95776247D02*
X134785714Y-96014342D01*
X134785714Y-96014342D02*
X134738095Y-96109580D01*
X134738095Y-96109580D02*
X134690476Y-96157200D01*
X134690476Y-96157200D02*
X134595238Y-96204819D01*
X134595238Y-96204819D02*
X134309524Y-96204819D01*
X134309524Y-96204819D02*
X134214286Y-96157200D01*
X134214286Y-96157200D02*
X134166667Y-96109580D01*
X128351040Y-84286157D02*
X128017707Y-83809966D01*
X127779612Y-84286157D02*
X127779612Y-83286157D01*
X127779612Y-83286157D02*
X128160564Y-83286157D01*
X128160564Y-83286157D02*
X128255802Y-83333776D01*
X128255802Y-83333776D02*
X128303421Y-83381395D01*
X128303421Y-83381395D02*
X128351040Y-83476633D01*
X128351040Y-83476633D02*
X128351040Y-83619490D01*
X128351040Y-83619490D02*
X128303421Y-83714728D01*
X128303421Y-83714728D02*
X128255802Y-83762347D01*
X128255802Y-83762347D02*
X128160564Y-83809966D01*
X128160564Y-83809966D02*
X127779612Y-83809966D01*
X129303421Y-84286157D02*
X128731993Y-84286157D01*
X129017707Y-84286157D02*
X129017707Y-83286157D01*
X129017707Y-83286157D02*
X128922469Y-83429014D01*
X128922469Y-83429014D02*
X128827231Y-83524252D01*
X128827231Y-83524252D02*
X128731993Y-83571871D01*
X139833333Y-93609580D02*
X139785714Y-93657200D01*
X139785714Y-93657200D02*
X139642857Y-93704819D01*
X139642857Y-93704819D02*
X139547619Y-93704819D01*
X139547619Y-93704819D02*
X139404762Y-93657200D01*
X139404762Y-93657200D02*
X139309524Y-93561961D01*
X139309524Y-93561961D02*
X139261905Y-93466723D01*
X139261905Y-93466723D02*
X139214286Y-93276247D01*
X139214286Y-93276247D02*
X139214286Y-93133390D01*
X139214286Y-93133390D02*
X139261905Y-92942914D01*
X139261905Y-92942914D02*
X139309524Y-92847676D01*
X139309524Y-92847676D02*
X139404762Y-92752438D01*
X139404762Y-92752438D02*
X139547619Y-92704819D01*
X139547619Y-92704819D02*
X139642857Y-92704819D01*
X139642857Y-92704819D02*
X139785714Y-92752438D01*
X139785714Y-92752438D02*
X139833333Y-92800057D01*
X140738095Y-92704819D02*
X140261905Y-92704819D01*
X140261905Y-92704819D02*
X140214286Y-93181009D01*
X140214286Y-93181009D02*
X140261905Y-93133390D01*
X140261905Y-93133390D02*
X140357143Y-93085771D01*
X140357143Y-93085771D02*
X140595238Y-93085771D01*
X140595238Y-93085771D02*
X140690476Y-93133390D01*
X140690476Y-93133390D02*
X140738095Y-93181009D01*
X140738095Y-93181009D02*
X140785714Y-93276247D01*
X140785714Y-93276247D02*
X140785714Y-93514342D01*
X140785714Y-93514342D02*
X140738095Y-93609580D01*
X140738095Y-93609580D02*
X140690476Y-93657200D01*
X140690476Y-93657200D02*
X140595238Y-93704819D01*
X140595238Y-93704819D02*
X140357143Y-93704819D01*
X140357143Y-93704819D02*
X140261905Y-93657200D01*
X140261905Y-93657200D02*
X140214286Y-93609580D01*
X129583333Y-88859580D02*
X129535714Y-88907200D01*
X129535714Y-88907200D02*
X129392857Y-88954819D01*
X129392857Y-88954819D02*
X129297619Y-88954819D01*
X129297619Y-88954819D02*
X129154762Y-88907200D01*
X129154762Y-88907200D02*
X129059524Y-88811961D01*
X129059524Y-88811961D02*
X129011905Y-88716723D01*
X129011905Y-88716723D02*
X128964286Y-88526247D01*
X128964286Y-88526247D02*
X128964286Y-88383390D01*
X128964286Y-88383390D02*
X129011905Y-88192914D01*
X129011905Y-88192914D02*
X129059524Y-88097676D01*
X129059524Y-88097676D02*
X129154762Y-88002438D01*
X129154762Y-88002438D02*
X129297619Y-87954819D01*
X129297619Y-87954819D02*
X129392857Y-87954819D01*
X129392857Y-87954819D02*
X129535714Y-88002438D01*
X129535714Y-88002438D02*
X129583333Y-88050057D01*
X130440476Y-87954819D02*
X130250000Y-87954819D01*
X130250000Y-87954819D02*
X130154762Y-88002438D01*
X130154762Y-88002438D02*
X130107143Y-88050057D01*
X130107143Y-88050057D02*
X130011905Y-88192914D01*
X130011905Y-88192914D02*
X129964286Y-88383390D01*
X129964286Y-88383390D02*
X129964286Y-88764342D01*
X129964286Y-88764342D02*
X130011905Y-88859580D01*
X130011905Y-88859580D02*
X130059524Y-88907200D01*
X130059524Y-88907200D02*
X130154762Y-88954819D01*
X130154762Y-88954819D02*
X130345238Y-88954819D01*
X130345238Y-88954819D02*
X130440476Y-88907200D01*
X130440476Y-88907200D02*
X130488095Y-88859580D01*
X130488095Y-88859580D02*
X130535714Y-88764342D01*
X130535714Y-88764342D02*
X130535714Y-88526247D01*
X130535714Y-88526247D02*
X130488095Y-88431009D01*
X130488095Y-88431009D02*
X130440476Y-88383390D01*
X130440476Y-88383390D02*
X130345238Y-88335771D01*
X130345238Y-88335771D02*
X130154762Y-88335771D01*
X130154762Y-88335771D02*
X130059524Y-88383390D01*
X130059524Y-88383390D02*
X130011905Y-88431009D01*
X130011905Y-88431009D02*
X129964286Y-88526247D01*
X135833333Y-98859580D02*
X135785714Y-98907200D01*
X135785714Y-98907200D02*
X135642857Y-98954819D01*
X135642857Y-98954819D02*
X135547619Y-98954819D01*
X135547619Y-98954819D02*
X135404762Y-98907200D01*
X135404762Y-98907200D02*
X135309524Y-98811961D01*
X135309524Y-98811961D02*
X135261905Y-98716723D01*
X135261905Y-98716723D02*
X135214286Y-98526247D01*
X135214286Y-98526247D02*
X135214286Y-98383390D01*
X135214286Y-98383390D02*
X135261905Y-98192914D01*
X135261905Y-98192914D02*
X135309524Y-98097676D01*
X135309524Y-98097676D02*
X135404762Y-98002438D01*
X135404762Y-98002438D02*
X135547619Y-97954819D01*
X135547619Y-97954819D02*
X135642857Y-97954819D01*
X135642857Y-97954819D02*
X135785714Y-98002438D01*
X135785714Y-98002438D02*
X135833333Y-98050057D01*
X136166667Y-97954819D02*
X136833333Y-97954819D01*
X136833333Y-97954819D02*
X136404762Y-98954819D01*
X139833333Y-95024819D02*
X139357143Y-95024819D01*
X139357143Y-95024819D02*
X139357143Y-94024819D01*
X140690476Y-95024819D02*
X140119048Y-95024819D01*
X140404762Y-95024819D02*
X140404762Y-94024819D01*
X140404762Y-94024819D02*
X140309524Y-94167676D01*
X140309524Y-94167676D02*
X140214286Y-94262914D01*
X140214286Y-94262914D02*
X140119048Y-94310533D01*
X139833333Y-84359580D02*
X139785714Y-84407200D01*
X139785714Y-84407200D02*
X139642857Y-84454819D01*
X139642857Y-84454819D02*
X139547619Y-84454819D01*
X139547619Y-84454819D02*
X139404762Y-84407200D01*
X139404762Y-84407200D02*
X139309524Y-84311961D01*
X139309524Y-84311961D02*
X139261905Y-84216723D01*
X139261905Y-84216723D02*
X139214286Y-84026247D01*
X139214286Y-84026247D02*
X139214286Y-83883390D01*
X139214286Y-83883390D02*
X139261905Y-83692914D01*
X139261905Y-83692914D02*
X139309524Y-83597676D01*
X139309524Y-83597676D02*
X139404762Y-83502438D01*
X139404762Y-83502438D02*
X139547619Y-83454819D01*
X139547619Y-83454819D02*
X139642857Y-83454819D01*
X139642857Y-83454819D02*
X139785714Y-83502438D01*
X139785714Y-83502438D02*
X139833333Y-83550057D01*
X140690476Y-83788152D02*
X140690476Y-84454819D01*
X140452381Y-83407200D02*
X140214286Y-84121485D01*
X140214286Y-84121485D02*
X140833333Y-84121485D01*
%TO.C,U1*%
X136750001Y-92000001D02*
X136500002Y-92000001D01*
X136750001Y-91750001D02*
X136750001Y-92000001D01*
X136750001Y-84999999D02*
X136750001Y-85249999D01*
X136750001Y-84999999D02*
X136500002Y-84999999D01*
X132000000Y-92000001D02*
X131750001Y-92000001D01*
X132000000Y-84999999D02*
X131750001Y-84999999D01*
X131750001Y-91750001D02*
X131750001Y-92000001D01*
X131750001Y-84999999D02*
X131750001Y-85249999D01*
D11*
X138131068Y-91250000D02*
G75*
G02*
X137881066Y-91250000I-125001J0D01*
G01*
X137881066Y-91250000D02*
G75*
G02*
X138131068Y-91250000I125001J0D01*
G01*
D12*
%TO.C,C3*%
X135265000Y-95488748D02*
X135265000Y-96011252D01*
X136735000Y-95488748D02*
X136735000Y-96011252D01*
%TO.C,R1*%
X128290643Y-84746338D02*
X128744771Y-84746338D01*
X128290643Y-86216338D02*
X128744771Y-86216338D01*
%TO.C,C5*%
X139265000Y-90761252D02*
X139265000Y-90238748D01*
X140735000Y-90761252D02*
X140735000Y-90238748D01*
%TO.C,C6*%
X127015000Y-88238748D02*
X127015000Y-88761252D01*
X128485000Y-88238748D02*
X128485000Y-88761252D01*
%TO.C,C7*%
X138738748Y-97515000D02*
X139261252Y-97515000D01*
X138738748Y-98985000D02*
X139261252Y-98985000D01*
%TO.C,L1*%
X139837221Y-95490000D02*
X140162779Y-95490000D01*
X139837221Y-96510000D02*
X140162779Y-96510000D01*
%TO.C,C4*%
X139265000Y-86238748D02*
X139265000Y-86761252D01*
X140735000Y-86238748D02*
X140735000Y-86761252D01*
%TD*%
M02*
