%TF.GenerationSoftware,KiCad,Pcbnew,8.0.7*%
%TF.CreationDate,2025-02-16T22:30:25-06:00*%
%TF.ProjectId,MotorDriver,4d6f746f-7244-4726-9976-65722e6b6963,rev?*%
%TF.SameCoordinates,Original*%
%TF.FileFunction,Copper,L3,Inr*%
%TF.FilePolarity,Positive*%
%FSLAX46Y46*%
G04 Gerber Fmt 4.6, Leading zero omitted, Abs format (unit mm)*
G04 Created by KiCad (PCBNEW 8.0.7) date 2025-02-16 22:30:25*
%MOMM*%
%LPD*%
G01*
G04 APERTURE LIST*
%TA.AperFunction,ComponentPad*%
%ADD10R,1.700000X1.700000*%
%TD*%
%TA.AperFunction,ComponentPad*%
%ADD11O,1.700000X1.700000*%
%TD*%
%TA.AperFunction,ViaPad*%
%ADD12C,0.600000*%
%TD*%
%TA.AperFunction,Conductor*%
%ADD13C,2.250000*%
%TD*%
G04 APERTURE END LIST*
D10*
%TO.N,Net-(J2-Pin_1)*%
%TO.C,J2*%
X125000000Y-75000000D03*
D11*
%TO.N,Net-(J2-Pin_2)*%
X125000000Y-77540000D03*
%TO.N,Net-(J2-Pin_3)*%
X125000000Y-80080000D03*
%TO.N,Net-(J2-Pin_4)*%
X125000000Y-82620000D03*
%TO.N,Net-(J2-Pin_5)*%
X125000000Y-85160000D03*
%TO.N,Net-(J2-Pin_6)*%
X125000000Y-87700000D03*
%TO.N,/INHA*%
X125000000Y-90240000D03*
%TO.N,/INLA*%
X125000000Y-92780000D03*
%TO.N,/INHB*%
X125000000Y-95320000D03*
%TO.N,/INLB*%
X125000000Y-97860000D03*
%TO.N,/INHC*%
X125000000Y-100400000D03*
%TO.N,/INLC*%
X125000000Y-102940000D03*
%TD*%
D10*
%TO.N,/OUTA*%
%TO.C,J4*%
X142780000Y-75000000D03*
D11*
%TO.N,/OUTB*%
X142780000Y-77540000D03*
%TO.N,/OUTC*%
X142780000Y-80080000D03*
%TO.N,unconnected-(J4-Pin_4-Pad4)*%
X142780000Y-82620000D03*
%TO.N,Net-(J4-Pin_5)*%
X142780000Y-85160000D03*
%TO.N,Net-(J4-Pin_6)*%
X142780000Y-87700000D03*
%TO.N,Net-(J4-Pin_7)*%
X142780000Y-90240000D03*
%TO.N,/Buck_Out*%
X142780000Y-92780000D03*
%TO.N,+3.3V*%
X142780000Y-95320000D03*
%TO.N,GND*%
X142780000Y-97860000D03*
%TO.N,+BATT*%
X142780000Y-100400000D03*
%TO.N,-BATT*%
X142780000Y-102940000D03*
%TD*%
D12*
%TO.N,/OUTA*%
X138500000Y-74250000D03*
X139250000Y-74250000D03*
X137750000Y-75000000D03*
X137750000Y-74250000D03*
X139250000Y-75000000D03*
X138500000Y-75000000D03*
X138500000Y-75750000D03*
X137750000Y-75750000D03*
X139250000Y-75750000D03*
%TO.N,/OUTB*%
X134250000Y-75750000D03*
X134250000Y-74250000D03*
X133500000Y-75000000D03*
X135000000Y-75000000D03*
X133500000Y-75750000D03*
X135000000Y-75750000D03*
X135000000Y-74250000D03*
X134250000Y-75000000D03*
X133500000Y-74250000D03*
%TO.N,/OUTC*%
X130250000Y-75750000D03*
X129500000Y-75750000D03*
X128750000Y-75750000D03*
X130250000Y-74250000D03*
X130250000Y-75000000D03*
X128750000Y-75000000D03*
X129500000Y-75000000D03*
X128750000Y-74250000D03*
X129500000Y-74250000D03*
%TO.N,/OUTA*%
X137250000Y-82750000D03*
X136500000Y-82750000D03*
%TO.N,/OUTC*%
X131750000Y-82750000D03*
X131000000Y-82750000D03*
X131000000Y-83500000D03*
%TO.N,/OUTA*%
X137250000Y-83500000D03*
X136500000Y-83500000D03*
%TO.N,/OUTC*%
X131750000Y-83500000D03*
%TO.N,Net-(J2-Pin_4)*%
X126346517Y-85256949D03*
%TO.N,Net-(J2-Pin_5)*%
X126459443Y-90290525D03*
%TO.N,GND*%
X127894936Y-89392563D03*
%TO.N,+BATT*%
X138000000Y-86500000D03*
X137250000Y-86500000D03*
%TO.N,-BATT*%
X137750000Y-84750000D03*
X137750000Y-85500000D03*
%TO.N,/OUTA*%
X136500000Y-84250000D03*
X136500000Y-85000000D03*
X135750000Y-85000000D03*
%TO.N,/OUTB*%
X134250000Y-81750000D03*
X134250000Y-83250000D03*
X134750000Y-82500000D03*
X133750000Y-82500000D03*
%TO.N,-BATT*%
X133250000Y-84000000D03*
X135250000Y-84000000D03*
%TO.N,/OUTB*%
X134250000Y-85000000D03*
X134250000Y-84250000D03*
%TO.N,/OUTC*%
X131750000Y-84250000D03*
X131750000Y-85000000D03*
X132750000Y-85000000D03*
%TO.N,GND*%
X133750000Y-90750000D03*
X134750000Y-90750000D03*
X134750000Y-89500000D03*
X133750000Y-89500000D03*
X134750000Y-88250000D03*
X133750000Y-88250000D03*
%TO.N,Net-(J4-Pin_7)*%
X139000000Y-95000000D03*
%TO.N,Net-(J4-Pin_6)*%
X139500000Y-94350000D03*
%TO.N,Net-(J4-Pin_5)*%
X138415380Y-93584620D03*
%TO.N,/Buck_Out*%
X138822809Y-92819551D03*
X140106796Y-92750000D03*
%TO.N,Net-(J2-Pin_3)*%
X129750000Y-93000000D03*
%TO.N,Net-(J2-Pin_4)*%
X129148957Y-93601043D03*
%TO.N,Net-(J2-Pin_5)*%
X128382843Y-94500000D03*
%TO.N,+3.3V*%
X129000000Y-96000000D03*
%TO.N,GND*%
X138950000Y-98250000D03*
X134000000Y-93750000D03*
X134250000Y-97000000D03*
X134750000Y-96250000D03*
X133750000Y-96250000D03*
%TO.N,+BATT*%
X135250000Y-100000000D03*
X136000000Y-100000000D03*
X137500000Y-100750000D03*
X137500000Y-101500000D03*
X137500000Y-100000000D03*
X136750000Y-101500000D03*
X135250000Y-101500000D03*
X136000000Y-101500000D03*
X136750000Y-100000000D03*
X135250000Y-100750000D03*
X136750000Y-100750000D03*
X136000000Y-100750000D03*
%TO.N,-BATT*%
X132750000Y-101500000D03*
X130500000Y-101500000D03*
X132000000Y-101500000D03*
X131250000Y-101500000D03*
X130500000Y-100750000D03*
X131250000Y-100750000D03*
X132750000Y-100750000D03*
X132000000Y-100750000D03*
X132750000Y-100000000D03*
X132000000Y-100000000D03*
X131250000Y-100000000D03*
%TO.N,+3.3V*%
X129517707Y-85481338D03*
X127750000Y-87462500D03*
%TO.N,Net-(J2-Pin_1)*%
X129500000Y-87081338D03*
%TO.N,-BATT*%
X130500000Y-100000000D03*
%TO.N,Net-(J2-Pin_2)*%
X128382843Y-95490965D03*
%TD*%
D13*
%TO.N,/OUTB*%
X136790000Y-77540000D02*
X134000000Y-74750000D01*
X142780000Y-77540000D02*
X136790000Y-77540000D01*
%TO.N,/OUTC*%
X134830000Y-80080000D02*
X129500000Y-74750000D01*
X142780000Y-80080000D02*
X134830000Y-80080000D01*
%TD*%
%TA.AperFunction,Conductor*%
%TO.N,GND*%
G36*
X129294543Y-73269407D02*
G01*
X129330507Y-73318907D01*
X129330507Y-73380093D01*
X129294543Y-73429593D01*
X129251838Y-73447281D01*
X129189611Y-73457136D01*
X129189609Y-73457136D01*
X128991182Y-73521612D01*
X128805289Y-73616328D01*
X128636497Y-73738963D01*
X128622179Y-73753281D01*
X128580071Y-73778264D01*
X128539947Y-73790046D01*
X128418873Y-73867855D01*
X128324622Y-73976628D01*
X128264834Y-74107543D01*
X128245620Y-74241185D01*
X128244353Y-74250000D01*
X128246484Y-74264824D01*
X128248559Y-74279259D01*
X128244721Y-74323937D01*
X128207136Y-74439613D01*
X128174500Y-74645676D01*
X128174500Y-74854323D01*
X128207136Y-75060388D01*
X128207136Y-75060390D01*
X128271613Y-75258820D01*
X128331149Y-75375668D01*
X128340720Y-75436100D01*
X128326228Y-75474127D01*
X128324625Y-75476620D01*
X128264834Y-75607543D01*
X128244353Y-75749997D01*
X128244353Y-75750002D01*
X128264834Y-75892456D01*
X128313551Y-75999130D01*
X128324623Y-76023373D01*
X128377942Y-76084907D01*
X128418873Y-76132144D01*
X128506542Y-76188485D01*
X128539947Y-76209953D01*
X128636295Y-76238243D01*
X128678035Y-76250499D01*
X128678036Y-76250499D01*
X128678039Y-76250500D01*
X128678041Y-76250500D01*
X128821959Y-76250500D01*
X128821961Y-76250500D01*
X128960053Y-76209953D01*
X128969251Y-76204041D01*
X129028424Y-76188485D01*
X129085441Y-76210682D01*
X129092779Y-76217319D01*
X133966494Y-81091035D01*
X133966497Y-81091037D01*
X133966499Y-81091039D01*
X134027801Y-81135578D01*
X134027802Y-81135578D01*
X134029180Y-81136579D01*
X134065148Y-81186076D01*
X134065153Y-81247262D01*
X134029193Y-81296765D01*
X134024520Y-81299961D01*
X133918872Y-81367857D01*
X133824622Y-81476628D01*
X133764834Y-81607543D01*
X133744353Y-81749997D01*
X133744353Y-81750004D01*
X133764065Y-81887114D01*
X133753631Y-81947403D01*
X133709753Y-81990045D01*
X133680164Y-81999194D01*
X133678041Y-81999499D01*
X133539949Y-82040046D01*
X133539942Y-82040049D01*
X133418873Y-82117855D01*
X133324622Y-82226628D01*
X133264834Y-82357543D01*
X133244353Y-82499997D01*
X133244353Y-82500002D01*
X133264834Y-82642456D01*
X133313720Y-82749500D01*
X133324623Y-82773373D01*
X133370163Y-82825929D01*
X133418873Y-82882144D01*
X133539942Y-82959950D01*
X133539947Y-82959953D01*
X133678039Y-83000500D01*
X133678047Y-83000500D01*
X133680153Y-83000803D01*
X133681758Y-83001592D01*
X133684833Y-83002495D01*
X133684676Y-83003026D01*
X133735063Y-83027795D01*
X133763622Y-83081907D01*
X133764065Y-83112885D01*
X133744353Y-83249995D01*
X133744353Y-83250003D01*
X133763246Y-83381411D01*
X133752813Y-83441700D01*
X133708934Y-83484343D01*
X133665254Y-83494500D01*
X132340640Y-83494500D01*
X132282449Y-83475593D01*
X132246485Y-83426093D01*
X132242648Y-83409588D01*
X132235165Y-83357544D01*
X132235165Y-83357542D01*
X132175378Y-83226629D01*
X132175377Y-83226628D01*
X132175377Y-83226627D01*
X132143491Y-83189829D01*
X132119675Y-83133472D01*
X132133533Y-83073877D01*
X132143492Y-83060170D01*
X132175377Y-83023373D01*
X132235165Y-82892457D01*
X132241992Y-82844971D01*
X132255647Y-82750002D01*
X132255647Y-82749997D01*
X132235165Y-82607543D01*
X132186051Y-82500000D01*
X132175377Y-82476627D01*
X132081128Y-82367857D01*
X132081127Y-82367856D01*
X132081126Y-82367855D01*
X131960057Y-82290049D01*
X131960054Y-82290047D01*
X131960053Y-82290047D01*
X131960050Y-82290046D01*
X131821964Y-82249500D01*
X131821961Y-82249500D01*
X131678039Y-82249500D01*
X131678035Y-82249500D01*
X131539949Y-82290046D01*
X131539942Y-82290049D01*
X131428523Y-82361654D01*
X131369348Y-82377209D01*
X131321477Y-82361654D01*
X131210057Y-82290049D01*
X131210054Y-82290047D01*
X131210053Y-82290047D01*
X131210050Y-82290046D01*
X131071964Y-82249500D01*
X131071961Y-82249500D01*
X130928039Y-82249500D01*
X130928035Y-82249500D01*
X130789949Y-82290046D01*
X130789942Y-82290049D01*
X130668873Y-82367855D01*
X130574622Y-82476628D01*
X130514834Y-82607543D01*
X130494353Y-82749997D01*
X130494353Y-82750002D01*
X130514834Y-82892456D01*
X130564676Y-83001592D01*
X130574623Y-83023373D01*
X130578455Y-83027795D01*
X130606507Y-83060170D01*
X130630323Y-83116530D01*
X130616463Y-83176125D01*
X130606507Y-83189830D01*
X130574622Y-83226628D01*
X130514834Y-83357543D01*
X130494613Y-83498191D01*
X130494353Y-83500000D01*
X130495340Y-83506864D01*
X130499561Y-83536226D01*
X130489126Y-83596515D01*
X130445247Y-83639156D01*
X130434003Y-83643849D01*
X130383646Y-83661310D01*
X130383643Y-83661312D01*
X130332592Y-83688598D01*
X130311068Y-83701499D01*
X130294964Y-83712258D01*
X130294943Y-83712273D01*
X130274810Y-83727205D01*
X130150986Y-83828825D01*
X130138358Y-83839190D01*
X130138354Y-83839193D01*
X130138305Y-83839234D01*
X130119768Y-83856036D01*
X130106036Y-83869768D01*
X130089234Y-83888305D01*
X130089193Y-83888354D01*
X129977211Y-84024803D01*
X129962253Y-84044972D01*
X129951488Y-84061084D01*
X129938619Y-84082556D01*
X129938600Y-84082588D01*
X129855388Y-84238268D01*
X129855383Y-84238277D01*
X129844660Y-84260949D01*
X129837241Y-84278859D01*
X129837237Y-84278871D01*
X129828802Y-84302443D01*
X129828792Y-84302474D01*
X129782991Y-84453457D01*
X129782992Y-84453458D01*
X129777552Y-84471392D01*
X129777543Y-84471427D01*
X129771459Y-84495707D01*
X129771456Y-84495723D01*
X129767674Y-84514731D01*
X129767665Y-84514783D01*
X129763993Y-84539532D01*
X129763986Y-84539588D01*
X129752106Y-84660221D01*
X129752106Y-84660222D01*
X129746209Y-84720089D01*
X129745285Y-84732615D01*
X129744807Y-84742332D01*
X129744500Y-84754857D01*
X129744500Y-84894052D01*
X129725593Y-84952243D01*
X129676093Y-84988207D01*
X129617609Y-84989042D01*
X129589671Y-84980838D01*
X129589668Y-84980838D01*
X129445746Y-84980838D01*
X129445742Y-84980838D01*
X129307656Y-85021384D01*
X129307649Y-85021387D01*
X129186580Y-85099193D01*
X129092329Y-85207966D01*
X129032541Y-85338881D01*
X129012060Y-85481335D01*
X129012060Y-85481340D01*
X129032541Y-85623794D01*
X129075063Y-85716902D01*
X129092330Y-85754711D01*
X129186579Y-85863481D01*
X129186580Y-85863482D01*
X129307649Y-85941288D01*
X129307654Y-85941291D01*
X129414110Y-85972549D01*
X129445742Y-85981837D01*
X129445743Y-85981837D01*
X129445746Y-85981838D01*
X129445748Y-85981838D01*
X129589666Y-85981838D01*
X129589668Y-85981838D01*
X129603427Y-85977797D01*
X129617609Y-85973634D01*
X129678769Y-85975382D01*
X129727222Y-86012744D01*
X129744500Y-86068624D01*
X129744500Y-86499251D01*
X129725593Y-86557442D01*
X129676093Y-86593406D01*
X129617609Y-86594241D01*
X129571964Y-86580838D01*
X129571961Y-86580838D01*
X129428039Y-86580838D01*
X129428035Y-86580838D01*
X129289949Y-86621384D01*
X129289942Y-86621387D01*
X129168873Y-86699193D01*
X129074622Y-86807966D01*
X129014834Y-86938881D01*
X128994353Y-87081335D01*
X128994353Y-87081340D01*
X129014834Y-87223794D01*
X129047831Y-87296045D01*
X129074623Y-87354711D01*
X129168022Y-87462500D01*
X129168873Y-87463482D01*
X129289942Y-87541288D01*
X129289947Y-87541291D01*
X129396403Y-87572549D01*
X129428035Y-87581837D01*
X129428036Y-87581837D01*
X129428039Y-87581838D01*
X129428041Y-87581838D01*
X129571959Y-87581838D01*
X129571961Y-87581838D01*
X129617607Y-87568435D01*
X129678768Y-87570181D01*
X129727221Y-87607543D01*
X129744500Y-87663424D01*
X129744500Y-92405874D01*
X129725593Y-92464065D01*
X129676093Y-92500029D01*
X129673392Y-92500864D01*
X129539947Y-92540047D01*
X129539942Y-92540049D01*
X129418873Y-92617855D01*
X129324622Y-92726628D01*
X129264834Y-92857543D01*
X129244353Y-92999997D01*
X129244353Y-93001543D01*
X129243954Y-93002770D01*
X129243345Y-93007008D01*
X129242611Y-93006902D01*
X129225446Y-93059734D01*
X129175946Y-93095698D01*
X129145353Y-93100543D01*
X129076992Y-93100543D01*
X128938906Y-93141089D01*
X128938899Y-93141092D01*
X128817830Y-93218898D01*
X128723579Y-93327671D01*
X128663791Y-93458586D01*
X128643310Y-93601040D01*
X128643310Y-93601045D01*
X128663791Y-93743499D01*
X128705845Y-93835583D01*
X128723580Y-93874416D01*
X128760772Y-93917338D01*
X128784589Y-93973698D01*
X128770730Y-94033293D01*
X128724489Y-94073361D01*
X128663528Y-94078596D01*
X128632429Y-94065453D01*
X128592900Y-94040049D01*
X128592897Y-94040047D01*
X128592896Y-94040047D01*
X128592893Y-94040046D01*
X128454807Y-93999500D01*
X128454804Y-93999500D01*
X128310882Y-93999500D01*
X128310878Y-93999500D01*
X128172792Y-94040046D01*
X128172785Y-94040049D01*
X128051716Y-94117855D01*
X127957465Y-94226628D01*
X127897677Y-94357543D01*
X127877196Y-94499997D01*
X127877196Y-94500002D01*
X127897677Y-94642456D01*
X127938637Y-94732144D01*
X127957466Y-94773373D01*
X128030118Y-94857218D01*
X128051716Y-94882144D01*
X128098481Y-94912198D01*
X128137213Y-94959564D01*
X128140706Y-95020650D01*
X128107626Y-95072122D01*
X128098483Y-95078765D01*
X128051716Y-95108821D01*
X127957465Y-95217593D01*
X127897677Y-95348508D01*
X127877196Y-95490962D01*
X127877196Y-95490967D01*
X127897677Y-95633421D01*
X127939023Y-95723954D01*
X127957466Y-95764338D01*
X128038228Y-95857543D01*
X128051716Y-95873109D01*
X128103596Y-95906450D01*
X128172790Y-95950918D01*
X128268307Y-95978964D01*
X128310878Y-95991464D01*
X128310879Y-95991464D01*
X128310882Y-95991465D01*
X128310884Y-95991465D01*
X128407342Y-95991465D01*
X128465533Y-96010372D01*
X128501497Y-96059872D01*
X128505334Y-96076377D01*
X128514834Y-96142455D01*
X128514835Y-96142457D01*
X128574623Y-96273373D01*
X128663188Y-96375583D01*
X128668873Y-96382144D01*
X128789942Y-96459950D01*
X128789947Y-96459953D01*
X128896403Y-96491211D01*
X128928035Y-96500499D01*
X128928036Y-96500499D01*
X128928039Y-96500500D01*
X128928041Y-96500500D01*
X129071959Y-96500500D01*
X129071961Y-96500500D01*
X129210053Y-96459953D01*
X129331128Y-96382143D01*
X129425377Y-96273373D01*
X129485165Y-96142457D01*
X129505647Y-96000000D01*
X129485165Y-95857543D01*
X129425377Y-95726627D01*
X129331128Y-95617857D01*
X129331127Y-95617856D01*
X129331126Y-95617855D01*
X129210057Y-95540049D01*
X129210054Y-95540047D01*
X129210053Y-95540047D01*
X129210050Y-95540046D01*
X129071964Y-95499500D01*
X129071961Y-95499500D01*
X128975501Y-95499500D01*
X128917310Y-95480593D01*
X128881346Y-95431093D01*
X128877509Y-95414588D01*
X128868008Y-95348509D01*
X128854989Y-95320000D01*
X128808220Y-95217592D01*
X128713971Y-95108822D01*
X128667203Y-95078766D01*
X128628472Y-95031400D01*
X128624980Y-94970314D01*
X128658059Y-94918842D01*
X128667189Y-94912207D01*
X128713971Y-94882143D01*
X128808220Y-94773373D01*
X128868008Y-94642457D01*
X128877909Y-94573595D01*
X128888490Y-94500002D01*
X128888490Y-94499997D01*
X128868008Y-94357543D01*
X128825478Y-94264417D01*
X128808220Y-94226627D01*
X128771026Y-94183703D01*
X128747210Y-94127344D01*
X128761069Y-94067749D01*
X128807310Y-94027681D01*
X128868271Y-94022446D01*
X128899367Y-94035587D01*
X128938904Y-94060996D01*
X129045360Y-94092254D01*
X129076992Y-94101542D01*
X129076993Y-94101542D01*
X129076996Y-94101543D01*
X129076998Y-94101543D01*
X129220916Y-94101543D01*
X129220918Y-94101543D01*
X129359010Y-94060996D01*
X129480085Y-93983186D01*
X129570681Y-93878630D01*
X129623076Y-93847036D01*
X129684037Y-93852272D01*
X129730278Y-93892339D01*
X129744500Y-93943463D01*
X129744500Y-104245141D01*
X129744807Y-104257666D01*
X129745285Y-104267380D01*
X129746209Y-104279910D01*
X129763988Y-104460424D01*
X129763991Y-104460445D01*
X129767665Y-104485214D01*
X129767667Y-104485223D01*
X129767668Y-104485230D01*
X129767669Y-104485232D01*
X129771454Y-104504265D01*
X129771456Y-104504274D01*
X129777542Y-104528573D01*
X129777547Y-104528592D01*
X129793099Y-104579860D01*
X129805811Y-104621762D01*
X129804610Y-104682935D01*
X129767681Y-104731719D01*
X129711074Y-104749500D01*
X123349500Y-104749500D01*
X123291309Y-104730593D01*
X123255345Y-104681093D01*
X123250500Y-104650500D01*
X123250500Y-102939996D01*
X123944417Y-102939996D01*
X123944417Y-102940003D01*
X123964698Y-103145929D01*
X123964699Y-103145934D01*
X124024768Y-103343954D01*
X124122316Y-103526452D01*
X124253585Y-103686404D01*
X124253590Y-103686410D01*
X124253595Y-103686414D01*
X124413547Y-103817683D01*
X124413548Y-103817683D01*
X124413550Y-103817685D01*
X124596046Y-103915232D01*
X124733997Y-103957078D01*
X124794065Y-103975300D01*
X124794070Y-103975301D01*
X124999997Y-103995583D01*
X125000000Y-103995583D01*
X125000003Y-103995583D01*
X125205929Y-103975301D01*
X125205934Y-103975300D01*
X125403954Y-103915232D01*
X125586450Y-103817685D01*
X125746410Y-103686410D01*
X125877685Y-103526450D01*
X125975232Y-103343954D01*
X126035300Y-103145934D01*
X126035301Y-103145929D01*
X126055583Y-102940003D01*
X126055583Y-102939996D01*
X126035301Y-102734070D01*
X126035300Y-102734065D01*
X126017078Y-102673997D01*
X125975232Y-102536046D01*
X125877685Y-102353550D01*
X125860503Y-102332614D01*
X125746414Y-102193595D01*
X125746410Y-102193590D01*
X125746404Y-102193585D01*
X125586452Y-102062316D01*
X125403954Y-101964768D01*
X125205934Y-101904699D01*
X125205929Y-101904698D01*
X125000003Y-101884417D01*
X124999997Y-101884417D01*
X124794070Y-101904698D01*
X124794065Y-101904699D01*
X124596045Y-101964768D01*
X124413547Y-102062316D01*
X124253595Y-102193585D01*
X124253585Y-102193595D01*
X124122316Y-102353547D01*
X124024768Y-102536045D01*
X123964699Y-102734065D01*
X123964698Y-102734070D01*
X123944417Y-102939996D01*
X123250500Y-102939996D01*
X123250500Y-100399996D01*
X123944417Y-100399996D01*
X123944417Y-100400003D01*
X123964698Y-100605929D01*
X123964699Y-100605934D01*
X124024768Y-100803954D01*
X124122316Y-100986452D01*
X124157981Y-101029910D01*
X124253590Y-101146410D01*
X124253595Y-101146414D01*
X124413547Y-101277683D01*
X124413548Y-101277683D01*
X124413550Y-101277685D01*
X124596046Y-101375232D01*
X124733997Y-101417078D01*
X124794065Y-101435300D01*
X124794070Y-101435301D01*
X124999997Y-101455583D01*
X125000000Y-101455583D01*
X125000003Y-101455583D01*
X125205929Y-101435301D01*
X125205934Y-101435300D01*
X125403954Y-101375232D01*
X125586450Y-101277685D01*
X125746410Y-101146410D01*
X125877685Y-100986450D01*
X125975232Y-100803954D01*
X126035300Y-100605934D01*
X126035301Y-100605929D01*
X126055583Y-100400003D01*
X126055583Y-100399996D01*
X126035301Y-100194070D01*
X126035300Y-100194065D01*
X125978576Y-100007071D01*
X125975232Y-99996046D01*
X125877685Y-99813550D01*
X125858513Y-99790189D01*
X125746414Y-99653595D01*
X125746410Y-99653590D01*
X125665656Y-99587317D01*
X125586452Y-99522316D01*
X125403954Y-99424768D01*
X125205934Y-99364699D01*
X125205929Y-99364698D01*
X125000003Y-99344417D01*
X124999997Y-99344417D01*
X124794070Y-99364698D01*
X124794065Y-99364699D01*
X124596045Y-99424768D01*
X124413547Y-99522316D01*
X124253595Y-99653585D01*
X124253585Y-99653595D01*
X124122316Y-99813547D01*
X124024768Y-99996045D01*
X123964699Y-100194065D01*
X123964698Y-100194070D01*
X123944417Y-100399996D01*
X123250500Y-100399996D01*
X123250500Y-97859996D01*
X123944417Y-97859996D01*
X123944417Y-97860003D01*
X123964698Y-98065929D01*
X123964699Y-98065934D01*
X124024768Y-98263954D01*
X124122316Y-98446452D01*
X124167665Y-98501710D01*
X124253590Y-98606410D01*
X124253595Y-98606414D01*
X124413547Y-98737683D01*
X124413548Y-98737683D01*
X124413550Y-98737685D01*
X124596046Y-98835232D01*
X124733997Y-98877078D01*
X124794065Y-98895300D01*
X124794070Y-98895301D01*
X124999997Y-98915583D01*
X125000000Y-98915583D01*
X125000003Y-98915583D01*
X125205929Y-98895301D01*
X125205934Y-98895300D01*
X125403954Y-98835232D01*
X125586450Y-98737685D01*
X125746410Y-98606410D01*
X125877685Y-98446450D01*
X125975232Y-98263954D01*
X126035300Y-98065934D01*
X126035301Y-98065929D01*
X126055583Y-97860003D01*
X126055583Y-97859996D01*
X126035301Y-97654070D01*
X126035300Y-97654065D01*
X126017078Y-97593997D01*
X125975232Y-97456046D01*
X125877685Y-97273550D01*
X125746410Y-97113590D01*
X125746404Y-97113585D01*
X125586452Y-96982316D01*
X125403954Y-96884768D01*
X125205934Y-96824699D01*
X125205929Y-96824698D01*
X125000003Y-96804417D01*
X124999997Y-96804417D01*
X124794070Y-96824698D01*
X124794065Y-96824699D01*
X124596045Y-96884768D01*
X124413547Y-96982316D01*
X124253595Y-97113585D01*
X124253585Y-97113595D01*
X124122316Y-97273547D01*
X124024768Y-97456045D01*
X123964699Y-97654065D01*
X123964698Y-97654070D01*
X123944417Y-97859996D01*
X123250500Y-97859996D01*
X123250500Y-95319996D01*
X123944417Y-95319996D01*
X123944417Y-95320003D01*
X123964698Y-95525929D01*
X123964699Y-95525934D01*
X124024768Y-95723954D01*
X124122316Y-95906452D01*
X124207601Y-96010372D01*
X124253590Y-96066410D01*
X124253595Y-96066414D01*
X124413547Y-96197683D01*
X124413548Y-96197683D01*
X124413550Y-96197685D01*
X124596046Y-96295232D01*
X124733997Y-96337078D01*
X124794065Y-96355300D01*
X124794070Y-96355301D01*
X124999997Y-96375583D01*
X125000000Y-96375583D01*
X125000003Y-96375583D01*
X125205929Y-96355301D01*
X125205934Y-96355300D01*
X125403954Y-96295232D01*
X125586450Y-96197685D01*
X125746410Y-96066410D01*
X125877685Y-95906450D01*
X125975232Y-95723954D01*
X126035300Y-95525934D01*
X126035301Y-95525929D01*
X126055583Y-95320003D01*
X126055583Y-95319996D01*
X126035301Y-95114070D01*
X126035300Y-95114065D01*
X126000699Y-95000000D01*
X125975232Y-94916046D01*
X125877685Y-94733550D01*
X125876531Y-94732144D01*
X125746414Y-94573595D01*
X125746410Y-94573590D01*
X125732512Y-94562184D01*
X125586452Y-94442316D01*
X125403954Y-94344768D01*
X125205934Y-94284699D01*
X125205929Y-94284698D01*
X125000003Y-94264417D01*
X124999997Y-94264417D01*
X124794070Y-94284698D01*
X124794065Y-94284699D01*
X124596045Y-94344768D01*
X124413547Y-94442316D01*
X124253595Y-94573585D01*
X124253585Y-94573595D01*
X124122316Y-94733547D01*
X124024768Y-94916045D01*
X123964699Y-95114065D01*
X123964698Y-95114070D01*
X123944417Y-95319996D01*
X123250500Y-95319996D01*
X123250500Y-92779996D01*
X123944417Y-92779996D01*
X123944417Y-92780003D01*
X123964698Y-92985929D01*
X123964699Y-92985934D01*
X124024768Y-93183954D01*
X124122316Y-93366452D01*
X124222793Y-93488884D01*
X124253590Y-93526410D01*
X124253595Y-93526414D01*
X124413547Y-93657683D01*
X124413548Y-93657683D01*
X124413550Y-93657685D01*
X124596046Y-93755232D01*
X124733997Y-93797078D01*
X124794065Y-93815300D01*
X124794070Y-93815301D01*
X124999997Y-93835583D01*
X125000000Y-93835583D01*
X125000003Y-93835583D01*
X125205929Y-93815301D01*
X125205934Y-93815300D01*
X125403954Y-93755232D01*
X125586450Y-93657685D01*
X125746410Y-93526410D01*
X125877685Y-93366450D01*
X125975232Y-93183954D01*
X126035300Y-92985934D01*
X126035301Y-92985929D01*
X126055583Y-92780003D01*
X126055583Y-92779996D01*
X126035301Y-92574070D01*
X126035300Y-92574065D01*
X126005743Y-92476628D01*
X125975232Y-92376046D01*
X125877685Y-92193550D01*
X125746410Y-92033590D01*
X125746404Y-92033585D01*
X125586452Y-91902316D01*
X125403954Y-91804768D01*
X125205934Y-91744699D01*
X125205929Y-91744698D01*
X125000003Y-91724417D01*
X124999997Y-91724417D01*
X124794070Y-91744698D01*
X124794065Y-91744699D01*
X124596045Y-91804768D01*
X124413547Y-91902316D01*
X124253595Y-92033585D01*
X124253585Y-92033595D01*
X124122316Y-92193547D01*
X124024768Y-92376045D01*
X123964699Y-92574065D01*
X123964698Y-92574070D01*
X123944417Y-92779996D01*
X123250500Y-92779996D01*
X123250500Y-90239996D01*
X123944417Y-90239996D01*
X123944417Y-90240003D01*
X123964698Y-90445929D01*
X123964699Y-90445934D01*
X124024768Y-90643954D01*
X124122316Y-90826452D01*
X124253585Y-90986404D01*
X124253590Y-90986410D01*
X124253595Y-90986414D01*
X124413547Y-91117683D01*
X124413548Y-91117683D01*
X124413550Y-91117685D01*
X124596046Y-91215232D01*
X124733997Y-91257078D01*
X124794065Y-91275300D01*
X124794070Y-91275301D01*
X124999997Y-91295583D01*
X125000000Y-91295583D01*
X125000003Y-91295583D01*
X125205929Y-91275301D01*
X125205934Y-91275300D01*
X125403954Y-91215232D01*
X125586450Y-91117685D01*
X125746410Y-90986410D01*
X125877685Y-90826450D01*
X125956284Y-90679401D01*
X126000388Y-90636996D01*
X126060997Y-90628613D01*
X126114957Y-90657455D01*
X126118412Y-90661240D01*
X126128313Y-90672666D01*
X126128315Y-90672668D01*
X126249390Y-90750478D01*
X126355846Y-90781736D01*
X126387478Y-90791024D01*
X126387479Y-90791024D01*
X126387482Y-90791025D01*
X126387484Y-90791025D01*
X126531402Y-90791025D01*
X126531404Y-90791025D01*
X126669496Y-90750478D01*
X126790571Y-90672668D01*
X126884820Y-90563898D01*
X126944608Y-90432982D01*
X126965090Y-90290525D01*
X126944608Y-90148068D01*
X126884820Y-90017152D01*
X126790571Y-89908382D01*
X126790570Y-89908381D01*
X126790569Y-89908380D01*
X126669500Y-89830574D01*
X126669497Y-89830572D01*
X126669496Y-89830572D01*
X126669493Y-89830571D01*
X126531407Y-89790025D01*
X126531404Y-89790025D01*
X126387482Y-89790025D01*
X126387478Y-89790025D01*
X126249392Y-89830571D01*
X126249385Y-89830574D01*
X126128794Y-89908073D01*
X126069619Y-89923628D01*
X126012602Y-89901429D01*
X125980534Y-89853527D01*
X125975232Y-89836046D01*
X125877685Y-89653550D01*
X125746410Y-89493590D01*
X125746404Y-89493585D01*
X125586452Y-89362316D01*
X125403954Y-89264768D01*
X125205934Y-89204699D01*
X125205929Y-89204698D01*
X125000003Y-89184417D01*
X124999997Y-89184417D01*
X124794070Y-89204698D01*
X124794065Y-89204699D01*
X124596045Y-89264768D01*
X124413547Y-89362316D01*
X124253595Y-89493585D01*
X124253585Y-89493595D01*
X124122316Y-89653547D01*
X124024768Y-89836045D01*
X123964699Y-90034065D01*
X123964698Y-90034070D01*
X123944417Y-90239996D01*
X123250500Y-90239996D01*
X123250500Y-87699996D01*
X123944417Y-87699996D01*
X123944417Y-87700003D01*
X123964698Y-87905929D01*
X123964699Y-87905934D01*
X124024768Y-88103954D01*
X124122316Y-88286452D01*
X124253585Y-88446404D01*
X124253590Y-88446410D01*
X124253595Y-88446414D01*
X124413547Y-88577683D01*
X124413548Y-88577683D01*
X124413550Y-88577685D01*
X124596046Y-88675232D01*
X124733997Y-88717078D01*
X124794065Y-88735300D01*
X124794070Y-88735301D01*
X124999997Y-88755583D01*
X125000000Y-88755583D01*
X125000003Y-88755583D01*
X125205929Y-88735301D01*
X125205934Y-88735300D01*
X125403954Y-88675232D01*
X125586450Y-88577685D01*
X125746410Y-88446410D01*
X125877685Y-88286450D01*
X125975232Y-88103954D01*
X126035300Y-87905934D01*
X126035301Y-87905929D01*
X126055583Y-87700003D01*
X126055583Y-87699996D01*
X126035301Y-87494070D01*
X126035300Y-87494065D01*
X126025724Y-87462497D01*
X127244353Y-87462497D01*
X127244353Y-87462502D01*
X127264834Y-87604956D01*
X127324622Y-87735871D01*
X127324623Y-87735873D01*
X127418872Y-87844643D01*
X127418873Y-87844644D01*
X127539942Y-87922450D01*
X127539947Y-87922453D01*
X127642122Y-87952454D01*
X127678035Y-87962999D01*
X127678036Y-87962999D01*
X127678039Y-87963000D01*
X127678041Y-87963000D01*
X127821959Y-87963000D01*
X127821961Y-87963000D01*
X127960053Y-87922453D01*
X128081128Y-87844643D01*
X128175377Y-87735873D01*
X128235165Y-87604957D01*
X128255647Y-87462500D01*
X128240149Y-87354711D01*
X128235165Y-87320043D01*
X128224205Y-87296045D01*
X128175377Y-87189127D01*
X128081128Y-87080357D01*
X128081127Y-87080356D01*
X128081126Y-87080355D01*
X127960057Y-87002549D01*
X127960054Y-87002547D01*
X127960053Y-87002547D01*
X127960050Y-87002546D01*
X127821964Y-86962000D01*
X127821961Y-86962000D01*
X127678039Y-86962000D01*
X127678035Y-86962000D01*
X127539949Y-87002546D01*
X127539942Y-87002549D01*
X127418873Y-87080355D01*
X127324622Y-87189128D01*
X127264834Y-87320043D01*
X127244353Y-87462497D01*
X126025724Y-87462497D01*
X126017078Y-87433997D01*
X125975232Y-87296046D01*
X125877685Y-87113550D01*
X125851249Y-87081338D01*
X125746414Y-86953595D01*
X125746410Y-86953590D01*
X125728487Y-86938881D01*
X125586452Y-86822316D01*
X125403954Y-86724768D01*
X125205934Y-86664699D01*
X125205929Y-86664698D01*
X125000003Y-86644417D01*
X124999997Y-86644417D01*
X124794070Y-86664698D01*
X124794065Y-86664699D01*
X124596045Y-86724768D01*
X124413547Y-86822316D01*
X124253595Y-86953585D01*
X124253585Y-86953595D01*
X124122316Y-87113547D01*
X124024768Y-87296045D01*
X123964699Y-87494065D01*
X123964698Y-87494070D01*
X123944417Y-87699996D01*
X123250500Y-87699996D01*
X123250500Y-85159996D01*
X123944417Y-85159996D01*
X123944417Y-85160003D01*
X123964698Y-85365929D01*
X123964699Y-85365934D01*
X124024768Y-85563954D01*
X124122316Y-85746452D01*
X124218359Y-85863481D01*
X124253590Y-85906410D01*
X124253595Y-85906414D01*
X124413547Y-86037683D01*
X124413548Y-86037683D01*
X124413550Y-86037685D01*
X124596046Y-86135232D01*
X124733997Y-86177078D01*
X124794065Y-86195300D01*
X124794070Y-86195301D01*
X124999997Y-86215583D01*
X125000000Y-86215583D01*
X125000003Y-86215583D01*
X125205929Y-86195301D01*
X125205934Y-86195300D01*
X125403954Y-86135232D01*
X125586450Y-86037685D01*
X125746410Y-85906410D01*
X125877685Y-85746450D01*
X125905031Y-85695288D01*
X125949134Y-85652885D01*
X126009742Y-85644502D01*
X126045862Y-85658676D01*
X126136464Y-85716902D01*
X126237103Y-85746452D01*
X126274552Y-85757448D01*
X126274553Y-85757448D01*
X126274556Y-85757449D01*
X126274558Y-85757449D01*
X126418476Y-85757449D01*
X126418478Y-85757449D01*
X126556570Y-85716902D01*
X126677645Y-85639092D01*
X126771894Y-85530322D01*
X126831682Y-85399406D01*
X126848866Y-85279887D01*
X126852164Y-85256951D01*
X126852164Y-85256946D01*
X126831682Y-85114492D01*
X126809277Y-85065433D01*
X126771894Y-84983576D01*
X126677645Y-84874806D01*
X126677644Y-84874805D01*
X126677643Y-84874804D01*
X126556574Y-84796998D01*
X126556571Y-84796996D01*
X126556570Y-84796996D01*
X126556567Y-84796995D01*
X126418481Y-84756449D01*
X126418478Y-84756449D01*
X126274556Y-84756449D01*
X126274552Y-84756449D01*
X126136466Y-84796995D01*
X126136462Y-84796997D01*
X126122154Y-84806192D01*
X126062978Y-84821744D01*
X126005962Y-84799544D01*
X125979286Y-84759625D01*
X125977091Y-84760535D01*
X125975233Y-84756051D01*
X125975232Y-84756046D01*
X125877685Y-84573550D01*
X125849813Y-84539588D01*
X125746414Y-84413595D01*
X125746410Y-84413590D01*
X125746404Y-84413585D01*
X125586452Y-84282316D01*
X125403954Y-84184768D01*
X125205934Y-84124699D01*
X125205929Y-84124698D01*
X125000003Y-84104417D01*
X124999997Y-84104417D01*
X124794070Y-84124698D01*
X124794065Y-84124699D01*
X124596045Y-84184768D01*
X124413547Y-84282316D01*
X124253595Y-84413585D01*
X124253585Y-84413595D01*
X124122316Y-84573547D01*
X124024768Y-84756045D01*
X123964699Y-84954065D01*
X123964698Y-84954070D01*
X123944417Y-85159996D01*
X123250500Y-85159996D01*
X123250500Y-82619996D01*
X123944417Y-82619996D01*
X123944417Y-82620003D01*
X123964698Y-82825929D01*
X123964699Y-82825934D01*
X124024768Y-83023954D01*
X124122316Y-83206452D01*
X124246312Y-83357542D01*
X124253590Y-83366410D01*
X124253595Y-83366414D01*
X124413547Y-83497683D01*
X124413548Y-83497683D01*
X124413550Y-83497685D01*
X124596046Y-83595232D01*
X124696207Y-83625615D01*
X124794065Y-83655300D01*
X124794070Y-83655301D01*
X124999997Y-83675583D01*
X125000000Y-83675583D01*
X125000003Y-83675583D01*
X125205929Y-83655301D01*
X125205934Y-83655300D01*
X125243683Y-83643849D01*
X125403954Y-83595232D01*
X125586450Y-83497685D01*
X125746410Y-83366410D01*
X125877685Y-83206450D01*
X125975232Y-83023954D01*
X126035300Y-82825934D01*
X126035301Y-82825929D01*
X126055583Y-82620003D01*
X126055583Y-82619996D01*
X126035301Y-82414070D01*
X126035300Y-82414065D01*
X125997680Y-82290049D01*
X125975232Y-82216046D01*
X125877685Y-82033550D01*
X125849740Y-81999499D01*
X125746414Y-81873595D01*
X125746410Y-81873590D01*
X125746404Y-81873585D01*
X125586452Y-81742316D01*
X125403954Y-81644768D01*
X125205934Y-81584699D01*
X125205929Y-81584698D01*
X125000003Y-81564417D01*
X124999997Y-81564417D01*
X124794070Y-81584698D01*
X124794065Y-81584699D01*
X124596045Y-81644768D01*
X124413547Y-81742316D01*
X124253595Y-81873585D01*
X124253585Y-81873595D01*
X124122316Y-82033547D01*
X124024768Y-82216045D01*
X123964699Y-82414065D01*
X123964698Y-82414070D01*
X123944417Y-82619996D01*
X123250500Y-82619996D01*
X123250500Y-80079996D01*
X123944417Y-80079996D01*
X123944417Y-80080003D01*
X123964698Y-80285929D01*
X123964699Y-80285934D01*
X124024768Y-80483954D01*
X124122316Y-80666452D01*
X124253585Y-80826404D01*
X124253590Y-80826410D01*
X124253595Y-80826414D01*
X124413547Y-80957683D01*
X124413548Y-80957683D01*
X124413550Y-80957685D01*
X124596046Y-81055232D01*
X124733997Y-81097078D01*
X124794065Y-81115300D01*
X124794070Y-81115301D01*
X124999997Y-81135583D01*
X125000000Y-81135583D01*
X125000003Y-81135583D01*
X125205929Y-81115301D01*
X125205934Y-81115300D01*
X125403954Y-81055232D01*
X125586450Y-80957685D01*
X125746410Y-80826410D01*
X125877685Y-80666450D01*
X125975232Y-80483954D01*
X126035300Y-80285934D01*
X126035301Y-80285929D01*
X126055583Y-80080003D01*
X126055583Y-80079996D01*
X126035301Y-79874070D01*
X126035300Y-79874065D01*
X126017078Y-79813997D01*
X125975232Y-79676046D01*
X125877685Y-79493550D01*
X125746410Y-79333590D01*
X125603735Y-79216500D01*
X125586452Y-79202316D01*
X125403954Y-79104768D01*
X125205934Y-79044699D01*
X125205929Y-79044698D01*
X125000003Y-79024417D01*
X124999997Y-79024417D01*
X124794070Y-79044698D01*
X124794065Y-79044699D01*
X124596045Y-79104768D01*
X124413547Y-79202316D01*
X124253595Y-79333585D01*
X124253585Y-79333595D01*
X124122316Y-79493547D01*
X124024768Y-79676045D01*
X123964699Y-79874065D01*
X123964698Y-79874070D01*
X123944417Y-80079996D01*
X123250500Y-80079996D01*
X123250500Y-77539996D01*
X123944417Y-77539996D01*
X123944417Y-77540003D01*
X123964698Y-77745929D01*
X123964699Y-77745934D01*
X124024768Y-77943954D01*
X124122316Y-78126452D01*
X124253585Y-78286404D01*
X124253590Y-78286410D01*
X124253595Y-78286414D01*
X124413547Y-78417683D01*
X124413548Y-78417683D01*
X124413550Y-78417685D01*
X124596046Y-78515232D01*
X124733997Y-78557078D01*
X124794065Y-78575300D01*
X124794070Y-78575301D01*
X124999997Y-78595583D01*
X125000000Y-78595583D01*
X125000003Y-78595583D01*
X125205929Y-78575301D01*
X125205934Y-78575300D01*
X125403954Y-78515232D01*
X125586450Y-78417685D01*
X125746410Y-78286410D01*
X125877685Y-78126450D01*
X125975232Y-77943954D01*
X126035300Y-77745934D01*
X126035301Y-77745929D01*
X126055583Y-77540003D01*
X126055583Y-77539996D01*
X126035301Y-77334070D01*
X126035300Y-77334065D01*
X126017078Y-77273997D01*
X125975232Y-77136046D01*
X125877685Y-76953550D01*
X125746410Y-76793590D01*
X125603735Y-76676500D01*
X125586452Y-76662316D01*
X125403954Y-76564768D01*
X125205934Y-76504699D01*
X125205929Y-76504698D01*
X125000003Y-76484417D01*
X124999997Y-76484417D01*
X124794070Y-76504698D01*
X124794065Y-76504699D01*
X124596045Y-76564768D01*
X124413547Y-76662316D01*
X124253595Y-76793585D01*
X124253585Y-76793595D01*
X124122316Y-76953547D01*
X124024768Y-77136045D01*
X123964699Y-77334065D01*
X123964698Y-77334070D01*
X123944417Y-77539996D01*
X123250500Y-77539996D01*
X123250500Y-74130253D01*
X123949500Y-74130253D01*
X123949500Y-75869746D01*
X123949501Y-75869758D01*
X123961132Y-75928227D01*
X123961133Y-75928231D01*
X124005448Y-75994552D01*
X124071769Y-76038867D01*
X124116231Y-76047711D01*
X124130241Y-76050498D01*
X124130246Y-76050498D01*
X124130252Y-76050500D01*
X124130253Y-76050500D01*
X125869747Y-76050500D01*
X125869748Y-76050500D01*
X125928231Y-76038867D01*
X125994552Y-75994552D01*
X126038867Y-75928231D01*
X126050500Y-75869748D01*
X126050500Y-74130252D01*
X126038867Y-74071769D01*
X125994552Y-74005448D01*
X125994548Y-74005445D01*
X125928233Y-73961134D01*
X125928231Y-73961133D01*
X125928228Y-73961132D01*
X125928227Y-73961132D01*
X125869758Y-73949501D01*
X125869748Y-73949500D01*
X124130252Y-73949500D01*
X124130251Y-73949500D01*
X124130241Y-73949501D01*
X124071772Y-73961132D01*
X124071766Y-73961134D01*
X124005451Y-74005445D01*
X124005445Y-74005451D01*
X123961134Y-74071766D01*
X123961132Y-74071772D01*
X123949501Y-74130241D01*
X123949500Y-74130253D01*
X123250500Y-74130253D01*
X123250500Y-73349500D01*
X123269407Y-73291309D01*
X123318907Y-73255345D01*
X123349500Y-73250500D01*
X129236352Y-73250500D01*
X129294543Y-73269407D01*
G37*
%TD.AperFunction*%
%TA.AperFunction,Conductor*%
G36*
X144458691Y-73269407D02*
G01*
X144494655Y-73318907D01*
X144499500Y-73349500D01*
X144499500Y-104650500D01*
X144480593Y-104708691D01*
X144431093Y-104744655D01*
X144400500Y-104749500D01*
X144288926Y-104749500D01*
X144230735Y-104730593D01*
X144194771Y-104681093D01*
X144194189Y-104621762D01*
X144194189Y-104621761D01*
X144222453Y-104528586D01*
X144228545Y-104504264D01*
X144232331Y-104485230D01*
X144236010Y-104460431D01*
X144253793Y-104279887D01*
X144254715Y-104267386D01*
X144255192Y-104257682D01*
X144255500Y-104245138D01*
X144255500Y-103004861D01*
X144255192Y-102992317D01*
X144254715Y-102982613D01*
X144253793Y-102970112D01*
X144236010Y-102789568D01*
X144232331Y-102764769D01*
X144228545Y-102745735D01*
X144222453Y-102721413D01*
X144171209Y-102552480D01*
X144162761Y-102528869D01*
X144155334Y-102510939D01*
X144144614Y-102488274D01*
X144144605Y-102488257D01*
X144061413Y-102332614D01*
X144061409Y-102332608D01*
X144061406Y-102332603D01*
X144061398Y-102332588D01*
X144048510Y-102311085D01*
X144037728Y-102294948D01*
X144022789Y-102274805D01*
X143910796Y-102138342D01*
X143910777Y-102138322D01*
X143910767Y-102138309D01*
X143893965Y-102119772D01*
X143893958Y-102119764D01*
X143880235Y-102106041D01*
X143880220Y-102106028D01*
X143880208Y-102106016D01*
X143861661Y-102089206D01*
X143861656Y-102089202D01*
X143846212Y-102076528D01*
X143813224Y-102024997D01*
X143816825Y-101963917D01*
X143846210Y-101923472D01*
X143861657Y-101910796D01*
X143880235Y-101893958D01*
X143893958Y-101880235D01*
X143910796Y-101861657D01*
X144022789Y-101725194D01*
X144037728Y-101705051D01*
X144048510Y-101688914D01*
X144061398Y-101667411D01*
X144061410Y-101667388D01*
X144061413Y-101667384D01*
X144144605Y-101511741D01*
X144144610Y-101511732D01*
X144144614Y-101511725D01*
X144155334Y-101489060D01*
X144162761Y-101471130D01*
X144171209Y-101447519D01*
X144222453Y-101278586D01*
X144228545Y-101254264D01*
X144232331Y-101235230D01*
X144236010Y-101210431D01*
X144253793Y-101029887D01*
X144254715Y-101017386D01*
X144255192Y-101007682D01*
X144255500Y-100995138D01*
X144255500Y-100004861D01*
X144255192Y-99992317D01*
X144254715Y-99982613D01*
X144253793Y-99970112D01*
X144236010Y-99789568D01*
X144232331Y-99764769D01*
X144228545Y-99745735D01*
X144222453Y-99721413D01*
X144214211Y-99694241D01*
X144171219Y-99552512D01*
X144171214Y-99552497D01*
X144171209Y-99552480D01*
X144162761Y-99528869D01*
X144155334Y-99510939D01*
X144144614Y-99488274D01*
X144131674Y-99464065D01*
X144061413Y-99332614D01*
X144061409Y-99332608D01*
X144061406Y-99332603D01*
X144061398Y-99332588D01*
X144048510Y-99311085D01*
X144037728Y-99294948D01*
X144022789Y-99274805D01*
X143910796Y-99138342D01*
X143910777Y-99138322D01*
X143910767Y-99138309D01*
X143893965Y-99119772D01*
X143893958Y-99119764D01*
X143880235Y-99106041D01*
X143880220Y-99106028D01*
X143880208Y-99106016D01*
X143861661Y-99089206D01*
X143861651Y-99089198D01*
X143822748Y-99057271D01*
X143822724Y-99057250D01*
X143805552Y-99043158D01*
X143725187Y-98977205D01*
X143705052Y-98962272D01*
X143688925Y-98951496D01*
X143667416Y-98938604D01*
X143667413Y-98938602D01*
X143586401Y-98895301D01*
X143511718Y-98855382D01*
X143489051Y-98844662D01*
X143489052Y-98844662D01*
X143489047Y-98844660D01*
X143471164Y-98837253D01*
X143471163Y-98837252D01*
X143471135Y-98837241D01*
X143468204Y-98836192D01*
X143447552Y-98828802D01*
X143447535Y-98828796D01*
X143447528Y-98828794D01*
X143418962Y-98820128D01*
X143278588Y-98777546D01*
X143254270Y-98771455D01*
X143235233Y-98767668D01*
X143210442Y-98763990D01*
X143210428Y-98763988D01*
X143029887Y-98746205D01*
X143017364Y-98745282D01*
X143007649Y-98744806D01*
X142995154Y-98744500D01*
X142995139Y-98744500D01*
X138854500Y-98744500D01*
X138796309Y-98725593D01*
X138760345Y-98676093D01*
X138755500Y-98645500D01*
X138755500Y-98567844D01*
X138755500Y-98567843D01*
X138746793Y-98501712D01*
X138702700Y-98412302D01*
X138700253Y-98409113D01*
X138687331Y-98386735D01*
X138667578Y-98339044D01*
X138660891Y-98314086D01*
X138654155Y-98262921D01*
X138654155Y-98237079D01*
X138654870Y-98231646D01*
X138660891Y-98185906D01*
X138667575Y-98160958D01*
X138699377Y-98084181D01*
X138702911Y-98076583D01*
X138724088Y-98035693D01*
X138742995Y-97977502D01*
X138755500Y-97898550D01*
X138755500Y-95582086D01*
X138774407Y-95523895D01*
X138823907Y-95487931D01*
X138882392Y-95487097D01*
X138928039Y-95500500D01*
X138928041Y-95500500D01*
X139071959Y-95500500D01*
X139071961Y-95500500D01*
X139210053Y-95459953D01*
X139331128Y-95382143D01*
X139384978Y-95319996D01*
X141724417Y-95319996D01*
X141724417Y-95320003D01*
X141744698Y-95525929D01*
X141744699Y-95525934D01*
X141804768Y-95723954D01*
X141902316Y-95906452D01*
X141987601Y-96010372D01*
X142033590Y-96066410D01*
X142033595Y-96066414D01*
X142193547Y-96197683D01*
X142193548Y-96197683D01*
X142193550Y-96197685D01*
X142376046Y-96295232D01*
X142513997Y-96337078D01*
X142574065Y-96355300D01*
X142574070Y-96355301D01*
X142779997Y-96375583D01*
X142780000Y-96375583D01*
X142780003Y-96375583D01*
X142985929Y-96355301D01*
X142985934Y-96355300D01*
X143183954Y-96295232D01*
X143366450Y-96197685D01*
X143526410Y-96066410D01*
X143657685Y-95906450D01*
X143755232Y-95723954D01*
X143815300Y-95525934D01*
X143815301Y-95525929D01*
X143835583Y-95320003D01*
X143835583Y-95319996D01*
X143815301Y-95114070D01*
X143815300Y-95114065D01*
X143780699Y-95000000D01*
X143755232Y-94916046D01*
X143657685Y-94733550D01*
X143656531Y-94732144D01*
X143526414Y-94573595D01*
X143526410Y-94573590D01*
X143512512Y-94562184D01*
X143366452Y-94442316D01*
X143183954Y-94344768D01*
X142985934Y-94284699D01*
X142985929Y-94284698D01*
X142780003Y-94264417D01*
X142779997Y-94264417D01*
X142574070Y-94284698D01*
X142574065Y-94284699D01*
X142376045Y-94344768D01*
X142193547Y-94442316D01*
X142033595Y-94573585D01*
X142033585Y-94573595D01*
X141902316Y-94733547D01*
X141804768Y-94916045D01*
X141744699Y-95114065D01*
X141744698Y-95114070D01*
X141724417Y-95319996D01*
X139384978Y-95319996D01*
X139425377Y-95273373D01*
X139485165Y-95142457D01*
X139495278Y-95072122D01*
X139505647Y-95000002D01*
X139505647Y-94999999D01*
X139504597Y-94992703D01*
X139499917Y-94960148D01*
X139510349Y-94899861D01*
X139554227Y-94857218D01*
X139570018Y-94851070D01*
X139571959Y-94850500D01*
X139571961Y-94850500D01*
X139710053Y-94809953D01*
X139831128Y-94732143D01*
X139925377Y-94623373D01*
X139985165Y-94492457D01*
X139995883Y-94417913D01*
X140005647Y-94350002D01*
X140005647Y-94349997D01*
X139985165Y-94207543D01*
X139936755Y-94101542D01*
X139925377Y-94076627D01*
X139831128Y-93967857D01*
X139831127Y-93967856D01*
X139831126Y-93967855D01*
X139710057Y-93890049D01*
X139710054Y-93890047D01*
X139710053Y-93890047D01*
X139710050Y-93890046D01*
X139571964Y-93849500D01*
X139571961Y-93849500D01*
X139428039Y-93849500D01*
X139428035Y-93849500D01*
X139289949Y-93890046D01*
X139289942Y-93890049D01*
X139168873Y-93967855D01*
X139074622Y-94076628D01*
X139014834Y-94207543D01*
X138994353Y-94349997D01*
X138994353Y-94350002D01*
X139000082Y-94389850D01*
X138989649Y-94450139D01*
X138945771Y-94492782D01*
X138929982Y-94498929D01*
X138882392Y-94512903D01*
X138821232Y-94511156D01*
X138772779Y-94473793D01*
X138755500Y-94417913D01*
X138755500Y-94237833D01*
X138755500Y-94237831D01*
X138754428Y-94214449D01*
X138752770Y-94196408D01*
X138752442Y-94193084D01*
X138722880Y-94097877D01*
X138722879Y-94097875D01*
X138720001Y-94092573D01*
X138708852Y-94032412D01*
X138735195Y-93977188D01*
X138742174Y-93970517D01*
X138746497Y-93966769D01*
X138746508Y-93966763D01*
X138840757Y-93857993D01*
X138900545Y-93727077D01*
X138910522Y-93657683D01*
X138921027Y-93584622D01*
X138921027Y-93584617D01*
X138900546Y-93442167D01*
X138900546Y-93442166D01*
X138900545Y-93442163D01*
X138898151Y-93436922D01*
X138891175Y-93376138D01*
X138921260Y-93322860D01*
X138960311Y-93300806D01*
X139032862Y-93279504D01*
X139153937Y-93201694D01*
X139248186Y-93092924D01*
X139307974Y-92962008D01*
X139328456Y-92819551D01*
X139322769Y-92780000D01*
X139318455Y-92749997D01*
X139601149Y-92749997D01*
X139601149Y-92750002D01*
X139621630Y-92892456D01*
X139664321Y-92985934D01*
X139681419Y-93023373D01*
X139748287Y-93100543D01*
X139775669Y-93132144D01*
X139883893Y-93201695D01*
X139896743Y-93209953D01*
X140003199Y-93241211D01*
X140034831Y-93250499D01*
X140034832Y-93250499D01*
X140034835Y-93250500D01*
X140034837Y-93250500D01*
X140178755Y-93250500D01*
X140178757Y-93250500D01*
X140316849Y-93209953D01*
X140437924Y-93132143D01*
X140532173Y-93023373D01*
X140591961Y-92892457D01*
X140608130Y-92779996D01*
X141724417Y-92779996D01*
X141724417Y-92780003D01*
X141744698Y-92985929D01*
X141744699Y-92985934D01*
X141804768Y-93183954D01*
X141902316Y-93366452D01*
X142002793Y-93488884D01*
X142033590Y-93526410D01*
X142033595Y-93526414D01*
X142193547Y-93657683D01*
X142193548Y-93657683D01*
X142193550Y-93657685D01*
X142376046Y-93755232D01*
X142513997Y-93797078D01*
X142574065Y-93815300D01*
X142574070Y-93815301D01*
X142779997Y-93835583D01*
X142780000Y-93835583D01*
X142780003Y-93835583D01*
X142985929Y-93815301D01*
X142985934Y-93815300D01*
X143183954Y-93755232D01*
X143366450Y-93657685D01*
X143526410Y-93526410D01*
X143657685Y-93366450D01*
X143755232Y-93183954D01*
X143815300Y-92985934D01*
X143815301Y-92985929D01*
X143835583Y-92780003D01*
X143835583Y-92779996D01*
X143815301Y-92574070D01*
X143815300Y-92574065D01*
X143785743Y-92476628D01*
X143755232Y-92376046D01*
X143657685Y-92193550D01*
X143526410Y-92033590D01*
X143526404Y-92033585D01*
X143366452Y-91902316D01*
X143183954Y-91804768D01*
X142985934Y-91744699D01*
X142985929Y-91744698D01*
X142780003Y-91724417D01*
X142779997Y-91724417D01*
X142574070Y-91744698D01*
X142574065Y-91744699D01*
X142376045Y-91804768D01*
X142193547Y-91902316D01*
X142033595Y-92033585D01*
X142033585Y-92033595D01*
X141902316Y-92193547D01*
X141804768Y-92376045D01*
X141744699Y-92574065D01*
X141744698Y-92574070D01*
X141724417Y-92779996D01*
X140608130Y-92779996D01*
X140612443Y-92750000D01*
X140591961Y-92607543D01*
X140532173Y-92476627D01*
X140437924Y-92367857D01*
X140437923Y-92367856D01*
X140437922Y-92367855D01*
X140316853Y-92290049D01*
X140316850Y-92290047D01*
X140316849Y-92290047D01*
X140316846Y-92290046D01*
X140178760Y-92249500D01*
X140178757Y-92249500D01*
X140034835Y-92249500D01*
X140034831Y-92249500D01*
X139896745Y-92290046D01*
X139896738Y-92290049D01*
X139775669Y-92367855D01*
X139681418Y-92476628D01*
X139621630Y-92607543D01*
X139601149Y-92749997D01*
X139318455Y-92749997D01*
X139307974Y-92677094D01*
X139260922Y-92574066D01*
X139248186Y-92546178D01*
X139153937Y-92437408D01*
X139153936Y-92437407D01*
X139153935Y-92437406D01*
X139032866Y-92359600D01*
X139032863Y-92359598D01*
X139032862Y-92359598D01*
X139032859Y-92359597D01*
X138894773Y-92319051D01*
X138894770Y-92319051D01*
X138854500Y-92319051D01*
X138796309Y-92300144D01*
X138760345Y-92250644D01*
X138755500Y-92220051D01*
X138755500Y-90239996D01*
X141724417Y-90239996D01*
X141724417Y-90240003D01*
X141744698Y-90445929D01*
X141744699Y-90445934D01*
X141804768Y-90643954D01*
X141902316Y-90826452D01*
X142033585Y-90986404D01*
X142033590Y-90986410D01*
X142033595Y-90986414D01*
X142193547Y-91117683D01*
X142193548Y-91117683D01*
X142193550Y-91117685D01*
X142376046Y-91215232D01*
X142513997Y-91257078D01*
X142574065Y-91275300D01*
X142574070Y-91275301D01*
X142779997Y-91295583D01*
X142780000Y-91295583D01*
X142780003Y-91295583D01*
X142985929Y-91275301D01*
X142985934Y-91275300D01*
X143183954Y-91215232D01*
X143366450Y-91117685D01*
X143526410Y-90986410D01*
X143657685Y-90826450D01*
X143755232Y-90643954D01*
X143815300Y-90445934D01*
X143815301Y-90445929D01*
X143835583Y-90240003D01*
X143835583Y-90239996D01*
X143815301Y-90034070D01*
X143815300Y-90034065D01*
X143781799Y-89923628D01*
X143755232Y-89836046D01*
X143657685Y-89653550D01*
X143526410Y-89493590D01*
X143526404Y-89493585D01*
X143366452Y-89362316D01*
X143183954Y-89264768D01*
X142985934Y-89204699D01*
X142985929Y-89204698D01*
X142780003Y-89184417D01*
X142779997Y-89184417D01*
X142574070Y-89204698D01*
X142574065Y-89204699D01*
X142376045Y-89264768D01*
X142193547Y-89362316D01*
X142033595Y-89493585D01*
X142033585Y-89493595D01*
X141902316Y-89653547D01*
X141804768Y-89836045D01*
X141744699Y-90034065D01*
X141744698Y-90034070D01*
X141724417Y-90239996D01*
X138755500Y-90239996D01*
X138755500Y-87699996D01*
X141724417Y-87699996D01*
X141724417Y-87700003D01*
X141744698Y-87905929D01*
X141744699Y-87905934D01*
X141804768Y-88103954D01*
X141902316Y-88286452D01*
X142033585Y-88446404D01*
X142033590Y-88446410D01*
X142033595Y-88446414D01*
X142193547Y-88577683D01*
X142193548Y-88577683D01*
X142193550Y-88577685D01*
X142376046Y-88675232D01*
X142513997Y-88717078D01*
X142574065Y-88735300D01*
X142574070Y-88735301D01*
X142779997Y-88755583D01*
X142780000Y-88755583D01*
X142780003Y-88755583D01*
X142985929Y-88735301D01*
X142985934Y-88735300D01*
X143183954Y-88675232D01*
X143366450Y-88577685D01*
X143526410Y-88446410D01*
X143657685Y-88286450D01*
X143755232Y-88103954D01*
X143815300Y-87905934D01*
X143815301Y-87905929D01*
X143835583Y-87700003D01*
X143835583Y-87699996D01*
X143815301Y-87494070D01*
X143815300Y-87494065D01*
X143797078Y-87433997D01*
X143755232Y-87296046D01*
X143657685Y-87113550D01*
X143631249Y-87081338D01*
X143526414Y-86953595D01*
X143526410Y-86953590D01*
X143508487Y-86938881D01*
X143366452Y-86822316D01*
X143183954Y-86724768D01*
X142985934Y-86664699D01*
X142985929Y-86664698D01*
X142780003Y-86644417D01*
X142779997Y-86644417D01*
X142574070Y-86664698D01*
X142574065Y-86664699D01*
X142376045Y-86724768D01*
X142193547Y-86822316D01*
X142033595Y-86953585D01*
X142033585Y-86953595D01*
X141902316Y-87113547D01*
X141804768Y-87296045D01*
X141744699Y-87494065D01*
X141744698Y-87494070D01*
X141724417Y-87699996D01*
X138755500Y-87699996D01*
X138755500Y-86755565D01*
X138755097Y-86741227D01*
X138754474Y-86730149D01*
X138754474Y-86730141D01*
X138753270Y-86715870D01*
X138747504Y-86664700D01*
X138736339Y-86565608D01*
X138736336Y-86565580D01*
X138731539Y-86537341D01*
X138726608Y-86515734D01*
X138718674Y-86488195D01*
X138670572Y-86350727D01*
X138659608Y-86324256D01*
X138649992Y-86304288D01*
X138636132Y-86279210D01*
X138615121Y-86245772D01*
X138558659Y-86155912D01*
X138558652Y-86155903D01*
X138558647Y-86155894D01*
X138542070Y-86132532D01*
X138528248Y-86115199D01*
X138522007Y-86108214D01*
X138497331Y-86052228D01*
X138510277Y-85992428D01*
X138519303Y-85979439D01*
X138522788Y-85975194D01*
X138537728Y-85955051D01*
X138548510Y-85938914D01*
X138561398Y-85917411D01*
X138561410Y-85917388D01*
X138561413Y-85917384D01*
X138644605Y-85761741D01*
X138644610Y-85761732D01*
X138644614Y-85761725D01*
X138655334Y-85739060D01*
X138662761Y-85721130D01*
X138671209Y-85697519D01*
X138722453Y-85528586D01*
X138728545Y-85504264D01*
X138732331Y-85485230D01*
X138736010Y-85460431D01*
X138753793Y-85279887D01*
X138754715Y-85267386D01*
X138755192Y-85257682D01*
X138755500Y-85245138D01*
X138755500Y-85159996D01*
X141724417Y-85159996D01*
X141724417Y-85160003D01*
X141744698Y-85365929D01*
X141744699Y-85365934D01*
X141804768Y-85563954D01*
X141902316Y-85746452D01*
X141998359Y-85863481D01*
X142033590Y-85906410D01*
X142033595Y-85906414D01*
X142193547Y-86037683D01*
X142193548Y-86037683D01*
X142193550Y-86037685D01*
X142376046Y-86135232D01*
X142513997Y-86177078D01*
X142574065Y-86195300D01*
X142574070Y-86195301D01*
X142779997Y-86215583D01*
X142780000Y-86215583D01*
X142780003Y-86215583D01*
X142985929Y-86195301D01*
X142985934Y-86195300D01*
X143183954Y-86135232D01*
X143366450Y-86037685D01*
X143526410Y-85906410D01*
X143657685Y-85746450D01*
X143755232Y-85563954D01*
X143815300Y-85365934D01*
X143815301Y-85365929D01*
X143835583Y-85160003D01*
X143835583Y-85159996D01*
X143815301Y-84954070D01*
X143815300Y-84954065D01*
X143775161Y-84821744D01*
X143755232Y-84756046D01*
X143657685Y-84573550D01*
X143629813Y-84539588D01*
X143526414Y-84413595D01*
X143526410Y-84413590D01*
X143526404Y-84413585D01*
X143366452Y-84282316D01*
X143183954Y-84184768D01*
X142985934Y-84124699D01*
X142985929Y-84124698D01*
X142780003Y-84104417D01*
X142779997Y-84104417D01*
X142574070Y-84124698D01*
X142574065Y-84124699D01*
X142376045Y-84184768D01*
X142193547Y-84282316D01*
X142033595Y-84413585D01*
X142033585Y-84413595D01*
X141902316Y-84573547D01*
X141804768Y-84756045D01*
X141744699Y-84954065D01*
X141744698Y-84954070D01*
X141724417Y-85159996D01*
X138755500Y-85159996D01*
X138755500Y-84754861D01*
X138755192Y-84742317D01*
X138754715Y-84732613D01*
X138753793Y-84720112D01*
X138736010Y-84539568D01*
X138732331Y-84514769D01*
X138728545Y-84495735D01*
X138722453Y-84471413D01*
X138671209Y-84302480D01*
X138662761Y-84278869D01*
X138655334Y-84260939D01*
X138644614Y-84238274D01*
X138644605Y-84238257D01*
X138561413Y-84082614D01*
X138561409Y-84082608D01*
X138561406Y-84082603D01*
X138561398Y-84082588D01*
X138548510Y-84061085D01*
X138537728Y-84044948D01*
X138522789Y-84024805D01*
X138410796Y-83888342D01*
X138410777Y-83888322D01*
X138410767Y-83888309D01*
X138393965Y-83869772D01*
X138393958Y-83869764D01*
X138380235Y-83856041D01*
X138377715Y-83853757D01*
X138361689Y-83839231D01*
X138361674Y-83839218D01*
X138361657Y-83839203D01*
X138316750Y-83802349D01*
X138289335Y-83779849D01*
X138289326Y-83779843D01*
X138247202Y-83745273D01*
X138225184Y-83727203D01*
X138210701Y-83716462D01*
X138205052Y-83712272D01*
X138188925Y-83701496D01*
X138167416Y-83688604D01*
X138167398Y-83688593D01*
X138011734Y-83605390D01*
X138011725Y-83605385D01*
X138003170Y-83601339D01*
X137989055Y-83594663D01*
X137989046Y-83594659D01*
X137989037Y-83594655D01*
X137989034Y-83594653D01*
X137971171Y-83587254D01*
X137971128Y-83587237D01*
X137947528Y-83578793D01*
X137947510Y-83578787D01*
X137869073Y-83554994D01*
X137869067Y-83554993D01*
X137834052Y-83549740D01*
X137779310Y-83522409D01*
X137751089Y-83468121D01*
X137750748Y-83465925D01*
X137735165Y-83357543D01*
X137735165Y-83357542D01*
X137675377Y-83226627D01*
X137643491Y-83189829D01*
X137619675Y-83133472D01*
X137633533Y-83073877D01*
X137643492Y-83060170D01*
X137675377Y-83023373D01*
X137735165Y-82892457D01*
X137741992Y-82844971D01*
X137755647Y-82750002D01*
X137755647Y-82749997D01*
X137735165Y-82607543D01*
X137686051Y-82500000D01*
X137675377Y-82476627D01*
X137581128Y-82367857D01*
X137581127Y-82367856D01*
X137581126Y-82367855D01*
X137460057Y-82290049D01*
X137460054Y-82290047D01*
X137460053Y-82290047D01*
X137460050Y-82290046D01*
X137321964Y-82249500D01*
X137321961Y-82249500D01*
X137178039Y-82249500D01*
X137178035Y-82249500D01*
X137039949Y-82290046D01*
X137039942Y-82290049D01*
X136928523Y-82361654D01*
X136869348Y-82377209D01*
X136821477Y-82361654D01*
X136710057Y-82290049D01*
X136710054Y-82290047D01*
X136710053Y-82290047D01*
X136710050Y-82290046D01*
X136571964Y-82249500D01*
X136571961Y-82249500D01*
X136428039Y-82249500D01*
X136428035Y-82249500D01*
X136289949Y-82290046D01*
X136289942Y-82290049D01*
X136168873Y-82367855D01*
X136074622Y-82476628D01*
X136014834Y-82607543D01*
X135994353Y-82749997D01*
X135994353Y-82750002D01*
X136014834Y-82892456D01*
X136064676Y-83001592D01*
X136074623Y-83023373D01*
X136078455Y-83027795D01*
X136106507Y-83060170D01*
X136130323Y-83116530D01*
X136116463Y-83176125D01*
X136106507Y-83189830D01*
X136074622Y-83226628D01*
X136014834Y-83357544D01*
X136007351Y-83409589D01*
X135980355Y-83464497D01*
X135926240Y-83493050D01*
X135909359Y-83494500D01*
X134834746Y-83494500D01*
X134776555Y-83475593D01*
X134740591Y-83426093D01*
X134736754Y-83381411D01*
X134755647Y-83250003D01*
X134755647Y-83249996D01*
X134735934Y-83112886D01*
X134746367Y-83052597D01*
X134790245Y-83009954D01*
X134819847Y-83000803D01*
X134821952Y-83000500D01*
X134821961Y-83000500D01*
X134960053Y-82959953D01*
X135081128Y-82882143D01*
X135175377Y-82773373D01*
X135235165Y-82642457D01*
X135255647Y-82500000D01*
X135243927Y-82418488D01*
X135235165Y-82357543D01*
X135204340Y-82290046D01*
X135175377Y-82226627D01*
X135081128Y-82117857D01*
X135081127Y-82117856D01*
X135081126Y-82117855D01*
X134960057Y-82040049D01*
X134960054Y-82040047D01*
X134960053Y-82040047D01*
X134960050Y-82040046D01*
X134821957Y-81999498D01*
X134819837Y-81999194D01*
X134818232Y-81998405D01*
X134815167Y-81997505D01*
X134815322Y-81996974D01*
X134764929Y-81972198D01*
X134736376Y-81918084D01*
X134735934Y-81887113D01*
X134755647Y-81750002D01*
X134755647Y-81749997D01*
X134735165Y-81607543D01*
X134706889Y-81545627D01*
X134699914Y-81484840D01*
X134730000Y-81431563D01*
X134785656Y-81406145D01*
X134796942Y-81405500D01*
X142497405Y-81405500D01*
X142555596Y-81424407D01*
X142591560Y-81473907D01*
X142591560Y-81535093D01*
X142555596Y-81584593D01*
X142526143Y-81599237D01*
X142376045Y-81644768D01*
X142193547Y-81742316D01*
X142033595Y-81873585D01*
X142033585Y-81873595D01*
X141902316Y-82033547D01*
X141804768Y-82216045D01*
X141744699Y-82414065D01*
X141744698Y-82414070D01*
X141724417Y-82619996D01*
X141724417Y-82620003D01*
X141744698Y-82825929D01*
X141744699Y-82825934D01*
X141804768Y-83023954D01*
X141902316Y-83206452D01*
X142026312Y-83357542D01*
X142033590Y-83366410D01*
X142033595Y-83366414D01*
X142193547Y-83497683D01*
X142193548Y-83497683D01*
X142193550Y-83497685D01*
X142376046Y-83595232D01*
X142476207Y-83625615D01*
X142574065Y-83655300D01*
X142574070Y-83655301D01*
X142779997Y-83675583D01*
X142780000Y-83675583D01*
X142780003Y-83675583D01*
X142985929Y-83655301D01*
X142985934Y-83655300D01*
X143023683Y-83643849D01*
X143183954Y-83595232D01*
X143366450Y-83497685D01*
X143526410Y-83366410D01*
X143657685Y-83206450D01*
X143755232Y-83023954D01*
X143815300Y-82825934D01*
X143815301Y-82825929D01*
X143835583Y-82620003D01*
X143835583Y-82619996D01*
X143815301Y-82414070D01*
X143815300Y-82414065D01*
X143777680Y-82290049D01*
X143755232Y-82216046D01*
X143657685Y-82033550D01*
X143629740Y-81999499D01*
X143526414Y-81873595D01*
X143526410Y-81873590D01*
X143526404Y-81873585D01*
X143366452Y-81742316D01*
X143183954Y-81644768D01*
X142985934Y-81584699D01*
X142983066Y-81584129D01*
X142981900Y-81583476D01*
X142981280Y-81583288D01*
X142981321Y-81583151D01*
X142929685Y-81554226D01*
X142904076Y-81498658D01*
X142916019Y-81438650D01*
X142960954Y-81397122D01*
X142986904Y-81389252D01*
X143090389Y-81372862D01*
X143288816Y-81308389D01*
X143474714Y-81213670D01*
X143643505Y-81091035D01*
X143791035Y-80943505D01*
X143913670Y-80774714D01*
X144008389Y-80588816D01*
X144072862Y-80390389D01*
X144105500Y-80184319D01*
X144105500Y-79975681D01*
X144105500Y-79975677D01*
X144072863Y-79769615D01*
X144072862Y-79769611D01*
X144008389Y-79571184D01*
X143913670Y-79385286D01*
X143876114Y-79333595D01*
X143791039Y-79216500D01*
X143791037Y-79216498D01*
X143791035Y-79216495D01*
X143643505Y-79068965D01*
X143643501Y-79068962D01*
X143643499Y-79068960D01*
X143474719Y-78946333D01*
X143474713Y-78946329D01*
X143380272Y-78898210D01*
X143337008Y-78854946D01*
X143327436Y-78794513D01*
X143355213Y-78739997D01*
X143380272Y-78721790D01*
X143474714Y-78673670D01*
X143643505Y-78551035D01*
X143791035Y-78403505D01*
X143913670Y-78234714D01*
X144008389Y-78048816D01*
X144072862Y-77850389D01*
X144105500Y-77644319D01*
X144105500Y-77435681D01*
X144105500Y-77435677D01*
X144072863Y-77229615D01*
X144072862Y-77229611D01*
X144008389Y-77031184D01*
X143913670Y-76845286D01*
X143876114Y-76793595D01*
X143791039Y-76676500D01*
X143791037Y-76676498D01*
X143791035Y-76676495D01*
X143643505Y-76528965D01*
X143643501Y-76528962D01*
X143643499Y-76528960D01*
X143474719Y-76406333D01*
X143474713Y-76406329D01*
X143288816Y-76311611D01*
X143090377Y-76247134D01*
X143086606Y-76246229D01*
X143086892Y-76245037D01*
X143036779Y-76219504D01*
X143009001Y-76164988D01*
X143018572Y-76104555D01*
X143061836Y-76061291D01*
X143106782Y-76050500D01*
X143649747Y-76050500D01*
X143649748Y-76050500D01*
X143708231Y-76038867D01*
X143774552Y-75994552D01*
X143818867Y-75928231D01*
X143830500Y-75869748D01*
X143830500Y-74130252D01*
X143818867Y-74071769D01*
X143774552Y-74005448D01*
X143774548Y-74005445D01*
X143708233Y-73961134D01*
X143708231Y-73961133D01*
X143708228Y-73961132D01*
X143708227Y-73961132D01*
X143649758Y-73949501D01*
X143649748Y-73949500D01*
X141910252Y-73949500D01*
X141910251Y-73949500D01*
X141910241Y-73949501D01*
X141851772Y-73961132D01*
X141851766Y-73961134D01*
X141785451Y-74005445D01*
X141785445Y-74005451D01*
X141741134Y-74071766D01*
X141741132Y-74071772D01*
X141729501Y-74130241D01*
X141729500Y-74130253D01*
X141729500Y-75869746D01*
X141729501Y-75869758D01*
X141741132Y-75928227D01*
X141741133Y-75928231D01*
X141785448Y-75994552D01*
X141785451Y-75994554D01*
X141843265Y-76033185D01*
X141881144Y-76081235D01*
X141883546Y-76142374D01*
X141849552Y-76193247D01*
X141792149Y-76214424D01*
X141788263Y-76214500D01*
X139726545Y-76214500D01*
X139668354Y-76195593D01*
X139632390Y-76146093D01*
X139632390Y-76084907D01*
X139651725Y-76050670D01*
X139666875Y-76033185D01*
X139675377Y-76023373D01*
X139735165Y-75892457D01*
X139755647Y-75750000D01*
X139735165Y-75607543D01*
X139675377Y-75476627D01*
X139643491Y-75439829D01*
X139619675Y-75383472D01*
X139633533Y-75323877D01*
X139643492Y-75310170D01*
X139675377Y-75273373D01*
X139735165Y-75142457D01*
X139746964Y-75060390D01*
X139755647Y-75000002D01*
X139755647Y-74999997D01*
X139735165Y-74857543D01*
X139675377Y-74726628D01*
X139675377Y-74726627D01*
X139643491Y-74689829D01*
X139619675Y-74633472D01*
X139633533Y-74573877D01*
X139643492Y-74560170D01*
X139675377Y-74523373D01*
X139735165Y-74392457D01*
X139745017Y-74323937D01*
X139755647Y-74250002D01*
X139755647Y-74249997D01*
X139735165Y-74107543D01*
X139711300Y-74055287D01*
X139675377Y-73976627D01*
X139581128Y-73867857D01*
X139581127Y-73867856D01*
X139581126Y-73867855D01*
X139460057Y-73790049D01*
X139460054Y-73790047D01*
X139460053Y-73790047D01*
X139460050Y-73790046D01*
X139321964Y-73749500D01*
X139321961Y-73749500D01*
X139178039Y-73749500D01*
X139178035Y-73749500D01*
X139039949Y-73790046D01*
X139039942Y-73790049D01*
X138928523Y-73861654D01*
X138869348Y-73877209D01*
X138821477Y-73861654D01*
X138710057Y-73790049D01*
X138710054Y-73790047D01*
X138710053Y-73790047D01*
X138710050Y-73790046D01*
X138571964Y-73749500D01*
X138571961Y-73749500D01*
X138428039Y-73749500D01*
X138428035Y-73749500D01*
X138289949Y-73790046D01*
X138289942Y-73790049D01*
X138178523Y-73861654D01*
X138119348Y-73877209D01*
X138071477Y-73861654D01*
X137960057Y-73790049D01*
X137960054Y-73790047D01*
X137960053Y-73790047D01*
X137960050Y-73790046D01*
X137821964Y-73749500D01*
X137821961Y-73749500D01*
X137678039Y-73749500D01*
X137678035Y-73749500D01*
X137539949Y-73790046D01*
X137539942Y-73790049D01*
X137418873Y-73867855D01*
X137324622Y-73976628D01*
X137264834Y-74107543D01*
X137244353Y-74249997D01*
X137244353Y-74250002D01*
X137264834Y-74392456D01*
X137324622Y-74523371D01*
X137324623Y-74523373D01*
X137346977Y-74549171D01*
X137356507Y-74560170D01*
X137380323Y-74616530D01*
X137366463Y-74676125D01*
X137356507Y-74689830D01*
X137324622Y-74726628D01*
X137264834Y-74857543D01*
X137244353Y-74999997D01*
X137244353Y-75000002D01*
X137264834Y-75142456D01*
X137317975Y-75258817D01*
X137324623Y-75273373D01*
X137346977Y-75299171D01*
X137356507Y-75310170D01*
X137380323Y-75366530D01*
X137366463Y-75426125D01*
X137356507Y-75439830D01*
X137324622Y-75476628D01*
X137264834Y-75607543D01*
X137244353Y-75749997D01*
X137244353Y-75750003D01*
X137264120Y-75887491D01*
X137253687Y-75947781D01*
X137209808Y-75990423D01*
X137149246Y-75999130D01*
X137096124Y-75971584D01*
X135524206Y-74399666D01*
X135496429Y-74345149D01*
X135496218Y-74315578D01*
X135505647Y-74250000D01*
X135504379Y-74241182D01*
X135485165Y-74107543D01*
X135461300Y-74055287D01*
X135425377Y-73976627D01*
X135331128Y-73867857D01*
X135331127Y-73867856D01*
X135331126Y-73867855D01*
X135210057Y-73790049D01*
X135210054Y-73790047D01*
X135210053Y-73790047D01*
X135210050Y-73790046D01*
X135071964Y-73749500D01*
X135071961Y-73749500D01*
X134928039Y-73749500D01*
X134928032Y-73749500D01*
X134926035Y-73749787D01*
X134924377Y-73749500D01*
X134920959Y-73749500D01*
X134920959Y-73748908D01*
X134865747Y-73739349D01*
X134853763Y-73731887D01*
X134694711Y-73616328D01*
X134508817Y-73521612D01*
X134508816Y-73521611D01*
X134508815Y-73521611D01*
X134457356Y-73504890D01*
X134310389Y-73457136D01*
X134248162Y-73447281D01*
X134193645Y-73419504D01*
X134165867Y-73364988D01*
X134175438Y-73304556D01*
X134218702Y-73261291D01*
X134263648Y-73250500D01*
X144400500Y-73250500D01*
X144458691Y-73269407D01*
G37*
%TD.AperFunction*%
%TA.AperFunction,Conductor*%
G36*
X133773544Y-87955553D02*
G01*
X133814086Y-87960890D01*
X133839043Y-87967577D01*
X133865454Y-87978517D01*
X133913385Y-87993056D01*
X133951268Y-88000591D01*
X133951267Y-88000591D01*
X134001105Y-88005500D01*
X134001111Y-88005500D01*
X134498888Y-88005500D01*
X134498890Y-88005500D01*
X134548737Y-88000590D01*
X134586622Y-87993054D01*
X134634550Y-87978515D01*
X134660949Y-87967579D01*
X134685911Y-87960890D01*
X134737078Y-87954155D01*
X134762918Y-87954155D01*
X134780501Y-87956469D01*
X134814085Y-87960890D01*
X134839044Y-87967578D01*
X134865451Y-87978516D01*
X134913378Y-87993054D01*
X134951263Y-88000590D01*
X135001110Y-88005500D01*
X135145500Y-88005500D01*
X135203691Y-88024407D01*
X135239655Y-88073907D01*
X135244500Y-88104500D01*
X135244500Y-99405874D01*
X135225593Y-99464065D01*
X135176093Y-99500029D01*
X135173390Y-99500864D01*
X135136794Y-99511609D01*
X135128234Y-99513713D01*
X135123821Y-99514591D01*
X135123789Y-99514599D01*
X135075874Y-99529133D01*
X135073579Y-99529955D01*
X135073540Y-99529846D01*
X135067764Y-99531878D01*
X135039951Y-99540044D01*
X135039940Y-99540049D01*
X135006333Y-99561647D01*
X134999497Y-99565663D01*
X134996017Y-99567523D01*
X134996003Y-99567532D01*
X134984483Y-99575229D01*
X134972646Y-99583139D01*
X134972636Y-99583146D01*
X134967141Y-99586816D01*
X134965683Y-99587772D01*
X134918869Y-99617858D01*
X134896408Y-99643781D01*
X134891606Y-99648939D01*
X134886962Y-99653585D01*
X134881614Y-99658933D01*
X134852636Y-99694241D01*
X134850933Y-99696259D01*
X134824624Y-99726624D01*
X134824621Y-99726629D01*
X134806742Y-99765777D01*
X134804004Y-99771310D01*
X134793916Y-99790185D01*
X134793914Y-99790189D01*
X134778210Y-99828102D01*
X134776801Y-99831340D01*
X134764835Y-99857542D01*
X134764833Y-99857547D01*
X134757401Y-99909245D01*
X134756507Y-99914468D01*
X134751311Y-99940588D01*
X134747634Y-99965375D01*
X134747631Y-99965406D01*
X134745730Y-99984707D01*
X134745728Y-99984727D01*
X134745530Y-99988762D01*
X134744645Y-99997967D01*
X134744353Y-100000000D01*
X134744353Y-100007071D01*
X134744277Y-100007071D01*
X134744364Y-100008538D01*
X134744500Y-100008538D01*
X134744500Y-100741903D01*
X134744353Y-100743960D01*
X134744353Y-100756053D01*
X134744500Y-100758109D01*
X134744500Y-100995141D01*
X134744807Y-101007666D01*
X134745285Y-101017380D01*
X134746209Y-101029910D01*
X134763988Y-101210424D01*
X134763991Y-101210445D01*
X134767665Y-101235214D01*
X134767667Y-101235223D01*
X134767668Y-101235230D01*
X134767669Y-101235232D01*
X134771454Y-101254264D01*
X134774234Y-101265362D01*
X134777320Y-101277685D01*
X134777390Y-101277962D01*
X134773188Y-101339003D01*
X134771412Y-101343140D01*
X134764834Y-101357544D01*
X134744353Y-101499997D01*
X134744353Y-101500003D01*
X134763246Y-101631411D01*
X134752813Y-101691700D01*
X134708934Y-101734343D01*
X134665254Y-101744500D01*
X133354500Y-101744500D01*
X133296309Y-101725593D01*
X133260345Y-101676093D01*
X133255500Y-101645500D01*
X133255500Y-101508109D01*
X133255647Y-101506053D01*
X133255647Y-101493960D01*
X133255500Y-101491903D01*
X133255500Y-100758109D01*
X133255647Y-100756053D01*
X133255647Y-100743960D01*
X133255500Y-100741903D01*
X133255500Y-100008109D01*
X133255647Y-100006053D01*
X133255647Y-99993960D01*
X133255500Y-99991903D01*
X133255500Y-88104500D01*
X133274407Y-88046309D01*
X133323907Y-88010345D01*
X133354500Y-88005500D01*
X133518579Y-88005500D01*
X133518580Y-88005500D01*
X133616354Y-87986052D01*
X133660954Y-87967577D01*
X133685908Y-87960891D01*
X133732645Y-87954738D01*
X133737079Y-87954155D01*
X133762919Y-87954155D01*
X133773544Y-87955553D01*
G37*
%TD.AperFunction*%
%TD*%
%TA.AperFunction,Conductor*%
%TO.N,+BATT*%
G36*
X137305658Y-86209781D02*
G01*
X137314086Y-86210891D01*
X137339044Y-86217578D01*
X137386736Y-86237332D01*
X137408641Y-86249988D01*
X137408683Y-86249933D01*
X137409151Y-86250283D01*
X137409160Y-86250288D01*
X137409198Y-86250317D01*
X137409232Y-86250343D01*
X137409242Y-86250350D01*
X137414508Y-86254283D01*
X137418718Y-86257342D01*
X137418719Y-86257343D01*
X137496357Y-86295636D01*
X137496368Y-86295639D01*
X137496370Y-86295640D01*
X137507592Y-86298964D01*
X137555023Y-86313014D01*
X137614214Y-86323186D01*
X137712873Y-86308882D01*
X137770549Y-86288459D01*
X137840805Y-86250315D01*
X137840882Y-86250255D01*
X137841002Y-86250186D01*
X137844067Y-86248196D01*
X137844171Y-86248356D01*
X137863269Y-86237330D01*
X137910953Y-86217579D01*
X137935912Y-86210891D01*
X137987078Y-86204155D01*
X138012918Y-86204155D01*
X138108166Y-86216695D01*
X138157394Y-86218387D01*
X138195312Y-86216026D01*
X138214232Y-86213754D01*
X138274258Y-86225589D01*
X138296035Y-86242044D01*
X138328487Y-86274496D01*
X138342309Y-86291829D01*
X138419794Y-86415145D01*
X138429410Y-86435113D01*
X138477512Y-86572581D01*
X138482443Y-86594188D01*
X138499377Y-86744478D01*
X138500000Y-86755563D01*
X138500000Y-92324539D01*
X138481093Y-92382730D01*
X138461269Y-92403080D01*
X138430191Y-92426927D01*
X138430186Y-92426932D01*
X138341948Y-92541925D01*
X138341946Y-92541929D01*
X138286479Y-92675841D01*
X138286478Y-92675842D01*
X138267559Y-92819550D01*
X138267559Y-92819551D01*
X138286413Y-92962760D01*
X138275263Y-93022921D01*
X138230881Y-93065038D01*
X138226146Y-93067146D01*
X138137756Y-93103758D01*
X138137754Y-93103759D01*
X138022761Y-93191997D01*
X138022757Y-93192001D01*
X137934519Y-93306994D01*
X137934517Y-93306998D01*
X137879050Y-93440910D01*
X137879049Y-93440911D01*
X137860130Y-93584619D01*
X137860130Y-93584620D01*
X137879049Y-93728328D01*
X137879050Y-93728329D01*
X137926557Y-93843024D01*
X137934519Y-93862245D01*
X138022759Y-93977241D01*
X138137755Y-94065481D01*
X138271671Y-94120950D01*
X138413922Y-94139678D01*
X138469147Y-94166019D01*
X138498342Y-94219790D01*
X138500000Y-94237831D01*
X138500000Y-94748889D01*
X138492465Y-94786771D01*
X138463670Y-94856291D01*
X138463669Y-94856294D01*
X138444750Y-94999999D01*
X138444750Y-95000000D01*
X138460142Y-95116917D01*
X138463670Y-95143709D01*
X138492464Y-95213226D01*
X138500000Y-95251109D01*
X138500000Y-97898550D01*
X138481093Y-97956741D01*
X138479543Y-97958816D01*
X138469139Y-97972374D01*
X138469137Y-97972378D01*
X138413670Y-98106290D01*
X138413669Y-98106291D01*
X138394750Y-98249999D01*
X138394750Y-98250000D01*
X138413669Y-98393708D01*
X138413670Y-98393709D01*
X138469137Y-98527621D01*
X138469139Y-98527625D01*
X138500000Y-98567843D01*
X138500000Y-99000000D01*
X142995139Y-99000000D01*
X143004842Y-99000476D01*
X143185388Y-99018259D01*
X143204418Y-99022044D01*
X143373360Y-99073292D01*
X143391276Y-99080713D01*
X143546974Y-99163935D01*
X143563101Y-99174711D01*
X143658771Y-99253224D01*
X143699569Y-99286707D01*
X143713292Y-99300430D01*
X143825285Y-99436893D01*
X143836067Y-99453030D01*
X143919283Y-99608716D01*
X143926710Y-99626646D01*
X143977954Y-99795579D01*
X143981740Y-99814613D01*
X143999523Y-99995157D01*
X144000000Y-100004861D01*
X144000000Y-100995138D01*
X143999523Y-101004842D01*
X143981740Y-101185386D01*
X143977954Y-101204420D01*
X143926710Y-101373353D01*
X143919283Y-101391283D01*
X143836067Y-101546969D01*
X143825285Y-101563106D01*
X143713292Y-101699569D01*
X143699569Y-101713292D01*
X143568389Y-101820949D01*
X143511412Y-101843249D01*
X143472229Y-101837633D01*
X143471144Y-101837244D01*
X143471135Y-101837241D01*
X143447528Y-101828794D01*
X143418962Y-101820128D01*
X143278588Y-101777546D01*
X143254270Y-101771455D01*
X143235233Y-101767668D01*
X143210442Y-101763990D01*
X143210428Y-101763988D01*
X143029887Y-101746205D01*
X143017364Y-101745282D01*
X143007649Y-101744806D01*
X142995154Y-101744500D01*
X142995139Y-101744500D01*
X137751110Y-101744500D01*
X137743171Y-101745282D01*
X137701265Y-101749409D01*
X137663375Y-101756946D01*
X137615463Y-101771480D01*
X137615435Y-101771489D01*
X137589046Y-101782419D01*
X137564089Y-101789106D01*
X137512922Y-101795843D01*
X137487077Y-101795843D01*
X137435912Y-101789107D01*
X137410950Y-101782419D01*
X137384547Y-101771483D01*
X137336624Y-101756946D01*
X137298732Y-101749409D01*
X137298736Y-101749409D01*
X137256829Y-101745282D01*
X137248890Y-101744500D01*
X137001110Y-101744500D01*
X136993171Y-101745282D01*
X136951265Y-101749409D01*
X136913375Y-101756946D01*
X136865463Y-101771480D01*
X136865435Y-101771489D01*
X136839046Y-101782419D01*
X136814089Y-101789106D01*
X136762922Y-101795843D01*
X136737077Y-101795843D01*
X136685912Y-101789107D01*
X136660950Y-101782419D01*
X136634547Y-101771483D01*
X136586624Y-101756946D01*
X136548732Y-101749409D01*
X136548736Y-101749409D01*
X136506829Y-101745282D01*
X136498890Y-101744500D01*
X136251110Y-101744500D01*
X136243171Y-101745282D01*
X136201265Y-101749409D01*
X136163375Y-101756946D01*
X136115463Y-101771480D01*
X136115435Y-101771489D01*
X136089046Y-101782419D01*
X136064089Y-101789106D01*
X136012922Y-101795843D01*
X135987077Y-101795843D01*
X135935912Y-101789107D01*
X135910950Y-101782419D01*
X135884547Y-101771483D01*
X135836624Y-101756946D01*
X135798732Y-101749409D01*
X135798736Y-101749409D01*
X135756829Y-101745282D01*
X135748890Y-101744500D01*
X135501110Y-101744500D01*
X135493171Y-101745282D01*
X135451263Y-101749409D01*
X135411202Y-101757378D01*
X135350441Y-101750186D01*
X135329084Y-101736808D01*
X135300430Y-101713292D01*
X135286707Y-101699569D01*
X135253224Y-101658771D01*
X135174711Y-101563101D01*
X135163935Y-101546974D01*
X135080713Y-101391276D01*
X135073292Y-101373360D01*
X135022044Y-101204418D01*
X135018259Y-101185386D01*
X135000477Y-101004842D01*
X135000000Y-100995138D01*
X135000000Y-100009751D01*
X135001902Y-99990438D01*
X135015188Y-99923643D01*
X135029971Y-99887954D01*
X135062283Y-99839596D01*
X135089596Y-99812283D01*
X135114595Y-99795579D01*
X135137955Y-99779970D01*
X135173641Y-99765188D01*
X135250000Y-99750000D01*
X135500000Y-99750000D01*
X135500000Y-88095587D01*
X135518907Y-88037396D01*
X135568407Y-88001432D01*
X135587915Y-87997210D01*
X135684410Y-87986337D01*
X135684409Y-87986337D01*
X135684419Y-87986336D01*
X135696307Y-87984316D01*
X135712650Y-87981540D01*
X135712660Y-87981537D01*
X135712664Y-87981537D01*
X135734273Y-87976605D01*
X135761806Y-87968673D01*
X135899268Y-87920573D01*
X135925730Y-87909613D01*
X135945702Y-87899996D01*
X135970789Y-87886132D01*
X136094105Y-87808647D01*
X136117467Y-87792070D01*
X136134800Y-87778248D01*
X136156169Y-87759153D01*
X136259153Y-87656169D01*
X136278248Y-87634800D01*
X136292070Y-87617467D01*
X136308647Y-87594105D01*
X136386132Y-87470789D01*
X136399991Y-87445712D01*
X136409610Y-87425738D01*
X136420575Y-87399266D01*
X136468673Y-87261809D01*
X136476607Y-87234268D01*
X136481539Y-87212656D01*
X136486336Y-87184419D01*
X136503892Y-87028609D01*
X136503936Y-87028216D01*
X136503937Y-87028207D01*
X136505500Y-86999992D01*
X136505500Y-86604500D01*
X136524407Y-86546309D01*
X136573907Y-86510345D01*
X136604500Y-86505500D01*
X136757698Y-86505500D01*
X136757701Y-86505500D01*
X136855476Y-86486049D01*
X136855477Y-86486048D01*
X136855478Y-86486048D01*
X136883105Y-86467586D01*
X136938365Y-86430662D01*
X136983730Y-86362764D01*
X136987495Y-86357510D01*
X137031672Y-86299937D01*
X137049940Y-86281669D01*
X137090888Y-86250249D01*
X137113259Y-86237333D01*
X137160955Y-86217577D01*
X137185911Y-86210891D01*
X137237078Y-86204155D01*
X137262920Y-86204155D01*
X137305658Y-86209781D01*
G37*
%TD.AperFunction*%
%TD*%
%TA.AperFunction,Conductor*%
%TO.N,-BATT*%
G36*
X133797212Y-83768907D02*
G01*
X133833176Y-83818407D01*
X133833176Y-83879593D01*
X133817563Y-83909267D01*
X133769142Y-83972370D01*
X133769137Y-83972378D01*
X133713670Y-84106290D01*
X133713669Y-84106291D01*
X133694750Y-84249999D01*
X133694750Y-84250000D01*
X133713669Y-84393708D01*
X133713670Y-84393709D01*
X133769137Y-84527621D01*
X133769139Y-84527625D01*
X133797613Y-84564734D01*
X133818036Y-84622410D01*
X133800658Y-84681076D01*
X133797613Y-84685266D01*
X133769139Y-84722374D01*
X133769137Y-84722378D01*
X133713670Y-84856290D01*
X133713669Y-84856291D01*
X133694750Y-84999999D01*
X133694750Y-85000000D01*
X133713669Y-85143708D01*
X133713670Y-85143709D01*
X133755682Y-85245138D01*
X133769139Y-85277625D01*
X133857379Y-85392621D01*
X133972375Y-85480861D01*
X134106291Y-85536330D01*
X134250000Y-85555250D01*
X134393709Y-85536330D01*
X134527625Y-85480861D01*
X134642621Y-85392621D01*
X134730861Y-85277625D01*
X134786330Y-85143709D01*
X134805250Y-85000000D01*
X134786330Y-84856291D01*
X134730861Y-84722375D01*
X134730858Y-84722371D01*
X134730857Y-84722369D01*
X134702388Y-84685268D01*
X134681963Y-84627592D01*
X134699340Y-84568927D01*
X134702388Y-84564732D01*
X134730857Y-84527630D01*
X134730856Y-84527630D01*
X134730861Y-84527625D01*
X134786330Y-84393709D01*
X134805250Y-84250000D01*
X134794803Y-84170652D01*
X134786330Y-84106291D01*
X134730861Y-83972375D01*
X134702386Y-83935266D01*
X134682437Y-83909267D01*
X134662013Y-83851592D01*
X134679390Y-83792926D01*
X134727932Y-83755679D01*
X134760979Y-83750000D01*
X135949120Y-83750000D01*
X136007311Y-83768907D01*
X136027663Y-83788734D01*
X136047613Y-83814734D01*
X136068036Y-83872410D01*
X136050658Y-83931075D01*
X136047613Y-83935266D01*
X136019139Y-83972374D01*
X136019137Y-83972378D01*
X135963670Y-84106290D01*
X135963669Y-84106291D01*
X135944750Y-84249999D01*
X135944750Y-84250000D01*
X135957436Y-84346361D01*
X135946286Y-84406522D01*
X135901904Y-84448639D01*
X135846361Y-84457436D01*
X135750001Y-84444750D01*
X135750000Y-84444750D01*
X135606291Y-84463669D01*
X135606290Y-84463670D01*
X135472378Y-84519137D01*
X135472374Y-84519139D01*
X135357381Y-84607377D01*
X135357377Y-84607381D01*
X135269139Y-84722374D01*
X135269137Y-84722378D01*
X135213670Y-84856290D01*
X135213669Y-84856291D01*
X135194750Y-84999999D01*
X135194750Y-85000000D01*
X135213669Y-85143708D01*
X135213670Y-85143709D01*
X135255682Y-85245138D01*
X135269139Y-85277625D01*
X135357379Y-85392621D01*
X135472375Y-85480861D01*
X135606291Y-85536330D01*
X135750000Y-85555250D01*
X135893709Y-85536330D01*
X136027625Y-85480861D01*
X136038269Y-85472693D01*
X136064732Y-85452388D01*
X136122408Y-85431963D01*
X136181073Y-85449340D01*
X136185268Y-85452388D01*
X136222369Y-85480857D01*
X136222371Y-85480858D01*
X136222375Y-85480861D01*
X136356291Y-85536330D01*
X136500000Y-85555250D01*
X136643709Y-85536330D01*
X136777625Y-85480861D01*
X136892621Y-85392621D01*
X136980861Y-85277625D01*
X137036330Y-85143709D01*
X137055250Y-85000000D01*
X137036330Y-84856291D01*
X136980861Y-84722375D01*
X136980858Y-84722371D01*
X136980857Y-84722369D01*
X136952388Y-84685268D01*
X136931963Y-84627592D01*
X136949340Y-84568927D01*
X136952388Y-84564732D01*
X136980857Y-84527630D01*
X136980856Y-84527630D01*
X136980861Y-84527625D01*
X137036330Y-84393709D01*
X137055250Y-84250000D01*
X137042563Y-84153637D01*
X137053713Y-84093478D01*
X137098095Y-84051360D01*
X137153636Y-84042563D01*
X137250000Y-84055250D01*
X137393709Y-84036330D01*
X137527625Y-83980861D01*
X137642621Y-83892621D01*
X137687631Y-83833962D01*
X137738052Y-83799308D01*
X137794907Y-83799493D01*
X137873356Y-83823290D01*
X137891276Y-83830713D01*
X138046974Y-83913935D01*
X138063101Y-83924711D01*
X138131522Y-83980862D01*
X138199569Y-84036707D01*
X138213292Y-84050430D01*
X138325285Y-84186893D01*
X138336067Y-84203030D01*
X138419283Y-84358716D01*
X138426710Y-84376646D01*
X138477954Y-84545579D01*
X138481740Y-84564613D01*
X138499523Y-84745157D01*
X138500000Y-84754861D01*
X138500000Y-85245138D01*
X138499523Y-85254842D01*
X138481740Y-85435386D01*
X138477954Y-85454420D01*
X138426710Y-85623353D01*
X138419283Y-85641283D01*
X138336067Y-85796969D01*
X138325285Y-85813106D01*
X138230966Y-85928033D01*
X138179434Y-85961020D01*
X138141516Y-85963381D01*
X138000001Y-85944750D01*
X138000000Y-85944750D01*
X137856291Y-85963669D01*
X137856290Y-85963670D01*
X137722378Y-86019137D01*
X137722374Y-86019139D01*
X137685266Y-86047613D01*
X137627590Y-86068036D01*
X137568924Y-86050658D01*
X137564734Y-86047613D01*
X137527625Y-86019139D01*
X137527621Y-86019137D01*
X137393709Y-85963670D01*
X137393708Y-85963669D01*
X137250000Y-85944750D01*
X137106291Y-85963669D01*
X137106290Y-85963670D01*
X136972378Y-86019137D01*
X136972374Y-86019139D01*
X136857381Y-86107377D01*
X136857377Y-86107381D01*
X136769138Y-86222375D01*
X136757696Y-86250000D01*
X136250000Y-86250000D01*
X136250000Y-86999992D01*
X136249999Y-87000001D01*
X136232443Y-87155811D01*
X136227511Y-87177423D01*
X136179413Y-87314880D01*
X136169794Y-87334854D01*
X136092309Y-87458170D01*
X136078487Y-87475503D01*
X135975503Y-87578487D01*
X135958170Y-87592309D01*
X135834854Y-87669794D01*
X135814882Y-87679411D01*
X135677420Y-87727511D01*
X135655811Y-87732443D01*
X135505521Y-87749377D01*
X135494436Y-87750000D01*
X135001110Y-87750000D01*
X134963225Y-87742464D01*
X134893709Y-87713670D01*
X134893708Y-87713669D01*
X134750000Y-87694750D01*
X134606291Y-87713669D01*
X134606290Y-87713670D01*
X134536775Y-87742464D01*
X134498890Y-87750000D01*
X134001111Y-87750000D01*
X133963228Y-87742465D01*
X133893709Y-87713670D01*
X133893706Y-87713669D01*
X133893705Y-87713669D01*
X133750000Y-87694750D01*
X133606291Y-87713669D01*
X133606290Y-87713670D01*
X133518580Y-87750000D01*
X133000000Y-87750000D01*
X133000000Y-102000000D01*
X134998890Y-102000000D01*
X135036775Y-102007536D01*
X135106291Y-102036330D01*
X135250000Y-102055250D01*
X135393709Y-102036330D01*
X135463225Y-102007536D01*
X135501110Y-102000000D01*
X135748890Y-102000000D01*
X135786775Y-102007536D01*
X135856291Y-102036330D01*
X136000000Y-102055250D01*
X136143709Y-102036330D01*
X136213225Y-102007536D01*
X136251110Y-102000000D01*
X136498890Y-102000000D01*
X136536775Y-102007536D01*
X136606291Y-102036330D01*
X136750000Y-102055250D01*
X136893709Y-102036330D01*
X136963225Y-102007536D01*
X137001110Y-102000000D01*
X137248890Y-102000000D01*
X137286775Y-102007536D01*
X137356291Y-102036330D01*
X137500000Y-102055250D01*
X137643709Y-102036330D01*
X137713225Y-102007536D01*
X137751110Y-102000000D01*
X142995139Y-102000000D01*
X143004842Y-102000476D01*
X143185388Y-102018259D01*
X143204418Y-102022044D01*
X143373360Y-102073292D01*
X143391276Y-102080713D01*
X143546974Y-102163935D01*
X143563101Y-102174711D01*
X143658771Y-102253224D01*
X143699569Y-102286707D01*
X143713292Y-102300430D01*
X143825285Y-102436893D01*
X143836067Y-102453030D01*
X143919283Y-102608716D01*
X143926710Y-102626646D01*
X143977954Y-102795579D01*
X143981740Y-102814613D01*
X143999523Y-102995157D01*
X144000000Y-103004861D01*
X144000000Y-104245138D01*
X143999523Y-104254842D01*
X143981740Y-104435386D01*
X143977954Y-104454420D01*
X143926710Y-104623353D01*
X143919283Y-104641283D01*
X143889412Y-104697168D01*
X143845307Y-104739575D01*
X143802102Y-104749500D01*
X130197898Y-104749500D01*
X130139707Y-104730593D01*
X130110588Y-104697169D01*
X130080711Y-104641272D01*
X130073292Y-104623360D01*
X130022044Y-104454418D01*
X130018259Y-104435386D01*
X130000477Y-104254842D01*
X130000000Y-104245138D01*
X130000000Y-93550879D01*
X130018907Y-93492688D01*
X130038731Y-93472338D01*
X130142621Y-93392621D01*
X130230861Y-93277625D01*
X130286330Y-93143709D01*
X130305250Y-93000000D01*
X130286330Y-92856291D01*
X130230861Y-92722375D01*
X130142621Y-92607379D01*
X130038731Y-92527661D01*
X130004077Y-92477237D01*
X130000000Y-92449120D01*
X130000000Y-87332447D01*
X130007535Y-87294564D01*
X130036330Y-87225047D01*
X130055250Y-87081338D01*
X130036330Y-86937629D01*
X130007534Y-86868109D01*
X130000000Y-86830227D01*
X130000000Y-85775196D01*
X130007535Y-85737313D01*
X130054037Y-85625047D01*
X130072957Y-85481338D01*
X130054037Y-85337629D01*
X130007536Y-85225363D01*
X130000000Y-85187478D01*
X130000000Y-84754861D01*
X130000477Y-84745157D01*
X130006376Y-84685266D01*
X130018259Y-84564609D01*
X130022045Y-84545579D01*
X130027490Y-84527630D01*
X130073293Y-84376635D01*
X130080711Y-84358727D01*
X130163938Y-84203020D01*
X130174707Y-84186902D01*
X130286710Y-84050426D01*
X130300426Y-84036710D01*
X130436902Y-83924707D01*
X130453018Y-83913939D01*
X130504085Y-83886643D01*
X130564316Y-83875889D01*
X130611017Y-83895412D01*
X130722375Y-83980861D01*
X130856291Y-84036330D01*
X131000000Y-84055250D01*
X131096362Y-84042563D01*
X131156521Y-84053713D01*
X131198639Y-84098095D01*
X131207436Y-84153638D01*
X131194750Y-84249999D01*
X131194750Y-84250000D01*
X131213669Y-84393708D01*
X131213670Y-84393709D01*
X131269137Y-84527621D01*
X131269139Y-84527625D01*
X131297613Y-84564734D01*
X131318036Y-84622410D01*
X131300658Y-84681076D01*
X131297613Y-84685266D01*
X131269139Y-84722374D01*
X131269137Y-84722378D01*
X131213670Y-84856290D01*
X131213669Y-84856291D01*
X131194750Y-84999999D01*
X131194750Y-85000000D01*
X131213669Y-85143708D01*
X131213670Y-85143709D01*
X131255682Y-85245138D01*
X131269139Y-85277625D01*
X131357379Y-85392621D01*
X131472375Y-85480861D01*
X131606291Y-85536330D01*
X131750000Y-85555250D01*
X131893709Y-85536330D01*
X132027625Y-85480861D01*
X132142621Y-85392621D01*
X132171458Y-85355039D01*
X132221882Y-85320384D01*
X132283047Y-85321985D01*
X132328541Y-85355039D01*
X132357379Y-85392621D01*
X132472375Y-85480861D01*
X132606291Y-85536330D01*
X132750000Y-85555250D01*
X132893709Y-85536330D01*
X133027625Y-85480861D01*
X133142621Y-85392621D01*
X133230861Y-85277625D01*
X133286330Y-85143709D01*
X133305250Y-85000000D01*
X133286330Y-84856291D01*
X133230861Y-84722375D01*
X133142621Y-84607379D01*
X133027625Y-84519139D01*
X133027621Y-84519137D01*
X132893709Y-84463670D01*
X132893708Y-84463669D01*
X132750000Y-84444750D01*
X132606291Y-84463669D01*
X132606290Y-84463670D01*
X132472378Y-84519137D01*
X132472374Y-84519139D01*
X132416608Y-84561931D01*
X132358932Y-84582355D01*
X132300266Y-84564978D01*
X132263019Y-84516436D01*
X132261417Y-84455272D01*
X132264876Y-84445504D01*
X132265188Y-84444750D01*
X132286330Y-84393709D01*
X132305250Y-84250000D01*
X132294803Y-84170652D01*
X132286330Y-84106291D01*
X132230861Y-83972375D01*
X132226645Y-83966881D01*
X132202387Y-83935266D01*
X132181963Y-83877590D01*
X132199341Y-83818925D01*
X132202362Y-83814764D01*
X132222339Y-83788730D01*
X132272762Y-83754077D01*
X132300879Y-83750000D01*
X133739021Y-83750000D01*
X133797212Y-83768907D01*
G37*
%TD.AperFunction*%
%TD*%
M02*
