%TF.GenerationSoftware,KiCad,Pcbnew,8.0.7*%
%TF.CreationDate,2025-02-16T22:30:25-06:00*%
%TF.ProjectId,MotorDriver,4d6f746f-7244-4726-9976-65722e6b6963,rev?*%
%TF.SameCoordinates,Original*%
%TF.FileFunction,Copper,L4,Bot*%
%TF.FilePolarity,Positive*%
%FSLAX46Y46*%
G04 Gerber Fmt 4.6, Leading zero omitted, Abs format (unit mm)*
G04 Created by KiCad (PCBNEW 8.0.7) date 2025-02-16 22:30:25*
%MOMM*%
%LPD*%
G01*
G04 APERTURE LIST*
G04 Aperture macros list*
%AMRoundRect*
0 Rectangle with rounded corners*
0 $1 Rounding radius*
0 $2 $3 $4 $5 $6 $7 $8 $9 X,Y pos of 4 corners*
0 Add a 4 corners polygon primitive as box body*
4,1,4,$2,$3,$4,$5,$6,$7,$8,$9,$2,$3,0*
0 Add four circle primitives for the rounded corners*
1,1,$1+$1,$2,$3*
1,1,$1+$1,$4,$5*
1,1,$1+$1,$6,$7*
1,1,$1+$1,$8,$9*
0 Add four rect primitives between the rounded corners*
20,1,$1+$1,$2,$3,$4,$5,0*
20,1,$1+$1,$4,$5,$6,$7,0*
20,1,$1+$1,$6,$7,$8,$9,0*
20,1,$1+$1,$8,$9,$2,$3,0*%
G04 Aperture macros list end*
%TA.AperFunction,SMDPad,CuDef*%
%ADD10RoundRect,0.250000X0.337500X0.475000X-0.337500X0.475000X-0.337500X-0.475000X0.337500X-0.475000X0*%
%TD*%
%TA.AperFunction,ComponentPad*%
%ADD11R,1.700000X1.700000*%
%TD*%
%TA.AperFunction,ComponentPad*%
%ADD12O,1.700000X1.700000*%
%TD*%
%TA.AperFunction,ViaPad*%
%ADD13C,0.600000*%
%TD*%
%TA.AperFunction,Conductor*%
%ADD14C,0.200000*%
%TD*%
%TA.AperFunction,Conductor*%
%ADD15C,2.500000*%
%TD*%
G04 APERTURE END LIST*
D10*
%TO.P,C1,1*%
%TO.N,+BATT*%
X135287500Y-95000000D03*
%TO.P,C1,2*%
%TO.N,-BATT*%
X133212500Y-95000000D03*
%TD*%
D11*
%TO.P,J2,1,Pin_1*%
%TO.N,Net-(J2-Pin_1)*%
X125000000Y-75000000D03*
D12*
%TO.P,J2,2,Pin_2*%
%TO.N,Net-(J2-Pin_2)*%
X125000000Y-77540000D03*
%TO.P,J2,3,Pin_3*%
%TO.N,Net-(J2-Pin_3)*%
X125000000Y-80080000D03*
%TO.P,J2,4,Pin_4*%
%TO.N,Net-(J2-Pin_4)*%
X125000000Y-82620000D03*
%TO.P,J2,5,Pin_5*%
%TO.N,Net-(J2-Pin_5)*%
X125000000Y-85160000D03*
%TO.P,J2,6,Pin_6*%
%TO.N,Net-(J2-Pin_6)*%
X125000000Y-87700000D03*
%TO.P,J2,7,Pin_7*%
%TO.N,/INHA*%
X125000000Y-90240000D03*
%TO.P,J2,8,Pin_8*%
%TO.N,/INLA*%
X125000000Y-92780000D03*
%TO.P,J2,9,Pin_9*%
%TO.N,/INHB*%
X125000000Y-95320000D03*
%TO.P,J2,10,Pin_10*%
%TO.N,/INLB*%
X125000000Y-97860000D03*
%TO.P,J2,11,Pin_11*%
%TO.N,/INHC*%
X125000000Y-100400000D03*
%TO.P,J2,12,Pin_12*%
%TO.N,/INLC*%
X125000000Y-102940000D03*
%TD*%
D10*
%TO.P,C2,1*%
%TO.N,+BATT*%
X135287500Y-98000000D03*
%TO.P,C2,2*%
%TO.N,-BATT*%
X133212500Y-98000000D03*
%TD*%
D11*
%TO.P,J4,1,Pin_1*%
%TO.N,/OUTA*%
X142780000Y-75000000D03*
D12*
%TO.P,J4,2,Pin_2*%
%TO.N,/OUTB*%
X142780000Y-77540000D03*
%TO.P,J4,3,Pin_3*%
%TO.N,/OUTC*%
X142780000Y-80080000D03*
%TO.P,J4,4,Pin_4*%
%TO.N,unconnected-(J4-Pin_4-Pad4)*%
X142780000Y-82620000D03*
%TO.P,J4,5,Pin_5*%
%TO.N,Net-(J4-Pin_5)*%
X142780000Y-85160000D03*
%TO.P,J4,6,Pin_6*%
%TO.N,Net-(J4-Pin_6)*%
X142780000Y-87700000D03*
%TO.P,J4,7,Pin_7*%
%TO.N,Net-(J4-Pin_7)*%
X142780000Y-90240000D03*
%TO.P,J4,8,Pin_8*%
%TO.N,/Buck_Out*%
X142780000Y-92780000D03*
%TO.P,J4,9,Pin_9*%
%TO.N,+3.3V*%
X142780000Y-95320000D03*
%TO.P,J4,10,Pin_10*%
%TO.N,GND*%
X142780000Y-97860000D03*
%TO.P,J4,11,Pin_11*%
%TO.N,+BATT*%
X142780000Y-100400000D03*
%TO.P,J4,12,Pin_12*%
%TO.N,-BATT*%
X142780000Y-102940000D03*
%TD*%
D13*
%TO.N,/OUTA*%
X138500000Y-74250000D03*
X139250000Y-74250000D03*
X137750000Y-75000000D03*
X137750000Y-74250000D03*
X139250000Y-75000000D03*
X138500000Y-75000000D03*
X138500000Y-75750000D03*
X137750000Y-75750000D03*
X139250000Y-75750000D03*
%TO.N,/OUTB*%
X134250000Y-75750000D03*
X134250000Y-74250000D03*
X133500000Y-75000000D03*
X135000000Y-75000000D03*
X133500000Y-75750000D03*
X135000000Y-75750000D03*
X135000000Y-74250000D03*
X134250000Y-75000000D03*
X133500000Y-74250000D03*
%TO.N,/OUTC*%
X130250000Y-75750000D03*
X129500000Y-75750000D03*
X128750000Y-75750000D03*
X130250000Y-74250000D03*
X130250000Y-75000000D03*
X128750000Y-75000000D03*
X129500000Y-75000000D03*
X128750000Y-74250000D03*
X129500000Y-74250000D03*
%TO.N,/OUTA*%
X137250000Y-82750000D03*
X136500000Y-82750000D03*
%TO.N,/OUTC*%
X131750000Y-82750000D03*
X131000000Y-82750000D03*
X131000000Y-83500000D03*
%TO.N,/OUTA*%
X137250000Y-83500000D03*
X136500000Y-83500000D03*
%TO.N,/OUTC*%
X131750000Y-83500000D03*
%TO.N,Net-(J2-Pin_4)*%
X126346517Y-85256949D03*
%TO.N,Net-(J2-Pin_5)*%
X126459443Y-90290525D03*
%TO.N,GND*%
X127894936Y-89392563D03*
%TO.N,+BATT*%
X138000000Y-86500000D03*
X137250000Y-86500000D03*
%TO.N,-BATT*%
X137750000Y-84750000D03*
X137750000Y-85500000D03*
%TO.N,/OUTA*%
X136500000Y-84250000D03*
X136500000Y-85000000D03*
X135750000Y-85000000D03*
%TO.N,/OUTB*%
X134250000Y-81750000D03*
X134250000Y-83250000D03*
X134750000Y-82500000D03*
X133750000Y-82500000D03*
%TO.N,-BATT*%
X133250000Y-84000000D03*
X135250000Y-84000000D03*
%TO.N,/OUTB*%
X134250000Y-85000000D03*
X134250000Y-84250000D03*
%TO.N,/OUTC*%
X131750000Y-84250000D03*
X131750000Y-85000000D03*
X132750000Y-85000000D03*
%TO.N,GND*%
X133750000Y-90750000D03*
X134750000Y-90750000D03*
X134750000Y-89500000D03*
X133750000Y-89500000D03*
X134750000Y-88250000D03*
X133750000Y-88250000D03*
%TO.N,Net-(J4-Pin_7)*%
X139000000Y-95000000D03*
%TO.N,Net-(J4-Pin_6)*%
X139500000Y-94350000D03*
%TO.N,Net-(J4-Pin_5)*%
X138415380Y-93584620D03*
%TO.N,/Buck_Out*%
X138822809Y-92819551D03*
X140106796Y-92750000D03*
%TO.N,Net-(J2-Pin_3)*%
X129750000Y-93000000D03*
%TO.N,Net-(J2-Pin_4)*%
X129148957Y-93601043D03*
%TO.N,Net-(J2-Pin_5)*%
X128382843Y-94500000D03*
%TO.N,+3.3V*%
X129000000Y-96000000D03*
%TO.N,GND*%
X138950000Y-98250000D03*
X134000000Y-93750000D03*
X134250000Y-97000000D03*
X134750000Y-96250000D03*
X133750000Y-96250000D03*
%TO.N,+BATT*%
X135250000Y-100000000D03*
X136000000Y-100000000D03*
X137500000Y-100750000D03*
X137500000Y-101500000D03*
X137500000Y-100000000D03*
X136750000Y-101500000D03*
X135250000Y-101500000D03*
X136000000Y-101500000D03*
X136750000Y-100000000D03*
X135250000Y-100750000D03*
X136750000Y-100750000D03*
X136000000Y-100750000D03*
%TO.N,-BATT*%
X132750000Y-101500000D03*
X130500000Y-101500000D03*
X132000000Y-101500000D03*
X131250000Y-101500000D03*
X130500000Y-100750000D03*
X131250000Y-100750000D03*
X132750000Y-100750000D03*
X132000000Y-100750000D03*
X132750000Y-100000000D03*
X132000000Y-100000000D03*
X131250000Y-100000000D03*
%TO.N,+3.3V*%
X129517707Y-85481338D03*
X127750000Y-87462500D03*
%TO.N,Net-(J2-Pin_1)*%
X129500000Y-87081338D03*
%TO.N,-BATT*%
X130500000Y-100000000D03*
%TO.N,Net-(J2-Pin_2)*%
X128382843Y-95490965D03*
%TD*%
D14*
%TO.N,Net-(J2-Pin_4)*%
X126346517Y-86153483D02*
X126250000Y-86250000D01*
X126250000Y-86250000D02*
X126250000Y-89161842D01*
X126346517Y-85256949D02*
X126346517Y-86153483D01*
X128916729Y-93368815D02*
X129148957Y-93601043D01*
%TO.N,Net-(J2-Pin_5)*%
X128382843Y-94500000D02*
X128250000Y-94367157D01*
X126459443Y-91709443D02*
X126459443Y-90290525D01*
%TO.N,Net-(J2-Pin_3)*%
X127000000Y-82080000D02*
X127000000Y-89346157D01*
%TO.N,Net-(J2-Pin_4)*%
X128916729Y-91828571D02*
X128916729Y-93368815D01*
X126250000Y-89161842D02*
X128916729Y-91828571D01*
%TO.N,Net-(J2-Pin_5)*%
X128250000Y-94367157D02*
X128250000Y-93500000D01*
%TO.N,Net-(J2-Pin_3)*%
X127000000Y-89346157D02*
X129750000Y-92096157D01*
%TO.N,Net-(J2-Pin_5)*%
X128250000Y-93500000D02*
X126459443Y-91709443D01*
%TO.N,Net-(J2-Pin_3)*%
X125000000Y-80080000D02*
X127000000Y-82080000D01*
X129750000Y-92096157D02*
X129750000Y-93000000D01*
%TO.N,Net-(J4-Pin_7)*%
X139000000Y-95000000D02*
X140000000Y-95000000D01*
%TO.N,Net-(J4-Pin_6)*%
X139500000Y-94350000D02*
X140036397Y-94350000D01*
X140036397Y-94350000D02*
X141630000Y-92756397D01*
%TO.N,Net-(J4-Pin_7)*%
X140000000Y-95000000D02*
X141000000Y-94000000D01*
X143500000Y-94000000D02*
X144000000Y-93500000D01*
X141000000Y-94000000D02*
X143500000Y-94000000D01*
X144000000Y-91460000D02*
X142780000Y-90240000D01*
X144000000Y-93500000D02*
X144000000Y-91460000D01*
%TO.N,Net-(J4-Pin_5)*%
X141230000Y-92556397D02*
X141230000Y-87520000D01*
X141230000Y-87520000D02*
X141500000Y-87250000D01*
X138580760Y-93750000D02*
X140036397Y-93750000D01*
X140036397Y-93750000D02*
X141230000Y-92556397D01*
X138415380Y-93584620D02*
X138580760Y-93750000D01*
X141500000Y-86440000D02*
X142780000Y-85160000D01*
X141500000Y-87250000D02*
X141500000Y-86440000D01*
%TO.N,/Buck_Out*%
X140106796Y-92750000D02*
X140037245Y-92819551D01*
X140037245Y-92819551D02*
X138822809Y-92819551D01*
%TO.N,+3.3V*%
X130400000Y-89387500D02*
X128475000Y-87462500D01*
X130200000Y-93469239D02*
X130400000Y-93269239D01*
X130200000Y-94800000D02*
X130200000Y-93469239D01*
X130400000Y-93269239D02*
X130400000Y-89387500D01*
X128475000Y-87462500D02*
X127750000Y-87462500D01*
X129000000Y-96000000D02*
X130200000Y-94800000D01*
%TO.N,Net-(J2-Pin_3)*%
X129519239Y-92850000D02*
X129669239Y-93000000D01*
X129669239Y-93000000D02*
X129750000Y-93000000D01*
%TO.N,+3.3V*%
X127750000Y-87462500D02*
X127968838Y-87681338D01*
X127968838Y-87681338D02*
X129748529Y-87681338D01*
X130250000Y-87179867D02*
X130250000Y-86213631D01*
X129748529Y-87681338D02*
X130250000Y-87179867D01*
X130250000Y-86213631D02*
X129517707Y-85481338D01*
%TO.N,Net-(J2-Pin_1)*%
X127750000Y-85331338D02*
X129500000Y-87081338D01*
X127750000Y-77750000D02*
X127750000Y-85331338D01*
X125000000Y-75000000D02*
X127750000Y-77750000D01*
D15*
%TO.N,/OUTA*%
X138501249Y-80990124D02*
X136901249Y-82590124D01*
X138501249Y-74740124D02*
X138501249Y-80990124D01*
X142780000Y-75000000D02*
X138750000Y-75000000D01*
%TO.N,/OUTB*%
X134200000Y-74950000D02*
X134200000Y-82500000D01*
%TO.N,/OUTC*%
X129500000Y-81000000D02*
X131500000Y-83000000D01*
X129500000Y-74750000D02*
X129500000Y-81000000D01*
D14*
%TO.N,Net-(J4-Pin_6)*%
X141630000Y-92756397D02*
X141630000Y-88850000D01*
X141630000Y-88850000D02*
X142780000Y-87700000D01*
%TO.N,Net-(J2-Pin_2)*%
X125000000Y-77540000D02*
X123850000Y-78690000D01*
X128250000Y-95250000D02*
X128250000Y-95500000D01*
X127000000Y-94000000D02*
X128250000Y-95250000D01*
X128250000Y-95500000D02*
X128373808Y-95500000D01*
X124593654Y-94000000D02*
X127000000Y-94000000D01*
X128373808Y-95500000D02*
X128382843Y-95490965D01*
X123850000Y-93256346D02*
X124593654Y-94000000D01*
X123850000Y-78690000D02*
X123850000Y-93256346D01*
%TD*%
%TA.AperFunction,Conductor*%
%TO.N,/OUTC*%
G36*
X132708691Y-82018907D02*
G01*
X132744655Y-82068407D01*
X132749500Y-82099000D01*
X132749500Y-82614160D01*
X132785214Y-82839655D01*
X132855769Y-83056799D01*
X132959422Y-83260230D01*
X132981092Y-83290055D01*
X133000000Y-83348245D01*
X133000000Y-83511660D01*
X132981093Y-83569851D01*
X132954525Y-83594943D01*
X132918873Y-83617855D01*
X132824622Y-83726628D01*
X132764834Y-83857543D01*
X132744353Y-83999997D01*
X132744353Y-84000002D01*
X132764834Y-84142456D01*
X132823585Y-84271101D01*
X132824623Y-84273373D01*
X132918872Y-84382143D01*
X132954523Y-84405054D01*
X132993254Y-84452419D01*
X133000000Y-84488338D01*
X133000000Y-85151000D01*
X132981093Y-85209191D01*
X132931593Y-85245155D01*
X132901000Y-85250000D01*
X130599000Y-85250000D01*
X130540809Y-85231093D01*
X130504845Y-85181593D01*
X130500000Y-85151000D01*
X130500000Y-82099000D01*
X130518907Y-82040809D01*
X130568407Y-82004845D01*
X130599000Y-82000000D01*
X132650500Y-82000000D01*
X132708691Y-82018907D01*
G37*
%TD.AperFunction*%
%TD*%
%TA.AperFunction,Conductor*%
%TO.N,/OUTA*%
G36*
X137959191Y-81768907D02*
G01*
X137995155Y-81818407D01*
X138000000Y-81849000D01*
X138000000Y-84169528D01*
X137981093Y-84227719D01*
X137931593Y-84263683D01*
X137873109Y-84264518D01*
X137821964Y-84249500D01*
X137821961Y-84249500D01*
X137678039Y-84249500D01*
X137678035Y-84249500D01*
X137539949Y-84290046D01*
X137539942Y-84290049D01*
X137418873Y-84367855D01*
X137324622Y-84476628D01*
X137264834Y-84607543D01*
X137244353Y-84749997D01*
X137244353Y-84750002D01*
X137264834Y-84892456D01*
X137324622Y-85023371D01*
X137324623Y-85023373D01*
X137331830Y-85031690D01*
X137356507Y-85060170D01*
X137380323Y-85116530D01*
X137366463Y-85176125D01*
X137356507Y-85189829D01*
X137333979Y-85215829D01*
X137281584Y-85247427D01*
X137259158Y-85250000D01*
X135599000Y-85250000D01*
X135540809Y-85231093D01*
X135504845Y-85181593D01*
X135500000Y-85151000D01*
X135500000Y-84488338D01*
X135518907Y-84430147D01*
X135545475Y-84405055D01*
X135581128Y-84382143D01*
X135675377Y-84273373D01*
X135735165Y-84142457D01*
X135746197Y-84065727D01*
X135755647Y-84000002D01*
X135755647Y-83999997D01*
X135735165Y-83857543D01*
X135697358Y-83774759D01*
X135675377Y-83726627D01*
X135581128Y-83617857D01*
X135581127Y-83617856D01*
X135581126Y-83617855D01*
X135545475Y-83594943D01*
X135506745Y-83547576D01*
X135500000Y-83511660D01*
X135500000Y-83167375D01*
X135510790Y-83122431D01*
X135517371Y-83109512D01*
X135544231Y-83056799D01*
X135614784Y-82839660D01*
X135650500Y-82614157D01*
X135650500Y-81849000D01*
X135669407Y-81790809D01*
X135718907Y-81754845D01*
X135749500Y-81750000D01*
X137901000Y-81750000D01*
X137959191Y-81768907D01*
G37*
%TD.AperFunction*%
%TD*%
%TA.AperFunction,Conductor*%
%TO.N,GND*%
G36*
X144458691Y-73269407D02*
G01*
X144494655Y-73318907D01*
X144499500Y-73349500D01*
X144499500Y-104650500D01*
X144480593Y-104708691D01*
X144431093Y-104744655D01*
X144400500Y-104749500D01*
X144288926Y-104749500D01*
X144230735Y-104730593D01*
X144194771Y-104681093D01*
X144194189Y-104621762D01*
X144194189Y-104621761D01*
X144222453Y-104528586D01*
X144228545Y-104504264D01*
X144232331Y-104485230D01*
X144236010Y-104460431D01*
X144253793Y-104279887D01*
X144254715Y-104267386D01*
X144255192Y-104257682D01*
X144255500Y-104245138D01*
X144255500Y-103004861D01*
X144255192Y-102992317D01*
X144254715Y-102982613D01*
X144253793Y-102970112D01*
X144236010Y-102789568D01*
X144232331Y-102764769D01*
X144228545Y-102745735D01*
X144222453Y-102721413D01*
X144171209Y-102552480D01*
X144162761Y-102528869D01*
X144155334Y-102510939D01*
X144144614Y-102488274D01*
X144144605Y-102488257D01*
X144061413Y-102332614D01*
X144061409Y-102332608D01*
X144061406Y-102332603D01*
X144061398Y-102332588D01*
X144048510Y-102311085D01*
X144037728Y-102294948D01*
X144022789Y-102274805D01*
X143910796Y-102138342D01*
X143910777Y-102138322D01*
X143910767Y-102138309D01*
X143893965Y-102119772D01*
X143893958Y-102119764D01*
X143880235Y-102106041D01*
X143880220Y-102106028D01*
X143880208Y-102106016D01*
X143861661Y-102089206D01*
X143861656Y-102089202D01*
X143846212Y-102076528D01*
X143813224Y-102024997D01*
X143816825Y-101963917D01*
X143846210Y-101923472D01*
X143861657Y-101910796D01*
X143880235Y-101893958D01*
X143893958Y-101880235D01*
X143910796Y-101861657D01*
X144022789Y-101725194D01*
X144037728Y-101705051D01*
X144048510Y-101688914D01*
X144061398Y-101667411D01*
X144061410Y-101667388D01*
X144061413Y-101667384D01*
X144144605Y-101511741D01*
X144144610Y-101511732D01*
X144144614Y-101511725D01*
X144155334Y-101489060D01*
X144162761Y-101471130D01*
X144171209Y-101447519D01*
X144222453Y-101278586D01*
X144228545Y-101254264D01*
X144232331Y-101235230D01*
X144236010Y-101210431D01*
X144253793Y-101029887D01*
X144254715Y-101017386D01*
X144255192Y-101007682D01*
X144255500Y-100995138D01*
X144255500Y-100004861D01*
X144255192Y-99992317D01*
X144254715Y-99982613D01*
X144253793Y-99970112D01*
X144236010Y-99789568D01*
X144232331Y-99764769D01*
X144228545Y-99745735D01*
X144222453Y-99721413D01*
X144214211Y-99694241D01*
X144171219Y-99552512D01*
X144171214Y-99552497D01*
X144171209Y-99552480D01*
X144162761Y-99528869D01*
X144155334Y-99510939D01*
X144144614Y-99488274D01*
X144131674Y-99464065D01*
X144061413Y-99332614D01*
X144061409Y-99332608D01*
X144061406Y-99332603D01*
X144061398Y-99332588D01*
X144048510Y-99311085D01*
X144037728Y-99294948D01*
X144022789Y-99274805D01*
X143910796Y-99138342D01*
X143910777Y-99138322D01*
X143910767Y-99138309D01*
X143893965Y-99119772D01*
X143893958Y-99119764D01*
X143880235Y-99106041D01*
X143880220Y-99106028D01*
X143880208Y-99106016D01*
X143861661Y-99089206D01*
X143861651Y-99089198D01*
X143822748Y-99057271D01*
X143822724Y-99057250D01*
X143782817Y-99024500D01*
X143725187Y-98977205D01*
X143705052Y-98962272D01*
X143688925Y-98951496D01*
X143667416Y-98938604D01*
X143667413Y-98938602D01*
X143586401Y-98895301D01*
X143511718Y-98855382D01*
X143489051Y-98844662D01*
X143489052Y-98844662D01*
X143489047Y-98844660D01*
X143471164Y-98837253D01*
X143471163Y-98837252D01*
X143471135Y-98837241D01*
X143468204Y-98836192D01*
X143447552Y-98828802D01*
X143447535Y-98828796D01*
X143447528Y-98828794D01*
X143418962Y-98820128D01*
X143278588Y-98777546D01*
X143254270Y-98771455D01*
X143235233Y-98767668D01*
X143210442Y-98763990D01*
X143210428Y-98763988D01*
X143029887Y-98746205D01*
X143017364Y-98745282D01*
X143007649Y-98744806D01*
X142995154Y-98744500D01*
X142995139Y-98744500D01*
X138854500Y-98744500D01*
X138796309Y-98725593D01*
X138760345Y-98676093D01*
X138755500Y-98645500D01*
X138755500Y-98567844D01*
X138754428Y-98559703D01*
X138746793Y-98501712D01*
X138702700Y-98412302D01*
X138700253Y-98409113D01*
X138687331Y-98386735D01*
X138667578Y-98339044D01*
X138660891Y-98314086D01*
X138654155Y-98262921D01*
X138654155Y-98237079D01*
X138654870Y-98231646D01*
X138660891Y-98185906D01*
X138667575Y-98160958D01*
X138699377Y-98084181D01*
X138702911Y-98076583D01*
X138724088Y-98035693D01*
X138742995Y-97977502D01*
X138755500Y-97898550D01*
X138755500Y-95582086D01*
X138774407Y-95523895D01*
X138823907Y-95487931D01*
X138882392Y-95487097D01*
X138928039Y-95500500D01*
X138928041Y-95500500D01*
X139071959Y-95500500D01*
X139071961Y-95500500D01*
X139210053Y-95459953D01*
X139331128Y-95382143D01*
X139372264Y-95334668D01*
X139424660Y-95303073D01*
X139447083Y-95300500D01*
X140039563Y-95300500D01*
X140039563Y-95300499D01*
X140115989Y-95280021D01*
X140184511Y-95240460D01*
X140240460Y-95184511D01*
X141095475Y-94329496D01*
X141149992Y-94301719D01*
X141165479Y-94300500D01*
X142089665Y-94300500D01*
X142147856Y-94319407D01*
X142183820Y-94368907D01*
X142183820Y-94430093D01*
X142152470Y-94476028D01*
X142033595Y-94573585D01*
X142033585Y-94573595D01*
X141902316Y-94733547D01*
X141804768Y-94916045D01*
X141744699Y-95114065D01*
X141744698Y-95114070D01*
X141724417Y-95319996D01*
X141724417Y-95320003D01*
X141744698Y-95525929D01*
X141744699Y-95525934D01*
X141804768Y-95723954D01*
X141902316Y-95906452D01*
X142028224Y-96059872D01*
X142033590Y-96066410D01*
X142033595Y-96066414D01*
X142193547Y-96197683D01*
X142193548Y-96197683D01*
X142193550Y-96197685D01*
X142376046Y-96295232D01*
X142513997Y-96337078D01*
X142574065Y-96355300D01*
X142574070Y-96355301D01*
X142779997Y-96375583D01*
X142780000Y-96375583D01*
X142780003Y-96375583D01*
X142985929Y-96355301D01*
X142985934Y-96355300D01*
X143183954Y-96295232D01*
X143366450Y-96197685D01*
X143526410Y-96066410D01*
X143657685Y-95906450D01*
X143755232Y-95723954D01*
X143815300Y-95525934D01*
X143815301Y-95525929D01*
X143835583Y-95320003D01*
X143835583Y-95319996D01*
X143815301Y-95114070D01*
X143815300Y-95114065D01*
X143779328Y-94995482D01*
X143755232Y-94916046D01*
X143657685Y-94733550D01*
X143624169Y-94692711D01*
X143526414Y-94573595D01*
X143526410Y-94573590D01*
X143512512Y-94562184D01*
X143407530Y-94476028D01*
X143374543Y-94424497D01*
X143378145Y-94363418D01*
X143416960Y-94316121D01*
X143470335Y-94300500D01*
X143539563Y-94300500D01*
X143539563Y-94300499D01*
X143615989Y-94280021D01*
X143684511Y-94240460D01*
X143740460Y-94184511D01*
X144240460Y-93684511D01*
X144260390Y-93649991D01*
X144280020Y-93615992D01*
X144280020Y-93615990D01*
X144280022Y-93615988D01*
X144300500Y-93539562D01*
X144300500Y-93460438D01*
X144300500Y-91420438D01*
X144297420Y-91408943D01*
X144280022Y-91344012D01*
X144280020Y-91344009D01*
X144280020Y-91344007D01*
X144240463Y-91275493D01*
X144240459Y-91275488D01*
X143756187Y-90791215D01*
X143728410Y-90736699D01*
X143737981Y-90676267D01*
X143738882Y-90674542D01*
X143755230Y-90643957D01*
X143755232Y-90643954D01*
X143815300Y-90445934D01*
X143815301Y-90445929D01*
X143835583Y-90240003D01*
X143835583Y-90239996D01*
X143815301Y-90034070D01*
X143815300Y-90034065D01*
X143781799Y-89923628D01*
X143755232Y-89836046D01*
X143657685Y-89653550D01*
X143526410Y-89493590D01*
X143467695Y-89445404D01*
X143366452Y-89362316D01*
X143183954Y-89264768D01*
X142985934Y-89204699D01*
X142985929Y-89204698D01*
X142780003Y-89184417D01*
X142779997Y-89184417D01*
X142574070Y-89204698D01*
X142574065Y-89204699D01*
X142376045Y-89264768D01*
X142193547Y-89362316D01*
X142193547Y-89362317D01*
X142092305Y-89445404D01*
X142035328Y-89467704D01*
X141976125Y-89452255D01*
X141937310Y-89404958D01*
X141930500Y-89368876D01*
X141930500Y-89015477D01*
X141949407Y-88957286D01*
X141959490Y-88945480D01*
X142228784Y-88676185D01*
X142283299Y-88648409D01*
X142343731Y-88657980D01*
X142345431Y-88658868D01*
X142376046Y-88675232D01*
X142513997Y-88717078D01*
X142574065Y-88735300D01*
X142574070Y-88735301D01*
X142779997Y-88755583D01*
X142780000Y-88755583D01*
X142780003Y-88755583D01*
X142985929Y-88735301D01*
X142985934Y-88735300D01*
X143183954Y-88675232D01*
X143366450Y-88577685D01*
X143526410Y-88446410D01*
X143657685Y-88286450D01*
X143755232Y-88103954D01*
X143815300Y-87905934D01*
X143815301Y-87905929D01*
X143835583Y-87700003D01*
X143835583Y-87699996D01*
X143815301Y-87494070D01*
X143815300Y-87494065D01*
X143776448Y-87365988D01*
X143755232Y-87296046D01*
X143657685Y-87113550D01*
X143631249Y-87081338D01*
X143526414Y-86953595D01*
X143526410Y-86953590D01*
X143467695Y-86905404D01*
X143366452Y-86822316D01*
X143183954Y-86724768D01*
X142985934Y-86664699D01*
X142985929Y-86664698D01*
X142780003Y-86644417D01*
X142779997Y-86644417D01*
X142574070Y-86664698D01*
X142574065Y-86664699D01*
X142376045Y-86724768D01*
X142193547Y-86822316D01*
X142033595Y-86953585D01*
X142033585Y-86953595D01*
X141976028Y-87023729D01*
X141924496Y-87056716D01*
X141863417Y-87053114D01*
X141816120Y-87014298D01*
X141800500Y-86960924D01*
X141800500Y-86605477D01*
X141819407Y-86547286D01*
X141829490Y-86535480D01*
X142228784Y-86136185D01*
X142283299Y-86108409D01*
X142343731Y-86117980D01*
X142345431Y-86118868D01*
X142366243Y-86129992D01*
X142373761Y-86134011D01*
X142376046Y-86135232D01*
X142513997Y-86177078D01*
X142574065Y-86195300D01*
X142574070Y-86195301D01*
X142779997Y-86215583D01*
X142780000Y-86215583D01*
X142780003Y-86215583D01*
X142985929Y-86195301D01*
X142985934Y-86195300D01*
X142993368Y-86193045D01*
X143183954Y-86135232D01*
X143366450Y-86037685D01*
X143526410Y-85906410D01*
X143657685Y-85746450D01*
X143755232Y-85563954D01*
X143815300Y-85365934D01*
X143815301Y-85365929D01*
X143835583Y-85160003D01*
X143835583Y-85159996D01*
X143815301Y-84954070D01*
X143815300Y-84954065D01*
X143769286Y-84802378D01*
X143755232Y-84756046D01*
X143657685Y-84573550D01*
X143629813Y-84539588D01*
X143526414Y-84413595D01*
X143526410Y-84413590D01*
X143467695Y-84365404D01*
X143366452Y-84282316D01*
X143183954Y-84184768D01*
X142985934Y-84124699D01*
X142985929Y-84124698D01*
X142780003Y-84104417D01*
X142779997Y-84104417D01*
X142574070Y-84124698D01*
X142574065Y-84124699D01*
X142376045Y-84184768D01*
X142193547Y-84282316D01*
X142033595Y-84413585D01*
X142033585Y-84413595D01*
X141902316Y-84573547D01*
X141804768Y-84756045D01*
X141744699Y-84954065D01*
X141744698Y-84954070D01*
X141724417Y-85159996D01*
X141724417Y-85160003D01*
X141744698Y-85365929D01*
X141744699Y-85365934D01*
X141794039Y-85528586D01*
X141804768Y-85563954D01*
X141821118Y-85594543D01*
X141831874Y-85654775D01*
X141805173Y-85709826D01*
X141803812Y-85711214D01*
X141315489Y-86199539D01*
X141259539Y-86255489D01*
X141219980Y-86324007D01*
X141219978Y-86324011D01*
X141199500Y-86400435D01*
X141199500Y-87084521D01*
X141180593Y-87142712D01*
X141170504Y-87154525D01*
X141045489Y-87279540D01*
X141045488Y-87279539D01*
X140989539Y-87335489D01*
X140949980Y-87404007D01*
X140949978Y-87404011D01*
X140929500Y-87480435D01*
X140929500Y-92390918D01*
X140910593Y-92449109D01*
X140900503Y-92460922D01*
X140743548Y-92617876D01*
X140689032Y-92645653D01*
X140628600Y-92636082D01*
X140585335Y-92592817D01*
X140583492Y-92588998D01*
X140532174Y-92476629D01*
X140532173Y-92476628D01*
X140532173Y-92476627D01*
X140437924Y-92367857D01*
X140437923Y-92367856D01*
X140437922Y-92367855D01*
X140316853Y-92290049D01*
X140316850Y-92290047D01*
X140316849Y-92290047D01*
X140316846Y-92290046D01*
X140178760Y-92249500D01*
X140178757Y-92249500D01*
X140034835Y-92249500D01*
X140034831Y-92249500D01*
X139896745Y-92290046D01*
X139896738Y-92290049D01*
X139775669Y-92367855D01*
X139722544Y-92429164D01*
X139681419Y-92476627D01*
X139681418Y-92476628D01*
X139676783Y-92481978D01*
X139674995Y-92480429D01*
X139636021Y-92512303D01*
X139600097Y-92519051D01*
X139269892Y-92519051D01*
X139211701Y-92500144D01*
X139195073Y-92484882D01*
X139192557Y-92481978D01*
X139153937Y-92437408D01*
X139058456Y-92376046D01*
X139032866Y-92359600D01*
X139032863Y-92359598D01*
X139032862Y-92359598D01*
X139032859Y-92359597D01*
X138894773Y-92319051D01*
X138894770Y-92319051D01*
X138854500Y-92319051D01*
X138796309Y-92300144D01*
X138760345Y-92250644D01*
X138755500Y-92220051D01*
X138755500Y-86755565D01*
X138755097Y-86741227D01*
X138754474Y-86730149D01*
X138754474Y-86730141D01*
X138753270Y-86715870D01*
X138747504Y-86664700D01*
X138736339Y-86565608D01*
X138736336Y-86565580D01*
X138731539Y-86537341D01*
X138726608Y-86515734D01*
X138718674Y-86488195D01*
X138670572Y-86350727D01*
X138659608Y-86324256D01*
X138649992Y-86304288D01*
X138636132Y-86279210D01*
X138615121Y-86245772D01*
X138558659Y-86155912D01*
X138558652Y-86155903D01*
X138558647Y-86155894D01*
X138542070Y-86132532D01*
X138528248Y-86115199D01*
X138522007Y-86108214D01*
X138497331Y-86052228D01*
X138510277Y-85992428D01*
X138519303Y-85979439D01*
X138522788Y-85975194D01*
X138537728Y-85955051D01*
X138548510Y-85938914D01*
X138561398Y-85917411D01*
X138561410Y-85917388D01*
X138561413Y-85917384D01*
X138634422Y-85780793D01*
X138644614Y-85761725D01*
X138655334Y-85739060D01*
X138662761Y-85721130D01*
X138671209Y-85697519D01*
X138722453Y-85528586D01*
X138728545Y-85504264D01*
X138732331Y-85485230D01*
X138736010Y-85460431D01*
X138753793Y-85279887D01*
X138754715Y-85267386D01*
X138755192Y-85257682D01*
X138755500Y-85245138D01*
X138755500Y-84754861D01*
X138755192Y-84742317D01*
X138754715Y-84732613D01*
X138753793Y-84720112D01*
X138736010Y-84539568D01*
X138732331Y-84514769D01*
X138728545Y-84495735D01*
X138722453Y-84471413D01*
X138671209Y-84302480D01*
X138671204Y-84302467D01*
X138671202Y-84302459D01*
X138662761Y-84278870D01*
X138662760Y-84278868D01*
X138655342Y-84260961D01*
X138655333Y-84260939D01*
X138644618Y-84238284D01*
X138620343Y-84192867D01*
X138603173Y-84165155D01*
X138588561Y-84144624D01*
X138581043Y-84134591D01*
X138581041Y-84134589D01*
X138581040Y-84134587D01*
X138522934Y-84084963D01*
X138505236Y-84069849D01*
X138505230Y-84069845D01*
X138505225Y-84069842D01*
X138451850Y-84039952D01*
X138396359Y-84016969D01*
X138396360Y-84016969D01*
X138296735Y-84009132D01*
X138240207Y-83985719D01*
X138208236Y-83933551D01*
X138205500Y-83910437D01*
X138205500Y-83378197D01*
X138224407Y-83320006D01*
X138234490Y-83308199D01*
X138922694Y-82619996D01*
X141724417Y-82619996D01*
X141724417Y-82620003D01*
X141744698Y-82825929D01*
X141744699Y-82825934D01*
X141804768Y-83023954D01*
X141902316Y-83206452D01*
X141930499Y-83240793D01*
X142033590Y-83366410D01*
X142033595Y-83366414D01*
X142193547Y-83497683D01*
X142193548Y-83497683D01*
X142193550Y-83497685D01*
X142376046Y-83595232D01*
X142513997Y-83637078D01*
X142574065Y-83655300D01*
X142574070Y-83655301D01*
X142779997Y-83675583D01*
X142780000Y-83675583D01*
X142780003Y-83675583D01*
X142985929Y-83655301D01*
X142985934Y-83655300D01*
X143183954Y-83595232D01*
X143366450Y-83497685D01*
X143526410Y-83366410D01*
X143657685Y-83206450D01*
X143755232Y-83023954D01*
X143815300Y-82825934D01*
X143815301Y-82825929D01*
X143835583Y-82620003D01*
X143835583Y-82619996D01*
X143815301Y-82414070D01*
X143815300Y-82414065D01*
X143759462Y-82229992D01*
X143755232Y-82216046D01*
X143657685Y-82033550D01*
X143526410Y-81873590D01*
X143484920Y-81839540D01*
X143366452Y-81742316D01*
X143183954Y-81644768D01*
X142985934Y-81584699D01*
X142985929Y-81584698D01*
X142780003Y-81564417D01*
X142779997Y-81564417D01*
X142574070Y-81584698D01*
X142574065Y-81584699D01*
X142376045Y-81644768D01*
X142193547Y-81742316D01*
X142033595Y-81873585D01*
X142033585Y-81873595D01*
X141902316Y-82033547D01*
X141804768Y-82216045D01*
X141744699Y-82414065D01*
X141744698Y-82414070D01*
X141724417Y-82619996D01*
X138922694Y-82619996D01*
X139607629Y-81935061D01*
X139704394Y-81801875D01*
X139741828Y-81750352D01*
X139845480Y-81546923D01*
X139916033Y-81329784D01*
X139916034Y-81329779D01*
X139951749Y-81104284D01*
X139951749Y-80079996D01*
X141724417Y-80079996D01*
X141724417Y-80080003D01*
X141744698Y-80285929D01*
X141744699Y-80285934D01*
X141804768Y-80483954D01*
X141902316Y-80666452D01*
X141930499Y-80700793D01*
X142033590Y-80826410D01*
X142033595Y-80826414D01*
X142193547Y-80957683D01*
X142193548Y-80957683D01*
X142193550Y-80957685D01*
X142376046Y-81055232D01*
X142513997Y-81097078D01*
X142574065Y-81115300D01*
X142574070Y-81115301D01*
X142779997Y-81135583D01*
X142780000Y-81135583D01*
X142780003Y-81135583D01*
X142985929Y-81115301D01*
X142985934Y-81115300D01*
X143022259Y-81104281D01*
X143183954Y-81055232D01*
X143366450Y-80957685D01*
X143526410Y-80826410D01*
X143657685Y-80666450D01*
X143755232Y-80483954D01*
X143815300Y-80285934D01*
X143815301Y-80285929D01*
X143835583Y-80080003D01*
X143835583Y-80079996D01*
X143815301Y-79874070D01*
X143815300Y-79874065D01*
X143797078Y-79813997D01*
X143755232Y-79676046D01*
X143657685Y-79493550D01*
X143526410Y-79333590D01*
X143467695Y-79285404D01*
X143366452Y-79202316D01*
X143183954Y-79104768D01*
X142985934Y-79044699D01*
X142985929Y-79044698D01*
X142780003Y-79024417D01*
X142779997Y-79024417D01*
X142574070Y-79044698D01*
X142574065Y-79044699D01*
X142376045Y-79104768D01*
X142193547Y-79202316D01*
X142033595Y-79333585D01*
X142033585Y-79333595D01*
X141902316Y-79493547D01*
X141804768Y-79676045D01*
X141744699Y-79874065D01*
X141744698Y-79874070D01*
X141724417Y-80079996D01*
X139951749Y-80079996D01*
X139951749Y-76549500D01*
X139970656Y-76491309D01*
X140020156Y-76455345D01*
X140050749Y-76450500D01*
X142194598Y-76450500D01*
X142252789Y-76469407D01*
X142288753Y-76518907D01*
X142288753Y-76580093D01*
X142252789Y-76629593D01*
X142241272Y-76636806D01*
X142219845Y-76648259D01*
X142193547Y-76662316D01*
X142033595Y-76793585D01*
X142033585Y-76793595D01*
X141902316Y-76953547D01*
X141804768Y-77136045D01*
X141744699Y-77334065D01*
X141744698Y-77334070D01*
X141724417Y-77539996D01*
X141724417Y-77540003D01*
X141744698Y-77745929D01*
X141744699Y-77745934D01*
X141804768Y-77943954D01*
X141902316Y-78126452D01*
X142033585Y-78286404D01*
X142033590Y-78286410D01*
X142033595Y-78286414D01*
X142193547Y-78417683D01*
X142193548Y-78417683D01*
X142193550Y-78417685D01*
X142376046Y-78515232D01*
X142513997Y-78557078D01*
X142574065Y-78575300D01*
X142574070Y-78575301D01*
X142779997Y-78595583D01*
X142780000Y-78595583D01*
X142780003Y-78595583D01*
X142985929Y-78575301D01*
X142985934Y-78575300D01*
X142990183Y-78574011D01*
X143183954Y-78515232D01*
X143366450Y-78417685D01*
X143526410Y-78286410D01*
X143657685Y-78126450D01*
X143755232Y-77943954D01*
X143815300Y-77745934D01*
X143815301Y-77745929D01*
X143835583Y-77540003D01*
X143835583Y-77539996D01*
X143815301Y-77334070D01*
X143815300Y-77334065D01*
X143797078Y-77273997D01*
X143755232Y-77136046D01*
X143657685Y-76953550D01*
X143526410Y-76793590D01*
X143526404Y-76793585D01*
X143366452Y-76662316D01*
X143190198Y-76568105D01*
X143147792Y-76523999D01*
X143139409Y-76463390D01*
X143168252Y-76409430D01*
X143206271Y-76386642D01*
X143336799Y-76344231D01*
X143540228Y-76240579D01*
X143724937Y-76106379D01*
X143886379Y-75944937D01*
X144020579Y-75760228D01*
X144124231Y-75556799D01*
X144194784Y-75339660D01*
X144230500Y-75114157D01*
X144230500Y-74885843D01*
X144230500Y-74885839D01*
X144194785Y-74660344D01*
X144178538Y-74610340D01*
X144124231Y-74443201D01*
X144020579Y-74239772D01*
X143986743Y-74193201D01*
X143886383Y-74055068D01*
X143886381Y-74055066D01*
X143886379Y-74055063D01*
X143724937Y-73893621D01*
X143724933Y-73893618D01*
X143724931Y-73893616D01*
X143540233Y-73759424D01*
X143540227Y-73759420D01*
X143336799Y-73655769D01*
X143119655Y-73585214D01*
X142894160Y-73549500D01*
X142894157Y-73549500D01*
X139362402Y-73549500D01*
X139304212Y-73530593D01*
X139261480Y-73499546D01*
X139261476Y-73499544D01*
X139140119Y-73437710D01*
X139096854Y-73394445D01*
X139087283Y-73334013D01*
X139115060Y-73279496D01*
X139169577Y-73251719D01*
X139185064Y-73250500D01*
X144400500Y-73250500D01*
X144458691Y-73269407D01*
G37*
%TD.AperFunction*%
%TA.AperFunction,Conductor*%
G36*
X133773544Y-87955553D02*
G01*
X133814086Y-87960890D01*
X133839043Y-87967577D01*
X133865454Y-87978517D01*
X133913385Y-87993056D01*
X133951268Y-88000591D01*
X133951267Y-88000591D01*
X134001105Y-88005500D01*
X134001111Y-88005500D01*
X134498888Y-88005500D01*
X134498890Y-88005500D01*
X134548737Y-88000590D01*
X134586622Y-87993054D01*
X134634550Y-87978515D01*
X134660949Y-87967579D01*
X134685911Y-87960890D01*
X134737078Y-87954155D01*
X134762918Y-87954155D01*
X134780231Y-87956434D01*
X134814085Y-87960890D01*
X134839044Y-87967578D01*
X134865451Y-87978516D01*
X134913378Y-87993054D01*
X134951263Y-88000590D01*
X135001110Y-88005500D01*
X135145500Y-88005500D01*
X135203691Y-88024407D01*
X135239655Y-88073907D01*
X135244500Y-88104500D01*
X135244500Y-93975500D01*
X135225593Y-94033691D01*
X135176093Y-94069655D01*
X135145500Y-94074500D01*
X134895725Y-94074500D01*
X134865305Y-94077353D01*
X134865296Y-94077355D01*
X134737116Y-94122207D01*
X134627855Y-94202845D01*
X134627845Y-94202855D01*
X134547207Y-94312116D01*
X134502355Y-94440296D01*
X134502353Y-94440305D01*
X134499500Y-94470725D01*
X134499500Y-95529274D01*
X134502353Y-95559694D01*
X134502355Y-95559703D01*
X134547207Y-95687883D01*
X134627845Y-95797144D01*
X134627847Y-95797146D01*
X134627850Y-95797150D01*
X134627853Y-95797152D01*
X134627855Y-95797154D01*
X134737116Y-95877792D01*
X134737117Y-95877792D01*
X134737118Y-95877793D01*
X134865301Y-95922646D01*
X134895725Y-95925499D01*
X134895727Y-95925500D01*
X134895734Y-95925500D01*
X135145500Y-95925500D01*
X135203691Y-95944407D01*
X135239655Y-95993907D01*
X135244500Y-96024500D01*
X135244500Y-96975500D01*
X135225593Y-97033691D01*
X135176093Y-97069655D01*
X135145500Y-97074500D01*
X134895725Y-97074500D01*
X134865305Y-97077353D01*
X134865296Y-97077355D01*
X134737116Y-97122207D01*
X134627855Y-97202845D01*
X134627845Y-97202855D01*
X134547207Y-97312116D01*
X134502355Y-97440296D01*
X134502353Y-97440305D01*
X134499500Y-97470725D01*
X134499500Y-98529274D01*
X134502353Y-98559694D01*
X134502355Y-98559703D01*
X134547207Y-98687883D01*
X134627845Y-98797144D01*
X134627847Y-98797146D01*
X134627850Y-98797150D01*
X134627853Y-98797152D01*
X134627855Y-98797154D01*
X134737116Y-98877792D01*
X134737117Y-98877792D01*
X134737118Y-98877793D01*
X134865301Y-98922646D01*
X134895725Y-98925499D01*
X134895727Y-98925500D01*
X134895734Y-98925500D01*
X135145500Y-98925500D01*
X135203691Y-98944407D01*
X135239655Y-98993907D01*
X135244500Y-99024500D01*
X135244500Y-99405874D01*
X135225593Y-99464065D01*
X135176093Y-99500029D01*
X135173390Y-99500864D01*
X135136794Y-99511609D01*
X135128234Y-99513713D01*
X135123821Y-99514591D01*
X135123789Y-99514599D01*
X135075874Y-99529133D01*
X135073579Y-99529955D01*
X135073540Y-99529846D01*
X135067764Y-99531878D01*
X135039951Y-99540044D01*
X135039940Y-99540049D01*
X135006333Y-99561647D01*
X134999497Y-99565663D01*
X134996017Y-99567523D01*
X134996003Y-99567532D01*
X134984483Y-99575229D01*
X134972646Y-99583139D01*
X134972636Y-99583146D01*
X134967141Y-99586816D01*
X134965683Y-99587772D01*
X134918869Y-99617858D01*
X134896408Y-99643781D01*
X134891606Y-99648939D01*
X134886962Y-99653585D01*
X134881614Y-99658933D01*
X134852636Y-99694241D01*
X134850933Y-99696259D01*
X134824624Y-99726624D01*
X134824621Y-99726629D01*
X134806742Y-99765777D01*
X134804004Y-99771310D01*
X134793916Y-99790185D01*
X134793914Y-99790189D01*
X134778210Y-99828102D01*
X134776801Y-99831340D01*
X134764835Y-99857542D01*
X134764833Y-99857547D01*
X134757401Y-99909245D01*
X134756507Y-99914468D01*
X134751311Y-99940588D01*
X134747634Y-99965375D01*
X134747631Y-99965406D01*
X134745730Y-99984707D01*
X134745728Y-99984727D01*
X134745530Y-99988762D01*
X134744645Y-99997967D01*
X134744353Y-100000000D01*
X134744353Y-100007071D01*
X134744277Y-100007071D01*
X134744364Y-100008538D01*
X134744500Y-100008538D01*
X134744500Y-100741903D01*
X134744353Y-100743960D01*
X134744353Y-100756053D01*
X134744500Y-100758109D01*
X134744500Y-100995141D01*
X134744807Y-101007666D01*
X134745285Y-101017380D01*
X134746209Y-101029910D01*
X134763988Y-101210424D01*
X134763991Y-101210445D01*
X134767665Y-101235214D01*
X134767667Y-101235223D01*
X134767668Y-101235230D01*
X134767669Y-101235232D01*
X134771454Y-101254264D01*
X134774234Y-101265362D01*
X134777320Y-101277685D01*
X134777390Y-101277962D01*
X134773188Y-101339003D01*
X134771412Y-101343140D01*
X134764834Y-101357544D01*
X134744353Y-101499997D01*
X134744353Y-101500003D01*
X134763246Y-101631411D01*
X134752813Y-101691700D01*
X134708934Y-101734343D01*
X134665254Y-101744500D01*
X133354500Y-101744500D01*
X133296309Y-101725593D01*
X133260345Y-101676093D01*
X133255500Y-101645500D01*
X133255500Y-101508109D01*
X133255647Y-101506053D01*
X133255647Y-101493960D01*
X133255500Y-101491903D01*
X133255500Y-100758109D01*
X133255647Y-100756053D01*
X133255647Y-100743960D01*
X133255500Y-100741903D01*
X133255500Y-100008109D01*
X133255647Y-100006053D01*
X133255647Y-99993960D01*
X133255500Y-99991903D01*
X133255500Y-99024500D01*
X133274407Y-98966309D01*
X133323907Y-98930345D01*
X133354500Y-98925500D01*
X133604273Y-98925500D01*
X133604273Y-98925499D01*
X133634699Y-98922646D01*
X133762882Y-98877793D01*
X133872150Y-98797150D01*
X133952793Y-98687882D01*
X133997646Y-98559699D01*
X134000499Y-98529273D01*
X134000500Y-98529273D01*
X134000500Y-97470727D01*
X134000499Y-97470725D01*
X133997646Y-97440301D01*
X133952793Y-97312118D01*
X133924326Y-97273547D01*
X133872154Y-97202855D01*
X133872152Y-97202853D01*
X133872150Y-97202850D01*
X133872146Y-97202847D01*
X133872144Y-97202845D01*
X133762883Y-97122207D01*
X133634703Y-97077355D01*
X133634694Y-97077353D01*
X133604274Y-97074500D01*
X133604266Y-97074500D01*
X133354500Y-97074500D01*
X133296309Y-97055593D01*
X133260345Y-97006093D01*
X133255500Y-96975500D01*
X133255500Y-96024500D01*
X133274407Y-95966309D01*
X133323907Y-95930345D01*
X133354500Y-95925500D01*
X133604273Y-95925500D01*
X133604273Y-95925499D01*
X133634699Y-95922646D01*
X133762882Y-95877793D01*
X133872150Y-95797150D01*
X133952793Y-95687882D01*
X133997646Y-95559699D01*
X134000499Y-95529273D01*
X134000500Y-95529273D01*
X134000500Y-94470727D01*
X134000499Y-94470725D01*
X133999327Y-94458230D01*
X133997646Y-94440301D01*
X133952793Y-94312118D01*
X133945989Y-94302899D01*
X133872154Y-94202855D01*
X133872152Y-94202853D01*
X133872150Y-94202850D01*
X133872146Y-94202847D01*
X133872144Y-94202845D01*
X133762883Y-94122207D01*
X133634703Y-94077355D01*
X133634694Y-94077353D01*
X133604274Y-94074500D01*
X133604266Y-94074500D01*
X133354500Y-94074500D01*
X133296309Y-94055593D01*
X133260345Y-94006093D01*
X133255500Y-93975500D01*
X133255500Y-88104500D01*
X133274407Y-88046309D01*
X133323907Y-88010345D01*
X133354500Y-88005500D01*
X133518579Y-88005500D01*
X133518580Y-88005500D01*
X133616354Y-87986052D01*
X133660954Y-87967577D01*
X133685908Y-87960891D01*
X133732645Y-87954738D01*
X133737079Y-87954155D01*
X133762919Y-87954155D01*
X133773544Y-87955553D01*
G37*
%TD.AperFunction*%
%TA.AperFunction,Conductor*%
G36*
X127453017Y-87866586D02*
G01*
X127539947Y-87922453D01*
X127642122Y-87952454D01*
X127678035Y-87962999D01*
X127678036Y-87962999D01*
X127678039Y-87963000D01*
X127678041Y-87963000D01*
X127821959Y-87963000D01*
X127821961Y-87963000D01*
X127821962Y-87962999D01*
X127825943Y-87962427D01*
X127865658Y-87964792D01*
X127874171Y-87967073D01*
X127929276Y-87981838D01*
X128528359Y-87981838D01*
X128586550Y-88000745D01*
X128598363Y-88010834D01*
X130070504Y-89482975D01*
X130098281Y-89537492D01*
X130099500Y-89552979D01*
X130099500Y-91781678D01*
X130080593Y-91839869D01*
X130031093Y-91875833D01*
X129969907Y-91875833D01*
X129930496Y-91851682D01*
X127329496Y-89250682D01*
X127301719Y-89196165D01*
X127300500Y-89180678D01*
X127300500Y-87949874D01*
X127319407Y-87891683D01*
X127368907Y-87855719D01*
X127430093Y-87855719D01*
X127453017Y-87866586D01*
G37*
%TD.AperFunction*%
%TD*%
%TA.AperFunction,Conductor*%
%TO.N,/OUTB*%
G36*
X135209191Y-82018907D02*
G01*
X135245155Y-82068407D01*
X135250000Y-82099000D01*
X135250000Y-83404259D01*
X135231093Y-83462450D01*
X135181593Y-83498414D01*
X135178892Y-83499249D01*
X135039947Y-83540047D01*
X135039942Y-83540049D01*
X134918873Y-83617855D01*
X134824622Y-83726628D01*
X134764834Y-83857543D01*
X134744353Y-83999997D01*
X134744353Y-84000002D01*
X134764834Y-84142456D01*
X134809646Y-84240579D01*
X134824623Y-84273373D01*
X134918872Y-84382143D01*
X134918873Y-84382144D01*
X135025236Y-84450499D01*
X135039947Y-84459953D01*
X135178039Y-84500500D01*
X135178040Y-84500500D01*
X135178891Y-84500750D01*
X135229398Y-84535286D01*
X135249960Y-84592913D01*
X135250000Y-84595740D01*
X135250000Y-84953644D01*
X135248992Y-84967733D01*
X135244353Y-84999998D01*
X135244353Y-85000001D01*
X135248992Y-85032264D01*
X135250000Y-85046354D01*
X135250000Y-85151000D01*
X135231093Y-85209191D01*
X135181593Y-85245155D01*
X135151000Y-85250000D01*
X133349000Y-85250000D01*
X133290809Y-85231093D01*
X133254845Y-85181593D01*
X133250000Y-85151000D01*
X133250000Y-85046354D01*
X133251008Y-85032264D01*
X133255647Y-85000001D01*
X133255647Y-84999998D01*
X133251008Y-84967733D01*
X133250000Y-84953644D01*
X133250000Y-84595740D01*
X133268907Y-84537549D01*
X133318407Y-84501585D01*
X133321109Y-84500750D01*
X133321960Y-84500500D01*
X133321961Y-84500500D01*
X133460053Y-84459953D01*
X133581128Y-84382143D01*
X133675377Y-84273373D01*
X133735165Y-84142457D01*
X133741992Y-84094971D01*
X133755647Y-84000002D01*
X133755647Y-83999997D01*
X133735165Y-83857543D01*
X133722907Y-83830703D01*
X133675377Y-83726627D01*
X133581128Y-83617857D01*
X133581127Y-83617856D01*
X133581126Y-83617855D01*
X133460057Y-83540049D01*
X133460054Y-83540048D01*
X133460053Y-83540047D01*
X133411083Y-83525668D01*
X133321108Y-83499249D01*
X133270602Y-83464713D01*
X133250040Y-83407086D01*
X133250000Y-83404259D01*
X133250000Y-82099000D01*
X133268907Y-82040809D01*
X133318407Y-82004845D01*
X133349000Y-82000000D01*
X135151000Y-82000000D01*
X135209191Y-82018907D01*
G37*
%TD.AperFunction*%
%TD*%
%TA.AperFunction,Conductor*%
%TO.N,+BATT*%
G36*
X137305658Y-86209781D02*
G01*
X137314086Y-86210891D01*
X137339044Y-86217578D01*
X137386736Y-86237332D01*
X137408641Y-86249988D01*
X137408683Y-86249933D01*
X137409151Y-86250283D01*
X137409160Y-86250288D01*
X137409198Y-86250317D01*
X137409232Y-86250343D01*
X137409242Y-86250350D01*
X137414508Y-86254283D01*
X137418718Y-86257342D01*
X137418719Y-86257343D01*
X137496357Y-86295636D01*
X137496368Y-86295639D01*
X137496370Y-86295640D01*
X137507592Y-86298964D01*
X137555023Y-86313014D01*
X137614214Y-86323186D01*
X137712873Y-86308882D01*
X137770549Y-86288459D01*
X137840805Y-86250315D01*
X137840882Y-86250255D01*
X137841002Y-86250186D01*
X137844067Y-86248196D01*
X137844171Y-86248356D01*
X137863269Y-86237330D01*
X137910953Y-86217579D01*
X137935912Y-86210891D01*
X137987078Y-86204155D01*
X138012918Y-86204155D01*
X138108166Y-86216695D01*
X138157394Y-86218387D01*
X138195312Y-86216026D01*
X138214232Y-86213754D01*
X138274258Y-86225589D01*
X138296035Y-86242044D01*
X138328487Y-86274496D01*
X138342309Y-86291829D01*
X138419794Y-86415145D01*
X138429410Y-86435113D01*
X138477512Y-86572581D01*
X138482443Y-86594188D01*
X138499377Y-86744478D01*
X138500000Y-86755563D01*
X138500000Y-92324539D01*
X138481093Y-92382730D01*
X138461269Y-92403080D01*
X138430191Y-92426927D01*
X138430186Y-92426932D01*
X138341948Y-92541925D01*
X138341946Y-92541929D01*
X138286479Y-92675841D01*
X138286478Y-92675842D01*
X138267559Y-92819550D01*
X138267559Y-92819551D01*
X138286413Y-92962760D01*
X138275263Y-93022921D01*
X138230881Y-93065038D01*
X138226146Y-93067146D01*
X138137756Y-93103758D01*
X138137754Y-93103759D01*
X138022761Y-93191997D01*
X138022757Y-93192001D01*
X137934519Y-93306994D01*
X137934517Y-93306998D01*
X137879050Y-93440910D01*
X137879049Y-93440911D01*
X137860130Y-93584619D01*
X137860130Y-93584620D01*
X137879049Y-93728328D01*
X137879050Y-93728329D01*
X137934519Y-93862245D01*
X138022759Y-93977241D01*
X138137755Y-94065481D01*
X138271671Y-94120950D01*
X138413922Y-94139678D01*
X138469147Y-94166019D01*
X138498342Y-94219790D01*
X138500000Y-94237831D01*
X138500000Y-94748889D01*
X138492465Y-94786771D01*
X138471798Y-94836669D01*
X138463669Y-94856294D01*
X138444750Y-94999999D01*
X138444750Y-95000000D01*
X138460142Y-95116917D01*
X138463670Y-95143709D01*
X138492464Y-95213226D01*
X138500000Y-95251109D01*
X138500000Y-97898550D01*
X138481093Y-97956741D01*
X138479543Y-97958816D01*
X138469139Y-97972374D01*
X138469137Y-97972378D01*
X138413670Y-98106290D01*
X138413669Y-98106291D01*
X138394750Y-98249999D01*
X138394750Y-98250000D01*
X138413669Y-98393708D01*
X138413670Y-98393709D01*
X138469137Y-98527621D01*
X138469139Y-98527625D01*
X138500000Y-98567843D01*
X138500000Y-99000000D01*
X142995139Y-99000000D01*
X143004842Y-99000476D01*
X143185388Y-99018259D01*
X143204418Y-99022044D01*
X143373360Y-99073292D01*
X143391276Y-99080713D01*
X143546974Y-99163935D01*
X143563101Y-99174711D01*
X143658771Y-99253224D01*
X143699569Y-99286707D01*
X143713292Y-99300430D01*
X143825285Y-99436893D01*
X143836067Y-99453030D01*
X143919283Y-99608716D01*
X143926710Y-99626646D01*
X143977954Y-99795579D01*
X143981740Y-99814613D01*
X143999523Y-99995157D01*
X144000000Y-100004861D01*
X144000000Y-100995138D01*
X143999523Y-101004842D01*
X143981740Y-101185386D01*
X143977954Y-101204420D01*
X143926710Y-101373353D01*
X143919283Y-101391283D01*
X143836067Y-101546969D01*
X143825285Y-101563106D01*
X143713292Y-101699569D01*
X143699569Y-101713292D01*
X143568389Y-101820949D01*
X143511412Y-101843249D01*
X143472229Y-101837633D01*
X143471144Y-101837244D01*
X143471135Y-101837241D01*
X143447528Y-101828794D01*
X143418962Y-101820128D01*
X143278588Y-101777546D01*
X143254270Y-101771455D01*
X143235233Y-101767668D01*
X143210442Y-101763990D01*
X143210428Y-101763988D01*
X143029887Y-101746205D01*
X143017364Y-101745282D01*
X143007649Y-101744806D01*
X142995154Y-101744500D01*
X142995139Y-101744500D01*
X137751110Y-101744500D01*
X137743171Y-101745282D01*
X137701265Y-101749409D01*
X137663375Y-101756946D01*
X137615463Y-101771480D01*
X137615435Y-101771489D01*
X137589046Y-101782419D01*
X137564089Y-101789106D01*
X137512922Y-101795843D01*
X137487077Y-101795843D01*
X137435912Y-101789107D01*
X137410950Y-101782419D01*
X137384547Y-101771483D01*
X137336624Y-101756946D01*
X137298732Y-101749409D01*
X137298736Y-101749409D01*
X137256829Y-101745282D01*
X137248890Y-101744500D01*
X137001110Y-101744500D01*
X136993171Y-101745282D01*
X136951265Y-101749409D01*
X136913375Y-101756946D01*
X136865463Y-101771480D01*
X136865435Y-101771489D01*
X136839046Y-101782419D01*
X136814089Y-101789106D01*
X136762922Y-101795843D01*
X136737077Y-101795843D01*
X136685912Y-101789107D01*
X136660950Y-101782419D01*
X136634547Y-101771483D01*
X136586624Y-101756946D01*
X136548732Y-101749409D01*
X136548736Y-101749409D01*
X136506829Y-101745282D01*
X136498890Y-101744500D01*
X136251110Y-101744500D01*
X136243171Y-101745282D01*
X136201265Y-101749409D01*
X136163375Y-101756946D01*
X136115463Y-101771480D01*
X136115435Y-101771489D01*
X136089046Y-101782419D01*
X136064089Y-101789106D01*
X136012922Y-101795843D01*
X135987077Y-101795843D01*
X135935912Y-101789107D01*
X135910950Y-101782419D01*
X135884547Y-101771483D01*
X135836624Y-101756946D01*
X135798732Y-101749409D01*
X135798736Y-101749409D01*
X135756829Y-101745282D01*
X135748890Y-101744500D01*
X135501110Y-101744500D01*
X135493171Y-101745282D01*
X135451263Y-101749409D01*
X135411202Y-101757378D01*
X135350441Y-101750186D01*
X135329084Y-101736808D01*
X135300430Y-101713292D01*
X135286707Y-101699569D01*
X135253224Y-101658771D01*
X135174711Y-101563101D01*
X135163935Y-101546974D01*
X135080713Y-101391276D01*
X135073292Y-101373360D01*
X135022044Y-101204418D01*
X135018259Y-101185386D01*
X135000477Y-101004842D01*
X135000000Y-100995138D01*
X135000000Y-100009751D01*
X135001902Y-99990438D01*
X135015188Y-99923643D01*
X135029971Y-99887954D01*
X135062283Y-99839596D01*
X135089596Y-99812283D01*
X135114595Y-99795579D01*
X135137955Y-99779970D01*
X135173641Y-99765188D01*
X135250000Y-99750000D01*
X135500000Y-99750000D01*
X135500000Y-88095587D01*
X135518907Y-88037396D01*
X135568407Y-88001432D01*
X135587915Y-87997210D01*
X135684410Y-87986337D01*
X135684409Y-87986337D01*
X135684419Y-87986336D01*
X135696307Y-87984316D01*
X135712650Y-87981540D01*
X135712660Y-87981537D01*
X135712664Y-87981537D01*
X135734273Y-87976605D01*
X135761806Y-87968673D01*
X135899268Y-87920573D01*
X135925730Y-87909613D01*
X135945702Y-87899996D01*
X135970789Y-87886132D01*
X136094105Y-87808647D01*
X136117467Y-87792070D01*
X136134800Y-87778248D01*
X136156169Y-87759153D01*
X136259153Y-87656169D01*
X136278248Y-87634800D01*
X136292070Y-87617467D01*
X136308647Y-87594105D01*
X136386132Y-87470789D01*
X136399991Y-87445712D01*
X136409610Y-87425738D01*
X136420574Y-87399270D01*
X136427130Y-87380535D01*
X136427132Y-87380528D01*
X136468674Y-87261803D01*
X136476605Y-87234273D01*
X136481537Y-87212664D01*
X136481537Y-87212660D01*
X136481540Y-87212650D01*
X136486333Y-87184439D01*
X136486333Y-87184432D01*
X136486336Y-87184419D01*
X136503892Y-87028609D01*
X136503936Y-87028216D01*
X136503937Y-87028207D01*
X136505500Y-86999992D01*
X136505500Y-86604500D01*
X136524407Y-86546309D01*
X136573907Y-86510345D01*
X136604500Y-86505500D01*
X136757698Y-86505500D01*
X136757701Y-86505500D01*
X136855476Y-86486049D01*
X136855477Y-86486048D01*
X136855478Y-86486048D01*
X136883105Y-86467586D01*
X136938365Y-86430662D01*
X136983730Y-86362764D01*
X136987495Y-86357510D01*
X137031672Y-86299937D01*
X137049940Y-86281669D01*
X137090888Y-86250249D01*
X137113259Y-86237333D01*
X137160955Y-86217577D01*
X137185911Y-86210891D01*
X137237078Y-86204155D01*
X137262920Y-86204155D01*
X137305658Y-86209781D01*
G37*
%TD.AperFunction*%
%TD*%
%TA.AperFunction,Conductor*%
%TO.N,-BATT*%
G36*
X138380398Y-84292774D02*
G01*
X138395010Y-84313305D01*
X138419285Y-84358722D01*
X138426710Y-84376646D01*
X138477954Y-84545579D01*
X138481740Y-84564613D01*
X138499523Y-84745157D01*
X138500000Y-84754861D01*
X138500000Y-85245138D01*
X138499523Y-85254842D01*
X138481740Y-85435386D01*
X138477954Y-85454420D01*
X138426710Y-85623353D01*
X138419283Y-85641283D01*
X138336067Y-85796969D01*
X138325285Y-85813106D01*
X138230966Y-85928033D01*
X138179434Y-85961020D01*
X138141516Y-85963381D01*
X138000001Y-85944750D01*
X138000000Y-85944750D01*
X137856291Y-85963669D01*
X137856290Y-85963670D01*
X137722378Y-86019137D01*
X137722374Y-86019139D01*
X137685266Y-86047613D01*
X137627590Y-86068036D01*
X137568924Y-86050658D01*
X137564734Y-86047613D01*
X137527625Y-86019139D01*
X137527621Y-86019137D01*
X137393709Y-85963670D01*
X137393708Y-85963669D01*
X137250000Y-85944750D01*
X137106291Y-85963669D01*
X137106290Y-85963670D01*
X136972378Y-86019137D01*
X136972374Y-86019139D01*
X136857381Y-86107377D01*
X136857377Y-86107381D01*
X136769138Y-86222375D01*
X136757696Y-86250000D01*
X136250000Y-86250000D01*
X136250000Y-86999992D01*
X136249999Y-87000001D01*
X136232443Y-87155811D01*
X136227511Y-87177420D01*
X136185969Y-87296145D01*
X136179413Y-87314880D01*
X136169794Y-87334854D01*
X136092309Y-87458170D01*
X136078487Y-87475503D01*
X135975503Y-87578487D01*
X135958170Y-87592309D01*
X135834854Y-87669794D01*
X135814882Y-87679411D01*
X135677420Y-87727511D01*
X135655811Y-87732443D01*
X135505521Y-87749377D01*
X135494436Y-87750000D01*
X135001110Y-87750000D01*
X134963225Y-87742464D01*
X134893709Y-87713670D01*
X134893708Y-87713669D01*
X134750000Y-87694750D01*
X134606291Y-87713669D01*
X134606290Y-87713670D01*
X134536775Y-87742464D01*
X134498890Y-87750000D01*
X134001111Y-87750000D01*
X133963228Y-87742465D01*
X133893709Y-87713670D01*
X133893706Y-87713669D01*
X133893705Y-87713669D01*
X133750000Y-87694750D01*
X133606291Y-87713669D01*
X133606290Y-87713670D01*
X133518580Y-87750000D01*
X133000000Y-87750000D01*
X133000000Y-102000000D01*
X134998890Y-102000000D01*
X135036775Y-102007536D01*
X135106291Y-102036330D01*
X135250000Y-102055250D01*
X135393709Y-102036330D01*
X135463225Y-102007536D01*
X135501110Y-102000000D01*
X135748890Y-102000000D01*
X135786775Y-102007536D01*
X135856291Y-102036330D01*
X136000000Y-102055250D01*
X136143709Y-102036330D01*
X136213225Y-102007536D01*
X136251110Y-102000000D01*
X136498890Y-102000000D01*
X136536775Y-102007536D01*
X136606291Y-102036330D01*
X136750000Y-102055250D01*
X136893709Y-102036330D01*
X136963225Y-102007536D01*
X137001110Y-102000000D01*
X137248890Y-102000000D01*
X137286775Y-102007536D01*
X137356291Y-102036330D01*
X137500000Y-102055250D01*
X137643709Y-102036330D01*
X137713225Y-102007536D01*
X137751110Y-102000000D01*
X142995139Y-102000000D01*
X143004842Y-102000476D01*
X143185388Y-102018259D01*
X143204418Y-102022044D01*
X143373360Y-102073292D01*
X143391276Y-102080713D01*
X143546974Y-102163935D01*
X143563101Y-102174711D01*
X143658771Y-102253224D01*
X143699569Y-102286707D01*
X143713292Y-102300430D01*
X143825285Y-102436893D01*
X143836067Y-102453030D01*
X143919283Y-102608716D01*
X143926710Y-102626646D01*
X143977954Y-102795579D01*
X143981740Y-102814613D01*
X143999523Y-102995157D01*
X144000000Y-103004861D01*
X144000000Y-104245138D01*
X143999523Y-104254842D01*
X143981740Y-104435386D01*
X143977954Y-104454420D01*
X143926710Y-104623353D01*
X143919283Y-104641283D01*
X143889412Y-104697168D01*
X143845307Y-104739575D01*
X143802102Y-104749500D01*
X130197898Y-104749500D01*
X130139707Y-104730593D01*
X130110588Y-104697169D01*
X130080711Y-104641272D01*
X130073292Y-104623360D01*
X130022044Y-104454418D01*
X130018259Y-104435386D01*
X130000477Y-104254842D01*
X130000000Y-104245138D01*
X130000000Y-95536688D01*
X130018907Y-95478497D01*
X130028988Y-95466693D01*
X130480469Y-95015212D01*
X130526614Y-94935288D01*
X130530507Y-94920754D01*
X130530510Y-94920751D01*
X130530509Y-94920751D01*
X130550500Y-94846143D01*
X130550500Y-93655428D01*
X130569407Y-93597237D01*
X130579490Y-93585430D01*
X130680470Y-93484451D01*
X130726614Y-93404527D01*
X130739247Y-93357379D01*
X130739649Y-93355881D01*
X130750500Y-93315382D01*
X130750500Y-89341357D01*
X130739422Y-89300013D01*
X130726614Y-89252212D01*
X130725713Y-89250652D01*
X130725710Y-89250646D01*
X130725706Y-89250638D01*
X130680471Y-89172290D01*
X130680470Y-89172288D01*
X130028996Y-88520814D01*
X130001219Y-88466297D01*
X130000000Y-88450810D01*
X130000000Y-87966556D01*
X130018907Y-87908365D01*
X130028990Y-87896558D01*
X130530470Y-87395079D01*
X130576614Y-87315155D01*
X130580474Y-87300750D01*
X130581708Y-87296145D01*
X130581708Y-87296143D01*
X130600500Y-87226010D01*
X130600500Y-86167488D01*
X130600500Y-86167487D01*
X130576614Y-86078343D01*
X130555620Y-86041981D01*
X130552506Y-86036588D01*
X130530471Y-85998421D01*
X130530470Y-85998419D01*
X130100548Y-85568496D01*
X130072771Y-85513980D01*
X130072400Y-85485567D01*
X130072957Y-85481338D01*
X130054037Y-85337629D01*
X130007536Y-85225363D01*
X130000000Y-85187478D01*
X130000000Y-84754861D01*
X130000477Y-84745157D01*
X130008144Y-84667316D01*
X130018259Y-84564609D01*
X130022045Y-84545579D01*
X130029551Y-84520837D01*
X130050763Y-84450907D01*
X130085748Y-84400711D01*
X130143556Y-84380665D01*
X130202107Y-84398426D01*
X130239036Y-84447210D01*
X130244500Y-84479646D01*
X130244500Y-85151000D01*
X130247645Y-85190965D01*
X130249664Y-85203713D01*
X130252492Y-85221570D01*
X130256405Y-85241240D01*
X130298138Y-85331768D01*
X130298141Y-85331773D01*
X130334101Y-85381269D01*
X130334104Y-85381272D01*
X130334105Y-85381273D01*
X130374876Y-85425378D01*
X130461857Y-85474088D01*
X130520048Y-85492995D01*
X130520049Y-85492995D01*
X130520052Y-85492996D01*
X130598997Y-85505500D01*
X130599000Y-85505500D01*
X131512169Y-85505500D01*
X131550052Y-85513035D01*
X131606291Y-85536330D01*
X131750000Y-85555250D01*
X131893709Y-85536330D01*
X131949947Y-85513035D01*
X131987831Y-85505500D01*
X132512169Y-85505500D01*
X132550052Y-85513035D01*
X132606291Y-85536330D01*
X132750000Y-85555250D01*
X132893709Y-85536330D01*
X133027625Y-85480861D01*
X133032030Y-85477479D01*
X133050850Y-85466113D01*
X133081773Y-85451859D01*
X133081774Y-85451857D01*
X133085547Y-85450119D01*
X133146309Y-85442931D01*
X133175361Y-85453650D01*
X133211857Y-85474088D01*
X133270048Y-85492995D01*
X133270049Y-85492995D01*
X133270052Y-85492996D01*
X133348997Y-85505500D01*
X133349000Y-85505500D01*
X134012169Y-85505500D01*
X134050052Y-85513035D01*
X134106291Y-85536330D01*
X134250000Y-85555250D01*
X134393709Y-85536330D01*
X134449947Y-85513035D01*
X134487831Y-85505500D01*
X135150994Y-85505500D01*
X135151000Y-85505500D01*
X135190965Y-85502355D01*
X135221558Y-85497510D01*
X135241239Y-85493595D01*
X135331773Y-85451859D01*
X135331778Y-85451855D01*
X135335540Y-85450121D01*
X135396301Y-85442929D01*
X135425355Y-85453647D01*
X135461857Y-85474088D01*
X135461860Y-85474089D01*
X135461887Y-85474104D01*
X135470511Y-85479785D01*
X135472372Y-85480860D01*
X135501672Y-85492996D01*
X135606291Y-85536330D01*
X135750000Y-85555250D01*
X135893709Y-85536330D01*
X135949947Y-85513035D01*
X135987831Y-85505500D01*
X136262169Y-85505500D01*
X136300052Y-85513035D01*
X136356291Y-85536330D01*
X136500000Y-85555250D01*
X136643709Y-85536330D01*
X136699947Y-85513035D01*
X136737831Y-85505500D01*
X137259147Y-85505500D01*
X137259158Y-85505500D01*
X137288281Y-85503835D01*
X137310707Y-85501262D01*
X137319760Y-85500059D01*
X137413532Y-85466219D01*
X137465927Y-85434621D01*
X137527077Y-85383141D01*
X137549605Y-85357141D01*
X137563215Y-85340003D01*
X137573171Y-85326299D01*
X137574230Y-85324830D01*
X137615321Y-85234002D01*
X137629181Y-85174407D01*
X137635817Y-85114713D01*
X137615673Y-85017078D01*
X137591857Y-84960718D01*
X137549605Y-84892857D01*
X137549601Y-84892852D01*
X137547295Y-84889725D01*
X137547755Y-84889385D01*
X137535857Y-84870867D01*
X137518417Y-84832680D01*
X137510480Y-84805646D01*
X137504505Y-84764083D01*
X137504505Y-84735914D01*
X137510480Y-84694351D01*
X137518416Y-84667321D01*
X137535860Y-84629125D01*
X137551091Y-84605427D01*
X137578592Y-84573689D01*
X137599883Y-84555239D01*
X137635205Y-84532540D01*
X137660830Y-84520837D01*
X137701112Y-84509009D01*
X137729003Y-84505000D01*
X137770992Y-84505000D01*
X137798889Y-84509012D01*
X137799878Y-84509302D01*
X137801124Y-84509668D01*
X137831377Y-84513797D01*
X137876751Y-84519992D01*
X137876752Y-84519992D01*
X137876756Y-84519991D01*
X137876757Y-84519992D01*
X137918531Y-84519395D01*
X137935243Y-84519157D01*
X137949311Y-84517389D01*
X137991239Y-84512123D01*
X138081773Y-84470387D01*
X138131273Y-84434423D01*
X138175378Y-84393652D01*
X138221325Y-84311603D01*
X138266253Y-84270072D01*
X138327014Y-84262879D01*
X138380398Y-84292774D01*
G37*
%TD.AperFunction*%
%TA.AperFunction,Conductor*%
G36*
X135360653Y-83768907D02*
G01*
X135368356Y-83775115D01*
X135410243Y-83812472D01*
X135410001Y-83812742D01*
X135420232Y-83822333D01*
X135448903Y-83855422D01*
X135448907Y-83855426D01*
X135464129Y-83879106D01*
X135464937Y-83880876D01*
X135464943Y-83880903D01*
X135464949Y-83880901D01*
X135481581Y-83917321D01*
X135489519Y-83944355D01*
X135495494Y-83985906D01*
X135495494Y-84014086D01*
X135492794Y-84032865D01*
X135492793Y-84032876D01*
X135489520Y-84055639D01*
X135481581Y-84082676D01*
X135464137Y-84120872D01*
X135448903Y-84144577D01*
X135420139Y-84177772D01*
X135406331Y-84190906D01*
X135370053Y-84219294D01*
X135370039Y-84219306D01*
X135353789Y-84234654D01*
X135298501Y-84260863D01*
X135257925Y-84257669D01*
X135251188Y-84255691D01*
X135251174Y-84255687D01*
X135247091Y-84254487D01*
X135247091Y-84254488D01*
X135160833Y-84229161D01*
X135135200Y-84217455D01*
X135099882Y-84194757D01*
X135078587Y-84176304D01*
X135051095Y-84144577D01*
X135051090Y-84144571D01*
X135035860Y-84120873D01*
X135018415Y-84082675D01*
X135010480Y-84055646D01*
X135004505Y-84014083D01*
X135004505Y-83985914D01*
X135010480Y-83944351D01*
X135018416Y-83917321D01*
X135035860Y-83879125D01*
X135051088Y-83855429D01*
X135078590Y-83823690D01*
X135099886Y-83805239D01*
X135135202Y-83782543D01*
X135160831Y-83770838D01*
X135218143Y-83754010D01*
X135246034Y-83750000D01*
X135302462Y-83750000D01*
X135360653Y-83768907D01*
G37*
%TD.AperFunction*%
%TA.AperFunction,Conductor*%
G36*
X133281857Y-83754010D02*
G01*
X133339100Y-83770818D01*
X133339097Y-83770824D01*
X133364797Y-83782543D01*
X133400113Y-83805239D01*
X133421409Y-83823692D01*
X133448903Y-83855422D01*
X133464138Y-83879127D01*
X133481581Y-83917322D01*
X133489519Y-83944356D01*
X133495494Y-83985905D01*
X133495494Y-84014087D01*
X133489519Y-84055642D01*
X133481580Y-84082679D01*
X133464137Y-84120873D01*
X133448904Y-84144577D01*
X133421411Y-84176306D01*
X133400115Y-84194759D01*
X133364801Y-84217454D01*
X133339169Y-84229160D01*
X133252815Y-84254516D01*
X133252740Y-84254536D01*
X133248856Y-84255677D01*
X133248857Y-84255678D01*
X133248779Y-84255701D01*
X133248669Y-84255733D01*
X133239405Y-84258453D01*
X133178245Y-84256705D01*
X133145622Y-84237349D01*
X133089753Y-84187524D01*
X133089993Y-84187254D01*
X133079761Y-84177659D01*
X133073689Y-84170652D01*
X133051090Y-84144571D01*
X133035860Y-84120873D01*
X133018415Y-84082675D01*
X133010480Y-84055646D01*
X133004505Y-84014083D01*
X133004505Y-83985914D01*
X133010480Y-83944351D01*
X133018416Y-83917321D01*
X133035861Y-83879123D01*
X133051087Y-83855430D01*
X133079854Y-83822230D01*
X133093649Y-83809107D01*
X133129957Y-83780695D01*
X133130933Y-83779772D01*
X133133845Y-83777024D01*
X133189133Y-83750816D01*
X133201818Y-83750000D01*
X133253966Y-83750000D01*
X133281857Y-83754010D01*
G37*
%TD.AperFunction*%
%TD*%
M02*
