M48
; DRILL file {KiCad 8.0.7} date 2025-02-16T22:30:27-0600
; FORMAT={-:-/ absolute / inch / decimal}
; #@! TF.CreationDate,2025-02-16T22:30:27-06:00
; #@! TF.GenerationSoftware,Kicad,Pcbnew,8.0.7
; #@! TF.FileFunction,Plated,1,4,PTH
FMAT,2
INCH
; #@! TA.AperFunction,Plated,PTH,ViaDrill
T1C0.0118
; #@! TA.AperFunction,Plated,PTH,ComponentDrill
T2C0.0394
%
G90
G05
T1
X4.9743Y-3.3566
X4.9787Y-3.5547
X5.0295Y-3.4434
X5.0352Y-3.5194
X5.0544Y-3.7205
X5.0544Y-3.7595
X5.0689Y-2.9232
X5.0689Y-2.9528
X5.0689Y-2.9823
X5.0787Y-3.7795
X5.0846Y-3.6851
X5.0984Y-2.9232
X5.0984Y-2.9528
X5.0984Y-2.9823
X5.0984Y-3.4284
X5.0991Y-3.3654
X5.1083Y-3.6614
X5.128Y-2.9232
X5.128Y-2.9528
X5.128Y-2.9823
X5.1378Y-3.937
X5.1378Y-3.9665
X5.1378Y-3.9961
X5.1575Y-3.2579
X5.1575Y-3.2874
X5.1673Y-3.937
X5.1673Y-3.9665
X5.1673Y-3.9961
X5.187Y-3.2579
X5.187Y-3.2874
X5.187Y-3.3169
X5.187Y-3.3465
X5.1969Y-3.937
X5.1969Y-3.9665
X5.1969Y-3.9961
X5.2264Y-3.3465
X5.2264Y-3.937
X5.2264Y-3.9665
X5.2264Y-3.9961
X5.2461Y-3.3071
X5.2559Y-2.9232
X5.2559Y-2.9528
X5.2559Y-2.9823
X5.2657Y-3.248
X5.2657Y-3.4744
X5.2657Y-3.5236
X5.2657Y-3.5728
X5.2657Y-3.7894
X5.2756Y-3.6909
X5.2854Y-2.9232
X5.2854Y-2.9528
X5.2854Y-2.9823
X5.2854Y-3.2185
X5.2854Y-3.2776
X5.2854Y-3.3169
X5.2854Y-3.3465
X5.2854Y-3.8189
X5.3051Y-3.248
X5.3051Y-3.4744
X5.3051Y-3.5236
X5.3051Y-3.5728
X5.3051Y-3.7894
X5.315Y-2.9232
X5.315Y-2.9528
X5.315Y-2.9823
X5.3248Y-3.3071
X5.3248Y-3.937
X5.3248Y-3.9665
X5.3248Y-3.9961
X5.3445Y-3.3465
X5.3543Y-3.937
X5.3543Y-3.9665
X5.3543Y-3.9961
X5.374Y-3.2579
X5.374Y-3.2874
X5.374Y-3.3169
X5.374Y-3.3465
X5.3839Y-3.937
X5.3839Y-3.9665
X5.3839Y-3.9961
X5.4035Y-3.2579
X5.4035Y-3.2874
X5.4035Y-3.4055
X5.4134Y-3.937
X5.4134Y-3.9665
X5.4134Y-3.9961
X5.4232Y-2.9232
X5.4232Y-2.9528
X5.4232Y-2.9823
X5.4232Y-3.3366
X5.4232Y-3.3661
X5.4331Y-3.4055
X5.4494Y-3.6844
X5.4528Y-2.9232
X5.4528Y-2.9528
X5.4528Y-2.9823
X5.4655Y-3.6543
X5.4705Y-3.8681
X5.4724Y-3.7402
X5.4823Y-2.9232
X5.4823Y-2.9528
X5.4823Y-2.9823
X5.4921Y-3.7146
X5.516Y-3.6516
T2
X4.9213Y-2.9528
X4.9213Y-3.0528
X4.9213Y-3.1528
X4.9213Y-3.2528
X4.9213Y-3.3528
X4.9213Y-3.4528
X4.9213Y-3.5528
X4.9213Y-3.6528
X4.9213Y-3.7528
X4.9213Y-3.8528
X4.9213Y-3.9528
X4.9213Y-4.0528
X5.6213Y-2.9528
X5.6213Y-3.0528
X5.6213Y-3.1528
X5.6213Y-3.2528
X5.6213Y-3.3528
X5.6213Y-3.4528
X5.6213Y-3.5528
X5.6213Y-3.6528
X5.6213Y-3.7528
X5.6213Y-3.8528
X5.6213Y-3.9528
X5.6213Y-4.0528
M30
