%TF.GenerationSoftware,KiCad,Pcbnew,8.0.7*%
%TF.CreationDate,2025-02-16T22:30:25-06:00*%
%TF.ProjectId,MotorDriver,4d6f746f-7244-4726-9976-65722e6b6963,rev?*%
%TF.SameCoordinates,Original*%
%TF.FileFunction,Copper,L1,Top*%
%TF.FilePolarity,Positive*%
%FSLAX46Y46*%
G04 Gerber Fmt 4.6, Leading zero omitted, Abs format (unit mm)*
G04 Created by KiCad (PCBNEW 8.0.7) date 2025-02-16 22:30:25*
%MOMM*%
%LPD*%
G01*
G04 APERTURE LIST*
G04 Aperture macros list*
%AMRoundRect*
0 Rectangle with rounded corners*
0 $1 Rounding radius*
0 $2 $3 $4 $5 $6 $7 $8 $9 X,Y pos of 4 corners*
0 Add a 4 corners polygon primitive as box body*
4,1,4,$2,$3,$4,$5,$6,$7,$8,$9,$2,$3,0*
0 Add four circle primitives for the rounded corners*
1,1,$1+$1,$2,$3*
1,1,$1+$1,$4,$5*
1,1,$1+$1,$6,$7*
1,1,$1+$1,$8,$9*
0 Add four rect primitives between the rounded corners*
20,1,$1+$1,$2,$3,$4,$5,0*
20,1,$1+$1,$4,$5,$6,$7,0*
20,1,$1+$1,$6,$7,$8,$9,0*
20,1,$1+$1,$8,$9,$2,$3,0*%
G04 Aperture macros list end*
%TA.AperFunction,SMDPad,CuDef*%
%ADD10R,0.906066X0.242473*%
%TD*%
%TA.AperFunction,SMDPad,CuDef*%
%ADD11R,0.242473X0.906066*%
%TD*%
%TA.AperFunction,SMDPad,CuDef*%
%ADD12R,0.242472X0.906064*%
%TD*%
%TA.AperFunction,SMDPad,CuDef*%
%ADD13R,3.600000X5.600000*%
%TD*%
%TA.AperFunction,SMDPad,CuDef*%
%ADD14RoundRect,0.250000X-0.475000X0.337500X-0.475000X-0.337500X0.475000X-0.337500X0.475000X0.337500X0*%
%TD*%
%TA.AperFunction,SMDPad,CuDef*%
%ADD15RoundRect,0.300000X1.200000X1.200000X-1.200000X1.200000X-1.200000X-1.200000X1.200000X-1.200000X0*%
%TD*%
%TA.AperFunction,SMDPad,CuDef*%
%ADD16RoundRect,0.250000X-0.350000X-0.450000X0.350000X-0.450000X0.350000X0.450000X-0.350000X0.450000X0*%
%TD*%
%TA.AperFunction,SMDPad,CuDef*%
%ADD17RoundRect,0.250000X0.475000X-0.337500X0.475000X0.337500X-0.475000X0.337500X-0.475000X-0.337500X0*%
%TD*%
%TA.AperFunction,SMDPad,CuDef*%
%ADD18RoundRect,0.250000X-0.337500X-0.475000X0.337500X-0.475000X0.337500X0.475000X-0.337500X0.475000X0*%
%TD*%
%TA.AperFunction,SMDPad,CuDef*%
%ADD19RoundRect,0.218750X-0.218750X-0.256250X0.218750X-0.256250X0.218750X0.256250X-0.218750X0.256250X0*%
%TD*%
%TA.AperFunction,SMDPad,CuDef*%
%ADD20RoundRect,0.300000X-1.200000X-1.200000X1.200000X-1.200000X1.200000X1.200000X-1.200000X1.200000X0*%
%TD*%
%TA.AperFunction,ComponentPad*%
%ADD21R,1.700000X1.700000*%
%TD*%
%TA.AperFunction,ComponentPad*%
%ADD22O,1.700000X1.700000*%
%TD*%
%TA.AperFunction,ViaPad*%
%ADD23C,0.600000*%
%TD*%
%TA.AperFunction,Conductor*%
%ADD24C,0.200000*%
%TD*%
%TA.AperFunction,Conductor*%
%ADD25C,0.300000*%
%TD*%
%TA.AperFunction,Conductor*%
%ADD26C,2.500000*%
%TD*%
G04 APERTURE END LIST*
D10*
%TO.P,U1,1,NC*%
%TO.N,unconnected-(U1-NC-Pad1)*%
X136753034Y-91250000D03*
%TO.P,U1,2,AGND*%
%TO.N,GND*%
X136753034Y-90750001D03*
%TO.P,U1,3,FB_BK*%
%TO.N,/Buck_Out*%
X136753034Y-90249999D03*
%TO.P,U1,4,GND_BK*%
%TO.N,GND*%
X136753034Y-89750000D03*
%TO.P,U1,5,SW_BK*%
%TO.N,Net-(U1-SW_BK)*%
X136753034Y-89250001D03*
%TO.P,U1,6,CPL*%
%TO.N,Net-(U1-CPL)*%
X136753034Y-88750000D03*
%TO.P,U1,7,CPH*%
%TO.N,Net-(U1-CPH)*%
X136753034Y-88250000D03*
%TO.P,U1,8,CP*%
%TO.N,Net-(U1-CP)*%
X136753034Y-87749999D03*
%TO.P,U1,9,VM*%
%TO.N,+BATT*%
X136753034Y-87250000D03*
%TO.P,U1,10,VM*%
X136753034Y-86750001D03*
%TO.P,U1,11,VM*%
X136753034Y-86249999D03*
%TO.P,U1,12,PGND*%
%TO.N,-BATT*%
X136753034Y-85750000D03*
D11*
%TO.P,U1,13,OUTA*%
%TO.N,/OUTA*%
X136000000Y-84996967D03*
%TO.P,U1,14,OUTA*%
X135500001Y-84996967D03*
%TO.P,U1,15,PGND*%
%TO.N,-BATT*%
X135000002Y-84996967D03*
%TO.P,U1,16,OUTB*%
%TO.N,/OUTB*%
X134500001Y-84996967D03*
%TO.P,U1,17,OUTB*%
X134000001Y-84996967D03*
%TO.P,U1,18,PGND*%
%TO.N,-BATT*%
X133500000Y-84996967D03*
%TO.P,U1,19,OUTC*%
%TO.N,/OUTC*%
X133000001Y-84996967D03*
%TO.P,U1,20,OUTC*%
X132500002Y-84996967D03*
D10*
%TO.P,U1,21,DRVOFF*%
%TO.N,Net-(J2-Pin_6)*%
X131746968Y-85750000D03*
%TO.P,U1,22,FAULT_N*%
%TO.N,Net-(U1-FAULT_N)*%
X131746968Y-86249999D03*
%TO.P,U1,23,SLEEP_N*%
%TO.N,Net-(J2-Pin_1)*%
X131746968Y-86750001D03*
%TO.P,U1,24,NC*%
%TO.N,unconnected-(U1-NC-Pad24)*%
X131746968Y-87250000D03*
%TO.P,U1,25,AVDD*%
%TO.N,+3.3V*%
X131746968Y-87749999D03*
%TO.P,U1,26,AGND*%
%TO.N,GND*%
X131746968Y-88250000D03*
%TO.P,U1,27,INHA*%
%TO.N,/INHA*%
X131746968Y-88750000D03*
%TO.P,U1,28,INLA*%
%TO.N,/INLA*%
X131746968Y-89250001D03*
%TO.P,U1,29,INHB*%
%TO.N,/INHB*%
X131746968Y-89750000D03*
%TO.P,U1,30,INLB*%
%TO.N,/INLB*%
X131746968Y-90249999D03*
%TO.P,U1,31,INHC*%
%TO.N,/INHC*%
X131746968Y-90750001D03*
%TO.P,U1,32,INLC*%
%TO.N,/INLC*%
X131746968Y-91250000D03*
D11*
%TO.P,U1,33,SDO*%
%TO.N,Net-(J2-Pin_3)*%
X132500002Y-92003033D03*
%TO.P,U1,34,SDI*%
%TO.N,Net-(J2-Pin_4)*%
X133000001Y-92003033D03*
%TO.P,U1,35,SCLK*%
%TO.N,Net-(J2-Pin_5)*%
X133500000Y-92003033D03*
%TO.P,U1,36,SCS_N*%
%TO.N,Net-(J2-Pin_2)*%
X134000001Y-92003033D03*
%TO.P,U1,37,VREF_ILIM*%
%TO.N,Net-(U1-VREF_ILIM)*%
X134500001Y-92003033D03*
%TO.P,U1,38,SOC*%
%TO.N,Net-(J4-Pin_7)*%
X135000002Y-92003033D03*
%TO.P,U1,39,SOB*%
%TO.N,Net-(J4-Pin_6)*%
X135500001Y-92003033D03*
D12*
%TO.P,U1,40,SOA*%
%TO.N,Net-(J4-Pin_5)*%
X136000000Y-92003032D03*
D13*
%TO.P,U1,41,Thermal_Pad*%
%TO.N,GND*%
X134250001Y-88500000D03*
%TD*%
D14*
%TO.P,C3,1*%
%TO.N,Net-(U1-VREF_ILIM)*%
X136000000Y-94712500D03*
%TO.P,C3,2*%
%TO.N,GND*%
X136000000Y-96787500D03*
%TD*%
D15*
%TO.P,J3,1,Pin_1*%
%TO.N,/OUTA*%
X138500000Y-74750000D03*
%TO.P,J3,2,Pin_2*%
%TO.N,/OUTB*%
X134000000Y-74750000D03*
%TO.P,J3,3,Pin_3*%
%TO.N,/OUTC*%
X129500000Y-74750000D03*
%TD*%
D16*
%TO.P,R1,1*%
%TO.N,Net-(U1-FAULT_N)*%
X127517707Y-85481338D03*
%TO.P,R1,2*%
%TO.N,+3.3V*%
X129517707Y-85481338D03*
%TD*%
D17*
%TO.P,C5,1*%
%TO.N,Net-(U1-CPL)*%
X140000000Y-91537500D03*
%TO.P,C5,2*%
%TO.N,Net-(U1-CPH)*%
X140000000Y-89462500D03*
%TD*%
D14*
%TO.P,C6,1*%
%TO.N,+3.3V*%
X127750000Y-87462500D03*
%TO.P,C6,2*%
%TO.N,GND*%
X127750000Y-89537500D03*
%TD*%
D18*
%TO.P,C7,1*%
%TO.N,GND*%
X137962500Y-98250000D03*
%TO.P,C7,2*%
%TO.N,/Buck_Out*%
X140037500Y-98250000D03*
%TD*%
D19*
%TO.P,L1,1,1*%
%TO.N,Net-(U1-SW_BK)*%
X139212500Y-96000000D03*
%TO.P,L1,2,2*%
%TO.N,/Buck_Out*%
X140787500Y-96000000D03*
%TD*%
D20*
%TO.P,J1,1,Pin_1*%
%TO.N,-BATT*%
X131500000Y-101500000D03*
%TO.P,J1,2,Pin_2*%
%TO.N,+BATT*%
X136500000Y-101500000D03*
%TD*%
D14*
%TO.P,C4,1*%
%TO.N,+BATT*%
X140000000Y-85462500D03*
%TO.P,C4,2*%
%TO.N,Net-(U1-CP)*%
X140000000Y-87537500D03*
%TD*%
D21*
%TO.P,J2,1,Pin_1*%
%TO.N,Net-(J2-Pin_1)*%
X125000000Y-75000000D03*
D22*
%TO.P,J2,2,Pin_2*%
%TO.N,Net-(J2-Pin_2)*%
X125000000Y-77540000D03*
%TO.P,J2,3,Pin_3*%
%TO.N,Net-(J2-Pin_3)*%
X125000000Y-80080000D03*
%TO.P,J2,4,Pin_4*%
%TO.N,Net-(J2-Pin_4)*%
X125000000Y-82620000D03*
%TO.P,J2,5,Pin_5*%
%TO.N,Net-(J2-Pin_5)*%
X125000000Y-85160000D03*
%TO.P,J2,6,Pin_6*%
%TO.N,Net-(J2-Pin_6)*%
X125000000Y-87700000D03*
%TO.P,J2,7,Pin_7*%
%TO.N,/INHA*%
X125000000Y-90240000D03*
%TO.P,J2,8,Pin_8*%
%TO.N,/INLA*%
X125000000Y-92780000D03*
%TO.P,J2,9,Pin_9*%
%TO.N,/INHB*%
X125000000Y-95320000D03*
%TO.P,J2,10,Pin_10*%
%TO.N,/INLB*%
X125000000Y-97860000D03*
%TO.P,J2,11,Pin_11*%
%TO.N,/INHC*%
X125000000Y-100400000D03*
%TO.P,J2,12,Pin_12*%
%TO.N,/INLC*%
X125000000Y-102940000D03*
%TD*%
D21*
%TO.P,J4,1,Pin_1*%
%TO.N,/OUTA*%
X142780000Y-75000000D03*
D22*
%TO.P,J4,2,Pin_2*%
%TO.N,/OUTB*%
X142780000Y-77540000D03*
%TO.P,J4,3,Pin_3*%
%TO.N,/OUTC*%
X142780000Y-80080000D03*
%TO.P,J4,4,Pin_4*%
%TO.N,unconnected-(J4-Pin_4-Pad4)*%
X142780000Y-82620000D03*
%TO.P,J4,5,Pin_5*%
%TO.N,Net-(J4-Pin_5)*%
X142780000Y-85160000D03*
%TO.P,J4,6,Pin_6*%
%TO.N,Net-(J4-Pin_6)*%
X142780000Y-87700000D03*
%TO.P,J4,7,Pin_7*%
%TO.N,Net-(J4-Pin_7)*%
X142780000Y-90240000D03*
%TO.P,J4,8,Pin_8*%
%TO.N,/Buck_Out*%
X142780000Y-92780000D03*
%TO.P,J4,9,Pin_9*%
%TO.N,+3.3V*%
X142780000Y-95320000D03*
%TO.P,J4,10,Pin_10*%
%TO.N,GND*%
X142780000Y-97860000D03*
%TO.P,J4,11,Pin_11*%
%TO.N,+BATT*%
X142780000Y-100400000D03*
%TO.P,J4,12,Pin_12*%
%TO.N,-BATT*%
X142780000Y-102940000D03*
%TD*%
D23*
%TO.N,/OUTA*%
X138500000Y-74250000D03*
X139250000Y-74250000D03*
X137750000Y-75000000D03*
X137750000Y-74250000D03*
X139250000Y-75000000D03*
X138500000Y-75000000D03*
X138500000Y-75750000D03*
X137750000Y-75750000D03*
X139250000Y-75750000D03*
%TO.N,/OUTB*%
X134250000Y-75750000D03*
X134250000Y-74250000D03*
X133500000Y-75000000D03*
X135000000Y-75000000D03*
X133500000Y-75750000D03*
X135000000Y-75750000D03*
X135000000Y-74250000D03*
X134250000Y-75000000D03*
X133500000Y-74250000D03*
%TO.N,/OUTC*%
X130250000Y-75750000D03*
X129500000Y-75750000D03*
X128750000Y-75750000D03*
X130250000Y-74250000D03*
X130250000Y-75000000D03*
X128750000Y-75000000D03*
X129500000Y-75000000D03*
X128750000Y-74250000D03*
X129500000Y-74250000D03*
%TO.N,/OUTA*%
X137250000Y-82750000D03*
X136500000Y-82750000D03*
%TO.N,/OUTC*%
X131750000Y-82750000D03*
X131000000Y-82750000D03*
X131000000Y-83500000D03*
%TO.N,/OUTA*%
X137250000Y-83500000D03*
X136500000Y-83500000D03*
%TO.N,/OUTC*%
X131750000Y-83500000D03*
%TO.N,Net-(J2-Pin_4)*%
X126346517Y-85256949D03*
%TO.N,Net-(J2-Pin_5)*%
X126459443Y-90290525D03*
%TO.N,GND*%
X127894936Y-89392563D03*
%TO.N,+BATT*%
X138000000Y-86500000D03*
X137250000Y-86500000D03*
%TO.N,-BATT*%
X137750000Y-84750000D03*
X137750000Y-85500000D03*
%TO.N,/OUTA*%
X136500000Y-84250000D03*
X136500000Y-85000000D03*
X135750000Y-85000000D03*
%TO.N,/OUTB*%
X134250000Y-81750000D03*
X134250000Y-83250000D03*
X134750000Y-82500000D03*
X133750000Y-82500000D03*
%TO.N,-BATT*%
X133250000Y-84000000D03*
X135250000Y-84000000D03*
%TO.N,/OUTB*%
X134250000Y-85000000D03*
X134250000Y-84250000D03*
%TO.N,/OUTC*%
X131750000Y-84250000D03*
X131750000Y-85000000D03*
X132750000Y-85000000D03*
%TO.N,GND*%
X133750000Y-90750000D03*
X134750000Y-90750000D03*
X134750000Y-89500000D03*
X133750000Y-89500000D03*
X134750000Y-88250000D03*
X133750000Y-88250000D03*
%TO.N,Net-(J4-Pin_7)*%
X139000000Y-95000000D03*
%TO.N,Net-(J4-Pin_6)*%
X139500000Y-94350000D03*
%TO.N,Net-(J4-Pin_5)*%
X138415380Y-93584620D03*
%TO.N,/Buck_Out*%
X138822809Y-92819551D03*
X140106796Y-92750000D03*
%TO.N,Net-(J2-Pin_3)*%
X129750000Y-93000000D03*
%TO.N,Net-(J2-Pin_4)*%
X129148957Y-93601043D03*
%TO.N,Net-(J2-Pin_5)*%
X128382843Y-94500000D03*
%TO.N,+3.3V*%
X129000000Y-96000000D03*
%TO.N,GND*%
X138950000Y-98250000D03*
X134000000Y-93750000D03*
X134250000Y-97000000D03*
X134750000Y-96250000D03*
X133750000Y-96250000D03*
%TO.N,+BATT*%
X135250000Y-100000000D03*
X136000000Y-100000000D03*
X137500000Y-100750000D03*
X137500000Y-101500000D03*
X137500000Y-100000000D03*
X136750000Y-101500000D03*
X135250000Y-101500000D03*
X136000000Y-101500000D03*
X136750000Y-100000000D03*
X135250000Y-100750000D03*
X136750000Y-100750000D03*
X136000000Y-100750000D03*
%TO.N,-BATT*%
X132750000Y-101500000D03*
X130500000Y-101500000D03*
X132000000Y-101500000D03*
X131250000Y-101500000D03*
X130500000Y-100750000D03*
X131250000Y-100750000D03*
X132750000Y-100750000D03*
X132000000Y-100750000D03*
X132750000Y-100000000D03*
X132000000Y-100000000D03*
X131250000Y-100000000D03*
%TO.N,+3.3V*%
X129517707Y-85481338D03*
X127750000Y-87462500D03*
%TO.N,Net-(J2-Pin_1)*%
X129500000Y-87081338D03*
%TO.N,-BATT*%
X130500000Y-100000000D03*
%TO.N,Net-(J2-Pin_2)*%
X128382843Y-95490965D03*
%TD*%
D24*
%TO.N,GND*%
X138950000Y-98250000D02*
X137962500Y-98250000D01*
%TO.N,Net-(J2-Pin_4)*%
X126346517Y-85256949D02*
X126346517Y-83966517D01*
X126346517Y-83966517D02*
X125000000Y-82620000D01*
X126250000Y-85353466D02*
X126346517Y-85256949D01*
%TO.N,Net-(J2-Pin_5)*%
X126459443Y-86619443D02*
X126459443Y-90290525D01*
X125000000Y-85160000D02*
X126459443Y-86619443D01*
D25*
%TO.N,+BATT*%
X138000000Y-86500000D02*
X138250000Y-86250000D01*
%TO.N,/OUTA*%
X135500001Y-84996967D02*
X136000000Y-84996967D01*
%TO.N,/OUTC*%
X133000001Y-84996967D02*
X132500002Y-84996967D01*
%TO.N,/OUTB*%
X134500001Y-84996967D02*
X134000001Y-84996967D01*
%TO.N,+BATT*%
X136753034Y-87250000D02*
X136753034Y-86249999D01*
D24*
%TO.N,GND*%
X133750000Y-88250000D02*
X134000001Y-88250000D01*
%TO.N,Net-(J4-Pin_7)*%
X137547918Y-94202082D02*
X138047918Y-94702082D01*
X138047918Y-94702082D02*
X138345836Y-95000000D01*
X138345836Y-95000000D02*
X139000000Y-95000000D01*
%TO.N,Net-(U1-SW_BK)*%
X138250000Y-90072697D02*
X137427304Y-89250001D01*
X138250000Y-91384744D02*
X138250000Y-90072697D01*
X139212500Y-96000000D02*
X140150000Y-95062500D01*
X139456796Y-92591540D02*
X138250000Y-91384744D01*
X139456796Y-93387557D02*
X139456796Y-92591540D01*
%TO.N,Net-(J4-Pin_6)*%
X137705760Y-93794240D02*
X138261520Y-94350000D01*
%TO.N,Net-(U1-SW_BK)*%
X137427304Y-89250001D02*
X136753034Y-89250001D01*
X140150000Y-94080761D02*
X139456796Y-93387557D01*
%TO.N,Net-(J4-Pin_6)*%
X138261520Y-94350000D02*
X139500000Y-94350000D01*
%TO.N,Net-(U1-SW_BK)*%
X140150000Y-95062500D02*
X140150000Y-94080761D01*
%TO.N,Net-(J4-Pin_7)*%
X137170835Y-93825000D02*
X137547918Y-94202082D01*
%TO.N,Net-(J4-Pin_6)*%
X137336521Y-93425000D02*
X137705760Y-93794240D01*
X135500001Y-92611616D02*
X136313385Y-93425000D01*
%TO.N,/Buck_Out*%
X138569551Y-92819551D02*
X138822809Y-92819551D01*
X140136796Y-92780000D02*
X140106796Y-92750000D01*
%TO.N,Net-(J4-Pin_7)*%
X135000002Y-92003033D02*
X135000002Y-92677303D01*
%TO.N,Net-(J4-Pin_6)*%
X136313385Y-93425000D02*
X137336521Y-93425000D01*
%TO.N,Net-(J4-Pin_7)*%
X136147699Y-93825000D02*
X137170835Y-93825000D01*
%TO.N,/Buck_Out*%
X142780000Y-92780000D02*
X140136796Y-92780000D01*
X137850000Y-90672698D02*
X137850000Y-92100000D01*
X137427301Y-90249999D02*
X137850000Y-90672698D01*
X137850000Y-92100000D02*
X138569551Y-92819551D01*
%TO.N,Net-(J4-Pin_7)*%
X135000002Y-92677303D02*
X136147699Y-93825000D01*
%TO.N,Net-(J4-Pin_5)*%
X136833794Y-92003033D02*
X138165380Y-93334620D01*
%TO.N,/Buck_Out*%
X136753034Y-90249999D02*
X137427301Y-90249999D01*
%TO.N,Net-(J4-Pin_6)*%
X135500001Y-92003033D02*
X135500001Y-92611616D01*
%TO.N,Net-(J4-Pin_5)*%
X138415380Y-93584620D02*
X138580761Y-93750000D01*
X138165380Y-93334620D02*
X138415380Y-93584620D01*
X136000000Y-92003033D02*
X136833794Y-92003033D01*
%TO.N,Net-(J2-Pin_2)*%
X134000001Y-92742988D02*
X134000001Y-92003033D01*
X128382843Y-95490965D02*
X128382843Y-95367157D01*
X132242989Y-94500000D02*
X134000001Y-92742988D01*
%TO.N,Net-(J2-Pin_5)*%
X129418196Y-94251043D02*
X129668196Y-94001043D01*
X128879718Y-94251043D02*
X129418196Y-94251043D01*
X133500000Y-92677303D02*
X133500000Y-92003033D01*
X128630761Y-94500000D02*
X128879718Y-94251043D01*
%TO.N,Net-(J2-Pin_2)*%
X129583882Y-94651043D02*
X129734925Y-94500000D01*
%TO.N,Net-(J2-Pin_4)*%
X133000001Y-92003033D02*
X133000001Y-92611616D01*
X132010574Y-93601043D02*
X129148957Y-93601043D01*
%TO.N,Net-(J2-Pin_2)*%
X129098957Y-94651043D02*
X129583882Y-94651043D01*
%TO.N,Net-(J2-Pin_5)*%
X129668196Y-94001043D02*
X132176260Y-94001043D01*
X128382843Y-94500000D02*
X128630761Y-94500000D01*
%TO.N,Net-(J2-Pin_2)*%
X128382843Y-95367157D02*
X129098957Y-94651043D01*
X129734925Y-94500000D02*
X132242989Y-94500000D01*
%TO.N,Net-(J2-Pin_4)*%
X133000001Y-92611616D02*
X132010574Y-93601043D01*
%TO.N,Net-(J2-Pin_5)*%
X132176260Y-94001043D02*
X133500000Y-92677303D01*
%TO.N,/INLC*%
X127782843Y-94047918D02*
X130580761Y-91250000D01*
X127782843Y-100157157D02*
X127782843Y-94047918D01*
X130580761Y-91250000D02*
X131746968Y-91250000D01*
X125000000Y-102940000D02*
X127782843Y-100157157D01*
%TO.N,+3.3V*%
X140609744Y-99275000D02*
X132275000Y-99275000D01*
X142780000Y-95320000D02*
X142780000Y-96073185D01*
X140925000Y-97928185D02*
X140925000Y-98959744D01*
X140925000Y-98959744D02*
X140609744Y-99275000D01*
X132275000Y-99275000D02*
X129000000Y-96000000D01*
X142780000Y-96073185D02*
X140925000Y-97928185D01*
X129000000Y-96000000D02*
X129125000Y-96125000D01*
%TO.N,GND*%
X131750000Y-88250000D02*
X133750000Y-88250000D01*
X136750000Y-89750000D02*
X135500001Y-89750000D01*
%TO.N,Net-(J2-Pin_1)*%
X130741361Y-87081338D02*
X131072698Y-86750001D01*
X129500000Y-87081338D02*
X130741361Y-87081338D01*
X131072698Y-86750001D02*
X131746968Y-86750001D01*
D25*
%TO.N,+BATT*%
X139212500Y-86250000D02*
X140000000Y-85462500D01*
X139212500Y-86250000D02*
X138250000Y-86250000D01*
D24*
%TO.N,Net-(U1-VREF_ILIM)*%
X134500001Y-93212501D02*
X136000000Y-94712500D01*
X134500001Y-92003033D02*
X134500001Y-93212501D01*
%TO.N,GND*%
X131746968Y-88250000D02*
X131750000Y-88250000D01*
X136753034Y-89750000D02*
X136750000Y-89750000D01*
X136078767Y-90750001D02*
X134250001Y-88921235D01*
X135500001Y-89750000D02*
X134250001Y-88500000D01*
X136753034Y-90750001D02*
X136078767Y-90750001D01*
D25*
%TO.N,Net-(U1-CP)*%
X139787501Y-87749999D02*
X136753034Y-87749999D01*
X140000000Y-87537500D02*
X139787501Y-87749999D01*
%TO.N,Net-(U1-CPL)*%
X138750000Y-89000000D02*
X138500000Y-88750000D01*
X138500000Y-88750000D02*
X136753034Y-88750000D01*
X138750000Y-90287500D02*
X138750000Y-89000000D01*
X140000000Y-91537500D02*
X138750000Y-90287500D01*
%TO.N,Net-(U1-CPH)*%
X138787500Y-88250000D02*
X136753034Y-88250000D01*
X140000000Y-89462500D02*
X138787500Y-88250000D01*
D24*
%TO.N,+3.3V*%
X127517707Y-87230207D02*
X127750000Y-87462500D01*
X127750000Y-87462500D02*
X128037499Y-87749999D01*
X128037499Y-87749999D02*
X131746968Y-87749999D01*
%TO.N,/Buck_Out*%
X140787500Y-97500000D02*
X140037500Y-98250000D01*
X140787500Y-94772500D02*
X140787500Y-96000000D01*
X142780000Y-92780000D02*
X140787500Y-94772500D01*
X140787500Y-96000000D02*
X140787500Y-97500000D01*
%TO.N,Net-(J2-Pin_3)*%
X132045931Y-93000000D02*
X129750000Y-93000000D01*
X132045931Y-93000000D02*
X132500002Y-92545929D01*
X132500002Y-92545929D02*
X132500002Y-92003033D01*
%TO.N,/INHC*%
X127250000Y-93250000D02*
X127800000Y-92700000D01*
X128000000Y-92700000D02*
X128250000Y-92700000D01*
X127087843Y-96337843D02*
X127250000Y-96175686D01*
X128562743Y-92700000D02*
X130512742Y-90750001D01*
X130512742Y-90750001D02*
X131746968Y-90750001D01*
X126150000Y-97275686D02*
X127087843Y-96337843D01*
X126150000Y-99250000D02*
X126150000Y-97383654D01*
X127250000Y-96175686D02*
X127250000Y-93250000D01*
X125000000Y-100400000D02*
X126150000Y-99250000D01*
X127800000Y-92700000D02*
X128000000Y-92700000D01*
X128250000Y-92700000D02*
X128562743Y-92700000D01*
X126150000Y-97383654D02*
X126150000Y-97275686D01*
%TO.N,/INHA*%
X125850000Y-91090000D02*
X127910000Y-91090000D01*
X127910000Y-91090000D02*
X130250000Y-88750000D01*
X130250000Y-88750000D02*
X131746968Y-88750000D01*
X125000000Y-90240000D02*
X125850000Y-91090000D01*
%TO.N,Net-(J2-Pin_6)*%
X127950000Y-79642032D02*
X127950000Y-82284829D01*
X131415171Y-85750000D02*
X131746968Y-85750000D01*
X124000000Y-73500000D02*
X125800000Y-73500000D01*
X127450000Y-79142032D02*
X127950000Y-79642032D01*
X125000000Y-87700000D02*
X123850000Y-86550000D01*
X123850000Y-86550000D02*
X123850000Y-73650000D01*
X127450000Y-75150000D02*
X127450000Y-79142032D01*
X127950000Y-82284829D02*
X131415171Y-85750000D01*
X123850000Y-73650000D02*
X124000000Y-73500000D01*
X125800000Y-73500000D02*
X127450000Y-75150000D01*
%TO.N,/INLA*%
X126250000Y-91500000D02*
X128065685Y-91500000D01*
X128075686Y-91490000D02*
X129750000Y-89815685D01*
X128075685Y-91490000D02*
X128075686Y-91490000D01*
X130315684Y-89250001D02*
X131746968Y-89250001D01*
X126250000Y-91530000D02*
X126250000Y-91500000D01*
X125000000Y-92780000D02*
X126250000Y-91530000D01*
X129750000Y-89815685D02*
X130315684Y-89250001D01*
X128065685Y-91500000D02*
X128075685Y-91490000D01*
%TO.N,/INLB*%
X127450000Y-92300000D02*
X128397057Y-92300000D01*
X126750000Y-93000000D02*
X127450000Y-92300000D01*
X125000000Y-97860000D02*
X126750000Y-96110000D01*
X130447058Y-90249999D02*
X131746968Y-90249999D01*
X128397057Y-92300000D02*
X130447058Y-90249999D01*
X126750000Y-96110000D02*
X126750000Y-93000000D01*
%TO.N,/INHB*%
X130381371Y-89750000D02*
X131746968Y-89750000D01*
X128231371Y-91900000D02*
X130381371Y-89750000D01*
X126250000Y-92900000D02*
X127250000Y-91900000D01*
X126250000Y-94070000D02*
X126250000Y-92900000D01*
X125000000Y-95320000D02*
X126250000Y-94070000D01*
X127250000Y-91900000D02*
X128231371Y-91900000D01*
D26*
%TO.N,/OUTA*%
X138500000Y-74750000D02*
X138500000Y-81000000D01*
X138500000Y-81000000D02*
X136900000Y-82600000D01*
X142780000Y-75000000D02*
X138750000Y-75000000D01*
X138750000Y-75000000D02*
X138500000Y-74750000D01*
%TO.N,/OUTC*%
X129500000Y-74750000D02*
X129500000Y-81000000D01*
X129500000Y-81000000D02*
X131500000Y-83000000D01*
%TO.N,/OUTB*%
X134000000Y-74750000D02*
X134200000Y-74950000D01*
X134200000Y-74950000D02*
X134200000Y-82500000D01*
D24*
%TO.N,Net-(U1-FAULT_N)*%
X127917707Y-85481338D02*
X127917707Y-85315653D01*
X127917707Y-85315653D02*
X127800549Y-85198495D01*
X130333790Y-86249999D02*
X130102451Y-86481338D01*
X128917707Y-86481338D02*
X127917707Y-85481338D01*
X131746968Y-86249999D02*
X130333790Y-86249999D01*
X130102451Y-86481338D02*
X128917707Y-86481338D01*
%TD*%
%TA.AperFunction,Conductor*%
%TO.N,/OUTC*%
G36*
X132708691Y-82018907D02*
G01*
X132744655Y-82068407D01*
X132749500Y-82099000D01*
X132749500Y-82614160D01*
X132785214Y-82839655D01*
X132855769Y-83056799D01*
X132959422Y-83260230D01*
X132981092Y-83290055D01*
X133000000Y-83348245D01*
X133000000Y-83511660D01*
X132981093Y-83569851D01*
X132954525Y-83594943D01*
X132918873Y-83617855D01*
X132824622Y-83726628D01*
X132764834Y-83857543D01*
X132744353Y-83999997D01*
X132744353Y-84000002D01*
X132764834Y-84142456D01*
X132773591Y-84161630D01*
X132824623Y-84273373D01*
X132918872Y-84382143D01*
X132954523Y-84405054D01*
X132993254Y-84452419D01*
X133000000Y-84488338D01*
X133000000Y-85151000D01*
X132981093Y-85209191D01*
X132931593Y-85245155D01*
X132901000Y-85250000D01*
X131381150Y-85250000D01*
X131322959Y-85231093D01*
X131311146Y-85221004D01*
X130528996Y-84438854D01*
X130501219Y-84384337D01*
X130500000Y-84368850D01*
X130500000Y-82099000D01*
X130518907Y-82040809D01*
X130568407Y-82004845D01*
X130599000Y-82000000D01*
X132650500Y-82000000D01*
X132708691Y-82018907D01*
G37*
%TD.AperFunction*%
%TD*%
%TA.AperFunction,Conductor*%
%TO.N,/OUTA*%
G36*
X137959191Y-81768907D02*
G01*
X137995155Y-81818407D01*
X138000000Y-81849000D01*
X138000000Y-84169528D01*
X137981093Y-84227719D01*
X137931593Y-84263683D01*
X137873109Y-84264518D01*
X137821964Y-84249500D01*
X137821961Y-84249500D01*
X137678039Y-84249500D01*
X137678035Y-84249500D01*
X137539949Y-84290046D01*
X137539942Y-84290049D01*
X137418873Y-84367855D01*
X137324622Y-84476628D01*
X137264834Y-84607543D01*
X137244353Y-84749997D01*
X137244353Y-84750002D01*
X137264834Y-84892456D01*
X137324622Y-85023371D01*
X137324623Y-85023373D01*
X137346977Y-85049171D01*
X137356507Y-85060170D01*
X137380323Y-85116530D01*
X137366463Y-85176125D01*
X137356507Y-85189829D01*
X137333979Y-85215829D01*
X137281584Y-85247427D01*
X137259158Y-85250000D01*
X135599000Y-85250000D01*
X135540809Y-85231093D01*
X135504845Y-85181593D01*
X135500000Y-85151000D01*
X135500000Y-84488338D01*
X135518907Y-84430147D01*
X135545475Y-84405055D01*
X135581128Y-84382143D01*
X135675377Y-84273373D01*
X135735165Y-84142457D01*
X135755647Y-84000000D01*
X135735165Y-83857543D01*
X135675377Y-83726627D01*
X135581128Y-83617857D01*
X135581127Y-83617856D01*
X135581126Y-83617855D01*
X135545475Y-83594943D01*
X135506745Y-83547576D01*
X135500000Y-83511660D01*
X135500000Y-83167375D01*
X135510790Y-83122431D01*
X135517371Y-83109512D01*
X135544231Y-83056799D01*
X135614784Y-82839660D01*
X135650500Y-82614157D01*
X135650500Y-81849000D01*
X135669407Y-81790809D01*
X135718907Y-81754845D01*
X135749500Y-81750000D01*
X137901000Y-81750000D01*
X137959191Y-81768907D01*
G37*
%TD.AperFunction*%
%TD*%
%TA.AperFunction,Conductor*%
%TO.N,-BATT*%
G36*
X138331826Y-83951854D02*
G01*
X138344762Y-83969297D01*
X138420442Y-84110886D01*
X138425994Y-84124288D01*
X138478669Y-84297935D01*
X138481499Y-84312162D01*
X138482643Y-84323778D01*
X138497626Y-84475901D01*
X138499644Y-84496384D01*
X138500000Y-84503638D01*
X138500000Y-84996361D01*
X138499644Y-85003615D01*
X138481499Y-85187837D01*
X138478669Y-85202064D01*
X138425994Y-85375711D01*
X138420442Y-85389113D01*
X138334906Y-85549140D01*
X138326847Y-85561202D01*
X138211730Y-85701472D01*
X138201472Y-85711730D01*
X138061202Y-85826847D01*
X138049140Y-85834906D01*
X137889113Y-85920442D01*
X137875711Y-85925994D01*
X137702064Y-85978669D01*
X137687837Y-85981499D01*
X137526407Y-85997399D01*
X137503613Y-85999644D01*
X137496361Y-86000000D01*
X137396697Y-86000000D01*
X137355584Y-85987528D01*
X137350619Y-85984210D01*
X137327326Y-85968646D01*
X137284299Y-85939895D01*
X137284300Y-85939895D01*
X137255056Y-85934078D01*
X137225815Y-85928262D01*
X137225813Y-85928262D01*
X136914816Y-85928262D01*
X136893189Y-85923960D01*
X136893007Y-85924640D01*
X136799180Y-85899499D01*
X136799178Y-85899499D01*
X136706890Y-85899499D01*
X136706888Y-85899499D01*
X136613061Y-85924640D01*
X136612878Y-85923960D01*
X136591252Y-85928262D01*
X136324501Y-85928262D01*
X136272175Y-85906588D01*
X136250501Y-85854262D01*
X136250501Y-85680253D01*
X136246535Y-85660316D01*
X136257584Y-85604767D01*
X136265005Y-85595724D01*
X136265787Y-85594553D01*
X136265789Y-85594552D01*
X136296133Y-85549140D01*
X136314154Y-85522171D01*
X136317410Y-85524346D01*
X136347687Y-85494019D01*
X136396911Y-85491360D01*
X136417881Y-85497517D01*
X136428038Y-85500500D01*
X136428039Y-85500500D01*
X136571963Y-85500500D01*
X136571964Y-85500499D01*
X136575367Y-85499500D01*
X136710053Y-85459953D01*
X136710053Y-85459952D01*
X136715008Y-85458498D01*
X136735856Y-85455500D01*
X137259168Y-85455500D01*
X137270870Y-85454830D01*
X137282582Y-85454161D01*
X137305008Y-85451588D01*
X137387710Y-85423403D01*
X137440105Y-85391805D01*
X137489289Y-85350399D01*
X137511817Y-85324399D01*
X137522763Y-85310615D01*
X137532719Y-85296911D01*
X137566621Y-85222676D01*
X137580481Y-85163081D01*
X137585576Y-85126593D01*
X137569616Y-85036541D01*
X137545800Y-84980181D01*
X137511818Y-84925602D01*
X137506240Y-84919165D01*
X137494861Y-84901458D01*
X137468454Y-84843636D01*
X137462522Y-84823432D01*
X137453478Y-84760523D01*
X137453478Y-84739474D01*
X137462522Y-84676562D01*
X137468453Y-84656363D01*
X137494859Y-84598541D01*
X137506242Y-84580831D01*
X137547864Y-84532796D01*
X137563777Y-84519007D01*
X137617242Y-84484648D01*
X137636392Y-84475902D01*
X137684788Y-84461693D01*
X137697376Y-84457997D01*
X137718223Y-84455000D01*
X137781779Y-84455000D01*
X137802625Y-84457997D01*
X137815211Y-84461693D01*
X137876043Y-84469997D01*
X137910274Y-84469508D01*
X137934503Y-84469163D01*
X137934513Y-84469162D01*
X137934527Y-84469162D01*
X137968287Y-84465880D01*
X138052383Y-84429936D01*
X138101883Y-84393972D01*
X138129628Y-84369731D01*
X138176536Y-84291221D01*
X138195443Y-84233030D01*
X138205500Y-84169528D01*
X138205500Y-84004180D01*
X138227174Y-83951854D01*
X138279500Y-83930180D01*
X138331826Y-83951854D01*
G37*
%TD.AperFunction*%
%TA.AperFunction,Conductor*%
G36*
X133417471Y-83756959D02*
G01*
X133436220Y-83769008D01*
X133452137Y-83782800D01*
X133493755Y-83830831D01*
X133505139Y-83848545D01*
X133531541Y-83906354D01*
X133537475Y-83926562D01*
X133539235Y-83938802D01*
X133546520Y-83989466D01*
X133546520Y-84010527D01*
X133541998Y-84041981D01*
X133541998Y-84041983D01*
X133537476Y-84073431D01*
X133531542Y-84093639D01*
X133500486Y-84161642D01*
X133494498Y-84176206D01*
X133489267Y-84190467D01*
X133489265Y-84190475D01*
X133476850Y-84269317D01*
X133479251Y-84330457D01*
X133483991Y-84366988D01*
X133523209Y-84449610D01*
X133523211Y-84449613D01*
X133561086Y-84497659D01*
X133561088Y-84497660D01*
X133592468Y-84526668D01*
X133616180Y-84578103D01*
X133616237Y-84581008D01*
X133616237Y-85151000D01*
X133618766Y-85183140D01*
X133623616Y-85213762D01*
X133624383Y-85218279D01*
X133624387Y-85218292D01*
X133660327Y-85302380D01*
X133664130Y-85307614D01*
X133678264Y-85351112D01*
X133678264Y-85425500D01*
X133656590Y-85477826D01*
X133604264Y-85499500D01*
X133395738Y-85499500D01*
X133343412Y-85477826D01*
X133321738Y-85425500D01*
X133321738Y-85158748D01*
X133326040Y-85137122D01*
X133325360Y-85136940D01*
X133350500Y-85043113D01*
X133350501Y-85043113D01*
X133350501Y-84950821D01*
X133350500Y-84950820D01*
X133339864Y-84911127D01*
X133326615Y-84861679D01*
X133325360Y-84856995D01*
X133326038Y-84856813D01*
X133321738Y-84835185D01*
X133321738Y-84524187D01*
X133320707Y-84519004D01*
X133310105Y-84465703D01*
X133302953Y-84455000D01*
X133272114Y-84408847D01*
X133265790Y-84399382D01*
X133244229Y-84384975D01*
X133199469Y-84355066D01*
X133192737Y-84352278D01*
X133193429Y-84350606D01*
X133155404Y-84325196D01*
X133154970Y-84325551D01*
X133153807Y-84324128D01*
X133153282Y-84323778D01*
X133152637Y-84322796D01*
X133152342Y-84322340D01*
X133152339Y-84322333D01*
X133113608Y-84274968D01*
X133081745Y-84246553D01*
X133057119Y-84195551D01*
X133060183Y-84169851D01*
X133074006Y-84124282D01*
X133079552Y-84110895D01*
X133165096Y-83950854D01*
X133173148Y-83938802D01*
X133288275Y-83798519D01*
X133298519Y-83788275D01*
X133330523Y-83762010D01*
X133384720Y-83745569D01*
X133417471Y-83756959D01*
G37*
%TD.AperFunction*%
%TA.AperFunction,Conductor*%
G36*
X135364443Y-83698187D02*
G01*
X135386382Y-83725018D01*
X135386388Y-83725025D01*
X135427857Y-83762010D01*
X135434372Y-83767820D01*
X135436215Y-83769004D01*
X135436218Y-83769006D01*
X135452136Y-83782799D01*
X135493752Y-83830826D01*
X135505140Y-83848546D01*
X135531542Y-83906359D01*
X135537476Y-83926568D01*
X135546519Y-83989468D01*
X135546519Y-84010530D01*
X135537476Y-84073430D01*
X135531542Y-84093639D01*
X135505140Y-84151452D01*
X135493752Y-84169172D01*
X135452137Y-84217197D01*
X135436241Y-84230976D01*
X135434379Y-84232173D01*
X135404377Y-84255651D01*
X135377800Y-84280751D01*
X135370371Y-84288134D01*
X135370370Y-84288136D01*
X135351261Y-84320118D01*
X135305816Y-84353920D01*
X135302177Y-84354740D01*
X135300533Y-84355067D01*
X135234213Y-84399381D01*
X135234211Y-84399383D01*
X135189897Y-84465701D01*
X135178264Y-84524187D01*
X135178264Y-84835185D01*
X135173963Y-84856813D01*
X135174642Y-84856995D01*
X135149501Y-84950820D01*
X135149501Y-85043113D01*
X135174642Y-85136940D01*
X135173961Y-85137122D01*
X135178264Y-85158748D01*
X135178264Y-85425500D01*
X135156590Y-85477826D01*
X135104264Y-85499500D01*
X134895738Y-85499500D01*
X134843412Y-85477826D01*
X134821738Y-85425500D01*
X134821738Y-85348453D01*
X134832213Y-85310498D01*
X134854801Y-85272693D01*
X134871052Y-85222676D01*
X134873708Y-85214502D01*
X134883765Y-85151000D01*
X134883765Y-84584280D01*
X134905439Y-84531954D01*
X134912048Y-84526090D01*
X134916412Y-84522663D01*
X134968403Y-84462113D01*
X134998490Y-84408836D01*
X135013657Y-84375263D01*
X135023713Y-84284362D01*
X135016739Y-84223576D01*
X134999507Y-84161630D01*
X134968454Y-84093635D01*
X134962523Y-84073434D01*
X134955776Y-84026510D01*
X134953479Y-84010526D01*
X134953479Y-83989466D01*
X134953479Y-83989464D01*
X134962523Y-83926562D01*
X134968455Y-83906359D01*
X134994859Y-83848541D01*
X135006242Y-83830831D01*
X135047864Y-83782796D01*
X135063780Y-83769006D01*
X135117241Y-83734649D01*
X135136391Y-83725904D01*
X135236788Y-83696425D01*
X135239587Y-83695581D01*
X135242288Y-83694746D01*
X135274034Y-83678855D01*
X135330527Y-83674816D01*
X135364443Y-83698187D01*
G37*
%TD.AperFunction*%
%TD*%
%TA.AperFunction,Conductor*%
%TO.N,GND*%
G36*
X123643712Y-73269407D02*
G01*
X123679676Y-73318907D01*
X123679676Y-73380093D01*
X123655525Y-73419503D01*
X123609539Y-73465489D01*
X123569980Y-73534007D01*
X123569978Y-73534011D01*
X123549500Y-73610435D01*
X123549500Y-86589564D01*
X123569977Y-86665985D01*
X123569979Y-86665990D01*
X123595641Y-86710438D01*
X123609538Y-86734509D01*
X123609540Y-86734511D01*
X124023812Y-87148784D01*
X124051589Y-87203300D01*
X124042018Y-87263732D01*
X124041120Y-87265453D01*
X124024769Y-87296044D01*
X124024766Y-87296052D01*
X123964699Y-87494065D01*
X123964698Y-87494070D01*
X123944417Y-87699996D01*
X123944417Y-87700003D01*
X123964698Y-87905929D01*
X123964699Y-87905934D01*
X124024768Y-88103954D01*
X124122316Y-88286452D01*
X124152018Y-88322644D01*
X124253590Y-88446410D01*
X124253595Y-88446414D01*
X124413547Y-88577683D01*
X124413548Y-88577683D01*
X124413550Y-88577685D01*
X124596046Y-88675232D01*
X124733997Y-88717078D01*
X124794065Y-88735300D01*
X124794070Y-88735301D01*
X124999997Y-88755583D01*
X125000000Y-88755583D01*
X125000003Y-88755583D01*
X125205929Y-88735301D01*
X125205934Y-88735300D01*
X125249096Y-88722207D01*
X125403954Y-88675232D01*
X125586450Y-88577685D01*
X125746410Y-88446410D01*
X125877685Y-88286450D01*
X125972633Y-88108815D01*
X126016739Y-88066410D01*
X126077347Y-88058027D01*
X126131308Y-88086870D01*
X126158009Y-88141921D01*
X126158943Y-88155485D01*
X126158943Y-89784514D01*
X126140036Y-89842705D01*
X126090536Y-89878669D01*
X126029350Y-89878669D01*
X125979850Y-89842705D01*
X125972633Y-89831183D01*
X125877683Y-89653547D01*
X125764626Y-89515786D01*
X125746410Y-89493590D01*
X125746404Y-89493585D01*
X125586452Y-89362316D01*
X125403954Y-89264768D01*
X125205934Y-89204699D01*
X125205929Y-89204698D01*
X125000003Y-89184417D01*
X124999997Y-89184417D01*
X124794070Y-89204698D01*
X124794065Y-89204699D01*
X124596045Y-89264768D01*
X124413547Y-89362316D01*
X124253595Y-89493585D01*
X124253585Y-89493595D01*
X124122316Y-89653547D01*
X124024768Y-89836045D01*
X123964699Y-90034065D01*
X123964698Y-90034070D01*
X123944417Y-90239996D01*
X123944417Y-90240003D01*
X123964698Y-90445929D01*
X123964699Y-90445934D01*
X124024768Y-90643954D01*
X124122316Y-90826452D01*
X124230667Y-90958478D01*
X124253590Y-90986410D01*
X124253595Y-90986414D01*
X124413547Y-91117683D01*
X124413548Y-91117683D01*
X124413550Y-91117685D01*
X124596046Y-91215232D01*
X124733997Y-91257078D01*
X124794065Y-91275300D01*
X124794070Y-91275301D01*
X124999997Y-91295583D01*
X125000000Y-91295583D01*
X125000003Y-91295583D01*
X125205929Y-91275301D01*
X125205934Y-91275300D01*
X125403954Y-91215232D01*
X125434542Y-91198881D01*
X125494775Y-91188124D01*
X125549826Y-91214825D01*
X125551215Y-91216187D01*
X125665488Y-91330459D01*
X125665493Y-91330463D01*
X125734008Y-91370020D01*
X125734009Y-91370020D01*
X125734012Y-91370022D01*
X125766335Y-91378682D01*
X125817649Y-91412005D01*
X125839576Y-91469127D01*
X125823741Y-91528227D01*
X125810715Y-91544313D01*
X125551215Y-91803812D01*
X125496699Y-91831589D01*
X125436267Y-91822018D01*
X125434544Y-91821118D01*
X125403959Y-91804770D01*
X125403954Y-91804768D01*
X125205934Y-91744699D01*
X125205929Y-91744698D01*
X125000003Y-91724417D01*
X124999997Y-91724417D01*
X124794070Y-91744698D01*
X124794065Y-91744699D01*
X124596045Y-91804768D01*
X124413547Y-91902316D01*
X124253595Y-92033585D01*
X124253585Y-92033595D01*
X124122316Y-92193547D01*
X124024768Y-92376045D01*
X123964699Y-92574065D01*
X123964698Y-92574070D01*
X123944417Y-92779996D01*
X123944417Y-92780003D01*
X123964698Y-92985929D01*
X123964699Y-92985934D01*
X124024768Y-93183954D01*
X124122316Y-93366452D01*
X124234825Y-93503545D01*
X124253590Y-93526410D01*
X124253595Y-93526414D01*
X124413547Y-93657683D01*
X124413548Y-93657683D01*
X124413550Y-93657685D01*
X124596046Y-93755232D01*
X124733997Y-93797078D01*
X124794065Y-93815300D01*
X124794070Y-93815301D01*
X124999997Y-93835583D01*
X125000000Y-93835583D01*
X125000003Y-93835583D01*
X125205929Y-93815301D01*
X125205934Y-93815300D01*
X125403954Y-93755232D01*
X125586450Y-93657685D01*
X125746410Y-93526410D01*
X125765175Y-93503545D01*
X125773972Y-93492826D01*
X125825503Y-93459838D01*
X125886582Y-93463439D01*
X125933879Y-93502255D01*
X125949500Y-93555630D01*
X125949500Y-93904521D01*
X125930593Y-93962712D01*
X125920503Y-93974525D01*
X125551215Y-94343812D01*
X125496699Y-94371589D01*
X125436267Y-94362018D01*
X125434544Y-94361118D01*
X125403959Y-94344770D01*
X125403954Y-94344768D01*
X125205934Y-94284699D01*
X125205929Y-94284698D01*
X125000003Y-94264417D01*
X124999997Y-94264417D01*
X124794070Y-94284698D01*
X124794065Y-94284699D01*
X124596045Y-94344768D01*
X124413547Y-94442316D01*
X124253595Y-94573585D01*
X124253585Y-94573595D01*
X124122316Y-94733547D01*
X124024768Y-94916045D01*
X123964699Y-95114065D01*
X123964698Y-95114070D01*
X123944417Y-95319996D01*
X123944417Y-95320003D01*
X123964698Y-95525929D01*
X123964699Y-95525934D01*
X124024768Y-95723954D01*
X124122316Y-95906452D01*
X124216716Y-96021479D01*
X124253590Y-96066410D01*
X124253595Y-96066414D01*
X124413547Y-96197683D01*
X124413548Y-96197683D01*
X124413550Y-96197685D01*
X124596046Y-96295232D01*
X124733997Y-96337078D01*
X124794065Y-96355300D01*
X124794070Y-96355301D01*
X124999997Y-96375583D01*
X125000000Y-96375583D01*
X125000003Y-96375583D01*
X125205929Y-96355301D01*
X125205934Y-96355300D01*
X125205937Y-96355299D01*
X125403954Y-96295232D01*
X125586450Y-96197685D01*
X125746410Y-96066410D01*
X125877685Y-95906450D01*
X125975232Y-95723954D01*
X126035300Y-95525934D01*
X126035301Y-95525929D01*
X126055583Y-95320003D01*
X126055583Y-95319996D01*
X126035301Y-95114070D01*
X126035300Y-95114065D01*
X125999328Y-94995482D01*
X125975232Y-94916046D01*
X125958880Y-94885455D01*
X125948125Y-94825223D01*
X125974826Y-94770172D01*
X125976187Y-94768783D01*
X126171385Y-94573585D01*
X126280497Y-94464473D01*
X126335013Y-94436697D01*
X126395445Y-94446268D01*
X126438710Y-94489533D01*
X126449500Y-94534478D01*
X126449500Y-95944520D01*
X126430593Y-96002711D01*
X126420504Y-96014524D01*
X125551215Y-96883812D01*
X125496698Y-96911589D01*
X125436266Y-96902018D01*
X125434583Y-96901139D01*
X125403954Y-96884768D01*
X125205934Y-96824699D01*
X125205929Y-96824698D01*
X125000003Y-96804417D01*
X124999997Y-96804417D01*
X124794070Y-96824698D01*
X124794065Y-96824699D01*
X124596045Y-96884768D01*
X124413547Y-96982316D01*
X124253595Y-97113585D01*
X124253585Y-97113595D01*
X124122316Y-97273547D01*
X124024768Y-97456045D01*
X123964699Y-97654065D01*
X123964698Y-97654070D01*
X123944417Y-97859996D01*
X123944417Y-97860003D01*
X123964698Y-98065929D01*
X123964699Y-98065934D01*
X124024768Y-98263954D01*
X124122316Y-98446452D01*
X124150499Y-98480793D01*
X124253590Y-98606410D01*
X124253595Y-98606414D01*
X124413547Y-98737683D01*
X124413548Y-98737683D01*
X124413550Y-98737685D01*
X124596046Y-98835232D01*
X124733997Y-98877078D01*
X124794065Y-98895300D01*
X124794070Y-98895301D01*
X124999997Y-98915583D01*
X125000000Y-98915583D01*
X125000003Y-98915583D01*
X125205929Y-98895301D01*
X125205934Y-98895300D01*
X125403954Y-98835232D01*
X125586450Y-98737685D01*
X125687697Y-98654594D01*
X125744671Y-98632295D01*
X125803874Y-98647743D01*
X125842690Y-98695040D01*
X125849500Y-98731123D01*
X125849500Y-99084521D01*
X125830593Y-99142712D01*
X125820503Y-99154525D01*
X125551215Y-99423812D01*
X125496699Y-99451589D01*
X125436267Y-99442018D01*
X125434544Y-99441118D01*
X125403959Y-99424770D01*
X125403954Y-99424768D01*
X125205934Y-99364699D01*
X125205929Y-99364698D01*
X125000003Y-99344417D01*
X124999997Y-99344417D01*
X124794070Y-99364698D01*
X124794065Y-99364699D01*
X124596045Y-99424768D01*
X124413547Y-99522316D01*
X124253595Y-99653585D01*
X124253585Y-99653595D01*
X124122316Y-99813547D01*
X124024768Y-99996045D01*
X123964699Y-100194065D01*
X123964698Y-100194070D01*
X123944417Y-100399996D01*
X123944417Y-100400003D01*
X123964698Y-100605929D01*
X123964699Y-100605934D01*
X124024768Y-100803954D01*
X124122316Y-100986452D01*
X124253585Y-101146404D01*
X124253590Y-101146410D01*
X124253595Y-101146414D01*
X124413547Y-101277683D01*
X124413548Y-101277683D01*
X124413550Y-101277685D01*
X124596046Y-101375232D01*
X124733997Y-101417078D01*
X124794065Y-101435300D01*
X124794070Y-101435301D01*
X124999997Y-101455583D01*
X125000000Y-101455583D01*
X125000003Y-101455583D01*
X125205929Y-101435301D01*
X125205934Y-101435300D01*
X125403954Y-101375232D01*
X125586450Y-101277685D01*
X125746410Y-101146410D01*
X125877685Y-100986450D01*
X125975232Y-100803954D01*
X126035300Y-100605934D01*
X126035301Y-100605929D01*
X126055583Y-100400003D01*
X126055583Y-100399996D01*
X126035301Y-100194070D01*
X126035300Y-100194065D01*
X125993925Y-100057669D01*
X125975232Y-99996046D01*
X125958880Y-99965455D01*
X125948123Y-99905223D01*
X125974824Y-99850171D01*
X125976128Y-99848841D01*
X126390460Y-99434511D01*
X126396637Y-99423812D01*
X126430020Y-99365992D01*
X126430020Y-99365990D01*
X126430022Y-99365988D01*
X126450500Y-99289562D01*
X126450500Y-99210438D01*
X126450500Y-97441165D01*
X126469407Y-97382974D01*
X126479496Y-97371161D01*
X127313339Y-96537318D01*
X127367856Y-96509541D01*
X127428288Y-96519112D01*
X127471553Y-96562377D01*
X127482343Y-96607322D01*
X127482343Y-99991677D01*
X127463436Y-100049868D01*
X127453347Y-100061681D01*
X125551215Y-101963812D01*
X125496698Y-101991589D01*
X125436266Y-101982018D01*
X125434583Y-101981139D01*
X125403954Y-101964768D01*
X125205934Y-101904699D01*
X125205929Y-101904698D01*
X125000003Y-101884417D01*
X124999997Y-101884417D01*
X124794070Y-101904698D01*
X124794065Y-101904699D01*
X124596045Y-101964768D01*
X124413547Y-102062316D01*
X124253595Y-102193585D01*
X124253585Y-102193595D01*
X124122316Y-102353547D01*
X124024768Y-102536045D01*
X123964699Y-102734065D01*
X123964698Y-102734070D01*
X123944417Y-102939996D01*
X123944417Y-102940003D01*
X123964698Y-103145929D01*
X123964699Y-103145934D01*
X124024768Y-103343954D01*
X124122316Y-103526452D01*
X124253585Y-103686404D01*
X124253590Y-103686410D01*
X124253595Y-103686414D01*
X124413547Y-103817683D01*
X124413548Y-103817683D01*
X124413550Y-103817685D01*
X124596046Y-103915232D01*
X124733997Y-103957078D01*
X124794065Y-103975300D01*
X124794070Y-103975301D01*
X124999997Y-103995583D01*
X125000000Y-103995583D01*
X125000003Y-103995583D01*
X125205929Y-103975301D01*
X125205934Y-103975300D01*
X125403954Y-103915232D01*
X125586450Y-103817685D01*
X125746410Y-103686410D01*
X125877685Y-103526450D01*
X125975232Y-103343954D01*
X126035300Y-103145934D01*
X126035301Y-103145929D01*
X126055583Y-102940003D01*
X126055583Y-102939996D01*
X126035301Y-102734070D01*
X126035300Y-102734065D01*
X126017078Y-102673997D01*
X125975232Y-102536046D01*
X125975229Y-102536040D01*
X125958881Y-102505454D01*
X125948125Y-102445221D01*
X125974827Y-102390170D01*
X125976137Y-102388832D01*
X128023303Y-100341668D01*
X128031165Y-100328050D01*
X128062864Y-100273146D01*
X128083343Y-100196719D01*
X128083343Y-96056902D01*
X128102250Y-95998711D01*
X128151750Y-95962747D01*
X128210232Y-95961912D01*
X128310882Y-95991465D01*
X128310884Y-95991465D01*
X128407342Y-95991465D01*
X128465533Y-96010372D01*
X128501497Y-96059872D01*
X128505334Y-96076377D01*
X128514834Y-96142455D01*
X128539557Y-96196589D01*
X128574623Y-96273373D01*
X128649218Y-96359461D01*
X128668873Y-96382144D01*
X128789942Y-96459950D01*
X128789947Y-96459953D01*
X128896403Y-96491211D01*
X128928035Y-96500499D01*
X128928036Y-96500499D01*
X128928039Y-96500500D01*
X128928041Y-96500500D01*
X129034521Y-96500500D01*
X129092712Y-96519407D01*
X129104525Y-96529496D01*
X131923293Y-99348264D01*
X131951070Y-99402781D01*
X131941499Y-99463213D01*
X131898234Y-99506478D01*
X131881181Y-99513258D01*
X131789947Y-99540047D01*
X131789942Y-99540049D01*
X131678523Y-99611654D01*
X131619348Y-99627209D01*
X131571477Y-99611654D01*
X131460057Y-99540049D01*
X131460054Y-99540047D01*
X131460053Y-99540047D01*
X131460050Y-99540046D01*
X131321964Y-99499500D01*
X131321961Y-99499500D01*
X131178039Y-99499500D01*
X131178035Y-99499500D01*
X131039949Y-99540046D01*
X131039942Y-99540049D01*
X130928523Y-99611654D01*
X130869348Y-99627209D01*
X130821477Y-99611654D01*
X130710057Y-99540049D01*
X130710054Y-99540047D01*
X130710053Y-99540047D01*
X130710050Y-99540046D01*
X130571964Y-99499500D01*
X130571961Y-99499500D01*
X130428039Y-99499500D01*
X130428035Y-99499500D01*
X130289949Y-99540046D01*
X130289942Y-99540049D01*
X130168873Y-99617855D01*
X130074622Y-99726628D01*
X130014836Y-99857539D01*
X130012842Y-99864332D01*
X130009806Y-99863440D01*
X129988673Y-99906344D01*
X129977060Y-99916546D01*
X129942458Y-99942450D01*
X129942450Y-99942458D01*
X129856202Y-100057670D01*
X129805910Y-100192511D01*
X129805908Y-100192522D01*
X129802438Y-100224797D01*
X129799502Y-100252115D01*
X129799500Y-100252129D01*
X129799500Y-102747866D01*
X129799501Y-102747870D01*
X129805908Y-102807480D01*
X129805909Y-102807485D01*
X129856202Y-102942329D01*
X129942450Y-103057541D01*
X129942454Y-103057546D01*
X129942457Y-103057548D01*
X129942458Y-103057549D01*
X130057670Y-103143797D01*
X130192511Y-103194089D01*
X130192512Y-103194089D01*
X130192517Y-103194091D01*
X130252127Y-103200500D01*
X132747872Y-103200499D01*
X132807483Y-103194091D01*
X132936599Y-103145934D01*
X132942329Y-103143797D01*
X132942329Y-103143796D01*
X132942331Y-103143796D01*
X133057546Y-103057546D01*
X133143796Y-102942331D01*
X133144665Y-102940003D01*
X133194089Y-102807488D01*
X133194090Y-102807485D01*
X133194091Y-102807483D01*
X133200500Y-102747873D01*
X133200499Y-101739897D01*
X133209445Y-101698772D01*
X133235165Y-101642457D01*
X133235165Y-101642455D01*
X133235166Y-101642454D01*
X133255647Y-101500002D01*
X133255647Y-101499997D01*
X133235165Y-101357543D01*
X133209446Y-101301226D01*
X133200499Y-101260099D01*
X133200499Y-100989899D01*
X133209445Y-100948773D01*
X133235165Y-100892457D01*
X133235165Y-100892455D01*
X133235166Y-100892454D01*
X133255647Y-100750002D01*
X133255647Y-100749997D01*
X133235165Y-100607543D01*
X133209446Y-100551226D01*
X133200499Y-100510099D01*
X133200499Y-100252138D01*
X133200499Y-100252128D01*
X133200464Y-100251808D01*
X133200477Y-100251730D01*
X133200357Y-100249486D01*
X133200499Y-100249478D01*
X133200499Y-100249477D01*
X133200525Y-100249477D01*
X133200845Y-100249459D01*
X133208843Y-100200093D01*
X133235165Y-100142457D01*
X133235165Y-100142455D01*
X133235166Y-100142454D01*
X133255647Y-100000002D01*
X133255647Y-99999997D01*
X133235165Y-99857543D01*
X133172436Y-99720187D01*
X133174025Y-99719461D01*
X133160719Y-99668855D01*
X133182913Y-99611837D01*
X133234383Y-99578754D01*
X133259558Y-99575500D01*
X134740442Y-99575500D01*
X134798633Y-99594407D01*
X134834597Y-99643907D01*
X134834597Y-99705093D01*
X134827462Y-99720140D01*
X134827564Y-99720187D01*
X134764834Y-99857543D01*
X134744353Y-99999997D01*
X134744353Y-100000002D01*
X134764833Y-100142452D01*
X134764835Y-100142457D01*
X134791156Y-100200093D01*
X134799160Y-100249459D01*
X134799474Y-100249476D01*
X134799500Y-100249476D01*
X134799500Y-100249477D01*
X134799642Y-100249485D01*
X134799523Y-100251695D01*
X134799537Y-100251779D01*
X134799500Y-100252115D01*
X134799500Y-100510100D01*
X134790554Y-100551225D01*
X134764835Y-100607542D01*
X134764833Y-100607547D01*
X134744353Y-100749997D01*
X134744353Y-100750002D01*
X134764833Y-100892454D01*
X134775332Y-100915443D01*
X134790553Y-100948771D01*
X134799500Y-100989897D01*
X134799500Y-101260100D01*
X134790554Y-101301225D01*
X134764835Y-101357542D01*
X134764833Y-101357547D01*
X134744353Y-101499997D01*
X134744353Y-101500002D01*
X134764833Y-101642452D01*
X134764834Y-101642454D01*
X134764834Y-101642455D01*
X134764835Y-101642457D01*
X134790552Y-101698770D01*
X134790554Y-101698773D01*
X134799500Y-101739899D01*
X134799500Y-102747866D01*
X134799501Y-102747870D01*
X134805908Y-102807480D01*
X134805909Y-102807485D01*
X134856202Y-102942329D01*
X134942450Y-103057541D01*
X134942454Y-103057546D01*
X134942457Y-103057548D01*
X134942458Y-103057549D01*
X135057670Y-103143797D01*
X135192511Y-103194089D01*
X135192512Y-103194089D01*
X135192517Y-103194091D01*
X135252127Y-103200500D01*
X137747872Y-103200499D01*
X137807483Y-103194091D01*
X137936599Y-103145934D01*
X137942329Y-103143797D01*
X137942329Y-103143796D01*
X137942331Y-103143796D01*
X138057546Y-103057546D01*
X138143796Y-102942331D01*
X138144665Y-102940003D01*
X138144668Y-102939996D01*
X141724417Y-102939996D01*
X141724417Y-102940003D01*
X141744698Y-103145929D01*
X141744699Y-103145934D01*
X141804768Y-103343954D01*
X141902316Y-103526452D01*
X142033585Y-103686404D01*
X142033590Y-103686410D01*
X142033595Y-103686414D01*
X142193547Y-103817683D01*
X142193548Y-103817683D01*
X142193550Y-103817685D01*
X142376046Y-103915232D01*
X142513997Y-103957078D01*
X142574065Y-103975300D01*
X142574070Y-103975301D01*
X142779997Y-103995583D01*
X142780000Y-103995583D01*
X142780003Y-103995583D01*
X142985929Y-103975301D01*
X142985934Y-103975300D01*
X143183954Y-103915232D01*
X143366450Y-103817685D01*
X143526410Y-103686410D01*
X143657685Y-103526450D01*
X143755232Y-103343954D01*
X143815300Y-103145934D01*
X143815301Y-103145929D01*
X143835583Y-102940003D01*
X143835583Y-102939996D01*
X143815301Y-102734070D01*
X143815300Y-102734065D01*
X143797078Y-102673997D01*
X143755232Y-102536046D01*
X143657685Y-102353550D01*
X143526410Y-102193590D01*
X143526404Y-102193585D01*
X143366452Y-102062316D01*
X143183954Y-101964768D01*
X142985934Y-101904699D01*
X142985929Y-101904698D01*
X142780003Y-101884417D01*
X142779997Y-101884417D01*
X142574070Y-101904698D01*
X142574065Y-101904699D01*
X142376045Y-101964768D01*
X142193547Y-102062316D01*
X142033595Y-102193585D01*
X142033585Y-102193595D01*
X141902316Y-102353547D01*
X141804768Y-102536045D01*
X141744699Y-102734065D01*
X141744698Y-102734070D01*
X141724417Y-102939996D01*
X138144668Y-102939996D01*
X138194089Y-102807488D01*
X138194090Y-102807485D01*
X138194091Y-102807483D01*
X138200500Y-102747873D01*
X138200499Y-100399996D01*
X141724417Y-100399996D01*
X141724417Y-100400003D01*
X141744698Y-100605929D01*
X141744699Y-100605934D01*
X141804768Y-100803954D01*
X141902316Y-100986452D01*
X142033585Y-101146404D01*
X142033590Y-101146410D01*
X142033595Y-101146414D01*
X142193547Y-101277683D01*
X142193548Y-101277683D01*
X142193550Y-101277685D01*
X142376046Y-101375232D01*
X142513997Y-101417078D01*
X142574065Y-101435300D01*
X142574070Y-101435301D01*
X142779997Y-101455583D01*
X142780000Y-101455583D01*
X142780003Y-101455583D01*
X142985929Y-101435301D01*
X142985934Y-101435300D01*
X143183954Y-101375232D01*
X143366450Y-101277685D01*
X143526410Y-101146410D01*
X143657685Y-100986450D01*
X143755232Y-100803954D01*
X143815300Y-100605934D01*
X143815301Y-100605929D01*
X143835583Y-100400003D01*
X143835583Y-100399996D01*
X143815301Y-100194070D01*
X143815300Y-100194065D01*
X143773925Y-100057669D01*
X143755232Y-99996046D01*
X143657685Y-99813550D01*
X143586350Y-99726628D01*
X143526414Y-99653595D01*
X143526410Y-99653590D01*
X143514611Y-99643907D01*
X143366452Y-99522316D01*
X143183954Y-99424768D01*
X142985934Y-99364699D01*
X142985929Y-99364698D01*
X142780003Y-99344417D01*
X142779997Y-99344417D01*
X142574070Y-99364698D01*
X142574065Y-99364699D01*
X142376045Y-99424768D01*
X142193547Y-99522316D01*
X142033595Y-99653585D01*
X142033585Y-99653595D01*
X141902316Y-99813547D01*
X141804768Y-99996045D01*
X141744699Y-100194065D01*
X141744698Y-100194070D01*
X141724417Y-100399996D01*
X138200499Y-100399996D01*
X138200499Y-100252128D01*
X138194091Y-100192517D01*
X138175418Y-100142452D01*
X138143797Y-100057670D01*
X138057549Y-99942458D01*
X138057548Y-99942457D01*
X138057546Y-99942454D01*
X138022943Y-99916550D01*
X137987690Y-99866541D01*
X137987192Y-99864329D01*
X137987161Y-99864339D01*
X137985165Y-99857542D01*
X137922436Y-99720186D01*
X137924024Y-99719460D01*
X137910719Y-99668855D01*
X137932913Y-99611837D01*
X137984383Y-99578754D01*
X138009558Y-99575500D01*
X140649307Y-99575500D01*
X140649307Y-99575499D01*
X140725733Y-99555021D01*
X140794255Y-99515460D01*
X140833985Y-99475730D01*
X140850205Y-99459511D01*
X141020155Y-99289560D01*
X141165460Y-99144255D01*
X141174964Y-99127793D01*
X141205021Y-99075733D01*
X141225500Y-98999306D01*
X141225500Y-98093663D01*
X141244407Y-98035472D01*
X141254490Y-98023665D01*
X142890918Y-96387236D01*
X142945433Y-96359461D01*
X142951188Y-96358721D01*
X142985934Y-96355300D01*
X143183954Y-96295232D01*
X143366450Y-96197685D01*
X143526410Y-96066410D01*
X143657685Y-95906450D01*
X143755232Y-95723954D01*
X143815300Y-95525934D01*
X143815301Y-95525929D01*
X143835583Y-95320003D01*
X143835583Y-95319996D01*
X143815301Y-95114070D01*
X143815300Y-95114065D01*
X143779328Y-94995482D01*
X143755232Y-94916046D01*
X143657685Y-94733550D01*
X143656530Y-94732143D01*
X143526414Y-94573595D01*
X143526410Y-94573590D01*
X143455656Y-94515524D01*
X143366452Y-94442316D01*
X143183954Y-94344768D01*
X142985934Y-94284699D01*
X142985929Y-94284698D01*
X142780003Y-94264417D01*
X142779997Y-94264417D01*
X142574070Y-94284698D01*
X142574065Y-94284699D01*
X142376045Y-94344768D01*
X142193547Y-94442316D01*
X142033595Y-94573585D01*
X142033585Y-94573595D01*
X141902316Y-94733547D01*
X141804768Y-94916045D01*
X141744699Y-95114065D01*
X141744698Y-95114070D01*
X141724417Y-95319996D01*
X141724417Y-95320003D01*
X141744698Y-95525929D01*
X141744699Y-95525934D01*
X141804768Y-95723954D01*
X141902316Y-95906452D01*
X141996716Y-96021479D01*
X142033590Y-96066410D01*
X142033595Y-96066414D01*
X142129423Y-96145058D01*
X142162410Y-96196589D01*
X142158808Y-96257669D01*
X142136622Y-96291590D01*
X141257004Y-97171209D01*
X141202487Y-97198986D01*
X141142055Y-97189415D01*
X141098790Y-97146150D01*
X141088000Y-97101205D01*
X141088000Y-96745799D01*
X141106907Y-96687608D01*
X141142054Y-96657590D01*
X141157014Y-96649967D01*
X141255751Y-96599658D01*
X141349658Y-96505751D01*
X141409951Y-96387420D01*
X141425500Y-96289246D01*
X141425500Y-95710754D01*
X141409951Y-95612580D01*
X141349658Y-95494249D01*
X141255751Y-95400342D01*
X141220034Y-95382143D01*
X141142054Y-95342409D01*
X141098790Y-95299144D01*
X141088000Y-95254200D01*
X141088000Y-94937978D01*
X141106907Y-94879787D01*
X141116990Y-94867980D01*
X142228784Y-93756185D01*
X142283299Y-93728410D01*
X142343731Y-93737981D01*
X142345454Y-93738881D01*
X142376040Y-93755229D01*
X142376046Y-93755232D01*
X142513997Y-93797078D01*
X142574065Y-93815300D01*
X142574070Y-93815301D01*
X142779997Y-93835583D01*
X142780000Y-93835583D01*
X142780003Y-93835583D01*
X142985929Y-93815301D01*
X142985934Y-93815300D01*
X143183954Y-93755232D01*
X143366450Y-93657685D01*
X143526410Y-93526410D01*
X143657685Y-93366450D01*
X143755232Y-93183954D01*
X143815300Y-92985934D01*
X143815301Y-92985929D01*
X143835583Y-92780003D01*
X143835583Y-92779996D01*
X143815301Y-92574070D01*
X143815300Y-92574065D01*
X143786608Y-92479481D01*
X143755232Y-92376046D01*
X143657685Y-92193550D01*
X143613378Y-92139562D01*
X143526414Y-92033595D01*
X143526410Y-92033590D01*
X143436378Y-91959703D01*
X143366452Y-91902316D01*
X143183954Y-91804768D01*
X142985934Y-91744699D01*
X142985929Y-91744698D01*
X142780003Y-91724417D01*
X142779997Y-91724417D01*
X142574070Y-91744698D01*
X142574065Y-91744699D01*
X142376045Y-91804768D01*
X142193547Y-91902316D01*
X142033595Y-92033585D01*
X142033585Y-92033595D01*
X141902316Y-92193547D01*
X141804768Y-92376045D01*
X141804767Y-92376047D01*
X141794700Y-92409237D01*
X141759716Y-92459434D01*
X141701908Y-92479481D01*
X141699963Y-92479500D01*
X140694108Y-92479500D01*
X140635917Y-92460593D01*
X140599953Y-92411093D01*
X140599953Y-92349907D01*
X140635917Y-92300407D01*
X140661407Y-92287056D01*
X140687882Y-92277793D01*
X140797150Y-92197150D01*
X140877793Y-92087882D01*
X140922646Y-91959699D01*
X140925499Y-91929273D01*
X140925500Y-91929273D01*
X140925500Y-91145727D01*
X140925499Y-91145725D01*
X140924325Y-91133203D01*
X140922646Y-91115301D01*
X140877793Y-90987118D01*
X140877273Y-90986414D01*
X140797154Y-90877855D01*
X140797152Y-90877853D01*
X140797150Y-90877850D01*
X140797146Y-90877847D01*
X140797144Y-90877845D01*
X140687883Y-90797207D01*
X140559703Y-90752355D01*
X140559694Y-90752353D01*
X140529274Y-90749500D01*
X140529266Y-90749500D01*
X139748690Y-90749500D01*
X139690499Y-90730593D01*
X139678686Y-90720504D01*
X139375780Y-90417598D01*
X139348003Y-90363081D01*
X139357574Y-90302649D01*
X139400839Y-90259384D01*
X139455031Y-90249027D01*
X139465504Y-90250009D01*
X139470731Y-90250500D01*
X139470734Y-90250500D01*
X140529273Y-90250500D01*
X140529273Y-90250499D01*
X140559699Y-90247646D01*
X140581562Y-90239996D01*
X141724417Y-90239996D01*
X141724417Y-90240003D01*
X141744698Y-90445929D01*
X141744699Y-90445934D01*
X141804768Y-90643954D01*
X141902316Y-90826452D01*
X142010667Y-90958478D01*
X142033590Y-90986410D01*
X142033595Y-90986414D01*
X142193547Y-91117683D01*
X142193548Y-91117683D01*
X142193550Y-91117685D01*
X142376046Y-91215232D01*
X142513997Y-91257078D01*
X142574065Y-91275300D01*
X142574070Y-91275301D01*
X142779997Y-91295583D01*
X142780000Y-91295583D01*
X142780003Y-91295583D01*
X142985929Y-91275301D01*
X142985934Y-91275300D01*
X143183954Y-91215232D01*
X143366450Y-91117685D01*
X143526410Y-90986410D01*
X143657685Y-90826450D01*
X143755232Y-90643954D01*
X143815300Y-90445934D01*
X143815301Y-90445929D01*
X143835583Y-90240003D01*
X143835583Y-90239996D01*
X143815301Y-90034070D01*
X143815300Y-90034065D01*
X143786734Y-89939895D01*
X143755232Y-89836046D01*
X143657685Y-89653550D01*
X143656719Y-89652373D01*
X143544626Y-89515786D01*
X143526410Y-89493590D01*
X143526404Y-89493585D01*
X143366452Y-89362316D01*
X143183954Y-89264768D01*
X142985934Y-89204699D01*
X142985929Y-89204698D01*
X142780003Y-89184417D01*
X142779997Y-89184417D01*
X142574070Y-89204698D01*
X142574065Y-89204699D01*
X142376045Y-89264768D01*
X142193547Y-89362316D01*
X142033595Y-89493585D01*
X142033585Y-89493595D01*
X141902316Y-89653547D01*
X141804768Y-89836045D01*
X141744699Y-90034065D01*
X141744698Y-90034070D01*
X141724417Y-90239996D01*
X140581562Y-90239996D01*
X140687882Y-90202793D01*
X140797150Y-90122150D01*
X140877793Y-90012882D01*
X140922646Y-89884699D01*
X140925499Y-89854273D01*
X140925500Y-89854273D01*
X140925500Y-89070727D01*
X140925499Y-89070725D01*
X140923606Y-89050536D01*
X140922646Y-89040301D01*
X140877793Y-88912118D01*
X140862196Y-88890985D01*
X140797154Y-88802855D01*
X140797152Y-88802853D01*
X140797150Y-88802850D01*
X140797146Y-88802847D01*
X140797144Y-88802845D01*
X140687883Y-88722207D01*
X140559703Y-88677355D01*
X140559694Y-88677353D01*
X140529274Y-88674500D01*
X140529266Y-88674500D01*
X139748690Y-88674500D01*
X139690499Y-88655593D01*
X139678686Y-88645504D01*
X139527686Y-88494504D01*
X139499909Y-88439987D01*
X139509480Y-88379555D01*
X139552745Y-88336290D01*
X139597690Y-88325500D01*
X140529273Y-88325500D01*
X140529273Y-88325499D01*
X140559699Y-88322646D01*
X140687882Y-88277793D01*
X140797150Y-88197150D01*
X140877793Y-88087882D01*
X140922646Y-87959699D01*
X140925499Y-87929273D01*
X140925500Y-87929273D01*
X140925500Y-87699996D01*
X141724417Y-87699996D01*
X141724417Y-87700003D01*
X141744698Y-87905929D01*
X141744699Y-87905934D01*
X141804768Y-88103954D01*
X141902316Y-88286452D01*
X141932018Y-88322644D01*
X142033590Y-88446410D01*
X142033595Y-88446414D01*
X142193547Y-88577683D01*
X142193548Y-88577683D01*
X142193550Y-88577685D01*
X142376046Y-88675232D01*
X142513997Y-88717078D01*
X142574065Y-88735300D01*
X142574070Y-88735301D01*
X142779997Y-88755583D01*
X142780000Y-88755583D01*
X142780003Y-88755583D01*
X142985929Y-88735301D01*
X142985934Y-88735300D01*
X143029096Y-88722207D01*
X143183954Y-88675232D01*
X143366450Y-88577685D01*
X143526410Y-88446410D01*
X143657685Y-88286450D01*
X143755232Y-88103954D01*
X143815300Y-87905934D01*
X143815301Y-87905929D01*
X143835583Y-87700003D01*
X143835583Y-87699996D01*
X143815301Y-87494070D01*
X143815300Y-87494065D01*
X143780878Y-87380592D01*
X143755232Y-87296046D01*
X143657685Y-87113550D01*
X143653964Y-87109016D01*
X143526414Y-86953595D01*
X143526410Y-86953590D01*
X143475876Y-86912118D01*
X143366452Y-86822316D01*
X143183954Y-86724768D01*
X142985934Y-86664699D01*
X142985929Y-86664698D01*
X142780003Y-86644417D01*
X142779997Y-86644417D01*
X142574070Y-86664698D01*
X142574065Y-86664699D01*
X142376045Y-86724768D01*
X142193547Y-86822316D01*
X142033595Y-86953585D01*
X142033585Y-86953595D01*
X141902316Y-87113547D01*
X141804768Y-87296045D01*
X141744699Y-87494065D01*
X141744698Y-87494070D01*
X141724417Y-87699996D01*
X140925500Y-87699996D01*
X140925500Y-87145727D01*
X140925499Y-87145725D01*
X140922646Y-87115305D01*
X140922646Y-87115301D01*
X140877793Y-86987118D01*
X140857744Y-86959953D01*
X140797154Y-86877855D01*
X140797152Y-86877853D01*
X140797150Y-86877850D01*
X140797146Y-86877847D01*
X140797144Y-86877845D01*
X140687883Y-86797207D01*
X140559703Y-86752355D01*
X140559694Y-86752353D01*
X140529274Y-86749500D01*
X140529266Y-86749500D01*
X139470734Y-86749500D01*
X139470725Y-86749500D01*
X139440305Y-86752353D01*
X139440296Y-86752355D01*
X139429241Y-86756223D01*
X139408565Y-86756686D01*
X139389437Y-86770151D01*
X139312117Y-86797207D01*
X139312116Y-86797207D01*
X139202855Y-86877845D01*
X139202845Y-86877855D01*
X139122207Y-86987116D01*
X139077355Y-87115296D01*
X139077353Y-87115305D01*
X139074500Y-87145725D01*
X139074500Y-87300499D01*
X139055593Y-87358690D01*
X139006093Y-87394654D01*
X138975500Y-87399499D01*
X137505567Y-87399499D01*
X137447376Y-87380592D01*
X137411412Y-87331092D01*
X137406567Y-87300499D01*
X137406567Y-87109016D01*
X137406566Y-87109007D01*
X137399122Y-87071587D01*
X137406312Y-87010826D01*
X137447844Y-86965895D01*
X137455097Y-86962215D01*
X137460043Y-86959955D01*
X137460053Y-86959953D01*
X137571478Y-86888344D01*
X137630652Y-86872790D01*
X137678521Y-86888344D01*
X137789947Y-86959953D01*
X137882457Y-86987116D01*
X137928035Y-87000499D01*
X137928036Y-87000499D01*
X137928039Y-87000500D01*
X137928041Y-87000500D01*
X138071959Y-87000500D01*
X138071961Y-87000500D01*
X138210053Y-86959953D01*
X138331128Y-86882143D01*
X138425377Y-86773373D01*
X138477896Y-86658372D01*
X138519268Y-86613296D01*
X138567949Y-86600500D01*
X139258643Y-86600500D01*
X139258644Y-86600500D01*
X139331116Y-86581081D01*
X139342037Y-86581653D01*
X139347046Y-86577041D01*
X139347783Y-86576615D01*
X139347788Y-86576614D01*
X139367055Y-86565490D01*
X139427712Y-86530470D01*
X139579200Y-86378982D01*
X139678687Y-86279496D01*
X139733203Y-86251719D01*
X139748690Y-86250500D01*
X140529273Y-86250500D01*
X140529273Y-86250499D01*
X140559699Y-86247646D01*
X140687882Y-86202793D01*
X140797150Y-86122150D01*
X140877793Y-86012882D01*
X140922646Y-85884699D01*
X140925499Y-85854273D01*
X140925500Y-85854273D01*
X140925500Y-85159996D01*
X141724417Y-85159996D01*
X141724417Y-85160003D01*
X141744698Y-85365929D01*
X141744699Y-85365934D01*
X141804768Y-85563954D01*
X141902316Y-85746452D01*
X142020929Y-85890983D01*
X142033590Y-85906410D01*
X142033595Y-85906414D01*
X142193547Y-86037683D01*
X142193548Y-86037683D01*
X142193550Y-86037685D01*
X142376046Y-86135232D01*
X142513997Y-86177078D01*
X142574065Y-86195300D01*
X142574070Y-86195301D01*
X142779997Y-86215583D01*
X142780000Y-86215583D01*
X142780003Y-86215583D01*
X142985929Y-86195301D01*
X142985934Y-86195300D01*
X143183954Y-86135232D01*
X143366450Y-86037685D01*
X143526410Y-85906410D01*
X143657685Y-85746450D01*
X143755232Y-85563954D01*
X143815300Y-85365934D01*
X143815301Y-85365929D01*
X143835583Y-85160003D01*
X143835583Y-85159996D01*
X143815301Y-84954070D01*
X143815300Y-84954065D01*
X143785286Y-84855122D01*
X143755232Y-84756046D01*
X143657685Y-84573550D01*
X143592043Y-84493565D01*
X143526414Y-84413595D01*
X143526410Y-84413590D01*
X143467695Y-84365404D01*
X143366452Y-84282316D01*
X143183954Y-84184768D01*
X142985934Y-84124699D01*
X142985929Y-84124698D01*
X142780003Y-84104417D01*
X142779997Y-84104417D01*
X142574070Y-84124698D01*
X142574065Y-84124699D01*
X142376045Y-84184768D01*
X142193547Y-84282316D01*
X142033595Y-84413585D01*
X142033585Y-84413595D01*
X141902316Y-84573547D01*
X141804768Y-84756045D01*
X141744699Y-84954065D01*
X141744698Y-84954070D01*
X141724417Y-85159996D01*
X140925500Y-85159996D01*
X140925500Y-85070727D01*
X140925499Y-85070725D01*
X140922646Y-85040305D01*
X140922646Y-85040301D01*
X140877793Y-84912118D01*
X140852862Y-84878338D01*
X140797154Y-84802855D01*
X140797152Y-84802853D01*
X140797150Y-84802850D01*
X140797146Y-84802847D01*
X140797144Y-84802845D01*
X140687883Y-84722207D01*
X140559703Y-84677355D01*
X140559694Y-84677353D01*
X140529274Y-84674500D01*
X140529266Y-84674500D01*
X139470734Y-84674500D01*
X139470725Y-84674500D01*
X139440305Y-84677353D01*
X139440296Y-84677355D01*
X139312116Y-84722207D01*
X139202855Y-84802845D01*
X139202845Y-84802855D01*
X139122207Y-84912116D01*
X139077355Y-85040296D01*
X139077353Y-85040305D01*
X139074500Y-85070725D01*
X139074500Y-85800500D01*
X139055593Y-85858691D01*
X139006093Y-85894655D01*
X138975500Y-85899500D01*
X138524374Y-85899500D01*
X138466183Y-85880593D01*
X138430219Y-85831093D01*
X138430219Y-85769907D01*
X138447846Y-85737695D01*
X138464911Y-85716901D01*
X138485700Y-85691570D01*
X138497718Y-85675366D01*
X138505777Y-85663304D01*
X138516141Y-85646012D01*
X138601677Y-85485985D01*
X138610296Y-85467763D01*
X138615848Y-85454361D01*
X138622645Y-85435364D01*
X138675320Y-85261717D01*
X138680220Y-85242156D01*
X138683050Y-85227929D01*
X138686009Y-85207980D01*
X138704154Y-85023758D01*
X138704897Y-85013688D01*
X138705253Y-85006434D01*
X138705500Y-84996361D01*
X138705500Y-84503638D01*
X138705253Y-84493565D01*
X138704897Y-84486311D01*
X138704154Y-84476236D01*
X138702136Y-84455753D01*
X138697810Y-84411834D01*
X138691455Y-84347310D01*
X138691455Y-84347309D01*
X138686012Y-84292042D01*
X138686010Y-84292021D01*
X138685543Y-84288876D01*
X138684570Y-84282315D01*
X138683050Y-84272070D01*
X138680220Y-84257843D01*
X138675320Y-84238282D01*
X138675319Y-84238277D01*
X138622653Y-84064661D01*
X138622651Y-84064657D01*
X138622645Y-84064635D01*
X138615848Y-84045638D01*
X138610296Y-84032236D01*
X138601677Y-84014015D01*
X138601672Y-84014006D01*
X138601665Y-84013991D01*
X138559909Y-83935872D01*
X138525997Y-83872426D01*
X138509824Y-83846885D01*
X138496888Y-83829442D01*
X138485055Y-83814919D01*
X138410467Y-83761997D01*
X138410466Y-83761996D01*
X138410464Y-83761995D01*
X138358147Y-83740325D01*
X138358134Y-83740321D01*
X138282468Y-83723049D01*
X138229944Y-83691666D01*
X138205898Y-83635404D01*
X138205500Y-83626532D01*
X138205500Y-83386824D01*
X138224407Y-83328633D01*
X138234490Y-83316826D01*
X138931321Y-82619996D01*
X141724417Y-82619996D01*
X141724417Y-82620003D01*
X141744698Y-82825929D01*
X141744699Y-82825934D01*
X141804768Y-83023954D01*
X141902316Y-83206452D01*
X141930499Y-83240793D01*
X142033590Y-83366410D01*
X142033595Y-83366414D01*
X142193547Y-83497683D01*
X142193548Y-83497683D01*
X142193550Y-83497685D01*
X142376046Y-83595232D01*
X142508477Y-83635404D01*
X142574065Y-83655300D01*
X142574070Y-83655301D01*
X142779997Y-83675583D01*
X142780000Y-83675583D01*
X142780003Y-83675583D01*
X142985929Y-83655301D01*
X142985934Y-83655300D01*
X143183954Y-83595232D01*
X143366450Y-83497685D01*
X143526410Y-83366410D01*
X143657685Y-83206450D01*
X143755232Y-83023954D01*
X143815300Y-82825934D01*
X143815301Y-82825929D01*
X143835583Y-82620003D01*
X143835583Y-82619996D01*
X143815301Y-82414070D01*
X143815300Y-82414065D01*
X143788097Y-82324388D01*
X143755232Y-82216046D01*
X143657685Y-82033550D01*
X143526410Y-81873590D01*
X143430038Y-81794500D01*
X143366452Y-81742316D01*
X143183954Y-81644768D01*
X142985934Y-81584699D01*
X142985929Y-81584698D01*
X142780003Y-81564417D01*
X142779997Y-81564417D01*
X142574070Y-81584698D01*
X142574065Y-81584699D01*
X142376045Y-81644768D01*
X142193547Y-81742316D01*
X142033595Y-81873585D01*
X142033585Y-81873595D01*
X141902316Y-82033547D01*
X141804768Y-82216045D01*
X141744699Y-82414065D01*
X141744698Y-82414070D01*
X141724417Y-82619996D01*
X138931321Y-82619996D01*
X139606380Y-81944937D01*
X139708372Y-81804557D01*
X139740579Y-81760228D01*
X139844231Y-81556799D01*
X139914784Y-81339660D01*
X139914785Y-81339655D01*
X139950500Y-81114160D01*
X139950500Y-80079996D01*
X141724417Y-80079996D01*
X141724417Y-80080003D01*
X141744698Y-80285929D01*
X141744699Y-80285934D01*
X141804768Y-80483954D01*
X141902316Y-80666452D01*
X141930499Y-80700793D01*
X142033590Y-80826410D01*
X142033595Y-80826414D01*
X142193547Y-80957683D01*
X142193548Y-80957683D01*
X142193550Y-80957685D01*
X142376046Y-81055232D01*
X142513997Y-81097078D01*
X142574065Y-81115300D01*
X142574070Y-81115301D01*
X142779997Y-81135583D01*
X142780000Y-81135583D01*
X142780003Y-81135583D01*
X142985929Y-81115301D01*
X142985934Y-81115300D01*
X142989702Y-81114157D01*
X143183954Y-81055232D01*
X143366450Y-80957685D01*
X143526410Y-80826410D01*
X143657685Y-80666450D01*
X143755232Y-80483954D01*
X143815300Y-80285934D01*
X143815301Y-80285929D01*
X143835583Y-80080003D01*
X143835583Y-80079996D01*
X143815301Y-79874070D01*
X143815300Y-79874065D01*
X143790413Y-79792023D01*
X143755232Y-79676046D01*
X143657685Y-79493550D01*
X143526410Y-79333590D01*
X143517823Y-79326543D01*
X143366452Y-79202316D01*
X143183954Y-79104768D01*
X142985934Y-79044699D01*
X142985929Y-79044698D01*
X142780003Y-79024417D01*
X142779997Y-79024417D01*
X142574070Y-79044698D01*
X142574065Y-79044699D01*
X142376045Y-79104768D01*
X142193547Y-79202316D01*
X142033595Y-79333585D01*
X142033585Y-79333595D01*
X141902316Y-79493547D01*
X141804768Y-79676045D01*
X141744699Y-79874065D01*
X141744698Y-79874070D01*
X141724417Y-80079996D01*
X139950500Y-80079996D01*
X139950500Y-76549500D01*
X139969407Y-76491309D01*
X140018907Y-76455345D01*
X140049500Y-76450500D01*
X142194598Y-76450500D01*
X142252789Y-76469407D01*
X142288753Y-76518907D01*
X142288753Y-76580093D01*
X142252789Y-76629593D01*
X142241272Y-76636806D01*
X142219845Y-76648259D01*
X142193547Y-76662316D01*
X142033595Y-76793585D01*
X142033585Y-76793595D01*
X141902316Y-76953547D01*
X141804768Y-77136045D01*
X141744699Y-77334065D01*
X141744698Y-77334070D01*
X141724417Y-77539996D01*
X141724417Y-77540003D01*
X141744698Y-77745929D01*
X141744699Y-77745934D01*
X141804768Y-77943954D01*
X141902316Y-78126452D01*
X141930499Y-78160793D01*
X142033590Y-78286410D01*
X142033595Y-78286414D01*
X142193547Y-78417683D01*
X142193548Y-78417683D01*
X142193550Y-78417685D01*
X142376046Y-78515232D01*
X142513997Y-78557078D01*
X142574065Y-78575300D01*
X142574070Y-78575301D01*
X142779997Y-78595583D01*
X142780000Y-78595583D01*
X142780003Y-78595583D01*
X142985929Y-78575301D01*
X142985934Y-78575300D01*
X143183954Y-78515232D01*
X143366450Y-78417685D01*
X143526410Y-78286410D01*
X143657685Y-78126450D01*
X143755232Y-77943954D01*
X143815300Y-77745934D01*
X143815301Y-77745929D01*
X143835583Y-77540003D01*
X143835583Y-77539996D01*
X143815301Y-77334070D01*
X143815300Y-77334065D01*
X143797078Y-77273997D01*
X143755232Y-77136046D01*
X143657685Y-76953550D01*
X143526410Y-76793590D01*
X143467695Y-76745404D01*
X143366452Y-76662316D01*
X143190198Y-76568105D01*
X143147792Y-76523999D01*
X143139409Y-76463390D01*
X143168252Y-76409430D01*
X143206271Y-76386642D01*
X143336799Y-76344231D01*
X143540228Y-76240579D01*
X143724937Y-76106379D01*
X143886379Y-75944937D01*
X144020579Y-75760228D01*
X144124231Y-75556799D01*
X144194784Y-75339660D01*
X144205109Y-75274471D01*
X144230500Y-75114160D01*
X144230500Y-74885839D01*
X144194785Y-74660344D01*
X144194784Y-74660340D01*
X144124231Y-74443201D01*
X144020579Y-74239772D01*
X144020575Y-74239766D01*
X143886383Y-74055068D01*
X143886381Y-74055066D01*
X143886379Y-74055063D01*
X143724937Y-73893621D01*
X143724933Y-73893618D01*
X143724931Y-73893616D01*
X143540233Y-73759424D01*
X143540227Y-73759420D01*
X143336799Y-73655769D01*
X143119655Y-73585214D01*
X142894160Y-73549500D01*
X142894157Y-73549500D01*
X140294519Y-73549500D01*
X140236328Y-73530593D01*
X140200364Y-73481093D01*
X140196086Y-73461079D01*
X140194091Y-73442522D01*
X140194091Y-73442517D01*
X140185508Y-73419504D01*
X140172302Y-73384096D01*
X140169682Y-73322966D01*
X140203494Y-73271972D01*
X140260821Y-73250591D01*
X140265060Y-73250500D01*
X144400500Y-73250500D01*
X144458691Y-73269407D01*
X144494655Y-73318907D01*
X144499500Y-73349500D01*
X144499500Y-104650500D01*
X144480593Y-104708691D01*
X144431093Y-104744655D01*
X144400500Y-104749500D01*
X123349500Y-104749500D01*
X123291309Y-104730593D01*
X123255345Y-104681093D01*
X123250500Y-104650500D01*
X123250500Y-73349500D01*
X123269407Y-73291309D01*
X123318907Y-73255345D01*
X123349500Y-73250500D01*
X123585521Y-73250500D01*
X123643712Y-73269407D01*
G37*
%TD.AperFunction*%
%TA.AperFunction,Conductor*%
G36*
X134145446Y-93119257D02*
G01*
X134188711Y-93162522D01*
X134199501Y-93207467D01*
X134199501Y-93252065D01*
X134219979Y-93328489D01*
X134219980Y-93328490D01*
X134252859Y-93385438D01*
X134259541Y-93397012D01*
X134669987Y-93807458D01*
X135052932Y-94190403D01*
X135080709Y-94244920D01*
X135077188Y-94284100D01*
X135078639Y-94284417D01*
X135077353Y-94290301D01*
X135074500Y-94320725D01*
X135074500Y-95104274D01*
X135077353Y-95134694D01*
X135077355Y-95134703D01*
X135122207Y-95262883D01*
X135202845Y-95372144D01*
X135202847Y-95372146D01*
X135202850Y-95372150D01*
X135202853Y-95372152D01*
X135202855Y-95372154D01*
X135312116Y-95452792D01*
X135312117Y-95452792D01*
X135312118Y-95452793D01*
X135440301Y-95497646D01*
X135470725Y-95500499D01*
X135470727Y-95500500D01*
X135470734Y-95500500D01*
X136529273Y-95500500D01*
X136529273Y-95500499D01*
X136559699Y-95497646D01*
X136687882Y-95452793D01*
X136797150Y-95372150D01*
X136877793Y-95262882D01*
X136922646Y-95134699D01*
X136925499Y-95104273D01*
X136925500Y-95104273D01*
X136925500Y-94320727D01*
X136925499Y-94320725D01*
X136922646Y-94290305D01*
X136922646Y-94290301D01*
X136911063Y-94257198D01*
X136909690Y-94196028D01*
X136944534Y-94145733D01*
X137002285Y-94125525D01*
X137004507Y-94125500D01*
X137005357Y-94125500D01*
X137063548Y-94144407D01*
X137075360Y-94154496D01*
X137307457Y-94386592D01*
X137807458Y-94886593D01*
X137807457Y-94886593D01*
X138161324Y-95240459D01*
X138161329Y-95240463D01*
X138229844Y-95280020D01*
X138229842Y-95280020D01*
X138229846Y-95280021D01*
X138229848Y-95280022D01*
X138306274Y-95300500D01*
X138552916Y-95300500D01*
X138611107Y-95319407D01*
X138627735Y-95334669D01*
X138651953Y-95362618D01*
X138675771Y-95418977D01*
X138661913Y-95478572D01*
X138654704Y-95487785D01*
X138654923Y-95487944D01*
X138650342Y-95494249D01*
X138590050Y-95612576D01*
X138590049Y-95612580D01*
X138574500Y-95710754D01*
X138574500Y-96289246D01*
X138589213Y-96382144D01*
X138590049Y-96387419D01*
X138590050Y-96387423D01*
X138647254Y-96499690D01*
X138650342Y-96505751D01*
X138744249Y-96599658D01*
X138862580Y-96659951D01*
X138929130Y-96670491D01*
X138960751Y-96675500D01*
X138960754Y-96675500D01*
X139464249Y-96675500D01*
X139492803Y-96670976D01*
X139562420Y-96659951D01*
X139680751Y-96599658D01*
X139774658Y-96505751D01*
X139834951Y-96387420D01*
X139850500Y-96289246D01*
X139850500Y-95827978D01*
X139869407Y-95769787D01*
X139879490Y-95757980D01*
X139980498Y-95656972D01*
X140035013Y-95629197D01*
X140095445Y-95638768D01*
X140138710Y-95682033D01*
X140149500Y-95726978D01*
X140149500Y-96289246D01*
X140164213Y-96382144D01*
X140165049Y-96387419D01*
X140165050Y-96387423D01*
X140222254Y-96499690D01*
X140225342Y-96505751D01*
X140319249Y-96599658D01*
X140406504Y-96644117D01*
X140432946Y-96657590D01*
X140476210Y-96700854D01*
X140487000Y-96745799D01*
X140487000Y-97225500D01*
X140468093Y-97283691D01*
X140418593Y-97319655D01*
X140388000Y-97324500D01*
X139645725Y-97324500D01*
X139615305Y-97327353D01*
X139615296Y-97327355D01*
X139487116Y-97372207D01*
X139377855Y-97452845D01*
X139377845Y-97452855D01*
X139297207Y-97562116D01*
X139252355Y-97690296D01*
X139252353Y-97690305D01*
X139249500Y-97720725D01*
X139249500Y-98779274D01*
X139252353Y-98809694D01*
X139252355Y-98809703D01*
X139263937Y-98842802D01*
X139265310Y-98903972D01*
X139230466Y-98954267D01*
X139172715Y-98974475D01*
X139170493Y-98974500D01*
X132440479Y-98974500D01*
X132382288Y-98955593D01*
X132370475Y-98945504D01*
X129530546Y-96105575D01*
X129502769Y-96051058D01*
X129502558Y-96021482D01*
X129505647Y-96000000D01*
X129503566Y-95985529D01*
X129485165Y-95857543D01*
X129452935Y-95786971D01*
X129425377Y-95726627D01*
X129331128Y-95617857D01*
X129331127Y-95617856D01*
X129331126Y-95617855D01*
X129210057Y-95540049D01*
X129210054Y-95540047D01*
X129210053Y-95540047D01*
X129210050Y-95540046D01*
X129071964Y-95499500D01*
X129071961Y-95499500D01*
X128975501Y-95499500D01*
X128917310Y-95480593D01*
X128881346Y-95431093D01*
X128877509Y-95414589D01*
X128869838Y-95361235D01*
X128880271Y-95300946D01*
X128897823Y-95277146D01*
X129194432Y-94980539D01*
X129248948Y-94952762D01*
X129264435Y-94951543D01*
X129623445Y-94951543D01*
X129623445Y-94951542D01*
X129699871Y-94931064D01*
X129768393Y-94891503D01*
X129824342Y-94835554D01*
X129830400Y-94829496D01*
X129884917Y-94801719D01*
X129900404Y-94800500D01*
X132282552Y-94800500D01*
X132282552Y-94800499D01*
X132358978Y-94780021D01*
X132427500Y-94740460D01*
X132483449Y-94684511D01*
X134030497Y-93137463D01*
X134085014Y-93109686D01*
X134145446Y-93119257D01*
G37*
%TD.AperFunction*%
%TA.AperFunction,Conductor*%
G36*
X134290666Y-85637198D02*
G01*
X134291522Y-85635134D01*
X134300528Y-85638863D01*
X134300533Y-85638867D01*
X134344995Y-85647711D01*
X134359005Y-85650498D01*
X134359010Y-85650498D01*
X134359016Y-85650500D01*
X134359017Y-85650500D01*
X134640985Y-85650500D01*
X134640986Y-85650500D01*
X134640987Y-85650499D01*
X134640993Y-85650499D01*
X134676926Y-85643351D01*
X134737687Y-85650541D01*
X134753528Y-85659706D01*
X134758599Y-85663304D01*
X134764771Y-85667683D01*
X134817097Y-85689357D01*
X134895738Y-85705000D01*
X134895739Y-85705000D01*
X135104263Y-85705000D01*
X135104264Y-85705000D01*
X135182905Y-85689357D01*
X135235231Y-85667683D01*
X135252412Y-85656887D01*
X135311739Y-85641935D01*
X135324391Y-85643612D01*
X135351011Y-85648907D01*
X135359010Y-85650499D01*
X135359013Y-85650499D01*
X135359016Y-85650500D01*
X135359017Y-85650500D01*
X135640985Y-85650500D01*
X135640986Y-85650500D01*
X135699469Y-85638867D01*
X135699475Y-85638862D01*
X135708478Y-85635135D01*
X135709560Y-85637748D01*
X135753877Y-85625245D01*
X135790666Y-85637196D01*
X135791521Y-85635134D01*
X135800527Y-85638863D01*
X135800532Y-85638867D01*
X135844994Y-85647711D01*
X135859004Y-85650498D01*
X135859009Y-85650498D01*
X135859015Y-85650500D01*
X135946001Y-85650500D01*
X136004192Y-85669407D01*
X136040156Y-85718907D01*
X136045001Y-85749500D01*
X136045001Y-85854262D01*
X136060644Y-85932904D01*
X136082316Y-85985226D01*
X136082318Y-85985230D01*
X136093114Y-86002411D01*
X136108064Y-86061742D01*
X136106386Y-86074394D01*
X136099501Y-86109006D01*
X136099501Y-86390982D01*
X136099502Y-86390994D01*
X136111133Y-86449463D01*
X136111134Y-86449467D01*
X136111135Y-86449468D01*
X136114867Y-86458479D01*
X136112256Y-86459560D01*
X136124755Y-86503896D01*
X136112807Y-86540668D01*
X136114867Y-86541521D01*
X136111133Y-86550536D01*
X136099502Y-86609005D01*
X136099501Y-86609017D01*
X136099501Y-86890984D01*
X136099502Y-86890996D01*
X136103704Y-86912118D01*
X136111134Y-86949469D01*
X136111135Y-86949470D01*
X136114867Y-86958481D01*
X136112254Y-86959562D01*
X136124755Y-87003890D01*
X136112806Y-87040671D01*
X136114865Y-87041524D01*
X136111133Y-87050531D01*
X136099501Y-87109012D01*
X136099501Y-87390983D01*
X136099502Y-87390995D01*
X136107379Y-87430592D01*
X136111134Y-87449468D01*
X136111135Y-87449469D01*
X136114867Y-87458480D01*
X136112254Y-87459561D01*
X136124755Y-87503889D01*
X136112806Y-87540670D01*
X136114865Y-87541523D01*
X136111133Y-87550530D01*
X136099501Y-87609011D01*
X136099501Y-87890982D01*
X136099502Y-87890994D01*
X136107117Y-87929273D01*
X136111134Y-87949467D01*
X136111135Y-87949469D01*
X136114867Y-87958478D01*
X136112254Y-87959559D01*
X136124756Y-88003889D01*
X136112807Y-88040666D01*
X136114867Y-88041520D01*
X136111133Y-88050535D01*
X136099502Y-88109004D01*
X136099501Y-88109016D01*
X136099501Y-88390987D01*
X136111133Y-88449468D01*
X136114865Y-88458476D01*
X136112254Y-88459557D01*
X136124754Y-88503902D01*
X136112806Y-88540671D01*
X136114865Y-88541524D01*
X136111133Y-88550531D01*
X136099501Y-88609012D01*
X136099501Y-88890983D01*
X136099502Y-88890995D01*
X136111133Y-88949464D01*
X136111134Y-88949468D01*
X136111135Y-88949470D01*
X136114867Y-88958479D01*
X136112254Y-88959560D01*
X136124756Y-89003890D01*
X136112807Y-89040667D01*
X136114867Y-89041521D01*
X136111133Y-89050536D01*
X136099502Y-89109005D01*
X136099501Y-89109017D01*
X136099501Y-89390984D01*
X136099502Y-89390996D01*
X136111133Y-89449465D01*
X136111135Y-89449471D01*
X136142299Y-89496110D01*
X136155449Y-89515790D01*
X136221770Y-89560105D01*
X136266232Y-89568949D01*
X136280242Y-89571736D01*
X136280247Y-89571736D01*
X136280253Y-89571738D01*
X136280254Y-89571738D01*
X137225814Y-89571738D01*
X137225815Y-89571738D01*
X137255866Y-89565760D01*
X137316625Y-89572949D01*
X137345185Y-89592853D01*
X137532827Y-89780495D01*
X137560604Y-89835012D01*
X137551033Y-89895444D01*
X137507768Y-89938709D01*
X137462823Y-89949499D01*
X137327176Y-89949499D01*
X137289290Y-89941963D01*
X137284300Y-89939896D01*
X137284299Y-89939895D01*
X137284298Y-89939895D01*
X137225815Y-89928262D01*
X136280253Y-89928262D01*
X136280252Y-89928262D01*
X136280242Y-89928263D01*
X136221773Y-89939894D01*
X136221767Y-89939896D01*
X136155452Y-89984207D01*
X136155446Y-89984213D01*
X136111135Y-90050528D01*
X136111133Y-90050534D01*
X136099502Y-90109003D01*
X136099501Y-90109015D01*
X136099501Y-90390982D01*
X136099502Y-90390994D01*
X136111133Y-90449463D01*
X136111135Y-90449469D01*
X136155446Y-90515784D01*
X136155449Y-90515788D01*
X136221770Y-90560103D01*
X136266232Y-90568947D01*
X136280242Y-90571734D01*
X136280247Y-90571734D01*
X136280253Y-90571736D01*
X136280254Y-90571736D01*
X137225814Y-90571736D01*
X137225815Y-90571736D01*
X137225816Y-90571735D01*
X137225822Y-90571735D01*
X137255863Y-90565759D01*
X137316624Y-90572949D01*
X137345183Y-90592852D01*
X137520504Y-90768173D01*
X137548281Y-90822690D01*
X137549500Y-90838177D01*
X137549500Y-90955497D01*
X137530593Y-91013688D01*
X137481093Y-91049652D01*
X137419907Y-91049652D01*
X137370407Y-91013688D01*
X137368186Y-91010500D01*
X137350622Y-90984215D01*
X137350621Y-90984214D01*
X137350619Y-90984211D01*
X137313386Y-90959332D01*
X137284300Y-90939897D01*
X137284298Y-90939896D01*
X137284295Y-90939895D01*
X137284294Y-90939895D01*
X137225825Y-90928264D01*
X137225815Y-90928263D01*
X136280253Y-90928263D01*
X136280252Y-90928263D01*
X136280242Y-90928264D01*
X136221773Y-90939895D01*
X136221767Y-90939897D01*
X136155452Y-90984208D01*
X136155446Y-90984214D01*
X136111135Y-91050529D01*
X136111133Y-91050535D01*
X136099502Y-91109004D01*
X136099501Y-91109016D01*
X136099501Y-91250500D01*
X136080594Y-91308691D01*
X136031094Y-91344655D01*
X136000501Y-91349500D01*
X135859013Y-91349500D01*
X135800532Y-91361132D01*
X135791525Y-91364864D01*
X135790443Y-91362253D01*
X135746099Y-91374753D01*
X135709329Y-91362805D01*
X135708477Y-91364864D01*
X135699469Y-91361132D01*
X135640988Y-91349500D01*
X135640986Y-91349500D01*
X135359016Y-91349500D01*
X135359013Y-91349500D01*
X135300532Y-91361132D01*
X135291525Y-91364864D01*
X135290443Y-91362253D01*
X135246099Y-91374753D01*
X135209335Y-91362805D01*
X135208482Y-91364866D01*
X135199472Y-91361134D01*
X135199470Y-91361133D01*
X135199466Y-91361132D01*
X135140997Y-91349501D01*
X135140987Y-91349500D01*
X134859017Y-91349500D01*
X134859016Y-91349500D01*
X134859006Y-91349501D01*
X134800537Y-91361132D01*
X134800535Y-91361132D01*
X134800534Y-91361133D01*
X134800533Y-91361133D01*
X134791522Y-91364866D01*
X134790440Y-91362255D01*
X134746105Y-91374754D01*
X134709333Y-91362805D01*
X134708480Y-91364866D01*
X134699471Y-91361134D01*
X134699469Y-91361133D01*
X134699465Y-91361132D01*
X134640996Y-91349501D01*
X134640986Y-91349500D01*
X134359016Y-91349500D01*
X134359013Y-91349500D01*
X134300532Y-91361132D01*
X134291525Y-91364864D01*
X134290443Y-91362253D01*
X134246099Y-91374753D01*
X134209329Y-91362805D01*
X134208477Y-91364864D01*
X134199469Y-91361132D01*
X134140988Y-91349500D01*
X134140986Y-91349500D01*
X133859016Y-91349500D01*
X133859015Y-91349500D01*
X133859005Y-91349501D01*
X133800536Y-91361132D01*
X133800534Y-91361132D01*
X133800533Y-91361133D01*
X133800532Y-91361133D01*
X133791521Y-91364866D01*
X133790439Y-91362255D01*
X133746104Y-91374754D01*
X133709332Y-91362805D01*
X133708479Y-91364866D01*
X133699470Y-91361134D01*
X133699468Y-91361133D01*
X133699464Y-91361132D01*
X133640995Y-91349501D01*
X133640985Y-91349500D01*
X133359015Y-91349500D01*
X133359012Y-91349500D01*
X133300531Y-91361132D01*
X133291524Y-91364864D01*
X133290442Y-91362253D01*
X133246098Y-91374753D01*
X133209334Y-91362805D01*
X133208481Y-91364866D01*
X133199471Y-91361134D01*
X133199469Y-91361133D01*
X133199465Y-91361132D01*
X133140996Y-91349501D01*
X133140986Y-91349500D01*
X132859016Y-91349500D01*
X132859013Y-91349500D01*
X132800532Y-91361132D01*
X132791525Y-91364864D01*
X132790443Y-91362253D01*
X132746099Y-91374753D01*
X132709335Y-91362805D01*
X132708482Y-91364866D01*
X132699472Y-91361134D01*
X132699470Y-91361133D01*
X132699466Y-91361132D01*
X132640997Y-91349501D01*
X132640987Y-91349500D01*
X132640986Y-91349500D01*
X132499501Y-91349500D01*
X132441310Y-91330593D01*
X132405346Y-91281093D01*
X132400501Y-91250500D01*
X132400501Y-91109016D01*
X132400499Y-91109004D01*
X132394468Y-91078686D01*
X132388868Y-91050532D01*
X132388864Y-91050527D01*
X132385135Y-91041521D01*
X132387747Y-91040439D01*
X132375246Y-90996110D01*
X132387198Y-90959332D01*
X132385136Y-90958478D01*
X132388863Y-90949475D01*
X132388868Y-90949469D01*
X132400501Y-90890986D01*
X132400501Y-90609016D01*
X132388868Y-90550533D01*
X132388864Y-90550528D01*
X132385136Y-90541524D01*
X132387747Y-90540442D01*
X132375245Y-90496116D01*
X132387197Y-90459329D01*
X132385136Y-90458476D01*
X132388863Y-90449473D01*
X132388868Y-90449467D01*
X132400501Y-90390984D01*
X132400501Y-90109014D01*
X132388868Y-90050531D01*
X132388864Y-90050526D01*
X132385135Y-90041520D01*
X132387747Y-90040438D01*
X132375246Y-89996109D01*
X132387198Y-89959331D01*
X132385136Y-89958477D01*
X132388863Y-89949474D01*
X132388868Y-89949468D01*
X132400501Y-89890985D01*
X132400501Y-89609015D01*
X132388868Y-89550532D01*
X132388864Y-89550527D01*
X132385135Y-89541521D01*
X132387747Y-89540439D01*
X132375246Y-89496110D01*
X132387198Y-89459332D01*
X132385136Y-89458478D01*
X132388863Y-89449475D01*
X132388868Y-89449469D01*
X132400501Y-89390986D01*
X132400501Y-89109016D01*
X132388868Y-89050533D01*
X132388864Y-89050528D01*
X132385136Y-89041524D01*
X132387747Y-89040442D01*
X132375245Y-88996116D01*
X132387200Y-88959335D01*
X132385135Y-88958480D01*
X132388864Y-88949472D01*
X132388868Y-88949468D01*
X132400501Y-88890985D01*
X132400501Y-88609015D01*
X132388868Y-88550532D01*
X132344553Y-88484211D01*
X132323254Y-88469979D01*
X132278234Y-88439897D01*
X132278232Y-88439896D01*
X132278229Y-88439895D01*
X132278228Y-88439895D01*
X132219759Y-88428264D01*
X132219749Y-88428263D01*
X131274187Y-88428263D01*
X131274186Y-88428263D01*
X131254867Y-88432105D01*
X131215704Y-88439896D01*
X131215703Y-88439896D01*
X131215701Y-88439897D01*
X131210712Y-88441964D01*
X131172826Y-88449500D01*
X130289562Y-88449500D01*
X130210438Y-88449500D01*
X130163661Y-88462033D01*
X130134007Y-88469979D01*
X130065493Y-88509536D01*
X127814525Y-90760504D01*
X127760008Y-90788281D01*
X127744521Y-90789500D01*
X126906115Y-90789500D01*
X126847924Y-90770593D01*
X126811960Y-90721093D01*
X126811960Y-90659907D01*
X126831293Y-90625670D01*
X126884820Y-90563898D01*
X126944608Y-90432982D01*
X126965090Y-90290525D01*
X126959335Y-90250500D01*
X126944608Y-90148068D01*
X126932773Y-90122154D01*
X126884820Y-90017152D01*
X126790571Y-89908382D01*
X126790570Y-89908381D01*
X126785934Y-89903031D01*
X126787967Y-89901268D01*
X126762510Y-89859030D01*
X126759943Y-89836630D01*
X126759943Y-88161627D01*
X126778850Y-88103436D01*
X126828350Y-88067472D01*
X126889536Y-88067472D01*
X126938598Y-88102839D01*
X126952850Y-88122150D01*
X126952853Y-88122152D01*
X126952855Y-88122154D01*
X127062116Y-88202792D01*
X127062117Y-88202792D01*
X127062118Y-88202793D01*
X127190301Y-88247646D01*
X127220725Y-88250499D01*
X127220727Y-88250500D01*
X127220734Y-88250500D01*
X128279273Y-88250500D01*
X128279273Y-88250499D01*
X128309699Y-88247646D01*
X128437882Y-88202793D01*
X128547150Y-88122150D01*
X128551635Y-88116072D01*
X128570354Y-88090711D01*
X128620121Y-88055118D01*
X128650009Y-88050499D01*
X131172826Y-88050499D01*
X131210712Y-88058035D01*
X131215701Y-88060101D01*
X131215704Y-88060103D01*
X131274187Y-88071736D01*
X131274188Y-88071736D01*
X132219748Y-88071736D01*
X132219749Y-88071736D01*
X132278232Y-88060103D01*
X132344553Y-88015788D01*
X132388868Y-87949467D01*
X132400501Y-87890984D01*
X132400501Y-87609014D01*
X132388868Y-87550531D01*
X132388864Y-87550526D01*
X132385135Y-87541520D01*
X132387747Y-87540438D01*
X132375246Y-87496109D01*
X132387198Y-87459331D01*
X132385136Y-87458477D01*
X132388863Y-87449474D01*
X132388868Y-87449468D01*
X132400501Y-87390985D01*
X132400501Y-87109015D01*
X132388868Y-87050532D01*
X132388864Y-87050527D01*
X132385135Y-87041521D01*
X132387747Y-87040439D01*
X132375246Y-86996110D01*
X132387198Y-86959332D01*
X132385136Y-86958478D01*
X132388863Y-86949475D01*
X132388868Y-86949469D01*
X132400501Y-86890986D01*
X132400501Y-86609016D01*
X132388868Y-86550533D01*
X132388864Y-86550528D01*
X132385136Y-86541524D01*
X132387747Y-86540442D01*
X132375245Y-86496116D01*
X132387197Y-86459329D01*
X132385136Y-86458476D01*
X132388863Y-86449473D01*
X132388868Y-86449467D01*
X132400501Y-86390984D01*
X132400501Y-86109014D01*
X132388868Y-86050531D01*
X132388864Y-86050526D01*
X132385135Y-86041520D01*
X132387747Y-86040438D01*
X132375246Y-85996109D01*
X132387198Y-85959331D01*
X132385136Y-85958477D01*
X132388863Y-85949474D01*
X132388868Y-85949468D01*
X132400501Y-85890985D01*
X132400501Y-85749500D01*
X132419408Y-85691309D01*
X132468908Y-85655345D01*
X132499501Y-85650500D01*
X132640986Y-85650500D01*
X132640987Y-85650500D01*
X132699470Y-85638867D01*
X132699476Y-85638862D01*
X132708479Y-85635135D01*
X132709561Y-85637748D01*
X132753878Y-85625245D01*
X132790667Y-85637196D01*
X132791522Y-85635134D01*
X132800528Y-85638863D01*
X132800533Y-85638867D01*
X132844995Y-85647711D01*
X132859005Y-85650498D01*
X132859010Y-85650498D01*
X132859016Y-85650500D01*
X132859017Y-85650500D01*
X133140985Y-85650500D01*
X133140986Y-85650500D01*
X133140987Y-85650499D01*
X133140993Y-85650499D01*
X133176926Y-85643351D01*
X133237687Y-85650541D01*
X133253528Y-85659706D01*
X133258599Y-85663304D01*
X133264771Y-85667683D01*
X133317097Y-85689357D01*
X133395738Y-85705000D01*
X133395739Y-85705000D01*
X133604263Y-85705000D01*
X133604264Y-85705000D01*
X133682905Y-85689357D01*
X133735231Y-85667683D01*
X133752412Y-85656887D01*
X133811739Y-85641935D01*
X133824391Y-85643612D01*
X133851011Y-85648907D01*
X133859010Y-85650499D01*
X133859013Y-85650499D01*
X133859016Y-85650500D01*
X133859017Y-85650500D01*
X134140985Y-85650500D01*
X134140986Y-85650500D01*
X134199469Y-85638867D01*
X134199475Y-85638862D01*
X134208480Y-85635134D01*
X134209562Y-85637747D01*
X134253872Y-85625244D01*
X134290666Y-85637198D01*
G37*
%TD.AperFunction*%
%TD*%
%TA.AperFunction,Conductor*%
%TO.N,/OUTB*%
G36*
X135209191Y-82018907D02*
G01*
X135245155Y-82068407D01*
X135250000Y-82099000D01*
X135250000Y-83404259D01*
X135231093Y-83462450D01*
X135181593Y-83498414D01*
X135178892Y-83499249D01*
X135039947Y-83540047D01*
X135039942Y-83540049D01*
X134918873Y-83617855D01*
X134824622Y-83726628D01*
X134764834Y-83857543D01*
X134744353Y-83999997D01*
X134744353Y-84000002D01*
X134764833Y-84142454D01*
X134812578Y-84246999D01*
X134819552Y-84307785D01*
X134789465Y-84361062D01*
X134777527Y-84370440D01*
X134734214Y-84399381D01*
X134734210Y-84399385D01*
X134689899Y-84465700D01*
X134689897Y-84465706D01*
X134678266Y-84524175D01*
X134678265Y-84524187D01*
X134678265Y-85151000D01*
X134659358Y-85209191D01*
X134609858Y-85245155D01*
X134579265Y-85250000D01*
X133920737Y-85250000D01*
X133862546Y-85231093D01*
X133826582Y-85181593D01*
X133821737Y-85151000D01*
X133821737Y-84524187D01*
X133821735Y-84524175D01*
X133816827Y-84499500D01*
X133810104Y-84465703D01*
X133765789Y-84399382D01*
X133722472Y-84370438D01*
X133684594Y-84322389D01*
X133682192Y-84261251D01*
X133687419Y-84247004D01*
X133735165Y-84142457D01*
X133745406Y-84071228D01*
X133755647Y-84000002D01*
X133755647Y-83999997D01*
X133735165Y-83857543D01*
X133727418Y-83840579D01*
X133675377Y-83726627D01*
X133581128Y-83617857D01*
X133581127Y-83617856D01*
X133581126Y-83617855D01*
X133460057Y-83540049D01*
X133460054Y-83540048D01*
X133460053Y-83540047D01*
X133411083Y-83525668D01*
X133321108Y-83499249D01*
X133270602Y-83464713D01*
X133250040Y-83407086D01*
X133250000Y-83404259D01*
X133250000Y-82099000D01*
X133268907Y-82040809D01*
X133318407Y-82004845D01*
X133349000Y-82000000D01*
X135151000Y-82000000D01*
X135209191Y-82018907D01*
G37*
%TD.AperFunction*%
%TD*%
M02*
