M48
; DRILL file {KiCad 8.0.7} date 2025-03-05T23:48:37-0600
; FORMAT={-:-/ absolute / inch / decimal}
; #@! TF.CreationDate,2025-03-05T23:48:37-06:00
; #@! TF.GenerationSoftware,Kicad,Pcbnew,8.0.7
; #@! TF.FileFunction,Plated,1,2,PTH
FMAT,2
INCH
; #@! TA.AperFunction,Plated,PTH,ViaDrill
T1C0.0118
; #@! TA.AperFunction,Plated,PTH,ComponentDrill
T2C0.0866
%
G90
G05
T1
X5.4331Y-3.6614
X5.4921Y-3.6516
X5.5356Y-3.9526
X5.5947Y-4.0116
X5.6102Y-3.622
X5.614Y-3.6675
X5.6651Y-3.6555
X5.6955Y-3.647
X5.7083Y-3.687
X5.7213Y-3.7178
X5.7269Y-3.8771
X5.7602Y-3.7817
X5.7695Y-3.8731
X5.7874Y-3.7106
X5.8029Y-3.8755
X5.817Y-3.9068
X5.8563Y-3.6614
X5.8957Y-3.6024
X5.9039Y-4.0031
X5.9114Y-3.9705
X5.9124Y-4.0634
X5.935Y-3.9469
T2
G00X5.4295Y-3.7837
M15
G01X5.5397Y-3.7837
M16
G05
G00X5.7602Y-3.4333
M15
G01X5.7602Y-3.5435
M16
G05
G00X5.7602Y-4.0238
M15
G01X5.7602Y-4.1341
M16
G05
G00X5.9806Y-3.7837
M15
G01X6.0909Y-3.7837
M16
G05
M30
