%TF.GenerationSoftware,KiCad,Pcbnew,8.0.7*%
%TF.CreationDate,2025-03-05T23:48:34-06:00*%
%TF.ProjectId,MagEncoder,4d616745-6e63-46f6-9465-722e6b696361,rev?*%
%TF.SameCoordinates,Original*%
%TF.FileFunction,Copper,L2,Bot*%
%TF.FilePolarity,Positive*%
%FSLAX46Y46*%
G04 Gerber Fmt 4.6, Leading zero omitted, Abs format (unit mm)*
G04 Created by KiCad (PCBNEW 8.0.7) date 2025-03-05 23:48:34*
%MOMM*%
%LPD*%
G01*
G04 APERTURE LIST*
G04 Aperture macros list*
%AMRoundRect*
0 Rectangle with rounded corners*
0 $1 Rounding radius*
0 $2 $3 $4 $5 $6 $7 $8 $9 X,Y pos of 4 corners*
0 Add a 4 corners polygon primitive as box body*
4,1,4,$2,$3,$4,$5,$6,$7,$8,$9,$2,$3,0*
0 Add four circle primitives for the rounded corners*
1,1,$1+$1,$2,$3*
1,1,$1+$1,$4,$5*
1,1,$1+$1,$6,$7*
1,1,$1+$1,$8,$9*
0 Add four rect primitives between the rounded corners*
20,1,$1+$1,$2,$3,$4,$5,0*
20,1,$1+$1,$4,$5,$6,$7,0*
20,1,$1+$1,$6,$7,$8,$9,0*
20,1,$1+$1,$8,$9,$2,$3,0*%
%AMFreePoly0*
4,1,19,0.500000,-0.750000,0.000000,-0.750000,0.000000,-0.744911,-0.071157,-0.744911,-0.207708,-0.704816,-0.327430,-0.627875,-0.420627,-0.520320,-0.479746,-0.390866,-0.500000,-0.250000,-0.500000,0.250000,-0.479746,0.390866,-0.420627,0.520320,-0.327430,0.627875,-0.207708,0.704816,-0.071157,0.744911,0.000000,0.744911,0.000000,0.750000,0.500000,0.750000,0.500000,-0.750000,0.500000,-0.750000,
$1*%
%AMFreePoly1*
4,1,19,0.000000,0.744911,0.071157,0.744911,0.207708,0.704816,0.327430,0.627875,0.420627,0.520320,0.479746,0.390866,0.500000,0.250000,0.500000,-0.250000,0.479746,-0.390866,0.420627,-0.520320,0.327430,-0.627875,0.207708,-0.704816,0.071157,-0.744911,0.000000,-0.744911,0.000000,-0.750000,-0.500000,-0.750000,-0.500000,0.750000,0.000000,0.750000,0.000000,0.744911,0.000000,0.744911,
$1*%
G04 Aperture macros list end*
%TA.AperFunction,EtchedComponent*%
%ADD10C,0.000000*%
%TD*%
%TA.AperFunction,SMDPad,CuDef*%
%ADD11FreePoly0,180.000000*%
%TD*%
%TA.AperFunction,SMDPad,CuDef*%
%ADD12FreePoly1,180.000000*%
%TD*%
%TA.AperFunction,SMDPad,CuDef*%
%ADD13RoundRect,0.237500X-0.008839X-0.344715X0.344715X0.008839X0.008839X0.344715X-0.344715X-0.008839X0*%
%TD*%
%TA.AperFunction,SMDPad,CuDef*%
%ADD14RoundRect,0.250000X-0.475000X0.337500X-0.475000X-0.337500X0.475000X-0.337500X0.475000X0.337500X0*%
%TD*%
%TA.AperFunction,SMDPad,CuDef*%
%ADD15RoundRect,0.150000X-0.388909X0.601041X-0.601041X0.388909X0.388909X-0.601041X0.601041X-0.388909X0*%
%TD*%
%TA.AperFunction,SMDPad,CuDef*%
%ADD16RoundRect,0.250000X-0.601041X0.954594X-0.954594X0.601041X0.601041X-0.954594X0.954594X-0.601041X0*%
%TD*%
%TA.AperFunction,ComponentPad*%
%ADD17O,7.000000X4.000000*%
%TD*%
%TA.AperFunction,ComponentPad*%
%ADD18O,4.000000X7.000000*%
%TD*%
%TA.AperFunction,SMDPad,CuDef*%
%ADD19RoundRect,0.150000X0.388909X-0.601041X0.601041X-0.388909X-0.388909X0.601041X-0.601041X0.388909X0*%
%TD*%
%TA.AperFunction,SMDPad,CuDef*%
%ADD20RoundRect,0.250000X0.601041X-0.954594X0.954594X-0.601041X-0.601041X0.954594X-0.954594X0.601041X0*%
%TD*%
%TA.AperFunction,ViaPad*%
%ADD21C,0.600000*%
%TD*%
%TA.AperFunction,Conductor*%
%ADD22C,0.200000*%
%TD*%
G04 APERTURE END LIST*
D10*
%TA.AperFunction,EtchedComponent*%
%TO.C,JP1*%
G36*
X151283345Y-91705687D02*
G01*
X150783345Y-91705687D01*
X150783345Y-91105687D01*
X151283345Y-91105687D01*
X151283345Y-91705687D01*
G37*
%TD.AperFunction*%
%TD*%
D11*
%TO.P,JP1,1,A*%
%TO.N,/VDD{slash}CSN*%
X151683345Y-91405687D03*
D12*
%TO.P,JP1,2,B*%
%TO.N,+5V*%
X150383345Y-91405687D03*
%TD*%
D13*
%TO.P,R2,1*%
%TO.N,+5V*%
X140604765Y-100395235D03*
%TO.P,R2,2*%
%TO.N,/SDA{slash}DO*%
X141895235Y-99104765D03*
%TD*%
%TO.P,R1,1*%
%TO.N,+5V*%
X142104765Y-101895235D03*
%TO.P,R1,2*%
%TO.N,/SCL{slash}CLK*%
X143395235Y-100604765D03*
%TD*%
D14*
%TO.P,C1,1*%
%TO.N,+5V*%
X147000000Y-94250000D03*
%TO.P,C1,2*%
%TO.N,GND*%
X147000000Y-96325000D03*
%TD*%
D15*
%TO.P,J2,1,Pin_1*%
%TO.N,Net-(J2-Pin_1)*%
X153709619Y-99674086D03*
%TO.P,J2,2,Pin_2*%
%TO.N,Net-(J2-Pin_2)*%
X152825736Y-100557969D03*
%TO.P,J2,3,Pin_3*%
%TO.N,Net-(J2-Pin_3)*%
X151941852Y-101441852D03*
%TO.P,J2,4,Pin_4*%
%TO.N,Net-(J2-Pin_4)*%
X151057969Y-102325736D03*
%TO.P,J2,5,Pin_5*%
%TO.N,GND*%
X150174086Y-103209619D03*
D16*
%TO.P,J2,MP*%
%TO.N,N/C*%
X157280509Y-100628680D03*
X151128680Y-106780509D03*
%TD*%
D17*
%TO.P,REF\u002A\u002A,1*%
%TO.N,N/C*%
X153308345Y-96105687D03*
D18*
X146308345Y-88605687D03*
X146308345Y-103605687D03*
D17*
X139308345Y-96105687D03*
%TD*%
D19*
%TO.P,J1,1,Pin_1*%
%TO.N,+5V*%
X139398726Y-92681601D03*
%TO.P,J1,2,Pin_2*%
%TO.N,/VDD{slash}CSN*%
X140282609Y-91797718D03*
%TO.P,J1,3,Pin_3*%
%TO.N,/SCL{slash}CLK*%
X141166493Y-90913835D03*
%TO.P,J1,4,Pin_4*%
%TO.N,/SDA{slash}DO*%
X142050376Y-90029951D03*
%TO.P,J1,5,Pin_5*%
%TO.N,GND*%
X142934259Y-89146068D03*
D20*
%TO.P,J1,MP*%
%TO.N,N/C*%
X135827836Y-91727007D03*
X141979665Y-85575178D03*
%TD*%
D21*
%TO.N,+5V*%
X139500000Y-92750000D03*
%TO.N,GND*%
X138000000Y-93000000D03*
X150174086Y-103209619D03*
X144665197Y-92634469D03*
X148750000Y-93000000D03*
%TO.N,Net-(J2-Pin_2)*%
X150750000Y-100250000D03*
%TO.N,Net-(J2-Pin_3)*%
X150148957Y-100851043D03*
%TO.N,Net-(J2-Pin_4)*%
X149958798Y-101679502D03*
%TO.N,/VDD{slash}CSN*%
X142595137Y-93154863D03*
X144990857Y-93648777D03*
%TO.N,/SCL{slash}CLK*%
X142500000Y-92000000D03*
X143894142Y-92849660D03*
%TO.N,Net-(J2-Pin_1)*%
X147751975Y-99231877D03*
%TO.N,GND*%
X145321768Y-94431721D03*
%TO.N,/VDD{slash}CSN*%
X147393729Y-98438143D03*
%TO.N,/SDA{slash}DO*%
X145462615Y-98479391D03*
%TO.N,/SCL{slash}CLK*%
X146545949Y-98376709D03*
%TO.N,+5V*%
X140604765Y-100395235D03*
X142104765Y-101895235D03*
X147000000Y-94250000D03*
%TO.N,GND*%
X146308345Y-96055687D03*
%TO.N,+5V*%
X149750000Y-91500000D03*
%TD*%
D22*
%TO.N,/VDD{slash}CSN*%
X145389634Y-93250000D02*
X144990857Y-93648777D01*
X147597244Y-93250000D02*
X145389634Y-93250000D01*
%TO.N,/SDA{slash}DO*%
X143150000Y-93519239D02*
X143150000Y-96166776D01*
%TO.N,/SCL{slash}CLK*%
X143894142Y-94816386D02*
X143894142Y-92849660D01*
%TO.N,/SDA{slash}DO*%
X143245137Y-90800448D02*
X143245137Y-93424102D01*
%TO.N,/VDD{slash}CSN*%
X140282609Y-91797718D02*
X141639754Y-93154863D01*
%TO.N,/SDA{slash}DO*%
X142474640Y-90029951D02*
X143245137Y-90800448D01*
X143245137Y-93424102D02*
X143150000Y-93519239D01*
%TO.N,/SCL{slash}CLK*%
X146545949Y-97468193D02*
X143894142Y-94816386D01*
%TO.N,/SDA{slash}DO*%
X143150000Y-96166776D02*
X145462615Y-98479391D01*
%TO.N,/SCL{slash}CLK*%
X146545949Y-98376709D02*
X146545949Y-97468193D01*
%TO.N,/SDA{slash}DO*%
X142050376Y-90029951D02*
X142474640Y-90029951D01*
%TO.N,/VDD{slash}CSN*%
X141639754Y-93154863D02*
X142595137Y-93154863D01*
%TO.N,Net-(J2-Pin_1)*%
X147751975Y-99231877D02*
X148608345Y-100088247D01*
X148608345Y-100088247D02*
X148608345Y-102608345D01*
X148608345Y-102608345D02*
X150263598Y-104263598D01*
X150263598Y-104263598D02*
X150986402Y-104263598D01*
X150986402Y-104263598D02*
X153879715Y-101370285D01*
X153879715Y-101370285D02*
X153879715Y-99844182D01*
X153879715Y-99844182D02*
X153709619Y-99674086D01*
%TO.N,/VDD{slash}CSN*%
X147709744Y-95137500D02*
X147709744Y-95437500D01*
X148025000Y-94822244D02*
X147709744Y-95137500D01*
X148025000Y-95752756D02*
X148025000Y-97806872D01*
X147709744Y-95437500D02*
X148025000Y-95752756D01*
X147597244Y-93250000D02*
X148025000Y-93677756D01*
X148025000Y-93677756D02*
X148025000Y-94822244D01*
%TO.N,/SCL{slash}CLK*%
X143395235Y-100604765D02*
X144317893Y-100604765D01*
X144317893Y-100604765D02*
X146545949Y-98376709D01*
%TO.N,/VDD{slash}CSN*%
X148025000Y-97806872D02*
X147393729Y-98438143D01*
%TO.N,Net-(J2-Pin_2)*%
X150750000Y-100250000D02*
X152517767Y-100250000D01*
X152517767Y-100250000D02*
X152825736Y-100557969D01*
%TO.N,Net-(J2-Pin_3)*%
X151941852Y-101441852D02*
X151351043Y-100851043D01*
%TO.N,Net-(J2-Pin_4)*%
X150605032Y-102325736D02*
X149958798Y-101679502D01*
X151057969Y-102325736D02*
X150605032Y-102325736D01*
%TO.N,Net-(J2-Pin_3)*%
X151351043Y-100851043D02*
X150148957Y-100851043D01*
%TO.N,/SDA{slash}DO*%
X141895235Y-99104765D02*
X144837241Y-99104765D01*
X144837241Y-99104765D02*
X145462615Y-98479391D01*
%TO.N,/VDD{slash}CSN*%
X151758345Y-91405687D02*
X151758345Y-90650687D01*
X151758345Y-90650687D02*
X151458345Y-90350687D01*
X151458345Y-90350687D02*
X149649313Y-90350687D01*
X149649313Y-90350687D02*
X147597244Y-92402756D01*
X147597244Y-92402756D02*
X147597244Y-93250000D01*
%TO.N,/SCL{slash}CLK*%
X142500000Y-92000000D02*
X142252658Y-92000000D01*
X142252658Y-92000000D02*
X141166493Y-90913835D01*
%TD*%
%TA.AperFunction,Conductor*%
%TO.N,GND*%
G36*
X148725675Y-86653266D02*
G01*
X148745376Y-86669391D01*
X155879153Y-93851965D01*
X155884720Y-93857570D01*
X155917995Y-93919007D01*
X155912773Y-93988681D01*
X155870712Y-94044472D01*
X155805164Y-94068665D01*
X155749288Y-94059513D01*
X155533312Y-93970053D01*
X155533300Y-93970049D01*
X155533297Y-93970048D01*
X155248338Y-93893694D01*
X155199458Y-93887258D01*
X154955858Y-93855187D01*
X154955851Y-93855187D01*
X151660839Y-93855187D01*
X151660831Y-93855187D01*
X151382430Y-93891840D01*
X151368352Y-93893694D01*
X151174183Y-93945721D01*
X151083393Y-93970048D01*
X151083383Y-93970051D01*
X150810844Y-94082941D01*
X150810834Y-94082945D01*
X150555351Y-94230448D01*
X150321304Y-94410039D01*
X150321297Y-94410045D01*
X150112703Y-94618639D01*
X150112697Y-94618646D01*
X149933106Y-94852693D01*
X149785603Y-95108176D01*
X149785599Y-95108186D01*
X149672709Y-95380725D01*
X149672706Y-95380735D01*
X149599831Y-95652712D01*
X149596353Y-95665691D01*
X149596351Y-95665702D01*
X149557845Y-95958173D01*
X149557845Y-96253200D01*
X149559248Y-96263853D01*
X149596352Y-96545680D01*
X149649217Y-96742975D01*
X149672706Y-96830638D01*
X149672709Y-96830648D01*
X149785599Y-97103187D01*
X149785603Y-97103197D01*
X149933106Y-97358680D01*
X150112697Y-97592727D01*
X150112703Y-97592734D01*
X150321297Y-97801328D01*
X150321304Y-97801334D01*
X150555351Y-97980925D01*
X150810834Y-98128428D01*
X150810835Y-98128428D01*
X150810838Y-98128430D01*
X151083393Y-98241326D01*
X151368352Y-98317680D01*
X151660839Y-98356187D01*
X151660846Y-98356187D01*
X154955844Y-98356187D01*
X154955851Y-98356187D01*
X155248338Y-98317680D01*
X155533297Y-98241326D01*
X155805852Y-98128430D01*
X156061339Y-97980925D01*
X156295387Y-97801333D01*
X156503991Y-97592729D01*
X156683583Y-97358681D01*
X156831088Y-97103194D01*
X156943984Y-96830639D01*
X157020338Y-96545680D01*
X157058845Y-96253193D01*
X157058845Y-95958181D01*
X157020338Y-95665694D01*
X156943984Y-95380735D01*
X156916282Y-95313856D01*
X156860216Y-95178500D01*
X156852747Y-95109030D01*
X156884022Y-95046551D01*
X156944111Y-95010899D01*
X157013936Y-95013393D01*
X157062755Y-95043664D01*
X157217848Y-95199817D01*
X157512412Y-95496397D01*
X157545687Y-95557834D01*
X157548231Y-95576727D01*
X157572363Y-96000384D01*
X157572564Y-96007701D01*
X157571189Y-96650763D01*
X157570957Y-96658079D01*
X157531645Y-97299920D01*
X157530982Y-97307209D01*
X157453869Y-97945618D01*
X157452777Y-97952855D01*
X157338136Y-98585580D01*
X157336620Y-98592740D01*
X157186679Y-99210061D01*
X157151727Y-99270561D01*
X157089616Y-99302560D01*
X157020064Y-99295899D01*
X156988377Y-99277346D01*
X156952841Y-99248709D01*
X156952837Y-99248707D01*
X156821925Y-99188920D01*
X156699949Y-99171383D01*
X156679468Y-99168439D01*
X156679467Y-99168439D01*
X156537011Y-99188920D01*
X156406097Y-99248707D01*
X156406092Y-99248710D01*
X156359417Y-99286324D01*
X156359410Y-99286330D01*
X155938161Y-99707580D01*
X155938152Y-99707590D01*
X155900537Y-99754265D01*
X155840749Y-99885182D01*
X155820268Y-100027638D01*
X155840749Y-100170096D01*
X155900536Y-100301009D01*
X155900537Y-100301010D01*
X155900538Y-100301012D01*
X155938157Y-100347695D01*
X155938160Y-100347698D01*
X155938165Y-100347704D01*
X156485078Y-100894616D01*
X156518563Y-100955939D01*
X156513579Y-101025630D01*
X156510851Y-101032339D01*
X156505592Y-101044262D01*
X156502444Y-101050865D01*
X156208686Y-101622900D01*
X156205151Y-101629310D01*
X155878159Y-102183008D01*
X155874253Y-102189197D01*
X155515162Y-102722639D01*
X155510897Y-102728588D01*
X155120954Y-103239918D01*
X155116346Y-103245604D01*
X154696917Y-103733034D01*
X154691981Y-103738439D01*
X154244530Y-104200266D01*
X154239285Y-104205370D01*
X153765354Y-104640004D01*
X153759816Y-104644790D01*
X153261059Y-105050712D01*
X153255248Y-105055162D01*
X152733433Y-105430932D01*
X152727370Y-105435032D01*
X152184277Y-105779371D01*
X152177983Y-105783106D01*
X151625705Y-106089160D01*
X151557526Y-106104438D01*
X151491910Y-106080430D01*
X151477925Y-106068387D01*
X150847695Y-105438158D01*
X150801012Y-105400538D01*
X150801008Y-105400536D01*
X150670096Y-105340749D01*
X150548120Y-105323212D01*
X150527639Y-105320268D01*
X150527638Y-105320268D01*
X150385182Y-105340749D01*
X150254268Y-105400536D01*
X150254263Y-105400539D01*
X150207588Y-105438153D01*
X150207581Y-105438159D01*
X149786332Y-105859409D01*
X149786323Y-105859419D01*
X149748708Y-105906094D01*
X149688920Y-106037011D01*
X149668439Y-106179467D01*
X149688920Y-106321925D01*
X149748707Y-106452838D01*
X149748708Y-106452839D01*
X149748709Y-106452841D01*
X149786328Y-106499524D01*
X149900422Y-106613618D01*
X149933906Y-106674939D01*
X149928922Y-106744631D01*
X149887051Y-106800565D01*
X149852796Y-106818650D01*
X149811786Y-106832648D01*
X149804792Y-106834807D01*
X149185031Y-107006262D01*
X149177923Y-107008005D01*
X148549112Y-107142598D01*
X148541912Y-107143918D01*
X147906263Y-107241175D01*
X147898998Y-107242068D01*
X147521522Y-107277195D01*
X147452948Y-107263806D01*
X147402497Y-107215469D01*
X147386188Y-107147529D01*
X147409199Y-107081558D01*
X147448029Y-107046344D01*
X147561339Y-106980925D01*
X147795387Y-106801333D01*
X148003991Y-106592729D01*
X148183583Y-106358681D01*
X148331088Y-106103194D01*
X148443984Y-105830639D01*
X148520338Y-105545680D01*
X148558845Y-105253193D01*
X148558845Y-103353888D01*
X148578530Y-103286849D01*
X148631334Y-103241094D01*
X148700492Y-103231150D01*
X148764048Y-103260175D01*
X148770526Y-103266207D01*
X149983129Y-104478810D01*
X150048386Y-104544067D01*
X150048389Y-104544068D01*
X150048392Y-104544071D01*
X150128304Y-104590209D01*
X150128305Y-104590209D01*
X150128310Y-104590212D01*
X150217454Y-104614098D01*
X150217456Y-104614098D01*
X151032544Y-104614098D01*
X151032546Y-104614098D01*
X151121690Y-104590212D01*
X151201614Y-104544068D01*
X154160184Y-101585498D01*
X154206329Y-101505573D01*
X154208393Y-101497871D01*
X154230215Y-101416429D01*
X154230215Y-100737676D01*
X154249900Y-100670637D01*
X154281330Y-100637358D01*
X154307086Y-100618645D01*
X154359437Y-100580610D01*
X154616142Y-100323904D01*
X154671956Y-100247084D01*
X154711159Y-100126428D01*
X154711159Y-99999562D01*
X154671956Y-99878905D01*
X154659610Y-99861913D01*
X154634642Y-99827547D01*
X154616143Y-99802086D01*
X154100381Y-99286324D01*
X153581619Y-98767562D01*
X153504802Y-98711750D01*
X153504800Y-98711749D01*
X153474635Y-98701948D01*
X153384146Y-98672546D01*
X153384143Y-98672546D01*
X153257277Y-98672546D01*
X153257273Y-98672546D01*
X153136620Y-98711749D01*
X153059804Y-98767559D01*
X153059798Y-98767564D01*
X152803099Y-99024264D01*
X152803095Y-99024268D01*
X152747283Y-99101085D01*
X152747282Y-99101088D01*
X152708079Y-99221740D01*
X152708079Y-99348607D01*
X152708080Y-99348615D01*
X152732899Y-99425001D01*
X152734894Y-99494842D01*
X152698813Y-99554674D01*
X152636112Y-99585502D01*
X152576651Y-99581249D01*
X152500265Y-99556430D01*
X152500261Y-99556429D01*
X152500260Y-99556429D01*
X152373394Y-99556429D01*
X152373390Y-99556429D01*
X152252737Y-99595632D01*
X152175921Y-99651442D01*
X152175915Y-99651447D01*
X151964183Y-99863181D01*
X151902860Y-99896666D01*
X151876502Y-99899500D01*
X151236092Y-99899500D01*
X151169053Y-99879815D01*
X151149587Y-99861913D01*
X151148372Y-99863129D01*
X151142627Y-99857384D01*
X151142621Y-99857379D01*
X151027625Y-99769139D01*
X151027624Y-99769138D01*
X151027622Y-99769137D01*
X150893712Y-99713671D01*
X150893710Y-99713670D01*
X150893709Y-99713670D01*
X150821854Y-99704210D01*
X150750001Y-99694750D01*
X150749999Y-99694750D01*
X150606291Y-99713670D01*
X150606287Y-99713671D01*
X150472377Y-99769137D01*
X150357379Y-99857379D01*
X150269137Y-99972377D01*
X150213671Y-100106287D01*
X150213670Y-100106291D01*
X150201842Y-100196132D01*
X150173575Y-100260028D01*
X150115251Y-100298499D01*
X150095089Y-100302885D01*
X150005248Y-100314713D01*
X150005244Y-100314714D01*
X149871334Y-100370180D01*
X149756336Y-100458422D01*
X149668094Y-100573420D01*
X149612628Y-100707330D01*
X149612627Y-100707334D01*
X149593707Y-100851043D01*
X149607801Y-100958099D01*
X149612627Y-100994751D01*
X149656832Y-101101475D01*
X149664300Y-101170944D01*
X149633024Y-101233423D01*
X149617758Y-101247301D01*
X149566178Y-101286880D01*
X149477935Y-101401879D01*
X149422469Y-101535789D01*
X149422468Y-101535793D01*
X149403548Y-101679501D01*
X149403548Y-101679502D01*
X149422468Y-101823210D01*
X149422469Y-101823214D01*
X149477935Y-101957124D01*
X149477936Y-101957126D01*
X149477937Y-101957127D01*
X149566177Y-102072123D01*
X149681173Y-102160363D01*
X149681174Y-102160363D01*
X149681175Y-102160364D01*
X149725811Y-102178852D01*
X149815089Y-102215832D01*
X149958798Y-102234752D01*
X149966927Y-102234752D01*
X149966927Y-102238330D01*
X150019768Y-102246533D01*
X150054676Y-102271062D01*
X150389820Y-102606206D01*
X150467773Y-102651212D01*
X150469744Y-102652350D01*
X150558888Y-102676236D01*
X150578583Y-102676236D01*
X150645622Y-102695921D01*
X150666264Y-102712555D01*
X151185969Y-103232259D01*
X151262788Y-103288073D01*
X151262790Y-103288073D01*
X151263172Y-103288351D01*
X151305837Y-103343682D01*
X151311816Y-103413295D01*
X151279210Y-103475090D01*
X151277967Y-103476350D01*
X150877539Y-103876779D01*
X150816216Y-103910264D01*
X150789858Y-103913098D01*
X150460141Y-103913098D01*
X150393102Y-103893413D01*
X150372460Y-103876779D01*
X148995164Y-102499482D01*
X148961679Y-102438159D01*
X148958845Y-102411801D01*
X148958845Y-100042105D01*
X148958845Y-100042103D01*
X148934959Y-99952959D01*
X148909089Y-99908151D01*
X148888815Y-99873035D01*
X148343535Y-99327755D01*
X148310050Y-99266432D01*
X148308958Y-99240006D01*
X148307225Y-99240006D01*
X148307225Y-99231877D01*
X148304353Y-99210061D01*
X148288305Y-99088168D01*
X148241869Y-98976060D01*
X148232837Y-98954254D01*
X148232836Y-98954253D01*
X148232836Y-98954252D01*
X148144596Y-98839256D01*
X148029600Y-98751016D01*
X148029596Y-98751014D01*
X147999389Y-98738502D01*
X147944985Y-98694661D01*
X147922920Y-98628367D01*
X147929810Y-98590200D01*
X147927955Y-98589703D01*
X147930055Y-98581860D01*
X147930059Y-98581852D01*
X147948979Y-98438143D01*
X147948979Y-98438142D01*
X147948979Y-98430014D01*
X147952778Y-98430014D01*
X147960117Y-98378561D01*
X147985283Y-98342269D01*
X148305470Y-98022084D01*
X148351614Y-97942160D01*
X148356442Y-97924141D01*
X148375500Y-97853016D01*
X148375500Y-95706612D01*
X148351614Y-95617468D01*
X148351611Y-95617462D01*
X148305473Y-95537550D01*
X148305470Y-95537547D01*
X148305469Y-95537544D01*
X148240212Y-95472287D01*
X148143104Y-95375178D01*
X148109621Y-95313856D01*
X148114605Y-95244165D01*
X148143102Y-95199822D01*
X148305469Y-95037456D01*
X148351614Y-94957532D01*
X148353462Y-94950636D01*
X148375500Y-94868388D01*
X148375500Y-93631612D01*
X148351614Y-93542468D01*
X148351611Y-93542462D01*
X148305473Y-93462550D01*
X148305470Y-93462547D01*
X148305469Y-93462544D01*
X148240212Y-93397287D01*
X148117526Y-93274601D01*
X147984063Y-93141137D01*
X147950578Y-93079814D01*
X147947744Y-93053456D01*
X147947744Y-92599299D01*
X147967429Y-92532260D01*
X147984058Y-92511623D01*
X148993793Y-91501887D01*
X149055114Y-91468404D01*
X149124806Y-91473388D01*
X149180739Y-91515260D01*
X149204411Y-91573383D01*
X149213670Y-91643708D01*
X149213671Y-91643712D01*
X149269137Y-91777622D01*
X149269138Y-91777624D01*
X149269139Y-91777625D01*
X149357379Y-91892621D01*
X149472375Y-91980861D01*
X149472376Y-91980861D01*
X149472377Y-91980862D01*
X149488077Y-91987365D01*
X149606291Y-92036330D01*
X149681261Y-92046200D01*
X149745158Y-92074467D01*
X149762396Y-92092758D01*
X149762399Y-92092756D01*
X149762454Y-92092820D01*
X149764328Y-92094808D01*
X149765289Y-92096091D01*
X149765293Y-92096096D01*
X149765298Y-92096103D01*
X149859452Y-92204764D01*
X149880907Y-92223355D01*
X149914414Y-92252389D01*
X150035362Y-92330118D01*
X150035365Y-92330119D01*
X150035368Y-92330121D01*
X150101519Y-92360331D01*
X150239474Y-92400838D01*
X150311456Y-92411187D01*
X150311458Y-92411187D01*
X150883347Y-92411187D01*
X150883348Y-92411186D01*
X150981121Y-92391738D01*
X150981126Y-92391734D01*
X150985885Y-92389764D01*
X151055354Y-92382291D01*
X151080805Y-92389764D01*
X151085564Y-92391735D01*
X151085569Y-92391738D01*
X151085573Y-92391738D01*
X151085574Y-92391739D01*
X151183340Y-92411186D01*
X151183343Y-92411187D01*
X151183345Y-92411187D01*
X151755232Y-92411187D01*
X151755234Y-92411187D01*
X151827216Y-92400838D01*
X151965171Y-92360331D01*
X152031322Y-92330121D01*
X152055799Y-92314391D01*
X152066912Y-92307249D01*
X152152276Y-92252389D01*
X152207238Y-92204764D01*
X152223852Y-92185590D01*
X152301383Y-92096114D01*
X152301385Y-92096111D01*
X152301392Y-92096103D01*
X152340708Y-92034926D01*
X152340711Y-92034918D01*
X152340714Y-92034914D01*
X152378719Y-91951694D01*
X152400436Y-91904141D01*
X152420924Y-91834364D01*
X152441386Y-91692049D01*
X152441386Y-91619326D01*
X152440107Y-91610429D01*
X152438845Y-91592784D01*
X152438845Y-91218589D01*
X152440107Y-91200943D01*
X152441386Y-91192048D01*
X152441386Y-91119325D01*
X152423121Y-90992287D01*
X152420925Y-90977015D01*
X152415262Y-90957727D01*
X152400436Y-90907233D01*
X152365461Y-90830648D01*
X152340714Y-90776459D01*
X152340705Y-90776443D01*
X152307876Y-90725361D01*
X152301392Y-90715271D01*
X152301388Y-90715266D01*
X152301383Y-90715259D01*
X152207238Y-90606609D01*
X152152275Y-90558984D01*
X152110562Y-90532177D01*
X152070212Y-90489856D01*
X152065845Y-90482292D01*
X152038817Y-90435478D01*
X152038813Y-90435473D01*
X151673558Y-90070218D01*
X151673553Y-90070214D01*
X151593635Y-90024074D01*
X151593634Y-90024073D01*
X151593633Y-90024073D01*
X151504489Y-90000187D01*
X149695457Y-90000187D01*
X149603169Y-90000187D01*
X149514025Y-90024073D01*
X149514022Y-90024074D01*
X149434104Y-90070214D01*
X149434099Y-90070218D01*
X148687139Y-90817177D01*
X148625816Y-90850662D01*
X148556124Y-90845678D01*
X148500191Y-90803806D01*
X148475774Y-90738342D01*
X148479682Y-90697410D01*
X148520338Y-90545680D01*
X148558845Y-90253193D01*
X148558845Y-86958181D01*
X148557474Y-86947771D01*
X148534460Y-86772962D01*
X148545225Y-86703926D01*
X148591605Y-86651670D01*
X148658874Y-86632785D01*
X148725675Y-86653266D01*
G37*
%TD.AperFunction*%
%TA.AperFunction,Conductor*%
G36*
X145995634Y-93620185D02*
G01*
X146041389Y-93672989D01*
X146051333Y-93742147D01*
X146044777Y-93767832D01*
X146030910Y-93805011D01*
X146030909Y-93805015D01*
X146030909Y-93805017D01*
X146024500Y-93864627D01*
X146024500Y-93864634D01*
X146024500Y-93864635D01*
X146024500Y-94635370D01*
X146024501Y-94635376D01*
X146030908Y-94694983D01*
X146081202Y-94829828D01*
X146081206Y-94829835D01*
X146167452Y-94945044D01*
X146167455Y-94945047D01*
X146282664Y-95031293D01*
X146282671Y-95031297D01*
X146417517Y-95081591D01*
X146417516Y-95081591D01*
X146424444Y-95082335D01*
X146477127Y-95088000D01*
X147235244Y-95087999D01*
X147302283Y-95107683D01*
X147348038Y-95160487D01*
X147359244Y-95211999D01*
X147359244Y-95483644D01*
X147383130Y-95572788D01*
X147408922Y-95617462D01*
X147429275Y-95652713D01*
X147638181Y-95861618D01*
X147671666Y-95922941D01*
X147674500Y-95949299D01*
X147674500Y-97610327D01*
X147654815Y-97677366D01*
X147638181Y-97698009D01*
X147489606Y-97846583D01*
X147428283Y-97880067D01*
X147401857Y-97881351D01*
X147401857Y-97882893D01*
X147393729Y-97882893D01*
X147250020Y-97901813D01*
X147250016Y-97901814D01*
X147116105Y-97957281D01*
X147116103Y-97957282D01*
X147095935Y-97972758D01*
X147030766Y-97997952D01*
X146962321Y-97983913D01*
X146912331Y-97935099D01*
X146896449Y-97874382D01*
X146896449Y-97422051D01*
X146896449Y-97422049D01*
X146872563Y-97332905D01*
X146872560Y-97332899D01*
X146826422Y-97252987D01*
X146826419Y-97252984D01*
X146826418Y-97252981D01*
X146761161Y-97187724D01*
X144280961Y-94707523D01*
X144247476Y-94646200D01*
X144244642Y-94619842D01*
X144244642Y-93909169D01*
X144264327Y-93842130D01*
X144317131Y-93796375D01*
X144386289Y-93786431D01*
X144449845Y-93815456D01*
X144483203Y-93861717D01*
X144509994Y-93926399D01*
X144509995Y-93926401D01*
X144509996Y-93926402D01*
X144598236Y-94041398D01*
X144713232Y-94129638D01*
X144847148Y-94185107D01*
X144974137Y-94201825D01*
X144990856Y-94204027D01*
X144990857Y-94204027D01*
X144990858Y-94204027D01*
X145005834Y-94202055D01*
X145134566Y-94185107D01*
X145268482Y-94129638D01*
X145383478Y-94041398D01*
X145471718Y-93926402D01*
X145527187Y-93792486D01*
X145538269Y-93708314D01*
X145566536Y-93644417D01*
X145624861Y-93605947D01*
X145661208Y-93600500D01*
X145928595Y-93600500D01*
X145995634Y-93620185D01*
G37*
%TD.AperFunction*%
%TA.AperFunction,Conductor*%
G36*
X144962572Y-85075825D02*
G01*
X145014122Y-85122988D01*
X145031991Y-85190534D01*
X145010505Y-85257018D01*
X144983523Y-85285565D01*
X144821297Y-85410045D01*
X144612703Y-85618639D01*
X144612697Y-85618646D01*
X144433106Y-85852693D01*
X144285603Y-86108176D01*
X144285599Y-86108186D01*
X144172709Y-86380725D01*
X144172706Y-86380735D01*
X144096353Y-86665691D01*
X144096351Y-86665702D01*
X144057845Y-86958173D01*
X144057845Y-90253200D01*
X144081843Y-90435473D01*
X144096352Y-90545680D01*
X144172706Y-90830638D01*
X144172709Y-90830648D01*
X144285599Y-91103187D01*
X144285603Y-91103197D01*
X144433106Y-91358680D01*
X144612697Y-91592727D01*
X144612703Y-91592734D01*
X144821297Y-91801328D01*
X144821304Y-91801334D01*
X145055351Y-91980925D01*
X145310834Y-92128428D01*
X145310835Y-92128428D01*
X145310838Y-92128430D01*
X145583393Y-92241326D01*
X145868352Y-92317680D01*
X146144956Y-92354096D01*
X146160390Y-92356128D01*
X146160839Y-92356187D01*
X146160846Y-92356187D01*
X146455844Y-92356187D01*
X146455851Y-92356187D01*
X146748338Y-92317680D01*
X147033297Y-92241326D01*
X147076683Y-92223354D01*
X147146150Y-92215886D01*
X147208630Y-92247160D01*
X147244283Y-92307249D01*
X147246741Y-92348485D01*
X147246744Y-92348485D01*
X147246744Y-92348542D01*
X147247075Y-92354096D01*
X147246744Y-92356610D01*
X147246744Y-92775500D01*
X147227059Y-92842539D01*
X147174255Y-92888294D01*
X147122744Y-92899500D01*
X145343490Y-92899500D01*
X145254346Y-92923386D01*
X145254343Y-92923387D01*
X145174424Y-92969528D01*
X145086732Y-93057218D01*
X145025408Y-93090702D01*
X144998985Y-93091962D01*
X144998985Y-93093527D01*
X144990857Y-93093527D01*
X144847148Y-93112447D01*
X144847144Y-93112448D01*
X144713234Y-93167914D01*
X144598236Y-93256156D01*
X144540485Y-93331419D01*
X144509994Y-93371155D01*
X144483203Y-93435836D01*
X144439362Y-93490240D01*
X144373068Y-93512305D01*
X144305369Y-93495026D01*
X144257758Y-93443889D01*
X144244642Y-93388384D01*
X144244642Y-93335752D01*
X144264327Y-93268713D01*
X144282256Y-93249269D01*
X144281016Y-93248029D01*
X144286761Y-93242283D01*
X144286763Y-93242281D01*
X144375003Y-93127285D01*
X144430472Y-92993369D01*
X144449392Y-92849660D01*
X144448454Y-92842539D01*
X144442756Y-92799257D01*
X144430472Y-92705951D01*
X144375003Y-92572035D01*
X144286763Y-92457039D01*
X144171767Y-92368799D01*
X144171766Y-92368798D01*
X144171764Y-92368797D01*
X144037854Y-92313331D01*
X144037852Y-92313330D01*
X144037851Y-92313330D01*
X143965996Y-92303870D01*
X143894143Y-92294410D01*
X143894141Y-92294410D01*
X143842616Y-92301193D01*
X143750433Y-92313330D01*
X143750432Y-92313330D01*
X143742376Y-92314391D01*
X143742160Y-92312757D01*
X143681866Y-92311314D01*
X143624008Y-92272145D01*
X143596512Y-92207913D01*
X143595637Y-92193207D01*
X143595637Y-90754306D01*
X143595637Y-90754304D01*
X143571751Y-90665160D01*
X143571748Y-90665154D01*
X143525610Y-90585242D01*
X143525607Y-90585239D01*
X143525606Y-90585236D01*
X143460349Y-90519979D01*
X142689852Y-89749481D01*
X142689851Y-89749480D01*
X142689848Y-89749478D01*
X142609930Y-89703338D01*
X142609929Y-89703337D01*
X142609928Y-89703337D01*
X142520784Y-89679451D01*
X142520783Y-89679451D01*
X142513703Y-89678519D01*
X142449807Y-89650252D01*
X142442220Y-89643271D01*
X141922376Y-89123428D01*
X141922375Y-89123427D01*
X141922373Y-89123425D01*
X141845559Y-89067615D01*
X141845557Y-89067614D01*
X141815392Y-89057813D01*
X141724903Y-89028411D01*
X141724900Y-89028411D01*
X141598034Y-89028411D01*
X141598030Y-89028411D01*
X141477377Y-89067614D01*
X141400561Y-89123424D01*
X141400555Y-89123429D01*
X141143856Y-89380129D01*
X141143852Y-89380133D01*
X141088040Y-89456950D01*
X141088039Y-89456953D01*
X141048836Y-89577605D01*
X141048836Y-89704472D01*
X141048837Y-89704480D01*
X141073656Y-89780867D01*
X141075651Y-89850708D01*
X141039570Y-89910541D01*
X140976869Y-89941368D01*
X140917408Y-89937115D01*
X140841022Y-89912296D01*
X140841018Y-89912295D01*
X140841017Y-89912295D01*
X140714151Y-89912295D01*
X140714147Y-89912295D01*
X140593494Y-89951498D01*
X140516678Y-90007308D01*
X140516672Y-90007313D01*
X140259973Y-90264013D01*
X140259969Y-90264017D01*
X140204157Y-90340834D01*
X140204156Y-90340837D01*
X140164953Y-90461489D01*
X140164953Y-90588356D01*
X140164954Y-90588364D01*
X140189773Y-90664750D01*
X140191768Y-90734591D01*
X140155687Y-90794423D01*
X140092986Y-90825251D01*
X140033525Y-90820998D01*
X139957138Y-90796179D01*
X139957134Y-90796178D01*
X139957133Y-90796178D01*
X139830267Y-90796178D01*
X139830263Y-90796178D01*
X139709610Y-90835381D01*
X139632794Y-90891191D01*
X139632788Y-90891196D01*
X139376089Y-91147896D01*
X139376085Y-91147900D01*
X139320273Y-91224717D01*
X139320272Y-91224720D01*
X139281069Y-91345372D01*
X139281069Y-91472239D01*
X139281070Y-91472247D01*
X139305889Y-91548633D01*
X139307884Y-91618474D01*
X139271803Y-91678306D01*
X139209102Y-91709134D01*
X139149641Y-91704881D01*
X139073255Y-91680062D01*
X139073251Y-91680061D01*
X139073250Y-91680061D01*
X138946384Y-91680061D01*
X138946380Y-91680061D01*
X138825727Y-91719264D01*
X138748911Y-91775074D01*
X138748905Y-91775079D01*
X138492206Y-92031779D01*
X138492202Y-92031783D01*
X138436390Y-92108600D01*
X138436389Y-92108603D01*
X138397186Y-92229255D01*
X138397186Y-92356128D01*
X138411714Y-92400839D01*
X138436389Y-92476782D01*
X138436390Y-92476784D01*
X138436392Y-92476787D01*
X138492197Y-92553594D01*
X138492204Y-92553603D01*
X139526722Y-93588121D01*
X139526731Y-93588128D01*
X139585558Y-93630870D01*
X139628224Y-93686200D01*
X139634202Y-93755814D01*
X139601595Y-93817608D01*
X139540756Y-93851965D01*
X139512672Y-93855187D01*
X137660831Y-93855187D01*
X137382430Y-93891840D01*
X137368352Y-93893694D01*
X137174183Y-93945721D01*
X137083393Y-93970048D01*
X137083383Y-93970051D01*
X136810844Y-94082941D01*
X136810834Y-94082945D01*
X136555351Y-94230448D01*
X136321304Y-94410039D01*
X136321297Y-94410045D01*
X136112703Y-94618639D01*
X136112697Y-94618646D01*
X135933106Y-94852693D01*
X135785603Y-95108176D01*
X135785599Y-95108186D01*
X135672709Y-95380725D01*
X135672706Y-95380735D01*
X135599831Y-95652712D01*
X135596353Y-95665691D01*
X135596351Y-95665702D01*
X135557845Y-95958173D01*
X135557845Y-96253200D01*
X135559248Y-96263853D01*
X135596352Y-96545680D01*
X135626469Y-96658079D01*
X135672882Y-96831296D01*
X135671219Y-96901146D01*
X135632056Y-96959008D01*
X135567828Y-96986512D01*
X135498925Y-96974925D01*
X135464130Y-96949755D01*
X135278796Y-96758819D01*
X135246228Y-96697004D01*
X135243912Y-96678322D01*
X135242953Y-96658079D01*
X135224273Y-96263839D01*
X135224142Y-96256690D01*
X135230750Y-95623403D01*
X135231030Y-95616280D01*
X135274202Y-94984388D01*
X135274897Y-94977269D01*
X135277397Y-94957532D01*
X135354485Y-94348947D01*
X135355579Y-94341941D01*
X135471325Y-93719235D01*
X135472835Y-93712245D01*
X135624342Y-93097292D01*
X135626242Y-93090437D01*
X135684347Y-92902161D01*
X135722925Y-92843911D01*
X135786873Y-92815762D01*
X135855889Y-92826655D01*
X135890513Y-92851050D01*
X136108821Y-93069358D01*
X136155504Y-93106978D01*
X136286419Y-93166766D01*
X136428877Y-93187248D01*
X136571334Y-93166766D01*
X136702250Y-93106978D01*
X136748932Y-93069359D01*
X137170187Y-92648103D01*
X137207807Y-92601421D01*
X137267595Y-92470505D01*
X137288077Y-92328048D01*
X137267595Y-92185590D01*
X137241490Y-92128430D01*
X137207808Y-92054677D01*
X137207807Y-92054676D01*
X137207807Y-92054675D01*
X137170188Y-92007992D01*
X137170183Y-92007987D01*
X137170179Y-92007982D01*
X136414648Y-91252453D01*
X136381163Y-91191130D01*
X136386147Y-91121439D01*
X136391922Y-91108324D01*
X136586122Y-90728547D01*
X136589563Y-90722273D01*
X136604151Y-90697402D01*
X136909999Y-90175964D01*
X136913779Y-90169926D01*
X137265237Y-89643023D01*
X137269340Y-89637240D01*
X137650651Y-89131498D01*
X137655095Y-89125945D01*
X138064957Y-88643090D01*
X138069732Y-88637782D01*
X138506793Y-88179403D01*
X138511877Y-88174372D01*
X138751087Y-87950890D01*
X138974655Y-87742021D01*
X138980011Y-87737298D01*
X139467033Y-87332354D01*
X139472615Y-87327980D01*
X139982200Y-86951845D01*
X139988050Y-86947783D01*
X140518483Y-86601717D01*
X140524572Y-86597990D01*
X141074125Y-86283123D01*
X141080410Y-86279760D01*
X141362514Y-86139108D01*
X141431290Y-86126813D01*
X141495799Y-86153653D01*
X141505521Y-86162400D01*
X142260650Y-86917529D01*
X142307333Y-86955149D01*
X142438248Y-87014937D01*
X142580706Y-87035419D01*
X142723163Y-87014937D01*
X142854079Y-86955149D01*
X142900761Y-86917530D01*
X143322016Y-86496274D01*
X143359636Y-86449592D01*
X143419424Y-86318676D01*
X143439906Y-86176219D01*
X143419424Y-86033761D01*
X143359636Y-85902846D01*
X143322017Y-85856163D01*
X143104228Y-85638374D01*
X143070745Y-85577055D01*
X143075729Y-85507363D01*
X143117600Y-85451429D01*
X143156550Y-85431844D01*
X143451959Y-85343959D01*
X143458841Y-85342127D01*
X144075291Y-85196889D01*
X144082296Y-85195451D01*
X144706137Y-85086048D01*
X144713173Y-85085023D01*
X144893707Y-85064020D01*
X144962572Y-85075825D01*
G37*
%TD.AperFunction*%
%TD*%
M02*
