%TF.GenerationSoftware,KiCad,Pcbnew,8.0.7*%
%TF.CreationDate,2025-03-05T23:48:34-06:00*%
%TF.ProjectId,MagEncoder,4d616745-6e63-46f6-9465-722e6b696361,rev?*%
%TF.SameCoordinates,Original*%
%TF.FileFunction,Legend,Bot*%
%TF.FilePolarity,Positive*%
%FSLAX46Y46*%
G04 Gerber Fmt 4.6, Leading zero omitted, Abs format (unit mm)*
G04 Created by KiCad (PCBNEW 8.0.7) date 2025-03-05 23:48:34*
%MOMM*%
%LPD*%
G01*
G04 APERTURE LIST*
%ADD10C,0.150000*%
%ADD11C,0.120000*%
G04 APERTURE END LIST*
D10*
X143862714Y-90135728D02*
X143943526Y-90162666D01*
X143943526Y-90162666D02*
X144024338Y-90243478D01*
X144024338Y-90243478D02*
X144078213Y-90351228D01*
X144078213Y-90351228D02*
X144078213Y-90458977D01*
X144078213Y-90458977D02*
X144051275Y-90539789D01*
X144051275Y-90539789D02*
X143970463Y-90674476D01*
X143970463Y-90674476D02*
X143889651Y-90755289D01*
X143889651Y-90755289D02*
X143754964Y-90836101D01*
X143754964Y-90836101D02*
X143674152Y-90863038D01*
X143674152Y-90863038D02*
X143566402Y-90863038D01*
X143566402Y-90863038D02*
X143458653Y-90809163D01*
X143458653Y-90809163D02*
X143404778Y-90755289D01*
X143404778Y-90755289D02*
X143350903Y-90647539D01*
X143350903Y-90647539D02*
X143350903Y-90593664D01*
X143350903Y-90593664D02*
X143539465Y-90405102D01*
X143539465Y-90405102D02*
X143647214Y-90512852D01*
X143924152Y-92720788D02*
X143816402Y-92666913D01*
X143816402Y-92666913D02*
X143681715Y-92532226D01*
X143681715Y-92532226D02*
X143654778Y-92451414D01*
X143654778Y-92451414D02*
X143654778Y-92397539D01*
X143654778Y-92397539D02*
X143681715Y-92316727D01*
X143681715Y-92316727D02*
X143735590Y-92262852D01*
X143735590Y-92262852D02*
X143816402Y-92235915D01*
X143816402Y-92235915D02*
X143870277Y-92235915D01*
X143870277Y-92235915D02*
X143951089Y-92262852D01*
X143951089Y-92262852D02*
X144085776Y-92343664D01*
X144085776Y-92343664D02*
X144166588Y-92370602D01*
X144166588Y-92370602D02*
X144220463Y-92370602D01*
X144220463Y-92370602D02*
X144301275Y-92343664D01*
X144301275Y-92343664D02*
X144355150Y-92289789D01*
X144355150Y-92289789D02*
X144382088Y-92208977D01*
X144382088Y-92208977D02*
X144382088Y-92155102D01*
X144382088Y-92155102D02*
X144355150Y-92074290D01*
X144355150Y-92074290D02*
X144220463Y-91939603D01*
X144220463Y-91939603D02*
X144112714Y-91885728D01*
X143331529Y-92182040D02*
X143897214Y-91616354D01*
X143897214Y-91616354D02*
X143762527Y-91481667D01*
X143762527Y-91481667D02*
X143654778Y-91427792D01*
X143654778Y-91427792D02*
X143547028Y-91427792D01*
X143547028Y-91427792D02*
X143466216Y-91454730D01*
X143466216Y-91454730D02*
X143331529Y-91535542D01*
X143331529Y-91535542D02*
X143250717Y-91616354D01*
X143250717Y-91616354D02*
X143169904Y-91751041D01*
X143169904Y-91751041D02*
X143142967Y-91831853D01*
X143142967Y-91831853D02*
X143142967Y-91939603D01*
X143142967Y-91939603D02*
X143196842Y-92047353D01*
X143196842Y-92047353D02*
X143331529Y-92182040D01*
X142954405Y-91481667D02*
X142685031Y-91212293D01*
X142846656Y-91697166D02*
X143223779Y-90942919D01*
X143223779Y-90942919D02*
X142469532Y-91320043D01*
X143174152Y-93470788D02*
X143066402Y-93416913D01*
X143066402Y-93416913D02*
X142931715Y-93282226D01*
X142931715Y-93282226D02*
X142904778Y-93201414D01*
X142904778Y-93201414D02*
X142904778Y-93147539D01*
X142904778Y-93147539D02*
X142931715Y-93066727D01*
X142931715Y-93066727D02*
X142985590Y-93012852D01*
X142985590Y-93012852D02*
X143066402Y-92985915D01*
X143066402Y-92985915D02*
X143120277Y-92985915D01*
X143120277Y-92985915D02*
X143201089Y-93012852D01*
X143201089Y-93012852D02*
X143335776Y-93093664D01*
X143335776Y-93093664D02*
X143416588Y-93120602D01*
X143416588Y-93120602D02*
X143470463Y-93120602D01*
X143470463Y-93120602D02*
X143551275Y-93093664D01*
X143551275Y-93093664D02*
X143605150Y-93039789D01*
X143605150Y-93039789D02*
X143632088Y-92958977D01*
X143632088Y-92958977D02*
X143632088Y-92905102D01*
X143632088Y-92905102D02*
X143605150Y-92824290D01*
X143605150Y-92824290D02*
X143470463Y-92689603D01*
X143470463Y-92689603D02*
X143362714Y-92635728D01*
X142312155Y-92554916D02*
X142312155Y-92608791D01*
X142312155Y-92608791D02*
X142366030Y-92716540D01*
X142366030Y-92716540D02*
X142419904Y-92770415D01*
X142419904Y-92770415D02*
X142527654Y-92824290D01*
X142527654Y-92824290D02*
X142635404Y-92824290D01*
X142635404Y-92824290D02*
X142716216Y-92797353D01*
X142716216Y-92797353D02*
X142850903Y-92716540D01*
X142850903Y-92716540D02*
X142931715Y-92635728D01*
X142931715Y-92635728D02*
X143012527Y-92501041D01*
X143012527Y-92501041D02*
X143039465Y-92420229D01*
X143039465Y-92420229D02*
X143039465Y-92312479D01*
X143039465Y-92312479D02*
X142985590Y-92204730D01*
X142985590Y-92204730D02*
X142931715Y-92150855D01*
X142931715Y-92150855D02*
X142823965Y-92096980D01*
X142823965Y-92096980D02*
X142770091Y-92096980D01*
X141746469Y-92096980D02*
X142015843Y-92366354D01*
X142015843Y-92366354D02*
X142581529Y-91800669D01*
X141585776Y-93005289D02*
X141154778Y-92574290D01*
X141154778Y-93005289D02*
X141585776Y-92574290D01*
X140835776Y-93755289D02*
X140404778Y-93324290D01*
X140404778Y-93755289D02*
X140835776Y-93324290D01*
X149362714Y-101135728D02*
X149443526Y-101162666D01*
X149443526Y-101162666D02*
X149524338Y-101243478D01*
X149524338Y-101243478D02*
X149578213Y-101351228D01*
X149578213Y-101351228D02*
X149578213Y-101458977D01*
X149578213Y-101458977D02*
X149551275Y-101539789D01*
X149551275Y-101539789D02*
X149470463Y-101674476D01*
X149470463Y-101674476D02*
X149389651Y-101755289D01*
X149389651Y-101755289D02*
X149254964Y-101836101D01*
X149254964Y-101836101D02*
X149174152Y-101863038D01*
X149174152Y-101863038D02*
X149066402Y-101863038D01*
X149066402Y-101863038D02*
X148958653Y-101809163D01*
X148958653Y-101809163D02*
X148904778Y-101755289D01*
X148904778Y-101755289D02*
X148850903Y-101647539D01*
X148850903Y-101647539D02*
X148850903Y-101593664D01*
X148850903Y-101593664D02*
X149039465Y-101405102D01*
X149039465Y-101405102D02*
X149147214Y-101512852D01*
X149787030Y-99844295D02*
X149596554Y-100644295D01*
X149596554Y-100644295D02*
X149444173Y-100072866D01*
X149444173Y-100072866D02*
X149291792Y-100644295D01*
X149291792Y-100644295D02*
X149101316Y-99844295D01*
X150710839Y-99844295D02*
X150710839Y-100491914D01*
X150710839Y-100491914D02*
X150672744Y-100568104D01*
X150672744Y-100568104D02*
X150634649Y-100606200D01*
X150634649Y-100606200D02*
X150558458Y-100644295D01*
X150558458Y-100644295D02*
X150406077Y-100644295D01*
X150406077Y-100644295D02*
X150329887Y-100606200D01*
X150329887Y-100606200D02*
X150291792Y-100568104D01*
X150291792Y-100568104D02*
X150253696Y-100491914D01*
X150253696Y-100491914D02*
X150253696Y-99844295D01*
X151575125Y-99344295D02*
X151308458Y-100144295D01*
X151308458Y-100144295D02*
X151041792Y-99344295D01*
X152960839Y-99144295D02*
X152960839Y-98344295D01*
X152960839Y-98344295D02*
X152656077Y-98344295D01*
X152656077Y-98344295D02*
X152579887Y-98382390D01*
X152579887Y-98382390D02*
X152541792Y-98420485D01*
X152541792Y-98420485D02*
X152503696Y-98496676D01*
X152503696Y-98496676D02*
X152503696Y-98610961D01*
X152503696Y-98610961D02*
X152541792Y-98687152D01*
X152541792Y-98687152D02*
X152579887Y-98725247D01*
X152579887Y-98725247D02*
X152656077Y-98763342D01*
X152656077Y-98763342D02*
X152960839Y-98763342D01*
X152160839Y-98344295D02*
X152160839Y-98991914D01*
X152160839Y-98991914D02*
X152122744Y-99068104D01*
X152122744Y-99068104D02*
X152084649Y-99106200D01*
X152084649Y-99106200D02*
X152008458Y-99144295D01*
X152008458Y-99144295D02*
X151856077Y-99144295D01*
X151856077Y-99144295D02*
X151779887Y-99106200D01*
X151779887Y-99106200D02*
X151741792Y-99068104D01*
X151741792Y-99068104D02*
X151703696Y-98991914D01*
X151703696Y-98991914D02*
X151703696Y-98344295D01*
X151360840Y-99106200D02*
X151246554Y-99144295D01*
X151246554Y-99144295D02*
X151056078Y-99144295D01*
X151056078Y-99144295D02*
X150979887Y-99106200D01*
X150979887Y-99106200D02*
X150941792Y-99068104D01*
X150941792Y-99068104D02*
X150903697Y-98991914D01*
X150903697Y-98991914D02*
X150903697Y-98915723D01*
X150903697Y-98915723D02*
X150941792Y-98839533D01*
X150941792Y-98839533D02*
X150979887Y-98801438D01*
X150979887Y-98801438D02*
X151056078Y-98763342D01*
X151056078Y-98763342D02*
X151208459Y-98725247D01*
X151208459Y-98725247D02*
X151284649Y-98687152D01*
X151284649Y-98687152D02*
X151322744Y-98649057D01*
X151322744Y-98649057D02*
X151360840Y-98572866D01*
X151360840Y-98572866D02*
X151360840Y-98496676D01*
X151360840Y-98496676D02*
X151322744Y-98420485D01*
X151322744Y-98420485D02*
X151284649Y-98382390D01*
X151284649Y-98382390D02*
X151208459Y-98344295D01*
X151208459Y-98344295D02*
X151017982Y-98344295D01*
X151017982Y-98344295D02*
X150903697Y-98382390D01*
X150560839Y-99144295D02*
X150560839Y-98344295D01*
X150560839Y-98725247D02*
X150103696Y-98725247D01*
X150103696Y-99144295D02*
X150103696Y-98344295D01*
X139939456Y-99703754D02*
X139838441Y-99131335D01*
X140343517Y-99299693D02*
X139636410Y-98592587D01*
X139636410Y-98592587D02*
X139367036Y-98861961D01*
X139367036Y-98861961D02*
X139333364Y-98962976D01*
X139333364Y-98962976D02*
X139333364Y-99030319D01*
X139333364Y-99030319D02*
X139367036Y-99131335D01*
X139367036Y-99131335D02*
X139468051Y-99232350D01*
X139468051Y-99232350D02*
X139569067Y-99266022D01*
X139569067Y-99266022D02*
X139636410Y-99266022D01*
X139636410Y-99266022D02*
X139737425Y-99232350D01*
X139737425Y-99232350D02*
X140006799Y-98962976D01*
X139030319Y-99333365D02*
X138962975Y-99333365D01*
X138962975Y-99333365D02*
X138861960Y-99367037D01*
X138861960Y-99367037D02*
X138693601Y-99535396D01*
X138693601Y-99535396D02*
X138659929Y-99636411D01*
X138659929Y-99636411D02*
X138659929Y-99703754D01*
X138659929Y-99703754D02*
X138693601Y-99804770D01*
X138693601Y-99804770D02*
X138760945Y-99872113D01*
X138760945Y-99872113D02*
X138895632Y-99939457D01*
X138895632Y-99939457D02*
X139703754Y-99939457D01*
X139703754Y-99939457D02*
X139266021Y-100377189D01*
X143439456Y-103203754D02*
X143338441Y-102631335D01*
X143843517Y-102799693D02*
X143136410Y-102092587D01*
X143136410Y-102092587D02*
X142867036Y-102361961D01*
X142867036Y-102361961D02*
X142833364Y-102462976D01*
X142833364Y-102462976D02*
X142833364Y-102530319D01*
X142833364Y-102530319D02*
X142867036Y-102631335D01*
X142867036Y-102631335D02*
X142968051Y-102732350D01*
X142968051Y-102732350D02*
X143069067Y-102766022D01*
X143069067Y-102766022D02*
X143136410Y-102766022D01*
X143136410Y-102766022D02*
X143237425Y-102732350D01*
X143237425Y-102732350D02*
X143506799Y-102462976D01*
X142766021Y-103877189D02*
X143170082Y-103473128D01*
X142968051Y-103675159D02*
X142260945Y-102968052D01*
X142260945Y-102968052D02*
X142429303Y-103001724D01*
X142429303Y-103001724D02*
X142563990Y-103001724D01*
X142563990Y-103001724D02*
X142665006Y-102968052D01*
X147166666Y-98359580D02*
X147214285Y-98407200D01*
X147214285Y-98407200D02*
X147357142Y-98454819D01*
X147357142Y-98454819D02*
X147452380Y-98454819D01*
X147452380Y-98454819D02*
X147595237Y-98407200D01*
X147595237Y-98407200D02*
X147690475Y-98311961D01*
X147690475Y-98311961D02*
X147738094Y-98216723D01*
X147738094Y-98216723D02*
X147785713Y-98026247D01*
X147785713Y-98026247D02*
X147785713Y-97883390D01*
X147785713Y-97883390D02*
X147738094Y-97692914D01*
X147738094Y-97692914D02*
X147690475Y-97597676D01*
X147690475Y-97597676D02*
X147595237Y-97502438D01*
X147595237Y-97502438D02*
X147452380Y-97454819D01*
X147452380Y-97454819D02*
X147357142Y-97454819D01*
X147357142Y-97454819D02*
X147214285Y-97502438D01*
X147214285Y-97502438D02*
X147166666Y-97550057D01*
X146214285Y-98454819D02*
X146785713Y-98454819D01*
X146499999Y-98454819D02*
X146499999Y-97454819D01*
X146499999Y-97454819D02*
X146595237Y-97597676D01*
X146595237Y-97597676D02*
X146690475Y-97692914D01*
X146690475Y-97692914D02*
X146785713Y-97740533D01*
D11*
%TO.C,JP1*%
X152433345Y-91105687D02*
X152433345Y-91705687D01*
X150333345Y-90405687D02*
X151733345Y-90405687D01*
X151733345Y-92405687D02*
X150333345Y-92405687D01*
X149633345Y-91705687D02*
X149633345Y-91105687D01*
X151733345Y-90405687D02*
G75*
G02*
X152433345Y-91105687I1J-699999D01*
G01*
X152433345Y-91705687D02*
G75*
G02*
X151733345Y-92405687I-699999J-1D01*
G01*
X149633345Y-91105687D02*
G75*
G02*
X150333345Y-90405687I700000J0D01*
G01*
X150333345Y-92405687D02*
G75*
G02*
X149633345Y-91705687I0J700000D01*
G01*
%TO.C,R2*%
X141799580Y-99939346D02*
X141439346Y-100299580D01*
X141060654Y-99200420D02*
X140700420Y-99560654D01*
%TO.C,R1*%
X143299580Y-101439346D02*
X142939346Y-101799580D01*
X142560654Y-100700420D02*
X142200420Y-101060654D01*
%TO.C,C1*%
X146265000Y-95548752D02*
X146265000Y-95026248D01*
X147735000Y-95548752D02*
X147735000Y-95026248D01*
%TO.C,J2*%
X154204594Y-99377101D02*
X155477386Y-98104308D01*
X155477386Y-98104308D02*
X156502691Y-99129613D01*
X152521680Y-107098707D02*
X157598707Y-102021680D01*
X153504558Y-98677065D02*
X154204594Y-99377101D01*
X149877101Y-103704594D02*
X148604308Y-104977386D01*
X148604308Y-104977386D02*
X149629613Y-106002691D01*
%TO.C,J1*%
X140586665Y-85256980D02*
X135509638Y-90334007D01*
%TD*%
M02*
