%TF.GenerationSoftware,KiCad,Pcbnew,8.0.7*%
%TF.CreationDate,2025-04-02T17:47:29-05:00*%
%TF.ProjectId,FinalBoard,46696e61-6c42-46f6-9172-642e6b696361,rev?*%
%TF.SameCoordinates,Original*%
%TF.FileFunction,Copper,L4,Bot*%
%TF.FilePolarity,Positive*%
%FSLAX46Y46*%
G04 Gerber Fmt 4.6, Leading zero omitted, Abs format (unit mm)*
G04 Created by KiCad (PCBNEW 8.0.7) date 2025-04-02 17:47:29*
%MOMM*%
%LPD*%
G01*
G04 APERTURE LIST*
G04 Aperture macros list*
%AMRoundRect*
0 Rectangle with rounded corners*
0 $1 Rounding radius*
0 $2 $3 $4 $5 $6 $7 $8 $9 X,Y pos of 4 corners*
0 Add a 4 corners polygon primitive as box body*
4,1,4,$2,$3,$4,$5,$6,$7,$8,$9,$2,$3,0*
0 Add four circle primitives for the rounded corners*
1,1,$1+$1,$2,$3*
1,1,$1+$1,$4,$5*
1,1,$1+$1,$6,$7*
1,1,$1+$1,$8,$9*
0 Add four rect primitives between the rounded corners*
20,1,$1+$1,$2,$3,$4,$5,0*
20,1,$1+$1,$4,$5,$6,$7,0*
20,1,$1+$1,$6,$7,$8,$9,0*
20,1,$1+$1,$8,$9,$2,$3,0*%
G04 Aperture macros list end*
%TA.AperFunction,ComponentPad*%
%ADD10O,1.905000X2.000000*%
%TD*%
%TA.AperFunction,ComponentPad*%
%ADD11R,1.905000X2.000000*%
%TD*%
%TA.AperFunction,ComponentPad*%
%ADD12R,1.700000X1.700000*%
%TD*%
%TA.AperFunction,ComponentPad*%
%ADD13O,1.700000X1.700000*%
%TD*%
%TA.AperFunction,ComponentPad*%
%ADD14C,3.000000*%
%TD*%
%TA.AperFunction,ComponentPad*%
%ADD15RoundRect,0.750000X-0.750000X-0.750000X0.750000X-0.750000X0.750000X0.750000X-0.750000X0.750000X0*%
%TD*%
%TA.AperFunction,SMDPad,CuDef*%
%ADD16RoundRect,0.250000X0.337500X0.475000X-0.337500X0.475000X-0.337500X-0.475000X0.337500X-0.475000X0*%
%TD*%
%TA.AperFunction,SMDPad,CuDef*%
%ADD17RoundRect,0.250000X-0.337500X-0.475000X0.337500X-0.475000X0.337500X0.475000X-0.337500X0.475000X0*%
%TD*%
%TA.AperFunction,SMDPad,CuDef*%
%ADD18RoundRect,0.250000X-0.475000X0.337500X-0.475000X-0.337500X0.475000X-0.337500X0.475000X0.337500X0*%
%TD*%
%TA.AperFunction,SMDPad,CuDef*%
%ADD19RoundRect,0.250000X0.475000X-0.337500X0.475000X0.337500X-0.475000X0.337500X-0.475000X-0.337500X0*%
%TD*%
%TA.AperFunction,ViaPad*%
%ADD20C,0.500000*%
%TD*%
%TA.AperFunction,Conductor*%
%ADD21C,0.250000*%
%TD*%
%TA.AperFunction,Conductor*%
%ADD22C,2.000000*%
%TD*%
G04 APERTURE END LIST*
D10*
%TO.P,U4,3,VI*%
%TO.N,+BATT*%
X124540000Y-69945000D03*
%TO.P,U4,2,VO*%
%TO.N,+3V3*%
X122000000Y-69945000D03*
D11*
%TO.P,U4,1,GND*%
%TO.N,-BATT*%
X119460000Y-69945000D03*
%TD*%
D12*
%TO.P,J7,1,Pin_1*%
%TO.N,Net-(J7-Pin_1)*%
X186250000Y-67120000D03*
D13*
%TO.P,J7,2,Pin_2*%
%TO.N,Net-(J7-Pin_2)*%
X186250000Y-69660000D03*
%TO.P,J7,3,Pin_3*%
%TO.N,Net-(J7-Pin_3)*%
X186250000Y-72200000D03*
%TO.P,J7,4,Pin_4*%
%TO.N,Net-(J7-Pin_4)*%
X186250000Y-74740000D03*
%TO.P,J7,5,Pin_5*%
%TO.N,Net-(J7-Pin_5)*%
X186250000Y-77280000D03*
%TO.P,J7,6,Pin_6*%
%TO.N,Net-(J7-Pin_6)*%
X186250000Y-79820000D03*
%TO.P,J7,7,Pin_7*%
%TO.N,Net-(J7-Pin_7)*%
X186250000Y-82360000D03*
%TO.P,J7,8,Pin_8*%
%TO.N,Net-(J7-Pin_8)*%
X186250000Y-84900000D03*
%TO.P,J7,9,Pin_9*%
%TO.N,Net-(J7-Pin_9)*%
X186250000Y-87440000D03*
%TO.P,J7,10,Pin_10*%
%TO.N,Net-(J7-Pin_10)*%
X186250000Y-89980000D03*
%TO.P,J7,11,Pin_11*%
%TO.N,Net-(J7-Pin_11)*%
X186250000Y-92520000D03*
%TO.P,J7,12,Pin_12*%
%TO.N,Net-(J7-Pin_12)*%
X186250000Y-95060000D03*
%TO.P,J7,13,Pin_13*%
%TO.N,Net-(J7-Pin_13)*%
X186250000Y-97600000D03*
%TO.P,J7,14,Pin_14*%
%TO.N,/C_14*%
X186250000Y-100140000D03*
%TO.P,J7,15,Pin_15*%
%TO.N,/C_15*%
X186250000Y-102680000D03*
%TO.P,J7,16,Pin_16*%
%TO.N,/C_16*%
X186250000Y-105220000D03*
%TO.P,J7,17,Pin_17*%
%TO.N,Net-(J7-Pin_17)*%
X186250000Y-107760000D03*
%TO.P,J7,18,Pin_18*%
%TO.N,Net-(J7-Pin_18)*%
X186250000Y-110300000D03*
%TO.P,J7,19,Pin_19*%
%TO.N,Net-(J7-Pin_19)*%
X186250000Y-112840000D03*
%TO.P,J7,20,Pin_20*%
%TO.N,Net-(J7-Pin_20)*%
X186250000Y-115380000D03*
%TO.P,J7,21,Pin_21*%
%TO.N,Net-(J7-Pin_21)*%
X186250000Y-117920000D03*
%TO.P,J7,22,Pin_22*%
%TO.N,Net-(J7-Pin_22)*%
X186250000Y-120460000D03*
%TO.P,J7,23,Pin_23*%
%TO.N,Net-(J7-Pin_23)*%
X186250000Y-123000000D03*
%TO.P,J7,24,Pin_24*%
%TO.N,Net-(J7-Pin_24)*%
X186250000Y-125540000D03*
%TO.P,J7,25,Pin_25*%
%TO.N,Net-(J7-Pin_25)*%
X186250000Y-128080000D03*
%TO.P,J7,26,Pin_26*%
%TO.N,Net-(J7-Pin_26)*%
X186250000Y-130620000D03*
%TO.P,J7,27,Pin_27*%
%TO.N,Net-(J7-Pin_27)*%
X186250000Y-133160000D03*
%TO.P,J7,28,Pin_28*%
%TO.N,Net-(J7-Pin_28)*%
X186250000Y-135700000D03*
%TD*%
%TO.P,J6,3,Pin_3*%
%TO.N,/UART_TX*%
X117500000Y-104955000D03*
%TO.P,J6,2,Pin_2*%
%TO.N,/UART_RX*%
X117500000Y-107495000D03*
D12*
%TO.P,J6,1,Pin_1*%
%TO.N,-BATT*%
X117500000Y-110035000D03*
%TD*%
D13*
%TO.P,J5,5,Pin_5*%
%TO.N,/SWCLK*%
X117500000Y-86250000D03*
%TO.P,J5,4,Pin_4*%
%TO.N,/SWDIO*%
X117500000Y-88790000D03*
%TO.P,J5,3,Pin_3*%
%TO.N,/NRST*%
X117500000Y-91330000D03*
%TO.P,J5,2,Pin_2*%
%TO.N,-BATT*%
X117500000Y-93870000D03*
D12*
%TO.P,J5,1,Pin_1*%
%TO.N,+3V3*%
X117500000Y-96410000D03*
%TD*%
%TO.P,J4,1,Pin_1*%
%TO.N,+3V3*%
X197500000Y-88000000D03*
D13*
%TO.P,J4,2,Pin_2*%
%TO.N,-BATT*%
X197500000Y-90540000D03*
%TO.P,J4,3,Pin_3*%
%TO.N,/ENC_U*%
X197500000Y-93080000D03*
%TO.P,J4,4,Pin_4*%
%TO.N,/ENC_V*%
X197500000Y-95620000D03*
%TO.P,J4,5,Pin_5*%
%TO.N,/ENC_W*%
X197500000Y-98160000D03*
%TO.P,J4,6,Pin_6*%
%TO.N,/ENC_SDA{slash}DO*%
X197500000Y-100700000D03*
%TO.P,J4,7,Pin_7*%
%TO.N,/ENC_SCL{slash}CLK*%
X197500000Y-103240000D03*
%TO.P,J4,8,Pin_8*%
%TO.N,/ENC_VDD{slash}CSN*%
X197500000Y-105780000D03*
%TD*%
D12*
%TO.P,J3,1,Pin_1*%
%TO.N,/OUTA*%
X197500000Y-61830000D03*
D13*
%TO.P,J3,2,Pin_2*%
%TO.N,/OUTB*%
X197500000Y-59290000D03*
%TO.P,J3,3,Pin_3*%
%TO.N,/OUTC*%
X197500000Y-56750000D03*
%TD*%
D12*
%TO.P,J2,1,Pin_1*%
%TO.N,-BATT*%
X173080000Y-117960000D03*
D13*
%TO.P,J2,2,Pin_2*%
%TO.N,+3V3*%
X173080000Y-120500000D03*
%TO.P,J2,3,Pin_3*%
%TO.N,/NRF_CE*%
X170540000Y-117960000D03*
%TO.P,J2,4,Pin_4*%
%TO.N,/NRF_CSN*%
X170540000Y-120500000D03*
%TO.P,J2,5,Pin_5*%
%TO.N,/NRF_SCK*%
X168000000Y-117960000D03*
%TO.P,J2,6,Pin_6*%
%TO.N,/NRF_MOSI*%
X168000000Y-120500000D03*
%TO.P,J2,7,Pin_7*%
%TO.N,/NRF_MISO*%
X165460000Y-117960000D03*
%TO.P,J2,8,Pin_8*%
%TO.N,/NRF_IRQ*%
X165460000Y-120500000D03*
%TD*%
D14*
%TO.P,J1,2,Pin_2*%
%TO.N,+BATT*%
X124500000Y-55500000D03*
D15*
%TO.P,J1,1,Pin_1*%
%TO.N,-BATT*%
X119500000Y-55500000D03*
%TD*%
D16*
%TO.P,C16,1*%
%TO.N,+3V3*%
X152037500Y-114500000D03*
%TO.P,C16,2*%
%TO.N,-BATT*%
X149962500Y-114500000D03*
%TD*%
%TO.P,C15,1*%
%TO.N,+3V3*%
X145287500Y-114500000D03*
%TO.P,C15,2*%
%TO.N,-BATT*%
X143212500Y-114500000D03*
%TD*%
D17*
%TO.P,C14,1*%
%TO.N,+3V3*%
X139962500Y-98750000D03*
%TO.P,C14,2*%
%TO.N,-BATT*%
X142037500Y-98750000D03*
%TD*%
%TO.P,C13,1*%
%TO.N,+3V3*%
X136212500Y-96000000D03*
%TO.P,C13,2*%
%TO.N,-BATT*%
X138287500Y-96000000D03*
%TD*%
D18*
%TO.P,C12,1*%
%TO.N,+3V3*%
X155750000Y-97212500D03*
%TO.P,C12,2*%
%TO.N,-BATT*%
X155750000Y-99287500D03*
%TD*%
%TO.P,C9,1*%
%TO.N,+3V3*%
X155750000Y-103462500D03*
%TO.P,C9,2*%
%TO.N,-BATT*%
X155750000Y-105537500D03*
%TD*%
D19*
%TO.P,C8,1*%
%TO.N,+3V3*%
X135750000Y-111037500D03*
%TO.P,C8,2*%
%TO.N,-BATT*%
X135750000Y-108962500D03*
%TD*%
D16*
%TO.P,C6,1*%
%TO.N,+3V3*%
X151037500Y-60250000D03*
%TO.P,C6,2*%
%TO.N,-BATT*%
X148962500Y-60250000D03*
%TD*%
D18*
%TO.P,C4,1*%
%TO.N,+BATT*%
X154500000Y-67712500D03*
%TO.P,C4,2*%
%TO.N,Net-(U1-CP)*%
X154500000Y-69787500D03*
%TD*%
%TO.P,C3,1*%
%TO.N,Net-(U1-VREF_ILIM)*%
X141000000Y-65212500D03*
%TO.P,C3,2*%
%TO.N,-BATT*%
X141000000Y-67287500D03*
%TD*%
D20*
%TO.N,/BOOT*%
X135304987Y-96881883D03*
X141771382Y-95478618D03*
%TO.N,+BATT*%
X151500000Y-68250000D03*
X150643135Y-67663674D03*
X151248268Y-67678818D03*
X151250000Y-67057600D03*
X150633521Y-67057600D03*
%TO.N,-BATT*%
X151750000Y-64000000D03*
X151750000Y-63250000D03*
X151000000Y-63250000D03*
X150250000Y-63250000D03*
X150250000Y-65500000D03*
X148750000Y-65500000D03*
X149500000Y-65500000D03*
X148750000Y-64750000D03*
X149500000Y-64750000D03*
X150250000Y-64750000D03*
X151000000Y-64000000D03*
X150250000Y-64000000D03*
X149500000Y-64000000D03*
X148750000Y-64000000D03*
%TO.N,Net-(J7-Pin_1)*%
X152250000Y-105000000D03*
%TO.N,Net-(J7-Pin_2)*%
X157000000Y-105500000D03*
%TO.N,-BATT*%
X155211099Y-105000012D03*
%TO.N,Net-(J7-Pin_3)*%
X157335412Y-106170823D03*
%TO.N,Net-(J7-Pin_4)*%
X155769730Y-106903614D03*
X182750000Y-111750000D03*
%TO.N,Net-(J7-Pin_5)*%
X157000000Y-103500000D03*
X190250000Y-105500000D03*
%TO.N,Net-(J7-Pin_6)*%
X159488842Y-103490878D03*
X189250000Y-105000000D03*
%TO.N,Net-(J7-Pin_7)*%
X155468870Y-108561522D03*
%TO.N,Net-(J7-Pin_8)*%
X158472155Y-107874380D03*
%TO.N,Net-(J7-Pin_10)*%
X144625000Y-92750000D03*
%TO.N,Net-(J7-Pin_11)*%
X145500000Y-92750000D03*
%TO.N,Net-(J7-Pin_12)*%
X146775000Y-100264175D03*
%TO.N,Net-(J7-Pin_13)*%
X147250000Y-99750000D03*
%TO.N,/C_14*%
X148107158Y-98868411D03*
%TO.N,/C_15*%
X148696360Y-98490466D03*
%TO.N,/C_16*%
X149000000Y-108500000D03*
%TO.N,Net-(J7-Pin_17)*%
X148031232Y-109718769D03*
%TO.N,Net-(J7-Pin_18)*%
X136000000Y-98125000D03*
%TO.N,Net-(J7-Pin_19)*%
X142500000Y-100250000D03*
%TO.N,/NRF_IRQ*%
X157943759Y-103534961D03*
X169375000Y-103375000D03*
%TO.N,Net-(J7-Pin_20)*%
X140500000Y-95250000D03*
%TO.N,Net-(J7-Pin_21)*%
X139148124Y-103530290D03*
%TO.N,Net-(J7-Pin_22)*%
X148750000Y-118250000D03*
%TO.N,Net-(J7-Pin_23)*%
X149000000Y-119500000D03*
%TO.N,Net-(J7-Pin_24)*%
X148750000Y-120500000D03*
%TO.N,Net-(J7-Pin_25)*%
X136250000Y-100875000D03*
%TO.N,Net-(J7-Pin_26)*%
X135500000Y-100250000D03*
%TO.N,Net-(J7-Pin_27)*%
X134750000Y-99625000D03*
%TO.N,Net-(J7-Pin_28)*%
X134500000Y-98750000D03*
%TO.N,Net-(U5-PF1)*%
X135000000Y-104250000D03*
X134627566Y-106943415D03*
%TO.N,Net-(U5-PF0)*%
X135716453Y-103537875D03*
X133992609Y-106626493D03*
%TO.N,+3V3*%
X125750000Y-124725000D03*
X128250000Y-106750000D03*
%TO.N,/OUTC*%
X174375000Y-61875000D03*
%TO.N,/OUTB*%
X170750000Y-64250000D03*
%TO.N,/OUTA*%
X164750000Y-66450000D03*
%TO.N,/OUTC*%
X154707172Y-62465528D03*
X153000000Y-63250000D03*
X155000000Y-63250000D03*
X154309018Y-63220491D03*
%TO.N,/OUTB*%
X155000000Y-64750000D03*
X154250000Y-64750000D03*
X153500000Y-64750000D03*
X152750000Y-64750000D03*
%TO.N,/OUTA*%
X155000000Y-66250000D03*
X154250000Y-66250000D03*
X153500000Y-66250000D03*
X152750000Y-66250000D03*
%TO.N,-BATT*%
X141500000Y-73250000D03*
X140750000Y-73250000D03*
%TO.N,+3V3*%
X151250000Y-59750000D03*
X136000000Y-62000000D03*
X137250000Y-62000000D03*
X136000000Y-61000000D03*
X137750000Y-60250000D03*
X136750000Y-60250000D03*
X137750000Y-61250000D03*
X136625000Y-61375000D03*
X137250000Y-60750000D03*
%TO.N,-BATT*%
X141000000Y-67287500D03*
%TO.N,/DRVOFF*%
X154286031Y-61522713D03*
X147782640Y-69335030D03*
%TO.N,Net-(U1-CP)*%
X153000000Y-68000000D03*
%TO.N,Net-(U1-VREF_ILIM)*%
X144750000Y-65000000D03*
%TO.N,/ENC_U*%
X160750000Y-109250000D03*
X136411676Y-107825000D03*
%TO.N,/ENC_VDD{slash}CSN*%
X139361083Y-104934321D03*
%TO.N,/NRST*%
X133125000Y-105558631D03*
X136332468Y-104675792D03*
%TO.N,/NRF_CSN*%
X140091909Y-105975793D03*
%TO.N,/NRF_CE*%
X152136891Y-108175000D03*
%TO.N,/NRF_SCK*%
X151963192Y-108904611D03*
%TO.N,/NRF_MISO*%
X151361943Y-109352945D03*
%TO.N,/NRF_MOSI*%
X151234089Y-110091970D03*
%TO.N,-BATT*%
X142000000Y-98750000D03*
%TO.N,+3V3*%
X139962500Y-98750000D03*
%TO.N,/INLA*%
X147925000Y-60250000D03*
%TO.N,/INHA*%
X149875000Y-59000000D03*
%TO.N,/INLA*%
X147202076Y-69795412D03*
%TO.N,/SCLK*%
X143130487Y-64925000D03*
X145000000Y-68950000D03*
%TO.N,/SCS_N*%
X143865674Y-64925000D03*
X146243327Y-68900023D03*
%TO.N,/SLEEP_N*%
X145077552Y-99268146D03*
X156250000Y-93750000D03*
%TO.N,/FAULT_N*%
X155644103Y-92846655D03*
X145197812Y-98168304D03*
%TO.N,/SOA*%
X164500000Y-94500000D03*
X146200000Y-100717540D03*
%TO.N,-BATT*%
X135875000Y-108962500D03*
%TO.N,/VSEN_A*%
X168825406Y-100690000D03*
X146925449Y-101069163D03*
%TO.N,-BATT*%
X156375000Y-99200183D03*
%TO.N,/VSEN_B*%
X171750000Y-99000000D03*
X147980864Y-99917691D03*
%TO.N,/SOB*%
X162614833Y-95125000D03*
X148621999Y-99342692D03*
%TO.N,/SOC*%
X149313229Y-99500000D03*
X160640769Y-95540642D03*
%TO.N,/VSEN_C*%
X177250000Y-95000000D03*
X150085310Y-100491986D03*
%TO.N,+3V3*%
X135875000Y-111037500D03*
X145125000Y-114500000D03*
%TO.N,-BATT*%
X143212500Y-114500000D03*
%TO.N,+3V3*%
X155750000Y-103462500D03*
%TO.N,-BATT*%
X149962500Y-114500000D03*
%TO.N,+3V3*%
X152037500Y-114500000D03*
%TO.N,/SDO*%
X145452759Y-62047241D03*
X145453338Y-58703338D03*
%TO.N,/INLC*%
X145689378Y-61272338D03*
X146521536Y-58271536D03*
%TO.N,+3V3*%
X150713026Y-60574474D03*
%TO.N,-BATT*%
X149749997Y-60250003D03*
%TO.N,/INHA*%
X149293994Y-56154025D03*
%TO.N,/INHB*%
X148754468Y-56675000D03*
X148581376Y-58784740D03*
%TO.N,/INHC*%
X147564798Y-57397153D03*
X146439354Y-61266068D03*
%TO.N,-BATT*%
X138287500Y-96000000D03*
%TO.N,+3V3*%
X136212500Y-96000000D03*
X155750000Y-97212500D03*
%TO.N,/SWDIO*%
X153309967Y-92425000D03*
%TO.N,/SWCLK*%
X152301617Y-91975000D03*
%TO.N,/ENC_SCL{slash}CLK*%
X152133882Y-99409190D03*
%TO.N,/ENC_V*%
X147126185Y-93702439D03*
%TO.N,Net-(J7-Pin_9)*%
X144750000Y-94500000D03*
%TO.N,/UART_TX*%
X144347274Y-99097274D03*
%TO.N,/UART_RX*%
X143816942Y-98566942D03*
%TO.N,/ENC_SDA{slash}DO*%
X142884764Y-94829722D03*
%TO.N,-BATT*%
X118750000Y-62500000D03*
X119500000Y-62500000D03*
X120250000Y-62500000D03*
X120250000Y-61750000D03*
X119500000Y-61750000D03*
X118750000Y-61750000D03*
X118750000Y-61000000D03*
X119500000Y-61000000D03*
X120250000Y-61000000D03*
%TO.N,+BATT*%
X125250000Y-62500000D03*
X124500000Y-62500000D03*
X123750000Y-62500000D03*
X123750000Y-61750000D03*
X124500000Y-61750000D03*
X125250000Y-61750000D03*
X125250000Y-61000000D03*
X124500000Y-61000000D03*
X123750000Y-61000000D03*
%TD*%
D21*
%TO.N,/ENC_SDA{slash}DO*%
X150354416Y-91350000D02*
X146579416Y-95125000D01*
X161986396Y-91350000D02*
X150354416Y-91350000D01*
%TO.N,/SWCLK*%
X133426648Y-86250000D02*
X142976648Y-95800000D01*
%TO.N,/ENC_SDA{slash}DO*%
X190541116Y-93741116D02*
X164377512Y-93741116D01*
%TO.N,/SWCLK*%
X117500000Y-86250000D02*
X133426648Y-86250000D01*
%TO.N,/ENC_SDA{slash}DO*%
X197500000Y-100700000D02*
X190541116Y-93741116D01*
X143180042Y-95125000D02*
X142884764Y-94829722D01*
%TO.N,/SWDIO*%
X117500000Y-88790000D02*
X126210000Y-97500000D01*
X153134967Y-92600000D02*
X153309967Y-92425000D01*
%TO.N,/ENC_SDA{slash}DO*%
X164377512Y-93741116D02*
X161986396Y-91350000D01*
%TO.N,/SWCLK*%
X150365812Y-91975000D02*
X152301617Y-91975000D01*
X142976648Y-95800000D02*
X146540812Y-95800000D01*
%TO.N,/ENC_SDA{slash}DO*%
X146579416Y-95125000D02*
X143180042Y-95125000D01*
%TO.N,/SWDIO*%
X126210000Y-97500000D02*
X145477208Y-97500000D01*
%TO.N,/SWCLK*%
X146540812Y-95800000D02*
X150365812Y-91975000D01*
%TO.N,/SWDIO*%
X145477208Y-97500000D02*
X150377208Y-92600000D01*
X150377208Y-92600000D02*
X153134967Y-92600000D01*
%TO.N,/BOOT*%
X135473104Y-97050000D02*
X140200000Y-97050000D01*
X135304987Y-96881883D02*
X135473104Y-97050000D01*
X140200000Y-97050000D02*
X141771382Y-95478618D01*
%TO.N,/NRST*%
X133125000Y-105558631D02*
X133483631Y-105200000D01*
%TO.N,Net-(U5-PF0)*%
X135629328Y-103625000D02*
X135716453Y-103537875D01*
X131800000Y-106186396D02*
X131800000Y-104813604D01*
X131800000Y-104813604D02*
X132988604Y-103625000D01*
X132363604Y-106750000D02*
X131800000Y-106186396D01*
%TO.N,/ENC_U*%
X137354289Y-107825000D02*
X136411676Y-107825000D01*
X154224800Y-109250000D02*
X150224800Y-105250000D01*
%TO.N,/NRST*%
X135808260Y-105200000D02*
X136332468Y-104675792D01*
%TO.N,Net-(U5-PF0)*%
X133992609Y-106626493D02*
X133869102Y-106750000D01*
%TO.N,/NRST*%
X133483631Y-105200000D02*
X135808260Y-105200000D01*
%TO.N,Net-(U5-PF0)*%
X132988604Y-103625000D02*
X135629328Y-103625000D01*
%TO.N,/ENC_U*%
X150224800Y-105250000D02*
X139929289Y-105250000D01*
X160750000Y-109250000D02*
X154224800Y-109250000D01*
%TO.N,Net-(U5-PF0)*%
X133869102Y-106750000D02*
X132363604Y-106750000D01*
%TO.N,/ENC_U*%
X139929289Y-105250000D02*
X137354289Y-107825000D01*
%TO.N,Net-(J7-Pin_6)*%
X160042964Y-104045000D02*
X159488842Y-103490878D01*
%TO.N,/ENC_VDD{slash}CSN*%
X139920404Y-104375000D02*
X139361083Y-104934321D01*
%TO.N,/NRF_IRQ*%
X168865878Y-102865878D02*
X158612842Y-102865878D01*
%TO.N,Net-(J7-Pin_6)*%
X188295000Y-104045000D02*
X160042964Y-104045000D01*
%TO.N,/ENC_VDD{slash}CSN*%
X158309995Y-105676111D02*
X157008884Y-104375000D01*
%TO.N,/NRF_IRQ*%
X169375000Y-103375000D02*
X168865878Y-102865878D01*
X158612842Y-102865878D02*
X157943759Y-103534961D01*
%TO.N,/ENC_VDD{slash}CSN*%
X197500000Y-105780000D02*
X196885000Y-106395000D01*
%TO.N,Net-(J7-Pin_6)*%
X189250000Y-105000000D02*
X188295000Y-104045000D01*
%TO.N,/ENC_VDD{slash}CSN*%
X196885000Y-106395000D02*
X179281396Y-106395000D01*
X157008884Y-104375000D02*
X139920404Y-104375000D01*
X178562507Y-105676111D02*
X158309995Y-105676111D01*
X179281396Y-106395000D02*
X178562507Y-105676111D01*
%TO.N,/UART_TX*%
X116325000Y-106130000D02*
X116325000Y-108075000D01*
X135054900Y-108025000D02*
X135145280Y-108025000D01*
%TO.N,/UART_RX*%
X134441116Y-107575000D02*
X134958884Y-107575000D01*
X138523124Y-103726876D02*
X138523124Y-103271406D01*
%TO.N,/UART_TX*%
X117500000Y-104955000D02*
X116325000Y-106130000D01*
X144347274Y-99923006D02*
X144347274Y-99097274D01*
%TO.N,/UART_RX*%
X135325000Y-107208884D02*
X135325000Y-106925000D01*
%TO.N,/UART_TX*%
X134409900Y-108670000D02*
X135054900Y-108025000D01*
%TO.N,/UART_RX*%
X138523124Y-103271406D02*
X138889240Y-102905290D01*
X117500000Y-107495000D02*
X134361116Y-107495000D01*
X143125000Y-99258884D02*
X143816942Y-98566942D01*
%TO.N,/UART_TX*%
X135145280Y-108025000D02*
X139014990Y-104155290D01*
X116920000Y-108670000D02*
X134409900Y-108670000D01*
X139773124Y-103789174D02*
X140481106Y-103789174D01*
%TO.N,/UART_RX*%
X140728594Y-102905290D02*
X143125000Y-100508884D01*
%TO.N,/SLEEP_N*%
X156250000Y-93750000D02*
X150500000Y-93750000D01*
%TO.N,/UART_TX*%
X140481106Y-103789174D02*
X144347274Y-99923006D01*
%TO.N,/SLEEP_N*%
X150500000Y-93750000D02*
X145077552Y-99172448D01*
X145077552Y-99172448D02*
X145077552Y-99268146D01*
%TO.N,/UART_TX*%
X139407008Y-104155290D02*
X139773124Y-103789174D01*
X116325000Y-108075000D02*
X116920000Y-108670000D01*
%TO.N,/UART_RX*%
X134958884Y-107575000D02*
X135325000Y-107208884D01*
X135325000Y-106925000D02*
X138523124Y-103726876D01*
X143125000Y-100508884D02*
X143125000Y-99258884D01*
X138889240Y-102905290D02*
X140728594Y-102905290D01*
X134361116Y-107495000D02*
X134441116Y-107575000D01*
%TO.N,/UART_TX*%
X139014990Y-104155290D02*
X139407008Y-104155290D01*
%TO.N,Net-(J7-Pin_4)*%
X157076528Y-106795823D02*
X156855705Y-106575000D01*
X178825000Y-106575000D02*
X157815119Y-106575000D01*
X156098344Y-106575000D02*
X155769730Y-106903614D01*
X157594296Y-106795823D02*
X157076528Y-106795823D01*
X182750000Y-110500000D02*
X178825000Y-106575000D01*
X157815119Y-106575000D02*
X157594296Y-106795823D01*
X156855705Y-106575000D02*
X156098344Y-106575000D01*
X182750000Y-111750000D02*
X182750000Y-110500000D01*
%TO.N,Net-(J7-Pin_5)*%
X186546701Y-101315000D02*
X159185000Y-101315000D01*
X190250000Y-105500000D02*
X190250000Y-105018299D01*
X190250000Y-105018299D02*
X186546701Y-101315000D01*
%TO.N,/VSEN_A*%
X148406286Y-102550000D02*
X157063604Y-102550000D01*
%TO.N,Net-(J7-Pin_5)*%
X159185000Y-101315000D02*
X157000000Y-103500000D01*
%TO.N,/VSEN_B*%
X157860222Y-101116986D02*
X159977208Y-99000000D01*
X159977208Y-99000000D02*
X171750000Y-99000000D01*
%TO.N,/VSEN_A*%
X146925449Y-101069163D02*
X148406286Y-102550000D01*
X158923604Y-100690000D02*
X168825406Y-100690000D01*
%TO.N,/VSEN_B*%
X147980864Y-99917691D02*
X149180159Y-101116986D01*
X149180159Y-101116986D02*
X157860222Y-101116986D01*
%TO.N,/VSEN_A*%
X157063604Y-102550000D02*
X158923604Y-100690000D01*
%TO.N,Net-(J7-Pin_9)*%
X144979720Y-94500000D02*
X152039720Y-87440000D01*
X144750000Y-94500000D02*
X144979720Y-94500000D01*
X152039720Y-87440000D02*
X186250000Y-87440000D01*
%TO.N,/SOB*%
X148621999Y-99342692D02*
X148657308Y-99342692D01*
X152600000Y-95400000D02*
X154872792Y-95400000D01*
X148657308Y-99342692D02*
X152600000Y-95400000D01*
X154872792Y-95400000D02*
X155400000Y-94872792D01*
X155400000Y-94872792D02*
X162362625Y-94872792D01*
X162362625Y-94872792D02*
X162614833Y-95125000D01*
%TO.N,/SOA*%
X150651563Y-94950000D02*
X154686396Y-94950000D01*
X155816116Y-94200000D02*
X155991116Y-94375000D01*
X156683884Y-94200000D02*
X164200000Y-94200000D01*
X146200000Y-99401563D02*
X150651563Y-94950000D01*
X154686396Y-94950000D02*
X155436396Y-94200000D01*
X155991116Y-94375000D02*
X156508884Y-94375000D01*
X156508884Y-94375000D02*
X156683884Y-94200000D01*
X146200000Y-100717540D02*
X146200000Y-99401563D01*
X155436396Y-94200000D02*
X155816116Y-94200000D01*
X164200000Y-94200000D02*
X164500000Y-94500000D01*
%TO.N,/SOC*%
X149313229Y-99500000D02*
X150713229Y-98100000D01*
X160331411Y-95850000D02*
X160640769Y-95540642D01*
X154100000Y-96809188D02*
X154100000Y-96593504D01*
X152809188Y-98100000D02*
X154100000Y-96809188D01*
X154100000Y-96593504D02*
X154843504Y-95850000D01*
X154843504Y-95850000D02*
X160331411Y-95850000D01*
X150713229Y-98100000D02*
X152809188Y-98100000D01*
%TO.N,Net-(U5-PF1)*%
X134757679Y-106500000D02*
X134757679Y-106813302D01*
X133750000Y-105750000D02*
X134007679Y-105750000D01*
X135000000Y-104250000D02*
X134500000Y-104750000D01*
X132750000Y-106250000D02*
X133250000Y-106250000D01*
X134757679Y-106813302D02*
X134627566Y-106943415D01*
X132500000Y-105000000D02*
X132500000Y-106000000D01*
X134500000Y-104750000D02*
X132750000Y-104750000D01*
X132500000Y-106000000D02*
X132750000Y-106250000D01*
X134007679Y-105750000D02*
X134757679Y-106500000D01*
X133250000Y-106250000D02*
X133750000Y-105750000D01*
X132750000Y-104750000D02*
X132500000Y-105000000D01*
D22*
%TO.N,/OUTC*%
X174375000Y-61875000D02*
X174250000Y-62000000D01*
%TO.N,/OUTB*%
X170750000Y-64250000D02*
X157250000Y-64250000D01*
%TO.N,/OUTA*%
X164750000Y-66450000D02*
X176022540Y-66450000D01*
%TO.N,-BATT*%
X152825000Y-61332538D02*
X149657538Y-64500000D01*
X149657538Y-64500000D02*
X149250000Y-64500000D01*
X122200000Y-52800000D02*
X148061290Y-52800000D01*
X148061290Y-52800000D02*
X152825000Y-57563710D01*
X152825000Y-57563710D02*
X152825000Y-61332538D01*
X119500000Y-55500000D02*
X122200000Y-52800000D01*
D21*
%TO.N,/DRVOFF*%
X154286031Y-61522713D02*
X154286031Y-61745340D01*
X153311916Y-63938084D02*
X152688084Y-63938084D01*
X154286031Y-61745340D02*
X153625000Y-62406371D01*
X153625000Y-62406371D02*
X153625000Y-63625000D01*
X153625000Y-63625000D02*
X153311916Y-63938084D01*
X152688084Y-63938084D02*
X147782640Y-68843528D01*
X147782640Y-68843528D02*
X147782640Y-69335030D01*
D22*
%TO.N,/OUTA*%
X176022540Y-66450000D02*
X180642540Y-61830000D01*
X180642540Y-61830000D02*
X197500000Y-61830000D01*
%TO.N,/OUTB*%
X174661270Y-64200000D02*
X174611270Y-64250000D01*
X175161270Y-64200000D02*
X174661270Y-64200000D01*
X197500000Y-59290000D02*
X180071270Y-59290000D01*
%TO.N,/OUTC*%
X179500000Y-56750000D02*
X174375000Y-61875000D01*
%TO.N,/OUTB*%
X180071270Y-59290000D02*
X175161270Y-64200000D01*
%TO.N,/OUTA*%
X156338730Y-66450000D02*
X164750000Y-66450000D01*
%TO.N,/OUTC*%
X155861075Y-62000000D02*
X155861075Y-62068988D01*
X197500000Y-56750000D02*
X179500000Y-56750000D01*
%TO.N,/OUTB*%
X174611270Y-64250000D02*
X170750000Y-64250000D01*
%TO.N,/OUTC*%
X174250000Y-62000000D02*
X155861075Y-62000000D01*
D21*
%TO.N,Net-(U1-CP)*%
X153000000Y-68000000D02*
X153000000Y-68287500D01*
X153000000Y-68287500D02*
X154500000Y-69787500D01*
%TO.N,+BATT*%
X153000000Y-67212500D02*
X151287500Y-67212500D01*
X153000000Y-67212500D02*
X153250000Y-67212500D01*
X153750000Y-67712500D02*
X154500000Y-67712500D01*
X153250000Y-67212500D02*
X153750000Y-67712500D01*
X151287500Y-67212500D02*
X151000000Y-67500000D01*
D22*
X151125000Y-68900830D02*
X151125000Y-67625000D01*
X147823397Y-71295412D02*
X148111181Y-71007628D01*
X124500000Y-55500000D02*
X140295412Y-71295412D01*
X151125000Y-67625000D02*
X151000000Y-67500000D01*
X140295412Y-71295412D02*
X147823397Y-71295412D01*
D21*
%TO.N,/INLA*%
X147925000Y-60250000D02*
X147925000Y-67941116D01*
X147202076Y-68664040D02*
X147202076Y-69795412D01*
D22*
%TO.N,+BATT*%
X149018202Y-71007628D02*
X151125000Y-68900830D01*
X148111181Y-71007628D02*
X149018202Y-71007628D01*
D21*
%TO.N,/INLA*%
X147925000Y-67941116D02*
X147202076Y-68664040D01*
%TO.N,Net-(U1-VREF_ILIM)*%
X144750000Y-64750000D02*
X144750000Y-65000000D01*
%TO.N,/SCLK*%
X145000000Y-68950000D02*
X143079177Y-67029177D01*
%TO.N,/SCS_N*%
X143865674Y-66522370D02*
X143865674Y-64925000D01*
X146243327Y-68900023D02*
X143865674Y-66522370D01*
%TO.N,/SCLK*%
X143079177Y-67029177D02*
X143079177Y-64976310D01*
X143079177Y-64976310D02*
X143130487Y-64925000D01*
%TO.N,Net-(U1-VREF_ILIM)*%
X141000000Y-65212500D02*
X141912500Y-64300000D01*
X141912500Y-64300000D02*
X144300000Y-64300000D01*
X144300000Y-64300000D02*
X144750000Y-64750000D01*
%TO.N,/NRF_CE*%
X168830000Y-116250000D02*
X160411627Y-116250000D01*
%TO.N,/NRF_SCK*%
X159950000Y-116700000D02*
X152154611Y-108904611D01*
X168000000Y-117960000D02*
X166740000Y-116700000D01*
%TO.N,/NRF_MOSI*%
X166825000Y-121675000D02*
X162817119Y-121675000D01*
%TO.N,/NRF_CSN*%
X140339397Y-105975793D02*
X140091909Y-105975793D01*
%TO.N,/NRF_MOSI*%
X162817119Y-121675000D02*
X151234089Y-110091970D01*
%TO.N,/NRF_MISO*%
X165460000Y-117960000D02*
X159968998Y-117960000D01*
X159968998Y-117960000D02*
X151361943Y-109352945D01*
%TO.N,/NRF_CE*%
X160411627Y-116250000D02*
X152336627Y-108175000D01*
%TO.N,/NRF_MOSI*%
X168000000Y-120500000D02*
X166825000Y-121675000D01*
%TO.N,/NRF_CE*%
X152336627Y-108175000D02*
X152136891Y-108175000D01*
%TO.N,/NRF_SCK*%
X152154611Y-108904611D02*
X151963192Y-108904611D01*
X166740000Y-116700000D02*
X159950000Y-116700000D01*
%TO.N,/NRF_CSN*%
X170540000Y-120500000D02*
X168915000Y-122125000D01*
X147170100Y-108000000D02*
X142363604Y-108000000D01*
X161295100Y-122125000D02*
X147170100Y-108000000D01*
X168915000Y-122125000D02*
X161295100Y-122125000D01*
%TO.N,/NRF_CE*%
X170540000Y-117960000D02*
X168830000Y-116250000D01*
%TO.N,/NRF_CSN*%
X142363604Y-108000000D02*
X140339397Y-105975793D01*
%TO.N,/VSEN_C*%
X154550000Y-96779900D02*
X154550000Y-96995584D01*
X175950000Y-96300000D02*
X155029900Y-96300000D01*
X152027296Y-98550000D02*
X150085310Y-100491986D01*
X152995584Y-98550000D02*
X152027296Y-98550000D01*
X155029900Y-96300000D02*
X154550000Y-96779900D01*
X154550000Y-96995584D02*
X152995584Y-98550000D01*
X177250000Y-95000000D02*
X175950000Y-96300000D01*
%TO.N,-BATT*%
X142037500Y-98750000D02*
X142000000Y-98750000D01*
%TO.N,/SDO*%
X145453338Y-58703338D02*
X145064378Y-59092298D01*
X145064378Y-61658860D02*
X145452759Y-62047241D01*
%TO.N,/INHC*%
X147564798Y-57397153D02*
X147300000Y-57661951D01*
%TO.N,/SDO*%
X145064378Y-59092298D02*
X145064378Y-61658860D01*
%TO.N,/INLC*%
X146521536Y-58271536D02*
X146521536Y-60344580D01*
X146521536Y-60344580D02*
X145689378Y-61176738D01*
%TO.N,/INHC*%
X147300000Y-60405422D02*
X146439354Y-61266068D01*
%TO.N,/INLC*%
X145689378Y-61176738D02*
X145689378Y-61272338D01*
%TO.N,/INHC*%
X147300000Y-57661951D02*
X147300000Y-60405422D01*
%TO.N,-BATT*%
X149749997Y-60250003D02*
X148962503Y-60250003D01*
X148962503Y-60250003D02*
X148962500Y-60250000D01*
%TO.N,/INHA*%
X149875000Y-59000000D02*
X149875000Y-56735031D01*
%TO.N,/INHB*%
X148714734Y-56714734D02*
X148754468Y-56675000D01*
%TO.N,/INHA*%
X149875000Y-56735031D02*
X149293994Y-56154025D01*
%TO.N,/INHB*%
X148714734Y-58865166D02*
X148714734Y-56714734D01*
D22*
%TO.N,-BATT*%
X119460000Y-69945000D02*
X119460000Y-55540000D01*
X119460000Y-55540000D02*
X119500000Y-55500000D01*
%TO.N,+BATT*%
X124540000Y-69945000D02*
X124540000Y-55540000D01*
X124540000Y-55540000D02*
X124500000Y-55500000D01*
D21*
%TO.N,/FAULT_N*%
X145445300Y-98168304D02*
X150563604Y-93050000D01*
%TO.N,/ENC_V*%
X152296014Y-88750000D02*
X147343575Y-93702439D01*
X147343575Y-93702439D02*
X147126185Y-93702439D01*
%TO.N,/FAULT_N*%
X145197812Y-98168304D02*
X145445300Y-98168304D01*
%TO.N,/ENC_V*%
X197500000Y-95620000D02*
X190630000Y-88750000D01*
%TO.N,/FAULT_N*%
X150563604Y-93050000D02*
X155440758Y-93050000D01*
X155440758Y-93050000D02*
X155644103Y-92846655D01*
%TO.N,/ENC_V*%
X190630000Y-88750000D02*
X152296014Y-88750000D01*
%TO.N,/ENC_SCL{slash}CLK*%
X185763299Y-96425000D02*
X184063299Y-98125000D01*
X190685000Y-96425000D02*
X185763299Y-96425000D01*
X154056980Y-98125000D02*
X152772790Y-99409190D01*
X197500000Y-103240000D02*
X190685000Y-96425000D01*
X152772790Y-99409190D02*
X152133882Y-99409190D01*
X184063299Y-98125000D02*
X154056980Y-98125000D01*
%TD*%
%TA.AperFunction,Conductor*%
%TO.N,+3V3*%
G36*
X145773081Y-99110468D02*
G01*
X145829014Y-99152340D01*
X145853431Y-99217804D01*
X145849522Y-99258742D01*
X145838678Y-99299214D01*
X145838678Y-99299215D01*
X145825468Y-99348516D01*
X145825465Y-99348528D01*
X145824500Y-99352126D01*
X145824500Y-100340355D01*
X145804815Y-100407394D01*
X145794215Y-100421556D01*
X145774623Y-100444167D01*
X145774622Y-100444168D01*
X145714834Y-100575083D01*
X145694353Y-100717540D01*
X145714834Y-100859996D01*
X145751143Y-100939500D01*
X145774623Y-100990913D01*
X145868872Y-101099683D01*
X145989947Y-101177493D01*
X145989950Y-101177494D01*
X145989949Y-101177494D01*
X146128036Y-101218039D01*
X146128038Y-101218040D01*
X146128039Y-101218040D01*
X146271961Y-101218040D01*
X146319873Y-101203972D01*
X146389741Y-101203972D01*
X146448520Y-101241746D01*
X146467601Y-101271436D01*
X146500072Y-101342536D01*
X146594321Y-101451306D01*
X146715396Y-101529116D01*
X146715399Y-101529117D01*
X146715398Y-101529117D01*
X146853486Y-101569663D01*
X146861013Y-101570745D01*
X146924569Y-101599767D01*
X146931050Y-101605801D01*
X148175723Y-102850475D01*
X148261349Y-102899911D01*
X148356850Y-102925500D01*
X148356851Y-102925500D01*
X156564029Y-102925500D01*
X156631068Y-102945185D01*
X156676823Y-102997989D01*
X156686767Y-103067147D01*
X156657743Y-103130700D01*
X156591887Y-103206703D01*
X156574623Y-103226627D01*
X156574622Y-103226628D01*
X156514834Y-103357543D01*
X156494353Y-103500000D01*
X156514834Y-103642456D01*
X156570456Y-103764249D01*
X156574623Y-103773373D01*
X156592754Y-103794297D01*
X156621779Y-103857853D01*
X156611835Y-103927011D01*
X156566081Y-103979815D01*
X156499041Y-103999500D01*
X141101179Y-103999500D01*
X141034140Y-103979815D01*
X140988385Y-103927011D01*
X140978441Y-103857853D01*
X141007466Y-103794297D01*
X141013498Y-103787819D01*
X142703139Y-102098178D01*
X144647748Y-100153569D01*
X144659402Y-100133384D01*
X144697184Y-100067944D01*
X144700502Y-100055563D01*
X144715257Y-100000499D01*
X144722773Y-99972446D01*
X144722774Y-99972440D01*
X144722774Y-99851248D01*
X144742459Y-99784209D01*
X144795263Y-99738454D01*
X144864421Y-99728510D01*
X144881703Y-99732269D01*
X144940385Y-99749500D01*
X145005590Y-99768646D01*
X145005591Y-99768646D01*
X145149514Y-99768646D01*
X145149514Y-99768645D01*
X145256673Y-99737181D01*
X145287602Y-99728100D01*
X145287602Y-99728099D01*
X145287605Y-99728099D01*
X145408680Y-99650289D01*
X145502929Y-99541519D01*
X145562717Y-99410603D01*
X145583199Y-99268146D01*
X145583194Y-99268110D01*
X145583199Y-99268075D01*
X145583199Y-99259278D01*
X145584464Y-99259278D01*
X145593138Y-99198952D01*
X145618248Y-99162787D01*
X145642068Y-99138967D01*
X145703389Y-99105484D01*
X145773081Y-99110468D01*
G37*
%TD.AperFunction*%
%TA.AperFunction,Conductor*%
G36*
X185401380Y-94136301D02*
G01*
X185447135Y-94189105D01*
X185457079Y-94258263D01*
X185433295Y-94315343D01*
X185310327Y-94478178D01*
X185219422Y-94660739D01*
X185219417Y-94660752D01*
X185163602Y-94856917D01*
X185144785Y-95059999D01*
X185144785Y-95060000D01*
X185163602Y-95263082D01*
X185219417Y-95459247D01*
X185219422Y-95459260D01*
X185310327Y-95641821D01*
X185433237Y-95804581D01*
X185561380Y-95921398D01*
X185597662Y-95981109D01*
X185595901Y-96050957D01*
X185556658Y-96108764D01*
X185539851Y-96120417D01*
X185532736Y-96124525D01*
X183944081Y-97713181D01*
X183882758Y-97746666D01*
X183856400Y-97749500D01*
X154626483Y-97749500D01*
X154559444Y-97729815D01*
X154513689Y-97677011D01*
X154503745Y-97607853D01*
X154532770Y-97544297D01*
X154538802Y-97537819D01*
X154679704Y-97396917D01*
X154850474Y-97226147D01*
X154865137Y-97200750D01*
X154865144Y-97200739D01*
X154899907Y-97140527D01*
X154899908Y-97140526D01*
X154899908Y-97140524D01*
X154899910Y-97140522D01*
X154925500Y-97045019D01*
X154925500Y-96986799D01*
X154945185Y-96919760D01*
X154961819Y-96899118D01*
X155149118Y-96711819D01*
X155210441Y-96678334D01*
X155236799Y-96675500D01*
X175999435Y-96675500D01*
X175999436Y-96675500D01*
X176047186Y-96662705D01*
X176094938Y-96649910D01*
X176180562Y-96600475D01*
X176250475Y-96530562D01*
X176250474Y-96530562D01*
X176309043Y-96471993D01*
X177244400Y-95536637D01*
X177305721Y-95503154D01*
X177314436Y-95501582D01*
X177321962Y-95500500D01*
X177460050Y-95459954D01*
X177460050Y-95459953D01*
X177460053Y-95459953D01*
X177581128Y-95382143D01*
X177675377Y-95273373D01*
X177735165Y-95142457D01*
X177755647Y-95000000D01*
X177735165Y-94857543D01*
X177675377Y-94726627D01*
X177581128Y-94617857D01*
X177460053Y-94540047D01*
X177460051Y-94540046D01*
X177460049Y-94540045D01*
X177460050Y-94540045D01*
X177321963Y-94499500D01*
X177321961Y-94499500D01*
X177178039Y-94499500D01*
X177178036Y-94499500D01*
X177039949Y-94540045D01*
X176918873Y-94617856D01*
X176824623Y-94726626D01*
X176824622Y-94726628D01*
X176764835Y-94857541D01*
X176764834Y-94857546D01*
X176754489Y-94929495D01*
X176725463Y-94993051D01*
X176719432Y-94999528D01*
X175830782Y-95888181D01*
X175769459Y-95921666D01*
X175743101Y-95924500D01*
X161208637Y-95924500D01*
X161141598Y-95904815D01*
X161095843Y-95852011D01*
X161085899Y-95782853D01*
X161095843Y-95748988D01*
X161097533Y-95745288D01*
X161125934Y-95683099D01*
X161146416Y-95540642D01*
X161125934Y-95398185D01*
X161125933Y-95398183D01*
X161124748Y-95389939D01*
X161134692Y-95320781D01*
X161180446Y-95267977D01*
X161247486Y-95248292D01*
X162041226Y-95248292D01*
X162108265Y-95267977D01*
X162154020Y-95320780D01*
X162188158Y-95395532D01*
X162189456Y-95398373D01*
X162283705Y-95507143D01*
X162404780Y-95584953D01*
X162404783Y-95584954D01*
X162404782Y-95584954D01*
X162542869Y-95625499D01*
X162542871Y-95625500D01*
X162542872Y-95625500D01*
X162686795Y-95625500D01*
X162686795Y-95625499D01*
X162824886Y-95584953D01*
X162945961Y-95507143D01*
X163040210Y-95398373D01*
X163099998Y-95267457D01*
X163120480Y-95125000D01*
X163099998Y-94982543D01*
X163040210Y-94851627D01*
X162978753Y-94780701D01*
X162949729Y-94717147D01*
X162959673Y-94647988D01*
X163005428Y-94595184D01*
X163072467Y-94575500D01*
X163904567Y-94575500D01*
X163971606Y-94595185D01*
X164017361Y-94647988D01*
X164054730Y-94729815D01*
X164074623Y-94773373D01*
X164168872Y-94882143D01*
X164289947Y-94959953D01*
X164289950Y-94959954D01*
X164289949Y-94959954D01*
X164346737Y-94976628D01*
X164426336Y-95000000D01*
X164428036Y-95000499D01*
X164428038Y-95000500D01*
X164428039Y-95000500D01*
X164571962Y-95000500D01*
X164571962Y-95000499D01*
X164710053Y-94959953D01*
X164831128Y-94882143D01*
X164925377Y-94773373D01*
X164985165Y-94642457D01*
X165005647Y-94500000D01*
X164985165Y-94357543D01*
X164975866Y-94337181D01*
X164955291Y-94292127D01*
X164945347Y-94222969D01*
X164974372Y-94159413D01*
X165033150Y-94121639D01*
X165068085Y-94116616D01*
X185334341Y-94116616D01*
X185401380Y-94136301D01*
G37*
%TD.AperFunction*%
%TA.AperFunction,Conductor*%
G36*
X147558993Y-54070185D02*
G01*
X147579635Y-54086819D01*
X149037806Y-55544990D01*
X149071291Y-55606313D01*
X149066307Y-55676005D01*
X149024435Y-55731938D01*
X149017164Y-55736987D01*
X148962867Y-55771881D01*
X148868617Y-55880651D01*
X148868616Y-55880653D01*
X148808828Y-56011568D01*
X148800694Y-56068147D01*
X148771669Y-56131703D01*
X148712891Y-56169477D01*
X148691191Y-56172596D01*
X148691284Y-56173238D01*
X148682504Y-56174500D01*
X148544417Y-56215045D01*
X148423341Y-56292856D01*
X148329091Y-56401626D01*
X148329090Y-56401628D01*
X148269302Y-56532543D01*
X148248821Y-56675000D01*
X148269302Y-56817456D01*
X148328028Y-56946046D01*
X148339234Y-56997558D01*
X148339234Y-58277699D01*
X148319549Y-58344738D01*
X148282275Y-58382013D01*
X148250248Y-58402596D01*
X148250246Y-58402597D01*
X148156001Y-58511362D01*
X148155998Y-58511368D01*
X148096210Y-58642283D01*
X148075729Y-58784740D01*
X148096210Y-58927196D01*
X148149034Y-59042863D01*
X148155999Y-59058113D01*
X148250248Y-59166883D01*
X148288673Y-59191577D01*
X148289367Y-59192023D01*
X148335122Y-59244827D01*
X148345066Y-59313986D01*
X148316041Y-59377542D01*
X148296640Y-59395605D01*
X148267452Y-59417455D01*
X148181206Y-59532664D01*
X148181202Y-59532671D01*
X148129990Y-59669980D01*
X148088119Y-59725914D01*
X148022655Y-59750331D01*
X147999384Y-59749500D01*
X147996961Y-59749500D01*
X147853039Y-59749500D01*
X147834433Y-59754963D01*
X147764564Y-59754962D01*
X147705786Y-59717186D01*
X147676762Y-59653630D01*
X147675500Y-59635985D01*
X147675500Y-57979103D01*
X147695185Y-57912064D01*
X147747989Y-57866309D01*
X147764564Y-57860126D01*
X147774851Y-57857106D01*
X147895926Y-57779296D01*
X147990175Y-57670526D01*
X148049963Y-57539610D01*
X148070445Y-57397153D01*
X148049963Y-57254696D01*
X147990175Y-57123780D01*
X147895926Y-57015010D01*
X147774851Y-56937200D01*
X147774849Y-56937199D01*
X147774847Y-56937198D01*
X147774848Y-56937198D01*
X147636761Y-56896653D01*
X147636759Y-56896653D01*
X147492837Y-56896653D01*
X147492834Y-56896653D01*
X147354747Y-56937198D01*
X147233671Y-57015009D01*
X147139421Y-57123779D01*
X147139420Y-57123781D01*
X147079633Y-57254694D01*
X147079632Y-57254699D01*
X147069287Y-57326648D01*
X147040261Y-57390204D01*
X147034232Y-57396679D01*
X146999525Y-57431386D01*
X146950091Y-57517009D01*
X146950088Y-57517016D01*
X146944034Y-57539607D01*
X146944035Y-57539608D01*
X146927721Y-57600495D01*
X146927720Y-57600499D01*
X146924500Y-57612515D01*
X146924500Y-57708470D01*
X146904815Y-57775509D01*
X146852011Y-57821264D01*
X146782853Y-57831208D01*
X146739720Y-57815120D01*
X146739654Y-57815266D01*
X146737624Y-57814339D01*
X146733463Y-57812787D01*
X146731588Y-57811582D01*
X146731586Y-57811581D01*
X146593499Y-57771036D01*
X146593497Y-57771036D01*
X146449575Y-57771036D01*
X146449572Y-57771036D01*
X146311485Y-57811581D01*
X146190409Y-57889392D01*
X146096159Y-57998162D01*
X146096158Y-57998164D01*
X146036370Y-58129079D01*
X146015471Y-58274437D01*
X145986446Y-58337993D01*
X145927667Y-58375767D01*
X145857798Y-58375767D01*
X145799021Y-58337992D01*
X145784466Y-58321195D01*
X145663391Y-58243385D01*
X145663389Y-58243384D01*
X145663387Y-58243383D01*
X145663388Y-58243383D01*
X145525301Y-58202838D01*
X145525299Y-58202838D01*
X145381377Y-58202838D01*
X145381374Y-58202838D01*
X145243287Y-58243383D01*
X145122211Y-58321194D01*
X145027961Y-58429964D01*
X145027960Y-58429966D01*
X144968173Y-58560879D01*
X144968172Y-58560884D01*
X144957827Y-58632833D01*
X144928801Y-58696389D01*
X144922771Y-58702865D01*
X144833816Y-58791822D01*
X144833816Y-58791823D01*
X144763903Y-58861736D01*
X144714469Y-58947357D01*
X144714469Y-58947358D01*
X144714468Y-58947360D01*
X144688878Y-59042863D01*
X144688878Y-59042865D01*
X144688878Y-61708298D01*
X144700052Y-61749997D01*
X144700052Y-61749999D01*
X144700053Y-61749999D01*
X144700053Y-61750000D01*
X144708328Y-61780883D01*
X144714468Y-61803798D01*
X144760264Y-61883120D01*
X144763636Y-61888958D01*
X144763904Y-61889423D01*
X144763907Y-61889426D01*
X144922191Y-62047710D01*
X144955676Y-62109033D01*
X144957248Y-62117743D01*
X144967593Y-62189695D01*
X144967594Y-62189699D01*
X145019582Y-62303534D01*
X145027382Y-62320614D01*
X145121631Y-62429384D01*
X145242706Y-62507194D01*
X145242709Y-62507195D01*
X145242708Y-62507195D01*
X145380795Y-62547740D01*
X145380797Y-62547741D01*
X145380798Y-62547741D01*
X145524721Y-62547741D01*
X145524721Y-62547740D01*
X145662812Y-62507194D01*
X145783887Y-62429384D01*
X145878136Y-62320614D01*
X145937924Y-62189698D01*
X145958406Y-62047241D01*
X145937924Y-61904784D01*
X145912924Y-61850042D01*
X145902980Y-61780883D01*
X145932005Y-61717327D01*
X145958675Y-61694216D01*
X146002205Y-61666241D01*
X146069245Y-61646558D01*
X146136282Y-61666241D01*
X146229301Y-61726021D01*
X146229304Y-61726022D01*
X146229303Y-61726022D01*
X146367390Y-61766567D01*
X146367392Y-61766568D01*
X146367393Y-61766568D01*
X146511316Y-61766568D01*
X146511316Y-61766567D01*
X146628053Y-61732291D01*
X146649404Y-61726022D01*
X146649404Y-61726021D01*
X146649407Y-61726021D01*
X146770482Y-61648211D01*
X146864731Y-61539441D01*
X146924519Y-61408525D01*
X146934863Y-61336570D01*
X146963887Y-61273017D01*
X146969905Y-61266552D01*
X147337820Y-60898638D01*
X147399142Y-60865154D01*
X147468834Y-60870138D01*
X147524767Y-60912010D01*
X147549184Y-60977474D01*
X147549500Y-60986320D01*
X147549500Y-67734217D01*
X147529815Y-67801256D01*
X147513181Y-67821898D01*
X146901603Y-68433475D01*
X146852164Y-68519104D01*
X146848284Y-68533589D01*
X146848282Y-68533598D01*
X146847296Y-68537277D01*
X146810928Y-68596936D01*
X146748079Y-68627461D01*
X146678704Y-68619163D01*
X146633810Y-68586380D01*
X146617760Y-68567857D01*
X146574455Y-68517880D01*
X146453380Y-68440070D01*
X146453378Y-68440069D01*
X146453376Y-68440068D01*
X146453377Y-68440068D01*
X146315292Y-68399523D01*
X146307756Y-68398440D01*
X146244201Y-68369414D01*
X146237724Y-68363383D01*
X144277493Y-66403152D01*
X144244008Y-66341829D01*
X144241174Y-66315471D01*
X144241174Y-65495032D01*
X144260859Y-65427993D01*
X144313663Y-65382238D01*
X144382821Y-65372294D01*
X144432212Y-65390716D01*
X144471933Y-65416243D01*
X144539948Y-65459954D01*
X144658108Y-65494647D01*
X144659416Y-65495032D01*
X144678036Y-65500499D01*
X144678038Y-65500500D01*
X144678039Y-65500500D01*
X144821962Y-65500500D01*
X144821962Y-65500499D01*
X144948293Y-65463406D01*
X144960050Y-65459954D01*
X144960050Y-65459953D01*
X144960053Y-65459953D01*
X145081128Y-65382143D01*
X145175377Y-65273373D01*
X145235165Y-65142457D01*
X145255647Y-65000000D01*
X145235165Y-64857543D01*
X145175377Y-64726627D01*
X145175375Y-64726625D01*
X145175374Y-64726622D01*
X145131960Y-64676520D01*
X145105898Y-64627411D01*
X145099910Y-64605062D01*
X145050475Y-64519438D01*
X144980562Y-64449525D01*
X144530563Y-63999526D01*
X144530562Y-63999525D01*
X144444938Y-63950090D01*
X144397186Y-63937295D01*
X144397184Y-63937294D01*
X144397182Y-63937293D01*
X144349436Y-63924500D01*
X144349435Y-63924500D01*
X141961936Y-63924500D01*
X141863064Y-63924500D01*
X141815312Y-63937295D01*
X141815311Y-63937294D01*
X141767566Y-63950088D01*
X141767561Y-63950090D01*
X141725996Y-63974088D01*
X141681938Y-63999524D01*
X141681935Y-63999526D01*
X141343280Y-64338181D01*
X141281957Y-64371666D01*
X141255599Y-64374500D01*
X140477129Y-64374500D01*
X140477123Y-64374501D01*
X140417516Y-64380908D01*
X140282671Y-64431202D01*
X140282664Y-64431206D01*
X140167455Y-64517452D01*
X140167452Y-64517455D01*
X140081206Y-64632664D01*
X140081202Y-64632671D01*
X140038192Y-64747989D01*
X140030909Y-64767517D01*
X140024500Y-64827127D01*
X140024500Y-64827134D01*
X140024500Y-64827135D01*
X140024500Y-65597870D01*
X140024501Y-65597876D01*
X140030908Y-65657483D01*
X140081202Y-65792328D01*
X140081206Y-65792335D01*
X140167452Y-65907544D01*
X140167455Y-65907547D01*
X140282664Y-65993793D01*
X140282671Y-65993797D01*
X140417517Y-66044091D01*
X140417516Y-66044091D01*
X140424444Y-66044835D01*
X140477127Y-66050500D01*
X141522872Y-66050499D01*
X141582483Y-66044091D01*
X141717331Y-65993796D01*
X141832546Y-65907546D01*
X141918796Y-65792331D01*
X141969091Y-65657483D01*
X141975500Y-65597873D01*
X141975499Y-64827128D01*
X141975498Y-64827122D01*
X141975452Y-64826257D01*
X141975499Y-64826058D01*
X141975499Y-64823807D01*
X141976031Y-64823807D01*
X141991523Y-64758261D01*
X142011596Y-64731942D01*
X142031722Y-64711817D01*
X142093046Y-64678333D01*
X142119401Y-64675500D01*
X142517609Y-64675500D01*
X142584648Y-64695185D01*
X142630403Y-64747989D01*
X142640347Y-64817147D01*
X142624840Y-64925000D01*
X142645321Y-65067456D01*
X142692471Y-65170697D01*
X142703677Y-65222209D01*
X142703677Y-67078612D01*
X142729267Y-67174115D01*
X142729268Y-67174118D01*
X142776252Y-67255496D01*
X142778699Y-67259734D01*
X142778705Y-67259742D01*
X144469432Y-68950469D01*
X144502917Y-69011792D01*
X144504489Y-69020502D01*
X144514834Y-69092454D01*
X144514835Y-69092458D01*
X144567449Y-69207664D01*
X144574623Y-69223373D01*
X144668872Y-69332143D01*
X144789947Y-69409953D01*
X144789950Y-69409954D01*
X144789949Y-69409954D01*
X144928036Y-69450499D01*
X144928038Y-69450500D01*
X144928039Y-69450500D01*
X145071962Y-69450500D01*
X145071962Y-69450499D01*
X145210053Y-69409953D01*
X145331128Y-69332143D01*
X145425377Y-69223373D01*
X145485165Y-69092457D01*
X145502518Y-68971761D01*
X145531543Y-68908207D01*
X145590321Y-68870432D01*
X145660190Y-68870432D01*
X145718969Y-68908206D01*
X145747994Y-68971762D01*
X145758161Y-69042476D01*
X145758162Y-69042481D01*
X145780986Y-69092457D01*
X145817950Y-69173396D01*
X145912199Y-69282166D01*
X146033274Y-69359976D01*
X146033277Y-69359977D01*
X146033276Y-69359977D01*
X146140434Y-69391440D01*
X146165518Y-69398806D01*
X146171363Y-69400522D01*
X146171365Y-69400523D01*
X146171366Y-69400523D01*
X146315289Y-69400523D01*
X146315289Y-69400522D01*
X146453380Y-69359976D01*
X146574455Y-69282166D01*
X146608863Y-69242457D01*
X146667641Y-69204682D01*
X146737511Y-69204682D01*
X146796289Y-69242456D01*
X146825314Y-69306012D01*
X146826576Y-69323659D01*
X146826576Y-69418227D01*
X146806891Y-69485266D01*
X146796291Y-69499428D01*
X146776699Y-69522039D01*
X146776698Y-69522040D01*
X146716910Y-69652955D01*
X146701933Y-69757128D01*
X146696429Y-69795412D01*
X146706158Y-69863082D01*
X146711936Y-69903265D01*
X146701992Y-69972423D01*
X146656237Y-70025227D01*
X146589198Y-70044912D01*
X140864748Y-70044912D01*
X140797709Y-70025227D01*
X140777067Y-70008593D01*
X137670601Y-66902127D01*
X140024500Y-66902127D01*
X140024500Y-66902134D01*
X140024500Y-66902135D01*
X140024500Y-67672870D01*
X140024501Y-67672876D01*
X140030908Y-67732483D01*
X140081202Y-67867328D01*
X140081206Y-67867335D01*
X140167452Y-67982544D01*
X140167455Y-67982547D01*
X140282664Y-68068793D01*
X140282671Y-68068797D01*
X140417517Y-68119091D01*
X140417516Y-68119091D01*
X140424444Y-68119835D01*
X140477127Y-68125500D01*
X141522872Y-68125499D01*
X141582483Y-68119091D01*
X141717331Y-68068796D01*
X141832546Y-67982546D01*
X141918796Y-67867331D01*
X141969091Y-67732483D01*
X141975500Y-67672873D01*
X141975499Y-66902128D01*
X141969091Y-66842517D01*
X141935678Y-66752933D01*
X141918797Y-66707671D01*
X141918793Y-66707664D01*
X141832547Y-66592455D01*
X141832544Y-66592452D01*
X141717335Y-66506206D01*
X141717328Y-66506202D01*
X141582482Y-66455908D01*
X141582483Y-66455908D01*
X141522883Y-66449501D01*
X141522881Y-66449500D01*
X141522873Y-66449500D01*
X141522864Y-66449500D01*
X140477129Y-66449500D01*
X140477123Y-66449501D01*
X140417516Y-66455908D01*
X140282671Y-66506202D01*
X140282664Y-66506206D01*
X140167455Y-66592452D01*
X140167452Y-66592455D01*
X140081206Y-66707664D01*
X140081202Y-66707671D01*
X140030910Y-66842513D01*
X140030909Y-66842517D01*
X140024500Y-66902127D01*
X137670601Y-66902127D01*
X126286883Y-55518409D01*
X126253398Y-55457086D01*
X126250911Y-55439994D01*
X126235803Y-55238378D01*
X126235802Y-55238374D01*
X126235802Y-55238370D01*
X126177420Y-54982584D01*
X126081568Y-54738357D01*
X125950386Y-54511143D01*
X125786805Y-54306019D01*
X125786804Y-54306018D01*
X125786801Y-54306014D01*
X125743027Y-54265399D01*
X125707272Y-54205371D01*
X125709647Y-54135542D01*
X125749397Y-54078081D01*
X125813903Y-54051233D01*
X125827368Y-54050500D01*
X147491954Y-54050500D01*
X147558993Y-54070185D01*
G37*
%TD.AperFunction*%
%TA.AperFunction,Conductor*%
G36*
X150455703Y-56963333D02*
G01*
X150462181Y-56969365D01*
X151538181Y-58045365D01*
X151571666Y-58106688D01*
X151574500Y-58133046D01*
X151574500Y-60763201D01*
X151554815Y-60830240D01*
X151538181Y-60850882D01*
X149165791Y-63223271D01*
X149104468Y-63256756D01*
X149097509Y-63258063D01*
X148957176Y-63280290D01*
X148769972Y-63341117D01*
X148594594Y-63430476D01*
X148497386Y-63501103D01*
X148431579Y-63524583D01*
X148363525Y-63508758D01*
X148314831Y-63458652D01*
X148300500Y-63400785D01*
X148300500Y-61316742D01*
X148320185Y-61249703D01*
X148372989Y-61203948D01*
X148442147Y-61194004D01*
X148467830Y-61200559D01*
X148517517Y-61219091D01*
X148577127Y-61225500D01*
X149347872Y-61225499D01*
X149407483Y-61219091D01*
X149542331Y-61168796D01*
X149657546Y-61082546D01*
X149743796Y-60967331D01*
X149794091Y-60832483D01*
X149794091Y-60832481D01*
X149795874Y-60824938D01*
X149798824Y-60825635D01*
X149820152Y-60774123D01*
X149877538Y-60734266D01*
X149881732Y-60732951D01*
X149960050Y-60709956D01*
X150081125Y-60632146D01*
X150175374Y-60523376D01*
X150235162Y-60392460D01*
X150255644Y-60250003D01*
X150235162Y-60107546D01*
X150175374Y-59976630D01*
X150081125Y-59867860D01*
X149960050Y-59790050D01*
X149960047Y-59790048D01*
X149881782Y-59767068D01*
X149823004Y-59729294D01*
X149798009Y-59674563D01*
X149795876Y-59675068D01*
X149792308Y-59659969D01*
X149793624Y-59659657D01*
X149789225Y-59598142D01*
X149822709Y-59536819D01*
X149884032Y-59503334D01*
X149910391Y-59500500D01*
X149946962Y-59500500D01*
X149946962Y-59500499D01*
X150085053Y-59459953D01*
X150206128Y-59382143D01*
X150300377Y-59273373D01*
X150360165Y-59142457D01*
X150380647Y-59000000D01*
X150360165Y-58857543D01*
X150300377Y-58726627D01*
X150280785Y-58704016D01*
X150251762Y-58640460D01*
X150250500Y-58622815D01*
X150250500Y-57057046D01*
X150270185Y-56990007D01*
X150322989Y-56944252D01*
X150392147Y-56934308D01*
X150455703Y-56963333D01*
G37*
%TD.AperFunction*%
%TA.AperFunction,Conductor*%
G36*
X195002702Y-50500617D02*
G01*
X195386771Y-50517386D01*
X195397506Y-50518326D01*
X195775971Y-50568152D01*
X195786597Y-50570025D01*
X196159284Y-50652648D01*
X196169710Y-50655442D01*
X196533765Y-50770227D01*
X196543911Y-50773920D01*
X196896578Y-50920000D01*
X196906369Y-50924566D01*
X197244942Y-51100816D01*
X197254310Y-51106224D01*
X197576244Y-51311318D01*
X197585105Y-51317523D01*
X197887930Y-51549889D01*
X197896217Y-51556843D01*
X198177635Y-51814715D01*
X198185284Y-51822364D01*
X198443156Y-52103782D01*
X198450110Y-52112069D01*
X198682476Y-52414894D01*
X198688681Y-52423755D01*
X198893775Y-52745689D01*
X198899183Y-52755057D01*
X199075430Y-53093623D01*
X199080002Y-53103427D01*
X199226075Y-53456078D01*
X199229775Y-53466244D01*
X199344554Y-53830278D01*
X199347354Y-53840727D01*
X199429971Y-54213389D01*
X199431849Y-54224042D01*
X199481671Y-54602473D01*
X199482614Y-54613249D01*
X199499382Y-54997297D01*
X199499500Y-55002706D01*
X199499500Y-55073659D01*
X199499532Y-55074158D01*
X199535032Y-135211736D01*
X199534914Y-135217199D01*
X199518014Y-135604319D01*
X199517071Y-135615095D01*
X199466848Y-135996600D01*
X199464970Y-136007254D01*
X199381684Y-136382946D01*
X199378884Y-136393395D01*
X199263172Y-136760390D01*
X199259472Y-136770555D01*
X199112220Y-137126060D01*
X199107649Y-137135864D01*
X198929965Y-137477195D01*
X198924556Y-137486564D01*
X198717799Y-137811111D01*
X198711594Y-137819972D01*
X198477342Y-138125258D01*
X198470389Y-138133545D01*
X198210427Y-138417245D01*
X198202777Y-138424894D01*
X197919066Y-138684869D01*
X197910780Y-138691823D01*
X197605483Y-138926087D01*
X197596621Y-138932291D01*
X197272094Y-139139039D01*
X197262726Y-139144448D01*
X196921401Y-139322131D01*
X196911597Y-139326703D01*
X196556083Y-139473963D01*
X196545917Y-139477663D01*
X196178922Y-139593376D01*
X196168474Y-139596176D01*
X195792783Y-139679465D01*
X195782130Y-139681343D01*
X195400626Y-139731570D01*
X195389849Y-139732513D01*
X195003510Y-139749380D01*
X194998042Y-139749498D01*
X120109726Y-139714000D01*
X120109180Y-139713965D01*
X120038235Y-139713965D01*
X120032827Y-139713847D01*
X119648779Y-139697083D01*
X119638003Y-139696140D01*
X119448786Y-139671230D01*
X119259570Y-139646320D01*
X119248917Y-139644442D01*
X119025915Y-139595005D01*
X118876253Y-139561826D01*
X118865805Y-139559027D01*
X118501768Y-139444248D01*
X118491603Y-139440548D01*
X118138959Y-139294479D01*
X118129154Y-139289907D01*
X117790583Y-139113659D01*
X117781215Y-139108251D01*
X117459280Y-138903157D01*
X117450419Y-138896952D01*
X117183089Y-138691823D01*
X117147597Y-138664588D01*
X117139314Y-138657638D01*
X116857889Y-138399759D01*
X116850240Y-138392110D01*
X116592361Y-138110685D01*
X116585407Y-138102398D01*
X116545749Y-138050715D01*
X116353047Y-137799580D01*
X116346842Y-137790719D01*
X116141748Y-137468784D01*
X116136340Y-137459416D01*
X115972281Y-137144260D01*
X115960090Y-137120840D01*
X115955520Y-137111040D01*
X115898233Y-136972736D01*
X115809445Y-136758381D01*
X115805756Y-136748246D01*
X115690967Y-136384176D01*
X115688176Y-136373762D01*
X115605554Y-136001065D01*
X115603682Y-135990446D01*
X115556060Y-135628711D01*
X117399500Y-135628711D01*
X117399500Y-135871288D01*
X117431161Y-136111785D01*
X117493947Y-136346104D01*
X117511396Y-136388229D01*
X117586776Y-136570212D01*
X117708064Y-136780289D01*
X117708066Y-136780292D01*
X117708067Y-136780293D01*
X117855733Y-136972736D01*
X117855739Y-136972743D01*
X118027256Y-137144260D01*
X118027262Y-137144265D01*
X118219711Y-137291936D01*
X118429788Y-137413224D01*
X118653900Y-137506054D01*
X118888211Y-137568838D01*
X119068586Y-137592584D01*
X119128711Y-137600500D01*
X119128712Y-137600500D01*
X119371289Y-137600500D01*
X119419388Y-137594167D01*
X119611789Y-137568838D01*
X119846100Y-137506054D01*
X120070212Y-137413224D01*
X120280289Y-137291936D01*
X120472738Y-137144265D01*
X120644265Y-136972738D01*
X120791936Y-136780289D01*
X120913224Y-136570212D01*
X121006054Y-136346100D01*
X121068838Y-136111789D01*
X121100500Y-135871288D01*
X121100500Y-135699999D01*
X185144785Y-135699999D01*
X185144785Y-135700000D01*
X185163602Y-135903082D01*
X185219417Y-136099247D01*
X185219422Y-136099260D01*
X185310327Y-136281821D01*
X185433237Y-136444581D01*
X185583958Y-136581980D01*
X185583960Y-136581982D01*
X185683141Y-136643392D01*
X185757363Y-136689348D01*
X185947544Y-136763024D01*
X186148024Y-136800500D01*
X186148026Y-136800500D01*
X186351974Y-136800500D01*
X186351976Y-136800500D01*
X186552456Y-136763024D01*
X186742637Y-136689348D01*
X186916041Y-136581981D01*
X187066764Y-136444579D01*
X187189673Y-136281821D01*
X187280582Y-136099250D01*
X187336397Y-135903083D01*
X187355215Y-135700000D01*
X187348609Y-135628711D01*
X193899500Y-135628711D01*
X193899500Y-135871288D01*
X193931161Y-136111785D01*
X193993947Y-136346104D01*
X194011396Y-136388229D01*
X194086776Y-136570212D01*
X194208064Y-136780289D01*
X194208066Y-136780292D01*
X194208067Y-136780293D01*
X194355733Y-136972736D01*
X194355739Y-136972743D01*
X194527256Y-137144260D01*
X194527262Y-137144265D01*
X194719711Y-137291936D01*
X194929788Y-137413224D01*
X195153900Y-137506054D01*
X195388211Y-137568838D01*
X195568586Y-137592584D01*
X195628711Y-137600500D01*
X195628712Y-137600500D01*
X195871289Y-137600500D01*
X195919388Y-137594167D01*
X196111789Y-137568838D01*
X196346100Y-137506054D01*
X196570212Y-137413224D01*
X196780289Y-137291936D01*
X196972738Y-137144265D01*
X197144265Y-136972738D01*
X197291936Y-136780289D01*
X197413224Y-136570212D01*
X197506054Y-136346100D01*
X197568838Y-136111789D01*
X197600500Y-135871288D01*
X197600500Y-135628712D01*
X197598299Y-135611997D01*
X197568838Y-135388214D01*
X197568838Y-135388211D01*
X197506054Y-135153900D01*
X197413224Y-134929788D01*
X197291936Y-134719711D01*
X197144265Y-134527262D01*
X197144260Y-134527256D01*
X196972743Y-134355739D01*
X196972736Y-134355733D01*
X196780293Y-134208067D01*
X196780292Y-134208066D01*
X196780289Y-134208064D01*
X196570212Y-134086776D01*
X196570205Y-134086773D01*
X196346104Y-133993947D01*
X196111785Y-133931161D01*
X195871289Y-133899500D01*
X195871288Y-133899500D01*
X195628712Y-133899500D01*
X195628711Y-133899500D01*
X195388214Y-133931161D01*
X195153895Y-133993947D01*
X194929794Y-134086773D01*
X194929785Y-134086777D01*
X194719706Y-134208067D01*
X194527263Y-134355733D01*
X194527256Y-134355739D01*
X194355739Y-134527256D01*
X194355733Y-134527263D01*
X194208067Y-134719706D01*
X194086777Y-134929785D01*
X194086773Y-134929794D01*
X193993947Y-135153895D01*
X193931161Y-135388214D01*
X193899500Y-135628711D01*
X187348609Y-135628711D01*
X187347060Y-135611997D01*
X187336397Y-135496917D01*
X187305467Y-135388211D01*
X187280582Y-135300750D01*
X187189673Y-135118179D01*
X187066764Y-134955421D01*
X187066762Y-134955418D01*
X186916041Y-134818019D01*
X186916039Y-134818017D01*
X186742642Y-134710655D01*
X186742635Y-134710651D01*
X186647546Y-134673814D01*
X186552456Y-134636976D01*
X186351976Y-134599500D01*
X186148024Y-134599500D01*
X185947544Y-134636976D01*
X185947541Y-134636976D01*
X185947541Y-134636977D01*
X185757364Y-134710651D01*
X185757357Y-134710655D01*
X185583960Y-134818017D01*
X185583958Y-134818019D01*
X185433237Y-134955418D01*
X185310327Y-135118178D01*
X185219422Y-135300739D01*
X185219417Y-135300752D01*
X185163602Y-135496917D01*
X185144785Y-135699999D01*
X121100500Y-135699999D01*
X121100500Y-135628712D01*
X121098299Y-135611997D01*
X121068838Y-135388214D01*
X121068838Y-135388211D01*
X121006054Y-135153900D01*
X120913224Y-134929788D01*
X120791936Y-134719711D01*
X120644265Y-134527262D01*
X120644260Y-134527256D01*
X120472743Y-134355739D01*
X120472736Y-134355733D01*
X120280293Y-134208067D01*
X120280292Y-134208066D01*
X120280289Y-134208064D01*
X120070212Y-134086776D01*
X120070205Y-134086773D01*
X119846104Y-133993947D01*
X119611785Y-133931161D01*
X119371289Y-133899500D01*
X119371288Y-133899500D01*
X119128712Y-133899500D01*
X119128711Y-133899500D01*
X118888214Y-133931161D01*
X118653895Y-133993947D01*
X118429794Y-134086773D01*
X118429785Y-134086777D01*
X118219706Y-134208067D01*
X118027263Y-134355733D01*
X118027256Y-134355739D01*
X117855739Y-134527256D01*
X117855733Y-134527263D01*
X117708067Y-134719706D01*
X117586777Y-134929785D01*
X117586773Y-134929794D01*
X117493947Y-135153895D01*
X117431161Y-135388214D01*
X117399500Y-135628711D01*
X115556060Y-135628711D01*
X115553857Y-135611975D01*
X115552917Y-135601242D01*
X115536152Y-135217172D01*
X115536034Y-135211762D01*
X115536034Y-135211736D01*
X115536035Y-135148577D01*
X115536034Y-135148573D01*
X115536034Y-135140651D01*
X115536000Y-135140131D01*
X115535990Y-135118179D01*
X115535122Y-133159999D01*
X185144785Y-133159999D01*
X185144785Y-133160000D01*
X185163602Y-133363082D01*
X185219417Y-133559247D01*
X185219422Y-133559260D01*
X185310327Y-133741821D01*
X185433237Y-133904581D01*
X185583958Y-134041980D01*
X185583960Y-134041982D01*
X185656307Y-134086777D01*
X185757363Y-134149348D01*
X185947544Y-134223024D01*
X186148024Y-134260500D01*
X186148026Y-134260500D01*
X186351974Y-134260500D01*
X186351976Y-134260500D01*
X186552456Y-134223024D01*
X186742637Y-134149348D01*
X186916041Y-134041981D01*
X187066764Y-133904579D01*
X187189673Y-133741821D01*
X187280582Y-133559250D01*
X187336397Y-133363083D01*
X187355215Y-133160000D01*
X187336397Y-132956917D01*
X187280582Y-132760750D01*
X187189673Y-132578179D01*
X187066764Y-132415421D01*
X187066762Y-132415418D01*
X186916041Y-132278019D01*
X186916039Y-132278017D01*
X186742642Y-132170655D01*
X186742635Y-132170651D01*
X186647546Y-132133814D01*
X186552456Y-132096976D01*
X186351976Y-132059500D01*
X186148024Y-132059500D01*
X185947544Y-132096976D01*
X185947541Y-132096976D01*
X185947541Y-132096977D01*
X185757364Y-132170651D01*
X185757357Y-132170655D01*
X185583960Y-132278017D01*
X185583958Y-132278019D01*
X185433237Y-132415418D01*
X185310327Y-132578178D01*
X185219422Y-132760739D01*
X185219417Y-132760752D01*
X185163602Y-132956917D01*
X185144785Y-133159999D01*
X115535122Y-133159999D01*
X115533997Y-130619999D01*
X185144785Y-130619999D01*
X185144785Y-130620000D01*
X185163602Y-130823082D01*
X185219417Y-131019247D01*
X185219422Y-131019260D01*
X185310327Y-131201821D01*
X185433237Y-131364581D01*
X185583958Y-131501980D01*
X185583960Y-131501982D01*
X185683141Y-131563392D01*
X185757363Y-131609348D01*
X185947544Y-131683024D01*
X186148024Y-131720500D01*
X186148026Y-131720500D01*
X186351974Y-131720500D01*
X186351976Y-131720500D01*
X186552456Y-131683024D01*
X186742637Y-131609348D01*
X186916041Y-131501981D01*
X187066764Y-131364579D01*
X187189673Y-131201821D01*
X187280582Y-131019250D01*
X187336397Y-130823083D01*
X187355215Y-130620000D01*
X187336397Y-130416917D01*
X187280582Y-130220750D01*
X187189673Y-130038179D01*
X187066764Y-129875421D01*
X187066762Y-129875418D01*
X186916041Y-129738019D01*
X186916039Y-129738017D01*
X186742642Y-129630655D01*
X186742635Y-129630651D01*
X186647546Y-129593814D01*
X186552456Y-129556976D01*
X186351976Y-129519500D01*
X186148024Y-129519500D01*
X185947544Y-129556976D01*
X185947541Y-129556976D01*
X185947541Y-129556977D01*
X185757364Y-129630651D01*
X185757357Y-129630655D01*
X185583960Y-129738017D01*
X185583958Y-129738019D01*
X185433237Y-129875418D01*
X185310327Y-130038178D01*
X185219422Y-130220739D01*
X185219417Y-130220752D01*
X185163602Y-130416917D01*
X185144785Y-130619999D01*
X115533997Y-130619999D01*
X115532872Y-128079999D01*
X185144785Y-128079999D01*
X185144785Y-128080000D01*
X185163602Y-128283082D01*
X185219417Y-128479247D01*
X185219422Y-128479260D01*
X185310327Y-128661821D01*
X185433237Y-128824581D01*
X185583958Y-128961980D01*
X185583960Y-128961982D01*
X185683141Y-129023392D01*
X185757363Y-129069348D01*
X185947544Y-129143024D01*
X186148024Y-129180500D01*
X186148026Y-129180500D01*
X186351974Y-129180500D01*
X186351976Y-129180500D01*
X186552456Y-129143024D01*
X186742637Y-129069348D01*
X186916041Y-128961981D01*
X187066764Y-128824579D01*
X187189673Y-128661821D01*
X187280582Y-128479250D01*
X187336397Y-128283083D01*
X187355215Y-128080000D01*
X187336397Y-127876917D01*
X187280582Y-127680750D01*
X187189673Y-127498179D01*
X187066764Y-127335421D01*
X187066762Y-127335418D01*
X186916041Y-127198019D01*
X186916039Y-127198017D01*
X186742642Y-127090655D01*
X186742635Y-127090651D01*
X186647546Y-127053814D01*
X186552456Y-127016976D01*
X186351976Y-126979500D01*
X186148024Y-126979500D01*
X185947544Y-127016976D01*
X185947541Y-127016976D01*
X185947541Y-127016977D01*
X185757364Y-127090651D01*
X185757357Y-127090655D01*
X185583960Y-127198017D01*
X185583958Y-127198019D01*
X185433237Y-127335418D01*
X185310327Y-127498178D01*
X185219422Y-127680739D01*
X185219417Y-127680752D01*
X185163602Y-127876917D01*
X185144785Y-128079999D01*
X115532872Y-128079999D01*
X115531747Y-125539999D01*
X185144785Y-125539999D01*
X185144785Y-125540000D01*
X185163602Y-125743082D01*
X185219417Y-125939247D01*
X185219422Y-125939260D01*
X185310327Y-126121821D01*
X185433237Y-126284581D01*
X185583958Y-126421980D01*
X185583960Y-126421982D01*
X185683141Y-126483392D01*
X185757363Y-126529348D01*
X185947544Y-126603024D01*
X186148024Y-126640500D01*
X186148026Y-126640500D01*
X186351974Y-126640500D01*
X186351976Y-126640500D01*
X186552456Y-126603024D01*
X186742637Y-126529348D01*
X186916041Y-126421981D01*
X187066764Y-126284579D01*
X187189673Y-126121821D01*
X187280582Y-125939250D01*
X187336397Y-125743083D01*
X187355215Y-125540000D01*
X187336397Y-125336917D01*
X187280582Y-125140750D01*
X187189673Y-124958179D01*
X187066764Y-124795421D01*
X187066762Y-124795418D01*
X186916041Y-124658019D01*
X186916039Y-124658017D01*
X186742642Y-124550655D01*
X186742635Y-124550651D01*
X186647546Y-124513814D01*
X186552456Y-124476976D01*
X186351976Y-124439500D01*
X186148024Y-124439500D01*
X185947544Y-124476976D01*
X185947541Y-124476976D01*
X185947541Y-124476977D01*
X185757364Y-124550651D01*
X185757357Y-124550655D01*
X185583960Y-124658017D01*
X185583958Y-124658019D01*
X185433237Y-124795418D01*
X185310327Y-124958178D01*
X185219422Y-125140739D01*
X185219417Y-125140752D01*
X185163602Y-125336917D01*
X185144785Y-125539999D01*
X115531747Y-125539999D01*
X115530622Y-122999999D01*
X185144785Y-122999999D01*
X185144785Y-123000000D01*
X185163602Y-123203082D01*
X185219417Y-123399247D01*
X185219422Y-123399260D01*
X185310327Y-123581821D01*
X185433237Y-123744581D01*
X185583958Y-123881980D01*
X185583960Y-123881982D01*
X185683141Y-123943392D01*
X185757363Y-123989348D01*
X185947544Y-124063024D01*
X186148024Y-124100500D01*
X186148026Y-124100500D01*
X186351974Y-124100500D01*
X186351976Y-124100500D01*
X186552456Y-124063024D01*
X186742637Y-123989348D01*
X186916041Y-123881981D01*
X187066764Y-123744579D01*
X187189673Y-123581821D01*
X187280582Y-123399250D01*
X187336397Y-123203083D01*
X187355215Y-123000000D01*
X187336397Y-122796917D01*
X187280582Y-122600750D01*
X187189673Y-122418179D01*
X187066764Y-122255421D01*
X187066762Y-122255418D01*
X186916041Y-122118019D01*
X186916039Y-122118017D01*
X186742642Y-122010655D01*
X186742635Y-122010651D01*
X186647546Y-121973814D01*
X186552456Y-121936976D01*
X186351976Y-121899500D01*
X186148024Y-121899500D01*
X185947544Y-121936976D01*
X185947541Y-121936976D01*
X185947541Y-121936977D01*
X185757364Y-122010651D01*
X185757357Y-122010655D01*
X185583960Y-122118017D01*
X185583958Y-122118019D01*
X185433237Y-122255418D01*
X185310327Y-122418178D01*
X185219422Y-122600739D01*
X185219417Y-122600752D01*
X185163602Y-122796917D01*
X185144785Y-122999999D01*
X115530622Y-122999999D01*
X115529515Y-120500000D01*
X148244353Y-120500000D01*
X148264834Y-120642456D01*
X148292522Y-120703083D01*
X148324623Y-120773373D01*
X148418872Y-120882143D01*
X148539947Y-120959953D01*
X148539950Y-120959954D01*
X148539949Y-120959954D01*
X148678036Y-121000499D01*
X148678038Y-121000500D01*
X148678039Y-121000500D01*
X148821962Y-121000500D01*
X148821962Y-121000499D01*
X148929121Y-120969035D01*
X148960050Y-120959954D01*
X148960050Y-120959953D01*
X148960053Y-120959953D01*
X149081128Y-120882143D01*
X149175377Y-120773373D01*
X149235165Y-120642457D01*
X149255647Y-120500000D01*
X149235165Y-120357543D01*
X149175377Y-120226627D01*
X149124556Y-120167976D01*
X149095532Y-120104422D01*
X149105476Y-120035264D01*
X149151230Y-119982460D01*
X149183334Y-119967798D01*
X149210053Y-119959953D01*
X149331128Y-119882143D01*
X149425377Y-119773373D01*
X149485165Y-119642457D01*
X149505647Y-119500000D01*
X149485165Y-119357543D01*
X149425377Y-119226627D01*
X149331128Y-119117857D01*
X149210053Y-119040047D01*
X149210051Y-119040046D01*
X149210049Y-119040045D01*
X149210050Y-119040045D01*
X149071963Y-118999500D01*
X149071961Y-118999500D01*
X148928039Y-118999500D01*
X148928036Y-118999500D01*
X148789949Y-119040045D01*
X148668873Y-119117856D01*
X148574623Y-119226626D01*
X148574622Y-119226628D01*
X148514834Y-119357543D01*
X148494353Y-119500000D01*
X148514834Y-119642456D01*
X148574622Y-119773371D01*
X148574623Y-119773373D01*
X148625442Y-119832022D01*
X148654467Y-119895577D01*
X148644523Y-119964735D01*
X148598768Y-120017539D01*
X148566666Y-120032200D01*
X148539951Y-120040044D01*
X148539950Y-120040045D01*
X148418873Y-120117856D01*
X148324623Y-120226626D01*
X148324622Y-120226628D01*
X148264834Y-120357543D01*
X148244353Y-120500000D01*
X115529515Y-120500000D01*
X115528518Y-118250000D01*
X148244353Y-118250000D01*
X148264834Y-118392456D01*
X148307490Y-118485858D01*
X148324623Y-118523373D01*
X148418872Y-118632143D01*
X148539947Y-118709953D01*
X148539950Y-118709954D01*
X148539949Y-118709954D01*
X148678036Y-118750499D01*
X148678038Y-118750500D01*
X148678039Y-118750500D01*
X148821962Y-118750500D01*
X148821962Y-118750499D01*
X148960053Y-118709953D01*
X149081128Y-118632143D01*
X149175377Y-118523373D01*
X149235165Y-118392457D01*
X149255647Y-118250000D01*
X149235165Y-118107543D01*
X149175377Y-117976627D01*
X149081128Y-117867857D01*
X148960053Y-117790047D01*
X148960051Y-117790046D01*
X148960049Y-117790045D01*
X148960050Y-117790045D01*
X148821963Y-117749500D01*
X148821961Y-117749500D01*
X148678039Y-117749500D01*
X148678036Y-117749500D01*
X148539949Y-117790045D01*
X148418873Y-117867856D01*
X148324623Y-117976626D01*
X148324622Y-117976628D01*
X148264834Y-118107543D01*
X148244353Y-118250000D01*
X115528518Y-118250000D01*
X115526625Y-113977135D01*
X142374500Y-113977135D01*
X142374500Y-115022870D01*
X142374501Y-115022876D01*
X142380908Y-115082483D01*
X142431202Y-115217328D01*
X142431206Y-115217335D01*
X142517452Y-115332544D01*
X142517455Y-115332547D01*
X142632664Y-115418793D01*
X142632671Y-115418797D01*
X142677618Y-115435561D01*
X142767517Y-115469091D01*
X142827127Y-115475500D01*
X143597872Y-115475499D01*
X143657483Y-115469091D01*
X143792331Y-115418796D01*
X143907546Y-115332546D01*
X143993796Y-115217331D01*
X144044091Y-115082483D01*
X144050500Y-115022873D01*
X144050499Y-113977135D01*
X149124500Y-113977135D01*
X149124500Y-115022870D01*
X149124501Y-115022876D01*
X149130908Y-115082483D01*
X149181202Y-115217328D01*
X149181206Y-115217335D01*
X149267452Y-115332544D01*
X149267455Y-115332547D01*
X149382664Y-115418793D01*
X149382671Y-115418797D01*
X149427618Y-115435561D01*
X149517517Y-115469091D01*
X149577127Y-115475500D01*
X150347872Y-115475499D01*
X150407483Y-115469091D01*
X150542331Y-115418796D01*
X150657546Y-115332546D01*
X150743796Y-115217331D01*
X150794091Y-115082483D01*
X150800500Y-115022873D01*
X150800499Y-113977128D01*
X150794091Y-113917517D01*
X150788685Y-113903024D01*
X150743797Y-113782671D01*
X150743793Y-113782664D01*
X150657547Y-113667455D01*
X150657544Y-113667452D01*
X150542335Y-113581206D01*
X150542328Y-113581202D01*
X150407486Y-113530910D01*
X150407485Y-113530909D01*
X150407483Y-113530909D01*
X150347873Y-113524500D01*
X150347863Y-113524500D01*
X149577129Y-113524500D01*
X149577123Y-113524501D01*
X149517516Y-113530908D01*
X149382671Y-113581202D01*
X149382664Y-113581206D01*
X149267455Y-113667452D01*
X149267452Y-113667455D01*
X149181206Y-113782664D01*
X149181202Y-113782671D01*
X149130908Y-113917517D01*
X149124501Y-113977116D01*
X149124501Y-113977123D01*
X149124500Y-113977135D01*
X144050499Y-113977135D01*
X144050499Y-113977128D01*
X144044091Y-113917517D01*
X144038685Y-113903024D01*
X143993797Y-113782671D01*
X143993793Y-113782664D01*
X143907547Y-113667455D01*
X143907544Y-113667452D01*
X143792335Y-113581206D01*
X143792328Y-113581202D01*
X143657486Y-113530910D01*
X143657485Y-113530909D01*
X143657483Y-113530909D01*
X143597873Y-113524500D01*
X143597863Y-113524500D01*
X142827129Y-113524500D01*
X142827123Y-113524501D01*
X142767516Y-113530908D01*
X142632671Y-113581202D01*
X142632664Y-113581206D01*
X142517455Y-113667452D01*
X142517452Y-113667455D01*
X142431206Y-113782664D01*
X142431202Y-113782671D01*
X142380908Y-113917517D01*
X142374501Y-113977116D01*
X142374501Y-113977123D01*
X142374500Y-113977135D01*
X115526625Y-113977135D01*
X115523127Y-106080564D01*
X115949500Y-106080564D01*
X115949500Y-108124437D01*
X115956832Y-108151802D01*
X115975089Y-108219936D01*
X115975089Y-108219937D01*
X115986430Y-108239579D01*
X116021588Y-108300475D01*
X116024526Y-108305563D01*
X116024528Y-108305566D01*
X116514799Y-108795836D01*
X116548284Y-108857159D01*
X116543300Y-108926850D01*
X116501429Y-108982784D01*
X116496009Y-108986619D01*
X116469399Y-109004398D01*
X116414033Y-109087260D01*
X116414032Y-109087264D01*
X116399500Y-109160321D01*
X116399500Y-110909678D01*
X116414032Y-110982735D01*
X116414033Y-110982739D01*
X116414034Y-110982740D01*
X116469399Y-111065601D01*
X116552260Y-111120966D01*
X116552264Y-111120967D01*
X116625321Y-111135499D01*
X116625324Y-111135500D01*
X116625326Y-111135500D01*
X118374676Y-111135500D01*
X118374677Y-111135499D01*
X118447740Y-111120966D01*
X118530601Y-111065601D01*
X118585966Y-110982740D01*
X118600500Y-110909674D01*
X118600500Y-109169500D01*
X118620185Y-109102461D01*
X118672989Y-109056706D01*
X118724500Y-109045500D01*
X134459335Y-109045500D01*
X134459336Y-109045500D01*
X134507086Y-109032705D01*
X134554838Y-109019910D01*
X134588502Y-109000473D01*
X134656397Y-108984001D01*
X134722425Y-109006852D01*
X134765617Y-109061772D01*
X134774500Y-109107860D01*
X134774500Y-109347869D01*
X134774501Y-109347876D01*
X134780908Y-109407483D01*
X134831202Y-109542328D01*
X134831206Y-109542335D01*
X134917452Y-109657544D01*
X134917455Y-109657547D01*
X135032664Y-109743793D01*
X135032671Y-109743797D01*
X135167517Y-109794091D01*
X135167516Y-109794091D01*
X135174444Y-109794835D01*
X135227127Y-109800500D01*
X136272872Y-109800499D01*
X136332483Y-109794091D01*
X136467331Y-109743796D01*
X136582546Y-109657546D01*
X136668796Y-109542331D01*
X136719091Y-109407483D01*
X136725500Y-109347873D01*
X136725499Y-108577128D01*
X136719091Y-108517517D01*
X136719091Y-108517516D01*
X136665697Y-108374359D01*
X136668903Y-108373162D01*
X136657546Y-108321045D01*
X136681938Y-108255571D01*
X136714200Y-108225525D01*
X136722520Y-108220179D01*
X136789550Y-108200500D01*
X137403724Y-108200500D01*
X137403725Y-108200500D01*
X137451475Y-108187705D01*
X137499227Y-108174910D01*
X137584851Y-108125475D01*
X137654764Y-108055562D01*
X139477379Y-106232945D01*
X139538700Y-106199462D01*
X139608391Y-106204446D01*
X139660006Y-106243084D01*
X139660724Y-106242463D01*
X139663583Y-106245762D01*
X139664325Y-106246318D01*
X139665377Y-106247832D01*
X139666530Y-106249163D01*
X139666532Y-106249166D01*
X139760781Y-106357936D01*
X139881856Y-106435746D01*
X139881859Y-106435747D01*
X139881858Y-106435747D01*
X140019945Y-106476292D01*
X140019947Y-106476293D01*
X140019948Y-106476293D01*
X140163870Y-106476293D01*
X140205358Y-106464111D01*
X140275227Y-106464111D01*
X140327974Y-106495407D01*
X142063129Y-108230562D01*
X142133042Y-108300475D01*
X142218666Y-108349910D01*
X142247153Y-108357543D01*
X142314168Y-108375500D01*
X142314169Y-108375500D01*
X146963201Y-108375500D01*
X147030240Y-108395185D01*
X147050882Y-108411819D01*
X147759065Y-109120002D01*
X147792550Y-109181325D01*
X147787566Y-109251017D01*
X147745694Y-109306950D01*
X147738425Y-109311997D01*
X147700108Y-109336622D01*
X147700106Y-109336624D01*
X147700104Y-109336625D01*
X147700104Y-109336626D01*
X147690356Y-109347876D01*
X147605855Y-109445395D01*
X147605854Y-109445397D01*
X147546066Y-109576312D01*
X147525585Y-109718769D01*
X147546066Y-109861225D01*
X147564112Y-109900739D01*
X147605855Y-109992142D01*
X147700104Y-110100912D01*
X147821179Y-110178722D01*
X147821182Y-110178723D01*
X147821181Y-110178723D01*
X147959268Y-110219268D01*
X147959270Y-110219269D01*
X147959271Y-110219269D01*
X148103194Y-110219269D01*
X148103194Y-110219268D01*
X148241285Y-110178722D01*
X148362360Y-110100912D01*
X148450447Y-109999252D01*
X148509222Y-109961480D01*
X148579092Y-109961480D01*
X148631839Y-109992776D01*
X161064538Y-122425475D01*
X161138689Y-122468286D01*
X161150159Y-122474909D01*
X161150163Y-122474911D01*
X161245664Y-122500500D01*
X161245665Y-122500500D01*
X161245666Y-122500500D01*
X168964435Y-122500500D01*
X168964436Y-122500500D01*
X169012186Y-122487705D01*
X169059938Y-122474910D01*
X169145562Y-122425475D01*
X169215475Y-122355562D01*
X170014972Y-121556063D01*
X170076293Y-121522580D01*
X170145984Y-121527564D01*
X170147444Y-121528119D01*
X170237544Y-121563024D01*
X170438024Y-121600500D01*
X170438026Y-121600500D01*
X170641974Y-121600500D01*
X170641976Y-121600500D01*
X170842456Y-121563024D01*
X171032637Y-121489348D01*
X171206041Y-121381981D01*
X171356764Y-121244579D01*
X171479673Y-121081821D01*
X171570582Y-120899250D01*
X171626397Y-120703083D01*
X171645215Y-120500000D01*
X171641508Y-120459999D01*
X185144785Y-120459999D01*
X185144785Y-120460000D01*
X185163602Y-120663082D01*
X185219417Y-120859247D01*
X185219422Y-120859260D01*
X185310327Y-121041821D01*
X185433237Y-121204581D01*
X185583958Y-121341980D01*
X185583960Y-121341982D01*
X185648560Y-121381980D01*
X185757363Y-121449348D01*
X185947544Y-121523024D01*
X186148024Y-121560500D01*
X186148026Y-121560500D01*
X186351974Y-121560500D01*
X186351976Y-121560500D01*
X186552456Y-121523024D01*
X186742637Y-121449348D01*
X186916041Y-121341981D01*
X187066764Y-121204579D01*
X187189673Y-121041821D01*
X187280582Y-120859250D01*
X187336397Y-120663083D01*
X187355215Y-120460000D01*
X187336397Y-120256917D01*
X187280582Y-120060750D01*
X187270273Y-120040047D01*
X187234297Y-119967797D01*
X187189673Y-119878179D01*
X187066764Y-119715421D01*
X187066762Y-119715418D01*
X186916041Y-119578019D01*
X186916039Y-119578017D01*
X186742642Y-119470655D01*
X186742635Y-119470651D01*
X186558971Y-119399500D01*
X186552456Y-119396976D01*
X186351976Y-119359500D01*
X186148024Y-119359500D01*
X185947544Y-119396976D01*
X185947541Y-119396976D01*
X185947541Y-119396977D01*
X185757364Y-119470651D01*
X185757357Y-119470655D01*
X185583960Y-119578017D01*
X185583958Y-119578019D01*
X185433237Y-119715418D01*
X185310327Y-119878178D01*
X185219422Y-120060739D01*
X185219417Y-120060752D01*
X185163602Y-120256917D01*
X185144785Y-120459999D01*
X171641508Y-120459999D01*
X171626397Y-120296917D01*
X171606398Y-120226628D01*
X171570582Y-120100750D01*
X171550665Y-120060752D01*
X171511681Y-119982460D01*
X171479673Y-119918179D01*
X171356764Y-119755421D01*
X171356762Y-119755418D01*
X171206041Y-119618019D01*
X171206039Y-119618017D01*
X171032642Y-119510655D01*
X171032635Y-119510651D01*
X170929382Y-119470651D01*
X170842456Y-119436976D01*
X170641976Y-119399500D01*
X170438024Y-119399500D01*
X170237544Y-119436976D01*
X170237541Y-119436976D01*
X170237541Y-119436977D01*
X170047364Y-119510651D01*
X170047357Y-119510655D01*
X169873960Y-119618017D01*
X169873958Y-119618019D01*
X169723237Y-119755418D01*
X169600327Y-119918178D01*
X169509422Y-120100739D01*
X169509417Y-120100752D01*
X169453602Y-120296917D01*
X169434785Y-120499999D01*
X169434785Y-120500000D01*
X169453602Y-120703082D01*
X169473602Y-120773371D01*
X169509417Y-120899247D01*
X169510987Y-120904763D01*
X169509003Y-120905327D01*
X169514098Y-120965816D01*
X169481390Y-121027557D01*
X169480290Y-121028671D01*
X168795782Y-121713181D01*
X168734459Y-121746666D01*
X168708101Y-121749500D01*
X168484449Y-121749500D01*
X168417410Y-121729815D01*
X168371655Y-121677011D01*
X168361711Y-121607853D01*
X168390736Y-121544297D01*
X168439655Y-121509873D01*
X168492637Y-121489348D01*
X168666041Y-121381981D01*
X168816764Y-121244579D01*
X168939673Y-121081821D01*
X169030582Y-120899250D01*
X169086397Y-120703083D01*
X169105215Y-120500000D01*
X169101508Y-120459999D01*
X169086397Y-120296917D01*
X169066398Y-120226628D01*
X169030582Y-120100750D01*
X169010665Y-120060752D01*
X168971681Y-119982460D01*
X168939673Y-119918179D01*
X168816764Y-119755421D01*
X168816762Y-119755418D01*
X168666041Y-119618019D01*
X168666039Y-119618017D01*
X168492642Y-119510655D01*
X168492635Y-119510651D01*
X168389382Y-119470651D01*
X168302456Y-119436976D01*
X168101976Y-119399500D01*
X167898024Y-119399500D01*
X167697544Y-119436976D01*
X167697541Y-119436976D01*
X167697541Y-119436977D01*
X167507364Y-119510651D01*
X167507357Y-119510655D01*
X167333960Y-119618017D01*
X167333958Y-119618019D01*
X167183237Y-119755418D01*
X167060327Y-119918178D01*
X166969422Y-120100739D01*
X166969417Y-120100752D01*
X166913602Y-120296917D01*
X166894785Y-120499999D01*
X166894785Y-120500000D01*
X166913602Y-120703082D01*
X166933602Y-120773371D01*
X166969417Y-120899247D01*
X166970987Y-120904763D01*
X166969007Y-120905326D01*
X166974095Y-120965835D01*
X166941378Y-121027571D01*
X166940290Y-121028672D01*
X166705782Y-121263181D01*
X166644459Y-121296666D01*
X166618101Y-121299500D01*
X166484315Y-121299500D01*
X166417276Y-121279815D01*
X166371521Y-121227011D01*
X166361577Y-121157853D01*
X166385361Y-121100773D01*
X166399673Y-121081821D01*
X166490582Y-120899250D01*
X166546397Y-120703083D01*
X166565215Y-120500000D01*
X166561508Y-120459999D01*
X166546397Y-120296917D01*
X166526398Y-120226628D01*
X166490582Y-120100750D01*
X166470665Y-120060752D01*
X166431681Y-119982460D01*
X166399673Y-119918179D01*
X166276764Y-119755421D01*
X166276762Y-119755418D01*
X166126041Y-119618019D01*
X166126039Y-119618017D01*
X165952642Y-119510655D01*
X165952635Y-119510651D01*
X165849382Y-119470651D01*
X165762456Y-119436976D01*
X165561976Y-119399500D01*
X165358024Y-119399500D01*
X165157544Y-119436976D01*
X165157541Y-119436976D01*
X165157541Y-119436977D01*
X164967364Y-119510651D01*
X164967357Y-119510655D01*
X164793960Y-119618017D01*
X164793958Y-119618019D01*
X164643237Y-119755418D01*
X164520327Y-119918178D01*
X164429422Y-120100739D01*
X164429417Y-120100752D01*
X164373602Y-120296917D01*
X164354785Y-120499999D01*
X164354785Y-120500000D01*
X164373602Y-120703082D01*
X164429417Y-120899247D01*
X164429422Y-120899260D01*
X164520327Y-121081821D01*
X164534639Y-121100773D01*
X164559331Y-121166134D01*
X164544766Y-121234469D01*
X164495569Y-121284081D01*
X164435685Y-121299500D01*
X163024018Y-121299500D01*
X162956979Y-121279815D01*
X162936337Y-121263181D01*
X160220337Y-118547181D01*
X160186852Y-118485858D01*
X160191836Y-118416166D01*
X160233708Y-118360233D01*
X160299172Y-118335816D01*
X160308018Y-118335500D01*
X164340815Y-118335500D01*
X164407854Y-118355185D01*
X164451813Y-118404225D01*
X164520327Y-118541821D01*
X164520329Y-118541823D01*
X164643237Y-118704581D01*
X164793958Y-118841980D01*
X164793960Y-118841982D01*
X164893141Y-118903392D01*
X164967363Y-118949348D01*
X165157544Y-119023024D01*
X165358024Y-119060500D01*
X165358026Y-119060500D01*
X165561974Y-119060500D01*
X165561976Y-119060500D01*
X165762456Y-119023024D01*
X165952637Y-118949348D01*
X166126041Y-118841981D01*
X166276764Y-118704579D01*
X166399673Y-118541821D01*
X166490582Y-118359250D01*
X166546397Y-118163083D01*
X166565215Y-117960000D01*
X166561508Y-117919999D01*
X166546397Y-117756917D01*
X166535016Y-117716917D01*
X166490582Y-117560750D01*
X166487836Y-117555236D01*
X166426137Y-117431326D01*
X166399673Y-117378179D01*
X166321171Y-117274226D01*
X166296480Y-117208866D01*
X166311045Y-117140531D01*
X166360242Y-117090918D01*
X166420126Y-117075500D01*
X166533101Y-117075500D01*
X166600140Y-117095185D01*
X166620782Y-117111819D01*
X166940289Y-117431326D01*
X166973774Y-117492649D01*
X166969331Y-117554765D01*
X166970986Y-117555236D01*
X166913603Y-117756915D01*
X166913602Y-117756917D01*
X166894785Y-117959999D01*
X166894785Y-117960000D01*
X166913602Y-118163082D01*
X166969417Y-118359247D01*
X166969422Y-118359260D01*
X167060327Y-118541821D01*
X167183237Y-118704581D01*
X167333958Y-118841980D01*
X167333960Y-118841982D01*
X167433141Y-118903392D01*
X167507363Y-118949348D01*
X167697544Y-119023024D01*
X167898024Y-119060500D01*
X167898026Y-119060500D01*
X168101974Y-119060500D01*
X168101976Y-119060500D01*
X168302456Y-119023024D01*
X168492637Y-118949348D01*
X168666041Y-118841981D01*
X168816764Y-118704579D01*
X168939673Y-118541821D01*
X169030582Y-118359250D01*
X169086397Y-118163083D01*
X169105215Y-117960000D01*
X169101508Y-117919999D01*
X169086397Y-117756917D01*
X169075016Y-117716917D01*
X169030582Y-117560750D01*
X169027836Y-117555236D01*
X168966137Y-117431326D01*
X168939673Y-117378179D01*
X168824646Y-117225858D01*
X168816762Y-117215418D01*
X168666041Y-117078019D01*
X168666039Y-117078017D01*
X168492642Y-116970655D01*
X168492635Y-116970651D01*
X168386150Y-116929399D01*
X168302456Y-116896976D01*
X168165572Y-116871388D01*
X168103293Y-116839721D01*
X168068020Y-116779409D01*
X168070954Y-116709600D01*
X168111163Y-116652460D01*
X168175881Y-116626129D01*
X168188359Y-116625500D01*
X168623101Y-116625500D01*
X168690140Y-116645185D01*
X168710782Y-116661819D01*
X169480289Y-117431326D01*
X169513774Y-117492649D01*
X169509331Y-117554765D01*
X169510986Y-117555236D01*
X169453603Y-117756915D01*
X169453602Y-117756917D01*
X169434785Y-117959999D01*
X169434785Y-117960000D01*
X169453602Y-118163082D01*
X169509417Y-118359247D01*
X169509422Y-118359260D01*
X169600327Y-118541821D01*
X169723237Y-118704581D01*
X169873958Y-118841980D01*
X169873960Y-118841982D01*
X169973141Y-118903392D01*
X170047363Y-118949348D01*
X170237544Y-119023024D01*
X170438024Y-119060500D01*
X170438026Y-119060500D01*
X170641974Y-119060500D01*
X170641976Y-119060500D01*
X170842456Y-119023024D01*
X171032637Y-118949348D01*
X171206041Y-118841981D01*
X171356764Y-118704579D01*
X171479673Y-118541821D01*
X171570582Y-118359250D01*
X171626397Y-118163083D01*
X171645215Y-117960000D01*
X171641508Y-117919999D01*
X171626397Y-117756917D01*
X171615016Y-117716917D01*
X171570582Y-117560750D01*
X171567836Y-117555236D01*
X171506137Y-117431326D01*
X171479673Y-117378179D01*
X171364646Y-117225858D01*
X171356762Y-117215418D01*
X171214051Y-117085321D01*
X171979500Y-117085321D01*
X171979500Y-118834678D01*
X171994032Y-118907735D01*
X171994033Y-118907739D01*
X171995108Y-118909348D01*
X172049399Y-118990601D01*
X172132260Y-119045966D01*
X172132264Y-119045967D01*
X172205321Y-119060499D01*
X172205324Y-119060500D01*
X172205326Y-119060500D01*
X173954676Y-119060500D01*
X173954677Y-119060499D01*
X174027740Y-119045966D01*
X174110601Y-118990601D01*
X174165966Y-118907740D01*
X174180500Y-118834674D01*
X174180500Y-117919999D01*
X185144785Y-117919999D01*
X185144785Y-117920000D01*
X185163602Y-118123082D01*
X185219417Y-118319247D01*
X185219422Y-118319260D01*
X185310327Y-118501821D01*
X185433237Y-118664581D01*
X185583958Y-118801980D01*
X185583960Y-118801982D01*
X185648560Y-118841980D01*
X185757363Y-118909348D01*
X185947544Y-118983024D01*
X186148024Y-119020500D01*
X186148026Y-119020500D01*
X186351974Y-119020500D01*
X186351976Y-119020500D01*
X186552456Y-118983024D01*
X186742637Y-118909348D01*
X186916041Y-118801981D01*
X187066764Y-118664579D01*
X187189673Y-118501821D01*
X187280582Y-118319250D01*
X187336397Y-118123083D01*
X187355215Y-117920000D01*
X187336397Y-117716917D01*
X187280582Y-117520750D01*
X187266589Y-117492649D01*
X187236054Y-117431326D01*
X187189673Y-117338179D01*
X187096968Y-117215418D01*
X187066762Y-117175418D01*
X186916041Y-117038019D01*
X186916039Y-117038017D01*
X186742642Y-116930655D01*
X186742635Y-116930651D01*
X186596483Y-116874032D01*
X186552456Y-116856976D01*
X186351976Y-116819500D01*
X186148024Y-116819500D01*
X185947544Y-116856976D01*
X185947541Y-116856976D01*
X185947541Y-116856977D01*
X185757364Y-116930651D01*
X185757357Y-116930655D01*
X185583960Y-117038017D01*
X185583958Y-117038019D01*
X185433237Y-117175418D01*
X185310327Y-117338178D01*
X185219422Y-117520739D01*
X185219417Y-117520752D01*
X185163602Y-117716917D01*
X185144785Y-117919999D01*
X174180500Y-117919999D01*
X174180500Y-117085326D01*
X174180500Y-117085323D01*
X174180499Y-117085321D01*
X174165967Y-117012264D01*
X174165966Y-117012260D01*
X174158092Y-117000475D01*
X174110601Y-116929399D01*
X174027740Y-116874034D01*
X174027739Y-116874033D01*
X174027735Y-116874032D01*
X173954677Y-116859500D01*
X173954674Y-116859500D01*
X172205326Y-116859500D01*
X172205323Y-116859500D01*
X172132264Y-116874032D01*
X172132260Y-116874033D01*
X172049399Y-116929399D01*
X171994033Y-117012260D01*
X171994032Y-117012264D01*
X171979500Y-117085321D01*
X171214051Y-117085321D01*
X171206041Y-117078019D01*
X171206039Y-117078017D01*
X171032642Y-116970655D01*
X171032635Y-116970651D01*
X170926150Y-116929399D01*
X170842456Y-116896976D01*
X170641976Y-116859500D01*
X170438024Y-116859500D01*
X170360284Y-116874032D01*
X170237536Y-116896977D01*
X170147443Y-116931879D01*
X170077820Y-116937740D01*
X170016080Y-116905030D01*
X170014970Y-116903933D01*
X169060563Y-115949526D01*
X169060562Y-115949525D01*
X168974938Y-115900090D01*
X168927186Y-115887295D01*
X168927184Y-115887294D01*
X168927182Y-115887293D01*
X168879436Y-115874500D01*
X168879435Y-115874500D01*
X160618526Y-115874500D01*
X160551487Y-115854815D01*
X160530845Y-115838181D01*
X160072663Y-115379999D01*
X185144785Y-115379999D01*
X185144785Y-115380000D01*
X185163602Y-115583082D01*
X185219417Y-115779247D01*
X185219422Y-115779260D01*
X185310327Y-115961821D01*
X185433237Y-116124581D01*
X185583958Y-116261980D01*
X185583960Y-116261982D01*
X185683141Y-116323392D01*
X185757363Y-116369348D01*
X185947544Y-116443024D01*
X186148024Y-116480500D01*
X186148026Y-116480500D01*
X186351974Y-116480500D01*
X186351976Y-116480500D01*
X186552456Y-116443024D01*
X186742637Y-116369348D01*
X186916041Y-116261981D01*
X187066764Y-116124579D01*
X187189673Y-115961821D01*
X187280582Y-115779250D01*
X187336397Y-115583083D01*
X187355215Y-115380000D01*
X187336397Y-115176917D01*
X187280582Y-114980750D01*
X187189673Y-114798179D01*
X187066764Y-114635421D01*
X187066762Y-114635418D01*
X186916041Y-114498019D01*
X186916039Y-114498017D01*
X186742642Y-114390655D01*
X186742635Y-114390651D01*
X186647546Y-114353814D01*
X186552456Y-114316976D01*
X186351976Y-114279500D01*
X186148024Y-114279500D01*
X185947544Y-114316976D01*
X185947541Y-114316976D01*
X185947541Y-114316977D01*
X185757364Y-114390651D01*
X185757357Y-114390655D01*
X185583960Y-114498017D01*
X185583958Y-114498019D01*
X185433237Y-114635418D01*
X185310327Y-114798178D01*
X185219422Y-114980739D01*
X185219417Y-114980752D01*
X185163602Y-115176917D01*
X185144785Y-115379999D01*
X160072663Y-115379999D01*
X157532663Y-112839999D01*
X185144785Y-112839999D01*
X185144785Y-112840000D01*
X185163602Y-113043082D01*
X185219417Y-113239247D01*
X185219422Y-113239260D01*
X185310327Y-113421821D01*
X185433237Y-113584581D01*
X185583958Y-113721980D01*
X185583960Y-113721982D01*
X185681966Y-113782664D01*
X185757363Y-113829348D01*
X185947544Y-113903024D01*
X186148024Y-113940500D01*
X186148026Y-113940500D01*
X186351974Y-113940500D01*
X186351976Y-113940500D01*
X186552456Y-113903024D01*
X186742637Y-113829348D01*
X186916041Y-113721981D01*
X187066764Y-113584579D01*
X187189673Y-113421821D01*
X187280582Y-113239250D01*
X187336397Y-113043083D01*
X187355215Y-112840000D01*
X187336397Y-112636917D01*
X187280582Y-112440750D01*
X187189673Y-112258179D01*
X187066764Y-112095421D01*
X187066762Y-112095418D01*
X186916041Y-111958019D01*
X186916039Y-111958017D01*
X186742642Y-111850655D01*
X186742635Y-111850651D01*
X186647546Y-111813814D01*
X186552456Y-111776976D01*
X186351976Y-111739500D01*
X186148024Y-111739500D01*
X185947544Y-111776976D01*
X185947541Y-111776976D01*
X185947541Y-111776977D01*
X185757364Y-111850651D01*
X185757357Y-111850655D01*
X185583960Y-111958017D01*
X185583958Y-111958019D01*
X185433237Y-112095418D01*
X185310327Y-112258178D01*
X185219422Y-112440739D01*
X185219417Y-112440752D01*
X185163602Y-112636917D01*
X185144785Y-112839999D01*
X157532663Y-112839999D01*
X154529845Y-109837181D01*
X154496360Y-109775858D01*
X154501344Y-109706166D01*
X154543216Y-109650233D01*
X154608680Y-109625816D01*
X154617526Y-109625500D01*
X160372126Y-109625500D01*
X160439165Y-109645185D01*
X160439166Y-109645185D01*
X160539947Y-109709953D01*
X160539948Y-109709953D01*
X160539949Y-109709954D01*
X160647107Y-109741417D01*
X160655210Y-109743797D01*
X160678036Y-109750499D01*
X160678038Y-109750500D01*
X160678039Y-109750500D01*
X160821962Y-109750500D01*
X160821962Y-109750499D01*
X160930028Y-109718769D01*
X160960050Y-109709954D01*
X160960050Y-109709953D01*
X160960053Y-109709953D01*
X161081128Y-109632143D01*
X161175377Y-109523373D01*
X161235165Y-109392457D01*
X161255647Y-109250000D01*
X161235165Y-109107543D01*
X161175377Y-108976627D01*
X161081128Y-108867857D01*
X160960053Y-108790047D01*
X160960051Y-108790046D01*
X160960049Y-108790045D01*
X160960050Y-108790045D01*
X160821963Y-108749500D01*
X160821961Y-108749500D01*
X160678039Y-108749500D01*
X160678036Y-108749500D01*
X160539949Y-108790045D01*
X160539948Y-108790046D01*
X160439166Y-108854815D01*
X160372126Y-108874500D01*
X156069108Y-108874500D01*
X156002069Y-108854815D01*
X155956314Y-108802011D01*
X155946370Y-108732853D01*
X155952286Y-108712706D01*
X155951537Y-108712486D01*
X155954035Y-108703979D01*
X155962880Y-108642457D01*
X155974517Y-108561522D01*
X155954035Y-108419065D01*
X155894247Y-108288149D01*
X155799998Y-108179379D01*
X155678923Y-108101569D01*
X155678921Y-108101568D01*
X155678919Y-108101567D01*
X155678920Y-108101567D01*
X155540833Y-108061022D01*
X155540831Y-108061022D01*
X155396909Y-108061022D01*
X155396906Y-108061022D01*
X155258819Y-108101567D01*
X155137743Y-108179378D01*
X155043493Y-108288148D01*
X155043492Y-108288150D01*
X154983704Y-108419065D01*
X154963223Y-108561522D01*
X154983704Y-108703979D01*
X154986203Y-108712486D01*
X154983480Y-108713285D01*
X154991371Y-108768139D01*
X154962350Y-108831697D01*
X154903574Y-108869475D01*
X154868632Y-108874500D01*
X154431699Y-108874500D01*
X154364660Y-108854815D01*
X154344018Y-108838181D01*
X153380217Y-107874380D01*
X157966508Y-107874380D01*
X157986989Y-108016836D01*
X158036603Y-108125473D01*
X158046778Y-108147753D01*
X158141027Y-108256523D01*
X158262102Y-108334333D01*
X158262105Y-108334334D01*
X158262104Y-108334334D01*
X158400191Y-108374879D01*
X158400193Y-108374880D01*
X158400194Y-108374880D01*
X158544117Y-108374880D01*
X158544117Y-108374879D01*
X158682208Y-108334333D01*
X158803283Y-108256523D01*
X158897532Y-108147753D01*
X158957320Y-108016837D01*
X158977802Y-107874380D01*
X158957320Y-107731923D01*
X158897532Y-107601007D01*
X158803283Y-107492237D01*
X158682208Y-107414427D01*
X158682206Y-107414426D01*
X158682204Y-107414425D01*
X158682205Y-107414425D01*
X158544118Y-107373880D01*
X158544116Y-107373880D01*
X158400194Y-107373880D01*
X158400191Y-107373880D01*
X158262104Y-107414425D01*
X158141028Y-107492236D01*
X158046778Y-107601006D01*
X158046777Y-107601008D01*
X157986989Y-107731923D01*
X157966508Y-107874380D01*
X153380217Y-107874380D01*
X150468018Y-104962181D01*
X150434533Y-104900858D01*
X150439517Y-104831166D01*
X150481389Y-104775233D01*
X150546853Y-104750816D01*
X150555699Y-104750500D01*
X151637122Y-104750500D01*
X151704161Y-104770185D01*
X151749916Y-104822989D01*
X151759859Y-104892146D01*
X151748830Y-104968864D01*
X151744353Y-105000000D01*
X151764834Y-105142456D01*
X151803275Y-105226628D01*
X151824623Y-105273373D01*
X151918872Y-105382143D01*
X152039947Y-105459953D01*
X152039950Y-105459954D01*
X152039949Y-105459954D01*
X152116930Y-105482557D01*
X152176336Y-105500000D01*
X152178036Y-105500499D01*
X152178038Y-105500500D01*
X152178039Y-105500500D01*
X152321962Y-105500500D01*
X152321962Y-105500499D01*
X152460053Y-105459953D01*
X152581128Y-105382143D01*
X152675377Y-105273373D01*
X152735165Y-105142457D01*
X152755647Y-105000000D01*
X152740140Y-104892146D01*
X152750084Y-104822989D01*
X152795839Y-104770185D01*
X152862878Y-104750500D01*
X154598222Y-104750500D01*
X154665261Y-104770185D01*
X154711016Y-104822989D01*
X154720960Y-104892146D01*
X154705454Y-105000000D01*
X154705452Y-105000012D01*
X154707194Y-105012130D01*
X154725933Y-105142468D01*
X154738080Y-105169065D01*
X154761341Y-105219999D01*
X154763294Y-105224274D01*
X154774500Y-105275786D01*
X154774500Y-105922870D01*
X154774501Y-105922876D01*
X154780908Y-105982483D01*
X154831202Y-106117328D01*
X154831206Y-106117335D01*
X154917452Y-106232544D01*
X154917455Y-106232547D01*
X155032664Y-106318793D01*
X155032671Y-106318797D01*
X155077618Y-106335561D01*
X155167517Y-106369091D01*
X155227127Y-106375500D01*
X155293565Y-106375499D01*
X155360603Y-106395183D01*
X155406359Y-106447986D01*
X155416303Y-106517144D01*
X155387279Y-106580700D01*
X155387279Y-106580701D01*
X155344353Y-106630241D01*
X155344352Y-106630242D01*
X155284564Y-106761157D01*
X155264083Y-106903614D01*
X155284564Y-107046070D01*
X155335923Y-107158528D01*
X155344353Y-107176987D01*
X155438602Y-107285757D01*
X155559677Y-107363567D01*
X155559680Y-107363568D01*
X155559679Y-107363568D01*
X155697766Y-107404113D01*
X155697768Y-107404114D01*
X155697769Y-107404114D01*
X155841692Y-107404114D01*
X155841692Y-107404113D01*
X155979783Y-107363567D01*
X156100858Y-107285757D01*
X156195107Y-107176987D01*
X156254895Y-107046071D01*
X156254896Y-107046067D01*
X156256808Y-107039559D01*
X156294585Y-106980783D01*
X156358143Y-106951761D01*
X156375783Y-106950500D01*
X156648805Y-106950500D01*
X156715844Y-106970185D01*
X156736486Y-106986819D01*
X156776052Y-107026385D01*
X156845965Y-107096298D01*
X156886153Y-107119500D01*
X156931590Y-107145733D01*
X156931594Y-107145734D01*
X156979339Y-107158528D01*
X156979340Y-107158528D01*
X156989431Y-107161231D01*
X157027092Y-107171323D01*
X157027093Y-107171323D01*
X157027094Y-107171323D01*
X157643731Y-107171323D01*
X157643732Y-107171323D01*
X157691482Y-107158528D01*
X157739234Y-107145733D01*
X157824858Y-107096298D01*
X157894771Y-107026385D01*
X157894770Y-107026385D01*
X157934338Y-106986817D01*
X157995661Y-106953334D01*
X158022019Y-106950500D01*
X178618101Y-106950500D01*
X178685140Y-106970185D01*
X178705782Y-106986819D01*
X182338181Y-110619218D01*
X182371666Y-110680541D01*
X182374500Y-110706899D01*
X182374500Y-111372815D01*
X182354815Y-111439854D01*
X182344215Y-111454016D01*
X182324623Y-111476627D01*
X182324622Y-111476628D01*
X182264834Y-111607543D01*
X182244353Y-111750000D01*
X182264834Y-111892456D01*
X182294776Y-111958019D01*
X182324623Y-112023373D01*
X182418872Y-112132143D01*
X182539947Y-112209953D01*
X182539950Y-112209954D01*
X182539949Y-112209954D01*
X182678036Y-112250499D01*
X182678038Y-112250500D01*
X182678039Y-112250500D01*
X182821962Y-112250500D01*
X182821962Y-112250499D01*
X182960053Y-112209953D01*
X183081128Y-112132143D01*
X183175377Y-112023373D01*
X183235165Y-111892457D01*
X183255647Y-111750000D01*
X183235165Y-111607543D01*
X183175377Y-111476627D01*
X183155785Y-111454016D01*
X183126762Y-111390460D01*
X183125500Y-111372815D01*
X183125500Y-110450567D01*
X183125500Y-110450565D01*
X183099910Y-110355062D01*
X183068119Y-110299999D01*
X185144785Y-110299999D01*
X185144785Y-110300000D01*
X185163602Y-110503082D01*
X185219417Y-110699247D01*
X185219422Y-110699260D01*
X185310327Y-110881821D01*
X185433237Y-111044581D01*
X185583958Y-111181980D01*
X185583960Y-111181982D01*
X185683141Y-111243392D01*
X185757363Y-111289348D01*
X185947544Y-111363024D01*
X186148024Y-111400500D01*
X186148026Y-111400500D01*
X186351974Y-111400500D01*
X186351976Y-111400500D01*
X186552456Y-111363024D01*
X186742637Y-111289348D01*
X186916041Y-111181981D01*
X187066764Y-111044579D01*
X187189673Y-110881821D01*
X187280582Y-110699250D01*
X187336397Y-110503083D01*
X187355215Y-110300000D01*
X187336397Y-110096917D01*
X187280582Y-109900750D01*
X187266407Y-109872283D01*
X187227472Y-109794091D01*
X187189673Y-109718179D01*
X187066764Y-109555421D01*
X187066762Y-109555418D01*
X186916041Y-109418019D01*
X186916039Y-109418017D01*
X186742642Y-109310655D01*
X186742635Y-109310651D01*
X186563891Y-109241406D01*
X186552456Y-109236976D01*
X186351976Y-109199500D01*
X186148024Y-109199500D01*
X185947544Y-109236976D01*
X185947541Y-109236976D01*
X185947541Y-109236977D01*
X185757364Y-109310651D01*
X185757357Y-109310655D01*
X185583960Y-109418017D01*
X185583958Y-109418019D01*
X185433237Y-109555418D01*
X185310327Y-109718178D01*
X185219422Y-109900739D01*
X185219417Y-109900752D01*
X185163602Y-110096917D01*
X185144785Y-110299999D01*
X183068119Y-110299999D01*
X183050475Y-110269438D01*
X182980562Y-110199525D01*
X179763218Y-106982181D01*
X179729733Y-106920858D01*
X179734717Y-106851166D01*
X179776589Y-106795233D01*
X179842053Y-106770816D01*
X179850899Y-106770500D01*
X185381821Y-106770500D01*
X185448860Y-106790185D01*
X185494615Y-106842989D01*
X185504559Y-106912147D01*
X185475534Y-106975703D01*
X185465367Y-106986129D01*
X185433236Y-107015421D01*
X185433235Y-107015422D01*
X185310327Y-107178178D01*
X185219422Y-107360739D01*
X185219417Y-107360752D01*
X185163602Y-107556917D01*
X185144785Y-107759999D01*
X185144785Y-107760000D01*
X185163602Y-107963082D01*
X185219417Y-108159247D01*
X185219422Y-108159260D01*
X185310327Y-108341821D01*
X185433237Y-108504581D01*
X185583958Y-108641980D01*
X185583960Y-108641982D01*
X185683141Y-108703392D01*
X185757363Y-108749348D01*
X185947544Y-108823024D01*
X186148024Y-108860500D01*
X186148026Y-108860500D01*
X186351974Y-108860500D01*
X186351976Y-108860500D01*
X186552456Y-108823024D01*
X186742637Y-108749348D01*
X186916041Y-108641981D01*
X187052573Y-108517516D01*
X187066762Y-108504581D01*
X187066764Y-108504579D01*
X187189673Y-108341821D01*
X187280582Y-108159250D01*
X187336397Y-107963083D01*
X187355215Y-107760000D01*
X187336397Y-107556917D01*
X187280582Y-107360750D01*
X187260966Y-107321356D01*
X187194882Y-107188641D01*
X187189673Y-107178179D01*
X187066764Y-107015421D01*
X187034639Y-106986135D01*
X186998360Y-106926427D01*
X187000120Y-106856579D01*
X187039363Y-106798771D01*
X187103629Y-106771357D01*
X187118179Y-106770500D01*
X196934433Y-106770500D01*
X196934436Y-106770500D01*
X196940179Y-106768961D01*
X197010026Y-106770622D01*
X197017068Y-106773108D01*
X197061150Y-106790185D01*
X197197544Y-106843024D01*
X197398024Y-106880500D01*
X197398026Y-106880500D01*
X197601974Y-106880500D01*
X197601976Y-106880500D01*
X197802456Y-106843024D01*
X197992637Y-106769348D01*
X198166041Y-106661981D01*
X198316764Y-106524579D01*
X198439673Y-106361821D01*
X198530582Y-106179250D01*
X198586397Y-105983083D01*
X198605215Y-105780000D01*
X198588557Y-105600233D01*
X198586397Y-105576917D01*
X198575004Y-105536876D01*
X198530582Y-105380750D01*
X198530374Y-105380333D01*
X198464885Y-105248812D01*
X198439673Y-105198179D01*
X198380704Y-105120091D01*
X198316762Y-105035418D01*
X198166041Y-104898019D01*
X198166039Y-104898017D01*
X197992642Y-104790655D01*
X197992635Y-104790651D01*
X197888984Y-104750497D01*
X197802456Y-104716976D01*
X197601976Y-104679500D01*
X197398024Y-104679500D01*
X197197544Y-104716976D01*
X197197541Y-104716976D01*
X197197541Y-104716977D01*
X197007364Y-104790651D01*
X197007357Y-104790655D01*
X196833960Y-104898017D01*
X196833958Y-104898019D01*
X196683237Y-105035418D01*
X196560327Y-105198178D01*
X196469422Y-105380739D01*
X196469417Y-105380752D01*
X196413602Y-105576917D01*
X196394785Y-105779999D01*
X196394785Y-105780001D01*
X196404427Y-105884059D01*
X196391012Y-105952629D01*
X196342655Y-106003061D01*
X196280956Y-106019500D01*
X190733629Y-106019500D01*
X190666590Y-105999815D01*
X190620835Y-105947011D01*
X190610891Y-105877853D01*
X190639916Y-105814297D01*
X190675377Y-105773373D01*
X190735165Y-105642457D01*
X190755647Y-105500000D01*
X190735165Y-105357543D01*
X190675377Y-105226627D01*
X190655785Y-105204016D01*
X190626762Y-105140460D01*
X190625500Y-105122815D01*
X190625500Y-104968866D01*
X190625500Y-104968864D01*
X190622734Y-104958541D01*
X190615952Y-104933232D01*
X190599912Y-104873364D01*
X190599911Y-104873363D01*
X190599911Y-104873362D01*
X190560336Y-104804815D01*
X190550477Y-104787739D01*
X190550473Y-104787734D01*
X188755595Y-102992856D01*
X186939172Y-101176434D01*
X186905688Y-101115112D01*
X186910672Y-101045420D01*
X186943316Y-100997117D01*
X187066762Y-100884581D01*
X187066764Y-100884579D01*
X187189673Y-100721821D01*
X187280582Y-100539250D01*
X187336397Y-100343083D01*
X187355215Y-100140000D01*
X187352207Y-100107543D01*
X187336397Y-99936917D01*
X187325430Y-99898373D01*
X187280582Y-99740750D01*
X187274487Y-99728510D01*
X187230291Y-99639752D01*
X187189673Y-99558179D01*
X187125765Y-99473551D01*
X187066762Y-99395418D01*
X186916041Y-99258019D01*
X186916039Y-99258017D01*
X186742642Y-99150655D01*
X186742635Y-99150651D01*
X186626044Y-99105484D01*
X186552456Y-99076976D01*
X186351976Y-99039500D01*
X186148024Y-99039500D01*
X185947544Y-99076976D01*
X185947541Y-99076976D01*
X185947541Y-99076977D01*
X185757364Y-99150651D01*
X185757357Y-99150655D01*
X185583960Y-99258017D01*
X185583958Y-99258019D01*
X185433237Y-99395418D01*
X185310327Y-99558178D01*
X185219422Y-99740739D01*
X185219417Y-99740752D01*
X185163602Y-99936917D01*
X185144785Y-100139999D01*
X185144785Y-100140000D01*
X185163602Y-100343082D01*
X185219417Y-100539247D01*
X185219422Y-100539260D01*
X185310327Y-100721821D01*
X185324639Y-100740773D01*
X185349331Y-100806134D01*
X185334766Y-100874469D01*
X185285569Y-100924081D01*
X185225685Y-100939500D01*
X169438284Y-100939500D01*
X169371245Y-100919815D01*
X169325490Y-100867011D01*
X169315546Y-100797853D01*
X169316819Y-100788999D01*
X169331053Y-100690000D01*
X169310571Y-100547543D01*
X169250783Y-100416627D01*
X169156534Y-100307857D01*
X169035459Y-100230047D01*
X169035457Y-100230046D01*
X169035455Y-100230045D01*
X169035456Y-100230045D01*
X168897369Y-100189500D01*
X168897367Y-100189500D01*
X168753445Y-100189500D01*
X168753442Y-100189500D01*
X168615355Y-100230045D01*
X168615354Y-100230046D01*
X168514572Y-100294815D01*
X168447532Y-100314500D01*
X159493107Y-100314500D01*
X159426068Y-100294815D01*
X159380313Y-100242011D01*
X159370369Y-100172853D01*
X159399394Y-100109297D01*
X159405426Y-100102819D01*
X160096426Y-99411819D01*
X160157749Y-99378334D01*
X160184107Y-99375500D01*
X171372126Y-99375500D01*
X171439165Y-99395185D01*
X171439166Y-99395185D01*
X171539947Y-99459953D01*
X171539948Y-99459953D01*
X171539949Y-99459954D01*
X171616879Y-99482542D01*
X171677933Y-99500469D01*
X171678036Y-99500499D01*
X171678038Y-99500500D01*
X171678039Y-99500500D01*
X171821962Y-99500500D01*
X171821962Y-99500499D01*
X171960053Y-99459953D01*
X172081128Y-99382143D01*
X172175377Y-99273373D01*
X172235165Y-99142457D01*
X172255647Y-99000000D01*
X172235165Y-98857543D01*
X172175377Y-98726627D01*
X172157245Y-98705702D01*
X172128221Y-98642147D01*
X172138165Y-98572989D01*
X172183919Y-98520185D01*
X172250959Y-98500500D01*
X184112733Y-98500500D01*
X184112735Y-98500500D01*
X184165848Y-98486268D01*
X184208237Y-98474910D01*
X184293861Y-98425475D01*
X184363774Y-98355562D01*
X184959613Y-97759721D01*
X185020934Y-97726238D01*
X185090625Y-97731222D01*
X185146559Y-97773093D01*
X185166558Y-97813469D01*
X185219417Y-97999247D01*
X185219422Y-97999260D01*
X185310327Y-98181821D01*
X185433237Y-98344581D01*
X185572638Y-98471660D01*
X185576202Y-98474910D01*
X185583958Y-98481980D01*
X185583960Y-98481982D01*
X185672526Y-98536819D01*
X185757363Y-98589348D01*
X185947544Y-98663024D01*
X186148024Y-98700500D01*
X186148026Y-98700500D01*
X186351974Y-98700500D01*
X186351976Y-98700500D01*
X186552456Y-98663024D01*
X186742637Y-98589348D01*
X186916041Y-98481981D01*
X187054716Y-98355562D01*
X187066762Y-98344581D01*
X187092302Y-98310761D01*
X187189673Y-98181821D01*
X187280582Y-97999250D01*
X187336397Y-97803083D01*
X187355215Y-97600000D01*
X187350053Y-97544297D01*
X187336397Y-97396917D01*
X187302567Y-97278019D01*
X187280582Y-97200750D01*
X187189673Y-97018179D01*
X187175360Y-96999226D01*
X187150669Y-96933866D01*
X187165234Y-96865531D01*
X187214431Y-96815919D01*
X187274315Y-96800500D01*
X190478101Y-96800500D01*
X190545140Y-96820185D01*
X190565782Y-96836819D01*
X196440289Y-102711326D01*
X196473774Y-102772649D01*
X196469331Y-102834765D01*
X196470986Y-102835236D01*
X196413603Y-103036915D01*
X196413602Y-103036917D01*
X196394785Y-103239999D01*
X196394785Y-103240000D01*
X196413602Y-103443082D01*
X196469417Y-103639247D01*
X196469422Y-103639260D01*
X196560327Y-103821821D01*
X196683237Y-103984581D01*
X196833958Y-104121980D01*
X196833960Y-104121982D01*
X196899915Y-104162819D01*
X197007363Y-104229348D01*
X197197544Y-104303024D01*
X197398024Y-104340500D01*
X197398026Y-104340500D01*
X197601974Y-104340500D01*
X197601976Y-104340500D01*
X197802456Y-104303024D01*
X197992637Y-104229348D01*
X198166041Y-104121981D01*
X198296191Y-104003334D01*
X198316762Y-103984581D01*
X198316764Y-103984579D01*
X198439673Y-103821821D01*
X198530582Y-103639250D01*
X198586397Y-103443083D01*
X198605215Y-103240000D01*
X198597406Y-103155731D01*
X198586397Y-103036917D01*
X198567622Y-102970931D01*
X198530582Y-102840750D01*
X198530071Y-102839724D01*
X198466137Y-102711326D01*
X198439673Y-102658179D01*
X198332281Y-102515969D01*
X198316762Y-102495418D01*
X198166041Y-102358019D01*
X198166039Y-102358017D01*
X197992642Y-102250655D01*
X197992635Y-102250651D01*
X197892552Y-102211879D01*
X197802456Y-102176976D01*
X197601976Y-102139500D01*
X197398024Y-102139500D01*
X197316096Y-102154815D01*
X197197536Y-102176977D01*
X197107443Y-102211879D01*
X197037820Y-102217740D01*
X196976080Y-102185030D01*
X196974970Y-102183933D01*
X190915563Y-96124526D01*
X190915562Y-96124525D01*
X190829938Y-96075090D01*
X190782186Y-96062295D01*
X190782184Y-96062294D01*
X190782182Y-96062293D01*
X190734436Y-96049500D01*
X190734435Y-96049500D01*
X187118179Y-96049500D01*
X187051140Y-96029815D01*
X187005385Y-95977011D01*
X186995441Y-95907853D01*
X187024466Y-95844297D01*
X187034632Y-95833870D01*
X187066764Y-95804579D01*
X187189673Y-95641821D01*
X187280582Y-95459250D01*
X187336397Y-95263083D01*
X187355215Y-95060000D01*
X187352519Y-95030910D01*
X187336397Y-94856917D01*
X187334892Y-94851626D01*
X187280582Y-94660750D01*
X187274227Y-94647988D01*
X187232373Y-94563933D01*
X187189673Y-94478179D01*
X187066764Y-94315421D01*
X187066763Y-94315420D01*
X187066705Y-94315343D01*
X187042013Y-94249981D01*
X187056578Y-94181647D01*
X187105776Y-94132034D01*
X187165659Y-94116616D01*
X190334217Y-94116616D01*
X190401256Y-94136301D01*
X190421898Y-94152935D01*
X196440289Y-100171326D01*
X196473774Y-100232649D01*
X196469331Y-100294765D01*
X196470986Y-100295236D01*
X196413603Y-100496915D01*
X196413602Y-100496917D01*
X196394785Y-100699999D01*
X196394785Y-100700000D01*
X196413602Y-100903082D01*
X196469417Y-101099247D01*
X196469422Y-101099260D01*
X196560327Y-101281821D01*
X196683237Y-101444581D01*
X196833958Y-101581980D01*
X196833960Y-101581982D01*
X196933141Y-101643392D01*
X197007363Y-101689348D01*
X197197544Y-101763024D01*
X197398024Y-101800500D01*
X197398026Y-101800500D01*
X197601974Y-101800500D01*
X197601976Y-101800500D01*
X197802456Y-101763024D01*
X197992637Y-101689348D01*
X198166041Y-101581981D01*
X198316764Y-101444579D01*
X198439673Y-101281821D01*
X198530582Y-101099250D01*
X198586397Y-100903083D01*
X198605215Y-100700000D01*
X198586397Y-100496917D01*
X198530582Y-100300750D01*
X198530126Y-100299835D01*
X198466137Y-100171326D01*
X198439673Y-100118179D01*
X198343999Y-99991486D01*
X198316762Y-99955418D01*
X198166041Y-99818019D01*
X198166039Y-99818017D01*
X197992642Y-99710655D01*
X197992635Y-99710651D01*
X197884586Y-99668793D01*
X197802456Y-99636976D01*
X197601976Y-99599500D01*
X197398024Y-99599500D01*
X197316433Y-99614752D01*
X197197536Y-99636977D01*
X197107443Y-99671879D01*
X197037820Y-99677740D01*
X196976080Y-99645030D01*
X196974970Y-99643933D01*
X195491036Y-98159999D01*
X196394785Y-98159999D01*
X196394785Y-98160000D01*
X196413602Y-98363082D01*
X196469417Y-98559247D01*
X196469422Y-98559260D01*
X196560327Y-98741821D01*
X196683237Y-98904581D01*
X196807582Y-99017935D01*
X196831237Y-99039500D01*
X196833958Y-99041980D01*
X196833960Y-99041982D01*
X196923260Y-99097274D01*
X197007363Y-99149348D01*
X197197544Y-99223024D01*
X197398024Y-99260500D01*
X197398026Y-99260500D01*
X197601974Y-99260500D01*
X197601976Y-99260500D01*
X197802456Y-99223024D01*
X197992637Y-99149348D01*
X198166041Y-99041981D01*
X198316764Y-98904579D01*
X198439673Y-98741821D01*
X198530582Y-98559250D01*
X198586397Y-98363083D01*
X198605215Y-98160000D01*
X198586397Y-97956917D01*
X198530582Y-97760750D01*
X198524980Y-97749500D01*
X198476437Y-97652011D01*
X198439673Y-97578179D01*
X198316764Y-97415421D01*
X198316762Y-97415418D01*
X198166041Y-97278019D01*
X198166039Y-97278017D01*
X197992642Y-97170655D01*
X197992635Y-97170651D01*
X197873504Y-97124500D01*
X197802456Y-97096976D01*
X197601976Y-97059500D01*
X197398024Y-97059500D01*
X197197544Y-97096976D01*
X197197541Y-97096976D01*
X197197541Y-97096977D01*
X197007364Y-97170651D01*
X197007357Y-97170655D01*
X196833960Y-97278017D01*
X196833958Y-97278019D01*
X196683237Y-97415418D01*
X196560327Y-97578178D01*
X196469422Y-97760739D01*
X196469417Y-97760752D01*
X196413602Y-97956917D01*
X196394785Y-98159999D01*
X195491036Y-98159999D01*
X190771679Y-93440642D01*
X190771678Y-93440641D01*
X190686054Y-93391206D01*
X190638302Y-93378411D01*
X190638300Y-93378410D01*
X190638298Y-93378409D01*
X190590552Y-93365616D01*
X190590551Y-93365616D01*
X187239490Y-93365616D01*
X187172451Y-93345931D01*
X187126696Y-93293127D01*
X187116752Y-93223969D01*
X187140536Y-93166889D01*
X187166774Y-93132144D01*
X187189673Y-93101821D01*
X187280582Y-92919250D01*
X187336397Y-92723083D01*
X187355215Y-92520000D01*
X187336397Y-92316917D01*
X187280582Y-92120750D01*
X187278942Y-92117457D01*
X187236272Y-92031764D01*
X187189673Y-91938179D01*
X187122703Y-91849496D01*
X187066762Y-91775418D01*
X186916041Y-91638019D01*
X186916039Y-91638017D01*
X186742642Y-91530655D01*
X186742635Y-91530651D01*
X186647546Y-91493814D01*
X186552456Y-91456976D01*
X186351976Y-91419500D01*
X186148024Y-91419500D01*
X185947544Y-91456976D01*
X185947541Y-91456976D01*
X185947541Y-91456977D01*
X185757364Y-91530651D01*
X185757357Y-91530655D01*
X185583960Y-91638017D01*
X185583958Y-91638019D01*
X185433237Y-91775418D01*
X185310327Y-91938178D01*
X185219422Y-92120739D01*
X185219417Y-92120752D01*
X185163602Y-92316917D01*
X185144785Y-92519999D01*
X185144785Y-92520000D01*
X185163602Y-92723082D01*
X185219417Y-92919247D01*
X185219422Y-92919260D01*
X185310327Y-93101821D01*
X185359464Y-93166889D01*
X185384156Y-93232250D01*
X185369591Y-93300585D01*
X185320393Y-93350198D01*
X185260510Y-93365616D01*
X164584412Y-93365616D01*
X164517373Y-93345931D01*
X164496731Y-93329297D01*
X162216959Y-91049526D01*
X162216958Y-91049525D01*
X162131334Y-91000090D01*
X162083582Y-90987295D01*
X162083580Y-90987294D01*
X162083578Y-90987293D01*
X162035832Y-90974500D01*
X162035831Y-90974500D01*
X150901913Y-90974500D01*
X150834874Y-90954815D01*
X150789119Y-90902011D01*
X150779175Y-90832853D01*
X150808200Y-90769297D01*
X150814232Y-90762819D01*
X152415232Y-89161819D01*
X152476555Y-89128334D01*
X152502913Y-89125500D01*
X185267219Y-89125500D01*
X185334258Y-89145185D01*
X185380013Y-89197989D01*
X185389957Y-89267147D01*
X185366173Y-89324227D01*
X185310327Y-89398178D01*
X185219422Y-89580739D01*
X185219417Y-89580752D01*
X185163602Y-89776917D01*
X185144785Y-89979999D01*
X185144785Y-89980000D01*
X185163602Y-90183082D01*
X185219417Y-90379247D01*
X185219422Y-90379260D01*
X185310327Y-90561821D01*
X185433237Y-90724581D01*
X185583958Y-90861980D01*
X185583960Y-90861982D01*
X185648610Y-90902011D01*
X185757363Y-90969348D01*
X185947544Y-91043024D01*
X186148024Y-91080500D01*
X186148026Y-91080500D01*
X186351974Y-91080500D01*
X186351976Y-91080500D01*
X186552456Y-91043024D01*
X186742637Y-90969348D01*
X186916041Y-90861981D01*
X187066764Y-90724579D01*
X187189673Y-90561821D01*
X187280582Y-90379250D01*
X187336397Y-90183083D01*
X187355215Y-89980000D01*
X187336397Y-89776917D01*
X187280582Y-89580750D01*
X187189673Y-89398179D01*
X187133826Y-89324226D01*
X187109135Y-89258866D01*
X187123700Y-89190531D01*
X187172897Y-89140918D01*
X187232781Y-89125500D01*
X190423101Y-89125500D01*
X190490140Y-89145185D01*
X190510782Y-89161819D01*
X196440289Y-95091326D01*
X196473774Y-95152649D01*
X196469331Y-95214765D01*
X196470986Y-95215236D01*
X196413603Y-95416915D01*
X196413602Y-95416917D01*
X196394785Y-95619999D01*
X196394785Y-95620000D01*
X196413602Y-95823082D01*
X196469417Y-96019247D01*
X196469422Y-96019260D01*
X196560327Y-96201821D01*
X196683237Y-96364581D01*
X196833958Y-96501980D01*
X196833960Y-96501982D01*
X196901935Y-96544070D01*
X197007363Y-96609348D01*
X197197544Y-96683024D01*
X197398024Y-96720500D01*
X197398026Y-96720500D01*
X197601974Y-96720500D01*
X197601976Y-96720500D01*
X197802456Y-96683024D01*
X197992637Y-96609348D01*
X198166041Y-96501981D01*
X198316764Y-96364579D01*
X198439673Y-96201821D01*
X198530582Y-96019250D01*
X198586397Y-95823083D01*
X198605215Y-95620000D01*
X198601967Y-95584953D01*
X198586397Y-95416917D01*
X198565987Y-95345185D01*
X198530582Y-95220750D01*
X198527836Y-95215236D01*
X198466137Y-95091326D01*
X198439673Y-95038179D01*
X198316764Y-94875421D01*
X198316762Y-94875418D01*
X198166041Y-94738019D01*
X198166039Y-94738017D01*
X197992642Y-94630655D01*
X197992635Y-94630651D01*
X197847691Y-94574500D01*
X197802456Y-94556976D01*
X197601976Y-94519500D01*
X197398024Y-94519500D01*
X197311801Y-94535617D01*
X197197536Y-94556977D01*
X197107443Y-94591879D01*
X197037820Y-94597740D01*
X196976080Y-94565030D01*
X196974970Y-94563933D01*
X195491036Y-93079999D01*
X196394785Y-93079999D01*
X196394785Y-93080000D01*
X196413602Y-93283082D01*
X196469417Y-93479247D01*
X196469422Y-93479260D01*
X196560327Y-93661821D01*
X196683237Y-93824581D01*
X196833958Y-93961980D01*
X196833960Y-93961982D01*
X196857169Y-93976352D01*
X197007363Y-94069348D01*
X197197544Y-94143024D01*
X197398024Y-94180500D01*
X197398026Y-94180500D01*
X197601974Y-94180500D01*
X197601976Y-94180500D01*
X197802456Y-94143024D01*
X197992637Y-94069348D01*
X198166041Y-93961981D01*
X198316764Y-93824579D01*
X198439673Y-93661821D01*
X198530582Y-93479250D01*
X198586397Y-93283083D01*
X198605215Y-93080000D01*
X198605192Y-93079757D01*
X198586397Y-92876917D01*
X198555834Y-92769500D01*
X198530582Y-92680750D01*
X198517668Y-92654816D01*
X198456938Y-92532853D01*
X198439673Y-92498179D01*
X198355488Y-92386700D01*
X198316762Y-92335418D01*
X198166041Y-92198019D01*
X198166039Y-92198017D01*
X197992642Y-92090655D01*
X197992635Y-92090651D01*
X197869260Y-92042856D01*
X197802456Y-92016976D01*
X197601976Y-91979500D01*
X197398024Y-91979500D01*
X197197544Y-92016976D01*
X197197541Y-92016976D01*
X197197541Y-92016977D01*
X197007364Y-92090651D01*
X197007357Y-92090655D01*
X196833960Y-92198017D01*
X196833958Y-92198019D01*
X196683237Y-92335418D01*
X196560327Y-92498178D01*
X196469422Y-92680739D01*
X196469417Y-92680752D01*
X196413602Y-92876917D01*
X196394785Y-93079999D01*
X195491036Y-93079999D01*
X192951036Y-90539999D01*
X196394785Y-90539999D01*
X196394785Y-90540000D01*
X196413602Y-90743082D01*
X196469417Y-90939247D01*
X196469422Y-90939260D01*
X196560327Y-91121821D01*
X196683237Y-91284581D01*
X196822638Y-91411660D01*
X196831237Y-91419500D01*
X196833958Y-91421980D01*
X196833960Y-91421982D01*
X196933141Y-91483392D01*
X197007363Y-91529348D01*
X197197544Y-91603024D01*
X197398024Y-91640500D01*
X197398026Y-91640500D01*
X197601974Y-91640500D01*
X197601976Y-91640500D01*
X197802456Y-91603024D01*
X197992637Y-91529348D01*
X198166041Y-91421981D01*
X198316764Y-91284579D01*
X198439673Y-91121821D01*
X198530582Y-90939250D01*
X198586397Y-90743083D01*
X198605215Y-90540000D01*
X198586397Y-90336917D01*
X198530582Y-90140750D01*
X198439673Y-89958179D01*
X198316764Y-89795421D01*
X198316762Y-89795418D01*
X198166041Y-89658019D01*
X198166039Y-89658017D01*
X197992642Y-89550655D01*
X197992635Y-89550651D01*
X197897546Y-89513814D01*
X197802456Y-89476976D01*
X197601976Y-89439500D01*
X197398024Y-89439500D01*
X197197544Y-89476976D01*
X197197541Y-89476976D01*
X197197541Y-89476977D01*
X197007364Y-89550651D01*
X197007357Y-89550655D01*
X196833960Y-89658017D01*
X196833958Y-89658019D01*
X196683237Y-89795418D01*
X196560327Y-89958178D01*
X196469422Y-90140739D01*
X196469417Y-90140752D01*
X196413602Y-90336917D01*
X196394785Y-90539999D01*
X192951036Y-90539999D01*
X190860563Y-88449526D01*
X190860562Y-88449525D01*
X190774938Y-88400090D01*
X190727186Y-88387295D01*
X190727184Y-88387294D01*
X190727182Y-88387293D01*
X190679436Y-88374500D01*
X190679435Y-88374500D01*
X187172368Y-88374500D01*
X187105329Y-88354815D01*
X187059574Y-88302011D01*
X187049630Y-88232853D01*
X187073414Y-88175773D01*
X187076233Y-88172038D01*
X187189673Y-88021821D01*
X187280582Y-87839250D01*
X187336397Y-87643083D01*
X187355215Y-87440000D01*
X187336397Y-87236917D01*
X187280582Y-87040750D01*
X187189673Y-86858179D01*
X187066764Y-86695421D01*
X187066762Y-86695418D01*
X186916041Y-86558019D01*
X186916039Y-86558017D01*
X186742642Y-86450655D01*
X186742635Y-86450651D01*
X186647546Y-86413814D01*
X186552456Y-86376976D01*
X186351976Y-86339500D01*
X186148024Y-86339500D01*
X185947544Y-86376976D01*
X185947541Y-86376976D01*
X185947541Y-86376977D01*
X185757364Y-86450651D01*
X185757357Y-86450655D01*
X185583960Y-86558017D01*
X185583958Y-86558019D01*
X185433237Y-86695418D01*
X185330230Y-86831823D01*
X185310327Y-86858179D01*
X185241813Y-86995773D01*
X185194313Y-87047008D01*
X185130815Y-87064500D01*
X151990284Y-87064500D01*
X151894783Y-87090089D01*
X151894780Y-87090090D01*
X151809160Y-87139522D01*
X151809155Y-87139526D01*
X146205077Y-92743604D01*
X146143754Y-92777089D01*
X146074062Y-92772105D01*
X146018129Y-92730233D01*
X145994658Y-92673570D01*
X145985165Y-92607543D01*
X145945185Y-92520000D01*
X145925377Y-92476627D01*
X145831128Y-92367857D01*
X145710053Y-92290047D01*
X145710051Y-92290046D01*
X145710049Y-92290045D01*
X145710050Y-92290045D01*
X145571963Y-92249500D01*
X145571961Y-92249500D01*
X145428039Y-92249500D01*
X145428036Y-92249500D01*
X145289949Y-92290045D01*
X145168873Y-92367856D01*
X145168872Y-92367856D01*
X145168872Y-92367857D01*
X145156211Y-92382467D01*
X145097435Y-92420241D01*
X145027565Y-92420241D01*
X144968788Y-92382467D01*
X144956128Y-92367857D01*
X144835053Y-92290047D01*
X144835051Y-92290046D01*
X144835049Y-92290045D01*
X144835050Y-92290045D01*
X144696963Y-92249500D01*
X144696961Y-92249500D01*
X144553039Y-92249500D01*
X144553036Y-92249500D01*
X144414949Y-92290045D01*
X144293873Y-92367856D01*
X144199623Y-92476626D01*
X144199622Y-92476628D01*
X144139834Y-92607543D01*
X144119353Y-92750000D01*
X144139834Y-92892456D01*
X144183476Y-92988017D01*
X144199623Y-93023373D01*
X144293872Y-93132143D01*
X144414947Y-93209953D01*
X144414950Y-93209954D01*
X144414949Y-93209954D01*
X144490884Y-93232250D01*
X144549633Y-93249500D01*
X144553036Y-93250499D01*
X144553038Y-93250500D01*
X144553039Y-93250500D01*
X144696962Y-93250500D01*
X144696962Y-93250499D01*
X144835053Y-93209953D01*
X144956128Y-93132143D01*
X144968788Y-93117531D01*
X145027563Y-93079759D01*
X145097432Y-93079757D01*
X145156208Y-93117528D01*
X145168872Y-93132143D01*
X145289947Y-93209953D01*
X145289950Y-93209954D01*
X145289949Y-93209954D01*
X145436339Y-93252937D01*
X145495117Y-93290711D01*
X145524143Y-93354266D01*
X145514200Y-93423425D01*
X145489086Y-93459595D01*
X144972329Y-93976352D01*
X144911006Y-94009837D01*
X144849715Y-94007649D01*
X144821961Y-93999500D01*
X144678039Y-93999500D01*
X144678036Y-93999500D01*
X144539949Y-94040045D01*
X144418873Y-94117856D01*
X144324623Y-94226626D01*
X144324622Y-94226628D01*
X144264834Y-94357543D01*
X144244425Y-94499500D01*
X144244353Y-94500000D01*
X144258743Y-94600089D01*
X144259860Y-94607853D01*
X144249916Y-94677011D01*
X144204161Y-94729815D01*
X144137122Y-94749500D01*
X143478040Y-94749500D01*
X143411001Y-94729815D01*
X143365246Y-94677011D01*
X143310143Y-94556352D01*
X143310140Y-94556348D01*
X143296015Y-94540047D01*
X143215892Y-94447579D01*
X143094817Y-94369769D01*
X143094815Y-94369768D01*
X143094813Y-94369767D01*
X143094814Y-94369767D01*
X142956727Y-94329222D01*
X142956725Y-94329222D01*
X142812803Y-94329222D01*
X142812800Y-94329222D01*
X142674713Y-94369767D01*
X142553637Y-94447578D01*
X142455914Y-94560357D01*
X142397136Y-94598131D01*
X142327266Y-94598131D01*
X142274520Y-94566835D01*
X133657211Y-85949526D01*
X133657210Y-85949525D01*
X133571586Y-85900090D01*
X133523834Y-85887295D01*
X133523832Y-85887294D01*
X133523830Y-85887293D01*
X133476084Y-85874500D01*
X133476083Y-85874500D01*
X118619185Y-85874500D01*
X118552146Y-85854815D01*
X118508186Y-85805774D01*
X118439673Y-85668179D01*
X118316764Y-85505421D01*
X118316762Y-85505418D01*
X118166041Y-85368019D01*
X118166039Y-85368017D01*
X117992642Y-85260655D01*
X117992635Y-85260651D01*
X117897546Y-85223814D01*
X117802456Y-85186976D01*
X117601976Y-85149500D01*
X117398024Y-85149500D01*
X117197544Y-85186976D01*
X117197541Y-85186976D01*
X117197541Y-85186977D01*
X117007364Y-85260651D01*
X117007357Y-85260655D01*
X116833960Y-85368017D01*
X116833958Y-85368019D01*
X116683237Y-85505418D01*
X116560327Y-85668178D01*
X116469422Y-85850739D01*
X116469417Y-85850752D01*
X116413602Y-86046917D01*
X116394785Y-86249999D01*
X116394785Y-86250000D01*
X116413602Y-86453082D01*
X116469417Y-86649247D01*
X116469422Y-86649260D01*
X116560327Y-86831821D01*
X116683237Y-86994581D01*
X116833958Y-87131980D01*
X116833960Y-87131982D01*
X116933141Y-87193392D01*
X117007363Y-87239348D01*
X117197544Y-87313024D01*
X117398024Y-87350500D01*
X117398026Y-87350500D01*
X117601974Y-87350500D01*
X117601976Y-87350500D01*
X117802456Y-87313024D01*
X117992637Y-87239348D01*
X118166041Y-87131981D01*
X118294122Y-87015219D01*
X118316762Y-86994581D01*
X118316764Y-86994579D01*
X118439673Y-86831821D01*
X118508186Y-86694226D01*
X118555687Y-86642992D01*
X118619185Y-86625500D01*
X133219749Y-86625500D01*
X133286788Y-86645185D01*
X133307430Y-86661819D01*
X141515194Y-94869583D01*
X141548679Y-94930906D01*
X141543695Y-95000598D01*
X141501823Y-95056531D01*
X141494552Y-95061580D01*
X141440255Y-95096474D01*
X141346005Y-95205244D01*
X141346004Y-95205246D01*
X141286217Y-95336159D01*
X141286216Y-95336164D01*
X141275871Y-95408113D01*
X141246845Y-95471669D01*
X141240815Y-95478145D01*
X141184236Y-95534725D01*
X141122913Y-95568211D01*
X141053221Y-95563227D01*
X140997288Y-95521356D01*
X140972870Y-95455892D01*
X140982774Y-95400995D01*
X140982667Y-95400964D01*
X140982959Y-95399966D01*
X140983759Y-95395534D01*
X140985165Y-95392457D01*
X141005647Y-95250000D01*
X140985165Y-95107543D01*
X140925377Y-94976627D01*
X140831128Y-94867857D01*
X140710053Y-94790047D01*
X140710051Y-94790046D01*
X140710049Y-94790045D01*
X140710050Y-94790045D01*
X140571963Y-94749500D01*
X140571961Y-94749500D01*
X140428039Y-94749500D01*
X140428036Y-94749500D01*
X140289949Y-94790045D01*
X140168873Y-94867856D01*
X140168872Y-94867856D01*
X140168872Y-94867857D01*
X140162320Y-94875418D01*
X140074623Y-94976626D01*
X140074622Y-94976628D01*
X140014834Y-95107543D01*
X139994353Y-95250000D01*
X140014834Y-95392456D01*
X140053968Y-95478145D01*
X140074623Y-95523373D01*
X140168872Y-95632143D01*
X140289947Y-95709953D01*
X140289950Y-95709954D01*
X140289949Y-95709954D01*
X140387269Y-95738529D01*
X140418700Y-95747758D01*
X140428036Y-95750499D01*
X140428038Y-95750500D01*
X140428039Y-95750500D01*
X140571961Y-95750500D01*
X140667131Y-95722556D01*
X140737001Y-95722556D01*
X140795779Y-95760330D01*
X140824804Y-95823886D01*
X140814860Y-95893045D01*
X140789747Y-95929214D01*
X140080782Y-96638181D01*
X140019459Y-96671666D01*
X139993101Y-96674500D01*
X139247244Y-96674500D01*
X139180205Y-96654815D01*
X139134450Y-96602011D01*
X139123954Y-96537247D01*
X139125500Y-96522873D01*
X139125499Y-95477128D01*
X139119091Y-95417517D01*
X139118867Y-95416917D01*
X139068797Y-95282671D01*
X139068793Y-95282664D01*
X138982547Y-95167455D01*
X138982544Y-95167452D01*
X138867335Y-95081206D01*
X138867328Y-95081202D01*
X138732486Y-95030910D01*
X138732485Y-95030909D01*
X138732483Y-95030909D01*
X138672873Y-95024500D01*
X138672863Y-95024500D01*
X137902129Y-95024500D01*
X137902123Y-95024501D01*
X137842516Y-95030908D01*
X137707671Y-95081202D01*
X137707664Y-95081206D01*
X137592455Y-95167452D01*
X137592452Y-95167455D01*
X137506206Y-95282664D01*
X137506202Y-95282671D01*
X137455908Y-95417517D01*
X137451783Y-95455892D01*
X137449501Y-95477123D01*
X137449500Y-95477135D01*
X137449500Y-96522870D01*
X137449501Y-96522879D01*
X137451046Y-96537248D01*
X137438639Y-96606007D01*
X137391027Y-96657143D01*
X137327756Y-96674500D01*
X135840191Y-96674500D01*
X135773152Y-96654815D01*
X135737936Y-96614184D01*
X135735158Y-96615970D01*
X135730363Y-96608509D01*
X135728195Y-96606007D01*
X135636115Y-96499740D01*
X135515040Y-96421930D01*
X135515038Y-96421929D01*
X135515036Y-96421928D01*
X135515037Y-96421928D01*
X135376950Y-96381383D01*
X135376948Y-96381383D01*
X135233026Y-96381383D01*
X135233023Y-96381383D01*
X135094936Y-96421928D01*
X134973860Y-96499739D01*
X134879610Y-96608509D01*
X134879609Y-96608511D01*
X134819821Y-96739426D01*
X134799340Y-96881883D01*
X134813857Y-96982853D01*
X134803913Y-97052012D01*
X134758158Y-97104816D01*
X134691119Y-97124500D01*
X126416899Y-97124500D01*
X126349860Y-97104815D01*
X126329218Y-97088181D01*
X118559709Y-89318672D01*
X118526224Y-89257349D01*
X118530666Y-89195234D01*
X118529013Y-89194764D01*
X118547914Y-89128334D01*
X118586397Y-88993083D01*
X118605215Y-88790000D01*
X118586397Y-88586917D01*
X118530582Y-88390750D01*
X118528861Y-88387294D01*
X118451959Y-88232853D01*
X118439673Y-88208179D01*
X118316764Y-88045421D01*
X118316762Y-88045418D01*
X118166041Y-87908019D01*
X118166039Y-87908017D01*
X117992642Y-87800655D01*
X117992635Y-87800651D01*
X117897546Y-87763814D01*
X117802456Y-87726976D01*
X117601976Y-87689500D01*
X117398024Y-87689500D01*
X117197544Y-87726976D01*
X117197541Y-87726976D01*
X117197541Y-87726977D01*
X117007364Y-87800651D01*
X117007357Y-87800655D01*
X116833960Y-87908017D01*
X116833958Y-87908019D01*
X116683237Y-88045418D01*
X116560327Y-88208178D01*
X116469422Y-88390739D01*
X116469417Y-88390752D01*
X116413602Y-88586917D01*
X116394785Y-88789999D01*
X116394785Y-88790000D01*
X116413602Y-88993082D01*
X116469417Y-89189247D01*
X116469422Y-89189260D01*
X116560327Y-89371821D01*
X116683237Y-89534581D01*
X116833958Y-89671980D01*
X116833960Y-89671982D01*
X116933141Y-89733392D01*
X117007363Y-89779348D01*
X117197544Y-89853024D01*
X117398024Y-89890500D01*
X117398026Y-89890500D01*
X117601974Y-89890500D01*
X117601976Y-89890500D01*
X117802456Y-89853024D01*
X117892556Y-89818118D01*
X117962174Y-89812256D01*
X118023914Y-89844965D01*
X118025027Y-89846064D01*
X125909525Y-97730562D01*
X125979438Y-97800475D01*
X126065062Y-97849910D01*
X126112811Y-97862705D01*
X126112812Y-97862705D01*
X126122903Y-97865408D01*
X126160564Y-97875500D01*
X126160565Y-97875500D01*
X135387122Y-97875500D01*
X135454161Y-97895185D01*
X135499916Y-97947989D01*
X135509859Y-98017146D01*
X135507938Y-98030513D01*
X135494353Y-98125000D01*
X135514834Y-98267456D01*
X135560711Y-98367911D01*
X135574623Y-98398373D01*
X135668872Y-98507143D01*
X135789947Y-98584953D01*
X135789950Y-98584954D01*
X135789949Y-98584954D01*
X135866882Y-98607543D01*
X135924633Y-98624500D01*
X135928036Y-98625499D01*
X135928038Y-98625500D01*
X135928039Y-98625500D01*
X136071962Y-98625500D01*
X136071962Y-98625499D01*
X136195085Y-98589348D01*
X136210050Y-98584954D01*
X136210050Y-98584953D01*
X136210053Y-98584953D01*
X136331128Y-98507143D01*
X136425377Y-98398373D01*
X136485165Y-98267457D01*
X136505647Y-98125000D01*
X136490140Y-98017146D01*
X136500084Y-97947989D01*
X136545839Y-97895185D01*
X136612878Y-97875500D01*
X141136231Y-97875500D01*
X141203270Y-97895185D01*
X141249025Y-97947989D01*
X141258969Y-98017147D01*
X141252413Y-98042833D01*
X141205908Y-98167517D01*
X141200144Y-98221137D01*
X141199501Y-98227123D01*
X141199500Y-98227135D01*
X141199500Y-99272870D01*
X141199501Y-99272876D01*
X141205908Y-99332483D01*
X141256202Y-99467328D01*
X141256206Y-99467335D01*
X141342452Y-99582544D01*
X141342455Y-99582547D01*
X141457664Y-99668793D01*
X141457671Y-99668797D01*
X141481649Y-99677740D01*
X141592517Y-99719091D01*
X141652127Y-99725500D01*
X142020704Y-99725499D01*
X142087742Y-99745183D01*
X142133497Y-99797987D01*
X142143441Y-99867146D01*
X142114417Y-99930700D01*
X142074625Y-99976622D01*
X142074622Y-99976628D01*
X142014834Y-100107543D01*
X141994353Y-100250000D01*
X142014834Y-100392456D01*
X142062540Y-100496915D01*
X142074623Y-100523373D01*
X142168872Y-100632143D01*
X142223169Y-100667038D01*
X142268924Y-100719841D01*
X142278868Y-100788999D01*
X142249843Y-100852555D01*
X142243811Y-100859034D01*
X140609376Y-102493471D01*
X140548053Y-102526956D01*
X140521695Y-102529790D01*
X138839804Y-102529790D01*
X138792052Y-102542585D01*
X138792051Y-102542584D01*
X138744303Y-102555379D01*
X138744302Y-102555379D01*
X138658675Y-102604817D01*
X138222651Y-103040841D01*
X138173213Y-103126468D01*
X138173213Y-103126469D01*
X138168398Y-103144435D01*
X138168399Y-103144436D01*
X138148823Y-103217496D01*
X138148822Y-103217500D01*
X138147624Y-103221970D01*
X138147624Y-103519976D01*
X138127939Y-103587015D01*
X138111305Y-103607657D01*
X137039056Y-104679905D01*
X136977733Y-104713390D01*
X136908041Y-104708406D01*
X136852108Y-104666534D01*
X136828637Y-104609871D01*
X136817633Y-104533335D01*
X136757845Y-104402420D01*
X136757844Y-104402418D01*
X136733653Y-104374500D01*
X136663596Y-104293649D01*
X136542521Y-104215839D01*
X136542519Y-104215838D01*
X136542517Y-104215837D01*
X136542518Y-104215837D01*
X136404431Y-104175292D01*
X136404429Y-104175292D01*
X136260507Y-104175292D01*
X136260504Y-104175292D01*
X136122417Y-104215837D01*
X136001341Y-104293648D01*
X135907091Y-104402418D01*
X135907090Y-104402420D01*
X135847303Y-104533333D01*
X135847302Y-104533338D01*
X135836957Y-104605288D01*
X135807931Y-104668843D01*
X135801901Y-104675320D01*
X135689043Y-104788180D01*
X135627720Y-104821666D01*
X135601361Y-104824500D01*
X135435971Y-104824500D01*
X135368932Y-104804815D01*
X135323177Y-104752011D01*
X135313233Y-104682853D01*
X135342256Y-104619299D01*
X135425377Y-104523373D01*
X135485165Y-104392457D01*
X135505647Y-104250000D01*
X135495218Y-104177464D01*
X135505162Y-104108306D01*
X135550917Y-104055503D01*
X135617956Y-104035818D01*
X135635531Y-104038375D01*
X135635713Y-104037113D01*
X135644491Y-104038375D01*
X135644492Y-104038375D01*
X135788415Y-104038375D01*
X135788415Y-104038374D01*
X135926506Y-103997828D01*
X136047581Y-103920018D01*
X136141830Y-103811248D01*
X136201618Y-103680332D01*
X136222100Y-103537875D01*
X136201618Y-103395418D01*
X136141830Y-103264502D01*
X136047581Y-103155732D01*
X135926506Y-103077922D01*
X135926504Y-103077921D01*
X135926502Y-103077920D01*
X135926503Y-103077920D01*
X135788416Y-103037375D01*
X135788414Y-103037375D01*
X135644492Y-103037375D01*
X135644489Y-103037375D01*
X135506402Y-103077920D01*
X135385326Y-103155731D01*
X135341159Y-103206703D01*
X135282381Y-103244477D01*
X135247446Y-103249500D01*
X132939165Y-103249500D01*
X132917893Y-103255200D01*
X132917892Y-103255199D01*
X132843670Y-103275088D01*
X132843663Y-103275091D01*
X132758040Y-103324526D01*
X131499527Y-104583039D01*
X131463097Y-104646138D01*
X131450090Y-104668666D01*
X131450090Y-104668667D01*
X131428164Y-104750497D01*
X131428163Y-104750500D01*
X131424500Y-104764168D01*
X131424500Y-106235832D01*
X131430552Y-106258416D01*
X131430553Y-106258419D01*
X131450090Y-106331335D01*
X131450091Y-106331336D01*
X131492817Y-106405340D01*
X131499526Y-106416959D01*
X131990386Y-106907819D01*
X132023871Y-106969142D01*
X132018887Y-107038834D01*
X131977015Y-107094767D01*
X131911551Y-107119184D01*
X131902705Y-107119500D01*
X118619185Y-107119500D01*
X118552146Y-107099815D01*
X118508186Y-107050774D01*
X118439673Y-106913179D01*
X118346792Y-106790185D01*
X118316762Y-106750418D01*
X118166041Y-106613019D01*
X118166039Y-106613017D01*
X117992642Y-106505655D01*
X117992635Y-106505651D01*
X117897546Y-106468814D01*
X117802456Y-106431976D01*
X117601976Y-106394500D01*
X117398024Y-106394500D01*
X117197544Y-106431976D01*
X117197541Y-106431976D01*
X117197541Y-106431977D01*
X117007364Y-106505651D01*
X117007357Y-106505655D01*
X116889777Y-106578457D01*
X116822416Y-106597012D01*
X116755717Y-106576204D01*
X116710856Y-106522639D01*
X116700500Y-106473030D01*
X116700500Y-106336898D01*
X116720185Y-106269859D01*
X116736815Y-106249221D01*
X116974972Y-106011063D01*
X117036293Y-105977580D01*
X117105984Y-105982564D01*
X117107444Y-105983119D01*
X117197544Y-106018024D01*
X117398024Y-106055500D01*
X117398026Y-106055500D01*
X117601974Y-106055500D01*
X117601976Y-106055500D01*
X117802456Y-106018024D01*
X117992637Y-105944348D01*
X118166041Y-105836981D01*
X118304378Y-105710870D01*
X118316762Y-105699581D01*
X118335084Y-105675319D01*
X118439673Y-105536821D01*
X118530582Y-105354250D01*
X118586397Y-105158083D01*
X118605215Y-104955000D01*
X118597650Y-104873364D01*
X118586397Y-104751917D01*
X118585993Y-104750497D01*
X118530582Y-104555750D01*
X118519422Y-104533338D01*
X118486272Y-104466764D01*
X118439673Y-104373179D01*
X118324258Y-104220345D01*
X118316762Y-104210418D01*
X118166041Y-104073019D01*
X118166039Y-104073017D01*
X117992642Y-103965655D01*
X117992635Y-103965651D01*
X117867319Y-103917104D01*
X117802456Y-103891976D01*
X117601976Y-103854500D01*
X117398024Y-103854500D01*
X117197544Y-103891976D01*
X117197541Y-103891976D01*
X117197541Y-103891977D01*
X117007364Y-103965651D01*
X117007357Y-103965655D01*
X116833960Y-104073017D01*
X116833958Y-104073019D01*
X116683237Y-104210418D01*
X116560327Y-104373178D01*
X116469422Y-104555739D01*
X116469417Y-104555752D01*
X116413602Y-104751917D01*
X116394785Y-104954999D01*
X116394785Y-104955000D01*
X116413602Y-105158082D01*
X116433106Y-105226628D01*
X116469417Y-105354247D01*
X116470987Y-105359763D01*
X116469003Y-105360327D01*
X116474098Y-105420816D01*
X116441390Y-105482557D01*
X116440290Y-105483671D01*
X116094438Y-105829525D01*
X116024526Y-105899436D01*
X115975091Y-105985059D01*
X115975088Y-105985066D01*
X115968257Y-106010559D01*
X115968257Y-106010563D01*
X115959006Y-106045090D01*
X115959006Y-106045091D01*
X115949500Y-106080564D01*
X115523127Y-106080564D01*
X115519880Y-98750000D01*
X133994353Y-98750000D01*
X134014834Y-98892456D01*
X134074622Y-99023371D01*
X134074623Y-99023373D01*
X134168872Y-99132143D01*
X134276385Y-99201237D01*
X134322139Y-99254040D01*
X134332083Y-99323199D01*
X134322139Y-99357063D01*
X134264835Y-99482541D01*
X134264834Y-99482542D01*
X134244353Y-99625000D01*
X134264834Y-99767456D01*
X134311274Y-99869143D01*
X134324623Y-99898373D01*
X134418872Y-100007143D01*
X134539947Y-100084953D01*
X134539950Y-100084954D01*
X134539949Y-100084954D01*
X134647107Y-100116417D01*
X134678032Y-100125498D01*
X134678036Y-100125499D01*
X134678038Y-100125500D01*
X134678039Y-100125500D01*
X134821962Y-100125500D01*
X134821962Y-100125499D01*
X134835506Y-100121523D01*
X134905375Y-100121521D01*
X134964154Y-100159294D01*
X134993181Y-100222849D01*
X134993193Y-100241131D01*
X134994353Y-100241131D01*
X134994353Y-100249999D01*
X135014834Y-100392456D01*
X135062540Y-100496915D01*
X135074623Y-100523373D01*
X135168872Y-100632143D01*
X135289947Y-100709953D01*
X135289950Y-100709954D01*
X135289949Y-100709954D01*
X135366882Y-100732543D01*
X135414494Y-100746523D01*
X135428036Y-100750499D01*
X135428038Y-100750500D01*
X135428039Y-100750500D01*
X135571962Y-100750500D01*
X135571962Y-100750499D01*
X135585506Y-100746523D01*
X135655375Y-100746521D01*
X135714154Y-100784294D01*
X135743181Y-100847849D01*
X135743193Y-100866131D01*
X135744353Y-100866131D01*
X135744353Y-100874999D01*
X135764834Y-101017456D01*
X135802387Y-101099683D01*
X135824623Y-101148373D01*
X135918872Y-101257143D01*
X136039947Y-101334953D01*
X136039950Y-101334954D01*
X136039949Y-101334954D01*
X136178036Y-101375499D01*
X136178038Y-101375500D01*
X136178039Y-101375500D01*
X136321962Y-101375500D01*
X136321962Y-101375499D01*
X136460053Y-101334953D01*
X136581128Y-101257143D01*
X136675377Y-101148373D01*
X136735165Y-101017457D01*
X136755647Y-100875000D01*
X136735165Y-100732543D01*
X136675377Y-100601627D01*
X136581128Y-100492857D01*
X136460053Y-100415047D01*
X136460051Y-100415046D01*
X136460049Y-100415045D01*
X136460050Y-100415045D01*
X136321963Y-100374500D01*
X136321961Y-100374500D01*
X136178039Y-100374500D01*
X136178035Y-100374500D01*
X136164487Y-100378478D01*
X136094617Y-100378476D01*
X136035840Y-100340700D01*
X136006818Y-100277143D01*
X136006822Y-100258869D01*
X136005647Y-100258869D01*
X136005647Y-100250000D01*
X135985165Y-100107543D01*
X135967468Y-100068793D01*
X135925377Y-99976627D01*
X135831128Y-99867857D01*
X135710053Y-99790047D01*
X135710051Y-99790046D01*
X135710049Y-99790045D01*
X135710050Y-99790045D01*
X135571963Y-99749500D01*
X135571961Y-99749500D01*
X135428039Y-99749500D01*
X135428035Y-99749500D01*
X135414487Y-99753478D01*
X135344617Y-99753476D01*
X135285840Y-99715700D01*
X135256818Y-99652143D01*
X135256822Y-99633869D01*
X135255647Y-99633869D01*
X135255647Y-99625000D01*
X135235165Y-99482543D01*
X135202866Y-99411819D01*
X135175377Y-99351627D01*
X135081128Y-99242857D01*
X134973614Y-99173762D01*
X134927860Y-99120959D01*
X134917916Y-99051800D01*
X134927860Y-99017935D01*
X134931088Y-99010868D01*
X134985165Y-98892457D01*
X135005647Y-98750000D01*
X134985165Y-98607543D01*
X134925377Y-98476627D01*
X134831128Y-98367857D01*
X134710053Y-98290047D01*
X134710051Y-98290046D01*
X134710049Y-98290045D01*
X134710050Y-98290045D01*
X134571963Y-98249500D01*
X134571961Y-98249500D01*
X134428039Y-98249500D01*
X134428036Y-98249500D01*
X134289949Y-98290045D01*
X134168873Y-98367856D01*
X134074623Y-98476626D01*
X134074622Y-98476628D01*
X134014834Y-98607543D01*
X133994353Y-98750000D01*
X115519880Y-98750000D01*
X115517718Y-93869999D01*
X116394785Y-93869999D01*
X116394785Y-93870000D01*
X116413602Y-94073082D01*
X116469417Y-94269247D01*
X116469422Y-94269260D01*
X116560327Y-94451821D01*
X116683237Y-94614581D01*
X116791397Y-94713181D01*
X116831237Y-94749500D01*
X116833958Y-94751980D01*
X116833960Y-94751982D01*
X116895438Y-94790047D01*
X117007363Y-94859348D01*
X117197544Y-94933024D01*
X117398024Y-94970500D01*
X117398026Y-94970500D01*
X117601974Y-94970500D01*
X117601976Y-94970500D01*
X117802456Y-94933024D01*
X117992637Y-94859348D01*
X118166041Y-94751981D01*
X118316764Y-94614579D01*
X118439673Y-94451821D01*
X118530582Y-94269250D01*
X118586397Y-94073083D01*
X118605215Y-93870000D01*
X118586397Y-93666917D01*
X118530582Y-93470750D01*
X118439673Y-93288179D01*
X118355723Y-93177011D01*
X118316762Y-93125418D01*
X118166041Y-92988019D01*
X118166039Y-92988017D01*
X117992642Y-92880655D01*
X117992635Y-92880651D01*
X117897546Y-92843814D01*
X117802456Y-92806976D01*
X117601976Y-92769500D01*
X117398024Y-92769500D01*
X117197544Y-92806976D01*
X117197541Y-92806976D01*
X117197541Y-92806977D01*
X117007364Y-92880651D01*
X117007357Y-92880655D01*
X116833960Y-92988017D01*
X116833958Y-92988019D01*
X116683237Y-93125418D01*
X116560327Y-93288178D01*
X116469422Y-93470739D01*
X116469417Y-93470752D01*
X116413602Y-93666917D01*
X116394785Y-93869999D01*
X115517718Y-93869999D01*
X115516593Y-91329999D01*
X116394785Y-91329999D01*
X116394785Y-91330000D01*
X116413602Y-91533082D01*
X116469417Y-91729247D01*
X116469422Y-91729260D01*
X116560327Y-91911821D01*
X116683237Y-92074581D01*
X116833958Y-92211980D01*
X116833960Y-92211982D01*
X116894554Y-92249500D01*
X117007363Y-92319348D01*
X117197544Y-92393024D01*
X117398024Y-92430500D01*
X117398026Y-92430500D01*
X117601974Y-92430500D01*
X117601976Y-92430500D01*
X117802456Y-92393024D01*
X117992637Y-92319348D01*
X118166041Y-92211981D01*
X118316764Y-92074579D01*
X118439673Y-91911821D01*
X118530582Y-91729250D01*
X118586397Y-91533083D01*
X118605215Y-91330000D01*
X118586397Y-91126917D01*
X118530582Y-90930750D01*
X118439673Y-90748179D01*
X118316764Y-90585421D01*
X118316762Y-90585418D01*
X118166041Y-90448019D01*
X118166039Y-90448017D01*
X117992642Y-90340655D01*
X117992635Y-90340651D01*
X117897546Y-90303814D01*
X117802456Y-90266976D01*
X117601976Y-90229500D01*
X117398024Y-90229500D01*
X117197544Y-90266976D01*
X117197541Y-90266976D01*
X117197541Y-90266977D01*
X117007364Y-90340651D01*
X117007357Y-90340655D01*
X116833960Y-90448017D01*
X116833958Y-90448019D01*
X116683237Y-90585418D01*
X116560327Y-90748178D01*
X116469422Y-90930739D01*
X116469417Y-90930752D01*
X116413602Y-91126917D01*
X116394785Y-91329999D01*
X115516593Y-91329999D01*
X115513744Y-84899999D01*
X185144785Y-84899999D01*
X185144785Y-84900000D01*
X185163602Y-85103082D01*
X185219417Y-85299247D01*
X185219422Y-85299260D01*
X185310327Y-85481821D01*
X185433237Y-85644581D01*
X185583958Y-85781980D01*
X185583960Y-85781982D01*
X185622381Y-85805771D01*
X185757363Y-85889348D01*
X185947544Y-85963024D01*
X186148024Y-86000500D01*
X186148026Y-86000500D01*
X186351974Y-86000500D01*
X186351976Y-86000500D01*
X186552456Y-85963024D01*
X186742637Y-85889348D01*
X186916041Y-85781981D01*
X187066764Y-85644579D01*
X187189673Y-85481821D01*
X187280582Y-85299250D01*
X187336397Y-85103083D01*
X187355215Y-84900000D01*
X187336397Y-84696917D01*
X187280582Y-84500750D01*
X187189673Y-84318179D01*
X187066764Y-84155421D01*
X187066762Y-84155418D01*
X186916041Y-84018019D01*
X186916039Y-84018017D01*
X186742642Y-83910655D01*
X186742635Y-83910651D01*
X186647546Y-83873814D01*
X186552456Y-83836976D01*
X186351976Y-83799500D01*
X186148024Y-83799500D01*
X185947544Y-83836976D01*
X185947541Y-83836976D01*
X185947541Y-83836977D01*
X185757364Y-83910651D01*
X185757357Y-83910655D01*
X185583960Y-84018017D01*
X185583958Y-84018019D01*
X185433237Y-84155418D01*
X185310327Y-84318178D01*
X185219422Y-84500739D01*
X185219417Y-84500752D01*
X185163602Y-84696917D01*
X185144785Y-84899999D01*
X115513744Y-84899999D01*
X115512619Y-82359999D01*
X185144785Y-82359999D01*
X185144785Y-82360000D01*
X185163602Y-82563082D01*
X185219417Y-82759247D01*
X185219422Y-82759260D01*
X185310327Y-82941821D01*
X185433237Y-83104581D01*
X185583958Y-83241980D01*
X185583960Y-83241982D01*
X185683141Y-83303392D01*
X185757363Y-83349348D01*
X185947544Y-83423024D01*
X186148024Y-83460500D01*
X186148026Y-83460500D01*
X186351974Y-83460500D01*
X186351976Y-83460500D01*
X186552456Y-83423024D01*
X186742637Y-83349348D01*
X186916041Y-83241981D01*
X187066764Y-83104579D01*
X187189673Y-82941821D01*
X187280582Y-82759250D01*
X187336397Y-82563083D01*
X187355215Y-82360000D01*
X187336397Y-82156917D01*
X187280582Y-81960750D01*
X187189673Y-81778179D01*
X187066764Y-81615421D01*
X187066762Y-81615418D01*
X186916041Y-81478019D01*
X186916039Y-81478017D01*
X186742642Y-81370655D01*
X186742635Y-81370651D01*
X186647546Y-81333814D01*
X186552456Y-81296976D01*
X186351976Y-81259500D01*
X186148024Y-81259500D01*
X185947544Y-81296976D01*
X185947541Y-81296976D01*
X185947541Y-81296977D01*
X185757364Y-81370651D01*
X185757357Y-81370655D01*
X185583960Y-81478017D01*
X185583958Y-81478019D01*
X185433237Y-81615418D01*
X185310327Y-81778178D01*
X185219422Y-81960739D01*
X185219417Y-81960752D01*
X185163602Y-82156917D01*
X185144785Y-82359999D01*
X115512619Y-82359999D01*
X115511494Y-79819999D01*
X185144785Y-79819999D01*
X185144785Y-79820000D01*
X185163602Y-80023082D01*
X185219417Y-80219247D01*
X185219422Y-80219260D01*
X185310327Y-80401821D01*
X185433237Y-80564581D01*
X185583958Y-80701980D01*
X185583960Y-80701982D01*
X185683141Y-80763392D01*
X185757363Y-80809348D01*
X185947544Y-80883024D01*
X186148024Y-80920500D01*
X186148026Y-80920500D01*
X186351974Y-80920500D01*
X186351976Y-80920500D01*
X186552456Y-80883024D01*
X186742637Y-80809348D01*
X186916041Y-80701981D01*
X187066764Y-80564579D01*
X187189673Y-80401821D01*
X187280582Y-80219250D01*
X187336397Y-80023083D01*
X187355215Y-79820000D01*
X187336397Y-79616917D01*
X187280582Y-79420750D01*
X187189673Y-79238179D01*
X187066764Y-79075421D01*
X187066762Y-79075418D01*
X186916041Y-78938019D01*
X186916039Y-78938017D01*
X186742642Y-78830655D01*
X186742635Y-78830651D01*
X186647546Y-78793814D01*
X186552456Y-78756976D01*
X186351976Y-78719500D01*
X186148024Y-78719500D01*
X185947544Y-78756976D01*
X185947541Y-78756976D01*
X185947541Y-78756977D01*
X185757364Y-78830651D01*
X185757357Y-78830655D01*
X185583960Y-78938017D01*
X185583958Y-78938019D01*
X185433237Y-79075418D01*
X185310327Y-79238178D01*
X185219422Y-79420739D01*
X185219417Y-79420752D01*
X185163602Y-79616917D01*
X185144785Y-79819999D01*
X115511494Y-79819999D01*
X115510369Y-77279999D01*
X185144785Y-77279999D01*
X185144785Y-77280000D01*
X185163602Y-77483082D01*
X185219417Y-77679247D01*
X185219422Y-77679260D01*
X185310327Y-77861821D01*
X185433237Y-78024581D01*
X185583958Y-78161980D01*
X185583960Y-78161982D01*
X185683141Y-78223392D01*
X185757363Y-78269348D01*
X185947544Y-78343024D01*
X186148024Y-78380500D01*
X186148026Y-78380500D01*
X186351974Y-78380500D01*
X186351976Y-78380500D01*
X186552456Y-78343024D01*
X186742637Y-78269348D01*
X186916041Y-78161981D01*
X187066764Y-78024579D01*
X187189673Y-77861821D01*
X187280582Y-77679250D01*
X187336397Y-77483083D01*
X187355215Y-77280000D01*
X187336397Y-77076917D01*
X187280582Y-76880750D01*
X187189673Y-76698179D01*
X187066764Y-76535421D01*
X187066762Y-76535418D01*
X186916041Y-76398019D01*
X186916039Y-76398017D01*
X186742642Y-76290655D01*
X186742635Y-76290651D01*
X186647546Y-76253814D01*
X186552456Y-76216976D01*
X186351976Y-76179500D01*
X186148024Y-76179500D01*
X185947544Y-76216976D01*
X185947541Y-76216976D01*
X185947541Y-76216977D01*
X185757364Y-76290651D01*
X185757357Y-76290655D01*
X185583960Y-76398017D01*
X185583958Y-76398019D01*
X185433237Y-76535418D01*
X185310327Y-76698178D01*
X185219422Y-76880739D01*
X185219417Y-76880752D01*
X185163602Y-77076917D01*
X185144785Y-77279999D01*
X115510369Y-77279999D01*
X115508530Y-73128711D01*
X129399500Y-73128711D01*
X129399500Y-73371288D01*
X129431161Y-73611785D01*
X129493947Y-73846104D01*
X129586773Y-74070205D01*
X129586776Y-74070212D01*
X129708064Y-74280289D01*
X129708066Y-74280292D01*
X129708067Y-74280293D01*
X129855733Y-74472736D01*
X129855739Y-74472743D01*
X130027256Y-74644260D01*
X130027262Y-74644265D01*
X130219711Y-74791936D01*
X130429788Y-74913224D01*
X130653900Y-75006054D01*
X130888211Y-75068838D01*
X131068586Y-75092584D01*
X131128711Y-75100500D01*
X131128712Y-75100500D01*
X131371289Y-75100500D01*
X131419388Y-75094167D01*
X131611789Y-75068838D01*
X131846100Y-75006054D01*
X132070212Y-74913224D01*
X132280289Y-74791936D01*
X132347975Y-74739999D01*
X185144785Y-74739999D01*
X185144785Y-74740000D01*
X185163602Y-74943082D01*
X185219417Y-75139247D01*
X185219422Y-75139260D01*
X185310327Y-75321821D01*
X185433237Y-75484581D01*
X185583958Y-75621980D01*
X185583960Y-75621982D01*
X185683141Y-75683392D01*
X185757363Y-75729348D01*
X185947544Y-75803024D01*
X186148024Y-75840500D01*
X186148026Y-75840500D01*
X186351974Y-75840500D01*
X186351976Y-75840500D01*
X186552456Y-75803024D01*
X186742637Y-75729348D01*
X186916041Y-75621981D01*
X187066764Y-75484579D01*
X187189673Y-75321821D01*
X187280582Y-75139250D01*
X187336397Y-74943083D01*
X187355215Y-74740000D01*
X187336397Y-74536917D01*
X187280582Y-74340750D01*
X187189673Y-74158179D01*
X187123245Y-74070214D01*
X187066762Y-73995418D01*
X186916041Y-73858019D01*
X186916039Y-73858017D01*
X186742642Y-73750655D01*
X186742635Y-73750651D01*
X186637580Y-73709953D01*
X186552456Y-73676976D01*
X186351976Y-73639500D01*
X186148024Y-73639500D01*
X185947544Y-73676976D01*
X185947541Y-73676976D01*
X185947541Y-73676977D01*
X185757364Y-73750651D01*
X185757357Y-73750655D01*
X185583960Y-73858017D01*
X185583958Y-73858019D01*
X185433237Y-73995418D01*
X185310327Y-74158178D01*
X185219422Y-74340739D01*
X185219417Y-74340752D01*
X185163602Y-74536917D01*
X185144785Y-74739999D01*
X132347975Y-74739999D01*
X132472738Y-74644265D01*
X132644265Y-74472738D01*
X132791936Y-74280289D01*
X132913224Y-74070212D01*
X133006054Y-73846100D01*
X133068838Y-73611789D01*
X133100500Y-73371288D01*
X133100500Y-73128712D01*
X133068838Y-72888211D01*
X133006054Y-72653900D01*
X132913224Y-72429788D01*
X132791936Y-72219711D01*
X132644265Y-72027262D01*
X132644260Y-72027256D01*
X132472743Y-71855739D01*
X132472736Y-71855733D01*
X132280293Y-71708067D01*
X132280292Y-71708066D01*
X132280289Y-71708064D01*
X132070212Y-71586776D01*
X132070205Y-71586773D01*
X131846104Y-71493947D01*
X131611785Y-71431161D01*
X131371289Y-71399500D01*
X131371288Y-71399500D01*
X131128712Y-71399500D01*
X131128711Y-71399500D01*
X130888214Y-71431161D01*
X130653895Y-71493947D01*
X130429794Y-71586773D01*
X130429785Y-71586777D01*
X130219706Y-71708067D01*
X130027263Y-71855733D01*
X130027256Y-71855739D01*
X129855739Y-72027256D01*
X129855733Y-72027263D01*
X129708067Y-72219706D01*
X129586777Y-72429785D01*
X129586773Y-72429794D01*
X129493947Y-72653895D01*
X129431161Y-72888214D01*
X129399500Y-73128711D01*
X115508530Y-73128711D01*
X115500501Y-55002706D01*
X115500619Y-54997262D01*
X115513948Y-54691966D01*
X117749500Y-54691966D01*
X117749500Y-56308028D01*
X117749501Y-56308034D01*
X117760113Y-56427415D01*
X117816089Y-56623045D01*
X117816090Y-56623048D01*
X117816091Y-56623049D01*
X117910302Y-56803407D01*
X117922920Y-56818882D01*
X118038892Y-56961111D01*
X118163860Y-57063008D01*
X118203378Y-57120628D01*
X118209500Y-57159110D01*
X118209500Y-70043422D01*
X118240290Y-70237822D01*
X118240290Y-70237823D01*
X118250931Y-70270572D01*
X118257000Y-70308890D01*
X118257000Y-70969678D01*
X118271532Y-71042735D01*
X118271533Y-71042739D01*
X118271534Y-71042740D01*
X118326899Y-71125601D01*
X118409760Y-71180966D01*
X118409764Y-71180967D01*
X118482821Y-71195499D01*
X118482824Y-71195500D01*
X118482826Y-71195500D01*
X120437176Y-71195500D01*
X120437177Y-71195499D01*
X120510240Y-71180966D01*
X120593101Y-71125601D01*
X120648466Y-71042740D01*
X120663000Y-70969674D01*
X120663000Y-70308890D01*
X120669069Y-70270572D01*
X120669388Y-70269587D01*
X120679709Y-70237826D01*
X120707991Y-70059260D01*
X120710500Y-70043422D01*
X120710500Y-62723439D01*
X120721705Y-62671929D01*
X120735165Y-62642457D01*
X120755647Y-62500000D01*
X120735165Y-62357543D01*
X120735164Y-62357539D01*
X120721706Y-62328071D01*
X120710500Y-62276559D01*
X120710500Y-61973439D01*
X120721705Y-61921929D01*
X120735165Y-61892457D01*
X120755647Y-61750000D01*
X120752998Y-61731577D01*
X120735165Y-61607543D01*
X120735164Y-61607539D01*
X120721706Y-61578071D01*
X120710500Y-61526559D01*
X120710500Y-61223439D01*
X120721705Y-61171929D01*
X120735165Y-61142457D01*
X120755647Y-61000000D01*
X120735165Y-60857543D01*
X120735164Y-60857539D01*
X120721706Y-60828071D01*
X120710500Y-60776559D01*
X120710500Y-57213353D01*
X120730185Y-57146314D01*
X120777088Y-57103445D01*
X120803407Y-57089698D01*
X120961109Y-56961109D01*
X121089698Y-56803407D01*
X121183909Y-56623049D01*
X121239886Y-56427418D01*
X121250500Y-56308037D01*
X121250499Y-55569334D01*
X121270183Y-55502296D01*
X121286813Y-55481659D01*
X122681655Y-54086819D01*
X122742978Y-54053334D01*
X122769336Y-54050500D01*
X123172632Y-54050500D01*
X123239671Y-54070185D01*
X123285426Y-54122989D01*
X123295370Y-54192147D01*
X123266345Y-54255703D01*
X123256973Y-54265399D01*
X123213198Y-54306014D01*
X123049614Y-54511143D01*
X122918432Y-54738356D01*
X122822582Y-54982578D01*
X122822576Y-54982597D01*
X122764197Y-55238374D01*
X122764196Y-55238379D01*
X122744592Y-55499995D01*
X122744592Y-55500004D01*
X122764196Y-55761620D01*
X122764197Y-55761625D01*
X122822576Y-56017402D01*
X122822578Y-56017411D01*
X122822580Y-56017416D01*
X122918432Y-56261643D01*
X123049614Y-56488857D01*
X123213195Y-56693981D01*
X123249841Y-56727983D01*
X123285596Y-56788011D01*
X123289500Y-56818882D01*
X123289500Y-60776559D01*
X123278294Y-60828071D01*
X123264835Y-60857539D01*
X123264834Y-60857543D01*
X123244353Y-61000000D01*
X123264834Y-61142454D01*
X123264834Y-61142455D01*
X123264835Y-61142457D01*
X123278294Y-61171929D01*
X123289500Y-61223439D01*
X123289500Y-61526559D01*
X123278294Y-61578071D01*
X123264835Y-61607539D01*
X123264834Y-61607543D01*
X123244353Y-61749997D01*
X123264834Y-61892454D01*
X123264834Y-61892455D01*
X123264835Y-61892457D01*
X123278294Y-61921929D01*
X123289500Y-61973439D01*
X123289500Y-62276559D01*
X123278294Y-62328071D01*
X123264835Y-62357539D01*
X123264834Y-62357543D01*
X123244353Y-62500000D01*
X123264834Y-62642454D01*
X123264834Y-62642455D01*
X123264835Y-62642457D01*
X123278294Y-62671929D01*
X123289500Y-62723439D01*
X123289500Y-70043422D01*
X123320290Y-70237826D01*
X123381117Y-70425029D01*
X123454371Y-70568797D01*
X123470476Y-70600405D01*
X123586172Y-70759646D01*
X123725354Y-70898828D01*
X123884595Y-71014524D01*
X123967455Y-71056743D01*
X124059970Y-71103882D01*
X124059972Y-71103882D01*
X124059975Y-71103884D01*
X124126810Y-71125600D01*
X124247173Y-71164709D01*
X124441578Y-71195500D01*
X124441583Y-71195500D01*
X124638422Y-71195500D01*
X124832826Y-71164709D01*
X125020025Y-71103884D01*
X125195405Y-71014524D01*
X125354646Y-70898828D01*
X125493828Y-70759646D01*
X125609524Y-70600405D01*
X125698884Y-70425025D01*
X125759709Y-70237826D01*
X125769996Y-70172876D01*
X125790500Y-70043422D01*
X125790500Y-58858336D01*
X125810185Y-58791297D01*
X125862989Y-58745542D01*
X125932147Y-58735598D01*
X125995703Y-58764623D01*
X126002181Y-58770655D01*
X139480766Y-72249240D01*
X139640007Y-72364936D01*
X139714873Y-72403082D01*
X139815381Y-72454294D01*
X139815383Y-72454294D01*
X139815386Y-72454296D01*
X139915730Y-72486899D01*
X140002585Y-72515121D01*
X140196990Y-72545912D01*
X140508954Y-72545912D01*
X140575993Y-72565597D01*
X140621748Y-72618401D01*
X140631692Y-72687559D01*
X140602667Y-72751115D01*
X140547972Y-72786264D01*
X140548017Y-72786361D01*
X140547345Y-72786667D01*
X140543889Y-72788889D01*
X140539949Y-72790045D01*
X140418873Y-72867856D01*
X140324623Y-72976626D01*
X140324622Y-72976628D01*
X140264834Y-73107543D01*
X140244353Y-73250000D01*
X140264834Y-73392456D01*
X140324622Y-73523371D01*
X140324623Y-73523373D01*
X140418872Y-73632143D01*
X140539947Y-73709953D01*
X140539950Y-73709954D01*
X140539949Y-73709954D01*
X140678036Y-73750499D01*
X140678038Y-73750500D01*
X140678039Y-73750500D01*
X140821962Y-73750500D01*
X140821962Y-73750499D01*
X140960053Y-73709953D01*
X141057960Y-73647031D01*
X141125000Y-73627347D01*
X141192039Y-73647032D01*
X141192040Y-73647032D01*
X141289947Y-73709953D01*
X141289948Y-73709953D01*
X141289949Y-73709954D01*
X141428036Y-73750499D01*
X141428038Y-73750500D01*
X141428039Y-73750500D01*
X141571962Y-73750500D01*
X141571962Y-73750499D01*
X141710053Y-73709953D01*
X141831128Y-73632143D01*
X141925377Y-73523373D01*
X141985165Y-73392457D01*
X142005647Y-73250000D01*
X141985165Y-73107543D01*
X141925377Y-72976627D01*
X141831128Y-72867857D01*
X141710053Y-72790047D01*
X141710050Y-72790045D01*
X141706111Y-72788889D01*
X141702654Y-72786667D01*
X141701983Y-72786361D01*
X141702027Y-72786264D01*
X141647333Y-72751114D01*
X141618308Y-72687559D01*
X141628252Y-72618400D01*
X141674007Y-72565596D01*
X141741046Y-72545912D01*
X147921819Y-72545912D01*
X148116223Y-72515121D01*
X148303423Y-72454296D01*
X148478802Y-72364936D01*
X148531049Y-72326975D01*
X148593216Y-72281810D01*
X148659022Y-72258330D01*
X148666101Y-72258128D01*
X149116624Y-72258128D01*
X149311028Y-72227337D01*
X149334514Y-72219706D01*
X149395166Y-72199999D01*
X185144785Y-72199999D01*
X185144785Y-72200000D01*
X185163602Y-72403082D01*
X185219417Y-72599247D01*
X185219422Y-72599260D01*
X185310327Y-72781821D01*
X185433237Y-72944581D01*
X185583958Y-73081980D01*
X185583960Y-73081982D01*
X185625243Y-73107543D01*
X185757363Y-73189348D01*
X185947544Y-73263024D01*
X186148024Y-73300500D01*
X186148026Y-73300500D01*
X186351974Y-73300500D01*
X186351976Y-73300500D01*
X186552456Y-73263024D01*
X186742637Y-73189348D01*
X186916041Y-73081981D01*
X187066764Y-72944579D01*
X187189673Y-72781821D01*
X187280582Y-72599250D01*
X187336397Y-72403083D01*
X187355215Y-72200000D01*
X187336397Y-71996917D01*
X187280582Y-71800750D01*
X187189673Y-71618179D01*
X187130704Y-71540091D01*
X187066762Y-71455418D01*
X186916041Y-71318019D01*
X186916039Y-71318017D01*
X186742642Y-71210655D01*
X186742635Y-71210651D01*
X186647546Y-71173814D01*
X186552456Y-71136976D01*
X186351976Y-71099500D01*
X186148024Y-71099500D01*
X185947544Y-71136976D01*
X185947541Y-71136976D01*
X185947541Y-71136977D01*
X185757364Y-71210651D01*
X185757357Y-71210655D01*
X185583960Y-71318017D01*
X185583958Y-71318019D01*
X185433237Y-71455418D01*
X185310327Y-71618178D01*
X185219422Y-71800739D01*
X185219417Y-71800752D01*
X185163602Y-71996917D01*
X185144785Y-72199999D01*
X149395166Y-72199999D01*
X149498228Y-72166512D01*
X149673607Y-72077152D01*
X149832848Y-71961456D01*
X152078828Y-69715476D01*
X152194524Y-69556235D01*
X152234648Y-69477487D01*
X152283884Y-69380855D01*
X152340156Y-69207669D01*
X152340156Y-69207668D01*
X152340157Y-69207668D01*
X152340157Y-69207664D01*
X152344709Y-69193657D01*
X152364260Y-69070214D01*
X152375500Y-68999252D01*
X152375500Y-68376029D01*
X152395185Y-68308990D01*
X152447989Y-68263235D01*
X152517147Y-68253291D01*
X152580703Y-68282316D01*
X152593217Y-68294831D01*
X152603497Y-68306696D01*
X152629554Y-68355797D01*
X152633705Y-68371288D01*
X152636805Y-68382856D01*
X152650090Y-68432438D01*
X152685515Y-68493797D01*
X152685516Y-68493798D01*
X152685515Y-68493798D01*
X152699522Y-68518057D01*
X152699528Y-68518066D01*
X153488404Y-69306941D01*
X153521889Y-69368264D01*
X153524352Y-69398806D01*
X153524500Y-69398806D01*
X153524500Y-69400639D01*
X153524547Y-69401222D01*
X153524500Y-69402103D01*
X153524500Y-70172870D01*
X153524501Y-70172876D01*
X153530908Y-70232483D01*
X153581202Y-70367328D01*
X153581206Y-70367335D01*
X153667452Y-70482544D01*
X153667455Y-70482547D01*
X153782664Y-70568793D01*
X153782671Y-70568797D01*
X153917517Y-70619091D01*
X153917516Y-70619091D01*
X153924444Y-70619835D01*
X153977127Y-70625500D01*
X155022872Y-70625499D01*
X155082483Y-70619091D01*
X155217331Y-70568796D01*
X155332546Y-70482546D01*
X155418796Y-70367331D01*
X155469091Y-70232483D01*
X155475500Y-70172873D01*
X155475499Y-69659999D01*
X185144785Y-69659999D01*
X185144785Y-69660000D01*
X185163602Y-69863082D01*
X185219417Y-70059247D01*
X185219422Y-70059260D01*
X185310327Y-70241821D01*
X185433237Y-70404581D01*
X185583958Y-70541980D01*
X185583960Y-70541982D01*
X185627268Y-70568797D01*
X185757363Y-70649348D01*
X185947544Y-70723024D01*
X186148024Y-70760500D01*
X186148026Y-70760500D01*
X186351974Y-70760500D01*
X186351976Y-70760500D01*
X186552456Y-70723024D01*
X186742637Y-70649348D01*
X186916041Y-70541981D01*
X187066764Y-70404579D01*
X187189673Y-70241821D01*
X187280582Y-70059250D01*
X187336397Y-69863083D01*
X187355215Y-69660000D01*
X187336397Y-69456917D01*
X187280582Y-69260750D01*
X187271473Y-69242457D01*
X187196783Y-69092458D01*
X187189673Y-69078179D01*
X187066764Y-68915421D01*
X187066762Y-68915418D01*
X186916041Y-68778019D01*
X186916039Y-68778017D01*
X186742642Y-68670655D01*
X186742635Y-68670651D01*
X186629054Y-68626650D01*
X186552456Y-68596976D01*
X186351976Y-68559500D01*
X186148024Y-68559500D01*
X185947544Y-68596976D01*
X185947541Y-68596976D01*
X185947541Y-68596977D01*
X185757364Y-68670651D01*
X185757357Y-68670655D01*
X185583960Y-68778017D01*
X185583958Y-68778019D01*
X185433237Y-68915418D01*
X185310327Y-69078178D01*
X185219422Y-69260739D01*
X185219417Y-69260752D01*
X185163602Y-69456917D01*
X185144785Y-69659999D01*
X155475499Y-69659999D01*
X155475499Y-69402128D01*
X155469091Y-69342517D01*
X155462057Y-69323659D01*
X155418797Y-69207671D01*
X155418793Y-69207664D01*
X155332547Y-69092455D01*
X155332544Y-69092452D01*
X155217335Y-69006206D01*
X155217328Y-69006202D01*
X155082482Y-68955908D01*
X155082483Y-68955908D01*
X155022883Y-68949501D01*
X155022881Y-68949500D01*
X155022873Y-68949500D01*
X155022865Y-68949500D01*
X154244399Y-68949500D01*
X154177360Y-68929815D01*
X154156718Y-68913181D01*
X154005717Y-68762180D01*
X153972232Y-68700857D01*
X153977216Y-68631165D01*
X154019088Y-68575232D01*
X154084552Y-68550815D01*
X154093373Y-68550499D01*
X155022872Y-68550499D01*
X155082483Y-68544091D01*
X155217331Y-68493796D01*
X155332546Y-68407546D01*
X155418796Y-68292331D01*
X155469091Y-68157483D01*
X155475500Y-68097873D01*
X155475499Y-67611891D01*
X155495183Y-67544854D01*
X155547987Y-67499099D01*
X155617146Y-67489155D01*
X155672386Y-67511576D01*
X155683325Y-67519524D01*
X155764455Y-67560862D01*
X155858700Y-67608882D01*
X155858702Y-67608882D01*
X155858705Y-67608884D01*
X155959047Y-67641487D01*
X156045903Y-67669709D01*
X156240308Y-67700500D01*
X156240313Y-67700500D01*
X176120962Y-67700500D01*
X176315366Y-67669709D01*
X176364036Y-67653895D01*
X176502566Y-67608884D01*
X176677945Y-67519524D01*
X176837186Y-67403828D01*
X177995693Y-66245321D01*
X185149500Y-66245321D01*
X185149500Y-67994678D01*
X185164032Y-68067735D01*
X185164033Y-68067739D01*
X185182405Y-68095235D01*
X185219399Y-68150601D01*
X185302260Y-68205966D01*
X185302264Y-68205967D01*
X185375321Y-68220499D01*
X185375324Y-68220500D01*
X185375326Y-68220500D01*
X187124676Y-68220500D01*
X187124677Y-68220499D01*
X187197740Y-68205966D01*
X187280601Y-68150601D01*
X187295227Y-68128711D01*
X193899500Y-68128711D01*
X193899500Y-68371287D01*
X193931161Y-68611785D01*
X193993947Y-68846104D01*
X194066185Y-69020502D01*
X194086776Y-69070212D01*
X194208064Y-69280289D01*
X194208066Y-69280292D01*
X194208067Y-69280293D01*
X194355733Y-69472736D01*
X194355739Y-69472743D01*
X194527256Y-69644260D01*
X194527263Y-69644266D01*
X194620066Y-69715476D01*
X194719711Y-69791936D01*
X194929788Y-69913224D01*
X195153900Y-70006054D01*
X195388211Y-70068838D01*
X195568586Y-70092584D01*
X195628711Y-70100500D01*
X195628712Y-70100500D01*
X195871289Y-70100500D01*
X195919388Y-70094167D01*
X196111789Y-70068838D01*
X196346100Y-70006054D01*
X196570212Y-69913224D01*
X196780289Y-69791936D01*
X196972738Y-69644265D01*
X197144265Y-69472738D01*
X197291936Y-69280289D01*
X197413224Y-69070212D01*
X197506054Y-68846100D01*
X197568838Y-68611789D01*
X197600500Y-68371288D01*
X197600500Y-68128712D01*
X197599233Y-68119091D01*
X197568838Y-67888214D01*
X197568838Y-67888211D01*
X197506054Y-67653900D01*
X197413224Y-67429788D01*
X197291936Y-67219711D01*
X197144265Y-67027262D01*
X197144260Y-67027256D01*
X196972743Y-66855739D01*
X196972736Y-66855733D01*
X196780293Y-66708067D01*
X196780292Y-66708066D01*
X196780289Y-66708064D01*
X196608661Y-66608974D01*
X196570214Y-66586777D01*
X196570205Y-66586773D01*
X196346104Y-66493947D01*
X196204145Y-66455909D01*
X196111789Y-66431162D01*
X196111788Y-66431161D01*
X196111785Y-66431161D01*
X195871289Y-66399500D01*
X195871288Y-66399500D01*
X195628712Y-66399500D01*
X195628711Y-66399500D01*
X195388214Y-66431161D01*
X195153895Y-66493947D01*
X194929794Y-66586773D01*
X194929785Y-66586777D01*
X194719706Y-66708067D01*
X194527263Y-66855733D01*
X194527256Y-66855739D01*
X194355739Y-67027256D01*
X194355733Y-67027263D01*
X194208067Y-67219706D01*
X194086777Y-67429785D01*
X194086773Y-67429794D01*
X193993947Y-67653895D01*
X193931161Y-67888214D01*
X193899500Y-68128711D01*
X187295227Y-68128711D01*
X187335966Y-68067740D01*
X187350500Y-67994674D01*
X187350500Y-66245326D01*
X187350500Y-66245323D01*
X187350499Y-66245321D01*
X187335967Y-66172264D01*
X187335966Y-66172260D01*
X187335960Y-66172251D01*
X187280601Y-66089399D01*
X187212792Y-66044091D01*
X187197739Y-66034033D01*
X187197735Y-66034032D01*
X187124677Y-66019500D01*
X187124674Y-66019500D01*
X185375326Y-66019500D01*
X185375323Y-66019500D01*
X185302264Y-66034032D01*
X185302260Y-66034033D01*
X185219399Y-66089399D01*
X185164033Y-66172260D01*
X185164032Y-66172264D01*
X185149500Y-66245321D01*
X177995693Y-66245321D01*
X181124195Y-63116819D01*
X181185518Y-63083334D01*
X181211876Y-63080500D01*
X197598422Y-63080500D01*
X197792826Y-63049709D01*
X197980025Y-62988884D01*
X198068087Y-62944014D01*
X198124380Y-62930500D01*
X198374676Y-62930500D01*
X198374677Y-62930499D01*
X198447740Y-62915966D01*
X198530601Y-62860601D01*
X198585966Y-62777740D01*
X198600500Y-62704674D01*
X198600500Y-62454380D01*
X198614015Y-62398085D01*
X198658882Y-62310029D01*
X198658882Y-62310028D01*
X198658884Y-62310025D01*
X198719709Y-62122826D01*
X198731606Y-62047710D01*
X198750500Y-61928422D01*
X198750500Y-61731577D01*
X198719709Y-61537173D01*
X198658882Y-61349970D01*
X198614015Y-61261914D01*
X198600500Y-61205619D01*
X198600500Y-60955323D01*
X198600499Y-60955321D01*
X198585967Y-60882264D01*
X198585966Y-60882260D01*
X198565000Y-60850882D01*
X198530601Y-60799399D01*
X198455921Y-60749500D01*
X198447739Y-60744033D01*
X198447735Y-60744032D01*
X198374677Y-60729500D01*
X198374674Y-60729500D01*
X198124380Y-60729500D01*
X198068087Y-60715985D01*
X197980025Y-60671116D01*
X197980023Y-60671115D01*
X197978786Y-60670485D01*
X197927990Y-60622511D01*
X197911195Y-60554690D01*
X197933732Y-60488555D01*
X197978787Y-60449515D01*
X198155403Y-60359525D01*
X198155402Y-60359525D01*
X198155405Y-60359524D01*
X198314646Y-60243828D01*
X198453828Y-60104646D01*
X198569524Y-59945405D01*
X198658884Y-59770025D01*
X198719709Y-59582826D01*
X198739170Y-59459953D01*
X198750500Y-59388422D01*
X198750500Y-59191577D01*
X198719709Y-58997173D01*
X198675702Y-58861736D01*
X198658884Y-58809975D01*
X198658882Y-58809972D01*
X198658882Y-58809970D01*
X198611743Y-58717455D01*
X198569524Y-58634595D01*
X198453828Y-58475354D01*
X198314646Y-58336172D01*
X198225683Y-58271536D01*
X198155403Y-58220474D01*
X197978787Y-58130485D01*
X197927990Y-58082511D01*
X197911195Y-58014690D01*
X197933732Y-57948555D01*
X197978787Y-57909515D01*
X198155403Y-57819525D01*
X198155402Y-57819525D01*
X198155405Y-57819524D01*
X198314646Y-57703828D01*
X198453828Y-57564646D01*
X198569524Y-57405405D01*
X198658884Y-57230025D01*
X198719709Y-57042826D01*
X198731344Y-56969365D01*
X198750500Y-56848422D01*
X198750500Y-56651577D01*
X198719709Y-56457173D01*
X198666319Y-56292857D01*
X198658884Y-56269975D01*
X198658882Y-56269972D01*
X198658882Y-56269970D01*
X198588431Y-56131703D01*
X198569524Y-56094595D01*
X198453828Y-55935354D01*
X198314646Y-55796172D01*
X198155405Y-55680476D01*
X198136228Y-55670705D01*
X197980029Y-55591117D01*
X197792826Y-55530290D01*
X197598422Y-55499500D01*
X197598417Y-55499500D01*
X179401583Y-55499500D01*
X179401578Y-55499500D01*
X179207173Y-55530290D01*
X179019970Y-55591117D01*
X178844594Y-55680476D01*
X178753742Y-55746484D01*
X178685355Y-55796171D01*
X178685353Y-55796173D01*
X178685352Y-55796173D01*
X173768345Y-60713181D01*
X173707022Y-60746666D01*
X173680664Y-60749500D01*
X157942325Y-60749500D01*
X157922927Y-60747973D01*
X157914675Y-60746666D01*
X157901000Y-60744500D01*
X154643109Y-60744500D01*
X154639305Y-60744553D01*
X154635817Y-60744603D01*
X154630225Y-60744762D01*
X154630214Y-60744764D01*
X154544849Y-60762043D01*
X154544846Y-60762044D01*
X154487828Y-60784226D01*
X154487824Y-60784228D01*
X154434792Y-60812436D01*
X154365558Y-60884152D01*
X154365554Y-60884157D01*
X154332463Y-60935619D01*
X154332458Y-60935627D01*
X154324207Y-60952553D01*
X154277135Y-61004186D01*
X154222618Y-61019449D01*
X154222834Y-61020953D01*
X154217133Y-61021772D01*
X154215277Y-61021504D01*
X154212748Y-61022213D01*
X154205201Y-61022213D01*
X154205201Y-61020054D01*
X154147975Y-61011820D01*
X154095177Y-60966059D01*
X154075500Y-60899032D01*
X154075500Y-57465287D01*
X154048043Y-57291936D01*
X154044709Y-57270884D01*
X154038643Y-57252216D01*
X154016449Y-57183909D01*
X153983884Y-57083685D01*
X153983882Y-57083682D01*
X153983882Y-57083680D01*
X153936153Y-56990007D01*
X153894524Y-56908305D01*
X153778828Y-56749064D01*
X153639646Y-56609882D01*
X152658475Y-55628711D01*
X165149500Y-55628711D01*
X165149500Y-55871288D01*
X165181161Y-56111785D01*
X165243947Y-56346104D01*
X165321173Y-56532543D01*
X165336776Y-56570212D01*
X165458064Y-56780289D01*
X165458066Y-56780292D01*
X165458067Y-56780293D01*
X165605733Y-56972736D01*
X165605739Y-56972743D01*
X165777256Y-57144260D01*
X165777262Y-57144265D01*
X165969711Y-57291936D01*
X166179788Y-57413224D01*
X166403900Y-57506054D01*
X166638211Y-57568838D01*
X166818586Y-57592584D01*
X166878711Y-57600500D01*
X166878712Y-57600500D01*
X167121289Y-57600500D01*
X167169388Y-57594167D01*
X167361789Y-57568838D01*
X167596100Y-57506054D01*
X167820212Y-57413224D01*
X168030289Y-57291936D01*
X168222738Y-57144265D01*
X168394265Y-56972738D01*
X168541936Y-56780289D01*
X168663224Y-56570212D01*
X168756054Y-56346100D01*
X168818838Y-56111789D01*
X168850500Y-55871288D01*
X168850500Y-55628712D01*
X168845550Y-55591116D01*
X168837543Y-55530290D01*
X168818838Y-55388211D01*
X168756054Y-55153900D01*
X168663224Y-54929788D01*
X168541936Y-54719711D01*
X168394265Y-54527262D01*
X168394260Y-54527256D01*
X168222743Y-54355739D01*
X168222736Y-54355733D01*
X168030293Y-54208067D01*
X168030292Y-54208066D01*
X168030289Y-54208064D01*
X167858661Y-54108974D01*
X167820214Y-54086777D01*
X167820205Y-54086773D01*
X167596104Y-53993947D01*
X167361785Y-53931161D01*
X167121289Y-53899500D01*
X167121288Y-53899500D01*
X166878712Y-53899500D01*
X166878711Y-53899500D01*
X166638214Y-53931161D01*
X166403895Y-53993947D01*
X166179794Y-54086773D01*
X166179785Y-54086777D01*
X165997851Y-54191817D01*
X165974376Y-54205371D01*
X165969706Y-54208067D01*
X165777263Y-54355733D01*
X165777256Y-54355739D01*
X165605739Y-54527256D01*
X165605733Y-54527263D01*
X165458067Y-54719706D01*
X165336777Y-54929785D01*
X165336773Y-54929794D01*
X165243947Y-55153895D01*
X165181161Y-55388214D01*
X165149500Y-55628711D01*
X152658475Y-55628711D01*
X148875936Y-51846172D01*
X148716695Y-51730476D01*
X148541320Y-51641117D01*
X148354116Y-51580290D01*
X148159712Y-51549500D01*
X148159707Y-51549500D01*
X122101583Y-51549500D01*
X122101578Y-51549500D01*
X121907173Y-51580290D01*
X121719969Y-51641117D01*
X121544594Y-51730476D01*
X121453742Y-51796484D01*
X121385355Y-51846171D01*
X121385353Y-51846173D01*
X121385352Y-51846173D01*
X119518343Y-53713181D01*
X119457020Y-53746666D01*
X119430662Y-53749500D01*
X118691971Y-53749500D01*
X118691965Y-53749500D01*
X118691964Y-53749501D01*
X118680316Y-53750536D01*
X118572584Y-53760113D01*
X118376954Y-53816089D01*
X118286772Y-53863196D01*
X118196593Y-53910302D01*
X118196591Y-53910303D01*
X118196590Y-53910304D01*
X118038890Y-54038890D01*
X117913927Y-54192147D01*
X117910302Y-54196593D01*
X117901529Y-54213389D01*
X117816089Y-54376954D01*
X117760114Y-54572583D01*
X117760113Y-54572586D01*
X117749500Y-54691966D01*
X115513948Y-54691966D01*
X115517386Y-54613227D01*
X115518326Y-54602495D01*
X115568152Y-54224025D01*
X115570025Y-54213405D01*
X115652649Y-53840709D01*
X115655440Y-53830295D01*
X115770230Y-53466227D01*
X115773917Y-53456095D01*
X115920003Y-53103412D01*
X115924561Y-53093638D01*
X116100822Y-52755045D01*
X116106217Y-52745700D01*
X116311325Y-52423744D01*
X116317515Y-52414905D01*
X116549896Y-52112060D01*
X116556834Y-52103791D01*
X116814726Y-51822352D01*
X116822352Y-51814726D01*
X117103791Y-51556834D01*
X117112060Y-51549896D01*
X117414905Y-51317515D01*
X117423744Y-51311325D01*
X117745700Y-51106217D01*
X117755045Y-51100822D01*
X118093638Y-50924561D01*
X118103412Y-50920003D01*
X118456095Y-50773917D01*
X118466227Y-50770230D01*
X118830295Y-50655440D01*
X118840709Y-50652649D01*
X119213405Y-50570025D01*
X119224025Y-50568152D01*
X119602495Y-50518326D01*
X119613226Y-50517386D01*
X119997297Y-50500617D01*
X120002706Y-50500500D01*
X120065892Y-50500500D01*
X194934108Y-50500500D01*
X194997294Y-50500500D01*
X195002702Y-50500617D01*
G37*
%TD.AperFunction*%
%TD*%
%TA.AperFunction,Conductor*%
%TO.N,/OUTA*%
G36*
X157959191Y-65518907D02*
G01*
X157995155Y-65568407D01*
X158000000Y-65599000D01*
X158000000Y-66901000D01*
X157981093Y-66959191D01*
X157931593Y-66995155D01*
X157901000Y-67000000D01*
X155258117Y-67000000D01*
X155199926Y-66981093D01*
X155199328Y-66980654D01*
X155187883Y-66972207D01*
X155059703Y-66927355D01*
X155059694Y-66927353D01*
X155029274Y-66924500D01*
X155029266Y-66924500D01*
X153970734Y-66924500D01*
X153970725Y-66924500D01*
X153940305Y-66927353D01*
X153940296Y-66927355D01*
X153812116Y-66972207D01*
X153812115Y-66972207D01*
X153800672Y-66980654D01*
X153742625Y-66999997D01*
X153741883Y-67000000D01*
X153538834Y-67000000D01*
X153480643Y-66981093D01*
X153468836Y-66971009D01*
X153449862Y-66952035D01*
X153449859Y-66952033D01*
X153449857Y-66952031D01*
X153375642Y-66909183D01*
X153375644Y-66909183D01*
X153343521Y-66900576D01*
X153292853Y-66887000D01*
X153292851Y-66887000D01*
X152349000Y-66887000D01*
X152290809Y-66868093D01*
X152254845Y-66818593D01*
X152250000Y-66788000D01*
X152250000Y-65599000D01*
X152268907Y-65540809D01*
X152318407Y-65504845D01*
X152349000Y-65500000D01*
X157901000Y-65500000D01*
X157959191Y-65518907D01*
G37*
%TD.AperFunction*%
%TD*%
%TA.AperFunction,Conductor*%
%TO.N,/OUTB*%
G36*
X158709191Y-63268907D02*
G01*
X158745155Y-63318407D01*
X158750000Y-63349000D01*
X158750000Y-65150500D01*
X158731093Y-65208691D01*
X158681593Y-65244655D01*
X158651000Y-65249500D01*
X156244246Y-65249500D01*
X156057614Y-65279059D01*
X156025003Y-65289655D01*
X155994411Y-65294500D01*
X152349000Y-65294500D01*
X152290809Y-65275593D01*
X152254845Y-65226093D01*
X152250000Y-65195500D01*
X152250000Y-64877503D01*
X152268907Y-64819312D01*
X152278996Y-64807499D01*
X152793915Y-64292580D01*
X152848432Y-64264803D01*
X152863919Y-64263584D01*
X153354767Y-64263584D01*
X153354769Y-64263584D01*
X153437555Y-64241402D01*
X153437557Y-64241400D01*
X153437559Y-64241400D01*
X153511773Y-64198552D01*
X153511773Y-64198551D01*
X153511778Y-64198549D01*
X153783103Y-63927222D01*
X153837618Y-63899446D01*
X153898050Y-63909017D01*
X153903882Y-63912241D01*
X153927808Y-63926536D01*
X153985999Y-63945443D01*
X153998053Y-63947352D01*
X154049497Y-63955500D01*
X154049501Y-63955500D01*
X155400993Y-63955500D01*
X155401000Y-63955500D01*
X155433144Y-63952970D01*
X155463737Y-63948125D01*
X155463748Y-63948123D01*
X155463793Y-63948116D01*
X155468281Y-63947353D01*
X155468280Y-63947353D01*
X155468287Y-63947352D01*
X155552383Y-63911408D01*
X155601883Y-63875444D01*
X155629628Y-63851203D01*
X155676536Y-63772693D01*
X155695443Y-63714502D01*
X155705500Y-63651000D01*
X155705500Y-63368488D01*
X155724407Y-63310297D01*
X155773907Y-63274333D01*
X155804500Y-63269488D01*
X155955559Y-63269488D01*
X156070904Y-63251219D01*
X156086391Y-63250000D01*
X158651000Y-63250000D01*
X158709191Y-63268907D01*
G37*
%TD.AperFunction*%
%TD*%
%TA.AperFunction,Conductor*%
%TO.N,/OUTC*%
G36*
X153245445Y-62706599D02*
G01*
X153288710Y-62749864D01*
X153299500Y-62794809D01*
X153299500Y-63449165D01*
X153280593Y-63507356D01*
X153270504Y-63519169D01*
X153206085Y-63583588D01*
X153151568Y-63611365D01*
X153136081Y-63612584D01*
X152645231Y-63612584D01*
X152603838Y-63623675D01*
X152562444Y-63634766D01*
X152519226Y-63659717D01*
X152519227Y-63659718D01*
X152488220Y-63677619D01*
X152444836Y-63721004D01*
X152390319Y-63748781D01*
X152374833Y-63750000D01*
X152349000Y-63750000D01*
X152290809Y-63731093D01*
X152254845Y-63681593D01*
X152250000Y-63651000D01*
X152250000Y-63646309D01*
X152268907Y-63588118D01*
X152278996Y-63576305D01*
X153130496Y-62724805D01*
X153185013Y-62697028D01*
X153245445Y-62706599D01*
G37*
%TD.AperFunction*%
%TA.AperFunction,Conductor*%
G36*
X157959191Y-61018907D02*
G01*
X157995155Y-61068407D01*
X158000000Y-61099000D01*
X158000000Y-62901000D01*
X157981093Y-62959191D01*
X157931593Y-62995155D01*
X157901000Y-63000000D01*
X155500000Y-63000000D01*
X155500000Y-63000001D01*
X155500000Y-63651000D01*
X155481093Y-63709191D01*
X155431593Y-63745155D01*
X155401000Y-63750000D01*
X154049501Y-63750000D01*
X153991310Y-63731093D01*
X153955346Y-63681593D01*
X153950501Y-63651000D01*
X153950501Y-63576085D01*
X153950500Y-63576067D01*
X153950500Y-62582205D01*
X153969407Y-62524014D01*
X153979490Y-62512207D01*
X154546496Y-61945202D01*
X154589349Y-61870979D01*
X154589350Y-61870973D01*
X154591444Y-61865919D01*
X154608086Y-61838973D01*
X154668913Y-61768776D01*
X154722728Y-61650939D01*
X154741164Y-61522713D01*
X154722728Y-61394487D01*
X154668913Y-61276650D01*
X154584080Y-61178746D01*
X154584079Y-61178745D01*
X154584077Y-61178743D01*
X154578730Y-61174110D01*
X154580873Y-61171636D01*
X154550845Y-61134895D01*
X154547368Y-61073808D01*
X154580460Y-61022344D01*
X154637482Y-61000160D01*
X154643109Y-61000000D01*
X157901000Y-61000000D01*
X157959191Y-61018907D01*
G37*
%TD.AperFunction*%
%TD*%
M02*
