%TF.GenerationSoftware,KiCad,Pcbnew,8.0.7*%
%TF.CreationDate,2025-04-02T17:47:29-05:00*%
%TF.ProjectId,FinalBoard,46696e61-6c42-46f6-9172-642e6b696361,rev?*%
%TF.SameCoordinates,Original*%
%TF.FileFunction,Legend,Top*%
%TF.FilePolarity,Positive*%
%FSLAX46Y46*%
G04 Gerber Fmt 4.6, Leading zero omitted, Abs format (unit mm)*
G04 Created by KiCad (PCBNEW 8.0.7) date 2025-04-02 17:47:29*
%MOMM*%
%LPD*%
G01*
G04 APERTURE LIST*
%ADD10C,0.300000*%
%ADD11C,0.150000*%
%ADD12C,0.120000*%
%ADD13C,0.250000*%
G04 APERTURE END LIST*
D10*
X187659773Y-60050828D02*
X187659773Y-58550828D01*
X187659773Y-58550828D02*
X188159773Y-59622257D01*
X188159773Y-59622257D02*
X188659773Y-58550828D01*
X188659773Y-58550828D02*
X188659773Y-60050828D01*
X189659774Y-58550828D02*
X189945488Y-58550828D01*
X189945488Y-58550828D02*
X190088345Y-58622257D01*
X190088345Y-58622257D02*
X190231202Y-58765114D01*
X190231202Y-58765114D02*
X190302631Y-59050828D01*
X190302631Y-59050828D02*
X190302631Y-59550828D01*
X190302631Y-59550828D02*
X190231202Y-59836542D01*
X190231202Y-59836542D02*
X190088345Y-59979400D01*
X190088345Y-59979400D02*
X189945488Y-60050828D01*
X189945488Y-60050828D02*
X189659774Y-60050828D01*
X189659774Y-60050828D02*
X189516917Y-59979400D01*
X189516917Y-59979400D02*
X189374059Y-59836542D01*
X189374059Y-59836542D02*
X189302631Y-59550828D01*
X189302631Y-59550828D02*
X189302631Y-59050828D01*
X189302631Y-59050828D02*
X189374059Y-58765114D01*
X189374059Y-58765114D02*
X189516917Y-58622257D01*
X189516917Y-58622257D02*
X189659774Y-58550828D01*
X190731203Y-58550828D02*
X191588346Y-58550828D01*
X191159774Y-60050828D02*
X191159774Y-58550828D01*
X192374060Y-58550828D02*
X192659774Y-58550828D01*
X192659774Y-58550828D02*
X192802631Y-58622257D01*
X192802631Y-58622257D02*
X192945488Y-58765114D01*
X192945488Y-58765114D02*
X193016917Y-59050828D01*
X193016917Y-59050828D02*
X193016917Y-59550828D01*
X193016917Y-59550828D02*
X192945488Y-59836542D01*
X192945488Y-59836542D02*
X192802631Y-59979400D01*
X192802631Y-59979400D02*
X192659774Y-60050828D01*
X192659774Y-60050828D02*
X192374060Y-60050828D01*
X192374060Y-60050828D02*
X192231203Y-59979400D01*
X192231203Y-59979400D02*
X192088345Y-59836542D01*
X192088345Y-59836542D02*
X192016917Y-59550828D01*
X192016917Y-59550828D02*
X192016917Y-59050828D01*
X192016917Y-59050828D02*
X192088345Y-58765114D01*
X192088345Y-58765114D02*
X192231203Y-58622257D01*
X192231203Y-58622257D02*
X192374060Y-58550828D01*
X194516917Y-60050828D02*
X194016917Y-59336542D01*
X193659774Y-60050828D02*
X193659774Y-58550828D01*
X193659774Y-58550828D02*
X194231203Y-58550828D01*
X194231203Y-58550828D02*
X194374060Y-58622257D01*
X194374060Y-58622257D02*
X194445489Y-58693685D01*
X194445489Y-58693685D02*
X194516917Y-58836542D01*
X194516917Y-58836542D02*
X194516917Y-59050828D01*
X194516917Y-59050828D02*
X194445489Y-59193685D01*
X194445489Y-59193685D02*
X194374060Y-59265114D01*
X194374060Y-59265114D02*
X194231203Y-59336542D01*
X194231203Y-59336542D02*
X193659774Y-59336542D01*
X191659775Y-104800828D02*
X192159775Y-106300828D01*
X192159775Y-106300828D02*
X192659775Y-104800828D01*
X193159774Y-106300828D02*
X193159774Y-104800828D01*
X193159774Y-104800828D02*
X193516917Y-104800828D01*
X193516917Y-104800828D02*
X193731203Y-104872257D01*
X193731203Y-104872257D02*
X193874060Y-105015114D01*
X193874060Y-105015114D02*
X193945489Y-105157971D01*
X193945489Y-105157971D02*
X194016917Y-105443685D01*
X194016917Y-105443685D02*
X194016917Y-105657971D01*
X194016917Y-105657971D02*
X193945489Y-105943685D01*
X193945489Y-105943685D02*
X193874060Y-106086542D01*
X193874060Y-106086542D02*
X193731203Y-106229400D01*
X193731203Y-106229400D02*
X193516917Y-106300828D01*
X193516917Y-106300828D02*
X193159774Y-106300828D01*
X194659774Y-106300828D02*
X194659774Y-104800828D01*
X194659774Y-104800828D02*
X195016917Y-104800828D01*
X195016917Y-104800828D02*
X195231203Y-104872257D01*
X195231203Y-104872257D02*
X195374060Y-105015114D01*
X195374060Y-105015114D02*
X195445489Y-105157971D01*
X195445489Y-105157971D02*
X195516917Y-105443685D01*
X195516917Y-105443685D02*
X195516917Y-105657971D01*
X195516917Y-105657971D02*
X195445489Y-105943685D01*
X195445489Y-105943685D02*
X195374060Y-106086542D01*
X195374060Y-106086542D02*
X195231203Y-106229400D01*
X195231203Y-106229400D02*
X195016917Y-106300828D01*
X195016917Y-106300828D02*
X194659774Y-106300828D01*
X191945489Y-103729400D02*
X192159775Y-103800828D01*
X192159775Y-103800828D02*
X192516917Y-103800828D01*
X192516917Y-103800828D02*
X192659775Y-103729400D01*
X192659775Y-103729400D02*
X192731203Y-103657971D01*
X192731203Y-103657971D02*
X192802632Y-103515114D01*
X192802632Y-103515114D02*
X192802632Y-103372257D01*
X192802632Y-103372257D02*
X192731203Y-103229400D01*
X192731203Y-103229400D02*
X192659775Y-103157971D01*
X192659775Y-103157971D02*
X192516917Y-103086542D01*
X192516917Y-103086542D02*
X192231203Y-103015114D01*
X192231203Y-103015114D02*
X192088346Y-102943685D01*
X192088346Y-102943685D02*
X192016917Y-102872257D01*
X192016917Y-102872257D02*
X191945489Y-102729400D01*
X191945489Y-102729400D02*
X191945489Y-102586542D01*
X191945489Y-102586542D02*
X192016917Y-102443685D01*
X192016917Y-102443685D02*
X192088346Y-102372257D01*
X192088346Y-102372257D02*
X192231203Y-102300828D01*
X192231203Y-102300828D02*
X192588346Y-102300828D01*
X192588346Y-102300828D02*
X192802632Y-102372257D01*
X194302631Y-103657971D02*
X194231203Y-103729400D01*
X194231203Y-103729400D02*
X194016917Y-103800828D01*
X194016917Y-103800828D02*
X193874060Y-103800828D01*
X193874060Y-103800828D02*
X193659774Y-103729400D01*
X193659774Y-103729400D02*
X193516917Y-103586542D01*
X193516917Y-103586542D02*
X193445488Y-103443685D01*
X193445488Y-103443685D02*
X193374060Y-103157971D01*
X193374060Y-103157971D02*
X193374060Y-102943685D01*
X193374060Y-102943685D02*
X193445488Y-102657971D01*
X193445488Y-102657971D02*
X193516917Y-102515114D01*
X193516917Y-102515114D02*
X193659774Y-102372257D01*
X193659774Y-102372257D02*
X193874060Y-102300828D01*
X193874060Y-102300828D02*
X194016917Y-102300828D01*
X194016917Y-102300828D02*
X194231203Y-102372257D01*
X194231203Y-102372257D02*
X194302631Y-102443685D01*
X195659774Y-103800828D02*
X194945488Y-103800828D01*
X194945488Y-103800828D02*
X194945488Y-102300828D01*
X191874061Y-101229400D02*
X192088347Y-101300828D01*
X192088347Y-101300828D02*
X192445489Y-101300828D01*
X192445489Y-101300828D02*
X192588347Y-101229400D01*
X192588347Y-101229400D02*
X192659775Y-101157971D01*
X192659775Y-101157971D02*
X192731204Y-101015114D01*
X192731204Y-101015114D02*
X192731204Y-100872257D01*
X192731204Y-100872257D02*
X192659775Y-100729400D01*
X192659775Y-100729400D02*
X192588347Y-100657971D01*
X192588347Y-100657971D02*
X192445489Y-100586542D01*
X192445489Y-100586542D02*
X192159775Y-100515114D01*
X192159775Y-100515114D02*
X192016918Y-100443685D01*
X192016918Y-100443685D02*
X191945489Y-100372257D01*
X191945489Y-100372257D02*
X191874061Y-100229400D01*
X191874061Y-100229400D02*
X191874061Y-100086542D01*
X191874061Y-100086542D02*
X191945489Y-99943685D01*
X191945489Y-99943685D02*
X192016918Y-99872257D01*
X192016918Y-99872257D02*
X192159775Y-99800828D01*
X192159775Y-99800828D02*
X192516918Y-99800828D01*
X192516918Y-99800828D02*
X192731204Y-99872257D01*
X193374060Y-101300828D02*
X193374060Y-99800828D01*
X193374060Y-99800828D02*
X193731203Y-99800828D01*
X193731203Y-99800828D02*
X193945489Y-99872257D01*
X193945489Y-99872257D02*
X194088346Y-100015114D01*
X194088346Y-100015114D02*
X194159775Y-100157971D01*
X194159775Y-100157971D02*
X194231203Y-100443685D01*
X194231203Y-100443685D02*
X194231203Y-100657971D01*
X194231203Y-100657971D02*
X194159775Y-100943685D01*
X194159775Y-100943685D02*
X194088346Y-101086542D01*
X194088346Y-101086542D02*
X193945489Y-101229400D01*
X193945489Y-101229400D02*
X193731203Y-101300828D01*
X193731203Y-101300828D02*
X193374060Y-101300828D01*
X194802632Y-100872257D02*
X195516918Y-100872257D01*
X194659775Y-101300828D02*
X195159775Y-99800828D01*
X195159775Y-99800828D02*
X195659775Y-101300828D01*
X194302631Y-97300828D02*
X194659774Y-98800828D01*
X194659774Y-98800828D02*
X194945488Y-97729400D01*
X194945488Y-97729400D02*
X195231203Y-98800828D01*
X195231203Y-98800828D02*
X195588346Y-97300828D01*
X194659775Y-95050828D02*
X195159775Y-96550828D01*
X195159775Y-96550828D02*
X195659775Y-95050828D01*
X194588345Y-92300828D02*
X194588345Y-93515114D01*
X194588345Y-93515114D02*
X194659774Y-93657971D01*
X194659774Y-93657971D02*
X194731203Y-93729400D01*
X194731203Y-93729400D02*
X194874060Y-93800828D01*
X194874060Y-93800828D02*
X195159774Y-93800828D01*
X195159774Y-93800828D02*
X195302631Y-93729400D01*
X195302631Y-93729400D02*
X195374060Y-93657971D01*
X195374060Y-93657971D02*
X195445488Y-93515114D01*
X195445488Y-93515114D02*
X195445488Y-92300828D01*
X192374060Y-89622257D02*
X192231203Y-89550828D01*
X192231203Y-89550828D02*
X192016917Y-89550828D01*
X192016917Y-89550828D02*
X191802631Y-89622257D01*
X191802631Y-89622257D02*
X191659774Y-89765114D01*
X191659774Y-89765114D02*
X191588345Y-89907971D01*
X191588345Y-89907971D02*
X191516917Y-90193685D01*
X191516917Y-90193685D02*
X191516917Y-90407971D01*
X191516917Y-90407971D02*
X191588345Y-90693685D01*
X191588345Y-90693685D02*
X191659774Y-90836542D01*
X191659774Y-90836542D02*
X191802631Y-90979400D01*
X191802631Y-90979400D02*
X192016917Y-91050828D01*
X192016917Y-91050828D02*
X192159774Y-91050828D01*
X192159774Y-91050828D02*
X192374060Y-90979400D01*
X192374060Y-90979400D02*
X192445488Y-90907971D01*
X192445488Y-90907971D02*
X192445488Y-90407971D01*
X192445488Y-90407971D02*
X192159774Y-90407971D01*
X193088345Y-91050828D02*
X193088345Y-89550828D01*
X193088345Y-89550828D02*
X193945488Y-91050828D01*
X193945488Y-91050828D02*
X193945488Y-89550828D01*
X194659774Y-91050828D02*
X194659774Y-89550828D01*
X194659774Y-89550828D02*
X195016917Y-89550828D01*
X195016917Y-89550828D02*
X195231203Y-89622257D01*
X195231203Y-89622257D02*
X195374060Y-89765114D01*
X195374060Y-89765114D02*
X195445489Y-89907971D01*
X195445489Y-89907971D02*
X195516917Y-90193685D01*
X195516917Y-90193685D02*
X195516917Y-90407971D01*
X195516917Y-90407971D02*
X195445489Y-90693685D01*
X195445489Y-90693685D02*
X195374060Y-90836542D01*
X195374060Y-90836542D02*
X195231203Y-90979400D01*
X195231203Y-90979400D02*
X195016917Y-91050828D01*
X195016917Y-91050828D02*
X194659774Y-91050828D01*
X191624061Y-87300828D02*
X192552633Y-87300828D01*
X192552633Y-87300828D02*
X192052633Y-87872257D01*
X192052633Y-87872257D02*
X192266918Y-87872257D01*
X192266918Y-87872257D02*
X192409776Y-87943685D01*
X192409776Y-87943685D02*
X192481204Y-88015114D01*
X192481204Y-88015114D02*
X192552633Y-88157971D01*
X192552633Y-88157971D02*
X192552633Y-88515114D01*
X192552633Y-88515114D02*
X192481204Y-88657971D01*
X192481204Y-88657971D02*
X192409776Y-88729400D01*
X192409776Y-88729400D02*
X192266918Y-88800828D01*
X192266918Y-88800828D02*
X191838347Y-88800828D01*
X191838347Y-88800828D02*
X191695490Y-88729400D01*
X191695490Y-88729400D02*
X191624061Y-88657971D01*
X192981204Y-87300828D02*
X193481204Y-88800828D01*
X193481204Y-88800828D02*
X193981204Y-87300828D01*
X194338346Y-87300828D02*
X195266918Y-87300828D01*
X195266918Y-87300828D02*
X194766918Y-87872257D01*
X194766918Y-87872257D02*
X194981203Y-87872257D01*
X194981203Y-87872257D02*
X195124061Y-87943685D01*
X195124061Y-87943685D02*
X195195489Y-88015114D01*
X195195489Y-88015114D02*
X195266918Y-88157971D01*
X195266918Y-88157971D02*
X195266918Y-88515114D01*
X195266918Y-88515114D02*
X195195489Y-88657971D01*
X195195489Y-88657971D02*
X195124061Y-88729400D01*
X195124061Y-88729400D02*
X194981203Y-88800828D01*
X194981203Y-88800828D02*
X194552632Y-88800828D01*
X194552632Y-88800828D02*
X194409775Y-88729400D01*
X194409775Y-88729400D02*
X194338346Y-88657971D01*
X151054510Y-139550828D02*
X151054510Y-138050828D01*
X151054510Y-138050828D02*
X151625939Y-138050828D01*
X151625939Y-138050828D02*
X151768796Y-138122257D01*
X151768796Y-138122257D02*
X151840225Y-138193685D01*
X151840225Y-138193685D02*
X151911653Y-138336542D01*
X151911653Y-138336542D02*
X151911653Y-138550828D01*
X151911653Y-138550828D02*
X151840225Y-138693685D01*
X151840225Y-138693685D02*
X151768796Y-138765114D01*
X151768796Y-138765114D02*
X151625939Y-138836542D01*
X151625939Y-138836542D02*
X151054510Y-138836542D01*
X153054510Y-138765114D02*
X152554510Y-138765114D01*
X152554510Y-139550828D02*
X152554510Y-138050828D01*
X152554510Y-138050828D02*
X153268796Y-138050828D01*
X153768796Y-138193685D02*
X153840224Y-138122257D01*
X153840224Y-138122257D02*
X153983082Y-138050828D01*
X153983082Y-138050828D02*
X154340224Y-138050828D01*
X154340224Y-138050828D02*
X154483082Y-138122257D01*
X154483082Y-138122257D02*
X154554510Y-138193685D01*
X154554510Y-138193685D02*
X154625939Y-138336542D01*
X154625939Y-138336542D02*
X154625939Y-138479400D01*
X154625939Y-138479400D02*
X154554510Y-138693685D01*
X154554510Y-138693685D02*
X153697367Y-139550828D01*
X153697367Y-139550828D02*
X154625939Y-139550828D01*
X142054510Y-139550828D02*
X142054510Y-138050828D01*
X142054510Y-138050828D02*
X142625939Y-138050828D01*
X142625939Y-138050828D02*
X142768796Y-138122257D01*
X142768796Y-138122257D02*
X142840225Y-138193685D01*
X142840225Y-138193685D02*
X142911653Y-138336542D01*
X142911653Y-138336542D02*
X142911653Y-138550828D01*
X142911653Y-138550828D02*
X142840225Y-138693685D01*
X142840225Y-138693685D02*
X142768796Y-138765114D01*
X142768796Y-138765114D02*
X142625939Y-138836542D01*
X142625939Y-138836542D02*
X142054510Y-138836542D01*
X144054510Y-138765114D02*
X143554510Y-138765114D01*
X143554510Y-139550828D02*
X143554510Y-138050828D01*
X143554510Y-138050828D02*
X144268796Y-138050828D01*
X145625939Y-139550828D02*
X144768796Y-139550828D01*
X145197367Y-139550828D02*
X145197367Y-138050828D01*
X145197367Y-138050828D02*
X145054510Y-138265114D01*
X145054510Y-138265114D02*
X144911653Y-138407971D01*
X144911653Y-138407971D02*
X144768796Y-138479400D01*
X132804510Y-139550828D02*
X132804510Y-138050828D01*
X132804510Y-138050828D02*
X133375939Y-138050828D01*
X133375939Y-138050828D02*
X133518796Y-138122257D01*
X133518796Y-138122257D02*
X133590225Y-138193685D01*
X133590225Y-138193685D02*
X133661653Y-138336542D01*
X133661653Y-138336542D02*
X133661653Y-138550828D01*
X133661653Y-138550828D02*
X133590225Y-138693685D01*
X133590225Y-138693685D02*
X133518796Y-138765114D01*
X133518796Y-138765114D02*
X133375939Y-138836542D01*
X133375939Y-138836542D02*
X132804510Y-138836542D01*
X134804510Y-138765114D02*
X134304510Y-138765114D01*
X134304510Y-139550828D02*
X134304510Y-138050828D01*
X134304510Y-138050828D02*
X135018796Y-138050828D01*
X135875939Y-138050828D02*
X136018796Y-138050828D01*
X136018796Y-138050828D02*
X136161653Y-138122257D01*
X136161653Y-138122257D02*
X136233082Y-138193685D01*
X136233082Y-138193685D02*
X136304510Y-138336542D01*
X136304510Y-138336542D02*
X136375939Y-138622257D01*
X136375939Y-138622257D02*
X136375939Y-138979400D01*
X136375939Y-138979400D02*
X136304510Y-139265114D01*
X136304510Y-139265114D02*
X136233082Y-139407971D01*
X136233082Y-139407971D02*
X136161653Y-139479400D01*
X136161653Y-139479400D02*
X136018796Y-139550828D01*
X136018796Y-139550828D02*
X135875939Y-139550828D01*
X135875939Y-139550828D02*
X135733082Y-139479400D01*
X135733082Y-139479400D02*
X135661653Y-139407971D01*
X135661653Y-139407971D02*
X135590224Y-139265114D01*
X135590224Y-139265114D02*
X135518796Y-138979400D01*
X135518796Y-138979400D02*
X135518796Y-138622257D01*
X135518796Y-138622257D02*
X135590224Y-138336542D01*
X135590224Y-138336542D02*
X135661653Y-138193685D01*
X135661653Y-138193685D02*
X135733082Y-138122257D01*
X135733082Y-138122257D02*
X135875939Y-138050828D01*
X124054510Y-139550828D02*
X124054510Y-138050828D01*
X124054510Y-138050828D02*
X124625939Y-138050828D01*
X124625939Y-138050828D02*
X124768796Y-138122257D01*
X124768796Y-138122257D02*
X124840225Y-138193685D01*
X124840225Y-138193685D02*
X124911653Y-138336542D01*
X124911653Y-138336542D02*
X124911653Y-138550828D01*
X124911653Y-138550828D02*
X124840225Y-138693685D01*
X124840225Y-138693685D02*
X124768796Y-138765114D01*
X124768796Y-138765114D02*
X124625939Y-138836542D01*
X124625939Y-138836542D02*
X124054510Y-138836542D01*
X125411653Y-138050828D02*
X125768796Y-139550828D01*
X125768796Y-139550828D02*
X126054510Y-138479400D01*
X126054510Y-138479400D02*
X126340225Y-139550828D01*
X126340225Y-139550828D02*
X126697368Y-138050828D01*
X128125939Y-139550828D02*
X127625939Y-138836542D01*
X127268796Y-139550828D02*
X127268796Y-138050828D01*
X127268796Y-138050828D02*
X127840225Y-138050828D01*
X127840225Y-138050828D02*
X127983082Y-138122257D01*
X127983082Y-138122257D02*
X128054511Y-138193685D01*
X128054511Y-138193685D02*
X128125939Y-138336542D01*
X128125939Y-138336542D02*
X128125939Y-138550828D01*
X128125939Y-138550828D02*
X128054511Y-138693685D01*
X128054511Y-138693685D02*
X127983082Y-138765114D01*
X127983082Y-138765114D02*
X127840225Y-138836542D01*
X127840225Y-138836542D02*
X127268796Y-138836542D01*
X167554510Y-115800828D02*
X167554510Y-114300828D01*
X167554510Y-114300828D02*
X168411653Y-115800828D01*
X168411653Y-115800828D02*
X168411653Y-114300828D01*
X169983082Y-115800828D02*
X169483082Y-115086542D01*
X169125939Y-115800828D02*
X169125939Y-114300828D01*
X169125939Y-114300828D02*
X169697368Y-114300828D01*
X169697368Y-114300828D02*
X169840225Y-114372257D01*
X169840225Y-114372257D02*
X169911654Y-114443685D01*
X169911654Y-114443685D02*
X169983082Y-114586542D01*
X169983082Y-114586542D02*
X169983082Y-114800828D01*
X169983082Y-114800828D02*
X169911654Y-114943685D01*
X169911654Y-114943685D02*
X169840225Y-115015114D01*
X169840225Y-115015114D02*
X169697368Y-115086542D01*
X169697368Y-115086542D02*
X169125939Y-115086542D01*
X171125939Y-115015114D02*
X170625939Y-115015114D01*
X170625939Y-115800828D02*
X170625939Y-114300828D01*
X170625939Y-114300828D02*
X171340225Y-114300828D01*
X120840225Y-109372257D02*
X120697368Y-109300828D01*
X120697368Y-109300828D02*
X120483082Y-109300828D01*
X120483082Y-109300828D02*
X120268796Y-109372257D01*
X120268796Y-109372257D02*
X120125939Y-109515114D01*
X120125939Y-109515114D02*
X120054510Y-109657971D01*
X120054510Y-109657971D02*
X119983082Y-109943685D01*
X119983082Y-109943685D02*
X119983082Y-110157971D01*
X119983082Y-110157971D02*
X120054510Y-110443685D01*
X120054510Y-110443685D02*
X120125939Y-110586542D01*
X120125939Y-110586542D02*
X120268796Y-110729400D01*
X120268796Y-110729400D02*
X120483082Y-110800828D01*
X120483082Y-110800828D02*
X120625939Y-110800828D01*
X120625939Y-110800828D02*
X120840225Y-110729400D01*
X120840225Y-110729400D02*
X120911653Y-110657971D01*
X120911653Y-110657971D02*
X120911653Y-110157971D01*
X120911653Y-110157971D02*
X120625939Y-110157971D01*
X121554510Y-110800828D02*
X121554510Y-109300828D01*
X121554510Y-109300828D02*
X122411653Y-110800828D01*
X122411653Y-110800828D02*
X122411653Y-109300828D01*
X123125939Y-110800828D02*
X123125939Y-109300828D01*
X123125939Y-109300828D02*
X123483082Y-109300828D01*
X123483082Y-109300828D02*
X123697368Y-109372257D01*
X123697368Y-109372257D02*
X123840225Y-109515114D01*
X123840225Y-109515114D02*
X123911654Y-109657971D01*
X123911654Y-109657971D02*
X123983082Y-109943685D01*
X123983082Y-109943685D02*
X123983082Y-110157971D01*
X123983082Y-110157971D02*
X123911654Y-110443685D01*
X123911654Y-110443685D02*
X123840225Y-110586542D01*
X123840225Y-110586542D02*
X123697368Y-110729400D01*
X123697368Y-110729400D02*
X123483082Y-110800828D01*
X123483082Y-110800828D02*
X123125939Y-110800828D01*
X120911653Y-108050828D02*
X120411653Y-107336542D01*
X120054510Y-108050828D02*
X120054510Y-106550828D01*
X120054510Y-106550828D02*
X120625939Y-106550828D01*
X120625939Y-106550828D02*
X120768796Y-106622257D01*
X120768796Y-106622257D02*
X120840225Y-106693685D01*
X120840225Y-106693685D02*
X120911653Y-106836542D01*
X120911653Y-106836542D02*
X120911653Y-107050828D01*
X120911653Y-107050828D02*
X120840225Y-107193685D01*
X120840225Y-107193685D02*
X120768796Y-107265114D01*
X120768796Y-107265114D02*
X120625939Y-107336542D01*
X120625939Y-107336542D02*
X120054510Y-107336542D01*
X121411653Y-106550828D02*
X122411653Y-108050828D01*
X122411653Y-106550828D02*
X121411653Y-108050828D01*
X119840225Y-104050828D02*
X120697368Y-104050828D01*
X120268796Y-105550828D02*
X120268796Y-104050828D01*
X121054510Y-104050828D02*
X122054510Y-105550828D01*
X122054510Y-104050828D02*
X121054510Y-105550828D01*
X119911653Y-95800828D02*
X120840225Y-95800828D01*
X120840225Y-95800828D02*
X120340225Y-96372257D01*
X120340225Y-96372257D02*
X120554510Y-96372257D01*
X120554510Y-96372257D02*
X120697368Y-96443685D01*
X120697368Y-96443685D02*
X120768796Y-96515114D01*
X120768796Y-96515114D02*
X120840225Y-96657971D01*
X120840225Y-96657971D02*
X120840225Y-97015114D01*
X120840225Y-97015114D02*
X120768796Y-97157971D01*
X120768796Y-97157971D02*
X120697368Y-97229400D01*
X120697368Y-97229400D02*
X120554510Y-97300828D01*
X120554510Y-97300828D02*
X120125939Y-97300828D01*
X120125939Y-97300828D02*
X119983082Y-97229400D01*
X119983082Y-97229400D02*
X119911653Y-97157971D01*
X121268796Y-95800828D02*
X121768796Y-97300828D01*
X121768796Y-97300828D02*
X122268796Y-95800828D01*
X122625938Y-95800828D02*
X123554510Y-95800828D01*
X123554510Y-95800828D02*
X123054510Y-96372257D01*
X123054510Y-96372257D02*
X123268795Y-96372257D01*
X123268795Y-96372257D02*
X123411653Y-96443685D01*
X123411653Y-96443685D02*
X123483081Y-96515114D01*
X123483081Y-96515114D02*
X123554510Y-96657971D01*
X123554510Y-96657971D02*
X123554510Y-97015114D01*
X123554510Y-97015114D02*
X123483081Y-97157971D01*
X123483081Y-97157971D02*
X123411653Y-97229400D01*
X123411653Y-97229400D02*
X123268795Y-97300828D01*
X123268795Y-97300828D02*
X122840224Y-97300828D01*
X122840224Y-97300828D02*
X122697367Y-97229400D01*
X122697367Y-97229400D02*
X122625938Y-97157971D01*
X120840225Y-93372257D02*
X120697368Y-93300828D01*
X120697368Y-93300828D02*
X120483082Y-93300828D01*
X120483082Y-93300828D02*
X120268796Y-93372257D01*
X120268796Y-93372257D02*
X120125939Y-93515114D01*
X120125939Y-93515114D02*
X120054510Y-93657971D01*
X120054510Y-93657971D02*
X119983082Y-93943685D01*
X119983082Y-93943685D02*
X119983082Y-94157971D01*
X119983082Y-94157971D02*
X120054510Y-94443685D01*
X120054510Y-94443685D02*
X120125939Y-94586542D01*
X120125939Y-94586542D02*
X120268796Y-94729400D01*
X120268796Y-94729400D02*
X120483082Y-94800828D01*
X120483082Y-94800828D02*
X120625939Y-94800828D01*
X120625939Y-94800828D02*
X120840225Y-94729400D01*
X120840225Y-94729400D02*
X120911653Y-94657971D01*
X120911653Y-94657971D02*
X120911653Y-94157971D01*
X120911653Y-94157971D02*
X120625939Y-94157971D01*
X121554510Y-94800828D02*
X121554510Y-93300828D01*
X121554510Y-93300828D02*
X122411653Y-94800828D01*
X122411653Y-94800828D02*
X122411653Y-93300828D01*
X123125939Y-94800828D02*
X123125939Y-93300828D01*
X123125939Y-93300828D02*
X123483082Y-93300828D01*
X123483082Y-93300828D02*
X123697368Y-93372257D01*
X123697368Y-93372257D02*
X123840225Y-93515114D01*
X123840225Y-93515114D02*
X123911654Y-93657971D01*
X123911654Y-93657971D02*
X123983082Y-93943685D01*
X123983082Y-93943685D02*
X123983082Y-94157971D01*
X123983082Y-94157971D02*
X123911654Y-94443685D01*
X123911654Y-94443685D02*
X123840225Y-94586542D01*
X123840225Y-94586542D02*
X123697368Y-94729400D01*
X123697368Y-94729400D02*
X123483082Y-94800828D01*
X123483082Y-94800828D02*
X123125939Y-94800828D01*
X120054510Y-91800828D02*
X120054510Y-90300828D01*
X120054510Y-90300828D02*
X120911653Y-91800828D01*
X120911653Y-91800828D02*
X120911653Y-90300828D01*
X122483082Y-91800828D02*
X121983082Y-91086542D01*
X121625939Y-91800828D02*
X121625939Y-90300828D01*
X121625939Y-90300828D02*
X122197368Y-90300828D01*
X122197368Y-90300828D02*
X122340225Y-90372257D01*
X122340225Y-90372257D02*
X122411654Y-90443685D01*
X122411654Y-90443685D02*
X122483082Y-90586542D01*
X122483082Y-90586542D02*
X122483082Y-90800828D01*
X122483082Y-90800828D02*
X122411654Y-90943685D01*
X122411654Y-90943685D02*
X122340225Y-91015114D01*
X122340225Y-91015114D02*
X122197368Y-91086542D01*
X122197368Y-91086542D02*
X121625939Y-91086542D01*
X123054511Y-91729400D02*
X123268797Y-91800828D01*
X123268797Y-91800828D02*
X123625939Y-91800828D01*
X123625939Y-91800828D02*
X123768797Y-91729400D01*
X123768797Y-91729400D02*
X123840225Y-91657971D01*
X123840225Y-91657971D02*
X123911654Y-91515114D01*
X123911654Y-91515114D02*
X123911654Y-91372257D01*
X123911654Y-91372257D02*
X123840225Y-91229400D01*
X123840225Y-91229400D02*
X123768797Y-91157971D01*
X123768797Y-91157971D02*
X123625939Y-91086542D01*
X123625939Y-91086542D02*
X123340225Y-91015114D01*
X123340225Y-91015114D02*
X123197368Y-90943685D01*
X123197368Y-90943685D02*
X123125939Y-90872257D01*
X123125939Y-90872257D02*
X123054511Y-90729400D01*
X123054511Y-90729400D02*
X123054511Y-90586542D01*
X123054511Y-90586542D02*
X123125939Y-90443685D01*
X123125939Y-90443685D02*
X123197368Y-90372257D01*
X123197368Y-90372257D02*
X123340225Y-90300828D01*
X123340225Y-90300828D02*
X123697368Y-90300828D01*
X123697368Y-90300828D02*
X123911654Y-90372257D01*
X124340225Y-90300828D02*
X125197368Y-90300828D01*
X124768796Y-91800828D02*
X124768796Y-90300828D01*
X119983082Y-89229400D02*
X120197368Y-89300828D01*
X120197368Y-89300828D02*
X120554510Y-89300828D01*
X120554510Y-89300828D02*
X120697368Y-89229400D01*
X120697368Y-89229400D02*
X120768796Y-89157971D01*
X120768796Y-89157971D02*
X120840225Y-89015114D01*
X120840225Y-89015114D02*
X120840225Y-88872257D01*
X120840225Y-88872257D02*
X120768796Y-88729400D01*
X120768796Y-88729400D02*
X120697368Y-88657971D01*
X120697368Y-88657971D02*
X120554510Y-88586542D01*
X120554510Y-88586542D02*
X120268796Y-88515114D01*
X120268796Y-88515114D02*
X120125939Y-88443685D01*
X120125939Y-88443685D02*
X120054510Y-88372257D01*
X120054510Y-88372257D02*
X119983082Y-88229400D01*
X119983082Y-88229400D02*
X119983082Y-88086542D01*
X119983082Y-88086542D02*
X120054510Y-87943685D01*
X120054510Y-87943685D02*
X120125939Y-87872257D01*
X120125939Y-87872257D02*
X120268796Y-87800828D01*
X120268796Y-87800828D02*
X120625939Y-87800828D01*
X120625939Y-87800828D02*
X120840225Y-87872257D01*
X121340224Y-87800828D02*
X121697367Y-89300828D01*
X121697367Y-89300828D02*
X121983081Y-88229400D01*
X121983081Y-88229400D02*
X122268796Y-89300828D01*
X122268796Y-89300828D02*
X122625939Y-87800828D01*
X123197367Y-89300828D02*
X123197367Y-87800828D01*
X123197367Y-87800828D02*
X123554510Y-87800828D01*
X123554510Y-87800828D02*
X123768796Y-87872257D01*
X123768796Y-87872257D02*
X123911653Y-88015114D01*
X123911653Y-88015114D02*
X123983082Y-88157971D01*
X123983082Y-88157971D02*
X124054510Y-88443685D01*
X124054510Y-88443685D02*
X124054510Y-88657971D01*
X124054510Y-88657971D02*
X123983082Y-88943685D01*
X123983082Y-88943685D02*
X123911653Y-89086542D01*
X123911653Y-89086542D02*
X123768796Y-89229400D01*
X123768796Y-89229400D02*
X123554510Y-89300828D01*
X123554510Y-89300828D02*
X123197367Y-89300828D01*
X124697367Y-89300828D02*
X124697367Y-87800828D01*
X125697368Y-87800828D02*
X125983082Y-87800828D01*
X125983082Y-87800828D02*
X126125939Y-87872257D01*
X126125939Y-87872257D02*
X126268796Y-88015114D01*
X126268796Y-88015114D02*
X126340225Y-88300828D01*
X126340225Y-88300828D02*
X126340225Y-88800828D01*
X126340225Y-88800828D02*
X126268796Y-89086542D01*
X126268796Y-89086542D02*
X126125939Y-89229400D01*
X126125939Y-89229400D02*
X125983082Y-89300828D01*
X125983082Y-89300828D02*
X125697368Y-89300828D01*
X125697368Y-89300828D02*
X125554511Y-89229400D01*
X125554511Y-89229400D02*
X125411653Y-89086542D01*
X125411653Y-89086542D02*
X125340225Y-88800828D01*
X125340225Y-88800828D02*
X125340225Y-88300828D01*
X125340225Y-88300828D02*
X125411653Y-88015114D01*
X125411653Y-88015114D02*
X125554511Y-87872257D01*
X125554511Y-87872257D02*
X125697368Y-87800828D01*
X119983082Y-86729400D02*
X120197368Y-86800828D01*
X120197368Y-86800828D02*
X120554510Y-86800828D01*
X120554510Y-86800828D02*
X120697368Y-86729400D01*
X120697368Y-86729400D02*
X120768796Y-86657971D01*
X120768796Y-86657971D02*
X120840225Y-86515114D01*
X120840225Y-86515114D02*
X120840225Y-86372257D01*
X120840225Y-86372257D02*
X120768796Y-86229400D01*
X120768796Y-86229400D02*
X120697368Y-86157971D01*
X120697368Y-86157971D02*
X120554510Y-86086542D01*
X120554510Y-86086542D02*
X120268796Y-86015114D01*
X120268796Y-86015114D02*
X120125939Y-85943685D01*
X120125939Y-85943685D02*
X120054510Y-85872257D01*
X120054510Y-85872257D02*
X119983082Y-85729400D01*
X119983082Y-85729400D02*
X119983082Y-85586542D01*
X119983082Y-85586542D02*
X120054510Y-85443685D01*
X120054510Y-85443685D02*
X120125939Y-85372257D01*
X120125939Y-85372257D02*
X120268796Y-85300828D01*
X120268796Y-85300828D02*
X120625939Y-85300828D01*
X120625939Y-85300828D02*
X120840225Y-85372257D01*
X121340224Y-85300828D02*
X121697367Y-86800828D01*
X121697367Y-86800828D02*
X121983081Y-85729400D01*
X121983081Y-85729400D02*
X122268796Y-86800828D01*
X122268796Y-86800828D02*
X122625939Y-85300828D01*
X124054510Y-86657971D02*
X123983082Y-86729400D01*
X123983082Y-86729400D02*
X123768796Y-86800828D01*
X123768796Y-86800828D02*
X123625939Y-86800828D01*
X123625939Y-86800828D02*
X123411653Y-86729400D01*
X123411653Y-86729400D02*
X123268796Y-86586542D01*
X123268796Y-86586542D02*
X123197367Y-86443685D01*
X123197367Y-86443685D02*
X123125939Y-86157971D01*
X123125939Y-86157971D02*
X123125939Y-85943685D01*
X123125939Y-85943685D02*
X123197367Y-85657971D01*
X123197367Y-85657971D02*
X123268796Y-85515114D01*
X123268796Y-85515114D02*
X123411653Y-85372257D01*
X123411653Y-85372257D02*
X123625939Y-85300828D01*
X123625939Y-85300828D02*
X123768796Y-85300828D01*
X123768796Y-85300828D02*
X123983082Y-85372257D01*
X123983082Y-85372257D02*
X124054510Y-85443685D01*
X125411653Y-86800828D02*
X124697367Y-86800828D01*
X124697367Y-86800828D02*
X124697367Y-85300828D01*
X125911653Y-86800828D02*
X125911653Y-85300828D01*
X126768796Y-86800828D02*
X126125939Y-85943685D01*
X126768796Y-85300828D02*
X125911653Y-86157971D01*
D11*
X121238095Y-65129819D02*
X121238095Y-65939342D01*
X121238095Y-65939342D02*
X121285714Y-66034580D01*
X121285714Y-66034580D02*
X121333333Y-66082200D01*
X121333333Y-66082200D02*
X121428571Y-66129819D01*
X121428571Y-66129819D02*
X121619047Y-66129819D01*
X121619047Y-66129819D02*
X121714285Y-66082200D01*
X121714285Y-66082200D02*
X121761904Y-66034580D01*
X121761904Y-66034580D02*
X121809523Y-65939342D01*
X121809523Y-65939342D02*
X121809523Y-65129819D01*
X122714285Y-65463152D02*
X122714285Y-66129819D01*
X122476190Y-65082200D02*
X122238095Y-65796485D01*
X122238095Y-65796485D02*
X122857142Y-65796485D01*
X175554819Y-73892857D02*
X175078628Y-74226190D01*
X175554819Y-74464285D02*
X174554819Y-74464285D01*
X174554819Y-74464285D02*
X174554819Y-74083333D01*
X174554819Y-74083333D02*
X174602438Y-73988095D01*
X174602438Y-73988095D02*
X174650057Y-73940476D01*
X174650057Y-73940476D02*
X174745295Y-73892857D01*
X174745295Y-73892857D02*
X174888152Y-73892857D01*
X174888152Y-73892857D02*
X174983390Y-73940476D01*
X174983390Y-73940476D02*
X175031009Y-73988095D01*
X175031009Y-73988095D02*
X175078628Y-74083333D01*
X175078628Y-74083333D02*
X175078628Y-74464285D01*
X175554819Y-72940476D02*
X175554819Y-73511904D01*
X175554819Y-73226190D02*
X174554819Y-73226190D01*
X174554819Y-73226190D02*
X174697676Y-73321428D01*
X174697676Y-73321428D02*
X174792914Y-73416666D01*
X174792914Y-73416666D02*
X174840533Y-73511904D01*
X174650057Y-72559523D02*
X174602438Y-72511904D01*
X174602438Y-72511904D02*
X174554819Y-72416666D01*
X174554819Y-72416666D02*
X174554819Y-72178571D01*
X174554819Y-72178571D02*
X174602438Y-72083333D01*
X174602438Y-72083333D02*
X174650057Y-72035714D01*
X174650057Y-72035714D02*
X174745295Y-71988095D01*
X174745295Y-71988095D02*
X174840533Y-71988095D01*
X174840533Y-71988095D02*
X174983390Y-72035714D01*
X174983390Y-72035714D02*
X175554819Y-72607142D01*
X175554819Y-72607142D02*
X175554819Y-71988095D01*
X178854819Y-67892857D02*
X178378628Y-68226190D01*
X178854819Y-68464285D02*
X177854819Y-68464285D01*
X177854819Y-68464285D02*
X177854819Y-68083333D01*
X177854819Y-68083333D02*
X177902438Y-67988095D01*
X177902438Y-67988095D02*
X177950057Y-67940476D01*
X177950057Y-67940476D02*
X178045295Y-67892857D01*
X178045295Y-67892857D02*
X178188152Y-67892857D01*
X178188152Y-67892857D02*
X178283390Y-67940476D01*
X178283390Y-67940476D02*
X178331009Y-67988095D01*
X178331009Y-67988095D02*
X178378628Y-68083333D01*
X178378628Y-68083333D02*
X178378628Y-68464285D01*
X178854819Y-66940476D02*
X178854819Y-67511904D01*
X178854819Y-67226190D02*
X177854819Y-67226190D01*
X177854819Y-67226190D02*
X177997676Y-67321428D01*
X177997676Y-67321428D02*
X178092914Y-67416666D01*
X178092914Y-67416666D02*
X178140533Y-67511904D01*
X178854819Y-65988095D02*
X178854819Y-66559523D01*
X178854819Y-66273809D02*
X177854819Y-66273809D01*
X177854819Y-66273809D02*
X177997676Y-66369047D01*
X177997676Y-66369047D02*
X178092914Y-66464285D01*
X178092914Y-66464285D02*
X178140533Y-66559523D01*
X169554819Y-73892857D02*
X169078628Y-74226190D01*
X169554819Y-74464285D02*
X168554819Y-74464285D01*
X168554819Y-74464285D02*
X168554819Y-74083333D01*
X168554819Y-74083333D02*
X168602438Y-73988095D01*
X168602438Y-73988095D02*
X168650057Y-73940476D01*
X168650057Y-73940476D02*
X168745295Y-73892857D01*
X168745295Y-73892857D02*
X168888152Y-73892857D01*
X168888152Y-73892857D02*
X168983390Y-73940476D01*
X168983390Y-73940476D02*
X169031009Y-73988095D01*
X169031009Y-73988095D02*
X169078628Y-74083333D01*
X169078628Y-74083333D02*
X169078628Y-74464285D01*
X169554819Y-72940476D02*
X169554819Y-73511904D01*
X169554819Y-73226190D02*
X168554819Y-73226190D01*
X168554819Y-73226190D02*
X168697676Y-73321428D01*
X168697676Y-73321428D02*
X168792914Y-73416666D01*
X168792914Y-73416666D02*
X168840533Y-73511904D01*
X168554819Y-72321428D02*
X168554819Y-72226190D01*
X168554819Y-72226190D02*
X168602438Y-72130952D01*
X168602438Y-72130952D02*
X168650057Y-72083333D01*
X168650057Y-72083333D02*
X168745295Y-72035714D01*
X168745295Y-72035714D02*
X168935771Y-71988095D01*
X168935771Y-71988095D02*
X169173866Y-71988095D01*
X169173866Y-71988095D02*
X169364342Y-72035714D01*
X169364342Y-72035714D02*
X169459580Y-72083333D01*
X169459580Y-72083333D02*
X169507200Y-72130952D01*
X169507200Y-72130952D02*
X169554819Y-72226190D01*
X169554819Y-72226190D02*
X169554819Y-72321428D01*
X169554819Y-72321428D02*
X169507200Y-72416666D01*
X169507200Y-72416666D02*
X169459580Y-72464285D01*
X169459580Y-72464285D02*
X169364342Y-72511904D01*
X169364342Y-72511904D02*
X169173866Y-72559523D01*
X169173866Y-72559523D02*
X168935771Y-72559523D01*
X168935771Y-72559523D02*
X168745295Y-72511904D01*
X168745295Y-72511904D02*
X168650057Y-72464285D01*
X168650057Y-72464285D02*
X168602438Y-72416666D01*
X168602438Y-72416666D02*
X168554819Y-72321428D01*
X172854819Y-67416666D02*
X172378628Y-67749999D01*
X172854819Y-67988094D02*
X171854819Y-67988094D01*
X171854819Y-67988094D02*
X171854819Y-67607142D01*
X171854819Y-67607142D02*
X171902438Y-67511904D01*
X171902438Y-67511904D02*
X171950057Y-67464285D01*
X171950057Y-67464285D02*
X172045295Y-67416666D01*
X172045295Y-67416666D02*
X172188152Y-67416666D01*
X172188152Y-67416666D02*
X172283390Y-67464285D01*
X172283390Y-67464285D02*
X172331009Y-67511904D01*
X172331009Y-67511904D02*
X172378628Y-67607142D01*
X172378628Y-67607142D02*
X172378628Y-67988094D01*
X172854819Y-66940475D02*
X172854819Y-66749999D01*
X172854819Y-66749999D02*
X172807200Y-66654761D01*
X172807200Y-66654761D02*
X172759580Y-66607142D01*
X172759580Y-66607142D02*
X172616723Y-66511904D01*
X172616723Y-66511904D02*
X172426247Y-66464285D01*
X172426247Y-66464285D02*
X172045295Y-66464285D01*
X172045295Y-66464285D02*
X171950057Y-66511904D01*
X171950057Y-66511904D02*
X171902438Y-66559523D01*
X171902438Y-66559523D02*
X171854819Y-66654761D01*
X171854819Y-66654761D02*
X171854819Y-66845237D01*
X171854819Y-66845237D02*
X171902438Y-66940475D01*
X171902438Y-66940475D02*
X171950057Y-66988094D01*
X171950057Y-66988094D02*
X172045295Y-67035713D01*
X172045295Y-67035713D02*
X172283390Y-67035713D01*
X172283390Y-67035713D02*
X172378628Y-66988094D01*
X172378628Y-66988094D02*
X172426247Y-66940475D01*
X172426247Y-66940475D02*
X172473866Y-66845237D01*
X172473866Y-66845237D02*
X172473866Y-66654761D01*
X172473866Y-66654761D02*
X172426247Y-66559523D01*
X172426247Y-66559523D02*
X172378628Y-66511904D01*
X172378628Y-66511904D02*
X172283390Y-66464285D01*
X163554819Y-73416666D02*
X163078628Y-73749999D01*
X163554819Y-73988094D02*
X162554819Y-73988094D01*
X162554819Y-73988094D02*
X162554819Y-73607142D01*
X162554819Y-73607142D02*
X162602438Y-73511904D01*
X162602438Y-73511904D02*
X162650057Y-73464285D01*
X162650057Y-73464285D02*
X162745295Y-73416666D01*
X162745295Y-73416666D02*
X162888152Y-73416666D01*
X162888152Y-73416666D02*
X162983390Y-73464285D01*
X162983390Y-73464285D02*
X163031009Y-73511904D01*
X163031009Y-73511904D02*
X163078628Y-73607142D01*
X163078628Y-73607142D02*
X163078628Y-73988094D01*
X162983390Y-72845237D02*
X162935771Y-72940475D01*
X162935771Y-72940475D02*
X162888152Y-72988094D01*
X162888152Y-72988094D02*
X162792914Y-73035713D01*
X162792914Y-73035713D02*
X162745295Y-73035713D01*
X162745295Y-73035713D02*
X162650057Y-72988094D01*
X162650057Y-72988094D02*
X162602438Y-72940475D01*
X162602438Y-72940475D02*
X162554819Y-72845237D01*
X162554819Y-72845237D02*
X162554819Y-72654761D01*
X162554819Y-72654761D02*
X162602438Y-72559523D01*
X162602438Y-72559523D02*
X162650057Y-72511904D01*
X162650057Y-72511904D02*
X162745295Y-72464285D01*
X162745295Y-72464285D02*
X162792914Y-72464285D01*
X162792914Y-72464285D02*
X162888152Y-72511904D01*
X162888152Y-72511904D02*
X162935771Y-72559523D01*
X162935771Y-72559523D02*
X162983390Y-72654761D01*
X162983390Y-72654761D02*
X162983390Y-72845237D01*
X162983390Y-72845237D02*
X163031009Y-72940475D01*
X163031009Y-72940475D02*
X163078628Y-72988094D01*
X163078628Y-72988094D02*
X163173866Y-73035713D01*
X163173866Y-73035713D02*
X163364342Y-73035713D01*
X163364342Y-73035713D02*
X163459580Y-72988094D01*
X163459580Y-72988094D02*
X163507200Y-72940475D01*
X163507200Y-72940475D02*
X163554819Y-72845237D01*
X163554819Y-72845237D02*
X163554819Y-72654761D01*
X163554819Y-72654761D02*
X163507200Y-72559523D01*
X163507200Y-72559523D02*
X163459580Y-72511904D01*
X163459580Y-72511904D02*
X163364342Y-72464285D01*
X163364342Y-72464285D02*
X163173866Y-72464285D01*
X163173866Y-72464285D02*
X163078628Y-72511904D01*
X163078628Y-72511904D02*
X163031009Y-72559523D01*
X163031009Y-72559523D02*
X162983390Y-72654761D01*
X166854819Y-67416666D02*
X166378628Y-67749999D01*
X166854819Y-67988094D02*
X165854819Y-67988094D01*
X165854819Y-67988094D02*
X165854819Y-67607142D01*
X165854819Y-67607142D02*
X165902438Y-67511904D01*
X165902438Y-67511904D02*
X165950057Y-67464285D01*
X165950057Y-67464285D02*
X166045295Y-67416666D01*
X166045295Y-67416666D02*
X166188152Y-67416666D01*
X166188152Y-67416666D02*
X166283390Y-67464285D01*
X166283390Y-67464285D02*
X166331009Y-67511904D01*
X166331009Y-67511904D02*
X166378628Y-67607142D01*
X166378628Y-67607142D02*
X166378628Y-67988094D01*
X165854819Y-67083332D02*
X165854819Y-66416666D01*
X165854819Y-66416666D02*
X166854819Y-66845237D01*
X154854819Y-125916666D02*
X154378628Y-126249999D01*
X154854819Y-126488094D02*
X153854819Y-126488094D01*
X153854819Y-126488094D02*
X153854819Y-126107142D01*
X153854819Y-126107142D02*
X153902438Y-126011904D01*
X153902438Y-126011904D02*
X153950057Y-125964285D01*
X153950057Y-125964285D02*
X154045295Y-125916666D01*
X154045295Y-125916666D02*
X154188152Y-125916666D01*
X154188152Y-125916666D02*
X154283390Y-125964285D01*
X154283390Y-125964285D02*
X154331009Y-126011904D01*
X154331009Y-126011904D02*
X154378628Y-126107142D01*
X154378628Y-126107142D02*
X154378628Y-126488094D01*
X153854819Y-125059523D02*
X153854819Y-125249999D01*
X153854819Y-125249999D02*
X153902438Y-125345237D01*
X153902438Y-125345237D02*
X153950057Y-125392856D01*
X153950057Y-125392856D02*
X154092914Y-125488094D01*
X154092914Y-125488094D02*
X154283390Y-125535713D01*
X154283390Y-125535713D02*
X154664342Y-125535713D01*
X154664342Y-125535713D02*
X154759580Y-125488094D01*
X154759580Y-125488094D02*
X154807200Y-125440475D01*
X154807200Y-125440475D02*
X154854819Y-125345237D01*
X154854819Y-125345237D02*
X154854819Y-125154761D01*
X154854819Y-125154761D02*
X154807200Y-125059523D01*
X154807200Y-125059523D02*
X154759580Y-125011904D01*
X154759580Y-125011904D02*
X154664342Y-124964285D01*
X154664342Y-124964285D02*
X154426247Y-124964285D01*
X154426247Y-124964285D02*
X154331009Y-125011904D01*
X154331009Y-125011904D02*
X154283390Y-125059523D01*
X154283390Y-125059523D02*
X154235771Y-125154761D01*
X154235771Y-125154761D02*
X154235771Y-125345237D01*
X154235771Y-125345237D02*
X154283390Y-125440475D01*
X154283390Y-125440475D02*
X154331009Y-125488094D01*
X154331009Y-125488094D02*
X154426247Y-125535713D01*
X145854819Y-125916666D02*
X145378628Y-126249999D01*
X145854819Y-126488094D02*
X144854819Y-126488094D01*
X144854819Y-126488094D02*
X144854819Y-126107142D01*
X144854819Y-126107142D02*
X144902438Y-126011904D01*
X144902438Y-126011904D02*
X144950057Y-125964285D01*
X144950057Y-125964285D02*
X145045295Y-125916666D01*
X145045295Y-125916666D02*
X145188152Y-125916666D01*
X145188152Y-125916666D02*
X145283390Y-125964285D01*
X145283390Y-125964285D02*
X145331009Y-126011904D01*
X145331009Y-126011904D02*
X145378628Y-126107142D01*
X145378628Y-126107142D02*
X145378628Y-126488094D01*
X144854819Y-125011904D02*
X144854819Y-125488094D01*
X144854819Y-125488094D02*
X145331009Y-125535713D01*
X145331009Y-125535713D02*
X145283390Y-125488094D01*
X145283390Y-125488094D02*
X145235771Y-125392856D01*
X145235771Y-125392856D02*
X145235771Y-125154761D01*
X145235771Y-125154761D02*
X145283390Y-125059523D01*
X145283390Y-125059523D02*
X145331009Y-125011904D01*
X145331009Y-125011904D02*
X145426247Y-124964285D01*
X145426247Y-124964285D02*
X145664342Y-124964285D01*
X145664342Y-124964285D02*
X145759580Y-125011904D01*
X145759580Y-125011904D02*
X145807200Y-125059523D01*
X145807200Y-125059523D02*
X145854819Y-125154761D01*
X145854819Y-125154761D02*
X145854819Y-125392856D01*
X145854819Y-125392856D02*
X145807200Y-125488094D01*
X145807200Y-125488094D02*
X145759580Y-125535713D01*
X136954819Y-125916666D02*
X136478628Y-126249999D01*
X136954819Y-126488094D02*
X135954819Y-126488094D01*
X135954819Y-126488094D02*
X135954819Y-126107142D01*
X135954819Y-126107142D02*
X136002438Y-126011904D01*
X136002438Y-126011904D02*
X136050057Y-125964285D01*
X136050057Y-125964285D02*
X136145295Y-125916666D01*
X136145295Y-125916666D02*
X136288152Y-125916666D01*
X136288152Y-125916666D02*
X136383390Y-125964285D01*
X136383390Y-125964285D02*
X136431009Y-126011904D01*
X136431009Y-126011904D02*
X136478628Y-126107142D01*
X136478628Y-126107142D02*
X136478628Y-126488094D01*
X136288152Y-125059523D02*
X136954819Y-125059523D01*
X135907200Y-125297618D02*
X136621485Y-125535713D01*
X136621485Y-125535713D02*
X136621485Y-124916666D01*
X127854819Y-125916666D02*
X127378628Y-126249999D01*
X127854819Y-126488094D02*
X126854819Y-126488094D01*
X126854819Y-126488094D02*
X126854819Y-126107142D01*
X126854819Y-126107142D02*
X126902438Y-126011904D01*
X126902438Y-126011904D02*
X126950057Y-125964285D01*
X126950057Y-125964285D02*
X127045295Y-125916666D01*
X127045295Y-125916666D02*
X127188152Y-125916666D01*
X127188152Y-125916666D02*
X127283390Y-125964285D01*
X127283390Y-125964285D02*
X127331009Y-126011904D01*
X127331009Y-126011904D02*
X127378628Y-126107142D01*
X127378628Y-126107142D02*
X127378628Y-126488094D01*
X126854819Y-125583332D02*
X126854819Y-124964285D01*
X126854819Y-124964285D02*
X127235771Y-125297618D01*
X127235771Y-125297618D02*
X127235771Y-125154761D01*
X127235771Y-125154761D02*
X127283390Y-125059523D01*
X127283390Y-125059523D02*
X127331009Y-125011904D01*
X127331009Y-125011904D02*
X127426247Y-124964285D01*
X127426247Y-124964285D02*
X127664342Y-124964285D01*
X127664342Y-124964285D02*
X127759580Y-125011904D01*
X127759580Y-125011904D02*
X127807200Y-125059523D01*
X127807200Y-125059523D02*
X127854819Y-125154761D01*
X127854819Y-125154761D02*
X127854819Y-125440475D01*
X127854819Y-125440475D02*
X127807200Y-125535713D01*
X127807200Y-125535713D02*
X127759580Y-125583332D01*
X129083333Y-95104819D02*
X128750000Y-94628628D01*
X128511905Y-95104819D02*
X128511905Y-94104819D01*
X128511905Y-94104819D02*
X128892857Y-94104819D01*
X128892857Y-94104819D02*
X128988095Y-94152438D01*
X128988095Y-94152438D02*
X129035714Y-94200057D01*
X129035714Y-94200057D02*
X129083333Y-94295295D01*
X129083333Y-94295295D02*
X129083333Y-94438152D01*
X129083333Y-94438152D02*
X129035714Y-94533390D01*
X129035714Y-94533390D02*
X128988095Y-94581009D01*
X128988095Y-94581009D02*
X128892857Y-94628628D01*
X128892857Y-94628628D02*
X128511905Y-94628628D01*
X129464286Y-94200057D02*
X129511905Y-94152438D01*
X129511905Y-94152438D02*
X129607143Y-94104819D01*
X129607143Y-94104819D02*
X129845238Y-94104819D01*
X129845238Y-94104819D02*
X129940476Y-94152438D01*
X129940476Y-94152438D02*
X129988095Y-94200057D01*
X129988095Y-94200057D02*
X130035714Y-94295295D01*
X130035714Y-94295295D02*
X130035714Y-94390533D01*
X130035714Y-94390533D02*
X129988095Y-94533390D01*
X129988095Y-94533390D02*
X129416667Y-95104819D01*
X129416667Y-95104819D02*
X130035714Y-95104819D01*
X129083333Y-109104819D02*
X128750000Y-108628628D01*
X128511905Y-109104819D02*
X128511905Y-108104819D01*
X128511905Y-108104819D02*
X128892857Y-108104819D01*
X128892857Y-108104819D02*
X128988095Y-108152438D01*
X128988095Y-108152438D02*
X129035714Y-108200057D01*
X129035714Y-108200057D02*
X129083333Y-108295295D01*
X129083333Y-108295295D02*
X129083333Y-108438152D01*
X129083333Y-108438152D02*
X129035714Y-108533390D01*
X129035714Y-108533390D02*
X128988095Y-108581009D01*
X128988095Y-108581009D02*
X128892857Y-108628628D01*
X128892857Y-108628628D02*
X128511905Y-108628628D01*
X130035714Y-109104819D02*
X129464286Y-109104819D01*
X129750000Y-109104819D02*
X129750000Y-108104819D01*
X129750000Y-108104819D02*
X129654762Y-108247676D01*
X129654762Y-108247676D02*
X129559524Y-108342914D01*
X129559524Y-108342914D02*
X129464286Y-108390533D01*
X147333333Y-73884819D02*
X146857143Y-73884819D01*
X146857143Y-73884819D02*
X146857143Y-72884819D01*
X148190476Y-73884819D02*
X147619048Y-73884819D01*
X147904762Y-73884819D02*
X147904762Y-72884819D01*
X147904762Y-72884819D02*
X147809524Y-73027676D01*
X147809524Y-73027676D02*
X147714286Y-73122914D01*
X147714286Y-73122914D02*
X147619048Y-73170533D01*
X131892857Y-93381009D02*
X132035714Y-93428628D01*
X132035714Y-93428628D02*
X132083333Y-93476247D01*
X132083333Y-93476247D02*
X132130952Y-93571485D01*
X132130952Y-93571485D02*
X132130952Y-93714342D01*
X132130952Y-93714342D02*
X132083333Y-93809580D01*
X132083333Y-93809580D02*
X132035714Y-93857200D01*
X132035714Y-93857200D02*
X131940476Y-93904819D01*
X131940476Y-93904819D02*
X131559524Y-93904819D01*
X131559524Y-93904819D02*
X131559524Y-92904819D01*
X131559524Y-92904819D02*
X131892857Y-92904819D01*
X131892857Y-92904819D02*
X131988095Y-92952438D01*
X131988095Y-92952438D02*
X132035714Y-93000057D01*
X132035714Y-93000057D02*
X132083333Y-93095295D01*
X132083333Y-93095295D02*
X132083333Y-93190533D01*
X132083333Y-93190533D02*
X132035714Y-93285771D01*
X132035714Y-93285771D02*
X131988095Y-93333390D01*
X131988095Y-93333390D02*
X131892857Y-93381009D01*
X131892857Y-93381009D02*
X131559524Y-93381009D01*
X132750000Y-92904819D02*
X132940476Y-92904819D01*
X132940476Y-92904819D02*
X133035714Y-92952438D01*
X133035714Y-92952438D02*
X133130952Y-93047676D01*
X133130952Y-93047676D02*
X133178571Y-93238152D01*
X133178571Y-93238152D02*
X133178571Y-93571485D01*
X133178571Y-93571485D02*
X133130952Y-93761961D01*
X133130952Y-93761961D02*
X133035714Y-93857200D01*
X133035714Y-93857200D02*
X132940476Y-93904819D01*
X132940476Y-93904819D02*
X132750000Y-93904819D01*
X132750000Y-93904819D02*
X132654762Y-93857200D01*
X132654762Y-93857200D02*
X132559524Y-93761961D01*
X132559524Y-93761961D02*
X132511905Y-93571485D01*
X132511905Y-93571485D02*
X132511905Y-93238152D01*
X132511905Y-93238152D02*
X132559524Y-93047676D01*
X132559524Y-93047676D02*
X132654762Y-92952438D01*
X132654762Y-92952438D02*
X132750000Y-92904819D01*
X133797619Y-92904819D02*
X133988095Y-92904819D01*
X133988095Y-92904819D02*
X134083333Y-92952438D01*
X134083333Y-92952438D02*
X134178571Y-93047676D01*
X134178571Y-93047676D02*
X134226190Y-93238152D01*
X134226190Y-93238152D02*
X134226190Y-93571485D01*
X134226190Y-93571485D02*
X134178571Y-93761961D01*
X134178571Y-93761961D02*
X134083333Y-93857200D01*
X134083333Y-93857200D02*
X133988095Y-93904819D01*
X133988095Y-93904819D02*
X133797619Y-93904819D01*
X133797619Y-93904819D02*
X133702381Y-93857200D01*
X133702381Y-93857200D02*
X133607143Y-93761961D01*
X133607143Y-93761961D02*
X133559524Y-93571485D01*
X133559524Y-93571485D02*
X133559524Y-93238152D01*
X133559524Y-93238152D02*
X133607143Y-93047676D01*
X133607143Y-93047676D02*
X133702381Y-92952438D01*
X133702381Y-92952438D02*
X133797619Y-92904819D01*
X134511905Y-92904819D02*
X135083333Y-92904819D01*
X134797619Y-93904819D02*
X134797619Y-92904819D01*
X121666666Y-50954819D02*
X121666666Y-51669104D01*
X121666666Y-51669104D02*
X121619047Y-51811961D01*
X121619047Y-51811961D02*
X121523809Y-51907200D01*
X121523809Y-51907200D02*
X121380952Y-51954819D01*
X121380952Y-51954819D02*
X121285714Y-51954819D01*
X122666666Y-51954819D02*
X122095238Y-51954819D01*
X122380952Y-51954819D02*
X122380952Y-50954819D01*
X122380952Y-50954819D02*
X122285714Y-51097676D01*
X122285714Y-51097676D02*
X122190476Y-51192914D01*
X122190476Y-51192914D02*
X122095238Y-51240533D01*
X124178571Y-51864700D02*
X125321429Y-51864700D01*
X124750000Y-52436128D02*
X124750000Y-51293271D01*
X118928571Y-51864700D02*
X120071429Y-51864700D01*
X150574819Y-134488094D02*
X149574819Y-134488094D01*
X149574819Y-134488094D02*
X149574819Y-134249999D01*
X149574819Y-134249999D02*
X149622438Y-134107142D01*
X149622438Y-134107142D02*
X149717676Y-134011904D01*
X149717676Y-134011904D02*
X149812914Y-133964285D01*
X149812914Y-133964285D02*
X150003390Y-133916666D01*
X150003390Y-133916666D02*
X150146247Y-133916666D01*
X150146247Y-133916666D02*
X150336723Y-133964285D01*
X150336723Y-133964285D02*
X150431961Y-134011904D01*
X150431961Y-134011904D02*
X150527200Y-134107142D01*
X150527200Y-134107142D02*
X150574819Y-134249999D01*
X150574819Y-134249999D02*
X150574819Y-134488094D01*
X149908152Y-133059523D02*
X150574819Y-133059523D01*
X149527200Y-133297618D02*
X150241485Y-133535713D01*
X150241485Y-133535713D02*
X150241485Y-132916666D01*
X141584819Y-134488094D02*
X140584819Y-134488094D01*
X140584819Y-134488094D02*
X140584819Y-134249999D01*
X140584819Y-134249999D02*
X140632438Y-134107142D01*
X140632438Y-134107142D02*
X140727676Y-134011904D01*
X140727676Y-134011904D02*
X140822914Y-133964285D01*
X140822914Y-133964285D02*
X141013390Y-133916666D01*
X141013390Y-133916666D02*
X141156247Y-133916666D01*
X141156247Y-133916666D02*
X141346723Y-133964285D01*
X141346723Y-133964285D02*
X141441961Y-134011904D01*
X141441961Y-134011904D02*
X141537200Y-134107142D01*
X141537200Y-134107142D02*
X141584819Y-134249999D01*
X141584819Y-134249999D02*
X141584819Y-134488094D01*
X140584819Y-133583332D02*
X140584819Y-132964285D01*
X140584819Y-132964285D02*
X140965771Y-133297618D01*
X140965771Y-133297618D02*
X140965771Y-133154761D01*
X140965771Y-133154761D02*
X141013390Y-133059523D01*
X141013390Y-133059523D02*
X141061009Y-133011904D01*
X141061009Y-133011904D02*
X141156247Y-132964285D01*
X141156247Y-132964285D02*
X141394342Y-132964285D01*
X141394342Y-132964285D02*
X141489580Y-133011904D01*
X141489580Y-133011904D02*
X141537200Y-133059523D01*
X141537200Y-133059523D02*
X141584819Y-133154761D01*
X141584819Y-133154761D02*
X141584819Y-133440475D01*
X141584819Y-133440475D02*
X141537200Y-133535713D01*
X141537200Y-133535713D02*
X141489580Y-133583332D01*
X132584819Y-134488094D02*
X131584819Y-134488094D01*
X131584819Y-134488094D02*
X131584819Y-134249999D01*
X131584819Y-134249999D02*
X131632438Y-134107142D01*
X131632438Y-134107142D02*
X131727676Y-134011904D01*
X131727676Y-134011904D02*
X131822914Y-133964285D01*
X131822914Y-133964285D02*
X132013390Y-133916666D01*
X132013390Y-133916666D02*
X132156247Y-133916666D01*
X132156247Y-133916666D02*
X132346723Y-133964285D01*
X132346723Y-133964285D02*
X132441961Y-134011904D01*
X132441961Y-134011904D02*
X132537200Y-134107142D01*
X132537200Y-134107142D02*
X132584819Y-134249999D01*
X132584819Y-134249999D02*
X132584819Y-134488094D01*
X131680057Y-133535713D02*
X131632438Y-133488094D01*
X131632438Y-133488094D02*
X131584819Y-133392856D01*
X131584819Y-133392856D02*
X131584819Y-133154761D01*
X131584819Y-133154761D02*
X131632438Y-133059523D01*
X131632438Y-133059523D02*
X131680057Y-133011904D01*
X131680057Y-133011904D02*
X131775295Y-132964285D01*
X131775295Y-132964285D02*
X131870533Y-132964285D01*
X131870533Y-132964285D02*
X132013390Y-133011904D01*
X132013390Y-133011904D02*
X132584819Y-133583332D01*
X132584819Y-133583332D02*
X132584819Y-132964285D01*
X123584819Y-134488094D02*
X122584819Y-134488094D01*
X122584819Y-134488094D02*
X122584819Y-134249999D01*
X122584819Y-134249999D02*
X122632438Y-134107142D01*
X122632438Y-134107142D02*
X122727676Y-134011904D01*
X122727676Y-134011904D02*
X122822914Y-133964285D01*
X122822914Y-133964285D02*
X123013390Y-133916666D01*
X123013390Y-133916666D02*
X123156247Y-133916666D01*
X123156247Y-133916666D02*
X123346723Y-133964285D01*
X123346723Y-133964285D02*
X123441961Y-134011904D01*
X123441961Y-134011904D02*
X123537200Y-134107142D01*
X123537200Y-134107142D02*
X123584819Y-134249999D01*
X123584819Y-134249999D02*
X123584819Y-134488094D01*
X123584819Y-132964285D02*
X123584819Y-133535713D01*
X123584819Y-133249999D02*
X122584819Y-133249999D01*
X122584819Y-133249999D02*
X122727676Y-133345237D01*
X122727676Y-133345237D02*
X122822914Y-133440475D01*
X122822914Y-133440475D02*
X122870533Y-133535713D01*
X121357142Y-74609580D02*
X121309523Y-74657200D01*
X121309523Y-74657200D02*
X121166666Y-74704819D01*
X121166666Y-74704819D02*
X121071428Y-74704819D01*
X121071428Y-74704819D02*
X120928571Y-74657200D01*
X120928571Y-74657200D02*
X120833333Y-74561961D01*
X120833333Y-74561961D02*
X120785714Y-74466723D01*
X120785714Y-74466723D02*
X120738095Y-74276247D01*
X120738095Y-74276247D02*
X120738095Y-74133390D01*
X120738095Y-74133390D02*
X120785714Y-73942914D01*
X120785714Y-73942914D02*
X120833333Y-73847676D01*
X120833333Y-73847676D02*
X120928571Y-73752438D01*
X120928571Y-73752438D02*
X121071428Y-73704819D01*
X121071428Y-73704819D02*
X121166666Y-73704819D01*
X121166666Y-73704819D02*
X121309523Y-73752438D01*
X121309523Y-73752438D02*
X121357142Y-73800057D01*
X122309523Y-74704819D02*
X121738095Y-74704819D01*
X122023809Y-74704819D02*
X122023809Y-73704819D01*
X122023809Y-73704819D02*
X121928571Y-73847676D01*
X121928571Y-73847676D02*
X121833333Y-73942914D01*
X121833333Y-73942914D02*
X121738095Y-73990533D01*
X123261904Y-74704819D02*
X122690476Y-74704819D01*
X122976190Y-74704819D02*
X122976190Y-73704819D01*
X122976190Y-73704819D02*
X122880952Y-73847676D01*
X122880952Y-73847676D02*
X122785714Y-73942914D01*
X122785714Y-73942914D02*
X122690476Y-73990533D01*
X121357142Y-59859580D02*
X121309523Y-59907200D01*
X121309523Y-59907200D02*
X121166666Y-59954819D01*
X121166666Y-59954819D02*
X121071428Y-59954819D01*
X121071428Y-59954819D02*
X120928571Y-59907200D01*
X120928571Y-59907200D02*
X120833333Y-59811961D01*
X120833333Y-59811961D02*
X120785714Y-59716723D01*
X120785714Y-59716723D02*
X120738095Y-59526247D01*
X120738095Y-59526247D02*
X120738095Y-59383390D01*
X120738095Y-59383390D02*
X120785714Y-59192914D01*
X120785714Y-59192914D02*
X120833333Y-59097676D01*
X120833333Y-59097676D02*
X120928571Y-59002438D01*
X120928571Y-59002438D02*
X121071428Y-58954819D01*
X121071428Y-58954819D02*
X121166666Y-58954819D01*
X121166666Y-58954819D02*
X121309523Y-59002438D01*
X121309523Y-59002438D02*
X121357142Y-59050057D01*
X122309523Y-59954819D02*
X121738095Y-59954819D01*
X122023809Y-59954819D02*
X122023809Y-58954819D01*
X122023809Y-58954819D02*
X121928571Y-59097676D01*
X121928571Y-59097676D02*
X121833333Y-59192914D01*
X121833333Y-59192914D02*
X121738095Y-59240533D01*
X122928571Y-58954819D02*
X123023809Y-58954819D01*
X123023809Y-58954819D02*
X123119047Y-59002438D01*
X123119047Y-59002438D02*
X123166666Y-59050057D01*
X123166666Y-59050057D02*
X123214285Y-59145295D01*
X123214285Y-59145295D02*
X123261904Y-59335771D01*
X123261904Y-59335771D02*
X123261904Y-59573866D01*
X123261904Y-59573866D02*
X123214285Y-59764342D01*
X123214285Y-59764342D02*
X123166666Y-59859580D01*
X123166666Y-59859580D02*
X123119047Y-59907200D01*
X123119047Y-59907200D02*
X123023809Y-59954819D01*
X123023809Y-59954819D02*
X122928571Y-59954819D01*
X122928571Y-59954819D02*
X122833333Y-59907200D01*
X122833333Y-59907200D02*
X122785714Y-59859580D01*
X122785714Y-59859580D02*
X122738095Y-59764342D01*
X122738095Y-59764342D02*
X122690476Y-59573866D01*
X122690476Y-59573866D02*
X122690476Y-59335771D01*
X122690476Y-59335771D02*
X122738095Y-59145295D01*
X122738095Y-59145295D02*
X122785714Y-59050057D01*
X122785714Y-59050057D02*
X122833333Y-59002438D01*
X122833333Y-59002438D02*
X122928571Y-58954819D01*
X142083333Y-71429580D02*
X142035714Y-71477200D01*
X142035714Y-71477200D02*
X141892857Y-71524819D01*
X141892857Y-71524819D02*
X141797619Y-71524819D01*
X141797619Y-71524819D02*
X141654762Y-71477200D01*
X141654762Y-71477200D02*
X141559524Y-71381961D01*
X141559524Y-71381961D02*
X141511905Y-71286723D01*
X141511905Y-71286723D02*
X141464286Y-71096247D01*
X141464286Y-71096247D02*
X141464286Y-70953390D01*
X141464286Y-70953390D02*
X141511905Y-70762914D01*
X141511905Y-70762914D02*
X141559524Y-70667676D01*
X141559524Y-70667676D02*
X141654762Y-70572438D01*
X141654762Y-70572438D02*
X141797619Y-70524819D01*
X141797619Y-70524819D02*
X141892857Y-70524819D01*
X141892857Y-70524819D02*
X142035714Y-70572438D01*
X142035714Y-70572438D02*
X142083333Y-70620057D01*
X142416667Y-70524819D02*
X143083333Y-70524819D01*
X143083333Y-70524819D02*
X142654762Y-71524819D01*
X152083333Y-70429580D02*
X152035714Y-70477200D01*
X152035714Y-70477200D02*
X151892857Y-70524819D01*
X151892857Y-70524819D02*
X151797619Y-70524819D01*
X151797619Y-70524819D02*
X151654762Y-70477200D01*
X151654762Y-70477200D02*
X151559524Y-70381961D01*
X151559524Y-70381961D02*
X151511905Y-70286723D01*
X151511905Y-70286723D02*
X151464286Y-70096247D01*
X151464286Y-70096247D02*
X151464286Y-69953390D01*
X151464286Y-69953390D02*
X151511905Y-69762914D01*
X151511905Y-69762914D02*
X151559524Y-69667676D01*
X151559524Y-69667676D02*
X151654762Y-69572438D01*
X151654762Y-69572438D02*
X151797619Y-69524819D01*
X151797619Y-69524819D02*
X151892857Y-69524819D01*
X151892857Y-69524819D02*
X152035714Y-69572438D01*
X152035714Y-69572438D02*
X152083333Y-69620057D01*
X152988095Y-69524819D02*
X152511905Y-69524819D01*
X152511905Y-69524819D02*
X152464286Y-70001009D01*
X152464286Y-70001009D02*
X152511905Y-69953390D01*
X152511905Y-69953390D02*
X152607143Y-69905771D01*
X152607143Y-69905771D02*
X152845238Y-69905771D01*
X152845238Y-69905771D02*
X152940476Y-69953390D01*
X152940476Y-69953390D02*
X152988095Y-70001009D01*
X152988095Y-70001009D02*
X153035714Y-70096247D01*
X153035714Y-70096247D02*
X153035714Y-70334342D01*
X153035714Y-70334342D02*
X152988095Y-70429580D01*
X152988095Y-70429580D02*
X152940476Y-70477200D01*
X152940476Y-70477200D02*
X152845238Y-70524819D01*
X152845238Y-70524819D02*
X152607143Y-70524819D01*
X152607143Y-70524819D02*
X152511905Y-70477200D01*
X152511905Y-70477200D02*
X152464286Y-70429580D01*
D12*
%TO.C,U5*%
X138640000Y-97390000D02*
X138640000Y-98090000D01*
X138640000Y-111610000D02*
X138640000Y-110910000D01*
X139340000Y-97390000D02*
X138640000Y-97390000D01*
X139340000Y-111610000D02*
X138640000Y-111610000D01*
X152160000Y-97390000D02*
X152860000Y-97390000D01*
X152160000Y-111610000D02*
X152860000Y-111610000D01*
X152860000Y-97390000D02*
X152860000Y-98090000D01*
X152860000Y-111610000D02*
X152860000Y-110910000D01*
X138012500Y-98090000D02*
X137672500Y-97620000D01*
X138352500Y-97620000D01*
X138012500Y-98090000D01*
G36*
X138012500Y-98090000D02*
G01*
X137672500Y-97620000D01*
X138352500Y-97620000D01*
X138012500Y-98090000D01*
G37*
%TO.C,U4*%
X127120000Y-66675000D02*
X127120000Y-71316000D01*
X123851000Y-66675000D02*
X123851000Y-68185000D01*
X120150000Y-66675000D02*
X120150000Y-68185000D01*
X116880000Y-71316000D02*
X127120000Y-71316000D01*
X116880000Y-68185000D02*
X127120000Y-68185000D01*
X116880000Y-66675000D02*
X127120000Y-66675000D01*
X116880000Y-66675000D02*
X116880000Y-71316000D01*
D11*
%TO.C,U1*%
X145749999Y-67225000D02*
X145749999Y-66975001D01*
X145999999Y-67225000D02*
X145749999Y-67225000D01*
X152750001Y-67225000D02*
X152500001Y-67225000D01*
X152750001Y-67225000D02*
X152750001Y-66975001D01*
X145749999Y-62474999D02*
X145749999Y-62225000D01*
X152750001Y-62474999D02*
X152750001Y-62225000D01*
X145999999Y-62225000D02*
X145749999Y-62225000D01*
X152750001Y-62225000D02*
X152500001Y-62225000D01*
D13*
X146625001Y-68481066D02*
G75*
G02*
X146374999Y-68481066I-125001J0D01*
G01*
X146374999Y-68481066D02*
G75*
G02*
X146625001Y-68481066I125001J0D01*
G01*
D12*
%TO.C,R12*%
X175790000Y-75110000D02*
X177710000Y-75110000D01*
X177710000Y-75110000D02*
X177710000Y-72250000D01*
X175790000Y-72250000D02*
X175790000Y-75110000D01*
%TO.C,R11*%
X177710000Y-65390000D02*
X175790000Y-65390000D01*
X175790000Y-65390000D02*
X175790000Y-68250000D01*
X177710000Y-68250000D02*
X177710000Y-65390000D01*
%TO.C,R10*%
X169790000Y-75110000D02*
X171710000Y-75110000D01*
X171710000Y-75110000D02*
X171710000Y-72250000D01*
X169790000Y-72250000D02*
X169790000Y-75110000D01*
%TO.C,R9*%
X171710000Y-65390000D02*
X169790000Y-65390000D01*
X169790000Y-65390000D02*
X169790000Y-68250000D01*
X171710000Y-68250000D02*
X171710000Y-65390000D01*
%TO.C,R8*%
X163790000Y-75110000D02*
X165710000Y-75110000D01*
X165710000Y-75110000D02*
X165710000Y-72250000D01*
X163790000Y-72250000D02*
X163790000Y-75110000D01*
%TO.C,R7*%
X165710000Y-65390000D02*
X163790000Y-65390000D01*
X163790000Y-65390000D02*
X163790000Y-68250000D01*
X165710000Y-68250000D02*
X165710000Y-65390000D01*
%TO.C,R6*%
X153710000Y-123890000D02*
X151790000Y-123890000D01*
X151790000Y-123890000D02*
X151790000Y-126750000D01*
X153710000Y-126750000D02*
X153710000Y-123890000D01*
%TO.C,R5*%
X144710000Y-123890000D02*
X142790000Y-123890000D01*
X142790000Y-123890000D02*
X142790000Y-126750000D01*
X144710000Y-126750000D02*
X144710000Y-123890000D01*
%TO.C,R4*%
X135710000Y-123890000D02*
X133790000Y-123890000D01*
X133790000Y-123890000D02*
X133790000Y-126750000D01*
X135710000Y-126750000D02*
X135710000Y-123890000D01*
%TO.C,R3*%
X126710000Y-123890000D02*
X124790000Y-123890000D01*
X124790000Y-123890000D02*
X124790000Y-126750000D01*
X126710000Y-126750000D02*
X126710000Y-123890000D01*
%TO.C,R2*%
X131110000Y-93960000D02*
X131110000Y-92040000D01*
X131110000Y-92040000D02*
X128250000Y-92040000D01*
X128250000Y-93960000D02*
X131110000Y-93960000D01*
%TO.C,R1*%
X129477064Y-107735000D02*
X129022936Y-107735000D01*
X129477064Y-106265000D02*
X129022936Y-106265000D01*
%TO.C,L1*%
X147662779Y-72510000D02*
X147337221Y-72510000D01*
X147662779Y-71490000D02*
X147337221Y-71490000D01*
%TO.C,BOOT*%
X131850000Y-95550000D02*
X131850000Y-94950000D01*
X132550000Y-94250000D02*
X133950000Y-94250000D01*
X133950000Y-96250000D02*
X132550000Y-96250000D01*
X134650000Y-94950000D02*
X134650000Y-95550000D01*
X131850000Y-94950000D02*
G75*
G02*
X132550000Y-94250000I699999J1D01*
G01*
X132550000Y-96250000D02*
G75*
G02*
X131850000Y-95550000I-1J699999D01*
G01*
X133950000Y-94250000D02*
G75*
G02*
X134650000Y-94950000I0J-700000D01*
G01*
X134650000Y-95550000D02*
G75*
G02*
X133950000Y-96250000I-700000J0D01*
G01*
%TO.C,J7*%
X184920000Y-65790000D02*
X186250000Y-65790000D01*
X184920000Y-67120000D02*
X184920000Y-65790000D01*
X184920000Y-68390000D02*
X184920000Y-137030000D01*
X184920000Y-68390000D02*
X187580000Y-68390000D01*
X184920000Y-137030000D02*
X187580000Y-137030000D01*
X187580000Y-68390000D02*
X187580000Y-137030000D01*
%TO.C,J6*%
X116170000Y-108765000D02*
X116170000Y-103625000D01*
X118830000Y-103625000D02*
X116170000Y-103625000D01*
X118830000Y-108765000D02*
X116170000Y-108765000D01*
X118830000Y-108765000D02*
X118830000Y-103625000D01*
X118830000Y-110035000D02*
X118830000Y-111365000D01*
X118830000Y-111365000D02*
X117500000Y-111365000D01*
%TO.C,J5*%
X116170000Y-95140000D02*
X116170000Y-84920000D01*
X118830000Y-84920000D02*
X116170000Y-84920000D01*
X118830000Y-95140000D02*
X116170000Y-95140000D01*
X118830000Y-95140000D02*
X118830000Y-84920000D01*
X118830000Y-96410000D02*
X118830000Y-97740000D01*
X118830000Y-97740000D02*
X117500000Y-97740000D01*
%TO.C,J4*%
X196170000Y-86670000D02*
X197500000Y-86670000D01*
X196170000Y-88000000D02*
X196170000Y-86670000D01*
X196170000Y-89270000D02*
X196170000Y-107110000D01*
X196170000Y-89270000D02*
X198830000Y-89270000D01*
X196170000Y-107110000D02*
X198830000Y-107110000D01*
X198830000Y-89270000D02*
X198830000Y-107110000D01*
%TO.C,J3*%
X198830000Y-63160000D02*
X197500000Y-63160000D01*
X198830000Y-61830000D02*
X198830000Y-63160000D01*
X198830000Y-60560000D02*
X198830000Y-55420000D01*
X198830000Y-60560000D02*
X196170000Y-60560000D01*
X198830000Y-55420000D02*
X196170000Y-55420000D01*
X196170000Y-60560000D02*
X196170000Y-55420000D01*
%TO.C,J2*%
X174410000Y-116630000D02*
X174410000Y-117960000D01*
X173080000Y-116630000D02*
X174410000Y-116630000D01*
X171810000Y-116630000D02*
X164130000Y-116630000D01*
X171810000Y-116630000D02*
X171810000Y-119230000D01*
X164130000Y-116630000D02*
X164130000Y-121830000D01*
X174410000Y-119230000D02*
X174410000Y-121830000D01*
X171810000Y-119230000D02*
X174410000Y-119230000D01*
X174410000Y-121830000D02*
X164130000Y-121830000D01*
%TO.C,J1*%
X127210000Y-52790000D02*
X127210000Y-58210000D01*
X118490000Y-58210000D02*
X127210000Y-58210000D01*
X118490000Y-52790000D02*
X127210000Y-52790000D01*
X116790000Y-56910000D02*
X118490000Y-58210000D01*
X116790000Y-54090000D02*
X118490000Y-52790000D01*
X116790000Y-54090000D02*
X116790000Y-56910000D01*
%TO.C,D4*%
X150805000Y-137760000D02*
X154675000Y-137760000D01*
X154675000Y-137760000D02*
X154675000Y-130600000D01*
X150805000Y-130600000D02*
X150805000Y-137760000D01*
%TO.C,D3*%
X141815000Y-137760000D02*
X145685000Y-137760000D01*
X145685000Y-137760000D02*
X145685000Y-130600000D01*
X141815000Y-130600000D02*
X141815000Y-137760000D01*
%TO.C,D2*%
X132815000Y-137760000D02*
X136685000Y-137760000D01*
X136685000Y-137760000D02*
X136685000Y-130600000D01*
X132815000Y-130600000D02*
X132815000Y-137760000D01*
%TO.C,D1*%
X123815000Y-137760000D02*
X127685000Y-137760000D01*
X127685000Y-137760000D02*
X127685000Y-130600000D01*
X123815000Y-130600000D02*
X123815000Y-137760000D01*
%TO.C,C11*%
X119000000Y-78460000D02*
X125935000Y-78460000D01*
X125935000Y-75040000D02*
X119000000Y-75040000D01*
X125935000Y-78460000D02*
X125935000Y-75040000D01*
%TO.C,C10*%
X119000000Y-63710000D02*
X125935000Y-63710000D01*
X125935000Y-60290000D02*
X119000000Y-60290000D01*
X125935000Y-63710000D02*
X125935000Y-60290000D01*
%TO.C,C7*%
X141988748Y-72015000D02*
X142511252Y-72015000D01*
X141988748Y-73485000D02*
X142511252Y-73485000D01*
%TO.C,C5*%
X151988748Y-71015000D02*
X152511252Y-71015000D01*
X151988748Y-72485000D02*
X152511252Y-72485000D01*
%TD*%
M02*
