%TF.GenerationSoftware,KiCad,Pcbnew,8.0.7*%
%TF.CreationDate,2025-04-02T17:47:29-05:00*%
%TF.ProjectId,FinalBoard,46696e61-6c42-46f6-9172-642e6b696361,rev?*%
%TF.SameCoordinates,Original*%
%TF.FileFunction,Paste,Top*%
%TF.FilePolarity,Positive*%
%FSLAX46Y46*%
G04 Gerber Fmt 4.6, Leading zero omitted, Abs format (unit mm)*
G04 Created by KiCad (PCBNEW 8.0.7) date 2025-04-02 17:47:29*
%MOMM*%
%LPD*%
G01*
G04 APERTURE LIST*
G04 Aperture macros list*
%AMRoundRect*
0 Rectangle with rounded corners*
0 $1 Rounding radius*
0 $2 $3 $4 $5 $6 $7 $8 $9 X,Y pos of 4 corners*
0 Add a 4 corners polygon primitive as box body*
4,1,4,$2,$3,$4,$5,$6,$7,$8,$9,$2,$3,0*
0 Add four circle primitives for the rounded corners*
1,1,$1+$1,$2,$3*
1,1,$1+$1,$4,$5*
1,1,$1+$1,$6,$7*
1,1,$1+$1,$8,$9*
0 Add four rect primitives between the rounded corners*
20,1,$1+$1,$2,$3,$4,$5,0*
20,1,$1+$1,$4,$5,$6,$7,0*
20,1,$1+$1,$6,$7,$8,$9,0*
20,1,$1+$1,$8,$9,$2,$3,0*%
G04 Aperture macros list end*
%ADD10C,0.000000*%
%ADD11RoundRect,0.075000X-0.725000X-0.075000X0.725000X-0.075000X0.725000X0.075000X-0.725000X0.075000X0*%
%ADD12RoundRect,0.075000X-0.075000X-0.725000X0.075000X-0.725000X0.075000X0.725000X-0.075000X0.725000X0*%
%ADD13R,0.242473X0.906066*%
%ADD14R,0.906066X0.242473*%
%ADD15R,0.906064X0.242472*%
%ADD16RoundRect,0.250000X0.450000X-0.325000X0.450000X0.325000X-0.450000X0.325000X-0.450000X-0.325000X0*%
%ADD17RoundRect,0.250000X-0.450000X0.325000X-0.450000X-0.325000X0.450000X-0.325000X0.450000X0.325000X0*%
%ADD18RoundRect,0.250000X0.325000X0.450000X-0.325000X0.450000X-0.325000X-0.450000X0.325000X-0.450000X0*%
%ADD19RoundRect,0.250000X0.350000X0.450000X-0.350000X0.450000X-0.350000X-0.450000X0.350000X-0.450000X0*%
%ADD20RoundRect,0.218750X0.218750X0.256250X-0.218750X0.256250X-0.218750X-0.256250X0.218750X-0.256250X0*%
%ADD21RoundRect,0.249999X1.425001X-0.512501X1.425001X0.512501X-1.425001X0.512501X-1.425001X-0.512501X0*%
%ADD22RoundRect,0.250000X0.875000X0.925000X-0.875000X0.925000X-0.875000X-0.925000X0.875000X-0.925000X0*%
%ADD23RoundRect,0.250000X-0.337500X-0.475000X0.337500X-0.475000X0.337500X0.475000X-0.337500X0.475000X0*%
G04 APERTURE END LIST*
D10*
%TO.C,U1*%
G36*
X148939132Y-66003268D02*
G01*
X146971732Y-66003268D01*
X146971732Y-63446732D01*
X148939132Y-63446732D01*
X148939132Y-66003268D01*
G37*
G36*
X151528266Y-66003268D02*
G01*
X149560866Y-66003268D01*
X149560866Y-63446732D01*
X151528266Y-63446732D01*
X151528266Y-66003268D01*
G37*
%TD*%
D11*
%TO.C,U5*%
X138075000Y-98500000D03*
X138075000Y-99000000D03*
X138075000Y-99500000D03*
X138075000Y-100000000D03*
X138075000Y-100500000D03*
X138075000Y-101000000D03*
X138075000Y-101500000D03*
X138075000Y-102000000D03*
X138075000Y-102500000D03*
X138075000Y-103000000D03*
X138075000Y-103500000D03*
X138075000Y-104000000D03*
X138075000Y-104500000D03*
X138075000Y-105000000D03*
X138075000Y-105500000D03*
X138075000Y-106000000D03*
X138075000Y-106500000D03*
X138075000Y-107000000D03*
X138075000Y-107500000D03*
X138075000Y-108000000D03*
X138075000Y-108500000D03*
X138075000Y-109000000D03*
X138075000Y-109500000D03*
X138075000Y-110000000D03*
X138075000Y-110500000D03*
D12*
X139750000Y-112175000D03*
X140250000Y-112175000D03*
X140750000Y-112175000D03*
X141250000Y-112175000D03*
X141750000Y-112175000D03*
X142250000Y-112175000D03*
X142750000Y-112175000D03*
X143250000Y-112175000D03*
X143750000Y-112175000D03*
X144250000Y-112175000D03*
X144750000Y-112175000D03*
X145250000Y-112175000D03*
X145750000Y-112175000D03*
X146250000Y-112175000D03*
X146750000Y-112175000D03*
X147250000Y-112175000D03*
X147750000Y-112175000D03*
X148250000Y-112175000D03*
X148750000Y-112175000D03*
X149250000Y-112175000D03*
X149750000Y-112175000D03*
X150250000Y-112175000D03*
X150750000Y-112175000D03*
X151250000Y-112175000D03*
X151750000Y-112175000D03*
D11*
X153425000Y-110500000D03*
X153425000Y-110000000D03*
X153425000Y-109500000D03*
X153425000Y-109000000D03*
X153425000Y-108500000D03*
X153425000Y-108000000D03*
X153425000Y-107500000D03*
X153425000Y-107000000D03*
X153425000Y-106500000D03*
X153425000Y-106000000D03*
X153425000Y-105500000D03*
X153425000Y-105000000D03*
X153425000Y-104500000D03*
X153425000Y-104000000D03*
X153425000Y-103500000D03*
X153425000Y-103000000D03*
X153425000Y-102500000D03*
X153425000Y-102000000D03*
X153425000Y-101500000D03*
X153425000Y-101000000D03*
X153425000Y-100500000D03*
X153425000Y-100000000D03*
X153425000Y-99500000D03*
X153425000Y-99000000D03*
X153425000Y-98500000D03*
D12*
X151750000Y-96825000D03*
X151250000Y-96825000D03*
X150750000Y-96825000D03*
X150250000Y-96825000D03*
X149750000Y-96825000D03*
X149250000Y-96825000D03*
X148750000Y-96825000D03*
X148250000Y-96825000D03*
X147750000Y-96825000D03*
X147250000Y-96825000D03*
X146750000Y-96825000D03*
X146250000Y-96825000D03*
X145750000Y-96825000D03*
X145250000Y-96825000D03*
X144750000Y-96825000D03*
X144250000Y-96825000D03*
X143750000Y-96825000D03*
X143250000Y-96825000D03*
X142750000Y-96825000D03*
X142250000Y-96825000D03*
X141750000Y-96825000D03*
X141250000Y-96825000D03*
X140750000Y-96825000D03*
X140250000Y-96825000D03*
X139750000Y-96825000D03*
%TD*%
D13*
%TO.C,U1*%
X146500000Y-67228033D03*
X146999999Y-67228033D03*
X147500001Y-67228033D03*
X148000000Y-67228033D03*
X148499999Y-67228033D03*
X149000000Y-67228033D03*
X149500000Y-67228033D03*
X150000001Y-67228033D03*
X150500000Y-67228033D03*
X150999999Y-67228033D03*
X151500001Y-67228033D03*
X152000000Y-67228033D03*
D14*
X152753033Y-66474999D03*
X152753033Y-65975000D03*
X152753033Y-65475001D03*
X152753033Y-64975000D03*
X152753033Y-64475000D03*
X152753033Y-63974999D03*
X152753033Y-63475000D03*
X152753033Y-62975001D03*
D13*
X152000000Y-62221967D03*
X151500001Y-62221967D03*
X150999999Y-62221967D03*
X150500000Y-62221967D03*
X150000001Y-62221967D03*
X149500000Y-62221967D03*
X149000000Y-62221967D03*
X148499999Y-62221967D03*
X148000000Y-62221967D03*
X147500001Y-62221967D03*
X146999999Y-62221967D03*
X146500000Y-62221967D03*
D14*
X145746967Y-62975001D03*
X145746967Y-63475000D03*
X145746967Y-63974999D03*
X145746967Y-64475000D03*
X145746967Y-64975000D03*
X145746967Y-65475001D03*
X145746967Y-65975000D03*
D15*
X145746968Y-66474999D03*
%TD*%
D16*
%TO.C,R12*%
X176750000Y-74275000D03*
X176750000Y-72225000D03*
%TD*%
D17*
%TO.C,R11*%
X176750000Y-66225000D03*
X176750000Y-68275000D03*
%TD*%
D16*
%TO.C,R10*%
X170750000Y-74275000D03*
X170750000Y-72225000D03*
%TD*%
D17*
%TO.C,R9*%
X170750000Y-66225000D03*
X170750000Y-68275000D03*
%TD*%
D16*
%TO.C,R8*%
X164750000Y-74275000D03*
X164750000Y-72225000D03*
%TD*%
D17*
%TO.C,R7*%
X164750000Y-66225000D03*
X164750000Y-68275000D03*
%TD*%
%TO.C,R6*%
X152750000Y-124725000D03*
X152750000Y-126775000D03*
%TD*%
%TO.C,R5*%
X143750000Y-124725000D03*
X143750000Y-126775000D03*
%TD*%
%TO.C,R4*%
X134750000Y-124725000D03*
X134750000Y-126775000D03*
%TD*%
%TO.C,R3*%
X125750000Y-124725000D03*
X125750000Y-126775000D03*
%TD*%
D18*
%TO.C,R2*%
X130275000Y-93000000D03*
X128225000Y-93000000D03*
%TD*%
D19*
%TO.C,R1*%
X130250000Y-107000000D03*
X128250000Y-107000000D03*
%TD*%
D20*
%TO.C,L1*%
X148287500Y-72000000D03*
X146712500Y-72000000D03*
%TD*%
D21*
%TO.C,D4*%
X152740000Y-136737500D03*
X152740000Y-130762500D03*
%TD*%
%TO.C,D3*%
X143750000Y-136737500D03*
X143750000Y-130762500D03*
%TD*%
%TO.C,D2*%
X134750000Y-136737500D03*
X134750000Y-130762500D03*
%TD*%
%TO.C,D1*%
X125750000Y-136737500D03*
X125750000Y-130762500D03*
%TD*%
D22*
%TO.C,C11*%
X119450000Y-76750000D03*
X124550000Y-76750000D03*
%TD*%
%TO.C,C10*%
X119450000Y-62000000D03*
X124550000Y-62000000D03*
%TD*%
D23*
%TO.C,C7*%
X141212500Y-72750000D03*
X143287500Y-72750000D03*
%TD*%
%TO.C,C5*%
X151212500Y-71750000D03*
X153287500Y-71750000D03*
%TD*%
M02*
