M48
; DRILL file {KiCad 8.0.7} date 2025-04-02T17:47:26-0500
; FORMAT={-:-/ absolute / inch / decimal}
; #@! TF.CreationDate,2025-04-02T17:47:26-05:00
; #@! TF.GenerationSoftware,Kicad,Pcbnew,8.0.7
; #@! TF.FileFunction,Plated,1,4,PTH
FMAT,2
INCH
; #@! TA.AperFunction,Plated,PTH,ViaDrill
T1C0.0138
; #@! TA.AperFunction,Plated,PTH,ComponentDrill
T2C0.0394
; #@! TA.AperFunction,Plated,PTH,ComponentDrill
T3C0.0433
; #@! TA.AperFunction,Plated,PTH,ComponentDrill
T4C0.0709
%
G90
G05
T1
X4.6752Y-2.4016
X4.6752Y-2.4311
X4.6752Y-2.4606
X4.7047Y-2.4016
X4.7047Y-2.4311
X4.7047Y-2.4606
X4.7343Y-2.4016
X4.7343Y-2.4311
X4.7343Y-2.4606
X4.872Y-2.4016
X4.872Y-2.4311
X4.872Y-2.4606
X4.9016Y-2.4016
X4.9016Y-2.4311
X4.9016Y-2.4606
X4.9311Y-2.4016
X4.9311Y-2.4311
X4.9311Y-2.4606
X4.9508Y-4.9104
X5.0492Y-4.2028
X5.2411Y-4.1559
X5.2753Y-4.1979
X5.2953Y-3.8878
X5.3003Y-4.2104
X5.3051Y-3.9222
X5.315Y-4.1043
X5.327Y-3.8142
X5.3346Y-3.9469
X5.3432Y-4.0763
X5.3494Y-4.2899
X5.3494Y-4.3716
X5.3543Y-2.4016
X5.3543Y-2.4409
X5.3543Y-3.8632
X5.3627Y-3.7795
X5.3642Y-3.9715
X5.3674Y-4.1211
X5.3705Y-4.2451
X5.3789Y-2.4163
X5.3839Y-2.372
X5.4035Y-2.3917
X5.4035Y-2.4409
X5.4232Y-2.372
X5.4232Y-2.4114
X5.4444Y-3.7795
X5.4783Y-4.076
X5.4867Y-4.1313
X5.5103Y-3.8878
X5.5154Y-4.1723
X5.5315Y-3.75
X5.5413Y-2.8839
X5.5512Y-2.6491
X5.5709Y-2.8839
X5.5816Y-3.759
X5.5906Y-3.8878
X5.6102Y-3.9469
X5.6254Y-3.7335
X5.6351Y-2.5561
X5.6383Y-4.5079
X5.6621Y-3.8806
X5.664Y-2.5561
X5.683Y-3.9015
X5.6939Y-3.6516
X5.6988Y-2.5591
X5.6988Y-3.7205
X5.7087Y-2.7146
X5.7117Y-3.9082
X5.7136Y-4.5079
X5.7164Y-3.8649
X5.7265Y-2.4428
X5.7265Y-2.3112
X5.7283Y-3.6516
X5.7358Y-2.4123
X5.7559Y-3.9653
X5.7576Y-2.7126
X5.7653Y-2.412
X5.7686Y-2.2942
X5.7785Y-3.9474
X5.7845Y-3.9791
X5.7924Y-3.6891
X5.7954Y-2.7479
X5.7972Y-3.9272
X5.8096Y-2.2597
X5.8182Y-2.7297
X5.8238Y-2.372
X5.826Y-3.9338
X5.828Y-4.3196
X5.831Y-3.8925
X5.8497Y-2.3144
X5.8513Y-3.9111
X5.8542Y-3.8776
X5.8563Y-2.5197
X5.8563Y-2.5492
X5.8563Y-2.5787
X5.8563Y-4.6555
X5.8563Y-4.7441
X5.8565Y-2.2313
X5.8661Y-4.2717
X5.8661Y-4.7047
X5.8777Y-2.2108
X5.8785Y-3.9173
X5.8858Y-2.5197
X5.8858Y-2.5492
X5.8858Y-2.5787
X5.8957Y-2.372
X5.9006Y-2.3228
X5.904Y-4.5079
X5.9089Y-3.9564
X5.9154Y-2.4902
X5.9154Y-2.5197
X5.9154Y-2.5492
X5.9154Y-2.5787
X5.9305Y-2.6401
X5.9308Y-2.6639
X5.9336Y-2.3848
X5.9449Y-2.4902
X5.9449Y-2.5197
X5.9541Y-4.3343
X5.9547Y-2.6645
X5.9547Y-2.3524
X5.9547Y-2.6401
X5.9591Y-4.3052
X5.9646Y-2.687
X5.9744Y-2.4902
X5.9744Y-2.5197
X5.9828Y-4.2876
X5.9857Y-4.5079
X5.9895Y-3.9137
X5.9896Y-4.2589
X5.9941Y-4.1339
X5.9961Y-3.6211
X6.0138Y-2.5492
X6.0138Y-2.6083
X6.0236Y-2.4902
X6.0236Y-2.6772
X6.0358Y-3.6388
X6.0433Y-2.5492
X6.0433Y-2.6083
X6.0728Y-2.5492
X6.0728Y-2.6083
X6.0743Y-2.4222
X6.0752Y-2.489
X6.0908Y-2.4593
X6.1024Y-2.4902
X6.1024Y-2.5492
X6.1024Y-2.6083
X6.1107Y-4.1339
X6.1208Y-4.2741
X6.1277Y-3.6554
X6.1319Y-3.8273
X6.1319Y-4.0733
X6.1327Y-4.2088
X6.1516Y-3.6909
X6.1565Y-3.9055
X6.1811Y-4.0748
X6.1811Y-4.1535
X6.1943Y-4.18
X6.2183Y-4.0762
X6.2391Y-4.247
X6.2791Y-4.0744
X6.3244Y-3.7614
X6.3287Y-4.3012
X6.4022Y-3.7451
X6.4764Y-3.7205
X6.4862Y-2.6161
X6.6467Y-3.9642
X6.6683Y-4.0699
X6.7224Y-2.5295
X6.7618Y-3.8976
X6.8652Y-2.436
X6.9783Y-3.7402
X7.1949Y-4.3996
X7.4508Y-4.1339
X7.4902Y-4.1535
T2
X4.626Y-3.3957
X4.626Y-3.4957
X4.626Y-3.5957
X4.626Y-3.6957
X4.626Y-3.7957
X4.626Y-4.1321
X4.626Y-4.2321
X4.626Y-4.3321
X6.5142Y-4.6441
X6.5142Y-4.7441
X6.6142Y-4.6441
X6.6142Y-4.7441
X6.7142Y-4.6441
X6.7142Y-4.7441
X6.8142Y-4.6441
X6.8142Y-4.7441
X7.3327Y-2.6425
X7.3327Y-2.7425
X7.3327Y-2.8425
X7.3327Y-2.9425
X7.3327Y-3.0425
X7.3327Y-3.1425
X7.3327Y-3.2425
X7.3327Y-3.3425
X7.3327Y-3.4425
X7.3327Y-3.5425
X7.3327Y-3.6425
X7.3327Y-3.7425
X7.3327Y-3.8425
X7.3327Y-3.9425
X7.3327Y-4.0425
X7.3327Y-4.1425
X7.3327Y-4.2425
X7.3327Y-4.3425
X7.3327Y-4.4425
X7.3327Y-4.5425
X7.3327Y-4.6425
X7.3327Y-4.7425
X7.3327Y-4.8425
X7.3327Y-4.9425
X7.3327Y-5.0425
X7.3327Y-5.1425
X7.3327Y-5.2425
X7.3327Y-5.3425
X7.7756Y-2.2343
X7.7756Y-2.3343
X7.7756Y-2.4343
X7.7756Y-3.4646
X7.7756Y-3.5646
X7.7756Y-3.6646
X7.7756Y-3.7646
X7.7756Y-3.8646
X7.7756Y-3.9646
X7.7756Y-4.0646
X7.7756Y-4.1646
T3
X4.7031Y-2.7537
X4.8031Y-2.7537
X4.9031Y-2.7537
T4
X4.7047Y-2.185
X4.9016Y-2.185
M30
