%TF.GenerationSoftware,KiCad,Pcbnew,8.0.7*%
%TF.CreationDate,2025-04-02T17:47:29-05:00*%
%TF.ProjectId,FinalBoard,46696e61-6c42-46f6-9172-642e6b696361,rev?*%
%TF.SameCoordinates,Original*%
%TF.FileFunction,Soldermask,Bot*%
%TF.FilePolarity,Negative*%
%FSLAX46Y46*%
G04 Gerber Fmt 4.6, Leading zero omitted, Abs format (unit mm)*
G04 Created by KiCad (PCBNEW 8.0.7) date 2025-04-02 17:47:29*
%MOMM*%
%LPD*%
G01*
G04 APERTURE LIST*
G04 Aperture macros list*
%AMRoundRect*
0 Rectangle with rounded corners*
0 $1 Rounding radius*
0 $2 $3 $4 $5 $6 $7 $8 $9 X,Y pos of 4 corners*
0 Add a 4 corners polygon primitive as box body*
4,1,4,$2,$3,$4,$5,$6,$7,$8,$9,$2,$3,0*
0 Add four circle primitives for the rounded corners*
1,1,$1+$1,$2,$3*
1,1,$1+$1,$4,$5*
1,1,$1+$1,$6,$7*
1,1,$1+$1,$8,$9*
0 Add four rect primitives between the rounded corners*
20,1,$1+$1,$2,$3,$4,$5,0*
20,1,$1+$1,$4,$5,$6,$7,0*
20,1,$1+$1,$6,$7,$8,$9,0*
20,1,$1+$1,$8,$9,$2,$3,0*%
G04 Aperture macros list end*
%ADD10C,3.200000*%
%ADD11O,1.905000X2.000000*%
%ADD12R,1.905000X2.000000*%
%ADD13R,1.700000X1.700000*%
%ADD14O,1.700000X1.700000*%
%ADD15C,3.000000*%
%ADD16RoundRect,0.750000X-0.750000X-0.750000X0.750000X-0.750000X0.750000X0.750000X-0.750000X0.750000X0*%
%ADD17RoundRect,0.250000X0.337500X0.475000X-0.337500X0.475000X-0.337500X-0.475000X0.337500X-0.475000X0*%
%ADD18RoundRect,0.250000X-0.337500X-0.475000X0.337500X-0.475000X0.337500X0.475000X-0.337500X0.475000X0*%
%ADD19RoundRect,0.250000X-0.475000X0.337500X-0.475000X-0.337500X0.475000X-0.337500X0.475000X0.337500X0*%
%ADD20RoundRect,0.250000X0.475000X-0.337500X0.475000X0.337500X-0.475000X0.337500X-0.475000X-0.337500X0*%
G04 APERTURE END LIST*
D10*
%TO.C,REF\u002A\u002A*%
X167000000Y-55750000D03*
%TD*%
%TO.C,REF\u002A\u002A*%
X131250000Y-73250000D03*
%TD*%
%TO.C,REF\u002A\u002A*%
X119250000Y-135750000D03*
%TD*%
%TO.C,REF\u002A\u002A*%
X195750000Y-135750000D03*
%TD*%
%TO.C,REF\u002A\u002A*%
X195750000Y-68250000D03*
%TD*%
D11*
%TO.C,U4*%
X124540000Y-69945000D03*
X122000000Y-69945000D03*
D12*
X119460000Y-69945000D03*
%TD*%
D13*
%TO.C,J7*%
X186250000Y-67120000D03*
D14*
X186250000Y-69660000D03*
X186250000Y-72200000D03*
X186250000Y-74740000D03*
X186250000Y-77280000D03*
X186250000Y-79820000D03*
X186250000Y-82360000D03*
X186250000Y-84900000D03*
X186250000Y-87440000D03*
X186250000Y-89980000D03*
X186250000Y-92520000D03*
X186250000Y-95060000D03*
X186250000Y-97600000D03*
X186250000Y-100140000D03*
X186250000Y-102680000D03*
X186250000Y-105220000D03*
X186250000Y-107760000D03*
X186250000Y-110300000D03*
X186250000Y-112840000D03*
X186250000Y-115380000D03*
X186250000Y-117920000D03*
X186250000Y-120460000D03*
X186250000Y-123000000D03*
X186250000Y-125540000D03*
X186250000Y-128080000D03*
X186250000Y-130620000D03*
X186250000Y-133160000D03*
X186250000Y-135700000D03*
%TD*%
%TO.C,J6*%
X117500000Y-104955000D03*
X117500000Y-107495000D03*
D13*
X117500000Y-110035000D03*
%TD*%
D14*
%TO.C,J5*%
X117500000Y-86250000D03*
X117500000Y-88790000D03*
X117500000Y-91330000D03*
X117500000Y-93870000D03*
D13*
X117500000Y-96410000D03*
%TD*%
%TO.C,J4*%
X197500000Y-88000000D03*
D14*
X197500000Y-90540000D03*
X197500000Y-93080000D03*
X197500000Y-95620000D03*
X197500000Y-98160000D03*
X197500000Y-100700000D03*
X197500000Y-103240000D03*
X197500000Y-105780000D03*
%TD*%
D13*
%TO.C,J3*%
X197500000Y-61830000D03*
D14*
X197500000Y-59290000D03*
X197500000Y-56750000D03*
%TD*%
D13*
%TO.C,J2*%
X173080000Y-117960000D03*
D14*
X173080000Y-120500000D03*
X170540000Y-117960000D03*
X170540000Y-120500000D03*
X168000000Y-117960000D03*
X168000000Y-120500000D03*
X165460000Y-117960000D03*
X165460000Y-120500000D03*
%TD*%
D15*
%TO.C,J1*%
X124500000Y-55500000D03*
D16*
X119500000Y-55500000D03*
%TD*%
D17*
%TO.C,C16*%
X152037500Y-114500000D03*
X149962500Y-114500000D03*
%TD*%
%TO.C,C15*%
X145287500Y-114500000D03*
X143212500Y-114500000D03*
%TD*%
D18*
%TO.C,C14*%
X139962500Y-98750000D03*
X142037500Y-98750000D03*
%TD*%
%TO.C,C13*%
X136212500Y-96000000D03*
X138287500Y-96000000D03*
%TD*%
D19*
%TO.C,C12*%
X155750000Y-97212500D03*
X155750000Y-99287500D03*
%TD*%
%TO.C,C9*%
X155750000Y-103462500D03*
X155750000Y-105537500D03*
%TD*%
D20*
%TO.C,C8*%
X135750000Y-111037500D03*
X135750000Y-108962500D03*
%TD*%
D17*
%TO.C,C6*%
X151037500Y-60250000D03*
X148962500Y-60250000D03*
%TD*%
D19*
%TO.C,C4*%
X154500000Y-67712500D03*
X154500000Y-69787500D03*
%TD*%
%TO.C,C3*%
X141000000Y-65212500D03*
X141000000Y-67287500D03*
%TD*%
M02*
