%TF.GenerationSoftware,KiCad,Pcbnew,8.0.7*%
%TF.CreationDate,2025-04-02T17:47:29-05:00*%
%TF.ProjectId,FinalBoard,46696e61-6c42-46f6-9172-642e6b696361,rev?*%
%TF.SameCoordinates,Original*%
%TF.FileFunction,Legend,Bot*%
%TF.FilePolarity,Positive*%
%FSLAX46Y46*%
G04 Gerber Fmt 4.6, Leading zero omitted, Abs format (unit mm)*
G04 Created by KiCad (PCBNEW 8.0.7) date 2025-04-02 17:47:29*
%MOMM*%
%LPD*%
G01*
G04 APERTURE LIST*
%ADD10C,0.150000*%
%ADD11C,0.120000*%
G04 APERTURE END LIST*
D10*
X151642857Y-113179580D02*
X151690476Y-113227200D01*
X151690476Y-113227200D02*
X151833333Y-113274819D01*
X151833333Y-113274819D02*
X151928571Y-113274819D01*
X151928571Y-113274819D02*
X152071428Y-113227200D01*
X152071428Y-113227200D02*
X152166666Y-113131961D01*
X152166666Y-113131961D02*
X152214285Y-113036723D01*
X152214285Y-113036723D02*
X152261904Y-112846247D01*
X152261904Y-112846247D02*
X152261904Y-112703390D01*
X152261904Y-112703390D02*
X152214285Y-112512914D01*
X152214285Y-112512914D02*
X152166666Y-112417676D01*
X152166666Y-112417676D02*
X152071428Y-112322438D01*
X152071428Y-112322438D02*
X151928571Y-112274819D01*
X151928571Y-112274819D02*
X151833333Y-112274819D01*
X151833333Y-112274819D02*
X151690476Y-112322438D01*
X151690476Y-112322438D02*
X151642857Y-112370057D01*
X150690476Y-113274819D02*
X151261904Y-113274819D01*
X150976190Y-113274819D02*
X150976190Y-112274819D01*
X150976190Y-112274819D02*
X151071428Y-112417676D01*
X151071428Y-112417676D02*
X151166666Y-112512914D01*
X151166666Y-112512914D02*
X151261904Y-112560533D01*
X149833333Y-112274819D02*
X150023809Y-112274819D01*
X150023809Y-112274819D02*
X150119047Y-112322438D01*
X150119047Y-112322438D02*
X150166666Y-112370057D01*
X150166666Y-112370057D02*
X150261904Y-112512914D01*
X150261904Y-112512914D02*
X150309523Y-112703390D01*
X150309523Y-112703390D02*
X150309523Y-113084342D01*
X150309523Y-113084342D02*
X150261904Y-113179580D01*
X150261904Y-113179580D02*
X150214285Y-113227200D01*
X150214285Y-113227200D02*
X150119047Y-113274819D01*
X150119047Y-113274819D02*
X149928571Y-113274819D01*
X149928571Y-113274819D02*
X149833333Y-113227200D01*
X149833333Y-113227200D02*
X149785714Y-113179580D01*
X149785714Y-113179580D02*
X149738095Y-113084342D01*
X149738095Y-113084342D02*
X149738095Y-112846247D01*
X149738095Y-112846247D02*
X149785714Y-112751009D01*
X149785714Y-112751009D02*
X149833333Y-112703390D01*
X149833333Y-112703390D02*
X149928571Y-112655771D01*
X149928571Y-112655771D02*
X150119047Y-112655771D01*
X150119047Y-112655771D02*
X150214285Y-112703390D01*
X150214285Y-112703390D02*
X150261904Y-112751009D01*
X150261904Y-112751009D02*
X150309523Y-112846247D01*
X144892857Y-113179580D02*
X144940476Y-113227200D01*
X144940476Y-113227200D02*
X145083333Y-113274819D01*
X145083333Y-113274819D02*
X145178571Y-113274819D01*
X145178571Y-113274819D02*
X145321428Y-113227200D01*
X145321428Y-113227200D02*
X145416666Y-113131961D01*
X145416666Y-113131961D02*
X145464285Y-113036723D01*
X145464285Y-113036723D02*
X145511904Y-112846247D01*
X145511904Y-112846247D02*
X145511904Y-112703390D01*
X145511904Y-112703390D02*
X145464285Y-112512914D01*
X145464285Y-112512914D02*
X145416666Y-112417676D01*
X145416666Y-112417676D02*
X145321428Y-112322438D01*
X145321428Y-112322438D02*
X145178571Y-112274819D01*
X145178571Y-112274819D02*
X145083333Y-112274819D01*
X145083333Y-112274819D02*
X144940476Y-112322438D01*
X144940476Y-112322438D02*
X144892857Y-112370057D01*
X143940476Y-113274819D02*
X144511904Y-113274819D01*
X144226190Y-113274819D02*
X144226190Y-112274819D01*
X144226190Y-112274819D02*
X144321428Y-112417676D01*
X144321428Y-112417676D02*
X144416666Y-112512914D01*
X144416666Y-112512914D02*
X144511904Y-112560533D01*
X143035714Y-112274819D02*
X143511904Y-112274819D01*
X143511904Y-112274819D02*
X143559523Y-112751009D01*
X143559523Y-112751009D02*
X143511904Y-112703390D01*
X143511904Y-112703390D02*
X143416666Y-112655771D01*
X143416666Y-112655771D02*
X143178571Y-112655771D01*
X143178571Y-112655771D02*
X143083333Y-112703390D01*
X143083333Y-112703390D02*
X143035714Y-112751009D01*
X143035714Y-112751009D02*
X142988095Y-112846247D01*
X142988095Y-112846247D02*
X142988095Y-113084342D01*
X142988095Y-113084342D02*
X143035714Y-113179580D01*
X143035714Y-113179580D02*
X143083333Y-113227200D01*
X143083333Y-113227200D02*
X143178571Y-113274819D01*
X143178571Y-113274819D02*
X143416666Y-113274819D01*
X143416666Y-113274819D02*
X143511904Y-113227200D01*
X143511904Y-113227200D02*
X143559523Y-113179580D01*
X141642857Y-100789580D02*
X141690476Y-100837200D01*
X141690476Y-100837200D02*
X141833333Y-100884819D01*
X141833333Y-100884819D02*
X141928571Y-100884819D01*
X141928571Y-100884819D02*
X142071428Y-100837200D01*
X142071428Y-100837200D02*
X142166666Y-100741961D01*
X142166666Y-100741961D02*
X142214285Y-100646723D01*
X142214285Y-100646723D02*
X142261904Y-100456247D01*
X142261904Y-100456247D02*
X142261904Y-100313390D01*
X142261904Y-100313390D02*
X142214285Y-100122914D01*
X142214285Y-100122914D02*
X142166666Y-100027676D01*
X142166666Y-100027676D02*
X142071428Y-99932438D01*
X142071428Y-99932438D02*
X141928571Y-99884819D01*
X141928571Y-99884819D02*
X141833333Y-99884819D01*
X141833333Y-99884819D02*
X141690476Y-99932438D01*
X141690476Y-99932438D02*
X141642857Y-99980057D01*
X140690476Y-100884819D02*
X141261904Y-100884819D01*
X140976190Y-100884819D02*
X140976190Y-99884819D01*
X140976190Y-99884819D02*
X141071428Y-100027676D01*
X141071428Y-100027676D02*
X141166666Y-100122914D01*
X141166666Y-100122914D02*
X141261904Y-100170533D01*
X139833333Y-100218152D02*
X139833333Y-100884819D01*
X140071428Y-99837200D02*
X140309523Y-100551485D01*
X140309523Y-100551485D02*
X139690476Y-100551485D01*
X137892857Y-98039580D02*
X137940476Y-98087200D01*
X137940476Y-98087200D02*
X138083333Y-98134819D01*
X138083333Y-98134819D02*
X138178571Y-98134819D01*
X138178571Y-98134819D02*
X138321428Y-98087200D01*
X138321428Y-98087200D02*
X138416666Y-97991961D01*
X138416666Y-97991961D02*
X138464285Y-97896723D01*
X138464285Y-97896723D02*
X138511904Y-97706247D01*
X138511904Y-97706247D02*
X138511904Y-97563390D01*
X138511904Y-97563390D02*
X138464285Y-97372914D01*
X138464285Y-97372914D02*
X138416666Y-97277676D01*
X138416666Y-97277676D02*
X138321428Y-97182438D01*
X138321428Y-97182438D02*
X138178571Y-97134819D01*
X138178571Y-97134819D02*
X138083333Y-97134819D01*
X138083333Y-97134819D02*
X137940476Y-97182438D01*
X137940476Y-97182438D02*
X137892857Y-97230057D01*
X136940476Y-98134819D02*
X137511904Y-98134819D01*
X137226190Y-98134819D02*
X137226190Y-97134819D01*
X137226190Y-97134819D02*
X137321428Y-97277676D01*
X137321428Y-97277676D02*
X137416666Y-97372914D01*
X137416666Y-97372914D02*
X137511904Y-97420533D01*
X136607142Y-97134819D02*
X135988095Y-97134819D01*
X135988095Y-97134819D02*
X136321428Y-97515771D01*
X136321428Y-97515771D02*
X136178571Y-97515771D01*
X136178571Y-97515771D02*
X136083333Y-97563390D01*
X136083333Y-97563390D02*
X136035714Y-97611009D01*
X136035714Y-97611009D02*
X135988095Y-97706247D01*
X135988095Y-97706247D02*
X135988095Y-97944342D01*
X135988095Y-97944342D02*
X136035714Y-98039580D01*
X136035714Y-98039580D02*
X136083333Y-98087200D01*
X136083333Y-98087200D02*
X136178571Y-98134819D01*
X136178571Y-98134819D02*
X136464285Y-98134819D01*
X136464285Y-98134819D02*
X136559523Y-98087200D01*
X136559523Y-98087200D02*
X136607142Y-98039580D01*
X154429580Y-97607142D02*
X154477200Y-97559523D01*
X154477200Y-97559523D02*
X154524819Y-97416666D01*
X154524819Y-97416666D02*
X154524819Y-97321428D01*
X154524819Y-97321428D02*
X154477200Y-97178571D01*
X154477200Y-97178571D02*
X154381961Y-97083333D01*
X154381961Y-97083333D02*
X154286723Y-97035714D01*
X154286723Y-97035714D02*
X154096247Y-96988095D01*
X154096247Y-96988095D02*
X153953390Y-96988095D01*
X153953390Y-96988095D02*
X153762914Y-97035714D01*
X153762914Y-97035714D02*
X153667676Y-97083333D01*
X153667676Y-97083333D02*
X153572438Y-97178571D01*
X153572438Y-97178571D02*
X153524819Y-97321428D01*
X153524819Y-97321428D02*
X153524819Y-97416666D01*
X153524819Y-97416666D02*
X153572438Y-97559523D01*
X153572438Y-97559523D02*
X153620057Y-97607142D01*
X154524819Y-98559523D02*
X154524819Y-97988095D01*
X154524819Y-98273809D02*
X153524819Y-98273809D01*
X153524819Y-98273809D02*
X153667676Y-98178571D01*
X153667676Y-98178571D02*
X153762914Y-98083333D01*
X153762914Y-98083333D02*
X153810533Y-97988095D01*
X153620057Y-98940476D02*
X153572438Y-98988095D01*
X153572438Y-98988095D02*
X153524819Y-99083333D01*
X153524819Y-99083333D02*
X153524819Y-99321428D01*
X153524819Y-99321428D02*
X153572438Y-99416666D01*
X153572438Y-99416666D02*
X153620057Y-99464285D01*
X153620057Y-99464285D02*
X153715295Y-99511904D01*
X153715295Y-99511904D02*
X153810533Y-99511904D01*
X153810533Y-99511904D02*
X153953390Y-99464285D01*
X153953390Y-99464285D02*
X154524819Y-98892857D01*
X154524819Y-98892857D02*
X154524819Y-99511904D01*
X154429580Y-104333333D02*
X154477200Y-104285714D01*
X154477200Y-104285714D02*
X154524819Y-104142857D01*
X154524819Y-104142857D02*
X154524819Y-104047619D01*
X154524819Y-104047619D02*
X154477200Y-103904762D01*
X154477200Y-103904762D02*
X154381961Y-103809524D01*
X154381961Y-103809524D02*
X154286723Y-103761905D01*
X154286723Y-103761905D02*
X154096247Y-103714286D01*
X154096247Y-103714286D02*
X153953390Y-103714286D01*
X153953390Y-103714286D02*
X153762914Y-103761905D01*
X153762914Y-103761905D02*
X153667676Y-103809524D01*
X153667676Y-103809524D02*
X153572438Y-103904762D01*
X153572438Y-103904762D02*
X153524819Y-104047619D01*
X153524819Y-104047619D02*
X153524819Y-104142857D01*
X153524819Y-104142857D02*
X153572438Y-104285714D01*
X153572438Y-104285714D02*
X153620057Y-104333333D01*
X154524819Y-104809524D02*
X154524819Y-105000000D01*
X154524819Y-105000000D02*
X154477200Y-105095238D01*
X154477200Y-105095238D02*
X154429580Y-105142857D01*
X154429580Y-105142857D02*
X154286723Y-105238095D01*
X154286723Y-105238095D02*
X154096247Y-105285714D01*
X154096247Y-105285714D02*
X153715295Y-105285714D01*
X153715295Y-105285714D02*
X153620057Y-105238095D01*
X153620057Y-105238095D02*
X153572438Y-105190476D01*
X153572438Y-105190476D02*
X153524819Y-105095238D01*
X153524819Y-105095238D02*
X153524819Y-104904762D01*
X153524819Y-104904762D02*
X153572438Y-104809524D01*
X153572438Y-104809524D02*
X153620057Y-104761905D01*
X153620057Y-104761905D02*
X153715295Y-104714286D01*
X153715295Y-104714286D02*
X153953390Y-104714286D01*
X153953390Y-104714286D02*
X154048628Y-104761905D01*
X154048628Y-104761905D02*
X154096247Y-104809524D01*
X154096247Y-104809524D02*
X154143866Y-104904762D01*
X154143866Y-104904762D02*
X154143866Y-105095238D01*
X154143866Y-105095238D02*
X154096247Y-105190476D01*
X154096247Y-105190476D02*
X154048628Y-105238095D01*
X154048628Y-105238095D02*
X153953390Y-105285714D01*
X137789580Y-109833333D02*
X137837200Y-109785714D01*
X137837200Y-109785714D02*
X137884819Y-109642857D01*
X137884819Y-109642857D02*
X137884819Y-109547619D01*
X137884819Y-109547619D02*
X137837200Y-109404762D01*
X137837200Y-109404762D02*
X137741961Y-109309524D01*
X137741961Y-109309524D02*
X137646723Y-109261905D01*
X137646723Y-109261905D02*
X137456247Y-109214286D01*
X137456247Y-109214286D02*
X137313390Y-109214286D01*
X137313390Y-109214286D02*
X137122914Y-109261905D01*
X137122914Y-109261905D02*
X137027676Y-109309524D01*
X137027676Y-109309524D02*
X136932438Y-109404762D01*
X136932438Y-109404762D02*
X136884819Y-109547619D01*
X136884819Y-109547619D02*
X136884819Y-109642857D01*
X136884819Y-109642857D02*
X136932438Y-109785714D01*
X136932438Y-109785714D02*
X136980057Y-109833333D01*
X137313390Y-110404762D02*
X137265771Y-110309524D01*
X137265771Y-110309524D02*
X137218152Y-110261905D01*
X137218152Y-110261905D02*
X137122914Y-110214286D01*
X137122914Y-110214286D02*
X137075295Y-110214286D01*
X137075295Y-110214286D02*
X136980057Y-110261905D01*
X136980057Y-110261905D02*
X136932438Y-110309524D01*
X136932438Y-110309524D02*
X136884819Y-110404762D01*
X136884819Y-110404762D02*
X136884819Y-110595238D01*
X136884819Y-110595238D02*
X136932438Y-110690476D01*
X136932438Y-110690476D02*
X136980057Y-110738095D01*
X136980057Y-110738095D02*
X137075295Y-110785714D01*
X137075295Y-110785714D02*
X137122914Y-110785714D01*
X137122914Y-110785714D02*
X137218152Y-110738095D01*
X137218152Y-110738095D02*
X137265771Y-110690476D01*
X137265771Y-110690476D02*
X137313390Y-110595238D01*
X137313390Y-110595238D02*
X137313390Y-110404762D01*
X137313390Y-110404762D02*
X137361009Y-110309524D01*
X137361009Y-110309524D02*
X137408628Y-110261905D01*
X137408628Y-110261905D02*
X137503866Y-110214286D01*
X137503866Y-110214286D02*
X137694342Y-110214286D01*
X137694342Y-110214286D02*
X137789580Y-110261905D01*
X137789580Y-110261905D02*
X137837200Y-110309524D01*
X137837200Y-110309524D02*
X137884819Y-110404762D01*
X137884819Y-110404762D02*
X137884819Y-110595238D01*
X137884819Y-110595238D02*
X137837200Y-110690476D01*
X137837200Y-110690476D02*
X137789580Y-110738095D01*
X137789580Y-110738095D02*
X137694342Y-110785714D01*
X137694342Y-110785714D02*
X137503866Y-110785714D01*
X137503866Y-110785714D02*
X137408628Y-110738095D01*
X137408628Y-110738095D02*
X137361009Y-110690476D01*
X137361009Y-110690476D02*
X137313390Y-110595238D01*
X150166666Y-58929580D02*
X150214285Y-58977200D01*
X150214285Y-58977200D02*
X150357142Y-59024819D01*
X150357142Y-59024819D02*
X150452380Y-59024819D01*
X150452380Y-59024819D02*
X150595237Y-58977200D01*
X150595237Y-58977200D02*
X150690475Y-58881961D01*
X150690475Y-58881961D02*
X150738094Y-58786723D01*
X150738094Y-58786723D02*
X150785713Y-58596247D01*
X150785713Y-58596247D02*
X150785713Y-58453390D01*
X150785713Y-58453390D02*
X150738094Y-58262914D01*
X150738094Y-58262914D02*
X150690475Y-58167676D01*
X150690475Y-58167676D02*
X150595237Y-58072438D01*
X150595237Y-58072438D02*
X150452380Y-58024819D01*
X150452380Y-58024819D02*
X150357142Y-58024819D01*
X150357142Y-58024819D02*
X150214285Y-58072438D01*
X150214285Y-58072438D02*
X150166666Y-58120057D01*
X149309523Y-58024819D02*
X149499999Y-58024819D01*
X149499999Y-58024819D02*
X149595237Y-58072438D01*
X149595237Y-58072438D02*
X149642856Y-58120057D01*
X149642856Y-58120057D02*
X149738094Y-58262914D01*
X149738094Y-58262914D02*
X149785713Y-58453390D01*
X149785713Y-58453390D02*
X149785713Y-58834342D01*
X149785713Y-58834342D02*
X149738094Y-58929580D01*
X149738094Y-58929580D02*
X149690475Y-58977200D01*
X149690475Y-58977200D02*
X149595237Y-59024819D01*
X149595237Y-59024819D02*
X149404761Y-59024819D01*
X149404761Y-59024819D02*
X149309523Y-58977200D01*
X149309523Y-58977200D02*
X149261904Y-58929580D01*
X149261904Y-58929580D02*
X149214285Y-58834342D01*
X149214285Y-58834342D02*
X149214285Y-58596247D01*
X149214285Y-58596247D02*
X149261904Y-58501009D01*
X149261904Y-58501009D02*
X149309523Y-58453390D01*
X149309523Y-58453390D02*
X149404761Y-58405771D01*
X149404761Y-58405771D02*
X149595237Y-58405771D01*
X149595237Y-58405771D02*
X149690475Y-58453390D01*
X149690475Y-58453390D02*
X149738094Y-58501009D01*
X149738094Y-58501009D02*
X149785713Y-58596247D01*
X153179580Y-68583333D02*
X153227200Y-68535714D01*
X153227200Y-68535714D02*
X153274819Y-68392857D01*
X153274819Y-68392857D02*
X153274819Y-68297619D01*
X153274819Y-68297619D02*
X153227200Y-68154762D01*
X153227200Y-68154762D02*
X153131961Y-68059524D01*
X153131961Y-68059524D02*
X153036723Y-68011905D01*
X153036723Y-68011905D02*
X152846247Y-67964286D01*
X152846247Y-67964286D02*
X152703390Y-67964286D01*
X152703390Y-67964286D02*
X152512914Y-68011905D01*
X152512914Y-68011905D02*
X152417676Y-68059524D01*
X152417676Y-68059524D02*
X152322438Y-68154762D01*
X152322438Y-68154762D02*
X152274819Y-68297619D01*
X152274819Y-68297619D02*
X152274819Y-68392857D01*
X152274819Y-68392857D02*
X152322438Y-68535714D01*
X152322438Y-68535714D02*
X152370057Y-68583333D01*
X152608152Y-69440476D02*
X153274819Y-69440476D01*
X152227200Y-69202381D02*
X152941485Y-68964286D01*
X152941485Y-68964286D02*
X152941485Y-69583333D01*
X139679580Y-66083333D02*
X139727200Y-66035714D01*
X139727200Y-66035714D02*
X139774819Y-65892857D01*
X139774819Y-65892857D02*
X139774819Y-65797619D01*
X139774819Y-65797619D02*
X139727200Y-65654762D01*
X139727200Y-65654762D02*
X139631961Y-65559524D01*
X139631961Y-65559524D02*
X139536723Y-65511905D01*
X139536723Y-65511905D02*
X139346247Y-65464286D01*
X139346247Y-65464286D02*
X139203390Y-65464286D01*
X139203390Y-65464286D02*
X139012914Y-65511905D01*
X139012914Y-65511905D02*
X138917676Y-65559524D01*
X138917676Y-65559524D02*
X138822438Y-65654762D01*
X138822438Y-65654762D02*
X138774819Y-65797619D01*
X138774819Y-65797619D02*
X138774819Y-65892857D01*
X138774819Y-65892857D02*
X138822438Y-66035714D01*
X138822438Y-66035714D02*
X138870057Y-66083333D01*
X138774819Y-66416667D02*
X138774819Y-67035714D01*
X138774819Y-67035714D02*
X139155771Y-66702381D01*
X139155771Y-66702381D02*
X139155771Y-66845238D01*
X139155771Y-66845238D02*
X139203390Y-66940476D01*
X139203390Y-66940476D02*
X139251009Y-66988095D01*
X139251009Y-66988095D02*
X139346247Y-67035714D01*
X139346247Y-67035714D02*
X139584342Y-67035714D01*
X139584342Y-67035714D02*
X139679580Y-66988095D01*
X139679580Y-66988095D02*
X139727200Y-66940476D01*
X139727200Y-66940476D02*
X139774819Y-66845238D01*
X139774819Y-66845238D02*
X139774819Y-66559524D01*
X139774819Y-66559524D02*
X139727200Y-66464286D01*
X139727200Y-66464286D02*
X139679580Y-66416667D01*
D11*
%TO.C,C16*%
X150738748Y-113765000D02*
X151261252Y-113765000D01*
X150738748Y-115235000D02*
X151261252Y-115235000D01*
%TO.C,C15*%
X143988748Y-113765000D02*
X144511252Y-113765000D01*
X143988748Y-115235000D02*
X144511252Y-115235000D01*
%TO.C,C14*%
X141261252Y-99485000D02*
X140738748Y-99485000D01*
X141261252Y-98015000D02*
X140738748Y-98015000D01*
%TO.C,C13*%
X137511252Y-96735000D02*
X136988748Y-96735000D01*
X137511252Y-95265000D02*
X136988748Y-95265000D01*
%TO.C,C12*%
X155015000Y-98511252D02*
X155015000Y-97988748D01*
X156485000Y-98511252D02*
X156485000Y-97988748D01*
%TO.C,C9*%
X155015000Y-104761252D02*
X155015000Y-104238748D01*
X156485000Y-104761252D02*
X156485000Y-104238748D01*
%TO.C,C8*%
X136485000Y-109738748D02*
X136485000Y-110261252D01*
X135015000Y-109738748D02*
X135015000Y-110261252D01*
%TO.C,C6*%
X149738748Y-59515000D02*
X150261252Y-59515000D01*
X149738748Y-60985000D02*
X150261252Y-60985000D01*
%TO.C,C4*%
X153765000Y-69011252D02*
X153765000Y-68488748D01*
X155235000Y-69011252D02*
X155235000Y-68488748D01*
%TO.C,C3*%
X140265000Y-66511252D02*
X140265000Y-65988748D01*
X141735000Y-66511252D02*
X141735000Y-65988748D01*
%TD*%
M02*
