%TF.GenerationSoftware,KiCad,Pcbnew,8.0.7*%
%TF.CreationDate,2025-02-16T23:20:21-06:00*%
%TF.ProjectId,MotorDriver,4d6f746f-7244-4726-9976-65722e6b6963,rev?*%
%TF.SameCoordinates,Original*%
%TF.FileFunction,Legend,Bot*%
%TF.FilePolarity,Positive*%
%FSLAX46Y46*%
G04 Gerber Fmt 4.6, Leading zero omitted, Abs format (unit mm)*
G04 Created by KiCad (PCBNEW 8.0.7) date 2025-02-16 23:20:21*
%MOMM*%
%LPD*%
G01*
G04 APERTURE LIST*
%ADD10C,0.150000*%
%ADD11C,0.120000*%
G04 APERTURE END LIST*
D10*
X137416666Y-95359580D02*
X137464285Y-95407200D01*
X137464285Y-95407200D02*
X137607142Y-95454819D01*
X137607142Y-95454819D02*
X137702380Y-95454819D01*
X137702380Y-95454819D02*
X137845237Y-95407200D01*
X137845237Y-95407200D02*
X137940475Y-95311961D01*
X137940475Y-95311961D02*
X137988094Y-95216723D01*
X137988094Y-95216723D02*
X138035713Y-95026247D01*
X138035713Y-95026247D02*
X138035713Y-94883390D01*
X138035713Y-94883390D02*
X137988094Y-94692914D01*
X137988094Y-94692914D02*
X137940475Y-94597676D01*
X137940475Y-94597676D02*
X137845237Y-94502438D01*
X137845237Y-94502438D02*
X137702380Y-94454819D01*
X137702380Y-94454819D02*
X137607142Y-94454819D01*
X137607142Y-94454819D02*
X137464285Y-94502438D01*
X137464285Y-94502438D02*
X137416666Y-94550057D01*
X136464285Y-95454819D02*
X137035713Y-95454819D01*
X136749999Y-95454819D02*
X136749999Y-94454819D01*
X136749999Y-94454819D02*
X136845237Y-94597676D01*
X136845237Y-94597676D02*
X136940475Y-94692914D01*
X136940475Y-94692914D02*
X137035713Y-94740533D01*
X137416666Y-98359580D02*
X137464285Y-98407200D01*
X137464285Y-98407200D02*
X137607142Y-98454819D01*
X137607142Y-98454819D02*
X137702380Y-98454819D01*
X137702380Y-98454819D02*
X137845237Y-98407200D01*
X137845237Y-98407200D02*
X137940475Y-98311961D01*
X137940475Y-98311961D02*
X137988094Y-98216723D01*
X137988094Y-98216723D02*
X138035713Y-98026247D01*
X138035713Y-98026247D02*
X138035713Y-97883390D01*
X138035713Y-97883390D02*
X137988094Y-97692914D01*
X137988094Y-97692914D02*
X137940475Y-97597676D01*
X137940475Y-97597676D02*
X137845237Y-97502438D01*
X137845237Y-97502438D02*
X137702380Y-97454819D01*
X137702380Y-97454819D02*
X137607142Y-97454819D01*
X137607142Y-97454819D02*
X137464285Y-97502438D01*
X137464285Y-97502438D02*
X137416666Y-97550057D01*
X137035713Y-97550057D02*
X136988094Y-97502438D01*
X136988094Y-97502438D02*
X136892856Y-97454819D01*
X136892856Y-97454819D02*
X136654761Y-97454819D01*
X136654761Y-97454819D02*
X136559523Y-97502438D01*
X136559523Y-97502438D02*
X136511904Y-97550057D01*
X136511904Y-97550057D02*
X136464285Y-97645295D01*
X136464285Y-97645295D02*
X136464285Y-97740533D01*
X136464285Y-97740533D02*
X136511904Y-97883390D01*
X136511904Y-97883390D02*
X137083332Y-98454819D01*
X137083332Y-98454819D02*
X136464285Y-98454819D01*
D11*
%TO.C,C1*%
X133988748Y-94265000D02*
X134511252Y-94265000D01*
X133988748Y-95735000D02*
X134511252Y-95735000D01*
%TO.C,J2*%
X123670000Y-76270000D02*
X126330000Y-76270000D01*
X123670000Y-104270000D02*
X123670000Y-76270000D01*
X123670000Y-104270000D02*
X126330000Y-104270000D01*
X125000000Y-73670000D02*
X126330000Y-73670000D01*
X126330000Y-73670000D02*
X126330000Y-75000000D01*
X126330000Y-104270000D02*
X126330000Y-76270000D01*
%TO.C,C2*%
X133988748Y-97265000D02*
X134511252Y-97265000D01*
X133988748Y-98735000D02*
X134511252Y-98735000D01*
%TO.C,J4*%
X141450000Y-76270000D02*
X144110000Y-76270000D01*
X141450000Y-104270000D02*
X141450000Y-76270000D01*
X141450000Y-104270000D02*
X144110000Y-104270000D01*
X142780000Y-73670000D02*
X144110000Y-73670000D01*
X144110000Y-73670000D02*
X144110000Y-75000000D01*
X144110000Y-104270000D02*
X144110000Y-76270000D01*
%TD*%
M02*
