%TF.GenerationSoftware,KiCad,Pcbnew,8.0.7*%
%TF.CreationDate,2025-02-16T23:20:21-06:00*%
%TF.ProjectId,MotorDriver,4d6f746f-7244-4726-9976-65722e6b6963,rev?*%
%TF.SameCoordinates,Original*%
%TF.FileFunction,Copper,L2,Inr*%
%TF.FilePolarity,Positive*%
%FSLAX46Y46*%
G04 Gerber Fmt 4.6, Leading zero omitted, Abs format (unit mm)*
G04 Created by KiCad (PCBNEW 8.0.7) date 2025-02-16 23:20:21*
%MOMM*%
%LPD*%
G01*
G04 APERTURE LIST*
%TA.AperFunction,ComponentPad*%
%ADD10R,1.700000X1.700000*%
%TD*%
%TA.AperFunction,ComponentPad*%
%ADD11O,1.700000X1.700000*%
%TD*%
%TA.AperFunction,ViaPad*%
%ADD12C,0.600000*%
%TD*%
%TA.AperFunction,Conductor*%
%ADD13C,2.250000*%
%TD*%
G04 APERTURE END LIST*
D10*
%TO.N,Net-(J2-Pin_1)*%
%TO.C,J2*%
X125000000Y-75000000D03*
D11*
%TO.N,Net-(J2-Pin_2)*%
X125000000Y-77540000D03*
%TO.N,Net-(J2-Pin_3)*%
X125000000Y-80080000D03*
%TO.N,Net-(J2-Pin_4)*%
X125000000Y-82620000D03*
%TO.N,Net-(J2-Pin_5)*%
X125000000Y-85160000D03*
%TO.N,Net-(J2-Pin_6)*%
X125000000Y-87700000D03*
%TO.N,/INHA*%
X125000000Y-90240000D03*
%TO.N,/INLA*%
X125000000Y-92780000D03*
%TO.N,/INHB*%
X125000000Y-95320000D03*
%TO.N,/INLB*%
X125000000Y-97860000D03*
%TO.N,/INHC*%
X125000000Y-100400000D03*
%TO.N,/INLC*%
X125000000Y-102940000D03*
%TD*%
D10*
%TO.N,/OUTA*%
%TO.C,J4*%
X142780000Y-75000000D03*
D11*
%TO.N,/OUTB*%
X142780000Y-77540000D03*
%TO.N,/OUTC*%
X142780000Y-80080000D03*
%TO.N,unconnected-(J4-Pin_4-Pad4)*%
X142780000Y-82620000D03*
%TO.N,Net-(J4-Pin_5)*%
X142780000Y-85160000D03*
%TO.N,Net-(J4-Pin_6)*%
X142780000Y-87700000D03*
%TO.N,Net-(J4-Pin_7)*%
X142780000Y-90240000D03*
%TO.N,/Buck_Out*%
X142780000Y-92780000D03*
%TO.N,+3.3V*%
X142780000Y-95320000D03*
%TO.N,GND*%
X142780000Y-97860000D03*
%TO.N,+BATT*%
X142780000Y-100400000D03*
%TO.N,-BATT*%
X142780000Y-102940000D03*
%TD*%
D12*
%TO.N,+BATT*%
X136750000Y-100750000D03*
X135250000Y-101500000D03*
X136750000Y-101500000D03*
X137250000Y-86500000D03*
X137500000Y-101500000D03*
X137500000Y-100000000D03*
X136750000Y-100000000D03*
X138000000Y-86500000D03*
X136000000Y-100000000D03*
X136000000Y-101500000D03*
X136000000Y-100750000D03*
X135250000Y-100000000D03*
X137500000Y-100750000D03*
X135250000Y-100750000D03*
%TO.N,-BATT*%
X132000000Y-100750000D03*
X137750000Y-85500000D03*
X132750000Y-100750000D03*
X131250000Y-101500000D03*
X130500000Y-101500000D03*
X133250000Y-84000000D03*
X131250000Y-100750000D03*
X132750000Y-101500000D03*
X137750000Y-84750000D03*
X131250000Y-100000000D03*
X135250000Y-84000000D03*
X130500000Y-100000000D03*
X132750000Y-100000000D03*
X132000000Y-100000000D03*
X132000000Y-101500000D03*
X130500000Y-100750000D03*
%TO.N,GND*%
X134750000Y-90750000D03*
X127894936Y-89392563D03*
X134000000Y-93750000D03*
X134750000Y-88250000D03*
X134250000Y-97000000D03*
X133750000Y-96250000D03*
X133750000Y-90750000D03*
X138950000Y-98250000D03*
X133750000Y-88250000D03*
X134750000Y-89500000D03*
X133750000Y-89500000D03*
X134750000Y-96250000D03*
%TO.N,+3.3V*%
X127750000Y-87462500D03*
X129000000Y-96000000D03*
X129517707Y-85481338D03*
%TO.N,/Buck_Out*%
X140106796Y-92750000D03*
X138822809Y-92819551D03*
%TO.N,Net-(J2-Pin_3)*%
X129750000Y-93000000D03*
%TO.N,Net-(J2-Pin_2)*%
X128382843Y-95490965D03*
%TO.N,Net-(J2-Pin_5)*%
X128382843Y-94500000D03*
X126459443Y-90290525D03*
%TO.N,Net-(J2-Pin_1)*%
X129500000Y-87081338D03*
%TO.N,Net-(J2-Pin_4)*%
X126346517Y-85256949D03*
X129148957Y-93601043D03*
%TO.N,/OUTA*%
X136500000Y-82750000D03*
X139250000Y-74250000D03*
X136500000Y-85000000D03*
X138500000Y-75750000D03*
X139250000Y-75750000D03*
X137750000Y-75750000D03*
X139250000Y-75000000D03*
X136500000Y-83500000D03*
X137750000Y-75000000D03*
X138500000Y-75000000D03*
X136500000Y-84250000D03*
X137750000Y-74250000D03*
X137250000Y-83500000D03*
X135750000Y-85000000D03*
X138500000Y-74250000D03*
X137250000Y-82750000D03*
%TO.N,/OUTC*%
X131750000Y-85000000D03*
X131750000Y-83500000D03*
X131000000Y-82750000D03*
X128750000Y-74250000D03*
X129500000Y-74250000D03*
X130250000Y-75000000D03*
X131750000Y-82750000D03*
X129500000Y-75750000D03*
X130250000Y-75750000D03*
X128750000Y-75000000D03*
X128750000Y-75750000D03*
X129500000Y-75000000D03*
X130250000Y-74250000D03*
X131750000Y-84250000D03*
X131000000Y-83500000D03*
X132750000Y-85000000D03*
%TO.N,/OUTB*%
X134250000Y-85000000D03*
X134250000Y-75000000D03*
X133500000Y-75000000D03*
X134250000Y-81750000D03*
X135000000Y-74250000D03*
X133750000Y-82500000D03*
X134750000Y-82500000D03*
X134250000Y-84250000D03*
X134250000Y-74250000D03*
X133500000Y-74250000D03*
X134250000Y-75750000D03*
X134250000Y-83250000D03*
X135000000Y-75000000D03*
X135000000Y-75750000D03*
X133500000Y-75750000D03*
%TO.N,Net-(J4-Pin_6)*%
X139500000Y-94350000D03*
%TO.N,Net-(J4-Pin_7)*%
X139000000Y-95000000D03*
%TO.N,Net-(J4-Pin_5)*%
X138415380Y-93584620D03*
%TD*%
D13*
%TO.N,/OUTC*%
X134830000Y-80080000D02*
X129500000Y-74750000D01*
X142780000Y-80080000D02*
X134830000Y-80080000D01*
%TO.N,/OUTB*%
X136790000Y-77540000D02*
X134000000Y-74750000D01*
X142780000Y-77540000D02*
X136790000Y-77540000D01*
%TD*%
%TA.AperFunction,Conductor*%
%TO.N,GND*%
G36*
X129294543Y-73269407D02*
G01*
X129330507Y-73318907D01*
X129330507Y-73380093D01*
X129294543Y-73429593D01*
X129251838Y-73447281D01*
X129189611Y-73457136D01*
X129189609Y-73457136D01*
X128991182Y-73521612D01*
X128805289Y-73616328D01*
X128636497Y-73738963D01*
X128622179Y-73753281D01*
X128580071Y-73778264D01*
X128539947Y-73790046D01*
X128418873Y-73867855D01*
X128324622Y-73976628D01*
X128264834Y-74107543D01*
X128245620Y-74241185D01*
X128244353Y-74250000D01*
X128246484Y-74264824D01*
X128248559Y-74279259D01*
X128244721Y-74323937D01*
X128207136Y-74439613D01*
X128174500Y-74645676D01*
X128174500Y-74854323D01*
X128207136Y-75060388D01*
X128207136Y-75060390D01*
X128271613Y-75258820D01*
X128331149Y-75375668D01*
X128340720Y-75436100D01*
X128326228Y-75474127D01*
X128324625Y-75476620D01*
X128264834Y-75607543D01*
X128244353Y-75749997D01*
X128244353Y-75750002D01*
X128264834Y-75892456D01*
X128313551Y-75999130D01*
X128324623Y-76023373D01*
X128377942Y-76084907D01*
X128418873Y-76132144D01*
X128506542Y-76188485D01*
X128539947Y-76209953D01*
X128636295Y-76238243D01*
X128678035Y-76250499D01*
X128678036Y-76250499D01*
X128678039Y-76250500D01*
X128678041Y-76250500D01*
X128821959Y-76250500D01*
X128821961Y-76250500D01*
X128960053Y-76209953D01*
X128969251Y-76204041D01*
X129028424Y-76188485D01*
X129085441Y-76210682D01*
X129092779Y-76217319D01*
X133966494Y-81091035D01*
X133966497Y-81091037D01*
X133966499Y-81091039D01*
X134027801Y-81135578D01*
X134027802Y-81135578D01*
X134029180Y-81136579D01*
X134065148Y-81186076D01*
X134065153Y-81247262D01*
X134029193Y-81296765D01*
X134024520Y-81299961D01*
X133918872Y-81367857D01*
X133824622Y-81476628D01*
X133764834Y-81607543D01*
X133744353Y-81749997D01*
X133744353Y-81750004D01*
X133764065Y-81887114D01*
X133753631Y-81947403D01*
X133709753Y-81990045D01*
X133680164Y-81999194D01*
X133678041Y-81999499D01*
X133539949Y-82040046D01*
X133539942Y-82040049D01*
X133418873Y-82117855D01*
X133324622Y-82226628D01*
X133264834Y-82357543D01*
X133244353Y-82499997D01*
X133244353Y-82500002D01*
X133264834Y-82642456D01*
X133313720Y-82749500D01*
X133324623Y-82773373D01*
X133370163Y-82825929D01*
X133418873Y-82882144D01*
X133539942Y-82959950D01*
X133539947Y-82959953D01*
X133678039Y-83000500D01*
X133678047Y-83000500D01*
X133680153Y-83000803D01*
X133681758Y-83001592D01*
X133684833Y-83002495D01*
X133684676Y-83003026D01*
X133735063Y-83027795D01*
X133763622Y-83081907D01*
X133764065Y-83112885D01*
X133744353Y-83249995D01*
X133744353Y-83250002D01*
X133764834Y-83392456D01*
X133813720Y-83499500D01*
X133824623Y-83523373D01*
X133918872Y-83632143D01*
X133954907Y-83655301D01*
X133972669Y-83666716D01*
X134011400Y-83714082D01*
X134014893Y-83775168D01*
X133981813Y-83826640D01*
X133972669Y-83833284D01*
X133918871Y-83867857D01*
X133902533Y-83886713D01*
X133850136Y-83918308D01*
X133789175Y-83913072D01*
X133742935Y-83873004D01*
X133737661Y-83863008D01*
X133696725Y-83773373D01*
X133675377Y-83726627D01*
X133581128Y-83617857D01*
X133581127Y-83617856D01*
X133581126Y-83617855D01*
X133460057Y-83540049D01*
X133460054Y-83540047D01*
X133460053Y-83540047D01*
X133460050Y-83540046D01*
X133321964Y-83499500D01*
X133321961Y-83499500D01*
X133178039Y-83499500D01*
X133178035Y-83499500D01*
X133039949Y-83540046D01*
X133039942Y-83540049D01*
X132918873Y-83617855D01*
X132824622Y-83726628D01*
X132764834Y-83857543D01*
X132744353Y-83999997D01*
X132744353Y-84000002D01*
X132764834Y-84142456D01*
X132824623Y-84273373D01*
X132878602Y-84335669D01*
X132902420Y-84392028D01*
X132888561Y-84451624D01*
X132842320Y-84491691D01*
X132803783Y-84499500D01*
X132678035Y-84499500D01*
X132539949Y-84540046D01*
X132539942Y-84540049D01*
X132418872Y-84617856D01*
X132418870Y-84617858D01*
X132324818Y-84726400D01*
X132272422Y-84757996D01*
X132211461Y-84752760D01*
X132175180Y-84726400D01*
X132143493Y-84689831D01*
X132119675Y-84633472D01*
X132133534Y-84573876D01*
X132143492Y-84560170D01*
X132175377Y-84523373D01*
X132235165Y-84392457D01*
X132255647Y-84250000D01*
X132255575Y-84249500D01*
X132235165Y-84107543D01*
X132221362Y-84077319D01*
X132175377Y-83976627D01*
X132143491Y-83939829D01*
X132119675Y-83883472D01*
X132133533Y-83823877D01*
X132143492Y-83810170D01*
X132175377Y-83773373D01*
X132235165Y-83642457D01*
X132255647Y-83500000D01*
X132255575Y-83499500D01*
X132235165Y-83357543D01*
X132175377Y-83226628D01*
X132175377Y-83226627D01*
X132143491Y-83189829D01*
X132119675Y-83133472D01*
X132133533Y-83073877D01*
X132143492Y-83060170D01*
X132175377Y-83023373D01*
X132235165Y-82892457D01*
X132241992Y-82844971D01*
X132255647Y-82750002D01*
X132255647Y-82749997D01*
X132235165Y-82607543D01*
X132186051Y-82500000D01*
X132175377Y-82476627D01*
X132081128Y-82367857D01*
X132081127Y-82367856D01*
X132081126Y-82367855D01*
X131960057Y-82290049D01*
X131960054Y-82290047D01*
X131960053Y-82290047D01*
X131960050Y-82290046D01*
X131821964Y-82249500D01*
X131821961Y-82249500D01*
X131678039Y-82249500D01*
X131678035Y-82249500D01*
X131539949Y-82290046D01*
X131539942Y-82290049D01*
X131428523Y-82361654D01*
X131369348Y-82377209D01*
X131321477Y-82361654D01*
X131210057Y-82290049D01*
X131210054Y-82290047D01*
X131210053Y-82290047D01*
X131210050Y-82290046D01*
X131071964Y-82249500D01*
X131071961Y-82249500D01*
X130928039Y-82249500D01*
X130928035Y-82249500D01*
X130789949Y-82290046D01*
X130789942Y-82290049D01*
X130668873Y-82367855D01*
X130574622Y-82476628D01*
X130514834Y-82607543D01*
X130494353Y-82749997D01*
X130494353Y-82750002D01*
X130514834Y-82892456D01*
X130564676Y-83001592D01*
X130574623Y-83023373D01*
X130578455Y-83027795D01*
X130606507Y-83060170D01*
X130630323Y-83116530D01*
X130616463Y-83176125D01*
X130606507Y-83189830D01*
X130574622Y-83226628D01*
X130514834Y-83357543D01*
X130494353Y-83499997D01*
X130494353Y-83500002D01*
X130514834Y-83642456D01*
X130553275Y-83726628D01*
X130574623Y-83773373D01*
X130656493Y-83867857D01*
X130668873Y-83882144D01*
X130725146Y-83918308D01*
X130789947Y-83959953D01*
X130862479Y-83981250D01*
X130928035Y-84000499D01*
X130928036Y-84000499D01*
X130928039Y-84000500D01*
X130928041Y-84000500D01*
X131071959Y-84000500D01*
X131071961Y-84000500D01*
X131143470Y-83979503D01*
X131204627Y-83981250D01*
X131253080Y-84018612D01*
X131270319Y-84077319D01*
X131266350Y-84102381D01*
X131264834Y-84107544D01*
X131244353Y-84249997D01*
X131244353Y-84250002D01*
X131264834Y-84392456D01*
X131303275Y-84476628D01*
X131324623Y-84523373D01*
X131339070Y-84540046D01*
X131356507Y-84560170D01*
X131380323Y-84616530D01*
X131366463Y-84676125D01*
X131356507Y-84689830D01*
X131324622Y-84726628D01*
X131264834Y-84857543D01*
X131244353Y-84999997D01*
X131244353Y-85000002D01*
X131264834Y-85142456D01*
X131312687Y-85247238D01*
X131324623Y-85273373D01*
X131381386Y-85338881D01*
X131418873Y-85382144D01*
X131539942Y-85459950D01*
X131539947Y-85459953D01*
X131646403Y-85491211D01*
X131678035Y-85500499D01*
X131678036Y-85500499D01*
X131678039Y-85500500D01*
X131678041Y-85500500D01*
X131821959Y-85500500D01*
X131821961Y-85500500D01*
X131960053Y-85459953D01*
X132081128Y-85382143D01*
X132175182Y-85273597D01*
X132227576Y-85242003D01*
X132288537Y-85247238D01*
X132324816Y-85273596D01*
X132404823Y-85365929D01*
X132418873Y-85382144D01*
X132539942Y-85459950D01*
X132539947Y-85459953D01*
X132646403Y-85491211D01*
X132678035Y-85500499D01*
X132678036Y-85500499D01*
X132678039Y-85500500D01*
X132678041Y-85500500D01*
X132821959Y-85500500D01*
X132821961Y-85500500D01*
X132960053Y-85459953D01*
X133081128Y-85382143D01*
X133175377Y-85273373D01*
X133235165Y-85142457D01*
X133252572Y-85021387D01*
X133255647Y-85000002D01*
X133255647Y-84999997D01*
X133235165Y-84857543D01*
X133218816Y-84821744D01*
X133175377Y-84726627D01*
X133143493Y-84689831D01*
X133121398Y-84664331D01*
X133097580Y-84607972D01*
X133111439Y-84548376D01*
X133157680Y-84508309D01*
X133196217Y-84500500D01*
X133321959Y-84500500D01*
X133321961Y-84500500D01*
X133460053Y-84459953D01*
X133581128Y-84382143D01*
X133597466Y-84363287D01*
X133649858Y-84331692D01*
X133710820Y-84336925D01*
X133757062Y-84376992D01*
X133762338Y-84386991D01*
X133814177Y-84500500D01*
X133824623Y-84523373D01*
X133839070Y-84540046D01*
X133856507Y-84560170D01*
X133880323Y-84616530D01*
X133866463Y-84676125D01*
X133856507Y-84689830D01*
X133824622Y-84726628D01*
X133764834Y-84857543D01*
X133744353Y-84999997D01*
X133744353Y-85000002D01*
X133764834Y-85142456D01*
X133812687Y-85247238D01*
X133824623Y-85273373D01*
X133881386Y-85338881D01*
X133918873Y-85382144D01*
X134039942Y-85459950D01*
X134039947Y-85459953D01*
X134146403Y-85491211D01*
X134178035Y-85500499D01*
X134178036Y-85500499D01*
X134178039Y-85500500D01*
X134178041Y-85500500D01*
X134321959Y-85500500D01*
X134321961Y-85500500D01*
X134460053Y-85459953D01*
X134581128Y-85382143D01*
X134675377Y-85273373D01*
X134735165Y-85142457D01*
X134752572Y-85021387D01*
X134755647Y-85000002D01*
X134755647Y-84999997D01*
X134735165Y-84857543D01*
X134718816Y-84821744D01*
X134675377Y-84726627D01*
X134643491Y-84689829D01*
X134619675Y-84633472D01*
X134633533Y-84573877D01*
X134643492Y-84560170D01*
X134675377Y-84523373D01*
X134717520Y-84431093D01*
X134737661Y-84386992D01*
X134779033Y-84341914D01*
X134838999Y-84329763D01*
X134894655Y-84355181D01*
X134902534Y-84363288D01*
X134918871Y-84382142D01*
X134918872Y-84382143D01*
X135038115Y-84458776D01*
X135039947Y-84459953D01*
X135146403Y-84491211D01*
X135178035Y-84500499D01*
X135178036Y-84500499D01*
X135178039Y-84500500D01*
X135178041Y-84500500D01*
X135303783Y-84500500D01*
X135361974Y-84519407D01*
X135397938Y-84568907D01*
X135397938Y-84630093D01*
X135378602Y-84664331D01*
X135324623Y-84726626D01*
X135264834Y-84857543D01*
X135244353Y-84999997D01*
X135244353Y-85000002D01*
X135264834Y-85142456D01*
X135312687Y-85247238D01*
X135324623Y-85273373D01*
X135381386Y-85338881D01*
X135418873Y-85382144D01*
X135539942Y-85459950D01*
X135539947Y-85459953D01*
X135646403Y-85491211D01*
X135678035Y-85500499D01*
X135678036Y-85500499D01*
X135678039Y-85500500D01*
X135678041Y-85500500D01*
X135821959Y-85500500D01*
X135821961Y-85500500D01*
X135960053Y-85459953D01*
X136071478Y-85388344D01*
X136130652Y-85372790D01*
X136178521Y-85388344D01*
X136289947Y-85459953D01*
X136396403Y-85491211D01*
X136428035Y-85500499D01*
X136428036Y-85500499D01*
X136428039Y-85500500D01*
X136428041Y-85500500D01*
X136571959Y-85500500D01*
X136571961Y-85500500D01*
X136710053Y-85459953D01*
X136831128Y-85382143D01*
X136925377Y-85273373D01*
X136985165Y-85142457D01*
X137002572Y-85021387D01*
X137005647Y-85000002D01*
X137005647Y-84999997D01*
X136985165Y-84857543D01*
X136968816Y-84821744D01*
X136925377Y-84726627D01*
X136893491Y-84689829D01*
X136869675Y-84633472D01*
X136883533Y-84573877D01*
X136893492Y-84560170D01*
X136925377Y-84523373D01*
X136985165Y-84392457D01*
X137005647Y-84250000D01*
X137005575Y-84249500D01*
X136985166Y-84107550D01*
X136985165Y-84107543D01*
X136985162Y-84107536D01*
X136983651Y-84102389D01*
X136985396Y-84041228D01*
X137022756Y-83992774D01*
X137081463Y-83975533D01*
X137106525Y-83979501D01*
X137178039Y-84000500D01*
X137178041Y-84000500D01*
X137321959Y-84000500D01*
X137321961Y-84000500D01*
X137460053Y-83959953D01*
X137581128Y-83882143D01*
X137675377Y-83773373D01*
X137735165Y-83642457D01*
X137755647Y-83500000D01*
X137755575Y-83499500D01*
X137735165Y-83357543D01*
X137675377Y-83226628D01*
X137675377Y-83226627D01*
X137643491Y-83189829D01*
X137619675Y-83133472D01*
X137633533Y-83073877D01*
X137643492Y-83060170D01*
X137675377Y-83023373D01*
X137735165Y-82892457D01*
X137741992Y-82844971D01*
X137755647Y-82750002D01*
X137755647Y-82749997D01*
X137735165Y-82607543D01*
X137686051Y-82500000D01*
X137675377Y-82476627D01*
X137581128Y-82367857D01*
X137581127Y-82367856D01*
X137581126Y-82367855D01*
X137460057Y-82290049D01*
X137460054Y-82290047D01*
X137460053Y-82290047D01*
X137460050Y-82290046D01*
X137321964Y-82249500D01*
X137321961Y-82249500D01*
X137178039Y-82249500D01*
X137178035Y-82249500D01*
X137039949Y-82290046D01*
X137039942Y-82290049D01*
X136928523Y-82361654D01*
X136869348Y-82377209D01*
X136821477Y-82361654D01*
X136710057Y-82290049D01*
X136710054Y-82290047D01*
X136710053Y-82290047D01*
X136710050Y-82290046D01*
X136571964Y-82249500D01*
X136571961Y-82249500D01*
X136428039Y-82249500D01*
X136428035Y-82249500D01*
X136289949Y-82290046D01*
X136289942Y-82290049D01*
X136168873Y-82367855D01*
X136074622Y-82476628D01*
X136014834Y-82607543D01*
X135994353Y-82749997D01*
X135994353Y-82750002D01*
X136014834Y-82892456D01*
X136064676Y-83001592D01*
X136074623Y-83023373D01*
X136078455Y-83027795D01*
X136106507Y-83060170D01*
X136130323Y-83116530D01*
X136116463Y-83176125D01*
X136106507Y-83189830D01*
X136074622Y-83226628D01*
X136014834Y-83357543D01*
X135994353Y-83499997D01*
X135994353Y-83500002D01*
X136014834Y-83642456D01*
X136053275Y-83726628D01*
X136074623Y-83773373D01*
X136085494Y-83785919D01*
X136106507Y-83810170D01*
X136130323Y-83866530D01*
X136116463Y-83926125D01*
X136106507Y-83939830D01*
X136074622Y-83976628D01*
X136014834Y-84107543D01*
X135994353Y-84249997D01*
X135994353Y-84250002D01*
X136014834Y-84392455D01*
X136016349Y-84397615D01*
X136014601Y-84458776D01*
X135977238Y-84507228D01*
X135918531Y-84524466D01*
X135893468Y-84520496D01*
X135821964Y-84499500D01*
X135821961Y-84499500D01*
X135696217Y-84499500D01*
X135638026Y-84480593D01*
X135602062Y-84431093D01*
X135602062Y-84369907D01*
X135621398Y-84335669D01*
X135660927Y-84290049D01*
X135675377Y-84273373D01*
X135735165Y-84142457D01*
X135744530Y-84077319D01*
X135755647Y-84000002D01*
X135755647Y-83999997D01*
X135735165Y-83857543D01*
X135696725Y-83773373D01*
X135675377Y-83726627D01*
X135581128Y-83617857D01*
X135581127Y-83617856D01*
X135581126Y-83617855D01*
X135460057Y-83540049D01*
X135460054Y-83540047D01*
X135460053Y-83540047D01*
X135460050Y-83540046D01*
X135321964Y-83499500D01*
X135321961Y-83499500D01*
X135178039Y-83499500D01*
X135178035Y-83499500D01*
X135039949Y-83540046D01*
X135039942Y-83540049D01*
X134918873Y-83617855D01*
X134824622Y-83726628D01*
X134762338Y-83863008D01*
X134720966Y-83908085D01*
X134660999Y-83920236D01*
X134605343Y-83894818D01*
X134597465Y-83886711D01*
X134581128Y-83867857D01*
X134581128Y-83867856D01*
X134527331Y-83833284D01*
X134488600Y-83785919D01*
X134485106Y-83724833D01*
X134518185Y-83673360D01*
X134527331Y-83666716D01*
X134565079Y-83642457D01*
X134581128Y-83632143D01*
X134675377Y-83523373D01*
X134735165Y-83392457D01*
X134755647Y-83250000D01*
X134755647Y-83249996D01*
X134735934Y-83112886D01*
X134746367Y-83052597D01*
X134790245Y-83009954D01*
X134819847Y-83000803D01*
X134821952Y-83000500D01*
X134821961Y-83000500D01*
X134960053Y-82959953D01*
X135081128Y-82882143D01*
X135175377Y-82773373D01*
X135235165Y-82642457D01*
X135255647Y-82500000D01*
X135243927Y-82418488D01*
X135235165Y-82357543D01*
X135204340Y-82290046D01*
X135175377Y-82226627D01*
X135081128Y-82117857D01*
X135081127Y-82117856D01*
X135081126Y-82117855D01*
X134960057Y-82040049D01*
X134960054Y-82040047D01*
X134960053Y-82040047D01*
X134960050Y-82040046D01*
X134821957Y-81999498D01*
X134819837Y-81999194D01*
X134818232Y-81998405D01*
X134815167Y-81997505D01*
X134815322Y-81996974D01*
X134764929Y-81972198D01*
X134736376Y-81918084D01*
X134735934Y-81887113D01*
X134755647Y-81750002D01*
X134755647Y-81749997D01*
X134735165Y-81607543D01*
X134706889Y-81545627D01*
X134699914Y-81484840D01*
X134730000Y-81431563D01*
X134785656Y-81406145D01*
X134796942Y-81405500D01*
X142497405Y-81405500D01*
X142555596Y-81424407D01*
X142591560Y-81473907D01*
X142591560Y-81535093D01*
X142555596Y-81584593D01*
X142526143Y-81599237D01*
X142376045Y-81644768D01*
X142193547Y-81742316D01*
X142033595Y-81873585D01*
X142033585Y-81873595D01*
X141902316Y-82033547D01*
X141804768Y-82216045D01*
X141744699Y-82414065D01*
X141744698Y-82414070D01*
X141724417Y-82619996D01*
X141724417Y-82620003D01*
X141744698Y-82825929D01*
X141744699Y-82825934D01*
X141804768Y-83023954D01*
X141902316Y-83206452D01*
X141938051Y-83249995D01*
X142033590Y-83366410D01*
X142033595Y-83366414D01*
X142193547Y-83497683D01*
X142193548Y-83497683D01*
X142193550Y-83497685D01*
X142376046Y-83595232D01*
X142497727Y-83632143D01*
X142574065Y-83655300D01*
X142574070Y-83655301D01*
X142779997Y-83675583D01*
X142780000Y-83675583D01*
X142780003Y-83675583D01*
X142985929Y-83655301D01*
X142985934Y-83655300D01*
X143183954Y-83595232D01*
X143366450Y-83497685D01*
X143526410Y-83366410D01*
X143657685Y-83206450D01*
X143755232Y-83023954D01*
X143815300Y-82825934D01*
X143815301Y-82825929D01*
X143835583Y-82620003D01*
X143835583Y-82619996D01*
X143815301Y-82414070D01*
X143815300Y-82414065D01*
X143777680Y-82290049D01*
X143755232Y-82216046D01*
X143657685Y-82033550D01*
X143629740Y-81999499D01*
X143526414Y-81873595D01*
X143526410Y-81873590D01*
X143526404Y-81873585D01*
X143366452Y-81742316D01*
X143183954Y-81644768D01*
X142985934Y-81584699D01*
X142983066Y-81584129D01*
X142981900Y-81583476D01*
X142981280Y-81583288D01*
X142981321Y-81583151D01*
X142929685Y-81554226D01*
X142904076Y-81498658D01*
X142916019Y-81438650D01*
X142960954Y-81397122D01*
X142986904Y-81389252D01*
X143090389Y-81372862D01*
X143288816Y-81308389D01*
X143474714Y-81213670D01*
X143643505Y-81091035D01*
X143791035Y-80943505D01*
X143913670Y-80774714D01*
X144008389Y-80588816D01*
X144072862Y-80390389D01*
X144105500Y-80184319D01*
X144105500Y-79975681D01*
X144105500Y-79975677D01*
X144072863Y-79769615D01*
X144072862Y-79769611D01*
X144008389Y-79571184D01*
X143913670Y-79385286D01*
X143876114Y-79333595D01*
X143791039Y-79216500D01*
X143791037Y-79216498D01*
X143791035Y-79216495D01*
X143643505Y-79068965D01*
X143643501Y-79068962D01*
X143643499Y-79068960D01*
X143474719Y-78946333D01*
X143474713Y-78946329D01*
X143380272Y-78898210D01*
X143337008Y-78854946D01*
X143327436Y-78794513D01*
X143355213Y-78739997D01*
X143380272Y-78721790D01*
X143474714Y-78673670D01*
X143643505Y-78551035D01*
X143791035Y-78403505D01*
X143913670Y-78234714D01*
X144008389Y-78048816D01*
X144072862Y-77850389D01*
X144105500Y-77644319D01*
X144105500Y-77435681D01*
X144105500Y-77435677D01*
X144072863Y-77229615D01*
X144072862Y-77229611D01*
X144008389Y-77031184D01*
X143913670Y-76845286D01*
X143876114Y-76793595D01*
X143791039Y-76676500D01*
X143791037Y-76676498D01*
X143791035Y-76676495D01*
X143643505Y-76528965D01*
X143643501Y-76528962D01*
X143643499Y-76528960D01*
X143474719Y-76406333D01*
X143474713Y-76406329D01*
X143288816Y-76311611D01*
X143090377Y-76247134D01*
X143086606Y-76246229D01*
X143086892Y-76245037D01*
X143036779Y-76219504D01*
X143009001Y-76164988D01*
X143018572Y-76104555D01*
X143061836Y-76061291D01*
X143106782Y-76050500D01*
X143649747Y-76050500D01*
X143649748Y-76050500D01*
X143708231Y-76038867D01*
X143774552Y-75994552D01*
X143818867Y-75928231D01*
X143830500Y-75869748D01*
X143830500Y-74130252D01*
X143818867Y-74071769D01*
X143774552Y-74005448D01*
X143774548Y-74005445D01*
X143708233Y-73961134D01*
X143708231Y-73961133D01*
X143708228Y-73961132D01*
X143708227Y-73961132D01*
X143649758Y-73949501D01*
X143649748Y-73949500D01*
X141910252Y-73949500D01*
X141910251Y-73949500D01*
X141910241Y-73949501D01*
X141851772Y-73961132D01*
X141851766Y-73961134D01*
X141785451Y-74005445D01*
X141785445Y-74005451D01*
X141741134Y-74071766D01*
X141741132Y-74071772D01*
X141729501Y-74130241D01*
X141729500Y-74130253D01*
X141729500Y-75869746D01*
X141729501Y-75869758D01*
X141741132Y-75928227D01*
X141741133Y-75928231D01*
X141785448Y-75994552D01*
X141785451Y-75994554D01*
X141843265Y-76033185D01*
X141881144Y-76081235D01*
X141883546Y-76142374D01*
X141849552Y-76193247D01*
X141792149Y-76214424D01*
X141788263Y-76214500D01*
X139726545Y-76214500D01*
X139668354Y-76195593D01*
X139632390Y-76146093D01*
X139632390Y-76084907D01*
X139651725Y-76050670D01*
X139666875Y-76033185D01*
X139675377Y-76023373D01*
X139735165Y-75892457D01*
X139755647Y-75750000D01*
X139735165Y-75607543D01*
X139675377Y-75476627D01*
X139643491Y-75439829D01*
X139619675Y-75383472D01*
X139633533Y-75323877D01*
X139643492Y-75310170D01*
X139675377Y-75273373D01*
X139735165Y-75142457D01*
X139746964Y-75060390D01*
X139755647Y-75000002D01*
X139755647Y-74999997D01*
X139735165Y-74857543D01*
X139675377Y-74726628D01*
X139675377Y-74726627D01*
X139643491Y-74689829D01*
X139619675Y-74633472D01*
X139633533Y-74573877D01*
X139643492Y-74560170D01*
X139675377Y-74523373D01*
X139735165Y-74392457D01*
X139745017Y-74323937D01*
X139755647Y-74250002D01*
X139755647Y-74249997D01*
X139735165Y-74107543D01*
X139711300Y-74055287D01*
X139675377Y-73976627D01*
X139581128Y-73867857D01*
X139581127Y-73867856D01*
X139581126Y-73867855D01*
X139460057Y-73790049D01*
X139460054Y-73790047D01*
X139460053Y-73790047D01*
X139460050Y-73790046D01*
X139321964Y-73749500D01*
X139321961Y-73749500D01*
X139178039Y-73749500D01*
X139178035Y-73749500D01*
X139039949Y-73790046D01*
X139039942Y-73790049D01*
X138928523Y-73861654D01*
X138869348Y-73877209D01*
X138821477Y-73861654D01*
X138710057Y-73790049D01*
X138710054Y-73790047D01*
X138710053Y-73790047D01*
X138710050Y-73790046D01*
X138571964Y-73749500D01*
X138571961Y-73749500D01*
X138428039Y-73749500D01*
X138428035Y-73749500D01*
X138289949Y-73790046D01*
X138289942Y-73790049D01*
X138178523Y-73861654D01*
X138119348Y-73877209D01*
X138071477Y-73861654D01*
X137960057Y-73790049D01*
X137960054Y-73790047D01*
X137960053Y-73790047D01*
X137960050Y-73790046D01*
X137821964Y-73749500D01*
X137821961Y-73749500D01*
X137678039Y-73749500D01*
X137678035Y-73749500D01*
X137539949Y-73790046D01*
X137539942Y-73790049D01*
X137418873Y-73867855D01*
X137324622Y-73976628D01*
X137264834Y-74107543D01*
X137244353Y-74249997D01*
X137244353Y-74250002D01*
X137264834Y-74392456D01*
X137324622Y-74523371D01*
X137324623Y-74523373D01*
X137346977Y-74549171D01*
X137356507Y-74560170D01*
X137380323Y-74616530D01*
X137366463Y-74676125D01*
X137356507Y-74689830D01*
X137324622Y-74726628D01*
X137264834Y-74857543D01*
X137244353Y-74999997D01*
X137244353Y-75000002D01*
X137264834Y-75142456D01*
X137317975Y-75258817D01*
X137324623Y-75273373D01*
X137346977Y-75299171D01*
X137356507Y-75310170D01*
X137380323Y-75366530D01*
X137366463Y-75426125D01*
X137356507Y-75439830D01*
X137324622Y-75476628D01*
X137264834Y-75607543D01*
X137244353Y-75749997D01*
X137244353Y-75750003D01*
X137264120Y-75887491D01*
X137253687Y-75947781D01*
X137209808Y-75990423D01*
X137149246Y-75999130D01*
X137096124Y-75971584D01*
X135524206Y-74399666D01*
X135496429Y-74345149D01*
X135496218Y-74315578D01*
X135505647Y-74250000D01*
X135504379Y-74241182D01*
X135485165Y-74107543D01*
X135461300Y-74055287D01*
X135425377Y-73976627D01*
X135331128Y-73867857D01*
X135331127Y-73867856D01*
X135331126Y-73867855D01*
X135210057Y-73790049D01*
X135210054Y-73790047D01*
X135210053Y-73790047D01*
X135210050Y-73790046D01*
X135071964Y-73749500D01*
X135071961Y-73749500D01*
X134928039Y-73749500D01*
X134928032Y-73749500D01*
X134926035Y-73749787D01*
X134924377Y-73749500D01*
X134920959Y-73749500D01*
X134920959Y-73748908D01*
X134865747Y-73739349D01*
X134853763Y-73731887D01*
X134694711Y-73616328D01*
X134508817Y-73521612D01*
X134508816Y-73521611D01*
X134508815Y-73521611D01*
X134457356Y-73504890D01*
X134310389Y-73457136D01*
X134248162Y-73447281D01*
X134193645Y-73419504D01*
X134165867Y-73364988D01*
X134175438Y-73304556D01*
X134218702Y-73261291D01*
X134263648Y-73250500D01*
X144400500Y-73250500D01*
X144458691Y-73269407D01*
X144494655Y-73318907D01*
X144499500Y-73349500D01*
X144499500Y-104650500D01*
X144480593Y-104708691D01*
X144431093Y-104744655D01*
X144400500Y-104749500D01*
X123349500Y-104749500D01*
X123291309Y-104730593D01*
X123255345Y-104681093D01*
X123250500Y-104650500D01*
X123250500Y-102939996D01*
X123944417Y-102939996D01*
X123944417Y-102940003D01*
X123964698Y-103145929D01*
X123964699Y-103145934D01*
X124024768Y-103343954D01*
X124122316Y-103526452D01*
X124253585Y-103686404D01*
X124253590Y-103686410D01*
X124253595Y-103686414D01*
X124413547Y-103817683D01*
X124413548Y-103817683D01*
X124413550Y-103817685D01*
X124596046Y-103915232D01*
X124733997Y-103957078D01*
X124794065Y-103975300D01*
X124794070Y-103975301D01*
X124999997Y-103995583D01*
X125000000Y-103995583D01*
X125000003Y-103995583D01*
X125205929Y-103975301D01*
X125205934Y-103975300D01*
X125403954Y-103915232D01*
X125586450Y-103817685D01*
X125746410Y-103686410D01*
X125877685Y-103526450D01*
X125975232Y-103343954D01*
X126035300Y-103145934D01*
X126035301Y-103145929D01*
X126055583Y-102940003D01*
X126055583Y-102939996D01*
X141724417Y-102939996D01*
X141724417Y-102940003D01*
X141744698Y-103145929D01*
X141744699Y-103145934D01*
X141804768Y-103343954D01*
X141902316Y-103526452D01*
X142033585Y-103686404D01*
X142033590Y-103686410D01*
X142033595Y-103686414D01*
X142193547Y-103817683D01*
X142193548Y-103817683D01*
X142193550Y-103817685D01*
X142376046Y-103915232D01*
X142513997Y-103957078D01*
X142574065Y-103975300D01*
X142574070Y-103975301D01*
X142779997Y-103995583D01*
X142780000Y-103995583D01*
X142780003Y-103995583D01*
X142985929Y-103975301D01*
X142985934Y-103975300D01*
X143183954Y-103915232D01*
X143366450Y-103817685D01*
X143526410Y-103686410D01*
X143657685Y-103526450D01*
X143755232Y-103343954D01*
X143815300Y-103145934D01*
X143815301Y-103145929D01*
X143835583Y-102940003D01*
X143835583Y-102939996D01*
X143815301Y-102734070D01*
X143815300Y-102734065D01*
X143797078Y-102673997D01*
X143755232Y-102536046D01*
X143657685Y-102353550D01*
X143526410Y-102193590D01*
X143526404Y-102193585D01*
X143366452Y-102062316D01*
X143183954Y-101964768D01*
X142985934Y-101904699D01*
X142985929Y-101904698D01*
X142780003Y-101884417D01*
X142779997Y-101884417D01*
X142574070Y-101904698D01*
X142574065Y-101904699D01*
X142376045Y-101964768D01*
X142193547Y-102062316D01*
X142033595Y-102193585D01*
X142033585Y-102193595D01*
X141902316Y-102353547D01*
X141804768Y-102536045D01*
X141744699Y-102734065D01*
X141744698Y-102734070D01*
X141724417Y-102939996D01*
X126055583Y-102939996D01*
X126035301Y-102734070D01*
X126035300Y-102734065D01*
X126017078Y-102673997D01*
X125975232Y-102536046D01*
X125877685Y-102353550D01*
X125746410Y-102193590D01*
X125746404Y-102193585D01*
X125586452Y-102062316D01*
X125403954Y-101964768D01*
X125205934Y-101904699D01*
X125205929Y-101904698D01*
X125000003Y-101884417D01*
X124999997Y-101884417D01*
X124794070Y-101904698D01*
X124794065Y-101904699D01*
X124596045Y-101964768D01*
X124413547Y-102062316D01*
X124253595Y-102193585D01*
X124253585Y-102193595D01*
X124122316Y-102353547D01*
X124024768Y-102536045D01*
X123964699Y-102734065D01*
X123964698Y-102734070D01*
X123944417Y-102939996D01*
X123250500Y-102939996D01*
X123250500Y-100399996D01*
X123944417Y-100399996D01*
X123944417Y-100400003D01*
X123964698Y-100605929D01*
X123964699Y-100605934D01*
X124024768Y-100803954D01*
X124122316Y-100986452D01*
X124182813Y-101060168D01*
X124253590Y-101146410D01*
X124253595Y-101146414D01*
X124413547Y-101277683D01*
X124413548Y-101277683D01*
X124413550Y-101277685D01*
X124596046Y-101375232D01*
X124733997Y-101417078D01*
X124794065Y-101435300D01*
X124794070Y-101435301D01*
X124999997Y-101455583D01*
X125000000Y-101455583D01*
X125000003Y-101455583D01*
X125205929Y-101435301D01*
X125205934Y-101435300D01*
X125403954Y-101375232D01*
X125586450Y-101277685D01*
X125746410Y-101146410D01*
X125877685Y-100986450D01*
X125975232Y-100803954D01*
X126035300Y-100605934D01*
X126035301Y-100605929D01*
X126055583Y-100400003D01*
X126055583Y-100399996D01*
X126035301Y-100194070D01*
X126035300Y-100194065D01*
X126017078Y-100133997D01*
X125976430Y-99999997D01*
X129994353Y-99999997D01*
X129994353Y-100000002D01*
X130014834Y-100142456D01*
X130038404Y-100194066D01*
X130074623Y-100273373D01*
X130096977Y-100299171D01*
X130106507Y-100310170D01*
X130130323Y-100366530D01*
X130116463Y-100426125D01*
X130106507Y-100439830D01*
X130074622Y-100476628D01*
X130014834Y-100607543D01*
X129994353Y-100749997D01*
X129994353Y-100750002D01*
X130014834Y-100892456D01*
X130074622Y-101023371D01*
X130074623Y-101023373D01*
X130096977Y-101049171D01*
X130106507Y-101060170D01*
X130130323Y-101116530D01*
X130116463Y-101176125D01*
X130106507Y-101189830D01*
X130074622Y-101226628D01*
X130014834Y-101357543D01*
X129994353Y-101499997D01*
X129994353Y-101500002D01*
X130014834Y-101642456D01*
X130074622Y-101773371D01*
X130074623Y-101773373D01*
X130160768Y-101872790D01*
X130168873Y-101882144D01*
X130203971Y-101904700D01*
X130289947Y-101959953D01*
X130396403Y-101991211D01*
X130428035Y-102000499D01*
X130428036Y-102000499D01*
X130428039Y-102000500D01*
X130428041Y-102000500D01*
X130571959Y-102000500D01*
X130571961Y-102000500D01*
X130710053Y-101959953D01*
X130821478Y-101888344D01*
X130880652Y-101872790D01*
X130928521Y-101888344D01*
X131039947Y-101959953D01*
X131146403Y-101991211D01*
X131178035Y-102000499D01*
X131178036Y-102000499D01*
X131178039Y-102000500D01*
X131178041Y-102000500D01*
X131321959Y-102000500D01*
X131321961Y-102000500D01*
X131460053Y-101959953D01*
X131571478Y-101888344D01*
X131630652Y-101872790D01*
X131678521Y-101888344D01*
X131789947Y-101959953D01*
X131896403Y-101991211D01*
X131928035Y-102000499D01*
X131928036Y-102000499D01*
X131928039Y-102000500D01*
X131928041Y-102000500D01*
X132071959Y-102000500D01*
X132071961Y-102000500D01*
X132210053Y-101959953D01*
X132321478Y-101888344D01*
X132380652Y-101872790D01*
X132428521Y-101888344D01*
X132539947Y-101959953D01*
X132646403Y-101991211D01*
X132678035Y-102000499D01*
X132678036Y-102000499D01*
X132678039Y-102000500D01*
X132678041Y-102000500D01*
X132821959Y-102000500D01*
X132821961Y-102000500D01*
X132960053Y-101959953D01*
X133081128Y-101882143D01*
X133175377Y-101773373D01*
X133235165Y-101642457D01*
X133255647Y-101500000D01*
X133235165Y-101357543D01*
X133175377Y-101226627D01*
X133143491Y-101189829D01*
X133119675Y-101133472D01*
X133133533Y-101073877D01*
X133143492Y-101060170D01*
X133175377Y-101023373D01*
X133235165Y-100892457D01*
X133255647Y-100750000D01*
X133235165Y-100607543D01*
X133175377Y-100476627D01*
X133143491Y-100439829D01*
X133119675Y-100383472D01*
X133133533Y-100323877D01*
X133143492Y-100310170D01*
X133175377Y-100273373D01*
X133235165Y-100142457D01*
X133255647Y-100000000D01*
X133255647Y-99999997D01*
X134744353Y-99999997D01*
X134744353Y-100000002D01*
X134764834Y-100142456D01*
X134788404Y-100194066D01*
X134824623Y-100273373D01*
X134846977Y-100299171D01*
X134856507Y-100310170D01*
X134880323Y-100366530D01*
X134866463Y-100426125D01*
X134856507Y-100439830D01*
X134824622Y-100476628D01*
X134764834Y-100607543D01*
X134744353Y-100749997D01*
X134744353Y-100750002D01*
X134764834Y-100892456D01*
X134824622Y-101023371D01*
X134824623Y-101023373D01*
X134846977Y-101049171D01*
X134856507Y-101060170D01*
X134880323Y-101116530D01*
X134866463Y-101176125D01*
X134856507Y-101189830D01*
X134824622Y-101226628D01*
X134764834Y-101357543D01*
X134744353Y-101499997D01*
X134744353Y-101500002D01*
X134764834Y-101642456D01*
X134824622Y-101773371D01*
X134824623Y-101773373D01*
X134910768Y-101872790D01*
X134918873Y-101882144D01*
X134953971Y-101904700D01*
X135039947Y-101959953D01*
X135146403Y-101991211D01*
X135178035Y-102000499D01*
X135178036Y-102000499D01*
X135178039Y-102000500D01*
X135178041Y-102000500D01*
X135321959Y-102000500D01*
X135321961Y-102000500D01*
X135460053Y-101959953D01*
X135571478Y-101888344D01*
X135630652Y-101872790D01*
X135678521Y-101888344D01*
X135789947Y-101959953D01*
X135896403Y-101991211D01*
X135928035Y-102000499D01*
X135928036Y-102000499D01*
X135928039Y-102000500D01*
X135928041Y-102000500D01*
X136071959Y-102000500D01*
X136071961Y-102000500D01*
X136210053Y-101959953D01*
X136321478Y-101888344D01*
X136380652Y-101872790D01*
X136428521Y-101888344D01*
X136539947Y-101959953D01*
X136646403Y-101991211D01*
X136678035Y-102000499D01*
X136678036Y-102000499D01*
X136678039Y-102000500D01*
X136678041Y-102000500D01*
X136821959Y-102000500D01*
X136821961Y-102000500D01*
X136960053Y-101959953D01*
X137071478Y-101888344D01*
X137130652Y-101872790D01*
X137178521Y-101888344D01*
X137289947Y-101959953D01*
X137396403Y-101991211D01*
X137428035Y-102000499D01*
X137428036Y-102000499D01*
X137428039Y-102000500D01*
X137428041Y-102000500D01*
X137571959Y-102000500D01*
X137571961Y-102000500D01*
X137710053Y-101959953D01*
X137831128Y-101882143D01*
X137925377Y-101773373D01*
X137985165Y-101642457D01*
X138005647Y-101500000D01*
X137985165Y-101357543D01*
X137925377Y-101226627D01*
X137893491Y-101189829D01*
X137869675Y-101133472D01*
X137883533Y-101073877D01*
X137893492Y-101060170D01*
X137925377Y-101023373D01*
X137985165Y-100892457D01*
X138005647Y-100750000D01*
X137985165Y-100607543D01*
X137925377Y-100476627D01*
X137893491Y-100439829D01*
X137876658Y-100399996D01*
X141724417Y-100399996D01*
X141724417Y-100400003D01*
X141744698Y-100605929D01*
X141744699Y-100605934D01*
X141804768Y-100803954D01*
X141902316Y-100986452D01*
X141962813Y-101060168D01*
X142033590Y-101146410D01*
X142033595Y-101146414D01*
X142193547Y-101277683D01*
X142193548Y-101277683D01*
X142193550Y-101277685D01*
X142376046Y-101375232D01*
X142513997Y-101417078D01*
X142574065Y-101435300D01*
X142574070Y-101435301D01*
X142779997Y-101455583D01*
X142780000Y-101455583D01*
X142780003Y-101455583D01*
X142985929Y-101435301D01*
X142985934Y-101435300D01*
X143183954Y-101375232D01*
X143366450Y-101277685D01*
X143526410Y-101146410D01*
X143657685Y-100986450D01*
X143755232Y-100803954D01*
X143815300Y-100605934D01*
X143815301Y-100605929D01*
X143835583Y-100400003D01*
X143835583Y-100399996D01*
X143815301Y-100194070D01*
X143815300Y-100194065D01*
X143797078Y-100133997D01*
X143755232Y-99996046D01*
X143657685Y-99813550D01*
X143586350Y-99726628D01*
X143526414Y-99653595D01*
X143526410Y-99653590D01*
X143526404Y-99653585D01*
X143366452Y-99522316D01*
X143183954Y-99424768D01*
X142985934Y-99364699D01*
X142985929Y-99364698D01*
X142780003Y-99344417D01*
X142779997Y-99344417D01*
X142574070Y-99364698D01*
X142574065Y-99364699D01*
X142376045Y-99424768D01*
X142193547Y-99522316D01*
X142033595Y-99653585D01*
X142033585Y-99653595D01*
X141902316Y-99813547D01*
X141804768Y-99996045D01*
X141744699Y-100194065D01*
X141744698Y-100194070D01*
X141724417Y-100399996D01*
X137876658Y-100399996D01*
X137869675Y-100383472D01*
X137883533Y-100323877D01*
X137893492Y-100310170D01*
X137925377Y-100273373D01*
X137985165Y-100142457D01*
X138005647Y-100000000D01*
X138005078Y-99996045D01*
X137985165Y-99857543D01*
X137925377Y-99726628D01*
X137925377Y-99726627D01*
X137831128Y-99617857D01*
X137831127Y-99617856D01*
X137831126Y-99617855D01*
X137710057Y-99540049D01*
X137710054Y-99540047D01*
X137710053Y-99540047D01*
X137710050Y-99540046D01*
X137571964Y-99499500D01*
X137571961Y-99499500D01*
X137428039Y-99499500D01*
X137428035Y-99499500D01*
X137289949Y-99540046D01*
X137289942Y-99540049D01*
X137178523Y-99611654D01*
X137119348Y-99627209D01*
X137071477Y-99611654D01*
X136960057Y-99540049D01*
X136960054Y-99540047D01*
X136960053Y-99540047D01*
X136960050Y-99540046D01*
X136821964Y-99499500D01*
X136821961Y-99499500D01*
X136678039Y-99499500D01*
X136678035Y-99499500D01*
X136539949Y-99540046D01*
X136539942Y-99540049D01*
X136428523Y-99611654D01*
X136369348Y-99627209D01*
X136321477Y-99611654D01*
X136210057Y-99540049D01*
X136210054Y-99540047D01*
X136210053Y-99540047D01*
X136210050Y-99540046D01*
X136071964Y-99499500D01*
X136071961Y-99499500D01*
X135928039Y-99499500D01*
X135928035Y-99499500D01*
X135789949Y-99540046D01*
X135789942Y-99540049D01*
X135678523Y-99611654D01*
X135619348Y-99627209D01*
X135571477Y-99611654D01*
X135460057Y-99540049D01*
X135460054Y-99540047D01*
X135460053Y-99540047D01*
X135460050Y-99540046D01*
X135321964Y-99499500D01*
X135321961Y-99499500D01*
X135178039Y-99499500D01*
X135178035Y-99499500D01*
X135039949Y-99540046D01*
X135039942Y-99540049D01*
X134918873Y-99617855D01*
X134824622Y-99726628D01*
X134764834Y-99857543D01*
X134744353Y-99999997D01*
X133255647Y-99999997D01*
X133255078Y-99996045D01*
X133235165Y-99857543D01*
X133175377Y-99726628D01*
X133175377Y-99726627D01*
X133081128Y-99617857D01*
X133081127Y-99617856D01*
X133081126Y-99617855D01*
X132960057Y-99540049D01*
X132960054Y-99540047D01*
X132960053Y-99540047D01*
X132960050Y-99540046D01*
X132821964Y-99499500D01*
X132821961Y-99499500D01*
X132678039Y-99499500D01*
X132678035Y-99499500D01*
X132539949Y-99540046D01*
X132539942Y-99540049D01*
X132428523Y-99611654D01*
X132369348Y-99627209D01*
X132321477Y-99611654D01*
X132210057Y-99540049D01*
X132210054Y-99540047D01*
X132210053Y-99540047D01*
X132210050Y-99540046D01*
X132071964Y-99499500D01*
X132071961Y-99499500D01*
X131928039Y-99499500D01*
X131928035Y-99499500D01*
X131789949Y-99540046D01*
X131789942Y-99540049D01*
X131678523Y-99611654D01*
X131619348Y-99627209D01*
X131571477Y-99611654D01*
X131460057Y-99540049D01*
X131460054Y-99540047D01*
X131460053Y-99540047D01*
X131460050Y-99540046D01*
X131321964Y-99499500D01*
X131321961Y-99499500D01*
X131178039Y-99499500D01*
X131178035Y-99499500D01*
X131039949Y-99540046D01*
X131039942Y-99540049D01*
X130928523Y-99611654D01*
X130869348Y-99627209D01*
X130821477Y-99611654D01*
X130710057Y-99540049D01*
X130710054Y-99540047D01*
X130710053Y-99540047D01*
X130710050Y-99540046D01*
X130571964Y-99499500D01*
X130571961Y-99499500D01*
X130428039Y-99499500D01*
X130428035Y-99499500D01*
X130289949Y-99540046D01*
X130289942Y-99540049D01*
X130168873Y-99617855D01*
X130074622Y-99726628D01*
X130014834Y-99857543D01*
X129994353Y-99999997D01*
X125976430Y-99999997D01*
X125975232Y-99996046D01*
X125877685Y-99813550D01*
X125806350Y-99726628D01*
X125746414Y-99653595D01*
X125746410Y-99653590D01*
X125746404Y-99653585D01*
X125586452Y-99522316D01*
X125403954Y-99424768D01*
X125205934Y-99364699D01*
X125205929Y-99364698D01*
X125000003Y-99344417D01*
X124999997Y-99344417D01*
X124794070Y-99364698D01*
X124794065Y-99364699D01*
X124596045Y-99424768D01*
X124413547Y-99522316D01*
X124253595Y-99653585D01*
X124253585Y-99653595D01*
X124122316Y-99813547D01*
X124024768Y-99996045D01*
X123964699Y-100194065D01*
X123964698Y-100194070D01*
X123944417Y-100399996D01*
X123250500Y-100399996D01*
X123250500Y-97859996D01*
X123944417Y-97859996D01*
X123944417Y-97860003D01*
X123964698Y-98065929D01*
X123964699Y-98065934D01*
X124024768Y-98263954D01*
X124122316Y-98446452D01*
X124253585Y-98606404D01*
X124253590Y-98606410D01*
X124253595Y-98606414D01*
X124413547Y-98737683D01*
X124413548Y-98737683D01*
X124413550Y-98737685D01*
X124596046Y-98835232D01*
X124733997Y-98877078D01*
X124794065Y-98895300D01*
X124794070Y-98895301D01*
X124999997Y-98915583D01*
X125000000Y-98915583D01*
X125000003Y-98915583D01*
X125205929Y-98895301D01*
X125205934Y-98895300D01*
X125403954Y-98835232D01*
X125586450Y-98737685D01*
X125746410Y-98606410D01*
X125877685Y-98446450D01*
X125975232Y-98263954D01*
X126035300Y-98065934D01*
X126035301Y-98065929D01*
X126055583Y-97860003D01*
X126055583Y-97859996D01*
X126035301Y-97654070D01*
X126035300Y-97654065D01*
X126017078Y-97593997D01*
X125975232Y-97456046D01*
X125877685Y-97273550D01*
X125746410Y-97113590D01*
X125746404Y-97113585D01*
X125586452Y-96982316D01*
X125403954Y-96884768D01*
X125205934Y-96824699D01*
X125205929Y-96824698D01*
X125000003Y-96804417D01*
X124999997Y-96804417D01*
X124794070Y-96824698D01*
X124794065Y-96824699D01*
X124596045Y-96884768D01*
X124413547Y-96982316D01*
X124253595Y-97113585D01*
X124253585Y-97113595D01*
X124122316Y-97273547D01*
X124024768Y-97456045D01*
X123964699Y-97654065D01*
X123964698Y-97654070D01*
X123944417Y-97859996D01*
X123250500Y-97859996D01*
X123250500Y-95319996D01*
X123944417Y-95319996D01*
X123944417Y-95320003D01*
X123964698Y-95525929D01*
X123964699Y-95525934D01*
X124024768Y-95723954D01*
X124122316Y-95906452D01*
X124207601Y-96010372D01*
X124253590Y-96066410D01*
X124253595Y-96066414D01*
X124413547Y-96197683D01*
X124413548Y-96197683D01*
X124413550Y-96197685D01*
X124596046Y-96295232D01*
X124733997Y-96337078D01*
X124794065Y-96355300D01*
X124794070Y-96355301D01*
X124999997Y-96375583D01*
X125000000Y-96375583D01*
X125000003Y-96375583D01*
X125205929Y-96355301D01*
X125205934Y-96355300D01*
X125403954Y-96295232D01*
X125586450Y-96197685D01*
X125746410Y-96066410D01*
X125877685Y-95906450D01*
X125975232Y-95723954D01*
X126035300Y-95525934D01*
X126035301Y-95525929D01*
X126055583Y-95320003D01*
X126055583Y-95319996D01*
X126035301Y-95114070D01*
X126035300Y-95114065D01*
X126000699Y-95000000D01*
X125975232Y-94916046D01*
X125877685Y-94733550D01*
X125876531Y-94732144D01*
X125746414Y-94573595D01*
X125746410Y-94573590D01*
X125705540Y-94540049D01*
X125656736Y-94499997D01*
X127877196Y-94499997D01*
X127877196Y-94500002D01*
X127897677Y-94642456D01*
X127938637Y-94732144D01*
X127957466Y-94773373D01*
X128030118Y-94857218D01*
X128051716Y-94882144D01*
X128098481Y-94912198D01*
X128137213Y-94959564D01*
X128140706Y-95020650D01*
X128107626Y-95072122D01*
X128098483Y-95078765D01*
X128051716Y-95108821D01*
X127957465Y-95217593D01*
X127897677Y-95348508D01*
X127877196Y-95490962D01*
X127877196Y-95490967D01*
X127897677Y-95633421D01*
X127939023Y-95723954D01*
X127957466Y-95764338D01*
X128038228Y-95857543D01*
X128051716Y-95873109D01*
X128103596Y-95906450D01*
X128172790Y-95950918D01*
X128268307Y-95978964D01*
X128310878Y-95991464D01*
X128310879Y-95991464D01*
X128310882Y-95991465D01*
X128310884Y-95991465D01*
X128407342Y-95991465D01*
X128465533Y-96010372D01*
X128501497Y-96059872D01*
X128505334Y-96076377D01*
X128514834Y-96142455D01*
X128514835Y-96142457D01*
X128574623Y-96273373D01*
X128663188Y-96375583D01*
X128668873Y-96382144D01*
X128789942Y-96459950D01*
X128789947Y-96459953D01*
X128896403Y-96491211D01*
X128928035Y-96500499D01*
X128928036Y-96500499D01*
X128928039Y-96500500D01*
X128928041Y-96500500D01*
X129071959Y-96500500D01*
X129071961Y-96500500D01*
X129210053Y-96459953D01*
X129331128Y-96382143D01*
X129425377Y-96273373D01*
X129485165Y-96142457D01*
X129505647Y-96000000D01*
X129485165Y-95857543D01*
X129425377Y-95726627D01*
X129331128Y-95617857D01*
X129331127Y-95617856D01*
X129331126Y-95617855D01*
X129210057Y-95540049D01*
X129210054Y-95540047D01*
X129210053Y-95540047D01*
X129210050Y-95540046D01*
X129071964Y-95499500D01*
X129071961Y-95499500D01*
X128975501Y-95499500D01*
X128917310Y-95480593D01*
X128881346Y-95431093D01*
X128877509Y-95414588D01*
X128868008Y-95348509D01*
X128854989Y-95320000D01*
X128808220Y-95217592D01*
X128713971Y-95108822D01*
X128667203Y-95078766D01*
X128628472Y-95031400D01*
X128626677Y-94999997D01*
X138494353Y-94999997D01*
X138494353Y-95000002D01*
X138514834Y-95142456D01*
X138549148Y-95217592D01*
X138574623Y-95273373D01*
X138668872Y-95382143D01*
X138668873Y-95382144D01*
X138789942Y-95459950D01*
X138789947Y-95459953D01*
X138895555Y-95490962D01*
X138928035Y-95500499D01*
X138928036Y-95500499D01*
X138928039Y-95500500D01*
X138928041Y-95500500D01*
X139071959Y-95500500D01*
X139071961Y-95500500D01*
X139210053Y-95459953D01*
X139331128Y-95382143D01*
X139384978Y-95319996D01*
X141724417Y-95319996D01*
X141724417Y-95320003D01*
X141744698Y-95525929D01*
X141744699Y-95525934D01*
X141804768Y-95723954D01*
X141902316Y-95906452D01*
X141987601Y-96010372D01*
X142033590Y-96066410D01*
X142033595Y-96066414D01*
X142193547Y-96197683D01*
X142193548Y-96197683D01*
X142193550Y-96197685D01*
X142376046Y-96295232D01*
X142513997Y-96337078D01*
X142574065Y-96355300D01*
X142574070Y-96355301D01*
X142779997Y-96375583D01*
X142780000Y-96375583D01*
X142780003Y-96375583D01*
X142985929Y-96355301D01*
X142985934Y-96355300D01*
X143183954Y-96295232D01*
X143366450Y-96197685D01*
X143526410Y-96066410D01*
X143657685Y-95906450D01*
X143755232Y-95723954D01*
X143815300Y-95525934D01*
X143815301Y-95525929D01*
X143835583Y-95320003D01*
X143835583Y-95319996D01*
X143815301Y-95114070D01*
X143815300Y-95114065D01*
X143780699Y-95000000D01*
X143755232Y-94916046D01*
X143657685Y-94733550D01*
X143656531Y-94732144D01*
X143526414Y-94573595D01*
X143526410Y-94573590D01*
X143485540Y-94540049D01*
X143366452Y-94442316D01*
X143183954Y-94344768D01*
X142985934Y-94284699D01*
X142985929Y-94284698D01*
X142780003Y-94264417D01*
X142779997Y-94264417D01*
X142574070Y-94284698D01*
X142574065Y-94284699D01*
X142376045Y-94344768D01*
X142193547Y-94442316D01*
X142033595Y-94573585D01*
X142033585Y-94573595D01*
X141902316Y-94733547D01*
X141804768Y-94916045D01*
X141744699Y-95114065D01*
X141744698Y-95114070D01*
X141724417Y-95319996D01*
X139384978Y-95319996D01*
X139425377Y-95273373D01*
X139485165Y-95142457D01*
X139495278Y-95072122D01*
X139505647Y-95000002D01*
X139505647Y-94999999D01*
X139504597Y-94992703D01*
X139499917Y-94960148D01*
X139510349Y-94899861D01*
X139554227Y-94857218D01*
X139570018Y-94851070D01*
X139571959Y-94850500D01*
X139571961Y-94850500D01*
X139710053Y-94809953D01*
X139831128Y-94732143D01*
X139925377Y-94623373D01*
X139985165Y-94492457D01*
X139992374Y-94442315D01*
X140005647Y-94350002D01*
X140005647Y-94349997D01*
X139985165Y-94207543D01*
X139936755Y-94101542D01*
X139925377Y-94076627D01*
X139831128Y-93967857D01*
X139831127Y-93967856D01*
X139831126Y-93967855D01*
X139710057Y-93890049D01*
X139710054Y-93890047D01*
X139710053Y-93890047D01*
X139710050Y-93890046D01*
X139571964Y-93849500D01*
X139571961Y-93849500D01*
X139428039Y-93849500D01*
X139428035Y-93849500D01*
X139289949Y-93890046D01*
X139289942Y-93890049D01*
X139168873Y-93967855D01*
X139074622Y-94076628D01*
X139014834Y-94207543D01*
X138994353Y-94349997D01*
X138994353Y-94350002D01*
X139000082Y-94389850D01*
X138989649Y-94450139D01*
X138945771Y-94492782D01*
X138929982Y-94498929D01*
X138789947Y-94540047D01*
X138789942Y-94540049D01*
X138668873Y-94617855D01*
X138574622Y-94726628D01*
X138514834Y-94857543D01*
X138494353Y-94999997D01*
X128626677Y-94999997D01*
X128624980Y-94970314D01*
X128658059Y-94918842D01*
X128667189Y-94912207D01*
X128713971Y-94882143D01*
X128808220Y-94773373D01*
X128868008Y-94642457D01*
X128877909Y-94573595D01*
X128888490Y-94500002D01*
X128888490Y-94499997D01*
X128868008Y-94357543D01*
X128808220Y-94226628D01*
X128808220Y-94226627D01*
X128771026Y-94183703D01*
X128747210Y-94127344D01*
X128761069Y-94067749D01*
X128807310Y-94027681D01*
X128868271Y-94022446D01*
X128899367Y-94035587D01*
X128938904Y-94060996D01*
X129021064Y-94085120D01*
X129076992Y-94101542D01*
X129076993Y-94101542D01*
X129076996Y-94101543D01*
X129076998Y-94101543D01*
X129220916Y-94101543D01*
X129220918Y-94101543D01*
X129359010Y-94060996D01*
X129480085Y-93983186D01*
X129574334Y-93874416D01*
X129634122Y-93743500D01*
X129646460Y-93657685D01*
X129654604Y-93601045D01*
X129654604Y-93599500D01*
X129655002Y-93598273D01*
X129655612Y-93594034D01*
X129656345Y-93594139D01*
X129659439Y-93584617D01*
X137909733Y-93584617D01*
X137909733Y-93584622D01*
X137930214Y-93727076D01*
X137986124Y-93849500D01*
X137990003Y-93857993D01*
X138084252Y-93966763D01*
X138084253Y-93966764D01*
X138205322Y-94044570D01*
X138205327Y-94044573D01*
X138303371Y-94073361D01*
X138343415Y-94085119D01*
X138343416Y-94085119D01*
X138343419Y-94085120D01*
X138343421Y-94085120D01*
X138487339Y-94085120D01*
X138487341Y-94085120D01*
X138625433Y-94044573D01*
X138746508Y-93966763D01*
X138840757Y-93857993D01*
X138900545Y-93727077D01*
X138910522Y-93657683D01*
X138921027Y-93584622D01*
X138921027Y-93584617D01*
X138900546Y-93442167D01*
X138900546Y-93442166D01*
X138900545Y-93442163D01*
X138898151Y-93436922D01*
X138891175Y-93376138D01*
X138921260Y-93322860D01*
X138960311Y-93300806D01*
X139032862Y-93279504D01*
X139153937Y-93201694D01*
X139248186Y-93092924D01*
X139307974Y-92962008D01*
X139328456Y-92819551D01*
X139322769Y-92780000D01*
X139318455Y-92749997D01*
X139601149Y-92749997D01*
X139601149Y-92750002D01*
X139621630Y-92892456D01*
X139664321Y-92985934D01*
X139681419Y-93023373D01*
X139748287Y-93100543D01*
X139775669Y-93132144D01*
X139883893Y-93201695D01*
X139896743Y-93209953D01*
X140003199Y-93241211D01*
X140034831Y-93250499D01*
X140034832Y-93250499D01*
X140034835Y-93250500D01*
X140034837Y-93250500D01*
X140178755Y-93250500D01*
X140178757Y-93250500D01*
X140316849Y-93209953D01*
X140437924Y-93132143D01*
X140532173Y-93023373D01*
X140591961Y-92892457D01*
X140608130Y-92779996D01*
X141724417Y-92779996D01*
X141724417Y-92780003D01*
X141744698Y-92985929D01*
X141744699Y-92985934D01*
X141804768Y-93183954D01*
X141902316Y-93366452D01*
X142033585Y-93526404D01*
X142033590Y-93526410D01*
X142033595Y-93526414D01*
X142193547Y-93657683D01*
X142193548Y-93657683D01*
X142193550Y-93657685D01*
X142376046Y-93755232D01*
X142513997Y-93797078D01*
X142574065Y-93815300D01*
X142574070Y-93815301D01*
X142779997Y-93835583D01*
X142780000Y-93835583D01*
X142780003Y-93835583D01*
X142985929Y-93815301D01*
X142985934Y-93815300D01*
X143183954Y-93755232D01*
X143366450Y-93657685D01*
X143526410Y-93526410D01*
X143657685Y-93366450D01*
X143755232Y-93183954D01*
X143815300Y-92985934D01*
X143815301Y-92985929D01*
X143835583Y-92780003D01*
X143835583Y-92779996D01*
X143815301Y-92574070D01*
X143815300Y-92574065D01*
X143785743Y-92476628D01*
X143755232Y-92376046D01*
X143657685Y-92193550D01*
X143526410Y-92033590D01*
X143526404Y-92033585D01*
X143366452Y-91902316D01*
X143183954Y-91804768D01*
X142985934Y-91744699D01*
X142985929Y-91744698D01*
X142780003Y-91724417D01*
X142779997Y-91724417D01*
X142574070Y-91744698D01*
X142574065Y-91744699D01*
X142376045Y-91804768D01*
X142193547Y-91902316D01*
X142033595Y-92033585D01*
X142033585Y-92033595D01*
X141902316Y-92193547D01*
X141804768Y-92376045D01*
X141744699Y-92574065D01*
X141744698Y-92574070D01*
X141724417Y-92779996D01*
X140608130Y-92779996D01*
X140612443Y-92750000D01*
X140591961Y-92607543D01*
X140532173Y-92476627D01*
X140437924Y-92367857D01*
X140437923Y-92367856D01*
X140437922Y-92367855D01*
X140316853Y-92290049D01*
X140316850Y-92290047D01*
X140316849Y-92290047D01*
X140316846Y-92290046D01*
X140178760Y-92249500D01*
X140178757Y-92249500D01*
X140034835Y-92249500D01*
X140034831Y-92249500D01*
X139896745Y-92290046D01*
X139896738Y-92290049D01*
X139775669Y-92367855D01*
X139681418Y-92476628D01*
X139621630Y-92607543D01*
X139601149Y-92749997D01*
X139318455Y-92749997D01*
X139307974Y-92677094D01*
X139260922Y-92574066D01*
X139248186Y-92546178D01*
X139153937Y-92437408D01*
X139153936Y-92437407D01*
X139153935Y-92437406D01*
X139032866Y-92359600D01*
X139032863Y-92359598D01*
X139032862Y-92359598D01*
X139032859Y-92359597D01*
X138894773Y-92319051D01*
X138894770Y-92319051D01*
X138750848Y-92319051D01*
X138750844Y-92319051D01*
X138612758Y-92359597D01*
X138612751Y-92359600D01*
X138491682Y-92437406D01*
X138397431Y-92546179D01*
X138337643Y-92677094D01*
X138317162Y-92819548D01*
X138317162Y-92819553D01*
X138337642Y-92962003D01*
X138337643Y-92962005D01*
X138337643Y-92962006D01*
X138337644Y-92962008D01*
X138340038Y-92967250D01*
X138347012Y-93028035D01*
X138316925Y-93081312D01*
X138277876Y-93103365D01*
X138205327Y-93124667D01*
X138205322Y-93124669D01*
X138084253Y-93202475D01*
X137990002Y-93311248D01*
X137930214Y-93442163D01*
X137909733Y-93584617D01*
X129659439Y-93584617D01*
X129673511Y-93541309D01*
X129723011Y-93505345D01*
X129753604Y-93500500D01*
X129821959Y-93500500D01*
X129821961Y-93500500D01*
X129960053Y-93459953D01*
X130081128Y-93382143D01*
X130175377Y-93273373D01*
X130235165Y-93142457D01*
X130252287Y-93023371D01*
X130255647Y-93000002D01*
X130255647Y-92999997D01*
X130235165Y-92857543D01*
X130186051Y-92750000D01*
X130175377Y-92726627D01*
X130081128Y-92617857D01*
X130081127Y-92617856D01*
X130081126Y-92617855D01*
X129960057Y-92540049D01*
X129960054Y-92540047D01*
X129960053Y-92540047D01*
X129960050Y-92540046D01*
X129821964Y-92499500D01*
X129821961Y-92499500D01*
X129678039Y-92499500D01*
X129678035Y-92499500D01*
X129539949Y-92540046D01*
X129539942Y-92540049D01*
X129418873Y-92617855D01*
X129324622Y-92726628D01*
X129264834Y-92857543D01*
X129244353Y-92999997D01*
X129244353Y-93001543D01*
X129243954Y-93002770D01*
X129243345Y-93007008D01*
X129242611Y-93006902D01*
X129225446Y-93059734D01*
X129175946Y-93095698D01*
X129145353Y-93100543D01*
X129076992Y-93100543D01*
X128938906Y-93141089D01*
X128938899Y-93141092D01*
X128817830Y-93218898D01*
X128723579Y-93327671D01*
X128663791Y-93458586D01*
X128643310Y-93601040D01*
X128643310Y-93601045D01*
X128663791Y-93743499D01*
X128705845Y-93835583D01*
X128723580Y-93874416D01*
X128737126Y-93890049D01*
X128760772Y-93917338D01*
X128784589Y-93973698D01*
X128770730Y-94033293D01*
X128724489Y-94073361D01*
X128663528Y-94078596D01*
X128632429Y-94065453D01*
X128592900Y-94040049D01*
X128592897Y-94040047D01*
X128592896Y-94040047D01*
X128592893Y-94040046D01*
X128454807Y-93999500D01*
X128454804Y-93999500D01*
X128310882Y-93999500D01*
X128310878Y-93999500D01*
X128172792Y-94040046D01*
X128172785Y-94040049D01*
X128051716Y-94117855D01*
X127957465Y-94226628D01*
X127897677Y-94357543D01*
X127877196Y-94499997D01*
X125656736Y-94499997D01*
X125586452Y-94442316D01*
X125403954Y-94344768D01*
X125205934Y-94284699D01*
X125205929Y-94284698D01*
X125000003Y-94264417D01*
X124999997Y-94264417D01*
X124794070Y-94284698D01*
X124794065Y-94284699D01*
X124596045Y-94344768D01*
X124413547Y-94442316D01*
X124253595Y-94573585D01*
X124253585Y-94573595D01*
X124122316Y-94733547D01*
X124024768Y-94916045D01*
X123964699Y-95114065D01*
X123964698Y-95114070D01*
X123944417Y-95319996D01*
X123250500Y-95319996D01*
X123250500Y-92779996D01*
X123944417Y-92779996D01*
X123944417Y-92780003D01*
X123964698Y-92985929D01*
X123964699Y-92985934D01*
X124024768Y-93183954D01*
X124122316Y-93366452D01*
X124253585Y-93526404D01*
X124253590Y-93526410D01*
X124253595Y-93526414D01*
X124413547Y-93657683D01*
X124413548Y-93657683D01*
X124413550Y-93657685D01*
X124596046Y-93755232D01*
X124733997Y-93797078D01*
X124794065Y-93815300D01*
X124794070Y-93815301D01*
X124999997Y-93835583D01*
X125000000Y-93835583D01*
X125000003Y-93835583D01*
X125205929Y-93815301D01*
X125205934Y-93815300D01*
X125403954Y-93755232D01*
X125586450Y-93657685D01*
X125746410Y-93526410D01*
X125877685Y-93366450D01*
X125975232Y-93183954D01*
X126035300Y-92985934D01*
X126035301Y-92985929D01*
X126055583Y-92780003D01*
X126055583Y-92779996D01*
X126035301Y-92574070D01*
X126035300Y-92574065D01*
X126005743Y-92476628D01*
X125975232Y-92376046D01*
X125877685Y-92193550D01*
X125746410Y-92033590D01*
X125746404Y-92033585D01*
X125586452Y-91902316D01*
X125403954Y-91804768D01*
X125205934Y-91744699D01*
X125205929Y-91744698D01*
X125000003Y-91724417D01*
X124999997Y-91724417D01*
X124794070Y-91744698D01*
X124794065Y-91744699D01*
X124596045Y-91804768D01*
X124413547Y-91902316D01*
X124253595Y-92033585D01*
X124253585Y-92033595D01*
X124122316Y-92193547D01*
X124024768Y-92376045D01*
X123964699Y-92574065D01*
X123964698Y-92574070D01*
X123944417Y-92779996D01*
X123250500Y-92779996D01*
X123250500Y-90239996D01*
X123944417Y-90239996D01*
X123944417Y-90240003D01*
X123964698Y-90445929D01*
X123964699Y-90445934D01*
X124024768Y-90643954D01*
X124122316Y-90826452D01*
X124253585Y-90986404D01*
X124253590Y-90986410D01*
X124253595Y-90986414D01*
X124413547Y-91117683D01*
X124413548Y-91117683D01*
X124413550Y-91117685D01*
X124596046Y-91215232D01*
X124733997Y-91257078D01*
X124794065Y-91275300D01*
X124794070Y-91275301D01*
X124999997Y-91295583D01*
X125000000Y-91295583D01*
X125000003Y-91295583D01*
X125205929Y-91275301D01*
X125205934Y-91275300D01*
X125403954Y-91215232D01*
X125586450Y-91117685D01*
X125746410Y-90986410D01*
X125877685Y-90826450D01*
X125956284Y-90679401D01*
X126000388Y-90636996D01*
X126060997Y-90628613D01*
X126114957Y-90657455D01*
X126118412Y-90661240D01*
X126128313Y-90672666D01*
X126128315Y-90672668D01*
X126249390Y-90750478D01*
X126355846Y-90781736D01*
X126387478Y-90791024D01*
X126387479Y-90791024D01*
X126387482Y-90791025D01*
X126387484Y-90791025D01*
X126531402Y-90791025D01*
X126531404Y-90791025D01*
X126669496Y-90750478D01*
X126790571Y-90672668D01*
X126884820Y-90563898D01*
X126944608Y-90432982D01*
X126965090Y-90290525D01*
X126957825Y-90239996D01*
X141724417Y-90239996D01*
X141724417Y-90240003D01*
X141744698Y-90445929D01*
X141744699Y-90445934D01*
X141804768Y-90643954D01*
X141902316Y-90826452D01*
X142033585Y-90986404D01*
X142033590Y-90986410D01*
X142033595Y-90986414D01*
X142193547Y-91117683D01*
X142193548Y-91117683D01*
X142193550Y-91117685D01*
X142376046Y-91215232D01*
X142513997Y-91257078D01*
X142574065Y-91275300D01*
X142574070Y-91275301D01*
X142779997Y-91295583D01*
X142780000Y-91295583D01*
X142780003Y-91295583D01*
X142985929Y-91275301D01*
X142985934Y-91275300D01*
X143183954Y-91215232D01*
X143366450Y-91117685D01*
X143526410Y-90986410D01*
X143657685Y-90826450D01*
X143755232Y-90643954D01*
X143815300Y-90445934D01*
X143815301Y-90445929D01*
X143835583Y-90240003D01*
X143835583Y-90239996D01*
X143815301Y-90034070D01*
X143815300Y-90034065D01*
X143781799Y-89923628D01*
X143755232Y-89836046D01*
X143657685Y-89653550D01*
X143526410Y-89493590D01*
X143526404Y-89493585D01*
X143366452Y-89362316D01*
X143183954Y-89264768D01*
X142985934Y-89204699D01*
X142985929Y-89204698D01*
X142780003Y-89184417D01*
X142779997Y-89184417D01*
X142574070Y-89204698D01*
X142574065Y-89204699D01*
X142376045Y-89264768D01*
X142193547Y-89362316D01*
X142033595Y-89493585D01*
X142033585Y-89493595D01*
X141902316Y-89653547D01*
X141804768Y-89836045D01*
X141744699Y-90034065D01*
X141744698Y-90034070D01*
X141724417Y-90239996D01*
X126957825Y-90239996D01*
X126944608Y-90148068D01*
X126884820Y-90017152D01*
X126790571Y-89908382D01*
X126790570Y-89908381D01*
X126790569Y-89908380D01*
X126669500Y-89830574D01*
X126669497Y-89830572D01*
X126669496Y-89830572D01*
X126669493Y-89830571D01*
X126531407Y-89790025D01*
X126531404Y-89790025D01*
X126387482Y-89790025D01*
X126387478Y-89790025D01*
X126249392Y-89830571D01*
X126249385Y-89830574D01*
X126128794Y-89908073D01*
X126069619Y-89923628D01*
X126012602Y-89901429D01*
X125980534Y-89853527D01*
X125975232Y-89836046D01*
X125877685Y-89653550D01*
X125746410Y-89493590D01*
X125746404Y-89493585D01*
X125586452Y-89362316D01*
X125403954Y-89264768D01*
X125205934Y-89204699D01*
X125205929Y-89204698D01*
X125000003Y-89184417D01*
X124999997Y-89184417D01*
X124794070Y-89204698D01*
X124794065Y-89204699D01*
X124596045Y-89264768D01*
X124413547Y-89362316D01*
X124253595Y-89493585D01*
X124253585Y-89493595D01*
X124122316Y-89653547D01*
X124024768Y-89836045D01*
X123964699Y-90034065D01*
X123964698Y-90034070D01*
X123944417Y-90239996D01*
X123250500Y-90239996D01*
X123250500Y-87699996D01*
X123944417Y-87699996D01*
X123944417Y-87700003D01*
X123964698Y-87905929D01*
X123964699Y-87905934D01*
X124024768Y-88103954D01*
X124122316Y-88286452D01*
X124253585Y-88446404D01*
X124253590Y-88446410D01*
X124253595Y-88446414D01*
X124413547Y-88577683D01*
X124413548Y-88577683D01*
X124413550Y-88577685D01*
X124596046Y-88675232D01*
X124733997Y-88717078D01*
X124794065Y-88735300D01*
X124794070Y-88735301D01*
X124999997Y-88755583D01*
X125000000Y-88755583D01*
X125000003Y-88755583D01*
X125205929Y-88735301D01*
X125205934Y-88735300D01*
X125403954Y-88675232D01*
X125586450Y-88577685D01*
X125746410Y-88446410D01*
X125877685Y-88286450D01*
X125975232Y-88103954D01*
X126035300Y-87905934D01*
X126035301Y-87905929D01*
X126055583Y-87700003D01*
X126055583Y-87699996D01*
X126035301Y-87494070D01*
X126035300Y-87494065D01*
X126025724Y-87462497D01*
X127244353Y-87462497D01*
X127244353Y-87462502D01*
X127264834Y-87604956D01*
X127324622Y-87735871D01*
X127324623Y-87735873D01*
X127418872Y-87844643D01*
X127418873Y-87844644D01*
X127539942Y-87922450D01*
X127539947Y-87922453D01*
X127646403Y-87953711D01*
X127678035Y-87962999D01*
X127678036Y-87962999D01*
X127678039Y-87963000D01*
X127678041Y-87963000D01*
X127821959Y-87963000D01*
X127821961Y-87963000D01*
X127960053Y-87922453D01*
X128081128Y-87844643D01*
X128175377Y-87735873D01*
X128191762Y-87699996D01*
X141724417Y-87699996D01*
X141724417Y-87700003D01*
X141744698Y-87905929D01*
X141744699Y-87905934D01*
X141804768Y-88103954D01*
X141902316Y-88286452D01*
X142033585Y-88446404D01*
X142033590Y-88446410D01*
X142033595Y-88446414D01*
X142193547Y-88577683D01*
X142193548Y-88577683D01*
X142193550Y-88577685D01*
X142376046Y-88675232D01*
X142513997Y-88717078D01*
X142574065Y-88735300D01*
X142574070Y-88735301D01*
X142779997Y-88755583D01*
X142780000Y-88755583D01*
X142780003Y-88755583D01*
X142985929Y-88735301D01*
X142985934Y-88735300D01*
X143183954Y-88675232D01*
X143366450Y-88577685D01*
X143526410Y-88446410D01*
X143657685Y-88286450D01*
X143755232Y-88103954D01*
X143815300Y-87905934D01*
X143815301Y-87905929D01*
X143835583Y-87700003D01*
X143835583Y-87699996D01*
X143815301Y-87494070D01*
X143815300Y-87494065D01*
X143797078Y-87433997D01*
X143755232Y-87296046D01*
X143657685Y-87113550D01*
X143631249Y-87081338D01*
X143526414Y-86953595D01*
X143526410Y-86953590D01*
X143508487Y-86938881D01*
X143366452Y-86822316D01*
X143183954Y-86724768D01*
X142985934Y-86664699D01*
X142985929Y-86664698D01*
X142780003Y-86644417D01*
X142779997Y-86644417D01*
X142574070Y-86664698D01*
X142574065Y-86664699D01*
X142376045Y-86724768D01*
X142193547Y-86822316D01*
X142033595Y-86953585D01*
X142033585Y-86953595D01*
X141902316Y-87113547D01*
X141804768Y-87296045D01*
X141744699Y-87494065D01*
X141744698Y-87494070D01*
X141724417Y-87699996D01*
X128191762Y-87699996D01*
X128235165Y-87604957D01*
X128255647Y-87462500D01*
X128240149Y-87354711D01*
X128235165Y-87320043D01*
X128224205Y-87296045D01*
X128175377Y-87189127D01*
X128081975Y-87081335D01*
X128994353Y-87081335D01*
X128994353Y-87081340D01*
X129014834Y-87223794D01*
X129047831Y-87296045D01*
X129074623Y-87354711D01*
X129168022Y-87462500D01*
X129168873Y-87463482D01*
X129289942Y-87541288D01*
X129289947Y-87541291D01*
X129396403Y-87572549D01*
X129428035Y-87581837D01*
X129428036Y-87581837D01*
X129428039Y-87581838D01*
X129428041Y-87581838D01*
X129571959Y-87581838D01*
X129571961Y-87581838D01*
X129710053Y-87541291D01*
X129831128Y-87463481D01*
X129925377Y-87354711D01*
X129985165Y-87223795D01*
X130005647Y-87081338D01*
X129994024Y-87000500D01*
X129985165Y-86938881D01*
X129925377Y-86807966D01*
X129925377Y-86807965D01*
X129831128Y-86699195D01*
X129831127Y-86699194D01*
X129831126Y-86699193D01*
X129710057Y-86621387D01*
X129710054Y-86621385D01*
X129710053Y-86621385D01*
X129710050Y-86621384D01*
X129571964Y-86580838D01*
X129571961Y-86580838D01*
X129428039Y-86580838D01*
X129428035Y-86580838D01*
X129289949Y-86621384D01*
X129289942Y-86621387D01*
X129168873Y-86699193D01*
X129074622Y-86807966D01*
X129014834Y-86938881D01*
X128994353Y-87081335D01*
X128081975Y-87081335D01*
X128081128Y-87080357D01*
X128081127Y-87080356D01*
X128081126Y-87080355D01*
X127960057Y-87002549D01*
X127960054Y-87002547D01*
X127960053Y-87002547D01*
X127960050Y-87002546D01*
X127821964Y-86962000D01*
X127821961Y-86962000D01*
X127678039Y-86962000D01*
X127678035Y-86962000D01*
X127539949Y-87002546D01*
X127539942Y-87002549D01*
X127418873Y-87080355D01*
X127324622Y-87189128D01*
X127264834Y-87320043D01*
X127244353Y-87462497D01*
X126025724Y-87462497D01*
X126017078Y-87433997D01*
X125975232Y-87296046D01*
X125877685Y-87113550D01*
X125851249Y-87081338D01*
X125746414Y-86953595D01*
X125746410Y-86953590D01*
X125728487Y-86938881D01*
X125586452Y-86822316D01*
X125403954Y-86724768D01*
X125205934Y-86664699D01*
X125205929Y-86664698D01*
X125000003Y-86644417D01*
X124999997Y-86644417D01*
X124794070Y-86664698D01*
X124794065Y-86664699D01*
X124596045Y-86724768D01*
X124413547Y-86822316D01*
X124253595Y-86953585D01*
X124253585Y-86953595D01*
X124122316Y-87113547D01*
X124024768Y-87296045D01*
X123964699Y-87494065D01*
X123964698Y-87494070D01*
X123944417Y-87699996D01*
X123250500Y-87699996D01*
X123250500Y-86499997D01*
X136744353Y-86499997D01*
X136744353Y-86500002D01*
X136764834Y-86642456D01*
X136824622Y-86773371D01*
X136824623Y-86773373D01*
X136910768Y-86872790D01*
X136918873Y-86882144D01*
X137039942Y-86959950D01*
X137039947Y-86959953D01*
X137146403Y-86991211D01*
X137178035Y-87000499D01*
X137178036Y-87000499D01*
X137178039Y-87000500D01*
X137178041Y-87000500D01*
X137321959Y-87000500D01*
X137321961Y-87000500D01*
X137460053Y-86959953D01*
X137571478Y-86888344D01*
X137630652Y-86872790D01*
X137678521Y-86888344D01*
X137789947Y-86959953D01*
X137896403Y-86991211D01*
X137928035Y-87000499D01*
X137928036Y-87000499D01*
X137928039Y-87000500D01*
X137928041Y-87000500D01*
X138071959Y-87000500D01*
X138071961Y-87000500D01*
X138210053Y-86959953D01*
X138331128Y-86882143D01*
X138425377Y-86773373D01*
X138485165Y-86642457D01*
X138505647Y-86500000D01*
X138485165Y-86357543D01*
X138425377Y-86226627D01*
X138331128Y-86117857D01*
X138331127Y-86117856D01*
X138331126Y-86117855D01*
X138210057Y-86040049D01*
X138210055Y-86040048D01*
X138210053Y-86040047D01*
X138175343Y-86029855D01*
X138146010Y-86021242D01*
X138095503Y-85986705D01*
X138074942Y-85929078D01*
X138092181Y-85870371D01*
X138099078Y-85861427D01*
X138175377Y-85773373D01*
X138235165Y-85642457D01*
X138246452Y-85563954D01*
X138255647Y-85500002D01*
X138255647Y-85499997D01*
X138235165Y-85357543D01*
X138223276Y-85331511D01*
X138175377Y-85226627D01*
X138143491Y-85189829D01*
X138130884Y-85159996D01*
X141724417Y-85159996D01*
X141724417Y-85160003D01*
X141744698Y-85365929D01*
X141744699Y-85365934D01*
X141804768Y-85563954D01*
X141902316Y-85746452D01*
X141998359Y-85863481D01*
X142033590Y-85906410D01*
X142033595Y-85906414D01*
X142193547Y-86037683D01*
X142193548Y-86037683D01*
X142193550Y-86037685D01*
X142376046Y-86135232D01*
X142485678Y-86168488D01*
X142574065Y-86195300D01*
X142574070Y-86195301D01*
X142779997Y-86215583D01*
X142780000Y-86215583D01*
X142780003Y-86215583D01*
X142985929Y-86195301D01*
X142985934Y-86195300D01*
X143183954Y-86135232D01*
X143366450Y-86037685D01*
X143526410Y-85906410D01*
X143657685Y-85746450D01*
X143755232Y-85563954D01*
X143815300Y-85365934D01*
X143815301Y-85365929D01*
X143835583Y-85160003D01*
X143835583Y-85159996D01*
X143815301Y-84954070D01*
X143815300Y-84954065D01*
X143770443Y-84806192D01*
X143755232Y-84756046D01*
X143657685Y-84573550D01*
X143646704Y-84560170D01*
X143526414Y-84413595D01*
X143526410Y-84413590D01*
X143500657Y-84392455D01*
X143366452Y-84282316D01*
X143183954Y-84184768D01*
X142985934Y-84124699D01*
X142985929Y-84124698D01*
X142780003Y-84104417D01*
X142779997Y-84104417D01*
X142574070Y-84124698D01*
X142574065Y-84124699D01*
X142376045Y-84184768D01*
X142193547Y-84282316D01*
X142033595Y-84413585D01*
X142033585Y-84413595D01*
X141902316Y-84573547D01*
X141804768Y-84756045D01*
X141744699Y-84954065D01*
X141744698Y-84954070D01*
X141724417Y-85159996D01*
X138130884Y-85159996D01*
X138119675Y-85133472D01*
X138133533Y-85073877D01*
X138143492Y-85060170D01*
X138175377Y-85023373D01*
X138235165Y-84892457D01*
X138248890Y-84796995D01*
X138255647Y-84750002D01*
X138255647Y-84749997D01*
X138235165Y-84607543D01*
X138204340Y-84540046D01*
X138175377Y-84476627D01*
X138081128Y-84367857D01*
X138081127Y-84367856D01*
X138081126Y-84367855D01*
X137960057Y-84290049D01*
X137960054Y-84290047D01*
X137960053Y-84290047D01*
X137960050Y-84290046D01*
X137821964Y-84249500D01*
X137821961Y-84249500D01*
X137678039Y-84249500D01*
X137678035Y-84249500D01*
X137539949Y-84290046D01*
X137539942Y-84290049D01*
X137418873Y-84367855D01*
X137324622Y-84476628D01*
X137264834Y-84607543D01*
X137244353Y-84749997D01*
X137244353Y-84750002D01*
X137264834Y-84892456D01*
X137313947Y-84999997D01*
X137324623Y-85023373D01*
X137338403Y-85039276D01*
X137356507Y-85060170D01*
X137380323Y-85116530D01*
X137366463Y-85176125D01*
X137356507Y-85189830D01*
X137324622Y-85226628D01*
X137264834Y-85357543D01*
X137244353Y-85499997D01*
X137244353Y-85500002D01*
X137264834Y-85642456D01*
X137324623Y-85773373D01*
X137378602Y-85835669D01*
X137402420Y-85892028D01*
X137388561Y-85951624D01*
X137342320Y-85991691D01*
X137303783Y-85999500D01*
X137178035Y-85999500D01*
X137039949Y-86040046D01*
X137039942Y-86040049D01*
X136918873Y-86117855D01*
X136824622Y-86226628D01*
X136764834Y-86357543D01*
X136744353Y-86499997D01*
X123250500Y-86499997D01*
X123250500Y-85159996D01*
X123944417Y-85159996D01*
X123944417Y-85160003D01*
X123964698Y-85365929D01*
X123964699Y-85365934D01*
X124024768Y-85563954D01*
X124122316Y-85746452D01*
X124218359Y-85863481D01*
X124253590Y-85906410D01*
X124253595Y-85906414D01*
X124413547Y-86037683D01*
X124413548Y-86037683D01*
X124413550Y-86037685D01*
X124596046Y-86135232D01*
X124705678Y-86168488D01*
X124794065Y-86195300D01*
X124794070Y-86195301D01*
X124999997Y-86215583D01*
X125000000Y-86215583D01*
X125000003Y-86215583D01*
X125205929Y-86195301D01*
X125205934Y-86195300D01*
X125403954Y-86135232D01*
X125586450Y-86037685D01*
X125746410Y-85906410D01*
X125877685Y-85746450D01*
X125905031Y-85695288D01*
X125949134Y-85652885D01*
X126009742Y-85644502D01*
X126045862Y-85658676D01*
X126136464Y-85716902D01*
X126237103Y-85746452D01*
X126274552Y-85757448D01*
X126274553Y-85757448D01*
X126274556Y-85757449D01*
X126274558Y-85757449D01*
X126418476Y-85757449D01*
X126418478Y-85757449D01*
X126556570Y-85716902D01*
X126677645Y-85639092D01*
X126771894Y-85530322D01*
X126794266Y-85481335D01*
X129012060Y-85481335D01*
X129012060Y-85481340D01*
X129032541Y-85623794D01*
X129075063Y-85716902D01*
X129092330Y-85754711D01*
X129108501Y-85773373D01*
X129186580Y-85863482D01*
X129253378Y-85906410D01*
X129307654Y-85941291D01*
X129371212Y-85959953D01*
X129445742Y-85981837D01*
X129445743Y-85981837D01*
X129445746Y-85981838D01*
X129445748Y-85981838D01*
X129589666Y-85981838D01*
X129589668Y-85981838D01*
X129727760Y-85941291D01*
X129848835Y-85863481D01*
X129943084Y-85754711D01*
X130002872Y-85623795D01*
X130020671Y-85500000D01*
X130023354Y-85481340D01*
X130023354Y-85481335D01*
X130002872Y-85338881D01*
X129965453Y-85256946D01*
X129943084Y-85207965D01*
X129848835Y-85099195D01*
X129848834Y-85099194D01*
X129848833Y-85099193D01*
X129727764Y-85021387D01*
X129727761Y-85021385D01*
X129727760Y-85021385D01*
X129727757Y-85021384D01*
X129589671Y-84980838D01*
X129589668Y-84980838D01*
X129445746Y-84980838D01*
X129445742Y-84980838D01*
X129307656Y-85021384D01*
X129307649Y-85021387D01*
X129186580Y-85099193D01*
X129092329Y-85207966D01*
X129032541Y-85338881D01*
X129012060Y-85481335D01*
X126794266Y-85481335D01*
X126831682Y-85399406D01*
X126852164Y-85256949D01*
X126847804Y-85226627D01*
X126831682Y-85114492D01*
X126824695Y-85099193D01*
X126771894Y-84983576D01*
X126677645Y-84874806D01*
X126677644Y-84874805D01*
X126677643Y-84874804D01*
X126556574Y-84796998D01*
X126556571Y-84796996D01*
X126556570Y-84796996D01*
X126556567Y-84796995D01*
X126418481Y-84756449D01*
X126418478Y-84756449D01*
X126274556Y-84756449D01*
X126274552Y-84756449D01*
X126136466Y-84796995D01*
X126136462Y-84796997D01*
X126122154Y-84806192D01*
X126062978Y-84821744D01*
X126005962Y-84799544D01*
X125979286Y-84759625D01*
X125977091Y-84760535D01*
X125975233Y-84756051D01*
X125975232Y-84756046D01*
X125877685Y-84573550D01*
X125866704Y-84560170D01*
X125746414Y-84413595D01*
X125746410Y-84413590D01*
X125720657Y-84392455D01*
X125586452Y-84282316D01*
X125403954Y-84184768D01*
X125205934Y-84124699D01*
X125205929Y-84124698D01*
X125000003Y-84104417D01*
X124999997Y-84104417D01*
X124794070Y-84124698D01*
X124794065Y-84124699D01*
X124596045Y-84184768D01*
X124413547Y-84282316D01*
X124253595Y-84413585D01*
X124253585Y-84413595D01*
X124122316Y-84573547D01*
X124024768Y-84756045D01*
X123964699Y-84954065D01*
X123964698Y-84954070D01*
X123944417Y-85159996D01*
X123250500Y-85159996D01*
X123250500Y-82619996D01*
X123944417Y-82619996D01*
X123944417Y-82620003D01*
X123964698Y-82825929D01*
X123964699Y-82825934D01*
X124024768Y-83023954D01*
X124122316Y-83206452D01*
X124158051Y-83249995D01*
X124253590Y-83366410D01*
X124253595Y-83366414D01*
X124413547Y-83497683D01*
X124413548Y-83497683D01*
X124413550Y-83497685D01*
X124596046Y-83595232D01*
X124717727Y-83632143D01*
X124794065Y-83655300D01*
X124794070Y-83655301D01*
X124999997Y-83675583D01*
X125000000Y-83675583D01*
X125000003Y-83675583D01*
X125205929Y-83655301D01*
X125205934Y-83655300D01*
X125403954Y-83595232D01*
X125586450Y-83497685D01*
X125746410Y-83366410D01*
X125877685Y-83206450D01*
X125975232Y-83023954D01*
X126035300Y-82825934D01*
X126035301Y-82825929D01*
X126055583Y-82620003D01*
X126055583Y-82619996D01*
X126035301Y-82414070D01*
X126035300Y-82414065D01*
X125997680Y-82290049D01*
X125975232Y-82216046D01*
X125877685Y-82033550D01*
X125849740Y-81999499D01*
X125746414Y-81873595D01*
X125746410Y-81873590D01*
X125746404Y-81873585D01*
X125586452Y-81742316D01*
X125403954Y-81644768D01*
X125205934Y-81584699D01*
X125205929Y-81584698D01*
X125000003Y-81564417D01*
X124999997Y-81564417D01*
X124794070Y-81584698D01*
X124794065Y-81584699D01*
X124596045Y-81644768D01*
X124413547Y-81742316D01*
X124253595Y-81873585D01*
X124253585Y-81873595D01*
X124122316Y-82033547D01*
X124024768Y-82216045D01*
X123964699Y-82414065D01*
X123964698Y-82414070D01*
X123944417Y-82619996D01*
X123250500Y-82619996D01*
X123250500Y-80079996D01*
X123944417Y-80079996D01*
X123944417Y-80080003D01*
X123964698Y-80285929D01*
X123964699Y-80285934D01*
X124024768Y-80483954D01*
X124122316Y-80666452D01*
X124253585Y-80826404D01*
X124253590Y-80826410D01*
X124253595Y-80826414D01*
X124413547Y-80957683D01*
X124413548Y-80957683D01*
X124413550Y-80957685D01*
X124596046Y-81055232D01*
X124733997Y-81097078D01*
X124794065Y-81115300D01*
X124794070Y-81115301D01*
X124999997Y-81135583D01*
X125000000Y-81135583D01*
X125000003Y-81135583D01*
X125205929Y-81115301D01*
X125205934Y-81115300D01*
X125403954Y-81055232D01*
X125586450Y-80957685D01*
X125746410Y-80826410D01*
X125877685Y-80666450D01*
X125975232Y-80483954D01*
X126035300Y-80285934D01*
X126035301Y-80285929D01*
X126055583Y-80080003D01*
X126055583Y-80079996D01*
X126035301Y-79874070D01*
X126035300Y-79874065D01*
X126017078Y-79813997D01*
X125975232Y-79676046D01*
X125877685Y-79493550D01*
X125746410Y-79333590D01*
X125603735Y-79216500D01*
X125586452Y-79202316D01*
X125403954Y-79104768D01*
X125205934Y-79044699D01*
X125205929Y-79044698D01*
X125000003Y-79024417D01*
X124999997Y-79024417D01*
X124794070Y-79044698D01*
X124794065Y-79044699D01*
X124596045Y-79104768D01*
X124413547Y-79202316D01*
X124253595Y-79333585D01*
X124253585Y-79333595D01*
X124122316Y-79493547D01*
X124024768Y-79676045D01*
X123964699Y-79874065D01*
X123964698Y-79874070D01*
X123944417Y-80079996D01*
X123250500Y-80079996D01*
X123250500Y-77539996D01*
X123944417Y-77539996D01*
X123944417Y-77540003D01*
X123964698Y-77745929D01*
X123964699Y-77745934D01*
X124024768Y-77943954D01*
X124122316Y-78126452D01*
X124253585Y-78286404D01*
X124253590Y-78286410D01*
X124253595Y-78286414D01*
X124413547Y-78417683D01*
X124413548Y-78417683D01*
X124413550Y-78417685D01*
X124596046Y-78515232D01*
X124733997Y-78557078D01*
X124794065Y-78575300D01*
X124794070Y-78575301D01*
X124999997Y-78595583D01*
X125000000Y-78595583D01*
X125000003Y-78595583D01*
X125205929Y-78575301D01*
X125205934Y-78575300D01*
X125403954Y-78515232D01*
X125586450Y-78417685D01*
X125746410Y-78286410D01*
X125877685Y-78126450D01*
X125975232Y-77943954D01*
X126035300Y-77745934D01*
X126035301Y-77745929D01*
X126055583Y-77540003D01*
X126055583Y-77539996D01*
X126035301Y-77334070D01*
X126035300Y-77334065D01*
X126017078Y-77273997D01*
X125975232Y-77136046D01*
X125877685Y-76953550D01*
X125746410Y-76793590D01*
X125603735Y-76676500D01*
X125586452Y-76662316D01*
X125403954Y-76564768D01*
X125205934Y-76504699D01*
X125205929Y-76504698D01*
X125000003Y-76484417D01*
X124999997Y-76484417D01*
X124794070Y-76504698D01*
X124794065Y-76504699D01*
X124596045Y-76564768D01*
X124413547Y-76662316D01*
X124253595Y-76793585D01*
X124253585Y-76793595D01*
X124122316Y-76953547D01*
X124024768Y-77136045D01*
X123964699Y-77334065D01*
X123964698Y-77334070D01*
X123944417Y-77539996D01*
X123250500Y-77539996D01*
X123250500Y-74130253D01*
X123949500Y-74130253D01*
X123949500Y-75869746D01*
X123949501Y-75869758D01*
X123961132Y-75928227D01*
X123961133Y-75928231D01*
X124005448Y-75994552D01*
X124071769Y-76038867D01*
X124116231Y-76047711D01*
X124130241Y-76050498D01*
X124130246Y-76050498D01*
X124130252Y-76050500D01*
X124130253Y-76050500D01*
X125869747Y-76050500D01*
X125869748Y-76050500D01*
X125928231Y-76038867D01*
X125994552Y-75994552D01*
X126038867Y-75928231D01*
X126050500Y-75869748D01*
X126050500Y-74130252D01*
X126038867Y-74071769D01*
X125994552Y-74005448D01*
X125994548Y-74005445D01*
X125928233Y-73961134D01*
X125928231Y-73961133D01*
X125928228Y-73961132D01*
X125928227Y-73961132D01*
X125869758Y-73949501D01*
X125869748Y-73949500D01*
X124130252Y-73949500D01*
X124130251Y-73949500D01*
X124130241Y-73949501D01*
X124071772Y-73961132D01*
X124071766Y-73961134D01*
X124005451Y-74005445D01*
X124005445Y-74005451D01*
X123961134Y-74071766D01*
X123961132Y-74071772D01*
X123949501Y-74130241D01*
X123949500Y-74130253D01*
X123250500Y-74130253D01*
X123250500Y-73349500D01*
X123269407Y-73291309D01*
X123318907Y-73255345D01*
X123349500Y-73250500D01*
X129236352Y-73250500D01*
X129294543Y-73269407D01*
G37*
%TD.AperFunction*%
%TD*%
M02*
