%TF.GenerationSoftware,KiCad,Pcbnew,8.0.7*%
%TF.CreationDate,2025-02-16T23:20:21-06:00*%
%TF.ProjectId,MotorDriver,4d6f746f-7244-4726-9976-65722e6b6963,rev?*%
%TF.SameCoordinates,Original*%
%TF.FileFunction,Paste,Top*%
%TF.FilePolarity,Positive*%
%FSLAX46Y46*%
G04 Gerber Fmt 4.6, Leading zero omitted, Abs format (unit mm)*
G04 Created by KiCad (PCBNEW 8.0.7) date 2025-02-16 23:20:21*
%MOMM*%
%LPD*%
G01*
G04 APERTURE LIST*
G04 Aperture macros list*
%AMRoundRect*
0 Rectangle with rounded corners*
0 $1 Rounding radius*
0 $2 $3 $4 $5 $6 $7 $8 $9 X,Y pos of 4 corners*
0 Add a 4 corners polygon primitive as box body*
4,1,4,$2,$3,$4,$5,$6,$7,$8,$9,$2,$3,0*
0 Add four circle primitives for the rounded corners*
1,1,$1+$1,$2,$3*
1,1,$1+$1,$4,$5*
1,1,$1+$1,$6,$7*
1,1,$1+$1,$8,$9*
0 Add four rect primitives between the rounded corners*
20,1,$1+$1,$2,$3,$4,$5,0*
20,1,$1+$1,$4,$5,$6,$7,0*
20,1,$1+$1,$6,$7,$8,$9,0*
20,1,$1+$1,$8,$9,$2,$3,0*%
G04 Aperture macros list end*
%ADD10C,0.000000*%
%ADD11RoundRect,0.250000X-0.475000X0.337500X-0.475000X-0.337500X0.475000X-0.337500X0.475000X0.337500X0*%
%ADD12RoundRect,0.300000X1.200000X1.200000X-1.200000X1.200000X-1.200000X-1.200000X1.200000X-1.200000X0*%
%ADD13RoundRect,0.250000X-0.350000X-0.450000X0.350000X-0.450000X0.350000X0.450000X-0.350000X0.450000X0*%
%ADD14RoundRect,0.250000X0.475000X-0.337500X0.475000X0.337500X-0.475000X0.337500X-0.475000X-0.337500X0*%
%ADD15R,0.906066X0.242473*%
%ADD16R,0.242473X0.906066*%
%ADD17R,0.242472X0.906064*%
%ADD18RoundRect,0.250000X-0.337500X-0.475000X0.337500X-0.475000X0.337500X0.475000X-0.337500X0.475000X0*%
%ADD19RoundRect,0.218750X-0.218750X-0.256250X0.218750X-0.256250X0.218750X0.256250X-0.218750X0.256250X0*%
%ADD20RoundRect,0.300000X-1.200000X-1.200000X1.200000X-1.200000X1.200000X1.200000X-1.200000X1.200000X0*%
G04 APERTURE END LIST*
D10*
%TO.C,U1*%
G36*
X135528269Y-88189134D02*
G01*
X132971733Y-88189134D01*
X132971733Y-86221734D01*
X135528269Y-86221734D01*
X135528269Y-88189134D01*
G37*
G36*
X135528269Y-90778268D02*
G01*
X132971733Y-90778268D01*
X132971733Y-88810868D01*
X135528269Y-88810868D01*
X135528269Y-90778268D01*
G37*
%TD*%
D11*
%TO.C,C3*%
X136000000Y-94712500D03*
X136000000Y-96787500D03*
%TD*%
D12*
%TO.C,J3*%
X138500000Y-74750000D03*
X134000000Y-74750000D03*
X129500000Y-74750000D03*
%TD*%
D13*
%TO.C,R1*%
X127517707Y-85481338D03*
X129517707Y-85481338D03*
%TD*%
D14*
%TO.C,C5*%
X140000000Y-91537500D03*
X140000000Y-89462500D03*
%TD*%
D15*
%TO.C,U1*%
X136753034Y-91250000D03*
X136753034Y-90750001D03*
X136753034Y-90249999D03*
X136753034Y-89750000D03*
X136753034Y-89250001D03*
X136753034Y-88750000D03*
X136753034Y-88250000D03*
X136753034Y-87749999D03*
X136753034Y-87250000D03*
X136753034Y-86750001D03*
X136753034Y-86249999D03*
X136753034Y-85750000D03*
D16*
X136000000Y-84996967D03*
X135500001Y-84996967D03*
X135000002Y-84996967D03*
X134500001Y-84996967D03*
X134000001Y-84996967D03*
X133500000Y-84996967D03*
X133000001Y-84996967D03*
X132500002Y-84996967D03*
D15*
X131746968Y-85750000D03*
X131746968Y-86249999D03*
X131746968Y-86750001D03*
X131746968Y-87250000D03*
X131746968Y-87749999D03*
X131746968Y-88250000D03*
X131746968Y-88750000D03*
X131746968Y-89250001D03*
X131746968Y-89750000D03*
X131746968Y-90249999D03*
X131746968Y-90750001D03*
X131746968Y-91250000D03*
D16*
X132500002Y-92003033D03*
X133000001Y-92003033D03*
X133500000Y-92003033D03*
X134000001Y-92003033D03*
X134500001Y-92003033D03*
X135000002Y-92003033D03*
X135500001Y-92003033D03*
D17*
X136000000Y-92003032D03*
%TD*%
D11*
%TO.C,C6*%
X127750000Y-87462500D03*
X127750000Y-89537500D03*
%TD*%
D18*
%TO.C,C7*%
X137962500Y-98250000D03*
X140037500Y-98250000D03*
%TD*%
D19*
%TO.C,L1*%
X139212500Y-96000000D03*
X140787500Y-96000000D03*
%TD*%
D20*
%TO.C,J1*%
X131500000Y-101500000D03*
X136500000Y-101500000D03*
%TD*%
D11*
%TO.C,C4*%
X140000000Y-85462500D03*
X140000000Y-87537500D03*
%TD*%
M02*
